<?xml version="1.0" encoding="UTF-8"?>
<!DOCTYPE svg PUBLIC "-//W3C//DTD SVG 1.1//EN" "http://www.w3.org/Graphics/SVG/1.1/DTD/svg11.dtd">
<!-- Creator: CorelDRAW 2019 (64-Bit) -->
<svg xmlns="http://www.w3.org/2000/svg" xml:space="preserve" width="1000mm" height="1000mm" version="1.1" style="shape-rendering:geometricPrecision; text-rendering:geometricPrecision; image-rendering:optimizeQuality; fill-rule:evenodd; clip-rule:evenodd"
viewBox="0 0 100000 100000"
 xmlns:xlink="http://www.w3.org/1999/xlink"
 xmlns:xodm="http://www.corel.com/coreldraw/odm/2003">
 <defs>
  <style type="text/css">
   <![CDATA[
    .str3 {stroke:black;stroke-width:20;stroke-miterlimit:22.9256}
    .str2 {stroke:fuchsia;stroke-width:20;stroke-miterlimit:22.9256}
    .str1 {stroke:#FF6600;stroke-width:20;stroke-miterlimit:22.9256}
    .str0 {stroke:#FF6600;stroke-width:7.62;stroke-miterlimit:22.9256}
    .fil1 {fill:none}
    .fil0 {fill:none;fill-rule:nonzero}
   ]]>
  </style>
 </defs>
 <g id="CUT_1">
  <metadata id="CorelCorpID_0Corel-Layer"/>
  <g id="_2400355188304">
   <line class="fil0 str0" x1="47049.39" y1="52246.87" x2="46403.81" y2= "52246.87" />
   <polyline class="fil0 str0" points="45916.97,50950.41 46266.22,50611.74 46948.85,50611.74 47345.72,51066.82 47345.72,51823.53 47049.39,52246.87 47467.43,52659.62 47467.43,53776.16 47007.06,54225.95 46282.1,54225.95 45911.68,53850.24 "/>
   <polyline class="fil0 str0" points="49790.47,52569.66 48435.8,52569.66 47980.72,52125.16 47980.72,51061.53 48446.39,50611.74 49351.26,50611.74 49795.76,51050.95 49795.76,53125.28 49176.64,54008.99 48509.89,54220.66 "/>
   <polyline class="fil0 str0" points="52113.51,52569.66 50758.84,52569.66 50303.76,52125.16 50303.76,51061.53 50769.43,50611.74 51674.3,50611.74 52118.8,51050.95 52118.8,53125.28 51499.68,54008.99 50832.93,54220.66 "/>
   <path class="fil1 str1" d="M61921.66 38874.35c0,0 6975.06,324.11 7504.23,271.2 529.17,-52.91 6756.82,46.3 6756.82,46.3"/>
   <path class="fil1 str1" d="M76115.2 45433.9c0,0 119.06,1322.92 -26.46,1733.02 -145.52,410.1 -635,2460.62 -635,2460.62l-304.27 3307.32c0,0 -502.7,8016.84 -555.62,8863.51 -52.92,846.67 -396.88,6826.26 -396.88,6826.26 0,0 105.84,2063.75 105.84,2725.21 0,661.46 -423.34,7170.21 -423.34,7170.21"/>
   <path class="fil1 str1" d="M69765.2 83758.77c0,0 -304.27,687.91 -648.23,793.75 -343.96,105.84 -3571.88,211.67 -3571.88,211.67 0,0 -26789.07,158.71 -28455.95,105.8 -1666.88,-52.91 -7699.38,-423.33 -7699.38,-423.33 0,0 -5635.62,-251.35 -6019.27,-449.79 -383.65,-198.44 -1084.79,-383.65 -952.5,-992.19 132.29,-608.54 330.73,-2778.12 330.73,-2778.12 0,0 1587.51,-6469.09 1719.8,-7395.13 132.29,-926.04 1137.7,-8096.26 1190.62,-8493.13 52.92,-396.87 926.04,-7805.21 1005.42,-8731.25 79.38,-926.04 423.34,-6508.75 370.42,-8069.79 -52.92,-1561.04 -132.3,-6799.8 -238.13,-7858.13 -105.83,-1058.33 -767.29,-8552.65 -820.21,-8704.79"/>
   <path class="fil1 str1" d="M62166.42 38322.02c0,0 1878.55,-9816.04 1931.46,-10451.04 52.91,-635 1243.54,-7567.09 1243.54,-7567.09l1408.9 -9610.98"/>
   <path class="fil1 str1" d="M58316.75 10633.37c0,0 2290,15615.92 2434.16,16774.6 144.16,1158.68 859.88,11125.72 859.88,11125.72"/>
   <path class="fil1 str2" d="M42448.61 78632.98c-276.14,0 -500,223.86 -500,500 0,276.14 223.86,500 500,500 276.14,0 500,-223.86 500,-500 0,-276.14 -223.86,-500 -500,-500z"/>
   <path class="fil1 str2" d="M62762.55 79534.72c-276.14,0 -500,223.86 -500,500 0,276.14 223.86,500 500,500 276.14,0 500,-223.86 500,-500 0,-276.14 -223.86,-500 -500,-500z"/>
   <path class="fil1 str3" d="M46073.11 88465.42l-20770.27 -147.27c-3723.24,-21.68 -8195.64,-3882.64 -7304.43,-7657.11 1384.01,-5861.71 2351.01,-11061.08 3367.68,-16965.58 398.02,-2312.45 642.72,-4844.52 953.25,-7190.75 503.61,-3805.91 599.1,-7630.79 718.17,-11460.82 96.02,-3081.86 -240.42,-6927.93 -352.11,-10088.42 -8.51,-240.28 46.28,-929.01 208.65,-1050.79 185.21,-138.9 2368.04,-2553.22 2368.04,-2553.22 0,0 621.78,-588.71 601.94,-1012.04 -19.84,-423.33 -277.81,-1607.34 -277.81,-1607.34 -469.87,-2868.81 -1664.04,-8322.86 -1673.94,-10976.95l-11.98 -3163.21c-5.41,-1422.42 774.93,-3075.06 2299.46,-3351.26 1690.32,-306.26 4051.96,-792.83 5733.78,-825.71 4749.83,-92.84 9407.56,-170.59 14152.06,-170.59 7316.21,0 14688.92,289.97 22029.64,343.79 1025.29,7.73 2077.36,61.89 3105.1,92.77 0,0 476.25,-13.23 833.44,317.5 307.94,285.13 3752.52,2831.78 4696.5,3528.59 972.17,717.6 1571.51,2617.73 1543.56,3787.26l-166.17 6953.97c-38.71,1623.35 -341.88,3660.46 -499.22,5320.84 -291.5,3077.19 -1125.92,6192.53 -1356.88,9213.35 -123.32,1612.01 -179.17,2648.24 -156.41,4242.43 0,0 -39.69,978.95 185.21,1243.54 721.18,848.48 2381.15,2398.99 2766.23,3310.04 474.98,1123.8 392.02,1150.93 369.86,2669.84 -122.57,8373.73 -1115.54,17598.99 -1631.42,26042.13 -67.15,1099 -23.48,2000.77 -2116.79,1874.4l-3580.9 -216.17c-1259.56,-76.03 -2100.29,912.15 -2149.12,2088.85l-145.4 3501.85c-71.93,1733.63 -970.45,4070.36 -2970.1,4053.34l-20769.62 -147.26z"/>
  </g>
 </g>
</svg>
