<?xml version="1.0" encoding="UTF-8"?>
<!DOCTYPE svg PUBLIC "-//W3C//DTD SVG 1.1//EN" "http://www.w3.org/Graphics/SVG/1.1/DTD/svg11.dtd">
<!-- Creator: CorelDRAW 2019 (64-Bit) -->
<svg xmlns="http://www.w3.org/2000/svg" xml:space="preserve" width="1000mm" height="1000mm" version="1.1" style="shape-rendering:geometricPrecision; text-rendering:geometricPrecision; image-rendering:optimizeQuality; fill-rule:evenodd; clip-rule:evenodd"
viewBox="0 0 100000 100000"
 xmlns:xlink="http://www.w3.org/1999/xlink"
 xmlns:xodm="http://www.corel.com/coreldraw/odm/2003">
 <defs>
  <style type="text/css">
   <![CDATA[
    .str2 {stroke:black;stroke-width:20;stroke-miterlimit:22.9256}
    .str1 {stroke:#FF6600;stroke-width:20;stroke-miterlimit:22.9256}
    .str0 {stroke:#FF6600;stroke-width:7.62;stroke-miterlimit:22.9256}
    .fil1 {fill:none}
    .fil0 {fill:none;fill-rule:nonzero}
   ]]>
  </style>
 </defs>
 <g id="CUT_1">
  <metadata id="CorelCorpID_0Corel-Layer"/>
  <g id="_2400364135024">
   <polyline class="fil0 str0" points="46791.32,62549 47140.57,62210.33 47823.2,62210.33 48220.07,62665.41 48220.07,63422.12 47923.74,63845.46 48341.78,64258.21 48341.78,65374.75 47881.41,65824.54 47156.45,65824.54 46786.03,65448.83 "/>
   <line class="fil0 str0" x1="47923.74" y1="63845.46" x2="47278.16" y2= "63845.46" />
   <polyline class="fil0 str0" points="50664.82,64168.25 49310.15,64168.25 48855.07,63723.75 48855.07,62660.12 49320.74,62210.33 50225.61,62210.33 50670.11,62649.54 50670.11,64723.87 50050.99,65607.58 49384.24,65819.25 "/>
   <polyline class="fil0 str0" points="52987.86,64168.25 51633.19,64168.25 51178.11,63723.75 51178.11,62660.12 51643.78,62210.33 52548.65,62210.33 52993.15,62649.54 52993.15,64723.87 52374.03,65607.58 51707.28,65819.25 "/>
   <polyline class="fil0 str0" points="55056.9,64131.21 56406.28,64131.21 56861.36,63686.71 56861.36,62660.12 56406.28,62215.62 55056.9,62215.62 55056.9,65824.54 "/>
   <path class="fil1 str1" d="M76657.49 78469.04c0,0 -291.05,1997.61 -833.44,2368.02 -542.39,370.41 -1402.3,489.48 -2301.88,463.02 -899.58,-26.46 -15491.34,-568.86 -16629.05,-595.32 -1137.71,-26.46 -9260.41,52.93 -10477.5,132.3 -1217.09,79.37 -4802.19,595.3 -5820.84,833.43 -1018.65,238.13 -8493.14,1640.43 -8969.39,1680.11 -476.25,39.68 -3122.1,661.46 -3532.2,-39.69 -410.1,-701.15 -582.09,-1375.83 -648.23,-2368.02 -66.14,-992.19 -66.13,-5516.58 -66.13,-5516.58l423.33 -8466.67 555.63 -16906.87c0,0 145.52,-846.67 436.56,-1005.42"/>
   <path class="fil1 str2" d="M51051.64 84713.61l-4547.11 51.67c-3616.49,41.3 -8766.79,1403.85 -12338.42,2199.7 -2123.3,472.89 -3564.97,834.52 -5724.53,737.83 -2128.79,-95.29 -5305.04,-2844.7 -5269.94,-5180.62 142.72,-9491.6 719.61,-19123.54 1104.77,-28619.64 0,0 13.23,-515.94 423.33,-926.04 410.1,-410.1 3796.79,-3902.62 3796.79,-3902.62 0,0 846.67,-806.99 2129.9,-873.13 1080.9,-55.71 4254.96,-83.27 5229,-90.57 1192.01,-9 2156.05,-1091.39 2167.04,-2256.73l84.05 -8930.16c15.45,-1642.32 1645.79,-2159.06 2999.46,-2103.33l14665.27 574.27c5485.37,205.19 11012.36,593 16474.94,1192.1 1150.39,126.17 1814.23,1098.56 1811.29,2181.3l-23.54 8573.43c-3.47,1263.04 -266.15,1502.31 1516.77,1946.24 658.11,163.86 1144.38,196.18 1159.67,1083.03 185.7,10770.09 68.26,21659.16 129.78,32444.78 10.52,1847.35 -2067.44,2464.49 -3590.78,2438.82l-9295.53 -156.26c-1148.91,-19.29 -2436.08,-158.78 -3597.38,-235.63 -2992.11,-198 -6295.9,-183.24 -9304.83,-148.44z"/>
  </g>
 </g>
</svg>
