<?xml version="1.0" encoding="UTF-8"?>
<!DOCTYPE svg PUBLIC "-//W3C//DTD SVG 1.1//EN" "http://www.w3.org/Graphics/SVG/1.1/DTD/svg11.dtd">
<!-- Creator: CorelDRAW 2019 (64-Bit) -->
<svg xmlns="http://www.w3.org/2000/svg" xml:space="preserve" width="1000mm" height="1000mm" version="1.1" style="shape-rendering:geometricPrecision; text-rendering:geometricPrecision; image-rendering:optimizeQuality; fill-rule:evenodd; clip-rule:evenodd"
viewBox="0 0 100000 100000"
 xmlns:xlink="http://www.w3.org/1999/xlink"
 xmlns:xodm="http://www.corel.com/coreldraw/odm/2003">
 <defs>
  <style type="text/css">
   <![CDATA[
    .str2 {stroke:black;stroke-width:20;stroke-miterlimit:22.9256}
    .str3 {stroke:fuchsia;stroke-width:20;stroke-miterlimit:22.9256}
    .str1 {stroke:#FF6600;stroke-width:20;stroke-miterlimit:22.9256}
    .str0 {stroke:#FF6600;stroke-width:7.62;stroke-miterlimit:22.9256}
    .fil1 {fill:none}
    .fil0 {fill:none;fill-rule:nonzero}
   ]]>
  </style>
 </defs>
 <g id="CUT_1">
  <metadata id="CorelCorpID_0Corel-Layer"/>
  <g id="_2400531385440">
   <line class="fil0 str0" x1="41559.8" y1="44531.57" x2="40914.22" y2= "44531.57" />
   <polyline class="fil0 str0" points="40427.38,43235.11 40776.63,42896.44 41459.26,42896.44 41856.13,43351.52 41856.13,44108.23 41559.8,44531.57 41977.84,44944.32 41977.84,46060.86 41517.47,46510.65 40792.51,46510.65 40422.09,46134.94 "/>
   <polyline class="fil0 str0" points="44300.88,44854.36 42946.21,44854.36 42491.13,44409.86 42491.13,43346.23 42956.8,42896.44 43861.67,42896.44 44306.17,43335.65 44306.17,45409.98 43687.05,46293.69 43020.3,46505.36 "/>
   <polyline class="fil0 str0" points="46623.92,44854.36 45269.25,44854.36 44814.17,44409.86 44814.17,43346.23 45279.84,42896.44 46184.71,42896.44 46629.21,43335.65 46629.21,45409.98 46010.09,46293.69 45343.34,46505.36 "/>
   <path class="fil1 str1" d="M69010.02 33763.15c12.27,3401.11 -293.45,8580.4 52.94,11813.65 79.37,740.84 423.33,6323.55 423.33,6323.55l502.71 5503.33 185.21 4974.17c0,0 13.22,3479.28 66.14,3862.92 414.24,3002.99 793.63,6016.46 1190.63,9022.29 297.43,928.33 1838.87,5249.58 1838.87,5714.98 0,502.71 238.13,1309.7 39.69,1600.74 -198.44,291.04 -833.45,1018.65 -1058.34,1124.48 -224.89,105.83 -1309.7,727.6 -1653.65,714.37 -343.95,-13.23 -9220.74,171.96 -9220.74,171.96 0,0 -6614.59,-939.26 -7196.67,-978.95 -582.08,-39.69 -7223.14,-66.15 -7712.62,-13.23 -489.48,52.92 -4180.43,383.65 -4577.3,383.65 -2541.06,0 -15570.77,373.92 -16602.6,92.58 -145.53,-39.68 -1838.86,-92.6 -2460.63,-1031.87 -621.77,-939.27 -489.48,-1680.12 -370.42,-2487.09 119.06,-806.97 158.74,-1719.78 105.83,-2434.16 -52.91,-714.38 -264.57,-9101.69 -264.57,-9101.69l-1309.67 -38741.65"/>
   <path class="fil1 str2" d="M46837.94 88637.79l-22432.43 -183.59c-2579.94,-21.13 -5372.9,-2236.85 -5452.4,-4815.55l-1439.06 -46651.78c-15.99,-518.37 127.3,-1207.54 418.76,-1622.73 1054.13,-1501.65 1617.67,-2483.98 2533.4,-4121.41 212.59,-380.12 495.48,-1710.46 495.48,-2153.66 0,-4306.69 -158.07,-8515.26 -476.23,-12828.1 -30.74,-1537.55 2853.73,-4221.05 4299.48,-4603.75 2490.12,-659.13 7533.18,-921.69 10203.64,-953.17l22833.56 -288.69c533.29,-7 2446.24,203.41 2942.89,359.93 986.37,310.82 5744.7,1586.64 6533.26,2504.25 474.83,552.52 977.43,1405.54 993.01,2143.14l464.3 16367.51c41.98,1445.68 390.99,1553.91 1186.08,2597.02l2231.83 2928.2c274.8,360.55 540.04,1162.61 556.94,1624.81l102.28 2798.01c26.77,738.85 260.6,1471.46 269.64,2021.64l125.56 7634.98c9.47,574.52 211.92,1207.48 245.77,1789.39 263.66,4535.16 455.5,8924.4 523.96,13468.56l22.71 1500.28c5.77,380.77 142.67,740.92 222.11,1109.73 691.05,3210.52 1571.48,7019.26 2572.44,10128.21l694.05 2155.22c1320.73,4101.66 -4017.96,7337.33 -7778.01,7302.4l-22893.02 -210.85z"/>
   <circle class="fil1 str3" cx="43412.83" cy="78315.43" r="500"/>
  </g>
 </g>
</svg>
