<?xml version="1.0" encoding="UTF-8"?>
<!DOCTYPE svg PUBLIC "-//W3C//DTD SVG 1.1//EN" "http://www.w3.org/Graphics/SVG/1.1/DTD/svg11.dtd">
<!-- Creator: CorelDRAW 2019 (64-Bit) -->
<svg xmlns="http://www.w3.org/2000/svg" xml:space="preserve" width="1000mm" height="1000mm" version="1.1" style="shape-rendering:geometricPrecision; text-rendering:geometricPrecision; image-rendering:optimizeQuality; fill-rule:evenodd; clip-rule:evenodd"
viewBox="0 0 100000 100000"
 xmlns:xlink="http://www.w3.org/1999/xlink"
 xmlns:xodm="http://www.corel.com/coreldraw/odm/2003">
 <defs>
  <style type="text/css">
   <![CDATA[
    .str2 {stroke:black;stroke-width:20;stroke-miterlimit:22.9256}
    .str0 {stroke:#FF6600;stroke-width:20;stroke-miterlimit:22.9256}
    .str1 {stroke:#FF6600;stroke-width:7.62;stroke-miterlimit:22.9256}
    .fil0 {fill:none}
    .fil1 {fill:none;fill-rule:nonzero}
   ]]>
  </style>
 </defs>
 <g id="CUT_1">
  <metadata id="CorelCorpID_0Corel-Layer"/>
  <g id="_2400364155120">
   <path class="fil0 str0" d="M23354.05 78469.04c0,0 291.05,1997.61 833.44,2368.02 542.39,370.41 1402.3,489.48 2301.88,463.02 899.58,-26.46 15491.34,-568.86 16629.05,-595.32 1137.71,-26.46 9260.41,52.93 10477.5,132.3 1217.09,79.37 4802.19,595.3 5820.84,833.43 1018.65,238.13 8493.14,1640.43 8969.39,1680.11 476.25,39.68 3122.1,661.46 3532.2,-39.69 410.1,-701.15 582.09,-1375.83 648.23,-2368.02 66.14,-992.19 66.13,-5516.58 66.13,-5516.58l-423.33 -8466.67 -555.63 -16906.87c0,0 -145.52,-846.67 -436.56,-1005.42"/>
   <polyline class="fil1 str1" points="53429.47,59309.33 53424.18,62923.54 54725.93,62923.54 "/>
   <polyline class="fil1 str1" points="51360.43,61267.25 50005.76,61267.25 49550.68,60822.75 49550.68,59759.12 50016.35,59309.33 50921.22,59309.33 51365.72,59748.54 51365.72,61822.87 50746.6,62706.58 50079.85,62918.25 "/>
   <polyline class="fil1 str1" points="49037.39,61267.25 47682.72,61267.25 47227.64,60822.75 47227.64,59759.12 47693.31,59309.33 48598.18,59309.33 49042.68,59748.54 49042.68,61822.87 48423.56,62706.58 47756.81,62918.25 "/>
   <line class="fil1 str1" x1="46296.31" y1="60944.46" x2="45650.73" y2= "60944.46" />
   <polyline class="fil1 str1" points="45163.89,59648 45513.14,59309.33 46195.77,59309.33 46592.64,59764.41 46592.64,60521.12 46296.31,60944.46 46714.35,61357.21 46714.35,62473.75 46253.98,62923.54 45529.02,62923.54 45158.6,62547.83 "/>
   <path class="fil0 str2" d="M48959.9 84713.61l4547.11 51.67c3616.49,41.3 8766.79,1403.85 12338.42,2199.7 2123.3,472.89 3564.97,834.52 5724.53,737.83 2128.79,-95.29 5305.04,-2844.7 5269.94,-5180.62 -142.72,-9491.6 -719.61,-19123.54 -1104.77,-28619.64 0,0 -13.23,-515.94 -423.33,-926.04 -410.1,-410.1 -3796.79,-3902.62 -3796.79,-3902.62 0,0 -846.67,-806.99 -2129.9,-873.13 -1080.9,-55.71 -4254.96,-83.27 -5229,-90.57 -1192.01,-9 -2156.05,-1091.39 -2167.04,-2256.73l-84.05 -8930.16c-15.45,-1642.32 -1645.79,-2159.06 -2999.46,-2103.33l-14665.27 574.27c-5485.37,205.19 -11012.36,593 -16474.94,1192.1 -1150.39,126.17 -1814.23,1098.56 -1811.29,2181.3l23.54 8573.43c3.47,1263.04 266.15,1502.31 -1516.77,1946.24 -658.11,163.86 -1144.38,196.18 -1159.67,1083.03 -185.7,10770.09 -68.26,21659.16 -129.78,32444.78 -10.52,1847.35 2067.44,2464.49 3590.78,2438.82l9295.53 -156.26c1148.91,-19.29 2436.08,-158.78 3597.38,-235.63 2992.11,-198 6295.9,-183.24 9304.83,-148.44z"/>
  </g>
 </g>
</svg>
