<?xml version="1.0" encoding="UTF-8"?>
<!DOCTYPE svg PUBLIC "-//W3C//DTD SVG 1.1//EN" "http://www.w3.org/Graphics/SVG/1.1/DTD/svg11.dtd">
<!-- Creator: CorelDRAW 2019 (64-Bit) -->
<svg xmlns="http://www.w3.org/2000/svg" xml:space="preserve" width="1000mm" height="1000mm" version="1.1" style="shape-rendering:geometricPrecision; text-rendering:geometricPrecision; image-rendering:optimizeQuality; fill-rule:evenodd; clip-rule:evenodd"
viewBox="0 0 100000 100000"
 xmlns:xlink="http://www.w3.org/1999/xlink"
 xmlns:xodm="http://www.corel.com/coreldraw/odm/2003">
 <defs>
  <style type="text/css">
   <![CDATA[
    .str2 {stroke:black;stroke-width:20;stroke-miterlimit:22.9256}
    .str1 {stroke:#FF6600;stroke-width:20;stroke-miterlimit:22.9256}
    .str3 {stroke:#FF6600;stroke-width:7.62;stroke-miterlimit:22.9256}
    .str0 {stroke:#663333;stroke-width:7.62;stroke-miterlimit:22.9256}
    .fil1 {fill:none}
    .fil2 {fill:none;fill-rule:nonzero}
    .fil0 {fill:#663333;fill-rule:nonzero}
   ]]>
  </style>
 </defs>
 <g id="Слой_x0020_1">
  <metadata id="CorelCorpID_0Corel-Layer"/>
  <g id="_2400544557120">
   <path class="fil0 str0" d="M40386.96 53100.53l0 -2240.14c0,-58.79 -28.22,-88.19 -84.66,-88.19l-1037.17 0c-56.45,0 -84.67,29.4 -84.67,88.19l0 2240.14c0,25.87 8.23,46.45 24.7,61.74 16.46,15.29 36.45,22.93 59.97,22.93 58.79,0 88.19,-28.22 88.19,-84.67l0 -2155.47 860.78 0 0 2155.47c0,25.87 8.82,46.45 26.46,61.74 17.64,15.29 38.22,22.93 61.74,22.93 23.51,0 43.5,-7.06 59.97,-21.17 16.46,-14.11 24.69,-35.27 24.69,-63.5zm515.06 -84.66l0 -1379.37 518.59 0c47.03,0 87.01,16.47 119.94,49.39 32.93,32.93 49.39,72.91 49.39,119.95l0 1033.64c0,47.03 -16.46,88.19 -49.39,123.47 -32.93,35.28 -72.91,52.92 -119.94,52.92l-518.59 0zm0 169.33l518.59 0c47.03,0 91.13,-8.82 132.29,-26.46 41.16,-17.64 77.61,-42.33 109.36,-74.08 31.75,-31.75 56.44,-68.21 74.08,-109.36 17.64,-41.16 26.46,-86.43 26.46,-135.82l0 -1033.64c0,-47.04 -8.82,-91.14 -26.46,-132.29 -17.64,-41.16 -42.33,-77.61 -74.08,-109.36 -31.75,-31.75 -68.2,-56.45 -109.36,-74.09 -41.16,-17.64 -85.26,-26.46 -132.29,-26.46l-606.78 0c-56.45,0 -84.67,28.23 -84.67,84.67l0 2240.14c0,28.22 8.23,49.39 24.7,63.5 16.46,14.11 36.45,21.17 59.97,21.17 58.79,0 88.19,-28.23 88.19,-84.67l0 -603.25zm2067.28 -345.72c0,49.39 -16.46,90.54 -49.39,123.47 -32.93,32.93 -74.08,49.39 -123.47,49.39l-345.72 0c-47.04,0 -87.02,-16.46 -119.95,-49.39 -32.92,-32.93 -49.39,-74.08 -49.39,-123.47l0 -1033.64c0,-47.04 16.47,-87.02 49.39,-119.95 32.93,-32.92 72.91,-49.39 119.95,-49.39l518.58 0 0 1202.98zm289.28 179.91c-35.28,-11.75 -63.5,-34.69 -84.67,-68.79 -21.17,-34.1 -31.75,-71.14 -31.75,-111.12l0 -1291.17c0,-56.44 -29.4,-84.67 -88.19,-84.67l-603.25 0c-49.39,0 -94.67,8.82 -135.82,26.46 -41.16,17.64 -77.03,42.34 -107.6,74.09 -30.58,31.75 -54.68,68.2 -72.32,109.36 -17.64,41.15 -26.46,85.25 -26.46,132.29l0 1033.64c0,98.78 32.34,181.09 97.02,246.94 64.67,65.85 146.4,98.78 245.18,98.78l345.72 0c103.48,0 189.32,-38.81 257.53,-116.42 25.87,30.58 49.39,52.92 70.55,67.03 35.28,28.22 62.33,44.69 81.14,49.39 7.06,2.35 17.64,3.53 31.75,3.53 23.52,0 43.51,-8.82 59.97,-26.46 16.47,-17.64 24.7,-38.22 24.7,-61.74 0,-39.98 -21.17,-67.02 -63.5,-81.14zm402.16 -1555.75l0 -345.72c0,-56.44 16.47,-99.36 49.39,-128.76 32.93,-29.4 72.91,-44.1 119.95,-44.1 49.38,0 90.54,15.29 123.47,45.86 32.92,30.57 49.39,72.91 49.39,127 0,47.04 -21.17,89.37 -63.5,127 -39.98,39.98 -89.37,82.32 -148.17,127 -18.81,16.46 -38.81,31.75 -59.97,45.86 -21.17,14.11 -44.69,29.4 -70.56,45.86zm687.92 1375.84c0,47.03 -17.05,87.6 -51.15,121.71 -34.11,34.1 -74.67,51.15 -121.71,51.15l-342.2 0c-49.39,0 -90.54,-16.46 -123.47,-49.39 -32.92,-32.93 -49.39,-74.08 -49.39,-123.47l0 -1033.64c0,-47.04 16.47,-87.02 49.39,-119.95 32.93,-32.92 74.08,-49.39 123.47,-49.39l342.2 0c49.39,0 90.54,16.47 123.47,49.39 32.93,32.93 49.39,72.91 49.39,119.95l0 1033.64zm-409.22 -1375.84c11.76,-11.76 24.69,-22.34 38.8,-31.75 14.11,-9.4 28.22,-19.99 42.34,-31.75 42.33,-35.27 68.2,-57.62 77.61,-67.02 30.57,-37.63 51.74,-75.26 63.5,-112.89 9.4,-21.17 14.11,-55.27 14.11,-102.31 0,-108.18 -36.46,-194.03 -109.36,-257.53 -63.5,-56.44 -142.29,-84.66 -236.36,-84.66 -91.73,0 -170.51,28.22 -236.37,84.66 -70.55,63.5 -105.83,149.35 -105.83,257.53l0 1721.56c0,47.03 8.82,91.13 26.46,132.29 17.64,41.16 42.33,77.61 74.08,109.36 31.75,31.75 68.21,57.03 109.36,75.85 41.16,18.81 86.43,28.22 135.82,28.22l342.2 0c49.39,0 94.66,-9.41 135.82,-28.22 41.16,-18.82 77.61,-44.1 109.36,-75.85 31.75,-31.75 56.44,-68.2 74.08,-109.36 17.64,-41.16 26.46,-85.26 26.46,-132.29l0 -1033.64c0,-47.04 -8.82,-91.14 -26.46,-132.29 -17.64,-41.16 -42.33,-77.61 -74.08,-109.36 -31.75,-31.75 -68.2,-56.45 -109.36,-74.09 -41.16,-17.64 -86.43,-26.46 -135.82,-26.46l-236.36 0zm2134.3 1636.89l0 -1552.22c0,-28.22 -8.82,-49.39 -26.46,-63.5 -17.64,-14.11 -38.21,-21.17 -61.73,-21.17 -23.52,0 -43.51,7.65 -59.97,22.93 -16.47,15.29 -24.7,35.87 -24.7,61.74l0 1552.22c0,25.87 8.23,46.45 24.7,61.74 16.46,15.29 36.45,22.93 59.97,22.93 58.79,0 88.19,-28.22 88.19,-84.67zm-1033.64 -691.44l342.2 0c49.39,0 90.54,17.05 123.47,51.15 32.93,34.1 49.39,74.67 49.39,121.71l0 257.53c0,49.39 -16.46,90.54 -49.39,123.47 -32.93,32.93 -74.08,49.39 -123.47,49.39l-342.2 0 0 -603.25zm0 -172.86l0 -687.92c0,-28.22 -8.82,-49.39 -26.46,-63.5 -17.63,-14.11 -38.21,-21.17 -61.73,-21.17 -23.52,0 -43.51,7.65 -59.97,22.93 -16.47,15.29 -24.7,35.87 -24.7,61.74l0 1552.22c0,56.45 28.22,84.67 84.67,84.67l430.39 0c98.77,0 181.09,-32.93 246.94,-98.78 65.85,-65.85 98.78,-148.16 98.78,-246.94l0 -257.53c0,-47.04 -8.82,-91.13 -26.46,-132.29 -17.64,-41.16 -42.33,-77.61 -74.08,-109.36 -31.75,-31.75 -68.21,-57.04 -109.36,-75.85 -41.16,-18.82 -86.43,-28.22 -135.82,-28.22l-342.2 0zm2063.76 -1291.17c25.87,0 46.45,-8.23 61.73,-24.69 15.29,-16.47 22.94,-36.46 22.94,-59.98 0,-58.79 -28.23,-88.19 -84.67,-88.19l-342.2 0c-28.22,0 -49.39,8.82 -63.5,26.46 -14.11,17.64 -21.16,38.21 -21.16,61.73 0,23.52 7.64,43.51 22.93,59.98 15.28,16.46 35.86,24.69 61.73,24.69l342.2 0zm345.72 2155.47l0 -1552.22c0,-28.22 -8.82,-49.39 -26.46,-63.5 -17.64,-14.11 -38.22,-21.17 -61.73,-21.17 -23.52,0 -43.51,7.65 -59.98,22.93 -16.46,15.29 -24.69,35.87 -24.69,61.74l0 1464.03 -515.06 0c-49.39,0 -90.54,-16.46 -123.47,-49.39 -32.92,-32.93 -49.39,-74.08 -49.39,-123.47l0 -1291.17c0,-28.22 -8.82,-49.39 -26.46,-63.5 -17.63,-14.11 -38.21,-21.17 -61.73,-21.17 -23.52,0 -43.51,7.65 -59.97,22.93 -16.47,15.29 -24.7,35.87 -24.7,61.74l0 1291.17c0,47.03 8.82,91.13 26.46,132.29 17.64,41.16 42.33,77.61 74.08,109.36 31.75,31.75 68.21,57.03 109.36,75.85 41.16,18.81 86.43,28.22 135.82,28.22l599.73 0c58.79,0 88.19,-28.22 88.19,-84.67zm1404.06 84.67l-3.53 0 0 -2409.47 737.3 1174.75 740.84 -1174.75 0 2409.47 0 0 0 -2405.95 -740.84 1178.28 -733.77 -1178.28 0 2405.95zm10481.05 -2409.47l-733.78 0 -306.92 299.86 0 1809.75 306.92 299.86 733.78 0 0 0 -733.78 0 -306.92 -299.86 0 -1809.75 306.92 -299.86 733.78 0zm342.19 0l0 0 684.39 1202.97 684.39 -1202.97 0 0 -684.39 1202.97 684.39 1206.5c0,0 0,0 0,0l-684.39 -1202.97 -684.39 1202.97 0 0 684.39 -1202.97 -684.39 -1206.5zm2839.87 1548.69l-1206.5 0 0 0 1206.5 0zm-23336.29 2582.34l-3.53 0 0 -430.39 1213.56 0 -677.33 2409.47 0 0 673.8 -2409.47 -1206.5 0 0 430.39zm2691.7 1979.08l0 0 0 -2409.47 0 0 0 2409.47zm1502.83 -1816.81l-3.53 0 0 -296.33 388.06 -296.33 433.92 0 377.47 299.86 0 462.14 -1210.03 1647.47 1202.97 0 0 0 -1206.5 0 1210.03 -1647.47 0 -462.14 -373.94 -299.86 -433.92 0 -388.06 296.33 3.53 296.33zm1531.06 -282.22l303.39 -310.44 599.73 0 306.91 296.33 0 1813.28 -299.86 299.86 -606.78 0 -303.39 -292.81 0 -1806.22zm303.39 -310.44l-299.86 310.44 0 1806.22 299.86 292.81 606.78 0 296.33 -299.86 0 -1813.28 -303.38 -296.33 -599.73 0zm1245.31 310.44l303.39 -310.44 599.73 0 306.91 296.33 0 1813.28 -299.86 299.86 -606.78 0 -303.39 -292.81 0 -1806.22zm303.39 -310.44l-299.86 310.44 0 1806.22 299.86 292.81 606.78 0 296.33 -299.86 0 -1813.28 -303.38 -296.33 -599.73 0zm1248.84 1104.19l903.11 0 303.39 296.33 0 709.09 -310.44 299.86 -603.25 0 -296.34 -292.81 0 -1382.89 412.75 -589.13 444.5 -141.12 0 0 -444.5 141.12 -409.22 589.13 0 1382.89 292.81 292.81 603.25 0 306.91 -299.86 0 -709.09 -299.86 -296.33 -903.11 0zm2667.01 444.5l-1206.5 0 0 0 1206.5 0zm275.16 -956.03l-3.53 0 0 -296.33 388.06 -296.33 433.92 0 377.47 299.86 0 462.14 -1210.03 1647.47 1202.97 0 0 0 -1206.5 0 1210.03 -1647.47 0 -462.14 -373.94 -299.86 -433.92 0 -388.06 296.33 3.53 296.33zm1531.06 -282.22l303.39 -310.44 599.73 0 306.91 296.33 0 1813.28 -299.86 299.86 -606.78 0 -303.39 -292.81 0 -1806.22zm303.39 -310.44l-299.86 310.44 0 1806.22 299.86 292.81 606.78 0 296.33 -299.86 0 -1813.28 -303.38 -296.33 -599.73 0zm1245.31 680.86l691.45 -680.86 0 2409.47c0,0 0,0 0,0l0 -2405.95 -687.92 677.34 -3.53 0zm1051.28 -88.2l-3.53 0 0 -296.33 388.06 -296.33 433.92 0 377.47 299.86 0 462.14 -1210.03 1647.47 1202.97 0 0 0 -1206.5 0 1210.03 -1647.47 0 -462.14 -373.94 -299.86 -433.92 0 -388.06 296.33 3.53 296.33zm3601.87 -592.66l-1033.64 0 0 1104.19 709.09 0 0 3.53 -709.09 0 0 1301.75 1033.64 0 0 0 -1033.64 0 0 -2409.47 1033.64 0zm342.19 0l903.12 0 306.91 296.33 0 698.5 -306.91 299.86 -409.23 0 645.59 1114.78 -3.53 0 -645.59 -1114.78 -486.83 0 0 0 899.59 0 306.91 -299.86 0 -698.5 -306.91 -292.81 -899.59 0 0 2405.95 -3.53 0 0 -2409.47zm-8304.42 -1291.17l687.92 -2409.47 687.92 2409.47 -3.53 0 -684.39 -2405.95 -684.39 2405.95 -3.53 0zm218.73 -762l938.39 0 0 0 -938.39 0zm1502.83 -1647.47l1220.62 0 -1217.09 2409.47 1217.09 0 0 0 -1220.62 0 1220.62 -2409.47 -1220.62 0zm1548.7 2409.47l0 -2409.47 903.12 0 306.91 299.86 3.53 1809.75 -310.44 299.86 -903.12 0zm3.53 -2409.47l0 2409.47 899.59 0 306.91 -299.86 0 -1809.75 -306.91 -299.86 -899.59 0zm1545.17 2409.47l687.92 -2409.47 687.92 2409.47 -3.53 0 -684.39 -2405.95 -684.39 2405.95 -3.53 0zm218.73 -762l938.39 0 0 0 -938.39 0z"/>
   <path class="fil1 str1" d="M25628.74 61442.6l0 18561.38c0,1621.62 1295.85,2000 2610.56,2000l44990.03 0c624.24,0 1183.26,-288.52 1550.5,-739.03"/>
   <path class="fil1 str2" d="M48225.6 85138.23l24087.36 0c1900.24,0 2916.37,-3659.23 2916.37,-5134.25l0 -18154.45c0,-1101.56 -898.44,-2000 -2000,-2000l-5031.12 0c-1101.56,0 -2000,-898.44 -2000,-2000l0 -8488.34c0,-1101.56 -898.44,-2000 -2000,-2000l-25068.91 0c-1101.56,0 -2000,898.44 -2000,2000l0 7853.34c0,1101.56 -898.44,2000 -2000,2000l-7500.56 0c-970.52,0 -1783.39,697.43 -1963.03,1616.7 -292.14,1494.8 -3564.98,4228.5 -3591.43,5895.21l-202.21 12739.11c-44,2773.83 1185.56,5672.68 4360.36,5672.68l21993.17 0z"/>
   <polyline class="fil2 str3" points="53124.48,72840.16 53124.48,69231.24 54473.86,69231.24 54928.94,69675.74 54928.94,70702.33 54473.86,71146.83 53124.48,71146.83 "/>
   <line class="fil2 str3" x1="50637.4" y1="70861.08" x2="49991.82" y2= "70861.08" />
   <polyline class="fil2 str3" points="49499.69,72464.45 49870.11,72840.16 50595.07,72840.16 51055.44,72390.37 51055.44,71273.83 50637.4,70861.08 50933.73,70437.74 50933.73,69681.03 50536.86,69225.95 49854.23,69225.95 49504.98,69564.62 "/>
   <polyline class="fil2 str3" points="48462.53,69231.24 47795.78,69442.91 47176.65,70326.62 47176.65,72400.95 47621.15,72840.16 48526.03,72840.16 48991.69,72390.37 48991.69,71326.74 48536.61,70882.24 47181.94,70882.24 "/>
   <polyline class="fil2 str3" points="46663.36,71972.33 44853.61,71972.33 45499.19,69225.95 "/>
   <line class="fil2 str3" x1="46023.07" y1="71030.41" x2="46023.07" y2= "72840.16" />
  </g>
 </g>
</svg>
