<?xml version="1.0" encoding="UTF-8"?>
<!DOCTYPE svg PUBLIC "-//W3C//DTD SVG 1.1//EN" "http://www.w3.org/Graphics/SVG/1.1/DTD/svg11.dtd">
<!-- Creator: CorelDRAW 2019 (64-Bit) -->
<svg xmlns="http://www.w3.org/2000/svg" xml:space="preserve" width="1000mm" height="1000mm" version="1.1" style="shape-rendering:geometricPrecision; text-rendering:geometricPrecision; image-rendering:optimizeQuality; fill-rule:evenodd; clip-rule:evenodd"
viewBox="0 0 100000 100000"
 xmlns:xlink="http://www.w3.org/1999/xlink"
 xmlns:xodm="http://www.corel.com/coreldraw/odm/2003">
 <defs>
  <style type="text/css">
   <![CDATA[
    .str0 {stroke:black;stroke-width:20;stroke-miterlimit:22.9256}
    .str2 {stroke:#9600FF;stroke-width:20;stroke-miterlimit:22.9256}
    .str1 {stroke:#FF6600;stroke-width:20;stroke-miterlimit:22.9256}
    .str4 {stroke:#FF6600;stroke-width:7.62;stroke-miterlimit:22.9256}
    .str3 {stroke:#663333;stroke-width:7.62;stroke-miterlimit:22.9256}
    .fil0 {fill:none}
    .fil2 {fill:none;fill-rule:nonzero}
    .fil1 {fill:#663333;fill-rule:nonzero}
   ]]>
  </style>
 </defs>
 <g id="Слой_x0020_1">
  <metadata id="CorelCorpID_0Corel-Layer"/>
  <g id="_2400780432128">
   <path class="fil0 str0" d="M44029.29 81595.33l24339.69 -138.02c2319.5,-13.15 4642.88,-2107.11 4591.64,-4514.01l-746.21 -35044.74c-43.36,-2036.69 -3798.37,-5607.88 -3890.38,-7227.2 -146.92,-2585.47 -321.83,-5148.38 -533.02,-7678.85 -435.14,-5205.35 -434.27,-8241.05 -1780.44,-13301.16 -408.4,-1535.1 -2814.05,-3271 -4413.29,-3271l-21300.13 0c-550.78,0 -1024.76,196.33 -1414.22,585.79 -5081.48,5081.48 -9901.76,9772.13 -15203.85,14624.03 -429.25,392.8 -649.81,893.61 -649.81,1475.46l0 11580.49c0,1713.95 -6198.9,10515.65 -6198.9,12378.27l0 25589.01c0,1044.37 2193.58,5083.72 3797.28,5074.63l23401.64 -132.7z"/>
   <path class="fil0 str1" d="M20454.05 44417.9c-6.04,55.78 -9.08,109.6 -8.89,161.28l114.66 31503.99c4.01,1101.55 898.44,2000 2000,2000l42379.48 0c3515.59,0 4628.82,-514.66 4521.94,-4237.77 -360.77,-12565.66 -402.57,-25761.82 -1096.19,-38438.52m-47908.66 8992.9c-0.71,6 -1.7,12.17 -2.34,18.12"/>
   <path class="fil0 str2" d="M63261.7 70599.83c-331.37,0 -600,268.63 -600,600 0,331.37 268.63,600 600,600 331.37,0 600,-268.63 600,-600 0,-331.37 -268.63,-600 -600,-600z"/>
   <path class="fil1 str3" d="M38235.2 18772.01l0 -2240.14c0,-58.79 -28.22,-88.19 -84.66,-88.19l-1037.17 0c-56.45,0 -84.67,29.4 -84.67,88.19l0 2240.14c0,25.87 8.23,46.45 24.7,61.74 16.46,15.29 36.45,22.93 59.97,22.93 58.79,0 88.19,-28.22 88.19,-84.67l0 -2155.47 860.78 0 0 2155.47c0,25.87 8.82,46.45 26.46,61.74 17.64,15.29 38.22,22.93 61.74,22.93 23.51,0 43.5,-7.06 59.97,-21.17 16.46,-14.11 24.69,-35.27 24.69,-63.5zm1202.98 -261.05c0,49.39 -16.46,90.54 -49.39,123.47 -32.93,32.93 -74.08,49.39 -123.47,49.39l-345.72 0c-47.04,0 -87.02,-16.46 -119.95,-49.39 -32.92,-32.93 -49.39,-74.08 -49.39,-123.47l0 -1033.64c0,-47.04 16.47,-87.02 49.39,-119.95 32.93,-32.92 72.91,-49.39 119.95,-49.39l518.58 0 0 1202.98zm289.28 179.91c-35.28,-11.75 -63.5,-34.69 -84.67,-68.79 -21.17,-34.1 -31.75,-71.14 -31.75,-111.12l0 -1291.17c0,-56.44 -29.4,-84.67 -88.19,-84.67l-603.25 0c-49.39,0 -94.67,8.82 -135.82,26.46 -41.16,17.64 -77.03,42.34 -107.6,74.09 -30.58,31.75 -54.68,68.2 -72.32,109.36 -17.64,41.15 -26.46,85.25 -26.46,132.29l0 1033.64c0,98.78 32.34,181.09 97.02,246.94 64.67,65.85 146.4,98.78 245.18,98.78l345.72 0c103.48,0 189.32,-38.81 257.53,-116.42 25.87,30.58 49.39,52.92 70.55,67.03 35.28,28.22 62.33,44.69 81.14,49.39 7.06,2.35 17.64,3.53 31.75,3.53 23.52,0 43.51,-8.82 59.97,-26.46 16.47,-17.64 24.7,-38.22 24.7,-61.74 0,-39.98 -21.17,-67.02 -63.5,-81.14zm1174.75 165.81c28.22,0 49.97,-8.82 65.26,-26.46 15.29,-17.64 22.93,-37.04 22.93,-58.21 0,-58.79 -29.4,-88.19 -88.19,-88.19l-603.25 0c-47.04,0 -87.02,-16.46 -119.95,-49.39 -32.92,-32.93 -49.39,-74.08 -49.39,-123.47l0 -1033.64c0,-47.04 16.47,-87.02 49.39,-119.95 32.93,-32.92 72.91,-49.39 119.95,-49.39l603.25 0c28.22,0 49.97,-8.81 65.26,-26.45 15.29,-17.64 22.93,-38.22 22.93,-61.74 0,-56.44 -29.4,-84.67 -88.19,-84.67l-603.25 0c-49.39,0 -94.67,8.82 -135.82,26.46 -41.16,17.64 -77.03,42.34 -107.6,74.09 -30.58,31.75 -54.68,68.2 -72.32,109.36 -17.64,41.15 -26.46,85.25 -26.46,132.29l0 1033.64c0,98.78 32.34,181.09 97.02,246.94 64.67,65.85 146.4,98.78 245.18,98.78l603.25 0zm1379.36 0c28.22,0 49.97,-8.82 65.26,-26.46 15.29,-17.64 22.93,-37.04 22.93,-58.21 0,-58.79 -29.4,-88.19 -88.19,-88.19l-603.25 0c-47.04,0 -87.02,-16.46 -119.95,-49.39 -32.92,-32.93 -49.39,-74.08 -49.39,-123.47l0 -1033.64c0,-47.04 16.47,-87.02 49.39,-119.95 32.93,-32.92 72.91,-49.39 119.95,-49.39l603.25 0c28.22,0 49.97,-8.81 65.26,-26.45 15.29,-17.64 22.93,-38.22 22.93,-61.74 0,-56.44 -29.4,-84.67 -88.19,-84.67l-603.25 0c-49.39,0 -94.67,8.82 -135.82,26.46 -41.16,17.64 -77.03,42.34 -107.6,74.09 -30.58,31.75 -54.68,68.2 -72.32,109.36 -17.64,41.15 -26.46,85.25 -26.46,132.29l0 1033.64c0,98.78 32.34,181.09 97.02,246.94 64.67,65.85 146.4,98.78 245.18,98.78l603.25 0zm1294.69 -345.72c0,49.39 -16.46,90.54 -49.39,123.47 -32.93,32.93 -74.08,49.39 -123.47,49.39l-345.72 0c-47.04,0 -87.02,-16.46 -119.95,-49.39 -32.92,-32.93 -49.39,-74.08 -49.39,-123.47l0 -1033.64c0,-47.04 16.47,-87.02 49.39,-119.95 32.93,-32.92 72.91,-49.39 119.95,-49.39l518.58 0 0 1202.98zm289.28 179.91c-35.28,-11.75 -63.5,-34.69 -84.67,-68.79 -21.17,-34.1 -31.75,-71.14 -31.75,-111.12l0 -1291.17c0,-56.44 -29.4,-84.67 -88.19,-84.67l-603.25 0c-49.39,0 -94.67,8.82 -135.82,26.46 -41.16,17.64 -77.03,42.34 -107.6,74.09 -30.58,31.75 -54.68,68.2 -72.32,109.36 -17.64,41.15 -26.46,85.25 -26.46,132.29l0 1033.64c0,98.78 32.34,181.09 97.02,246.94 64.67,65.85 146.4,98.78 245.18,98.78l345.72 0c103.48,0 189.32,-38.81 257.53,-116.42 25.87,30.58 49.39,52.92 70.55,67.03 35.28,28.22 62.33,44.69 81.14,49.39 7.06,2.35 17.64,3.53 31.75,3.53 23.52,0 43.51,-8.82 59.97,-26.46 16.47,-17.64 24.7,-38.22 24.7,-61.74 0,-39.98 -21.17,-67.02 -63.5,-81.14zm998.36 -846.66l0 -624.42c0,-28.22 -8.82,-49.39 -26.46,-63.5 -17.64,-14.11 -37.04,-21.17 -58.21,-21.17 -58.8,0 -88.19,28.23 -88.19,84.67l0 617.36 -433.92 -666.75c-18.82,-25.87 -42.33,-38.8 -70.56,-38.8 -23.52,0 -44.68,8.82 -63.5,26.45 -18.81,17.64 -28.22,38.22 -28.22,61.74 0,18.81 5.88,35.28 17.64,49.39l472.72 726.72 -472.72 726.72c-11.76,18.82 -17.64,35.28 -17.64,49.39 0,23.52 9.41,43.51 28.22,59.98 18.82,16.46 39.98,24.69 63.5,24.69 30.58,0 54.1,-12.94 70.56,-38.81l433.92 -666.75 0 620.89c0,25.87 8.82,46.45 26.45,61.74 17.64,15.29 38.22,22.93 61.74,22.93 23.52,0 43.51,-7.06 59.97,-21.17 16.47,-14.11 24.7,-35.27 24.7,-63.5l0 -624.41 451.55 670.27c18.82,25.87 41.16,38.81 67.03,38.81 23.52,0 44.1,-8.23 61.74,-24.69 17.64,-16.47 26.46,-36.46 26.46,-59.98 0,-7.05 -0.59,-15.28 -1.77,-24.69 -1.17,-9.41 -5.29,-17.64 -12.35,-24.7l-490.36 -726.72 490.36 -726.72c9.41,-16.46 14.12,-32.93 14.12,-49.39 0,-23.52 -8.82,-43.51 -26.46,-59.97 -17.64,-16.47 -37.04,-24.7 -58.21,-24.7 -30.58,0 -54.09,11.76 -70.56,35.28l-451.55 673.81zm1986.14 927.8l0 -1552.22c0,-28.22 -8.82,-49.39 -26.46,-63.5 -17.64,-14.11 -38.22,-21.17 -61.73,-21.17 -23.52,0 -43.51,7.65 -59.98,22.93 -16.46,15.29 -24.69,35.87 -24.69,61.74l0 1464.03 -518.58 0c-47.04,0 -87.02,-16.46 -119.95,-49.39 -32.92,-32.93 -49.39,-74.08 -49.39,-123.47l0 -1291.17c0,-28.22 -8.82,-49.39 -26.46,-63.5 -17.63,-14.11 -38.21,-21.17 -61.73,-21.17 -23.52,0 -43.51,7.65 -59.97,22.93 -16.47,15.29 -24.7,35.87 -24.7,61.74l0 1291.17c0,98.78 32.34,181.09 97.02,246.94 64.67,65.85 146.4,98.78 245.18,98.78l603.25 0c58.79,0 88.19,-28.22 88.19,-84.67zm518.58 -84.66l0 -1379.37 518.59 0c47.03,0 87.01,16.47 119.94,49.39 32.93,32.93 49.39,72.91 49.39,119.95l0 1033.64c0,47.03 -16.46,88.19 -49.39,123.47 -32.93,35.28 -72.91,52.92 -119.94,52.92l-518.59 0zm0 169.33l518.59 0c47.03,0 91.13,-8.82 132.29,-26.46 41.16,-17.64 77.61,-42.33 109.36,-74.08 31.75,-31.75 56.44,-68.21 74.08,-109.36 17.64,-41.16 26.46,-86.43 26.46,-135.82l0 -1033.64c0,-47.04 -8.82,-91.14 -26.46,-132.29 -17.64,-41.16 -42.33,-77.61 -74.08,-109.36 -31.75,-31.75 -68.2,-56.45 -109.36,-74.09 -41.16,-17.64 -85.26,-26.46 -132.29,-26.46l-606.78 0c-56.45,0 -84.67,28.23 -84.67,84.67l0 2240.14c0,28.22 8.23,49.39 24.7,63.5 16.46,14.11 36.45,21.17 59.97,21.17 58.79,0 88.19,-28.23 88.19,-84.67l0 -603.25zm2151.95 0c28.22,0 49.97,-8.82 65.26,-26.46 15.29,-17.64 22.93,-37.04 22.93,-58.21 0,-58.79 -29.4,-88.19 -88.19,-88.19l-603.25 0c-47.04,0 -87.02,-16.46 -119.95,-49.39 -32.92,-32.93 -49.39,-74.08 -49.39,-123.47l0 -1033.64c0,-47.04 16.47,-87.02 49.39,-119.95 32.93,-32.92 72.91,-49.39 119.95,-49.39l603.25 0c28.22,0 49.97,-8.81 65.26,-26.45 15.29,-17.64 22.93,-38.22 22.93,-61.74 0,-56.44 -29.4,-84.67 -88.19,-84.67l-603.25 0c-49.39,0 -94.67,8.82 -135.82,26.46 -41.16,17.64 -77.03,42.34 -107.6,74.09 -30.58,31.75 -54.68,68.2 -72.32,109.36 -17.64,41.15 -26.46,85.25 -26.46,132.29l0 1033.64c0,98.78 32.34,181.09 97.02,246.94 64.67,65.85 146.4,98.78 245.18,98.78l603.25 0zm913.69 -987.78l532.69 -582.08c16.47,-16.47 24.7,-36.46 24.7,-59.97 0,-23.52 -8.82,-44.1 -26.46,-61.74 -17.64,-17.64 -38.22,-26.46 -61.74,-26.46 -18.81,0 -39.98,9.41 -63.5,28.22l-712.61 786.7 0 -733.78c0,-28.22 -8.82,-49.39 -26.46,-63.5 -17.63,-14.11 -37.04,-21.17 -58.2,-21.17 -58.8,0 -88.2,28.23 -88.2,84.67l0 1552.22c0,25.87 8.82,46.45 26.46,61.74 17.64,15.29 38.22,22.93 61.74,22.93 23.51,0 43.51,-7.06 59.97,-21.17 16.46,-14.11 24.69,-35.27 24.69,-63.5l0 -560.91 186.97 -208.14 515.06 814.91c16.46,25.87 39.98,38.81 70.56,38.81 23.51,0 44.09,-8.23 61.73,-24.69 17.64,-16.47 26.46,-36.46 26.46,-59.98 0,-16.46 -4.7,-32.92 -14.11,-49.39l-539.75 -853.72zm1933.22 903.11l0 -1552.22c0,-28.22 -8.82,-49.39 -26.46,-63.5 -17.64,-14.11 -38.22,-21.17 -61.73,-21.17 -23.52,0 -43.51,7.65 -59.98,22.93 -16.46,15.29 -24.69,35.87 -24.69,61.74l0 1464.03 -518.58 0c-47.04,0 -87.02,-16.46 -119.95,-49.39 -32.92,-32.93 -49.39,-74.08 -49.39,-123.47l0 -1291.17c0,-28.22 -8.82,-49.39 -26.46,-63.5 -17.63,-14.11 -38.21,-21.17 -61.73,-21.17 -23.52,0 -43.51,7.65 -59.97,22.93 -16.47,15.29 -24.7,35.87 -24.7,61.74l0 1291.17c0,98.78 32.34,181.09 97.02,246.94 64.67,65.85 146.4,98.78 245.18,98.78l603.25 0c58.79,0 88.19,-28.22 88.19,-84.67zm1033.64 -2155.47c25.87,0 46.45,-8.23 61.73,-24.69 15.29,-16.47 22.94,-36.46 22.94,-59.98 0,-58.79 -28.23,-88.19 -84.67,-88.19l-342.2 0c-28.22,0 -49.39,8.82 -63.5,26.46 -14.11,17.64 -21.16,38.21 -21.16,61.73 0,23.52 7.64,43.51 22.93,59.98 15.28,16.46 35.86,24.69 61.73,24.69l342.2 0zm345.72 2155.47l0 -1552.22c0,-28.22 -8.82,-49.39 -26.46,-63.5 -17.64,-14.11 -38.22,-21.17 -61.73,-21.17 -23.52,0 -43.51,7.65 -59.98,22.93 -16.46,15.29 -24.69,35.87 -24.69,61.74l0 1464.03 -515.06 0c-49.39,0 -90.54,-16.46 -123.47,-49.39 -32.92,-32.93 -49.39,-74.08 -49.39,-123.47l0 -1291.17c0,-28.22 -8.82,-49.39 -26.46,-63.5 -17.63,-14.11 -38.21,-21.17 -61.73,-21.17 -23.52,0 -43.51,7.65 -59.97,22.93 -16.47,15.29 -24.7,35.87 -24.7,61.74l0 1291.17c0,47.03 8.82,91.13 26.46,132.29 17.64,41.16 42.33,77.61 74.08,109.36 31.75,31.75 68.21,57.03 109.36,75.85 41.16,18.81 86.43,28.22 135.82,28.22l599.73 0c58.79,0 88.19,-28.22 88.19,-84.67zm-16693.44 3785.31l-3.53 0 0 -2409.47 737.3 1174.75 740.84 -1174.75 0 2409.47 0 0 0 -2405.95 -740.84 1178.28 -733.77 -1178.28 0 2405.95zm10481.05 -2409.47l-733.78 0 -306.92 299.86 0 1809.75 306.92 299.86 733.78 0 0 0 -733.78 0 -306.92 -299.86 0 -1809.75 306.92 -299.86 733.78 0zm342.19 0l0 0 684.39 1202.97 684.39 -1202.97 0 0 -684.39 1202.97 684.39 1206.5c0,0 0,0 0,0l-684.39 -1202.97 -684.39 1202.97 0 0 684.39 -1202.97 -684.39 -1206.5zm2839.87 1548.69l-1206.5 0 0 0 1206.5 0zm261.05 -1118.3l-3.53 0 0 -430.39 1213.56 0 -677.33 2409.47 0 0 673.8 -2409.47 -1206.5 0 0 430.39zm2691.7 1979.08l0 0 0 -2409.47 0 0 0 2409.47zm1502.83 -1816.81l-3.53 0 0 -296.33 388.06 -296.33 433.92 0 377.47 299.86 0 462.14 -1210.03 1647.47 1202.97 0 0 0 -1206.5 0 1210.03 -1647.47 0 -462.14 -373.94 -299.86 -433.92 0 -388.06 296.33 3.53 296.33zm1531.06 -282.22l303.39 -310.44 599.73 0 306.91 296.33 0 1813.28 -299.86 299.86 -606.78 0 -303.39 -292.81 0 -1806.22zm303.39 -310.44l-299.86 310.44 0 1806.22 299.86 292.81 606.78 0 296.33 -299.86 0 -1813.28 -303.38 -296.33 -599.73 0zm1245.31 310.44l303.39 -310.44 599.73 0 306.91 296.33 0 1813.28 -299.86 299.86 -606.78 0 -303.39 -292.81 0 -1806.22zm303.39 -310.44l-299.86 310.44 0 1806.22 299.86 292.81 606.78 0 296.33 -299.86 0 -1813.28 -303.38 -296.33 -599.73 0zm1248.84 1104.19l903.11 0 303.39 296.33 0 709.09 -310.44 299.86 -603.25 0 -296.34 -292.81 0 -1382.89 412.75 -589.13 444.5 -141.12 0 0 -444.5 141.12 -409.22 589.13 0 1382.89 292.81 292.81 603.25 0 306.91 -299.86 0 -709.09 -299.86 -296.33 -903.11 0zm2667.01 444.5l-1206.5 0 0 0 1206.5 0zm-25428.28 2744.61l-3.53 0 0 -296.33 388.06 -296.33 433.92 0 377.47 299.86 0 462.14 -1210.03 1647.47 1202.97 0 0 0 -1206.5 0 1210.03 -1647.47 0 -462.14 -373.94 -299.86 -433.92 0 -388.06 296.33 3.53 296.33zm1531.06 -282.22l303.39 -310.44 599.73 0 306.91 296.33 0 1813.28 -299.86 299.86 -606.78 0 -303.39 -292.81 0 -1806.22zm303.39 -310.44l-299.86 310.44 0 1806.22 299.86 292.81 606.78 0 296.33 -299.86 0 -1813.28 -303.38 -296.33 -599.73 0zm1245.31 680.86l691.45 -680.86 0 2409.47c0,0 0,0 0,0l0 -2405.95 -687.92 677.34 -3.53 0zm1051.28 -88.2l-3.53 0 0 -296.33 388.06 -296.33 433.92 0 377.47 299.86 0 462.14 -1210.03 1647.47 1202.97 0 0 0 -1206.5 0 1210.03 -1647.47 0 -462.14 -373.94 -299.86 -433.92 0 -388.06 296.33 3.53 296.33zm3601.87 -592.66l-1033.64 0 0 1104.19 709.09 0 0 3.53 -709.09 0 0 1301.75 1033.64 0 0 0 -1033.64 0 0 -2409.47 1033.64 0zm342.19 0l903.12 0 306.91 296.33 0 698.5 -306.91 299.86 -409.23 0 645.59 1114.78 -3.53 0 -645.59 -1114.78 -486.83 0 0 0 899.59 0 306.91 -299.86 0 -698.5 -306.91 -292.81 -899.59 0 0 2405.95 -3.53 0 0 -2409.47zm-6198.32 -1291.17l687.92 -2409.47 687.92 2409.47 -3.53 0 -684.39 -2405.95 -684.39 2405.95 -3.53 0zm218.73 -762l938.39 0 0 0 -938.39 0zm1502.83 -1647.47l1220.62 0 -1217.09 2409.47 1217.09 0 0 0 -1220.62 0 1220.62 -2409.47 -1220.62 0zm1548.7 2409.47l0 -2409.47 903.12 0 306.91 299.86 3.53 1809.75 -310.44 299.86 -903.12 0zm3.53 -2409.47l0 2409.47 899.59 0 306.91 -299.86 0 -1809.75 -306.91 -299.86 -899.59 0zm1545.17 2409.47l687.92 -2409.47 687.92 2409.47 -3.53 0 -684.39 -2405.95 -684.39 2405.95 -3.53 0zm218.73 -762l938.39 0 0 0 -938.39 0z"/>
   <path class="fil0 str2" d="M34668.96 70390.52c-331.37,0 -600,268.63 -600,600 0,331.37 268.63,600 600,600 331.37,0 600,-268.63 600,-600 0,-331.37 -268.63,-600 -600,-600z"/>
   <line class="fil2 str4" x1="44838.43" y1="42510.57" x2="44192.85" y2= "42510.57" />
   <polyline class="fil2 str4" points="43700.72,44113.94 44071.14,44489.65 44796.1,44489.65 45256.47,44039.86 45256.47,42923.32 44838.43,42510.57 45134.76,42087.23 45134.76,41330.52 44737.89,40875.44 44055.26,40875.44 43706.01,41214.11 "/>
   <polyline class="fil2 str4" points="42663.56,40880.73 41996.81,41092.4 41377.68,41976.11 41377.68,44050.44 41822.18,44489.65 42727.06,44489.65 43192.72,44039.86 43192.72,42976.23 42737.64,42531.73 41382.97,42531.73 "/>
   <polyline class="fil2 str4" points="40864.39,43621.82 39054.64,43621.82 39700.22,40875.44 "/>
   <line class="fil2 str4" x1="40224.1" y1="42679.9" x2="40224.1" y2= "44489.65" />
  </g>
 </g>
</svg>
