<?xml version="1.0" encoding="UTF-8"?>
<!DOCTYPE svg PUBLIC "-//W3C//DTD SVG 1.1//EN" "http://www.w3.org/Graphics/SVG/1.1/DTD/svg11.dtd">
<!-- Creator: CorelDRAW 2019 (64-Bit) -->
<svg xmlns="http://www.w3.org/2000/svg" xml:space="preserve" width="800mm" height="1000mm" version="1.1" style="shape-rendering:geometricPrecision; text-rendering:geometricPrecision; image-rendering:optimizeQuality; fill-rule:evenodd; clip-rule:evenodd"
viewBox="0 0 80000 100000"
 xmlns:xlink="http://www.w3.org/1999/xlink"
 xmlns:xodm="http://www.corel.com/coreldraw/odm/2003">
 <defs>
  <style type="text/css">
   <![CDATA[
    .str0 {stroke:black;stroke-width:20;stroke-miterlimit:22.9256}
    .str1 {stroke:#FF6600;stroke-width:20;stroke-miterlimit:22.9256}
    .str3 {stroke:#FF6600;stroke-width:7.62;stroke-miterlimit:22.9256}
    .str2 {stroke:#663333;stroke-width:7.62;stroke-miterlimit:22.9256}
    .fil0 {fill:none}
    .fil2 {fill:none;fill-rule:nonzero}
    .fil1 {fill:#663333;fill-rule:nonzero}
   ]]>
  </style>
 </defs>
 <g id="Слой_x0020_1">
  <metadata id="CorelCorpID_0Corel-Layer"/>
  <g id="_2400782485472">
   <path class="fil0 str0" d="M53831.51 47673.43c1889.12,17.54 3489.9,-1464.3 3533.93,-3352.96l509.02 -21832.91c26.13,-1120.92 -885.52,-1929.51 -2018.85,-2062.64 -2415.63,-283.75 -4863.93,-234.26 -7350.13,201.64 -823.86,144.45 -1589.23,469.99 -1858.79,1261.82l-848.86 2493.41c-309.81,910.07 -1586.15,2021.71 -2565.92,2028.07l-12240.8 79.46c-1416.03,9.19 -3631.02,-1198.28 -3998.02,-2649.73l-595.93 -2356.79c-233.29,-922.64 -1003.02,-1557.21 -1954.52,-1575.9l-7002.5 -137.59c-1101.32,-21.63 -2000,898.44 -2000,2000l0 22080.17c0,1927.73 1572.36,3482.1 3500,3500l34891.37 323.95z"/>
   <line class="fil0 str1" x1="26494.42" y1="25267.61" x2="26663.75" y2= "45502.95" />
   <line class="fil0 str1" x1="46983.75" y1="24082.28" x2="46729.75" y2= "45587.61" />
   <path class="fil1 str2" d="M28512.73 30352.55l0 -2240.14c0,-58.79 -28.22,-88.19 -84.66,-88.19l-1037.17 0c-56.45,0 -84.67,29.4 -84.67,88.19l0 2240.14c0,25.87 8.23,46.45 24.7,61.74 16.46,15.29 36.45,22.93 59.97,22.93 58.79,0 88.19,-28.22 88.19,-84.67l0 -2155.47 860.78 0 0 2155.47c0,25.87 8.82,46.45 26.46,61.74 17.64,15.29 38.22,22.93 61.74,22.93 23.51,0 43.5,-7.06 59.97,-21.17 16.46,-14.11 24.69,-35.27 24.69,-63.5zm515.06 -864.3l0 -430.39c0,-47.04 16.47,-87.02 49.39,-119.95 32.93,-32.92 72.91,-49.39 119.95,-49.39l345.72 0c49.39,0 90.54,16.47 123.47,49.39 32.93,32.93 49.39,72.91 49.39,119.95l0 430.39 -687.92 0zm0 172.86l772.59 0c58.79,0 88.19,-28.22 88.19,-84.67l0 -518.58c0,-47.04 -8.82,-91.14 -26.46,-132.29 -17.64,-41.16 -42.33,-77.61 -74.08,-109.36 -31.75,-31.75 -68.2,-56.45 -109.36,-74.09 -41.16,-17.64 -86.43,-26.46 -135.82,-26.46l-345.72 0c-49.39,0 -94.67,8.82 -135.82,26.46 -41.16,17.64 -77.03,42.34 -107.6,74.09 -30.58,31.75 -54.68,68.2 -72.32,109.36 -17.64,41.15 -26.46,85.25 -26.46,132.29l0 1033.64c0,98.78 32.34,181.09 97.02,246.94 64.67,65.85 146.4,98.78 245.18,98.78l603.25 0c28.22,0 49.97,-8.82 65.26,-26.46 15.29,-17.64 22.93,-37.04 22.93,-58.21 0,-58.79 -29.4,-88.19 -88.19,-88.19l-603.25 0c-47.04,0 -87.02,-16.46 -119.95,-49.39 -32.92,-32.93 -49.39,-74.08 -49.39,-123.47l0 -430.39zm1379.36 606.78l0 -1379.37 518.59 0c47.03,0 87.01,16.47 119.94,49.39 32.93,32.93 49.39,72.91 49.39,119.95l0 1033.64c0,47.03 -16.46,88.19 -49.39,123.47 -32.93,35.28 -72.91,52.92 -119.94,52.92l-518.59 0zm0 169.33l518.59 0c47.03,0 91.13,-8.82 132.29,-26.46 41.16,-17.64 77.61,-42.33 109.36,-74.08 31.75,-31.75 56.44,-68.21 74.08,-109.36 17.64,-41.16 26.46,-86.43 26.46,-135.82l0 -1033.64c0,-47.04 -8.82,-91.14 -26.46,-132.29 -17.64,-41.16 -42.33,-77.61 -74.08,-109.36 -31.75,-31.75 -68.2,-56.45 -109.36,-74.09 -41.16,-17.64 -85.26,-26.46 -132.29,-26.46l-606.78 0c-56.45,0 -84.67,28.23 -84.67,84.67l0 2240.14c0,28.22 8.23,49.39 24.7,63.5 16.46,14.11 36.45,21.17 59.97,21.17 58.79,0 88.19,-28.23 88.19,-84.67l0 -603.25zm1379.36 -948.97l0 -430.39c0,-47.04 16.47,-87.02 49.39,-119.95 32.93,-32.92 72.91,-49.39 119.95,-49.39l345.72 0c49.39,0 90.54,16.47 123.47,49.39 32.93,32.93 49.39,72.91 49.39,119.95l0 430.39 -687.92 0zm0 172.86l772.59 0c58.79,0 88.19,-28.22 88.19,-84.67l0 -518.58c0,-47.04 -8.82,-91.14 -26.46,-132.29 -17.64,-41.16 -42.33,-77.61 -74.08,-109.36 -31.75,-31.75 -68.2,-56.45 -109.36,-74.09 -41.16,-17.64 -86.43,-26.46 -135.82,-26.46l-345.72 0c-49.39,0 -94.67,8.82 -135.82,26.46 -41.16,17.64 -77.03,42.34 -107.6,74.09 -30.58,31.75 -54.68,68.2 -72.32,109.36 -17.64,41.15 -26.46,85.25 -26.46,132.29l0 1033.64c0,98.78 32.34,181.09 97.02,246.94 64.67,65.85 146.4,98.78 245.18,98.78l603.25 0c28.22,0 49.97,-8.82 65.26,-26.46 15.29,-17.64 22.93,-37.04 22.93,-58.21 0,-58.79 -29.4,-88.19 -88.19,-88.19l-603.25 0c-47.04,0 -87.02,-16.46 -119.95,-49.39 -32.92,-32.93 -49.39,-74.08 -49.39,-123.47l0 -430.39zm2413 691.44l0 -1552.22c0,-25.87 -8.82,-47.04 -26.46,-63.5 -17.64,-16.46 -37.04,-24.69 -58.2,-24.69 -30.58,0 -55.27,12.93 -74.09,38.8l-444.5 666.75 -444.5 -666.75c-18.81,-25.87 -42.33,-38.8 -70.55,-38.8 -58.8,0 -88.2,29.39 -88.2,88.19l0 1552.22c0,25.87 8.23,46.45 24.7,61.74 16.46,15.29 36.45,22.93 59.97,22.93 58.79,0 88.19,-28.22 88.19,-84.67l0 -1266.47 356.31 539.75c21.16,32.93 45.86,49.39 74.08,49.39 25.87,0 49.39,-16.46 70.56,-49.39l359.83 -539.75 0 1266.47c0,25.87 8.23,46.45 24.7,61.74 16.46,15.29 36.45,22.93 59.97,22.93 58.79,0 88.19,-28.22 88.19,-84.67zm1548.7 0l0 -1552.22c0,-28.22 -8.82,-49.39 -26.46,-63.5 -17.64,-14.11 -38.21,-21.17 -61.73,-21.17 -23.52,0 -43.51,7.65 -59.97,22.93 -16.47,15.29 -24.7,35.87 -24.7,61.74l0 1552.22c0,25.87 8.23,46.45 24.7,61.74 16.46,15.29 36.45,22.93 59.97,22.93 58.79,0 88.19,-28.22 88.19,-84.67zm-1033.64 -691.44l342.2 0c49.39,0 90.54,17.05 123.47,51.15 32.93,34.1 49.39,74.67 49.39,121.71l0 257.53c0,49.39 -16.46,90.54 -49.39,123.47 -32.93,32.93 -74.08,49.39 -123.47,49.39l-342.2 0 0 -603.25zm0 -172.86l0 -687.92c0,-28.22 -8.82,-49.39 -26.46,-63.5 -17.63,-14.11 -38.21,-21.17 -61.73,-21.17 -23.52,0 -43.51,7.65 -59.97,22.93 -16.47,15.29 -24.7,35.87 -24.7,61.74l0 1552.22c0,56.45 28.22,84.67 84.67,84.67l430.39 0c98.77,0 181.09,-32.93 246.94,-98.78 65.85,-65.85 98.78,-148.16 98.78,-246.94l0 -257.53c0,-47.04 -8.82,-91.13 -26.46,-132.29 -17.64,-41.16 -42.33,-77.61 -74.08,-109.36 -31.75,-31.75 -68.21,-57.04 -109.36,-75.85 -41.16,-18.82 -86.43,-28.22 -135.82,-28.22l-342.2 0zm2236.62 0l-518.58 0c-47.04,0 -87.02,-16.47 -119.95,-49.39 -32.92,-32.93 -49.39,-72.91 -49.39,-119.95l0 -518.58c0,-28.22 -8.82,-49.39 -26.46,-63.5 -17.63,-14.11 -38.21,-21.17 -61.73,-21.17 -23.52,0 -43.51,7.65 -59.97,22.93 -16.47,15.29 -24.7,35.87 -24.7,61.74l0 518.58c0,98.78 32.34,180.51 97.02,245.18 64.67,64.68 146.4,97.02 245.18,97.02l518.58 0 0 691.44c0,25.87 8.82,46.45 26.46,61.74 17.64,15.29 37.04,22.93 58.21,22.93 58.79,0 88.19,-28.22 88.19,-84.67l0 -1552.22c0,-28.22 -8.82,-49.39 -26.46,-63.5 -17.64,-14.11 -38.22,-21.17 -61.73,-21.17 -23.52,0 -43.51,7.65 -59.98,22.93 -16.46,15.29 -24.69,35.87 -24.69,61.74l0 687.92zm998.36 -38.81l532.69 -582.08c16.47,-16.47 24.7,-36.46 24.7,-59.97 0,-23.52 -8.82,-44.1 -26.46,-61.74 -17.64,-17.64 -38.22,-26.46 -61.74,-26.46 -18.81,0 -39.98,9.41 -63.5,28.22l-712.61 786.7 0 -733.78c0,-28.22 -8.82,-49.39 -26.46,-63.5 -17.63,-14.11 -37.04,-21.17 -58.2,-21.17 -58.8,0 -88.2,28.23 -88.2,84.67l0 1552.22c0,25.87 8.82,46.45 26.46,61.74 17.64,15.29 38.22,22.93 61.74,22.93 23.51,0 43.51,-7.06 59.97,-21.17 16.46,-14.11 24.69,-35.27 24.69,-63.5l0 -560.91 186.97 -208.14 515.06 814.91c16.46,25.87 39.98,38.81 70.56,38.81 23.51,0 44.09,-8.23 61.73,-24.69 17.64,-16.47 26.46,-36.46 26.46,-59.98 0,-16.46 -4.7,-32.92 -14.11,-49.39l-539.75 -853.72zm1760.36 642.06c0,49.39 -16.46,90.54 -49.39,123.47 -32.93,32.93 -74.08,49.39 -123.47,49.39l-345.72 0c-47.04,0 -87.02,-16.46 -119.95,-49.39 -32.92,-32.93 -49.39,-74.08 -49.39,-123.47l0 -1033.64c0,-47.04 16.47,-87.02 49.39,-119.95 32.93,-32.92 72.91,-49.39 119.95,-49.39l518.58 0 0 1202.98zm289.28 179.91c-35.28,-11.75 -63.5,-34.69 -84.67,-68.79 -21.17,-34.1 -31.75,-71.14 -31.75,-111.12l0 -1291.17c0,-56.44 -29.4,-84.67 -88.19,-84.67l-603.25 0c-49.39,0 -94.67,8.82 -135.82,26.46 -41.16,17.64 -77.03,42.34 -107.6,74.09 -30.58,31.75 -54.68,68.2 -72.32,109.36 -17.64,41.15 -26.46,85.25 -26.46,132.29l0 1033.64c0,98.78 32.34,181.09 97.02,246.94 64.67,65.85 146.4,98.78 245.18,98.78l345.72 0c103.48,0 189.32,-38.81 257.53,-116.42 25.87,30.58 49.39,52.92 70.55,67.03 35.28,28.22 62.33,44.69 81.14,49.39 7.06,2.35 17.64,3.53 31.75,3.53 23.52,0 43.51,-8.82 59.97,-26.46 16.47,-17.64 24.7,-38.22 24.7,-61.74 0,-39.98 -21.17,-67.02 -63.5,-81.14zm-12668.26 3866.45l-3.53 0 0 -2409.47 3.53 0 1135.94 2405.94 0 -2405.94 0 0 0 2409.47 0 0 -1135.94 -2405.95 0 2405.95zm1633.36 0l0 0 0 -2409.47 0 0 0 2409.47zm1651 -2187.22l0 0 -218.72 -222.25 -684.39 0 -292.81 306.91 0 419.81 1195.92 959.56 0 405.69 -289.28 317.5 -698.5 0 -211.67 -264.58 3.53 0 208.14 264.58 698.5 0 289.28 -317.5 0 -405.69 -1195.92 -959.56 0 -419.81 292.81 -306.91 684.39 0 218.72 222.25zm1548.7 0l0 0 -218.72 -222.25 -684.39 0 -292.81 306.91 0 419.81 1195.92 959.56 0 405.69 -289.28 317.5 -698.5 0 -211.67 -264.58 3.53 0 208.14 264.58 698.5 0 289.28 -317.5 0 -405.69 -1195.92 -959.56 0 -419.81 292.81 -306.91 684.39 0 218.72 222.25zm349.25 2187.22l687.92 -2409.47 687.92 2409.47 -3.53 0 -684.39 -2405.95 -684.39 2405.95 -3.53 0zm218.73 -762l938.39 0 0 0 -938.39 0zm1531.06 762l-3.53 0 0 -2409.47 3.53 0 1135.94 2405.94 0 -2405.94 0 0 0 2409.47 0 0 -1135.94 -2405.95 0 2405.95zm-6960.33 1591.03l303.39 -299.86 603.25 0 299.86 296.33 0 1703.92 -134.05 137.58 271.64 271.64 -3.53 0 -268.11 -268.11 -261.06 268.11 -515.05 0 -296.34 -292.81 0 -1816.8zm303.39 -299.86l-303.39 299.86 0 1816.8 296.34 292.81 515.05 0 261.06 -271.64 -560.92 -557.39 0 -3.53 3.53 0 557.39 560.92 134.05 -137.58 0 -1703.92 -299.86 -296.33 -603.25 0zm1248.83 2409.47l687.92 -2409.47 687.92 2409.47 -3.53 0 -684.39 -2405.95 -684.39 2405.95 -3.53 0zm218.73 -762l938.39 0 0 0 -938.39 0zm2638.78 -1425.22l0 0 -218.72 -222.25 -684.39 0 -292.81 306.91 0 419.81 1195.92 959.56 0 405.69 -289.28 317.5 -698.5 0 -211.67 -264.58 3.53 0 208.14 264.58 698.5 0 289.28 -317.5 0 -405.69 -1195.92 -959.56 0 -419.81 292.81 -306.91 684.39 0 218.72 222.25zm398.64 -222.25c0,0 0,0 0,0l0 1107.72 1083.03 0 0 -1107.72c0,0 0,0 0,0l0 2409.47c0,0 0,0 0,0l0 -1301.75 -1083.03 0 0 1301.75c0,0 0,0 0,0l0 -2409.47zm1499.31 299.86l303.39 -299.86 603.25 0 299.86 296.33 0 1703.92 -134.05 137.58 271.64 271.64 -3.53 0 -268.11 -268.11 -261.06 268.11 -515.05 0 -296.34 -292.81 0 -1816.8zm303.39 -299.86l-303.39 299.86 0 1816.8 296.34 292.81 515.05 0 261.06 -271.64 -560.92 -557.39 0 -3.53 3.53 0 557.39 560.92 134.05 -137.58 0 -1703.92 -299.86 -296.33 -603.25 0zm1248.83 2409.47l687.92 -2409.47 687.92 2409.47 -3.53 0 -684.39 -2405.95 -684.39 2405.95 -3.53 0zm218.73 -762l938.39 0 0 0 -938.39 0zm1615.72 762l0 0 0 -2409.47 0 0 0 2409.47zm1598.08 0l0 0 0 -2409.47 0 0 0 2409.47zm-11274.79 1883.83l-3.53 0 0 -296.33 388.06 -296.33 433.92 0 377.47 299.86 0 462.14 -1210.03 1647.47 1202.97 0 0 0 -1206.5 0 1210.03 -1647.47 0 -462.14 -373.94 -299.86 -433.92 0 -388.06 296.33 3.53 296.33zm1531.06 -282.22l303.39 -310.44 599.73 0 306.91 296.33 0 1813.28 -299.86 299.86 -606.78 0 -303.39 -292.81 0 -1806.22zm303.39 -310.44l-299.86 310.44 0 1806.22 299.86 292.81 606.78 0 296.33 -299.86 0 -1813.28 -303.38 -296.33 -599.73 0zm1245.31 310.44l303.39 -310.44 599.73 0 306.91 296.33 0 1813.28 -299.86 299.86 -606.78 0 -303.39 -292.81 0 -1806.22zm303.39 -310.44l-299.86 310.44 0 1806.22 299.86 292.81 606.78 0 296.33 -299.86 0 -1813.28 -303.38 -296.33 -599.73 0zm1248.84 1104.19l903.11 0 303.39 296.33 0 709.09 -310.44 299.86 -603.25 0 -296.34 -292.81 0 -1382.89 412.75 -589.13 444.5 -141.12 0 0 -444.5 141.12 -409.22 589.13 0 1382.89 292.81 292.81 603.25 0 306.91 -299.86 0 -709.09 -299.86 -296.33 -903.11 0zm2667.01 444.5l-1206.5 0 0 0 1206.5 0zm275.16 -956.03l-3.53 0 0 -296.33 388.06 -296.33 433.92 0 377.47 299.86 0 462.14 -1210.03 1647.47 1202.97 0 0 0 -1206.5 0 1210.03 -1647.47 0 -462.14 -373.94 -299.86 -433.92 0 -388.06 296.33 3.53 296.33zm1531.06 -282.22l303.39 -310.44 599.73 0 306.91 296.33 0 1813.28 -299.86 299.86 -606.78 0 -303.39 -292.81 0 -1806.22zm303.39 -310.44l-299.86 310.44 0 1806.22 299.86 292.81 606.78 0 296.33 -299.86 0 -1813.28 -303.38 -296.33 -599.73 0zm1245.31 680.86l691.45 -680.86 0 2409.47c0,0 0,0 0,0l0 -2405.95 -687.92 677.34 -3.53 0zm1033.64 -455.09l232.84 -225.77 458.61 0 264.58 303.39 0 504.47 -197.55 282.22 278.69 275.17 0 744.36 -306.92 299.86 -483.3 0 -246.95 -250.47 3.53 0 243.42 250.47 483.3 0 306.92 -299.86 0 -744.36 -278.69 -275.17 -430.39 0 0 -3.53 430.39 3.53 197.55 -282.22 0 -504.47 -264.58 -303.39 -455.09 0 -232.83 225.77 -3.53 0zm2413 2183.7l511.53 0 299.86 -296.33 0 -2113.14c0,0 0,0 0,0l0 2113.14 -299.86 296.33 -511.53 0zm1206.5 -1728.61l691.45 -680.86 0 2409.47c0,0 0,0 0,0l0 -2405.95 -687.92 677.34 -3.53 0zm1033.64 -370.42l303.39 -310.44 599.73 0 306.91 296.33 0 1813.28 -299.86 299.86 -606.78 0 -303.39 -292.81 0 -1806.22zm303.39 -310.44l-299.86 310.44 0 1806.22 299.86 292.81 606.78 0 296.33 -299.86 0 -1813.28 -303.38 -296.33 -599.73 0z"/>
   <polyline class="fil2 str3" points="53740.46,30021.58 53073.71,30233.25 52454.58,31116.96 52454.58,33191.29 52899.08,33630.5 53803.96,33630.5 54269.62,33180.71 54269.62,32117.08 53814.54,31672.58 52459.87,31672.58 "/>
   <polyline class="fil2 str3" points="50935.87,33630.5 51951.87,30016.29 50134.18,30016.29 50136.83,30661.87 "/>
   <polyline class="fil2 str3" points="49618.25,30016.29 48067.79,30016.29 48067.79,31672.58 49163.17,31672.58 49618.25,32132.96 49618.25,33170.12 49168.46,33630.5 48067.79,33630.5 "/>
  </g>
 </g>
</svg>
