<?xml version="1.0" encoding="UTF-8"?>
<!DOCTYPE svg PUBLIC "-//W3C//DTD SVG 1.1//EN" "http://www.w3.org/Graphics/SVG/1.1/DTD/svg11.dtd">
<!-- Creator: CorelDRAW 2019 (64-Bit) -->
<svg xmlns="http://www.w3.org/2000/svg" xml:space="preserve" width="1000mm" height="1000mm" version="1.1" style="shape-rendering:geometricPrecision; text-rendering:geometricPrecision; image-rendering:optimizeQuality; fill-rule:evenodd; clip-rule:evenodd"
viewBox="0 0 100000 100000"
 xmlns:xlink="http://www.w3.org/1999/xlink"
 xmlns:xodm="http://www.corel.com/coreldraw/odm/2003">
 <defs>
  <style type="text/css">
   <![CDATA[
    .str1 {stroke:black;stroke-width:20;stroke-miterlimit:22.9256}
    .str2 {stroke:fuchsia;stroke-width:20;stroke-miterlimit:22.9256}
    .str0 {stroke:#FF6600;stroke-width:20;stroke-miterlimit:22.9256}
    .str3 {stroke:#FF6600;stroke-width:7.62;stroke-miterlimit:22.9256}
    .fil0 {fill:none}
    .fil1 {fill:none;fill-rule:nonzero}
   ]]>
  </style>
 </defs>
 <g id="Слой_x0020_1">
  <metadata id="CorelCorpID_0Corel-Layer"/>
  <g id="_2400782492480">
   <path class="fil0 str0" d="M70243.12 49860.99l1370.69 36181.73c55.47,1462.82 -109.08,3323.48 -160.8,4827.18 -8.5,247.36 -53.02,496.12 -129.47,735.25"/>
   <path class="fil0 str0" d="M19743.9 90964.13c66.44,-1278.03 320.81,-3033.49 389.6,-3731.99 281.12,-2854.34 2463.87,-10274.82 3230.13,-13593.63 291.6,-1263.02 -712.72,-11826.41 -859.38,-13984.32 -261.97,-3854.34 -1908.56,-9575.74 -3058.01,-14709.68"/>
   <path class="fil0 str1" d="M56667.8 93288.63l-11567.02 -19.45c-1312.09,-2.21 -2690.49,-499.22 -2796.07,-1977.5 -58.18,-814.59 162.06,-3688.71 -908.67,-3744.24 -1521.55,-78.92 -7438.85,-384.11 -7964.61,-384.11 -437.76,0 -3449.71,70.53 -5073.36,109.32 -1028.05,24.6 -1863.02,813.64 -1945.68,1838.66l-173.93 2156.85c-114.77,1423 -1648.24,2173.86 -2919.45,2032.59 -3200.13,-355.61 -8544.32,-1692.41 -7385.53,-6182.78 940.07,-3642.79 2635.74,-9486.67 3130.5,-12950.38 1082.02,-7574.87 -1082.65,-16817.92 -2093.18,-24594.56 -243.64,-1875.31 2324.79,-5155.01 1922.77,-7279.67 -146.25,-772.91 -268.11,-1505.58 -365.89,-2229.12l-970.82 -7183.98c-385.33,-2851.61 257.5,-5209.37 3585.32,-5438.72l3532.18 -243.59c3348.47,-230.92 3336.59,-1950.08 3653.65,-4697.79 124.34,-1077.49 1129.07,-1907.32 2196.69,-1975.12l3566.39 -226.54c8839.77,-561.51 22694.52,-0.13 32059.27,45.06 1447.09,6.98 4034.25,-108.1 3981.12,1910.77 -83.12,3162.95 -1455.65,9458.18 -1992.35,12906.14 -247.66,1591.54 -614.42,4189.26 -563.51,5748.79 98.49,3020.64 -141.23,2400.97 1114.7,5034.35 991.22,2031.12 5872.07,10003.62 5886.58,10309.12l1551.54 32651.87c82.55,1737.34 -5501.49,4407.53 -6891.01,4405.17l-12569.63 -21.14z"/>
   <line class="fil0 str0" x1="59799.22" y1="21545.79" x2="55639.41" y2= "44089.24" />
   <line class="fil0 str0" x1="52553.11" y1="21814.17" x2="53827.89" y2= "43284.12" />
   <line class="fil0 str0" x1="54565.92" y1="46974.27" x2="68320.1" y2= "47309.74" />
   <path class="fil0 str2" d="M66483.45 86696.31c331.37,0 600,268.63 600,600 0,331.37 -268.63,600 -600,600 -331.37,0 -600,-268.63 -600,-600 0,-331.37 268.63,-600 600,-600z"/>
   <path class="fil0 str2" d="M46797.16 87084.85c331.37,0 600,268.63 600,600 0,331.37 -268.63,600 -600,600 -331.37,0 -600,-268.63 -600,-600 0,-331.37 268.63,-600 600,-600z"/>
   <polyline class="fil1 str3" points="44051.64,55159.57 44051.64,51550.65 45401.02,51550.65 45856.1,51995.15 45856.1,53021.74 45401.02,53466.24 44051.64,53466.24 "/>
   <polyline class="fil1 str3" points="41458.73,51550.65 40791.98,51762.32 40172.85,52646.03 40172.85,54720.36 40617.35,55159.57 41522.23,55159.57 41987.89,54709.78 41987.89,53646.15 41532.81,53201.65 40178.14,53201.65 "/>
   <polyline class="fil1 str3" points="38654.14,55159.57 39670.14,51545.36 37852.46,51545.36 37855.1,52190.94 "/>
   <polyline class="fil1 str3" points="37336.52,51545.36 35786.06,51545.36 35786.06,53201.65 36881.44,53201.65 37336.52,53662.03 37336.52,54699.19 36886.73,55159.57 35786.06,55159.57 "/>
  </g>
 </g>
</svg>
