<?xml version="1.0" encoding="UTF-8"?>
<!DOCTYPE svg PUBLIC "-//W3C//DTD SVG 1.1//EN" "http://www.w3.org/Graphics/SVG/1.1/DTD/svg11.dtd">
<!-- Creator: CorelDRAW 2019 (64-Bit) -->
<svg xmlns="http://www.w3.org/2000/svg" xml:space="preserve" width="800mm" height="1000mm" version="1.1" style="shape-rendering:geometricPrecision; text-rendering:geometricPrecision; image-rendering:optimizeQuality; fill-rule:evenodd; clip-rule:evenodd"
viewBox="0 0 80000 100000"
 xmlns:xlink="http://www.w3.org/1999/xlink"
 xmlns:xodm="http://www.corel.com/coreldraw/odm/2003">
 <defs>
  <style type="text/css">
   <![CDATA[
    .str0 {stroke:black;stroke-width:20;stroke-miterlimit:22.9256}
    .str1 {stroke:#FF6600;stroke-width:20;stroke-miterlimit:22.9256}
    .str3 {stroke:#FF6600;stroke-width:7.62;stroke-miterlimit:22.9256}
    .str2 {stroke:#663333;stroke-width:7.62;stroke-miterlimit:22.9256}
    .fil0 {fill:none}
    .fil2 {fill:none;fill-rule:nonzero}
    .fil1 {fill:#663333;fill-rule:nonzero}
   ]]>
  </style>
 </defs>
 <g id="Слой_x0020_1">
  <metadata id="CorelCorpID_0Corel-Layer"/>
  <g id="_2400787890480">
   <path class="fil0 str0" d="M28590.01 85997.73l11880.91 -54.77c697.76,-3.22 1300.86,-457.04 1455.53,-1137.44l775 -3409.24c156.91,-690.26 741.67,-1173.52 1449.51,-1181.27l12833.92 -140.72c805.92,-8.83 1474.77,621.08 1514.44,1426.07l122.05 2476.47c38.9,789.38 745.22,1358.74 1535.56,1354.91l3351.97 -16.24c1160.26,-5.61 5421.56,-2424.96 5354.44,-4125.3l-1169.17 -29618.94c-67.77,-1717.02 -3833.73,-4855.46 -4235.89,-6392.4 -3151.96,-12039.77 -4582.6,-19300.45 -6649.22,-31834.3 -201.46,-1221.91 -1212.3,-2111.58 -2450.6,-2127.76 -12352.51,-161.48 -26914.07,-263.5 -38863.56,2211.51 -1420.39,294.2 -2344.8,1524.81 -2049.99,2977.58 1639.38,8078.53 2708.28,11999.25 2994.12,19848.08 20.84,572.27 -156.03,1068.97 -505.54,1522.56 -2086.96,2708.4 -4197.99,5400.89 -6317.3,8085.03 -926.7,1173.68 -1051.28,16733.87 -1026.22,19215.02l188.58 18669.98c24.75,2451.82 4287.24,2322.69 5637.96,2316.5l14173.5 -65.33z"/>
   <path class="fil0 str1" d="M13554.49 41295.42c-10.7,59.47 -19.49,120.19 -26.41,182.3 -1614.52,14475.03 -719.39,28444.17 -618.45,43095.69 2.48,359.77 132.5,689.76 346.76,947.23"/>
   <path class="fil0 str1" d="M64903.25 84185.56c33.36,-133.89 48.87,-274.07 43.92,-417.28l-1302.25 -37636.11c-1.51,-43.54 -3.89,-85.62 -7.24,-126.82"/>
   <path class="fil1 str2" d="M21613.97 17942.63l0 -2240.14c0,-58.79 -28.22,-88.19 -84.66,-88.19l-1037.17 0c-56.45,0 -84.67,29.4 -84.67,88.19l0 2240.14c0,25.87 8.23,46.45 24.7,61.74 16.46,15.29 36.45,22.93 59.97,22.93 58.79,0 88.19,-28.22 88.19,-84.67l0 -2155.47 860.78 0 0 2155.47c0,25.87 8.82,46.45 26.46,61.74 17.64,15.29 38.22,22.93 61.74,22.93 23.51,0 43.5,-7.06 59.97,-21.17 16.46,-14.11 24.69,-35.27 24.69,-63.5zm1202.98 -261.05c0,49.39 -16.46,90.54 -49.39,123.47 -32.93,32.93 -74.08,49.39 -123.47,49.39l-345.72 0c-47.04,0 -87.02,-16.46 -119.95,-49.39 -32.92,-32.93 -49.39,-74.08 -49.39,-123.47l0 -1033.64c0,-47.04 16.47,-87.02 49.39,-119.95 32.93,-32.92 72.91,-49.39 119.95,-49.39l518.58 0 0 1202.98zm289.28 179.91c-35.28,-11.75 -63.5,-34.69 -84.67,-68.79 -21.17,-34.1 -31.75,-71.14 -31.75,-111.12l0 -1291.17c0,-56.44 -29.4,-84.67 -88.19,-84.67l-603.25 0c-49.39,0 -94.67,8.82 -135.82,26.46 -41.16,17.64 -77.03,42.34 -107.6,74.09 -30.58,31.75 -54.68,68.2 -72.32,109.36 -17.64,41.15 -26.46,85.25 -26.46,132.29l0 1033.64c0,98.78 32.34,181.09 97.02,246.94 64.67,65.85 146.4,98.78 245.18,98.78l345.72 0c103.48,0 189.32,-38.81 257.53,-116.42 25.87,30.58 49.39,52.92 70.55,67.03 35.28,28.22 62.33,44.69 81.14,49.39 7.06,2.35 17.64,3.53 31.75,3.53 23.52,0 43.51,-8.82 59.97,-26.46 16.47,-17.64 24.7,-38.22 24.7,-61.74 0,-39.98 -21.17,-67.02 -63.5,-81.14zm1174.75 165.81c28.22,0 49.97,-8.82 65.26,-26.46 15.29,-17.64 22.93,-37.04 22.93,-58.21 0,-58.79 -29.4,-88.19 -88.19,-88.19l-603.25 0c-47.04,0 -87.02,-16.46 -119.95,-49.39 -32.92,-32.93 -49.39,-74.08 -49.39,-123.47l0 -1033.64c0,-47.04 16.47,-87.02 49.39,-119.95 32.93,-32.92 72.91,-49.39 119.95,-49.39l603.25 0c28.22,0 49.97,-8.81 65.26,-26.45 15.29,-17.64 22.93,-38.22 22.93,-61.74 0,-56.44 -29.4,-84.67 -88.19,-84.67l-603.25 0c-49.39,0 -94.67,8.82 -135.82,26.46 -41.16,17.64 -77.03,42.34 -107.6,74.09 -30.58,31.75 -54.68,68.2 -72.32,109.36 -17.64,41.15 -26.46,85.25 -26.46,132.29l0 1033.64c0,98.78 32.34,181.09 97.02,246.94 64.67,65.85 146.4,98.78 245.18,98.78l603.25 0zm1379.36 0c28.22,0 49.97,-8.82 65.26,-26.46 15.29,-17.64 22.93,-37.04 22.93,-58.21 0,-58.79 -29.4,-88.19 -88.19,-88.19l-603.25 0c-47.04,0 -87.02,-16.46 -119.95,-49.39 -32.92,-32.93 -49.39,-74.08 -49.39,-123.47l0 -1033.64c0,-47.04 16.47,-87.02 49.39,-119.95 32.93,-32.92 72.91,-49.39 119.95,-49.39l603.25 0c28.22,0 49.97,-8.81 65.26,-26.45 15.29,-17.64 22.93,-38.22 22.93,-61.74 0,-56.44 -29.4,-84.67 -88.19,-84.67l-603.25 0c-49.39,0 -94.67,8.82 -135.82,26.46 -41.16,17.64 -77.03,42.34 -107.6,74.09 -30.58,31.75 -54.68,68.2 -72.32,109.36 -17.64,41.15 -26.46,85.25 -26.46,132.29l0 1033.64c0,98.78 32.34,181.09 97.02,246.94 64.67,65.85 146.4,98.78 245.18,98.78l603.25 0zm1294.69 -345.72c0,49.39 -16.46,90.54 -49.39,123.47 -32.93,32.93 -74.08,49.39 -123.47,49.39l-345.72 0c-47.04,0 -87.02,-16.46 -119.95,-49.39 -32.92,-32.93 -49.39,-74.08 -49.39,-123.47l0 -1033.64c0,-47.04 16.47,-87.02 49.39,-119.95 32.93,-32.92 72.91,-49.39 119.95,-49.39l518.58 0 0 1202.98zm289.28 179.91c-35.28,-11.75 -63.5,-34.69 -84.67,-68.79 -21.17,-34.1 -31.75,-71.14 -31.75,-111.12l0 -1291.17c0,-56.44 -29.4,-84.67 -88.19,-84.67l-603.25 0c-49.39,0 -94.67,8.82 -135.82,26.46 -41.16,17.64 -77.03,42.34 -107.6,74.09 -30.58,31.75 -54.68,68.2 -72.32,109.36 -17.64,41.15 -26.46,85.25 -26.46,132.29l0 1033.64c0,98.78 32.34,181.09 97.02,246.94 64.67,65.85 146.4,98.78 245.18,98.78l345.72 0c103.48,0 189.32,-38.81 257.53,-116.42 25.87,30.58 49.39,52.92 70.55,67.03 35.28,28.22 62.33,44.69 81.14,49.39 7.06,2.35 17.64,3.53 31.75,3.53 23.52,0 43.51,-8.82 59.97,-26.46 16.47,-17.64 24.7,-38.22 24.7,-61.74 0,-39.98 -21.17,-67.02 -63.5,-81.14zm998.36 -846.66l0 -624.42c0,-28.22 -8.82,-49.39 -26.46,-63.5 -17.64,-14.11 -37.04,-21.17 -58.21,-21.17 -58.8,0 -88.19,28.23 -88.19,84.67l0 617.36 -433.92 -666.75c-18.82,-25.87 -42.33,-38.8 -70.56,-38.8 -23.52,0 -44.68,8.82 -63.5,26.45 -18.81,17.64 -28.22,38.22 -28.22,61.74 0,18.81 5.88,35.28 17.64,49.39l472.72 726.72 -472.72 726.72c-11.76,18.82 -17.64,35.28 -17.64,49.39 0,23.52 9.41,43.51 28.22,59.98 18.82,16.46 39.98,24.69 63.5,24.69 30.58,0 54.1,-12.94 70.56,-38.81l433.92 -666.75 0 620.89c0,25.87 8.82,46.45 26.45,61.74 17.64,15.29 38.22,22.93 61.74,22.93 23.52,0 43.51,-7.06 59.97,-21.17 16.47,-14.11 24.7,-35.27 24.7,-63.5l0 -624.41 451.55 670.27c18.82,25.87 41.16,38.81 67.03,38.81 23.52,0 44.1,-8.23 61.74,-24.69 17.64,-16.47 26.46,-36.46 26.46,-59.98 0,-7.05 -0.59,-15.28 -1.77,-24.69 -1.17,-9.41 -5.29,-17.64 -12.35,-24.7l-490.36 -726.72 490.36 -726.72c9.41,-16.46 14.12,-32.93 14.12,-49.39 0,-23.52 -8.82,-43.51 -26.46,-59.97 -17.64,-16.47 -37.04,-24.7 -58.21,-24.7 -30.58,0 -54.09,11.76 -70.56,35.28l-451.55 673.81zm1986.14 927.8l0 -1552.22c0,-28.22 -8.82,-49.39 -26.46,-63.5 -17.64,-14.11 -38.22,-21.17 -61.73,-21.17 -23.52,0 -43.51,7.65 -59.98,22.93 -16.46,15.29 -24.69,35.87 -24.69,61.74l0 1464.03 -518.58 0c-47.04,0 -87.02,-16.46 -119.95,-49.39 -32.92,-32.93 -49.39,-74.08 -49.39,-123.47l0 -1291.17c0,-28.22 -8.82,-49.39 -26.46,-63.5 -17.63,-14.11 -38.21,-21.17 -61.73,-21.17 -23.52,0 -43.51,7.65 -59.97,22.93 -16.47,15.29 -24.7,35.87 -24.7,61.74l0 1291.17c0,98.78 32.34,181.09 97.02,246.94 64.67,65.85 146.4,98.78 245.18,98.78l603.25 0c58.79,0 88.19,-28.22 88.19,-84.67zm518.58 -84.66l0 -1379.37 518.59 0c47.03,0 87.01,16.47 119.94,49.39 32.93,32.93 49.39,72.91 49.39,119.95l0 1033.64c0,47.03 -16.46,88.19 -49.39,123.47 -32.93,35.28 -72.91,52.92 -119.94,52.92l-518.59 0zm0 169.33l518.59 0c47.03,0 91.13,-8.82 132.29,-26.46 41.16,-17.64 77.61,-42.33 109.36,-74.08 31.75,-31.75 56.44,-68.21 74.08,-109.36 17.64,-41.16 26.46,-86.43 26.46,-135.82l0 -1033.64c0,-47.04 -8.82,-91.14 -26.46,-132.29 -17.64,-41.16 -42.33,-77.61 -74.08,-109.36 -31.75,-31.75 -68.2,-56.45 -109.36,-74.09 -41.16,-17.64 -85.26,-26.46 -132.29,-26.46l-606.78 0c-56.45,0 -84.67,28.23 -84.67,84.67l0 2240.14c0,28.22 8.23,49.39 24.7,63.5 16.46,14.11 36.45,21.17 59.97,21.17 58.79,0 88.19,-28.23 88.19,-84.67l0 -603.25zm2151.95 0c28.22,0 49.97,-8.82 65.26,-26.46 15.29,-17.64 22.93,-37.04 22.93,-58.21 0,-58.79 -29.4,-88.19 -88.19,-88.19l-603.25 0c-47.04,0 -87.02,-16.46 -119.95,-49.39 -32.92,-32.93 -49.39,-74.08 -49.39,-123.47l0 -1033.64c0,-47.04 16.47,-87.02 49.39,-119.95 32.93,-32.92 72.91,-49.39 119.95,-49.39l603.25 0c28.22,0 49.97,-8.81 65.26,-26.45 15.29,-17.64 22.93,-38.22 22.93,-61.74 0,-56.44 -29.4,-84.67 -88.19,-84.67l-603.25 0c-49.39,0 -94.67,8.82 -135.82,26.46 -41.16,17.64 -77.03,42.34 -107.6,74.09 -30.58,31.75 -54.68,68.2 -72.32,109.36 -17.64,41.15 -26.46,85.25 -26.46,132.29l0 1033.64c0,98.78 32.34,181.09 97.02,246.94 64.67,65.85 146.4,98.78 245.18,98.78l603.25 0zm913.69 -987.78l532.69 -582.08c16.47,-16.47 24.7,-36.46 24.7,-59.97 0,-23.52 -8.82,-44.1 -26.46,-61.74 -17.64,-17.64 -38.22,-26.46 -61.74,-26.46 -18.81,0 -39.98,9.41 -63.5,28.22l-712.61 786.7 0 -733.78c0,-28.22 -8.82,-49.39 -26.46,-63.5 -17.63,-14.11 -37.04,-21.17 -58.2,-21.17 -58.8,0 -88.2,28.23 -88.2,84.67l0 1552.22c0,25.87 8.82,46.45 26.46,61.74 17.64,15.29 38.22,22.93 61.74,22.93 23.51,0 43.51,-7.06 59.97,-21.17 16.46,-14.11 24.69,-35.27 24.69,-63.5l0 -560.91 186.97 -208.14 515.06 814.91c16.46,25.87 39.98,38.81 70.56,38.81 23.51,0 44.09,-8.23 61.73,-24.69 17.64,-16.47 26.46,-36.46 26.46,-59.98 0,-16.46 -4.7,-32.92 -14.11,-49.39l-539.75 -853.72zm1933.22 903.11l0 -1552.22c0,-28.22 -8.82,-49.39 -26.46,-63.5 -17.64,-14.11 -38.22,-21.17 -61.73,-21.17 -23.52,0 -43.51,7.65 -59.98,22.93 -16.46,15.29 -24.69,35.87 -24.69,61.74l0 1464.03 -518.58 0c-47.04,0 -87.02,-16.46 -119.95,-49.39 -32.92,-32.93 -49.39,-74.08 -49.39,-123.47l0 -1291.17c0,-28.22 -8.82,-49.39 -26.46,-63.5 -17.63,-14.11 -38.21,-21.17 -61.73,-21.17 -23.52,0 -43.51,7.65 -59.97,22.93 -16.47,15.29 -24.7,35.87 -24.7,61.74l0 1291.17c0,98.78 32.34,181.09 97.02,246.94 64.67,65.85 146.4,98.78 245.18,98.78l603.25 0c58.79,0 88.19,-28.22 88.19,-84.67zm1033.64 -2155.47c25.87,0 46.45,-8.23 61.73,-24.69 15.29,-16.47 22.94,-36.46 22.94,-59.98 0,-58.79 -28.23,-88.19 -84.67,-88.19l-342.2 0c-28.22,0 -49.39,8.82 -63.5,26.46 -14.11,17.64 -21.16,38.21 -21.16,61.73 0,23.52 7.64,43.51 22.93,59.98 15.28,16.46 35.86,24.69 61.73,24.69l342.2 0zm345.72 2155.47l0 -1552.22c0,-28.22 -8.82,-49.39 -26.46,-63.5 -17.64,-14.11 -38.22,-21.17 -61.73,-21.17 -23.52,0 -43.51,7.65 -59.98,22.93 -16.46,15.29 -24.69,35.87 -24.69,61.74l0 1464.03 -515.06 0c-49.39,0 -90.54,-16.46 -123.47,-49.39 -32.92,-32.93 -49.39,-74.08 -49.39,-123.47l0 -1291.17c0,-28.22 -8.82,-49.39 -26.46,-63.5 -17.63,-14.11 -38.21,-21.17 -61.73,-21.17 -23.52,0 -43.51,7.65 -59.97,22.93 -16.47,15.29 -24.7,35.87 -24.7,61.74l0 1291.17c0,47.03 8.82,91.13 26.46,132.29 17.64,41.16 42.33,77.61 74.08,109.36 31.75,31.75 68.21,57.03 109.36,75.85 41.16,18.81 86.43,28.22 135.82,28.22l599.73 0c58.79,0 88.19,-28.22 88.19,-84.67zm1404.06 84.67l-3.53 0 0 -2409.47 3.53 0 1135.94 2405.94 0 -2405.94 0 0 0 2409.47 0 0 -1135.94 -2405.95 0 2405.95zm1633.36 0l0 0 0 -2409.47 0 0 0 2409.47zm1651 -2187.22l0 0 -218.72 -222.25 -684.39 0 -292.81 306.91 0 419.81 1195.92 959.56 0 405.69 -289.28 317.5 -698.5 0 -211.67 -264.58 3.53 0 208.14 264.58 698.5 0 289.28 -317.5 0 -405.69 -1195.92 -959.56 0 -419.81 292.81 -306.91 684.39 0 218.72 222.25zm1548.7 0l0 0 -218.72 -222.25 -684.39 0 -292.81 306.91 0 419.81 1195.92 959.56 0 405.69 -289.28 317.5 -698.5 0 -211.67 -264.58 3.53 0 208.14 264.58 698.5 0 289.28 -317.5 0 -405.69 -1195.92 -959.56 0 -419.81 292.81 -306.91 684.39 0 218.72 222.25zm349.25 2187.22l687.92 -2409.47 687.92 2409.47 -3.53 0 -684.39 -2405.95 -684.39 2405.95 -3.53 0zm218.73 -762l938.39 0 0 0 -938.39 0zm1531.06 762l-3.53 0 0 -2409.47 3.53 0 1135.94 2405.94 0 -2405.94 0 0 0 2409.47 0 0 -1135.94 -2405.95 0 2405.95zm-25057.83 1591.03l303.39 -299.86 603.25 0 299.86 296.33 0 1703.92 -134.05 137.58 271.64 271.64 -3.53 0 -268.11 -268.11 -261.06 268.11 -515.05 0 -296.34 -292.81 0 -1816.8zm303.39 -299.86l-303.39 299.86 0 1816.8 296.34 292.81 515.05 0 261.06 -271.64 -560.92 -557.39 0 -3.53 3.53 0 557.39 560.92 134.05 -137.58 0 -1703.92 -299.86 -296.33 -603.25 0zm1248.83 2409.47l687.92 -2409.47 687.92 2409.47 -3.53 0 -684.39 -2405.95 -684.39 2405.95 -3.53 0zm218.73 -762l938.39 0 0 0 -938.39 0zm2638.78 -1425.22l0 0 -218.72 -222.25 -684.39 0 -292.81 306.91 0 419.81 1195.92 959.56 0 405.69 -289.28 317.5 -698.5 0 -211.67 -264.58 3.53 0 208.14 264.58 698.5 0 289.28 -317.5 0 -405.69 -1195.92 -959.56 0 -419.81 292.81 -306.91 684.39 0 218.72 222.25zm398.64 -222.25c0,0 0,0 0,0l0 1107.72 1083.03 0 0 -1107.72c0,0 0,0 0,0l0 2409.47c0,0 0,0 0,0l0 -1301.75 -1083.03 0 0 1301.75c0,0 0,0 0,0l0 -2409.47zm1499.31 299.86l303.39 -299.86 603.25 0 299.86 296.33 0 1703.92 -134.05 137.58 271.64 271.64 -3.53 0 -268.11 -268.11 -261.06 268.11 -515.05 0 -296.34 -292.81 0 -1816.8zm303.39 -299.86l-303.39 299.86 0 1816.8 296.34 292.81 515.05 0 261.06 -271.64 -560.92 -557.39 0 -3.53 3.53 0 557.39 560.92 134.05 -137.58 0 -1703.92 -299.86 -296.33 -603.25 0zm1248.83 2409.47l687.92 -2409.47 687.92 2409.47 -3.53 0 -684.39 -2405.95 -684.39 2405.95 -3.53 0zm218.73 -762l938.39 0 0 0 -938.39 0zm1615.72 762l0 0 0 -2409.47 0 0 0 2409.47zm1598.08 0l0 0 0 -2409.47 0 0 0 2409.47zm1502.83 -1816.81l-3.53 0 0 -296.33 388.06 -296.33 433.92 0 377.47 299.86 0 462.14 -1210.03 1647.47 1202.97 0 0 0 -1206.5 0 1210.03 -1647.47 0 -462.14 -373.94 -299.86 -433.92 0 -388.06 296.33 3.53 296.33zm1531.06 -282.22l303.39 -310.44 599.73 0 306.91 296.33 0 1813.28 -299.86 299.86 -606.78 0 -303.39 -292.81 0 -1806.22zm303.39 -310.44l-299.86 310.44 0 1806.22 299.86 292.81 606.78 0 296.33 -299.86 0 -1813.28 -303.38 -296.33 -599.73 0zm1245.31 310.44l303.39 -310.44 599.73 0 306.91 296.33 0 1813.28 -299.86 299.86 -606.78 0 -303.39 -292.81 0 -1806.22zm303.39 -310.44l-299.86 310.44 0 1806.22 299.86 292.81 606.78 0 296.33 -299.86 0 -1813.28 -303.38 -296.33 -599.73 0zm1248.84 1104.19l903.11 0 303.39 296.33 0 709.09 -310.44 299.86 -603.25 0 -296.34 -292.81 0 -1382.89 412.75 -589.13 444.5 -141.12 0 0 -444.5 141.12 -409.22 589.13 0 1382.89 292.81 292.81 603.25 0 306.91 -299.86 0 -709.09 -299.86 -296.33 -903.11 0zm2667.01 444.5l-1206.5 0 0 0 1206.5 0zm275.16 -956.03l-3.53 0 0 -296.33 388.06 -296.33 433.92 0 377.47 299.86 0 462.14 -1210.03 1647.47 1202.97 0 0 0 -1206.5 0 1210.03 -1647.47 0 -462.14 -373.94 -299.86 -433.92 0 -388.06 296.33 3.53 296.33zm1531.06 -282.22l303.39 -310.44 599.73 0 306.91 296.33 0 1813.28 -299.86 299.86 -606.78 0 -303.39 -292.81 0 -1806.22zm303.39 -310.44l-299.86 310.44 0 1806.22 299.86 292.81 606.78 0 296.33 -299.86 0 -1813.28 -303.38 -296.33 -599.73 0zm1245.31 680.86l691.45 -680.86 0 2409.47c0,0 0,0 0,0l0 -2405.95 -687.92 677.34 -3.53 0zm1033.64 -455.09l232.84 -225.77 458.61 0 264.58 303.39 0 504.47 -197.55 282.22 278.69 275.17 0 744.36 -306.92 299.86 -483.3 0 -246.95 -250.47 3.53 0 243.42 250.47 483.3 0 306.92 -299.86 0 -744.36 -278.69 -275.17 -430.39 0 0 -3.53 430.39 3.53 197.55 -282.22 0 -504.47 -264.58 -303.39 -455.09 0 -232.83 225.77 -3.53 0zm2413 2183.7l511.53 0 299.86 -296.33 0 -2113.14c0,0 0,0 0,0l0 2113.14 -299.86 296.33 -511.53 0zm1206.5 -1728.61l691.45 -680.86 0 2409.47c0,0 0,0 0,0l0 -2405.95 -687.92 677.34 -3.53 0zm1033.64 -370.42l303.39 -310.44 599.73 0 306.91 296.33 0 1813.28 -299.86 299.86 -606.78 0 -303.39 -292.81 0 -1806.22zm303.39 -310.44l-299.86 310.44 0 1806.22 299.86 292.81 606.78 0 296.33 -299.86 0 -1813.28 -303.38 -296.33 -599.73 0z"/>
   <polyline class="fil2 str3" points="38188.97,44867.92 37522.22,45079.59 36903.09,45963.3 36903.09,48037.63 37347.59,48476.84 38252.47,48476.84 38718.13,48027.05 38718.13,46963.42 38263.05,46518.92 36908.38,46518.92 "/>
   <polyline class="fil2 str3" points="35384.38,48476.84 36400.38,44862.63 34582.7,44862.63 34585.34,45508.21 "/>
   <polyline class="fil2 str3" points="34066.76,44862.63 32516.3,44862.63 32516.3,46518.92 33611.68,46518.92 34066.76,46979.3 34066.76,48016.46 33616.97,48476.84 32516.3,48476.84 "/>
  </g>
 </g>
</svg>
