<?xml version="1.0" encoding="UTF-8"?>
<!DOCTYPE svg PUBLIC "-//W3C//DTD SVG 1.1//EN" "http://www.w3.org/Graphics/SVG/1.1/DTD/svg11.dtd">
<!-- Creator: CorelDRAW 2019 (64-Bit) -->
<svg xmlns="http://www.w3.org/2000/svg" xml:space="preserve" width="800mm" height="1000mm" version="1.1" style="shape-rendering:geometricPrecision; text-rendering:geometricPrecision; image-rendering:optimizeQuality; fill-rule:evenodd; clip-rule:evenodd"
viewBox="0 0 80000 100000"
 xmlns:xlink="http://www.w3.org/1999/xlink"
 xmlns:xodm="http://www.corel.com/coreldraw/odm/2003">
 <defs>
  <style type="text/css">
   <![CDATA[
    .str3 {stroke:black;stroke-width:20;stroke-miterlimit:22.9256}
    .str0 {stroke:#FF6600;stroke-width:20;stroke-miterlimit:22.9256}
    .str2 {stroke:#FF6600;stroke-width:7.62;stroke-miterlimit:22.9256}
    .str1 {stroke:#663333;stroke-width:7.62;stroke-miterlimit:22.9256}
    .fil0 {fill:none}
    .fil2 {fill:none;fill-rule:nonzero}
    .fil1 {fill:#663333;fill-rule:nonzero}
   ]]>
  </style>
 </defs>
 <g id="Слой_x0020_1">
  <metadata id="CorelCorpID_0Corel-Layer"/>
  <g id="_2400782538048">
   <path class="fil0 str0" d="M13932.08 71946.13c268.29,248.91 627.79,400.58 1021.6,402.68l45614.7 243.41c826.94,4.41 1538.58,-295.08 2122.89,-880.25 584.31,-585.17 893.38,-1297.42 877.11,-2124.19l-456.71 -23187.43"/>
   <path class="fil1 str1" d="M21780.85 36707.86l0 -2240.14c0,-58.79 -28.23,-88.19 -84.67,-88.19l-515.06 0c-42.33,0 -69.38,19.99 -81.14,59.97l-691.44 2240.14c-4.7,14.11 -7.06,24.7 -7.06,31.75 0,23.52 8.82,42.92 26.46,58.21 17.64,15.29 39.4,22.93 65.27,22.93 39.98,0 67.02,-19.99 81.13,-59.97l670.28 -2180.17 366.89 0 0 2155.47c0,25.87 8.23,46.45 24.7,61.74 16.46,15.29 36.45,22.93 59.97,22.93 56.44,0 84.67,-28.22 84.67,-84.67zm518.58 -864.3l0 -430.39c0,-47.04 16.47,-87.02 49.39,-119.95 32.93,-32.92 72.91,-49.39 119.95,-49.39l345.72 0c49.39,0 90.54,16.47 123.47,49.39 32.93,32.93 49.39,72.91 49.39,119.95l0 430.39 -687.92 0zm0 172.86l772.59 0c58.79,0 88.19,-28.22 88.19,-84.67l0 -518.58c0,-47.04 -8.82,-91.14 -26.46,-132.29 -17.64,-41.16 -42.33,-77.61 -74.08,-109.36 -31.75,-31.75 -68.2,-56.45 -109.36,-74.09 -41.16,-17.64 -86.43,-26.46 -135.82,-26.46l-345.72 0c-49.39,0 -94.67,8.82 -135.82,26.46 -41.16,17.64 -77.03,42.34 -107.6,74.09 -30.58,31.75 -54.68,68.2 -72.32,109.36 -17.64,41.15 -26.46,85.25 -26.46,132.29l0 1033.64c0,98.78 32.34,181.09 97.02,246.94 64.67,65.85 146.4,98.78 245.18,98.78l603.25 0c28.22,0 49.97,-8.82 65.26,-26.46 15.29,-17.64 22.93,-37.04 22.93,-58.21 0,-58.79 -29.4,-88.19 -88.19,-88.19l-603.25 0c-47.04,0 -87.02,-16.46 -119.95,-49.39 -32.92,-32.93 -49.39,-74.08 -49.39,-123.47l0 -430.39zm1379.36 -945.45l0 -345.72c0,-56.44 16.47,-99.36 49.39,-128.76 32.93,-29.4 72.91,-44.1 119.95,-44.1 49.38,0 90.54,15.29 123.47,45.86 32.92,30.57 49.39,72.91 49.39,127 0,47.04 -21.17,89.37 -63.5,127 -39.98,39.98 -89.37,82.32 -148.17,127 -18.81,16.46 -38.81,31.75 -59.97,45.86 -21.17,14.11 -44.69,29.4 -70.56,45.86zm687.92 1375.84c0,47.03 -17.05,87.6 -51.15,121.71 -34.11,34.1 -74.67,51.15 -121.71,51.15l-342.2 0c-49.39,0 -90.54,-16.46 -123.47,-49.39 -32.92,-32.93 -49.39,-74.08 -49.39,-123.47l0 -1033.64c0,-47.04 16.47,-87.02 49.39,-119.95 32.93,-32.92 74.08,-49.39 123.47,-49.39l342.2 0c49.39,0 90.54,16.47 123.47,49.39 32.93,32.93 49.39,72.91 49.39,119.95l0 1033.64zm-409.22 -1375.84c11.76,-11.76 24.69,-22.34 38.8,-31.75 14.11,-9.4 28.22,-19.99 42.34,-31.75 42.33,-35.27 68.2,-57.62 77.61,-67.02 30.57,-37.63 51.74,-75.26 63.5,-112.89 9.4,-21.17 14.11,-55.27 14.11,-102.31 0,-108.18 -36.46,-194.03 -109.36,-257.53 -63.5,-56.44 -142.29,-84.66 -236.36,-84.66 -91.73,0 -170.51,28.22 -236.37,84.66 -70.55,63.5 -105.83,149.35 -105.83,257.53l0 1721.56c0,47.03 8.82,91.13 26.46,132.29 17.64,41.16 42.33,77.61 74.08,109.36 31.75,31.75 68.21,57.03 109.36,75.85 41.16,18.81 86.43,28.22 135.82,28.22l342.2 0c49.39,0 94.66,-9.41 135.82,-28.22 41.16,-18.82 77.61,-44.1 109.36,-75.85 31.75,-31.75 56.44,-68.2 74.08,-109.36 17.64,-41.16 26.46,-85.26 26.46,-132.29l0 -1033.64c0,-47.04 -8.82,-91.14 -26.46,-132.29 -17.64,-41.16 -42.33,-77.61 -74.08,-109.36 -31.75,-31.75 -68.2,-56.45 -109.36,-74.09 -41.16,-17.64 -86.43,-26.46 -135.82,-26.46l-236.36 0zm2134.3 1636.89l0 -1552.22c0,-28.22 -8.82,-49.39 -26.46,-63.5 -17.64,-14.11 -38.21,-21.17 -61.73,-21.17 -23.52,0 -43.51,7.65 -59.97,22.93 -16.47,15.29 -24.7,35.87 -24.7,61.74l0 1552.22c0,25.87 8.23,46.45 24.7,61.74 16.46,15.29 36.45,22.93 59.97,22.93 58.79,0 88.19,-28.22 88.19,-84.67zm-1033.64 -691.44l342.2 0c49.39,0 90.54,17.05 123.47,51.15 32.93,34.1 49.39,74.67 49.39,121.71l0 257.53c0,49.39 -16.46,90.54 -49.39,123.47 -32.93,32.93 -74.08,49.39 -123.47,49.39l-342.2 0 0 -603.25zm0 -172.86l0 -687.92c0,-28.22 -8.82,-49.39 -26.46,-63.5 -17.63,-14.11 -38.21,-21.17 -61.73,-21.17 -23.52,0 -43.51,7.65 -59.97,22.93 -16.47,15.29 -24.7,35.87 -24.7,61.74l0 1552.22c0,56.45 28.22,84.67 84.67,84.67l430.39 0c98.77,0 181.09,-32.93 246.94,-98.78 65.85,-65.85 98.78,-148.16 98.78,-246.94l0 -257.53c0,-47.04 -8.82,-91.13 -26.46,-132.29 -17.64,-41.16 -42.33,-77.61 -74.08,-109.36 -31.75,-31.75 -68.21,-57.04 -109.36,-75.85 -41.16,-18.82 -86.43,-28.22 -135.82,-28.22l-342.2 0zm2063.76 -1291.17c25.87,0 46.45,-8.23 61.73,-24.69 15.29,-16.47 22.94,-36.46 22.94,-59.98 0,-58.79 -28.23,-88.19 -84.67,-88.19l-342.2 0c-28.22,0 -49.39,8.82 -63.5,26.46 -14.11,17.64 -21.16,38.21 -21.16,61.73 0,23.52 7.64,43.51 22.93,59.98 15.28,16.46 35.86,24.69 61.73,24.69l342.2 0zm345.72 2155.47l0 -1552.22c0,-28.22 -8.82,-49.39 -26.46,-63.5 -17.64,-14.11 -38.22,-21.17 -61.73,-21.17 -23.52,0 -43.51,7.65 -59.98,22.93 -16.46,15.29 -24.69,35.87 -24.69,61.74l0 1464.03 -515.06 0c-49.39,0 -90.54,-16.46 -123.47,-49.39 -32.92,-32.93 -49.39,-74.08 -49.39,-123.47l0 -1291.17c0,-28.22 -8.82,-49.39 -26.46,-63.5 -17.63,-14.11 -38.21,-21.17 -61.73,-21.17 -23.52,0 -43.51,7.65 -59.97,22.93 -16.47,15.29 -24.7,35.87 -24.7,61.74l0 1291.17c0,47.03 8.82,91.13 26.46,132.29 17.64,41.16 42.33,77.61 74.08,109.36 31.75,31.75 68.21,57.03 109.36,75.85 41.16,18.81 86.43,28.22 135.82,28.22l599.73 0c58.79,0 88.19,-28.22 88.19,-84.67zm1404.06 84.67l-3.53 0 0 -2409.47 3.53 0 1135.94 2405.94 0 -2405.94 0 0 0 2409.47 0 0 -1135.94 -2405.95 0 2405.95zm1633.36 0l0 0 0 -2409.47 0 0 0 2409.47zm1651 -2187.22l0 0 -218.72 -222.25 -684.39 0 -292.81 306.91 0 419.81 1195.92 959.56 0 405.69 -289.28 317.5 -698.5 0 -211.67 -264.58 3.53 0 208.14 264.58 698.5 0 289.28 -317.5 0 -405.69 -1195.92 -959.56 0 -419.81 292.81 -306.91 684.39 0 218.72 222.25zm1548.7 0l0 0 -218.72 -222.25 -684.39 0 -292.81 306.91 0 419.81 1195.92 959.56 0 405.69 -289.28 317.5 -698.5 0 -211.67 -264.58 3.53 0 208.14 264.58 698.5 0 289.28 -317.5 0 -405.69 -1195.92 -959.56 0 -419.81 292.81 -306.91 684.39 0 218.72 222.25zm349.25 2187.22l687.92 -2409.47 687.92 2409.47 -3.53 0 -684.39 -2405.95 -684.39 2405.95 -3.53 0zm218.73 -762l938.39 0 0 0 -938.39 0zm1531.06 762l-3.53 0 0 -2409.47 3.53 0 1135.94 2405.94 0 -2405.94 0 0 0 2409.47 0 0 -1135.94 -2405.95 0 2405.95zm2554.11 -2109.61l303.39 -299.86 603.25 0 299.86 296.33 0 1703.92 -134.05 137.58 271.64 271.64 -3.53 0 -268.11 -268.11 -261.06 268.11 -515.05 0 -296.34 -292.81 0 -1816.8zm303.39 -299.86l-303.39 299.86 0 1816.8 296.34 292.81 515.05 0 261.06 -271.64 -560.92 -557.39 0 -3.53 3.53 0 557.39 560.92 134.05 -137.58 0 -1703.92 -299.86 -296.33 -603.25 0zm1248.83 2409.47l687.92 -2409.47 687.92 2409.47 -3.53 0 -684.39 -2405.95 -684.39 2405.95 -3.53 0zm218.73 -762l938.39 0 0 0 -938.39 0zm2638.78 -1425.22l0 0 -218.72 -222.25 -684.39 0 -292.81 306.91 0 419.81 1195.92 959.56 0 405.69 -289.28 317.5 -698.5 0 -211.67 -264.58 3.53 0 208.14 264.58 698.5 0 289.28 -317.5 0 -405.69 -1195.92 -959.56 0 -419.81 292.81 -306.91 684.39 0 218.72 222.25zm398.64 -222.25c0,0 0,0 0,0l0 1107.72 1083.03 0 0 -1107.72c0,0 0,0 0,0l0 2409.47c0,0 0,0 0,0l0 -1301.75 -1083.03 0 0 1301.75c0,0 0,0 0,0l0 -2409.47zm1499.31 299.86l303.39 -299.86 603.25 0 299.86 296.33 0 1703.92 -134.05 137.58 271.64 271.64 -3.53 0 -268.11 -268.11 -261.06 268.11 -515.05 0 -296.34 -292.81 0 -1816.8zm303.39 -299.86l-303.39 299.86 0 1816.8 296.34 292.81 515.05 0 261.06 -271.64 -560.92 -557.39 0 -3.53 3.53 0 557.39 560.92 134.05 -137.58 0 -1703.92 -299.86 -296.33 -603.25 0zm1248.83 2409.47l687.92 -2409.47 687.92 2409.47 -3.53 0 -684.39 -2405.95 -684.39 2405.95 -3.53 0zm218.73 -762l938.39 0 0 0 -938.39 0zm1615.72 762l0 0 0 -2409.47 0 0 0 2409.47zm1598.08 0l0 0 0 -2409.47 0 0 0 2409.47zm-29231.21 1883.83l-3.53 0 0 -296.33 388.06 -296.33 433.92 0 377.47 299.86 0 462.14 -1210.03 1647.47 1202.97 0 0 0 -1206.5 0 1210.03 -1647.47 0 -462.14 -373.94 -299.86 -433.92 0 -388.06 296.33 3.53 296.33zm1531.06 -282.22l303.39 -310.44 599.73 0 306.91 296.33 0 1813.28 -299.86 299.86 -606.78 0 -303.39 -292.81 0 -1806.22zm303.39 -310.44l-299.86 310.44 0 1806.22 299.86 292.81 606.78 0 296.33 -299.86 0 -1813.28 -303.38 -296.33 -599.73 0zm1245.31 310.44l303.39 -310.44 599.73 0 306.91 296.33 0 1813.28 -299.86 299.86 -606.78 0 -303.39 -292.81 0 -1806.22zm303.39 -310.44l-299.86 310.44 0 1806.22 299.86 292.81 606.78 0 296.33 -299.86 0 -1813.28 -303.38 -296.33 -599.73 0zm1248.84 1104.19l903.11 0 303.39 296.33 0 709.09 -310.44 299.86 -603.25 0 -296.34 -292.81 0 -1382.89 412.75 -589.13 444.5 -141.12 0 0 -444.5 141.12 -409.22 589.13 0 1382.89 292.81 292.81 603.25 0 306.91 -299.86 0 -709.09 -299.86 -296.33 -903.11 0zm2667.01 444.5l-1206.5 0 0 0 1206.5 0zm275.16 -956.03l-3.53 0 0 -296.33 388.06 -296.33 433.92 0 377.47 299.86 0 462.14 -1210.03 1647.47 1202.97 0 0 0 -1206.5 0 1210.03 -1647.47 0 -462.14 -373.94 -299.86 -433.92 0 -388.06 296.33 3.53 296.33zm1531.06 -282.22l303.39 -310.44 599.73 0 306.91 296.33 0 1813.28 -299.86 299.86 -606.78 0 -303.39 -292.81 0 -1806.22zm303.39 -310.44l-299.86 310.44 0 1806.22 299.86 292.81 606.78 0 296.33 -299.86 0 -1813.28 -303.38 -296.33 -599.73 0zm1245.31 680.86l691.45 -680.86 0 2409.47c0,0 0,0 0,0l0 -2405.95 -687.92 677.34 -3.53 0zm1033.64 -455.09l232.84 -225.77 458.61 0 264.58 303.39 0 504.47 -197.55 282.22 278.69 275.17 0 744.36 -306.92 299.86 -483.3 0 -246.95 -250.47 3.53 0 243.42 250.47 483.3 0 306.92 -299.86 0 -744.36 -278.69 -275.17 -430.39 0 0 -3.53 430.39 3.53 197.55 -282.22 0 -504.47 -264.58 -303.39 -455.09 0 -232.83 225.77 -3.53 0zm2413 2183.7l511.53 0 299.86 -296.33 0 -2113.14c0,0 0,0 0,0l0 2113.14 -299.86 296.33 -511.53 0zm1206.5 -1728.61l691.45 -680.86 0 2409.47c0,0 0,0 0,0l0 -2405.95 -687.92 677.34 -3.53 0zm1033.64 -370.42l303.39 -310.44 599.73 0 306.91 296.33 0 1813.28 -299.86 299.86 -606.78 0 -303.39 -292.81 0 -1806.22zm303.39 -310.44l-299.86 310.44 0 1806.22 299.86 292.81 606.78 0 296.33 -299.86 0 -1813.28 -303.38 -296.33 -599.73 0z"/>
   <polyline class="fil2 str2" points="41685.22,53334.71 41679.93,56948.92 42981.68,56948.92 "/>
   <polyline class="fil2 str2" points="39092.31,53340 38425.56,53551.67 37806.43,54435.38 37806.43,56509.71 38250.93,56948.92 39155.81,56948.92 39621.47,56499.13 39621.47,55435.5 39166.39,54991 37811.72,54991 "/>
   <polyline class="fil2 str2" points="36287.72,56948.92 37303.72,53334.71 35486.04,53334.71 35488.68,53980.29 "/>
   <polyline class="fil2 str2" points="34970.1,53334.71 33419.64,53334.71 33419.64,54991 34515.02,54991 34970.1,55451.38 34970.1,56488.54 34520.31,56948.92 33419.64,56948.92 "/>
   <path class="fil0 str3" d="M37076.93 76610.04l24202.22 148.31c3246.24,19.88 6239.24,-3773.5 6175.23,-7271.02l-339.01 -18521.56c-14.75,-805.82 -4349.56,-6708.28 -5518.24,-6789.79l-5765.12 -402.17c-804.75,-56.13 -1469.16,-638.37 -1498.98,-1444.53l-316.96 -8564.82c-15.57,-421.01 -153.53,-783.9 -456.06,-1077.11 -302.53,-293.21 -669.66,-431.71 -1090.85,-422.15l-33163.25 752.81c-809.49,18.38 -1463.21,689.6 -1453.09,1499.26l105.83 8464.94c9.34,746.68 -531.74,1404.43 -1274.34,1482.93l-3254.2 343.98c-795.58,84.09 -1384.46,776.24 -1340.01,1575.02l1365.89 24548c88.1,1582.33 806.73,5538.09 2845.24,5550.58l20775.7 127.32z"/>
  </g>
 </g>
</svg>
