0
SECTION
2
ENTITIES
0
POLYLINE
70
1
62
7
8
0
66
1
0
VERTEX
8
0
10
4.750
20
9.000
0
VERTEX
8
0
10
4.750
20
0.000
0
VERTEX
8
0
10
0.000
20
0.000
0
VERTEX
8
0
10
0.000
20
18.000
0
VERTEX
8
0
10
90.000
20
18.000
0
VERTEX
8
0
10
90.000
20
0.000
0
VERTEX
8
0
10
85.250
20
0.000
0
VERTEX
8
0
10
85.250
20
9.000
42
0.267949
0
VERTEX
8
0
10
83.625000
20
11.814583
42
0.267949
0
VERTEX
8
0
10
80.375000
20
11.814583
42
0.267949
0
VERTEX
8
0
10
78.750000
20
9.000000
0
VERTEX
8
0
10
78.750
20
0.000
0
VERTEX
8
0
10
11.250
20
0.000
0
VERTEX
8
0
10
11.250
20
9.000
42
0.267949
0
VERTEX
8
0
10
9.625000
20
11.814583
42
0.267949
0
VERTEX
8
0
10
6.375000
20
11.814583
42
0.267949
0
VERTEX
8
0
10
4.750000
20
9.000000
0
SEQEND
0
POLYLINE
70
1
62
7
8
0
66
1
0
VERTEX
8
0
10
16.990
20
41.253
0
VERTEX
8
0
10
16.990
20
32.253
0
VERTEX
8
0
10
10.240
20
32.253
0
VERTEX
8
0
10
10.240
20
50.253
0
VERTEX
8
0
10
90.240
20
50.253
0
VERTEX
8
0
10
90.240
20
32.253
0
VERTEX
8
0
10
83.490
20
32.253
0
VERTEX
8
0
10
83.490
20
41.253
42
0.267949
0
VERTEX
8
0
10
81.864645
20
44.068061
42
0.267949
0
VERTEX
8
0
10
78.614645
20
44.068061
42
0.267949
0
VERTEX
8
0
10
76.989645
20
41.253479
0
VERTEX
8
0
10
76.990
20
32.253
0
VERTEX
8
0
10
23.490
20
32.253
0
VERTEX
8
0
10
23.490
20
41.253
42
0.267949
0
VERTEX
8
0
10
21.864645
20
44.068061
42
0.267949
0
VERTEX
8
0
10
18.614645
20
44.068061
42
0.268031
0
VERTEX
8
0
10
16.990000
20
41.253000
0
SEQEND
0
POLYLINE
70
1
62
7
8
0
66
1
0
VERTEX
8
0
10
30.856
20
140.897
0
VERTEX
8
0
10
62.856
20
140.897
0
VERTEX
8
0
10
72.856
20
130.897
0
VERTEX
8
0
10
72.856
20
98.897
0
VERTEX
8
0
10
30.856
20
98.897
0
VERTEX
8
0
10
30.856
20
140.897
0
SEQEND
0
POLYLINE
70
1
62
7
8
0
66
1
0
VERTEX
8
0
10
286.985
20
91.351
42
0.198913
0
VERTEX
8
0
10
277.641936
20
113.907740
42
0.198913
0
VERTEX
8
0
10
255.085223
20
123.251177
42
0.198913
0
VERTEX
8
0
10
232.528510
20
113.907891
42
0.198913
0
VERTEX
8
0
10
223.185223
20
91.351177
42
0.198913
0
VERTEX
8
0
10
232.528510
20
68.794464
42
0.198913
0
VERTEX
8
0
10
255.085223
20
59.451177
42
0.198913
0
VERTEX
8
0
10
277.641936
20
68.794464
42
0.198916
0
VERTEX
8
0
10
286.985116
20
91.350919
0
SEQEND
0
POLYLINE
70
1
62
7
8
0
66
1
0
VERTEX
8
0
10
592.205
20
157.989
42
-0.405145
0
VERTEX
8
0
10
593.991634
20
160.975542
0
VERTEX
8
0
10
594.958
20
161.234
42
0.202902
0
VERTEX
8
0
10
596.494955
20
162.432656
42
0.202902
0
VERTEX
8
0
10
596.704802
20
164.370116
42
0.116077
0
VERTEX
8
0
10
577.463122
20
197.697684
42
0.202902
0
VERTEX
8
0
10
575.680309
20
198.484680
42
0.202902
0
VERTEX
8
0
10
573.874194
20
197.752742
0
VERTEX
8
0
10
573.167
20
197.045
42
-0.405145
0
VERTEX
8
0
10
569.686969
20
196.991251
42
0.115884
0
VERTEX
8
0
10
538.790079
20
214.829578
42
-0.405145
0
VERTEX
8
0
10
537.096994
20
217.870181
0
VERTEX
8
0
10
537.356
20
218.836
42
0.202902
0
VERTEX
8
0
10
537.086757
20
220.766678
42
0.202902
0
VERTEX
8
0
10
535.513791
20
221.917141
42
0.116077
0
VERTEX
8
0
10
497.030431
20
221.917141
42
0.202902
0
VERTEX
8
0
10
495.457465
20
220.766678
42
0.202902
0
VERTEX
8
0
10
495.188285
20
218.836567
0
VERTEX
8
0
10
495.447
20
217.870
42
-0.405145
0
VERTEX
8
0
10
493.754143
20
214.829578
42
0.115884
0
VERTEX
8
0
10
462.857253
20
196.991251
42
-0.405145
0
VERTEX
8
0
10
459.377471
20
197.045298
0
VERTEX
8
0
10
458.670
20
197.752
42
0.202902
0
VERTEX
8
0
10
456.863913
20
198.484680
42
0.202902
0
VERTEX
8
0
10
455.081100
20
197.697684
42
0.116077
0
VERTEX
8
0
10
435.839419
20
164.370116
42
0.202902
0
VERTEX
8
0
10
436.049267
20
162.432656
42
0.202902
0
VERTEX
8
0
10
437.586202
20
161.234484
0
VERTEX
8
0
10
438.553
20
160.975
42
-0.405145
0
VERTEX
8
0
10
440.339285
20
157.988986
42
0.115884
0
VERTEX
8
0
10
440.339285
20
122.312331
42
-0.405145
0
VERTEX
8
0
10
438.552588
20
119.325775
0
VERTEX
8
0
10
437.586
20
119.066
42
0.202902
0
VERTEX
8
0
10
436.049267
20
117.868660
42
0.202902
0
VERTEX
8
0
10
435.839419
20
115.931201
42
0.116077
0
VERTEX
8
0
10
455.081100
20
82.603633
42
0.202902
0
VERTEX
8
0
10
456.863913
20
81.816636
42
0.202902
0
VERTEX
8
0
10
458.670028
20
82.548575
0
VERTEX
8
0
10
459.377
20
83.256
42
-0.405145
0
VERTEX
8
0
10
462.857253
20
83.310066
42
0.115884
0
VERTEX
8
0
10
493.754143
20
65.471738
42
-0.405145
0
VERTEX
8
0
10
495.447228
20
62.431135
0
VERTEX
8
0
10
495.188
20
61.464
42
0.202902
0
VERTEX
8
0
10
495.457465
20
59.534638
42
0.202902
0
VERTEX
8
0
10
497.030431
20
58.384175
42
0.116077
0
VERTEX
8
0
10
535.513791
20
58.384175
42
0.202902
0
VERTEX
8
0
10
537.086757
20
59.534638
42
0.202902
0
VERTEX
8
0
10
537.355937
20
61.464749
0
VERTEX
8
0
10
537.097
20
62.431
42
-0.405145
0
VERTEX
8
0
10
538.790079
20
65.471738
42
0.115884
0
VERTEX
8
0
10
569.686969
20
83.310066
42
-0.405145
0
VERTEX
8
0
10
573.166750
20
83.256019
0
VERTEX
8
0
10
573.874
20
82.548
42
0.202902
0
VERTEX
8
0
10
575.680309
20
81.816636
42
0.202902
0
VERTEX
8
0
10
577.463122
20
82.603633
42
0.116077
0
VERTEX
8
0
10
596.704802
20
115.931201
42
0.202902
0
VERTEX
8
0
10
596.494955
20
117.868660
42
0.202902
0
VERTEX
8
0
10
594.958020
20
119.066832
0
VERTEX
8
0
10
593.992
20
119.325
42
-0.405145
0
VERTEX
8
0
10
592.204937
20
122.312331
42
0.115881
0
VERTEX
8
0
10
592.205004
20
157.989400
0
SEQEND
0
POLYLINE
70
1
62
7
8
0
66
1
0
VERTEX
8
0
10
113.198
20
120.091
0
VERTEX
8
0
10
192.198
20
120.091
42
-0.198912
0
VERTEX
8
0
10
196.440613
20
118.334095
42
-0.198912
0
VERTEX
8
0
10
198.197972
20
114.091454
0
VERTEX
8
0
10
198.198
20
35.091
42
-0.198913
0
VERTEX
8
0
10
196.440508
20
30.848705
42
-0.198913
0
VERTEX
8
0
10
192.197972
20
29.091454
0
VERTEX
8
0
10
113.198
20
29.091
42
-0.198913
0
VERTEX
8
0
10
108.955224
20
30.848705
42
-0.198913
0
VERTEX
8
0
10
107.197972
20
35.091454
0
VERTEX
8
0
10
107.198
20
114.091
42
-0.198912
0
VERTEX
8
0
10
108.955331
20
118.334095
42
-0.198954
0
VERTEX
8
0
10
113.197865
20
120.091196
0
SEQEND
0
POLYLINE
70
1
62
7
8
0
66
1
0
VERTEX
8
0
10
19.788
20
177.052
0
VERTEX
8
0
10
19.788
20
168.052
0
VERTEX
8
0
10
15.038
20
168.052
0
VERTEX
8
0
10
15.038
20
186.052
0
VERTEX
8
0
10
105.038
20
186.052
0
VERTEX
8
0
10
105.038
20
168.052
0
VERTEX
8
0
10
100.288
20
168.052
0
VERTEX
8
0
10
100.288
20
177.052
42
0.267949
0
VERTEX
8
0
10
98.663273
20
179.866789
42
0.267949
0
VERTEX
8
0
10
95.413273
20
179.866789
42
0.267949
0
VERTEX
8
0
10
93.788273
20
177.052206
0
VERTEX
8
0
10
93.788
20
168.052
0
VERTEX
8
0
10
26.288
20
168.052
0
VERTEX
8
0
10
26.288
20
177.052
42
0.267949
0
VERTEX
8
0
10
24.663273
20
179.866789
42
0.267949
0
VERTEX
8
0
10
21.413273
20
179.866789
42
0.267886
0
VERTEX
8
0
10
19.788000
20
177.052000
0
SEQEND
0
POLYLINE
70
1
62
7
8
0
66
1
0
VERTEX
8
0
10
32.028
20
209.306
0
VERTEX
8
0
10
32.028
20
200.306
0
VERTEX
8
0
10
25.278
20
200.306
0
VERTEX
8
0
10
25.278
20
218.306
0
VERTEX
8
0
10
105.278
20
218.306
0
VERTEX
8
0
10
105.278
20
200.306
0
VERTEX
8
0
10
98.528
20
200.306
0
VERTEX
8
0
10
98.528
20
209.306
42
0.267949
0
VERTEX
8
0
10
96.902918
20
212.120267
42
0.267949
0
VERTEX
8
0
10
93.652918
20
212.120267
42
0.267949
0
VERTEX
8
0
10
92.027918
20
209.305685
0
VERTEX
8
0
10
92.028
20
200.306
0
VERTEX
8
0
10
38.528
20
200.306
0
VERTEX
8
0
10
38.528
20
209.306
42
0.267949
0
VERTEX
8
0
10
36.902918
20
212.120267
42
0.267949
0
VERTEX
8
0
10
33.652918
20
212.120267
42
0.267968
0
VERTEX
8
0
10
32.028000
20
209.306000
0
SEQEND
0
POLYLINE
70
1
62
7
8
0
66
1
0
VERTEX
8
0
10
45.894
20
308.950
0
VERTEX
8
0
10
77.894
20
308.950
0
VERTEX
8
0
10
87.894
20
298.950
0
VERTEX
8
0
10
87.894
20
266.950
0
VERTEX
8
0
10
45.894
20
266.950
0
VERTEX
8
0
10
45.894
20
308.950
0
SEQEND
0
POLYLINE
70
1
62
7
8
0
66
1
0
VERTEX
8
0
10
311.920
20
25.038
0
VERTEX
8
0
10
311.920
20
16.038
0
VERTEX
8
0
10
307.170
20
16.038
0
VERTEX
8
0
10
307.170
20
34.038
0
VERTEX
8
0
10
397.170
20
34.038
0
VERTEX
8
0
10
397.170
20
16.038
0
VERTEX
8
0
10
392.420
20
16.038
0
VERTEX
8
0
10
392.420
20
25.038
42
0.267949
0
VERTEX
8
0
10
390.795036
20
27.852523
42
0.267949
0
VERTEX
8
0
10
387.545036
20
27.852523
42
0.267949
0
VERTEX
8
0
10
385.920036
20
25.037940
0
VERTEX
8
0
10
385.920
20
16.038
0
VERTEX
8
0
10
318.420
20
16.038
0
VERTEX
8
0
10
318.420
20
25.038
42
0.267949
0
VERTEX
8
0
10
316.795036
20
27.852523
42
0.267949
0
VERTEX
8
0
10
313.545036
20
27.852523
42
0.267941
0
VERTEX
8
0
10
311.920000
20
25.038000
0
SEQEND
0
POLYLINE
70
1
62
7
8
0
66
1
0
VERTEX
8
0
10
324.160
20
57.291
0
VERTEX
8
0
10
324.160
20
48.291
0
VERTEX
8
0
10
317.410
20
48.291
0
VERTEX
8
0
10
317.410
20
66.291
0
VERTEX
8
0
10
397.410
20
66.291
0
VERTEX
8
0
10
397.410
20
48.291
0
VERTEX
8
0
10
390.660
20
48.291
0
VERTEX
8
0
10
390.660
20
57.291
42
0.267949
0
VERTEX
8
0
10
389.034681
20
60.106002
42
0.267949
0
VERTEX
8
0
10
385.784681
20
60.106002
42
0.267949
0
VERTEX
8
0
10
384.159681
20
57.291419
0
VERTEX
8
0
10
384.160
20
48.291
0
VERTEX
8
0
10
330.660
20
48.291
0
VERTEX
8
0
10
330.660
20
57.291
42
0.267949
0
VERTEX
8
0
10
329.034681
20
60.106002
42
0.267949
0
VERTEX
8
0
10
325.784681
20
60.106002
42
0.268023
0
VERTEX
8
0
10
324.160000
20
57.291000
0
SEQEND
0
POLYLINE
70
1
62
7
8
0
66
1
0
VERTEX
8
0
10
338.026
20
156.935
0
VERTEX
8
0
10
370.026
20
156.935
0
VERTEX
8
0
10
380.026
20
146.935
0
VERTEX
8
0
10
380.026
20
114.935
0
VERTEX
8
0
10
338.026
20
114.935
0
VERTEX
8
0
10
338.026
20
156.935
0
SEQEND
0
POLYLINE
70
1
62
7
8
0
66
1
0
VERTEX
8
0
10
303.989
20
195.558
0
VERTEX
8
0
10
303.989
20
186.558
0
VERTEX
8
0
10
299.239
20
186.558
0
VERTEX
8
0
10
299.239
20
204.558
0
VERTEX
8
0
10
389.239
20
204.558
0
VERTEX
8
0
10
389.239
20
186.558
0
VERTEX
8
0
10
384.489
20
186.558
0
VERTEX
8
0
10
384.489
20
195.558
42
0.267949
0
VERTEX
8
0
10
382.863857
20
198.372873
42
0.267949
0
VERTEX
8
0
10
379.613857
20
198.372873
42
0.267949
0
VERTEX
8
0
10
377.988857
20
195.558291
0
VERTEX
8
0
10
377.989
20
186.558
0
VERTEX
8
0
10
310.489
20
186.558
0
VERTEX
8
0
10
310.489
20
195.558
42
0.267949
0
VERTEX
8
0
10
308.863857
20
198.372873
42
0.267949
0
VERTEX
8
0
10
305.613857
20
198.372873
42
0.267982
0
VERTEX
8
0
10
303.989000
20
195.558000
0
SEQEND
0
POLYLINE
70
1
62
7
8
0
66
1
0
VERTEX
8
0
10
316.229
20
227.812
0
VERTEX
8
0
10
316.229
20
218.812
0
VERTEX
8
0
10
309.479
20
218.812
0
VERTEX
8
0
10
309.479
20
236.812
0
VERTEX
8
0
10
389.479
20
236.812
0
VERTEX
8
0
10
389.479
20
218.812
0
VERTEX
8
0
10
382.729
20
218.812
0
VERTEX
8
0
10
382.729
20
227.812
42
0.267949
0
VERTEX
8
0
10
381.103502
20
230.626352
42
0.267949
0
VERTEX
8
0
10
377.853502
20
230.626352
42
0.267949
0
VERTEX
8
0
10
376.228502
20
227.811769
0
VERTEX
8
0
10
376.229
20
218.812
0
VERTEX
8
0
10
322.729
20
218.812
0
VERTEX
8
0
10
322.729
20
227.812
42
0.267949
0
VERTEX
8
0
10
321.103502
20
230.626352
42
0.267949
0
VERTEX
8
0
10
317.853502
20
230.626352
42
0.268064
0
VERTEX
8
0
10
316.229000
20
227.812000
0
SEQEND
0
POLYLINE
70
1
62
7
8
0
66
1
0
VERTEX
8
0
10
330.095
20
327.456
0
VERTEX
8
0
10
362.095
20
327.456
0
VERTEX
8
0
10
372.095
20
317.456
0
VERTEX
8
0
10
372.095
20
285.456
0
VERTEX
8
0
10
330.095
20
285.456
0
VERTEX
8
0
10
330.095
20
327.456
0
SEQEND
0
POLYLINE
70
1
62
7
8
0
66
1
0
VERTEX
8
0
10
157.262
20
232.570
0
VERTEX
8
0
10
157.262
20
223.570
0
VERTEX
8
0
10
152.512
20
223.570
0
VERTEX
8
0
10
152.512
20
241.570
0
VERTEX
8
0
10
242.512
20
241.570
0
VERTEX
8
0
10
242.512
20
223.570
0
VERTEX
8
0
10
237.762
20
223.570
0
VERTEX
8
0
10
237.762
20
232.570
42
0.267949
0
VERTEX
8
0
10
236.137044
20
235.385042
42
0.267949
0
VERTEX
8
0
10
232.887044
20
235.385042
42
0.267949
0
VERTEX
8
0
10
231.262044
20
232.570460
0
VERTEX
8
0
10
231.262
20
223.570
0
VERTEX
8
0
10
163.762
20
223.570
0
VERTEX
8
0
10
163.762
20
232.570
42
0.267949
0
VERTEX
8
0
10
162.137044
20
235.385042
42
0.267949
0
VERTEX
8
0
10
158.887044
20
235.385042
42
0.267939
0
VERTEX
8
0
10
157.262000
20
232.570000
0
SEQEND
0
POLYLINE
70
1
62
7
8
0
66
1
0
VERTEX
8
0
10
169.502
20
264.824
0
VERTEX
8
0
10
169.502
20
255.824
0
VERTEX
8
0
10
162.752
20
255.824
0
VERTEX
8
0
10
162.752
20
273.824
0
VERTEX
8
0
10
242.752
20
273.824
0
VERTEX
8
0
10
242.752
20
255.824
0
VERTEX
8
0
10
236.002
20
255.824
0
VERTEX
8
0
10
236.002
20
264.824
42
0.267949
0
VERTEX
8
0
10
234.376689
20
267.638521
42
0.267949
0
VERTEX
8
0
10
231.126689
20
267.638521
42
0.267949
0
VERTEX
8
0
10
229.501689
20
264.823938
0
VERTEX
8
0
10
229.502
20
255.824
0
VERTEX
8
0
10
176.002
20
255.824
0
VERTEX
8
0
10
176.002
20
264.824
42
0.267949
0
VERTEX
8
0
10
174.376689
20
267.638521
42
0.267949
0
VERTEX
8
0
10
171.126689
20
267.638521
42
0.268021
0
VERTEX
8
0
10
169.502000
20
264.824000
0
SEQEND
0
POLYLINE
70
1
62
7
8
0
66
1
0
VERTEX
8
0
10
183.368
20
364.468
0
VERTEX
8
0
10
215.368
20
364.468
0
VERTEX
8
0
10
225.368
20
354.468
0
VERTEX
8
0
10
225.368
20
322.468
0
VERTEX
8
0
10
183.368
20
322.468
0
VERTEX
8
0
10
183.368
20
364.468
0
SEQEND
0
POLYLINE
70
1
62
7
8
0
66
1
0
VERTEX
8
0
10
53.045
20
414.784
0
VERTEX
8
0
10
53.045
20
405.784
0
VERTEX
8
0
10
48.295
20
405.784
0
VERTEX
8
0
10
48.295
20
423.784
0
VERTEX
8
0
10
138.295
20
423.784
0
VERTEX
8
0
10
138.295
20
405.784
0
VERTEX
8
0
10
133.545
20
405.784
0
VERTEX
8
0
10
133.545
20
414.784
42
0.267949
0
VERTEX
8
0
10
131.919853
20
417.598398
42
0.267949
0
VERTEX
8
0
10
128.669853
20
417.598398
42
0.267949
0
VERTEX
8
0
10
127.044853
20
414.783815
0
VERTEX
8
0
10
127.045
20
405.784
0
VERTEX
8
0
10
59.545
20
405.784
0
VERTEX
8
0
10
59.545
20
414.784
42
0.267949
0
VERTEX
8
0
10
57.919853
20
417.598398
42
0.267949
0
VERTEX
8
0
10
54.669853
20
417.598398
42
0.267949
0
VERTEX
8
0
10
53.044853
20
414.783815
0
SEQEND
0
POLYLINE
70
1
62
7
8
0
66
1
0
VERTEX
8
0
10
65.285
20
447.037
0
VERTEX
8
0
10
65.285
20
438.037
0
VERTEX
8
0
10
58.535
20
438.037
0
VERTEX
8
0
10
58.535
20
456.037
0
VERTEX
8
0
10
138.535
20
456.037
0
VERTEX
8
0
10
138.535
20
438.037
0
VERTEX
8
0
10
131.785
20
438.037
0
VERTEX
8
0
10
131.785
20
447.037
42
0.267949
0
VERTEX
8
0
10
130.159498
20
449.851876
42
0.267949
0
VERTEX
8
0
10
126.909498
20
449.851876
42
0.267949
0
VERTEX
8
0
10
125.284498
20
447.037294
0
VERTEX
8
0
10
125.285
20
438.037
0
VERTEX
8
0
10
71.785
20
438.037
0
VERTEX
8
0
10
71.785
20
447.037
42
0.267949
0
VERTEX
8
0
10
70.159498
20
449.851876
42
0.267949
0
VERTEX
8
0
10
66.909498
20
449.851876
42
0.268031
0
VERTEX
8
0
10
65.284853
20
447.036815
0
SEQEND
0
POLYLINE
70
1
62
7
8
0
66
1
0
VERTEX
8
0
10
79.151
20
546.681
0
VERTEX
8
0
10
111.151
20
546.681
0
VERTEX
8
0
10
121.151
20
536.681
0
VERTEX
8
0
10
121.151
20
504.681
0
VERTEX
8
0
10
79.151
20
504.681
0
VERTEX
8
0
10
79.151
20
546.681
0
SEQEND
0
POLYLINE
70
1
62
7
8
0
66
1
0
VERTEX
8
0
10
335.280
20
497.135
42
0.198913
0
VERTEX
8
0
10
325.936789
20
519.691555
42
0.198913
0
VERTEX
8
0
10
303.380076
20
529.034993
42
0.198913
0
VERTEX
8
0
10
280.823362
20
519.691706
42
0.198913
0
VERTEX
8
0
10
271.480076
20
497.134993
42
0.198913
0
VERTEX
8
0
10
280.823362
20
474.578279
42
0.198913
0
VERTEX
8
0
10
303.380076
20
465.234993
42
0.198913
0
VERTEX
8
0
10
325.936789
20
474.578279
42
0.198916
0
VERTEX
8
0
10
335.279969
20
497.134735
0
SEQEND
0
POLYLINE
70
1
62
7
8
0
66
1
0
VERTEX
8
0
10
640.500
20
563.773
42
-0.405145
0
VERTEX
8
0
10
642.286487
20
566.759357
0
VERTEX
8
0
10
643.253
20
567.018
42
0.202902
0
VERTEX
8
0
10
644.789808
20
568.216471
42
0.202902
0
VERTEX
8
0
10
644.999655
20
570.153931
42
0.116077
0
VERTEX
8
0
10
625.757975
20
603.481499
42
0.202902
0
VERTEX
8
0
10
623.975162
20
604.268495
42
0.202902
0
VERTEX
8
0
10
622.169047
20
603.536557
0
VERTEX
8
0
10
621.462
20
602.829
42
-0.405145
0
VERTEX
8
0
10
617.981822
20
602.775066
42
0.115884
0
VERTEX
8
0
10
587.084932
20
620.613393
42
-0.405145
0
VERTEX
8
0
10
585.391847
20
623.653996
0
VERTEX
8
0
10
585.651
20
624.620
42
0.202902
0
VERTEX
8
0
10
585.381610
20
626.550493
42
0.202902
0
VERTEX
8
0
10
583.808644
20
627.700956
42
0.116077
0
VERTEX
8
0
10
545.325284
20
627.700956
42
0.202902
0
VERTEX
8
0
10
543.752318
20
626.550493
42
0.202902
0
VERTEX
8
0
10
543.483138
20
624.620382
0
VERTEX
8
0
10
543.742
20
623.654
42
-0.405145
0
VERTEX
8
0
10
542.048996
20
620.613393
42
0.115884
0
VERTEX
8
0
10
511.152106
20
602.775066
42
-0.405145
0
VERTEX
8
0
10
507.672324
20
602.829113
0
VERTEX
8
0
10
506.965
20
603.536
42
0.202902
0
VERTEX
8
0
10
505.158766
20
604.268495
42
0.202902
0
VERTEX
8
0
10
503.375953
20
603.481499
42
0.116077
0
VERTEX
8
0
10
484.134272
20
570.153931
42
0.202902
0
VERTEX
8
0
10
484.344120
20
568.216471
42
0.202902
0
VERTEX
8
0
10
485.881055
20
567.018299
0
VERTEX
8
0
10
486.848
20
566.759
42
-0.405145
0
VERTEX
8
0
10
488.634138
20
563.772801
42
0.115884
0
VERTEX
8
0
10
488.634138
20
528.096146
42
-0.405145
0
VERTEX
8
0
10
486.847441
20
525.109590
0
VERTEX
8
0
10
485.881
20
524.850
42
0.202902
0
VERTEX
8
0
10
484.344120
20
523.652475
42
0.202902
0
VERTEX
8
0
10
484.134272
20
521.715016
42
0.116077
0
VERTEX
8
0
10
503.375953
20
488.387448
42
0.202902
0
VERTEX
8
0
10
505.158766
20
487.600451
42
0.202902
0
VERTEX
8
0
10
506.964881
20
488.332390
0
VERTEX
8
0
10
507.672
20
489.040
42
-0.405145
0
VERTEX
8
0
10
511.152106
20
489.093881
42
0.115884
0
VERTEX
8
0
10
542.048996
20
471.255553
42
-0.405145
0
VERTEX
8
0
10
543.742081
20
468.214950
0
VERTEX
8
0
10
543.483
20
467.248
42
0.202902
0
VERTEX
8
0
10
543.752318
20
465.318453
42
0.202902
0
VERTEX
8
0
10
545.325284
20
464.167990
42
0.116077
0
VERTEX
8
0
10
583.808644
20
464.167990
42
0.202902
0
VERTEX
8
0
10
585.381610
20
465.318453
42
0.202902
0
VERTEX
8
0
10
585.650790
20
467.248564
0
VERTEX
8
0
10
585.392
20
468.215
42
-0.405145
0
VERTEX
8
0
10
587.084932
20
471.255553
42
0.115884
0
VERTEX
8
0
10
617.981822
20
489.093881
42
-0.405145
0
VERTEX
8
0
10
621.461603
20
489.039834
0
VERTEX
8
0
10
622.169
20
488.332
42
0.202902
0
VERTEX
8
0
10
623.975162
20
487.600451
42
0.202902
0
VERTEX
8
0
10
625.757975
20
488.387448
42
0.116077
0
VERTEX
8
0
10
644.999655
20
521.715016
42
0.202902
0
VERTEX
8
0
10
644.789808
20
523.652475
42
0.202902
0
VERTEX
8
0
10
643.252873
20
524.850647
0
VERTEX
8
0
10
642.287
20
525.109
42
-0.405145
0
VERTEX
8
0
10
640.499790
20
528.096146
42
0.115881
0
VERTEX
8
0
10
640.499857
20
563.773215
0
SEQEND
0
POLYLINE
70
1
62
7
8
0
66
1
0
VERTEX
8
0
10
161.493
20
525.875
0
VERTEX
8
0
10
240.493
20
525.875
42
-0.198912
0
VERTEX
8
0
10
244.735466
20
524.117910
42
-0.198912
0
VERTEX
8
0
10
246.492825
20
519.875269
0
VERTEX
8
0
10
246.493
20
440.875
42
-0.198913
0
VERTEX
8
0
10
244.735360
20
436.632520
42
-0.198913
0
VERTEX
8
0
10
240.492825
20
434.875269
0
VERTEX
8
0
10
161.493
20
434.875
42
-0.198913
0
VERTEX
8
0
10
157.250076
20
436.632520
42
-0.198913
0
VERTEX
8
0
10
155.492825
20
440.875269
0
VERTEX
8
0
10
155.493
20
519.875
42
-0.198912
0
VERTEX
8
0
10
157.250184
20
524.117910
42
-0.198954
0
VERTEX
8
0
10
161.492718
20
525.875011
0
SEQEND
0
POLYLINE
70
1
62
7
8
0
66
1
0
VERTEX
8
0
10
68.083
20
582.836
0
VERTEX
8
0
10
68.083
20
573.836
0
VERTEX
8
0
10
63.333
20
573.836
0
VERTEX
8
0
10
63.333
20
591.836
0
VERTEX
8
0
10
153.333
20
591.836
0
VERTEX
8
0
10
153.333
20
573.836
0
VERTEX
8
0
10
148.583
20
573.836
0
VERTEX
8
0
10
148.583
20
582.836
42
0.267949
0
VERTEX
8
0
10
146.958126
20
585.650604
42
0.267949
0
VERTEX
8
0
10
143.708126
20
585.650604
42
0.267949
0
VERTEX
8
0
10
142.083126
20
582.836021
0
VERTEX
8
0
10
142.083
20
573.836
0
VERTEX
8
0
10
74.583
20
573.836
0
VERTEX
8
0
10
74.583
20
582.836
42
0.267949
0
VERTEX
8
0
10
72.958126
20
585.650604
42
0.267949
0
VERTEX
8
0
10
69.708126
20
585.650604
42
0.267886
0
VERTEX
8
0
10
68.082853
20
582.835815
0
SEQEND
0
POLYLINE
70
1
62
7
8
0
66
1
0
VERTEX
8
0
10
80.323
20
615.090
0
VERTEX
8
0
10
80.323
20
606.090
0
VERTEX
8
0
10
73.573
20
606.090
0
VERTEX
8
0
10
73.573
20
624.090
0
VERTEX
8
0
10
153.573
20
624.090
0
VERTEX
8
0
10
153.573
20
606.090
0
VERTEX
8
0
10
146.823
20
606.090
0
VERTEX
8
0
10
146.823
20
615.090
42
0.267949
0
VERTEX
8
0
10
145.197771
20
617.904082
42
0.267949
0
VERTEX
8
0
10
141.947771
20
617.904082
42
0.267949
0
VERTEX
8
0
10
140.322771
20
615.089500
0
VERTEX
8
0
10
140.323
20
606.090
0
VERTEX
8
0
10
86.823
20
606.090
0
VERTEX
8
0
10
86.823
20
615.090
42
0.267949
0
VERTEX
8
0
10
85.197771
20
617.904082
42
0.267949
0
VERTEX
8
0
10
81.947771
20
617.904082
42
0.267968
0
VERTEX
8
0
10
80.322853
20
615.089815
0
SEQEND
0
POLYLINE
70
1
62
7
8
0
66
1
0
VERTEX
8
0
10
94.189
20
714.734
0
VERTEX
8
0
10
126.189
20
714.734
0
VERTEX
8
0
10
136.189
20
704.734
0
VERTEX
8
0
10
136.189
20
672.734
0
VERTEX
8
0
10
94.189
20
672.734
0
VERTEX
8
0
10
94.189
20
714.734
0
SEQEND
0
POLYLINE
70
1
62
7
8
0
66
1
0
VERTEX
8
0
10
360.215
20
430.822
0
VERTEX
8
0
10
360.215
20
421.822
0
VERTEX
8
0
10
355.465
20
421.822
0
VERTEX
8
0
10
355.465
20
439.822
0
VERTEX
8
0
10
445.465
20
439.822
0
VERTEX
8
0
10
445.465
20
421.822
0
VERTEX
8
0
10
440.715
20
421.822
0
VERTEX
8
0
10
440.715
20
430.822
42
0.267949
0
VERTEX
8
0
10
439.089889
20
433.636338
42
0.267949
0
VERTEX
8
0
10
435.839889
20
433.636338
42
0.267949
0
VERTEX
8
0
10
434.214889
20
430.821755
0
VERTEX
8
0
10
434.215
20
421.822
0
VERTEX
8
0
10
366.715
20
421.822
0
VERTEX
8
0
10
366.715
20
430.822
42
0.267949
0
VERTEX
8
0
10
365.089889
20
433.636338
42
0.267949
0
VERTEX
8
0
10
361.839889
20
433.636338
42
0.267941
0
VERTEX
8
0
10
360.214853
20
430.821815
0
SEQEND
0
POLYLINE
70
1
62
7
8
0
66
1
0
VERTEX
8
0
10
372.455
20
463.075
0
VERTEX
8
0
10
372.455
20
454.075
0
VERTEX
8
0
10
365.705
20
454.075
0
VERTEX
8
0
10
365.705
20
472.075
0
VERTEX
8
0
10
445.705
20
472.075
0
VERTEX
8
0
10
445.705
20
454.075
0
VERTEX
8
0
10
438.955
20
454.075
0
VERTEX
8
0
10
438.955
20
463.075
42
0.267949
0
VERTEX
8
0
10
437.329534
20
465.889817
42
0.267949
0
VERTEX
8
0
10
434.079534
20
465.889817
42
0.267949
0
VERTEX
8
0
10
432.454534
20
463.075234
0
VERTEX
8
0
10
432.455
20
454.075
0
VERTEX
8
0
10
378.955
20
454.075
0
VERTEX
8
0
10
378.955
20
463.075
42
0.267949
0
VERTEX
8
0
10
377.329534
20
465.889817
42
0.267949
0
VERTEX
8
0
10
374.079534
20
465.889817
42
0.268023
0
VERTEX
8
0
10
372.454853
20
463.074815
0
SEQEND
0
POLYLINE
70
1
62
7
8
0
66
1
0
VERTEX
8
0
10
386.321
20
562.719
0
VERTEX
8
0
10
418.321
20
562.719
0
VERTEX
8
0
10
428.321
20
552.719
0
VERTEX
8
0
10
428.321
20
520.719
0
VERTEX
8
0
10
386.321
20
520.719
0
VERTEX
8
0
10
386.321
20
562.719
0
SEQEND
0
POLYLINE
70
1
62
7
8
0
66
1
0
VERTEX
8
0
10
352.284
20
601.342
0
VERTEX
8
0
10
352.284
20
592.342
0
VERTEX
8
0
10
347.534
20
592.342
0
VERTEX
8
0
10
347.534
20
610.342
0
VERTEX
8
0
10
437.534
20
610.342
0
VERTEX
8
0
10
437.534
20
592.342
0
VERTEX
8
0
10
432.784
20
592.342
0
VERTEX
8
0
10
432.784
20
601.342
42
0.267949
0
VERTEX
8
0
10
431.158710
20
604.156688
42
0.267949
0
VERTEX
8
0
10
427.908710
20
604.156688
42
0.267949
0
VERTEX
8
0
10
426.283710
20
601.342106
0
VERTEX
8
0
10
426.284
20
592.342
0
VERTEX
8
0
10
358.784
20
592.342
0
VERTEX
8
0
10
358.784
20
601.342
42
0.267949
0
VERTEX
8
0
10
357.158710
20
604.156688
42
0.267949
0
VERTEX
8
0
10
353.908710
20
604.156688
42
0.267982
0
VERTEX
8
0
10
352.283853
20
601.341815
0
SEQEND
0
POLYLINE
70
1
62
7
8
0
66
1
0
VERTEX
8
0
10
364.524
20
633.596
0
VERTEX
8
0
10
364.524
20
624.596
0
VERTEX
8
0
10
357.774
20
624.596
0
VERTEX
8
0
10
357.774
20
642.596
0
VERTEX
8
0
10
437.774
20
642.596
0
VERTEX
8
0
10
437.774
20
624.596
0
VERTEX
8
0
10
431.024
20
624.596
0
VERTEX
8
0
10
431.024
20
633.596
42
0.267949
0
VERTEX
8
0
10
429.398355
20
636.410167
42
0.267949
0
VERTEX
8
0
10
426.148355
20
636.410167
42
0.267949
0
VERTEX
8
0
10
424.523355
20
633.595584
0
VERTEX
8
0
10
424.524
20
624.596
0
VERTEX
8
0
10
371.024
20
624.596
0
VERTEX
8
0
10
371.024
20
633.596
42
0.267949
0
VERTEX
8
0
10
369.398355
20
636.410167
42
0.267949
0
VERTEX
8
0
10
366.148355
20
636.410167
42
0.268064
0
VERTEX
8
0
10
364.523853
20
633.595815
0
SEQEND
0
POLYLINE
70
1
62
7
8
0
66
1
0
VERTEX
8
0
10
378.390
20
733.240
0
VERTEX
8
0
10
410.390
20
733.240
0
VERTEX
8
0
10
420.390
20
723.240
0
VERTEX
8
0
10
420.390
20
691.240
0
VERTEX
8
0
10
378.390
20
691.240
0
VERTEX
8
0
10
378.390
20
733.240
0
SEQEND
0
POLYLINE
70
1
62
7
8
0
66
1
0
VERTEX
8
0
10
205.557
20
638.354
0
VERTEX
8
0
10
205.557
20
629.354
0
VERTEX
8
0
10
200.807
20
629.354
0
VERTEX
8
0
10
200.807
20
647.354
0
VERTEX
8
0
10
290.807
20
647.354
0
VERTEX
8
0
10
290.807
20
629.354
0
VERTEX
8
0
10
286.057
20
629.354
0
VERTEX
8
0
10
286.057
20
638.354
42
0.267949
0
VERTEX
8
0
10
284.431897
20
641.168857
42
0.267949
0
VERTEX
8
0
10
281.181897
20
641.168857
42
0.267949
0
VERTEX
8
0
10
279.556897
20
638.354275
0
VERTEX
8
0
10
279.557
20
629.354
0
VERTEX
8
0
10
212.057
20
629.354
0
VERTEX
8
0
10
212.057
20
638.354
42
0.267949
0
VERTEX
8
0
10
210.431897
20
641.168857
42
0.267949
0
VERTEX
8
0
10
207.181897
20
641.168857
42
0.267939
0
VERTEX
8
0
10
205.556853
20
638.353815
0
SEQEND
0
POLYLINE
70
1
62
7
8
0
66
1
0
VERTEX
8
0
10
217.797
20
670.608
0
VERTEX
8
0
10
217.797
20
661.608
0
VERTEX
8
0
10
211.047
20
661.608
0
VERTEX
8
0
10
211.047
20
679.608
0
VERTEX
8
0
10
291.047
20
679.608
0
VERTEX
8
0
10
291.047
20
661.608
0
VERTEX
8
0
10
284.297
20
661.608
0
VERTEX
8
0
10
284.297
20
670.608
42
0.267949
0
VERTEX
8
0
10
282.671542
20
673.422336
42
0.267949
0
VERTEX
8
0
10
279.421542
20
673.422336
42
0.267949
0
VERTEX
8
0
10
277.796542
20
670.607753
0
VERTEX
8
0
10
277.797
20
661.608
0
VERTEX
8
0
10
224.297
20
661.608
0
VERTEX
8
0
10
224.297
20
670.608
42
0.267949
0
VERTEX
8
0
10
222.671542
20
673.422336
42
0.267949
0
VERTEX
8
0
10
219.421542
20
673.422336
42
0.268021
0
VERTEX
8
0
10
217.796853
20
670.607815
0
SEQEND
0
POLYLINE
70
1
62
7
8
0
66
1
0
VERTEX
8
0
10
231.663
20
770.252
0
VERTEX
8
0
10
263.663
20
770.252
0
VERTEX
8
0
10
273.663
20
760.252
0
VERTEX
8
0
10
273.663
20
728.252
0
VERTEX
8
0
10
231.663
20
728.252
0
VERTEX
8
0
10
231.663
20
770.252
0
SEQEND
0
POLYLINE
70
1
62
7
8
0
66
1
0
VERTEX
8
0
10
679.830
20
35.806
0
VERTEX
8
0
10
679.830
20
26.806
0
VERTEX
8
0
10
675.080
20
26.806
0
VERTEX
8
0
10
675.080
20
44.806
0
VERTEX
8
0
10
765.080
20
44.806
0
VERTEX
8
0
10
765.080
20
26.806
0
VERTEX
8
0
10
760.330
20
26.806
0
VERTEX
8
0
10
760.330
20
35.806
42
0.267949
0
VERTEX
8
0
10
758.705282
20
38.620368
42
0.267949
0
VERTEX
8
0
10
755.455282
20
38.620368
42
0.267949
0
VERTEX
8
0
10
753.830282
20
35.805785
0
VERTEX
8
0
10
753.830
20
26.806
0
VERTEX
8
0
10
686.330
20
26.806
0
VERTEX
8
0
10
686.330
20
35.806
42
0.267949
0
VERTEX
8
0
10
684.705282
20
38.620368
42
0.267949
0
VERTEX
8
0
10
681.455282
20
38.620368
42
0.267949
0
VERTEX
8
0
10
679.830282
20
35.805785
0
SEQEND
0
POLYLINE
70
1
62
7
8
0
66
1
0
VERTEX
8
0
10
692.070
20
68.059
0
VERTEX
8
0
10
692.070
20
59.059
0
VERTEX
8
0
10
685.320
20
59.059
0
VERTEX
8
0
10
685.320
20
77.059
0
VERTEX
8
0
10
765.320
20
77.059
0
VERTEX
8
0
10
765.320
20
59.059
0
VERTEX
8
0
10
758.570
20
59.059
0
VERTEX
8
0
10
758.570
20
68.059
42
0.267949
0
VERTEX
8
0
10
756.944927
20
70.873846
42
0.267949
0
VERTEX
8
0
10
753.694927
20
70.873846
42
0.267949
0
VERTEX
8
0
10
752.069927
20
68.059264
0
VERTEX
8
0
10
752.070
20
59.059
0
VERTEX
8
0
10
698.570
20
59.059
0
VERTEX
8
0
10
698.570
20
68.059
42
0.267949
0
VERTEX
8
0
10
696.944927
20
70.873846
42
0.267949
0
VERTEX
8
0
10
693.694927
20
70.873846
42
0.268031
0
VERTEX
8
0
10
692.070282
20
68.058785
0
SEQEND
0
POLYLINE
70
1
62
7
8
0
66
1
0
VERTEX
8
0
10
705.936
20
167.703
0
VERTEX
8
0
10
737.936
20
167.703
0
VERTEX
8
0
10
747.936
20
157.703
0
VERTEX
8
0
10
747.936
20
125.703
0
VERTEX
8
0
10
705.936
20
125.703
0
VERTEX
8
0
10
705.936
20
167.703
0
SEQEND
0
POLYLINE
70
1
62
7
8
0
66
1
0
VERTEX
8
0
10
962.065
20
118.157
42
0.198913
0
VERTEX
8
0
10
952.722218
20
140.713524
42
0.198913
0
VERTEX
8
0
10
930.165505
20
150.056962
42
0.198913
0
VERTEX
8
0
10
907.608792
20
140.713675
42
0.198913
0
VERTEX
8
0
10
898.265505
20
118.156962
42
0.198913
0
VERTEX
8
0
10
907.608792
20
95.600249
42
0.198913
0
VERTEX
8
0
10
930.165505
20
86.256962
42
0.198913
0
VERTEX
8
0
10
952.722218
20
95.600249
42
0.198916
0
VERTEX
8
0
10
962.065398
20
118.156704
0
SEQEND
0
POLYLINE
70
1
62
7
8
0
66
1
0
VERTEX
8
0
10
1267.285
20
184.795
42
-0.405145
0
VERTEX
8
0
10
1269.071916
20
187.781327
0
VERTEX
8
0
10
1270.038
20
188.040
42
0.202902
0
VERTEX
8
0
10
1271.575237
20
189.238441
42
0.202902
0
VERTEX
8
0
10
1271.785084
20
191.175901
42
0.116077
0
VERTEX
8
0
10
1252.543404
20
224.503469
42
0.202902
0
VERTEX
8
0
10
1250.760591
20
225.290465
42
0.202902
0
VERTEX
8
0
10
1248.954476
20
224.558527
0
VERTEX
8
0
10
1248.247
20
223.851
42
-0.405145
0
VERTEX
8
0
10
1244.767251
20
223.797036
42
0.115884
0
VERTEX
8
0
10
1213.870361
20
241.635363
42
-0.405145
0
VERTEX
8
0
10
1212.177276
20
244.675966
0
VERTEX
8
0
10
1212.436
20
245.642
42
0.202902
0
VERTEX
8
0
10
1212.167039
20
247.572463
42
0.202902
0
VERTEX
8
0
10
1210.594073
20
248.722926
42
0.116077
0
VERTEX
8
0
10
1172.110713
20
248.722926
42
0.202902
0
VERTEX
8
0
10
1170.537747
20
247.572463
42
0.202902
0
VERTEX
8
0
10
1170.268567
20
245.642352
0
VERTEX
8
0
10
1170.527
20
244.676
42
-0.405145
0
VERTEX
8
0
10
1168.834425
20
241.635363
42
0.115884
0
VERTEX
8
0
10
1137.937535
20
223.797036
42
-0.405145
0
VERTEX
8
0
10
1134.457753
20
223.851083
0
VERTEX
8
0
10
1133.750
20
224.558
42
0.202902
0
VERTEX
8
0
10
1131.944195
20
225.290465
42
0.202902
0
VERTEX
8
0
10
1130.161382
20
224.503469
42
0.116077
0
VERTEX
8
0
10
1110.919701
20
191.175901
42
0.202902
0
VERTEX
8
0
10
1111.129549
20
189.238441
42
0.202902
0
VERTEX
8
0
10
1112.666484
20
188.040269
0
VERTEX
8
0
10
1113.633
20
187.781
42
-0.405145
0
VERTEX
8
0
10
1115.419567
20
184.794771
42
0.115884
0
VERTEX
8
0
10
1115.419567
20
149.118116
42
-0.405145
0
VERTEX
8
0
10
1113.632870
20
146.131560
0
VERTEX
8
0
10
1112.666
20
145.872
42
0.202902
0
VERTEX
8
0
10
1111.129549
20
144.674445
42
0.202902
0
VERTEX
8
0
10
1110.919701
20
142.736986
42
0.116077
0
VERTEX
8
0
10
1130.161382
20
109.409418
42
0.202902
0
VERTEX
8
0
10
1131.944195
20
108.622421
42
0.202902
0
VERTEX
8
0
10
1133.750310
20
109.354360
0
VERTEX
8
0
10
1134.457
20
110.062
42
-0.405145
0
VERTEX
8
0
10
1137.937535
20
110.115851
42
0.115884
0
VERTEX
8
0
10
1168.834425
20
92.277523
42
-0.405145
0
VERTEX
8
0
10
1170.527510
20
89.236920
0
VERTEX
8
0
10
1170.268
20
88.270
42
0.202902
0
VERTEX
8
0
10
1170.537747
20
86.340423
42
0.202902
0
VERTEX
8
0
10
1172.110713
20
85.189960
42
0.116077
0
VERTEX
8
0
10
1210.594073
20
85.189960
42
0.202902
0
VERTEX
8
0
10
1212.167039
20
86.340423
42
0.202902
0
VERTEX
8
0
10
1212.436219
20
88.270534
0
VERTEX
8
0
10
1212.177
20
89.237
42
-0.405145
0
VERTEX
8
0
10
1213.870361
20
92.277523
42
0.115884
0
VERTEX
8
0
10
1244.767251
20
110.115851
42
-0.405145
0
VERTEX
8
0
10
1248.247032
20
110.061804
0
VERTEX
8
0
10
1248.954
20
109.354
42
0.202902
0
VERTEX
8
0
10
1250.760591
20
108.622421
42
0.202902
0
VERTEX
8
0
10
1252.543404
20
109.409418
42
0.116077
0
VERTEX
8
0
10
1271.785084
20
142.736986
42
0.202902
0
VERTEX
8
0
10
1271.575237
20
144.674445
42
0.202902
0
VERTEX
8
0
10
1270.038302
20
145.872617
0
VERTEX
8
0
10
1269.072
20
146.131
42
-0.405145
0
VERTEX
8
0
10
1267.285219
20
149.118116
42
0.115881
0
VERTEX
8
0
10
1267.285286
20
184.795185
0
SEQEND
0
POLYLINE
70
1
62
7
8
0
66
1
0
VERTEX
8
0
10
788.278
20
146.897
0
VERTEX
8
0
10
867.278
20
146.897
42
-0.198912
0
VERTEX
8
0
10
871.520895
20
145.139879
42
-0.198912
0
VERTEX
8
0
10
873.278254
20
140.897238
0
VERTEX
8
0
10
873.278
20
61.897
42
-0.198913
0
VERTEX
8
0
10
871.520790
20
57.654490
42
-0.198913
0
VERTEX
8
0
10
867.278254
20
55.897238
0
VERTEX
8
0
10
788.278
20
55.897
42
-0.198913
0
VERTEX
8
0
10
784.035506
20
57.654490
42
-0.198913
0
VERTEX
8
0
10
782.278254
20
61.897238
0
VERTEX
8
0
10
782.278
20
140.897
42
-0.198912
0
VERTEX
8
0
10
784.035613
20
145.139879
42
-0.198954
0
VERTEX
8
0
10
788.278147
20
146.896980
0
SEQEND
0
POLYLINE
70
1
62
7
8
0
66
1
0
VERTEX
8
0
10
694.868
20
203.858
0
VERTEX
8
0
10
694.868
20
194.858
0
VERTEX
8
0
10
690.118
20
194.858
0
VERTEX
8
0
10
690.118
20
212.858
0
VERTEX
8
0
10
780.118
20
212.858
0
VERTEX
8
0
10
780.118
20
194.858
0
VERTEX
8
0
10
775.368
20
194.858
0
VERTEX
8
0
10
775.368
20
203.858
42
0.267949
0
VERTEX
8
0
10
773.743555
20
206.672574
42
0.267949
0
VERTEX
8
0
10
770.493555
20
206.672574
42
0.267949
0
VERTEX
8
0
10
768.868555
20
203.857991
0
VERTEX
8
0
10
768.868
20
194.858
0
VERTEX
8
0
10
701.368
20
194.858
0
VERTEX
8
0
10
701.368
20
203.858
42
0.267949
0
VERTEX
8
0
10
699.743555
20
206.672574
42
0.267949
0
VERTEX
8
0
10
696.493555
20
206.672574
42
0.267886
0
VERTEX
8
0
10
694.868282
20
203.857785
0
SEQEND
0
POLYLINE
70
1
62
7
8
0
66
1
0
VERTEX
8
0
10
707.108
20
236.112
0
VERTEX
8
0
10
707.108
20
227.112
0
VERTEX
8
0
10
700.358
20
227.112
0
VERTEX
8
0
10
700.358
20
245.112
0
VERTEX
8
0
10
780.358
20
245.112
0
VERTEX
8
0
10
780.358
20
227.112
0
VERTEX
8
0
10
773.608
20
227.112
0
VERTEX
8
0
10
773.608
20
236.112
42
0.267949
0
VERTEX
8
0
10
771.983200
20
238.926052
42
0.267949
0
VERTEX
8
0
10
768.733200
20
238.926052
42
0.267949
0
VERTEX
8
0
10
767.108200
20
236.111470
0
VERTEX
8
0
10
767.108
20
227.112
0
VERTEX
8
0
10
713.608
20
227.112
0
VERTEX
8
0
10
713.608
20
236.112
42
0.267949
0
VERTEX
8
0
10
711.983200
20
238.926052
42
0.267949
0
VERTEX
8
0
10
708.733200
20
238.926052
42
0.267968
0
VERTEX
8
0
10
707.108282
20
236.111785
0
SEQEND
0
POLYLINE
70
1
62
7
8
0
66
1
0
VERTEX
8
0
10
720.974
20
335.756
0
VERTEX
8
0
10
752.974
20
335.756
0
VERTEX
8
0
10
762.974
20
325.756
0
VERTEX
8
0
10
762.974
20
293.756
0
VERTEX
8
0
10
720.974
20
293.756
0
VERTEX
8
0
10
720.974
20
335.756
0
SEQEND
0
POLYLINE
70
1
62
7
8
0
66
1
0
VERTEX
8
0
10
987.000
20
51.844
0
VERTEX
8
0
10
987.000
20
42.844
0
VERTEX
8
0
10
982.250
20
42.844
0
VERTEX
8
0
10
982.250
20
60.844
0
VERTEX
8
0
10
1072.250
20
60.844
0
VERTEX
8
0
10
1072.250
20
42.844
0
VERTEX
8
0
10
1067.500
20
42.844
0
VERTEX
8
0
10
1067.500
20
51.844
42
0.267949
0
VERTEX
8
0
10
1065.875318
20
54.658308
42
0.267949
0
VERTEX
8
0
10
1062.625318
20
54.658308
42
0.267949
0
VERTEX
8
0
10
1061.000318
20
51.843725
0
VERTEX
8
0
10
1061.000
20
42.844
0
VERTEX
8
0
10
993.500
20
42.844
0
VERTEX
8
0
10
993.500
20
51.844
42
0.267949
0
VERTEX
8
0
10
991.875318
20
54.658308
42
0.267949
0
VERTEX
8
0
10
988.625318
20
54.658308
42
0.267941
0
VERTEX
8
0
10
987.000282
20
51.843785
0
SEQEND
0
POLYLINE
70
1
62
7
8
0
66
1
0
VERTEX
8
0
10
999.240
20
84.097
0
VERTEX
8
0
10
999.240
20
75.097
0
VERTEX
8
0
10
992.490
20
75.097
0
VERTEX
8
0
10
992.490
20
93.097
0
VERTEX
8
0
10
1072.490
20
93.097
0
VERTEX
8
0
10
1072.490
20
75.097
0
VERTEX
8
0
10
1065.740
20
75.097
0
VERTEX
8
0
10
1065.740
20
84.097
42
0.267949
0
VERTEX
8
0
10
1064.114963
20
86.911787
42
0.267949
0
VERTEX
8
0
10
1060.864963
20
86.911787
42
0.267949
0
VERTEX
8
0
10
1059.239963
20
84.097204
0
VERTEX
8
0
10
1059.240
20
75.097
0
VERTEX
8
0
10
1005.740
20
75.097
0
VERTEX
8
0
10
1005.740
20
84.097
42
0.267949
0
VERTEX
8
0
10
1004.114963
20
86.911787
42
0.267949
0
VERTEX
8
0
10
1000.864963
20
86.911787
42
0.268023
0
VERTEX
8
0
10
999.240282
20
84.096785
0
SEQEND
0
POLYLINE
70
1
62
7
8
0
66
1
0
VERTEX
8
0
10
1013.106
20
183.741
0
VERTEX
8
0
10
1045.106
20
183.741
0
VERTEX
8
0
10
1055.106
20
173.741
0
VERTEX
8
0
10
1055.106
20
141.741
0
VERTEX
8
0
10
1013.106
20
141.741
0
VERTEX
8
0
10
1013.106
20
183.741
0
SEQEND
0
POLYLINE
70
1
62
7
8
0
66
1
0
VERTEX
8
0
10
979.069
20
222.364
0
VERTEX
8
0
10
979.069
20
213.364
0
VERTEX
8
0
10
974.319
20
213.364
0
VERTEX
8
0
10
974.319
20
231.364
0
VERTEX
8
0
10
1064.319
20
231.364
0
VERTEX
8
0
10
1064.319
20
213.364
0
VERTEX
8
0
10
1059.569
20
213.364
0
VERTEX
8
0
10
1059.569
20
222.364
42
0.267949
0
VERTEX
8
0
10
1057.944139
20
225.178658
42
0.267949
0
VERTEX
8
0
10
1054.694139
20
225.178658
42
0.267949
0
VERTEX
8
0
10
1053.069139
20
222.364076
0
VERTEX
8
0
10
1053.069
20
213.364
0
VERTEX
8
0
10
985.569
20
213.364
0
VERTEX
8
0
10
985.569
20
222.364
42
0.267949
0
VERTEX
8
0
10
983.944139
20
225.178658
42
0.267949
0
VERTEX
8
0
10
980.694139
20
225.178658
42
0.267982
0
VERTEX
8
0
10
979.069282
20
222.363785
0
SEQEND
0
POLYLINE
70
1
62
7
8
0
66
1
0
VERTEX
8
0
10
991.309
20
254.618
0
VERTEX
8
0
10
991.309
20
245.618
0
VERTEX
8
0
10
984.559
20
245.618
0
VERTEX
8
0
10
984.559
20
263.618
0
VERTEX
8
0
10
1064.559
20
263.618
0
VERTEX
8
0
10
1064.559
20
245.618
0
VERTEX
8
0
10
1057.809
20
245.618
0
VERTEX
8
0
10
1057.809
20
254.618
42
0.267949
0
VERTEX
8
0
10
1056.183784
20
257.432137
42
0.267949
0
VERTEX
8
0
10
1052.933784
20
257.432137
42
0.267949
0
VERTEX
8
0
10
1051.308784
20
254.617554
0
VERTEX
8
0
10
1051.309
20
245.618
0
VERTEX
8
0
10
997.809
20
245.618
0
VERTEX
8
0
10
997.809
20
254.618
42
0.267949
0
VERTEX
8
0
10
996.183784
20
257.432137
42
0.267949
0
VERTEX
8
0
10
992.933784
20
257.432137
42
0.268064
0
VERTEX
8
0
10
991.309282
20
254.617785
0
SEQEND
0
POLYLINE
70
1
62
7
8
0
66
1
0
VERTEX
8
0
10
1005.175
20
354.262
0
VERTEX
8
0
10
1037.175
20
354.262
0
VERTEX
8
0
10
1047.175
20
344.262
0
VERTEX
8
0
10
1047.175
20
312.262
0
VERTEX
8
0
10
1005.175
20
312.262
0
VERTEX
8
0
10
1005.175
20
354.262
0
SEQEND
0
POLYLINE
70
1
62
7
8
0
66
1
0
VERTEX
8
0
10
832.342
20
259.376
0
VERTEX
8
0
10
832.342
20
250.376
0
VERTEX
8
0
10
827.592
20
250.376
0
VERTEX
8
0
10
827.592
20
268.376
0
VERTEX
8
0
10
917.592
20
268.376
0
VERTEX
8
0
10
917.592
20
250.376
0
VERTEX
8
0
10
912.842
20
250.376
0
VERTEX
8
0
10
912.842
20
259.376
42
0.267949
0
VERTEX
8
0
10
911.217326
20
262.190827
42
0.267949
0
VERTEX
8
0
10
907.967326
20
262.190827
42
0.267949
0
VERTEX
8
0
10
906.342326
20
259.376245
0
VERTEX
8
0
10
906.342
20
250.376
0
VERTEX
8
0
10
838.842
20
250.376
0
VERTEX
8
0
10
838.842
20
259.376
42
0.267949
0
VERTEX
8
0
10
837.217326
20
262.190827
42
0.267949
0
VERTEX
8
0
10
833.967326
20
262.190827
42
0.267939
0
VERTEX
8
0
10
832.342282
20
259.375785
0
SEQEND
0
POLYLINE
70
1
62
7
8
0
66
1
0
VERTEX
8
0
10
844.582
20
291.630
0
VERTEX
8
0
10
844.582
20
282.630
0
VERTEX
8
0
10
837.832
20
282.630
0
VERTEX
8
0
10
837.832
20
300.630
0
VERTEX
8
0
10
917.832
20
300.630
0
VERTEX
8
0
10
917.832
20
282.630
0
VERTEX
8
0
10
911.082
20
282.630
0
VERTEX
8
0
10
911.082
20
291.630
42
0.267949
0
VERTEX
8
0
10
909.456971
20
294.444306
42
0.267949
0
VERTEX
8
0
10
906.206971
20
294.444306
42
0.267949
0
VERTEX
8
0
10
904.581971
20
291.629723
0
VERTEX
8
0
10
904.582
20
282.630
0
VERTEX
8
0
10
851.082
20
282.630
0
VERTEX
8
0
10
851.082
20
291.630
42
0.267949
0
VERTEX
8
0
10
849.456971
20
294.444306
42
0.267949
0
VERTEX
8
0
10
846.206971
20
294.444306
42
0.268021
0
VERTEX
8
0
10
844.582282
20
291.629785
0
SEQEND
0
POLYLINE
70
1
62
7
8
0
66
1
0
VERTEX
8
0
10
858.448
20
391.274
0
VERTEX
8
0
10
890.448
20
391.274
0
VERTEX
8
0
10
900.448
20
381.274
0
VERTEX
8
0
10
900.448
20
349.274
0
VERTEX
8
0
10
858.448
20
349.274
0
VERTEX
8
0
10
858.448
20
391.274
0
SEQEND
0
POLYLINE
70
1
62
7
8
0
66
1
0
VERTEX
8
0
10
710.076
20
473.593
0
VERTEX
8
0
10
710.076
20
464.593
0
VERTEX
8
0
10
705.326
20
464.593
0
VERTEX
8
0
10
705.326
20
482.593
0
VERTEX
8
0
10
795.326
20
482.593
0
VERTEX
8
0
10
795.326
20
464.593
0
VERTEX
8
0
10
790.576
20
464.593
0
VERTEX
8
0
10
790.576
20
473.593
42
0.267949
0
VERTEX
8
0
10
788.950594
20
476.407635
42
0.267949
0
VERTEX
8
0
10
785.700594
20
476.407635
42
0.267949
0
VERTEX
8
0
10
784.075594
20
473.593052
0
VERTEX
8
0
10
784.076
20
464.593
0
VERTEX
8
0
10
716.576
20
464.593
0
VERTEX
8
0
10
716.576
20
473.593
42
0.267949
0
VERTEX
8
0
10
714.950594
20
476.407635
42
0.267949
0
VERTEX
8
0
10
711.700594
20
476.407635
42
0.267949
0
VERTEX
8
0
10
710.075594
20
473.593052
0
SEQEND
0
POLYLINE
70
1
62
7
8
0
66
1
0
VERTEX
8
0
10
722.316
20
505.846
0
VERTEX
8
0
10
722.316
20
496.846
0
VERTEX
8
0
10
715.566
20
496.846
0
VERTEX
8
0
10
715.566
20
514.846
0
VERTEX
8
0
10
795.566
20
514.846
0
VERTEX
8
0
10
795.566
20
496.846
0
VERTEX
8
0
10
788.816
20
496.846
0
VERTEX
8
0
10
788.816
20
505.846
42
0.267949
0
VERTEX
8
0
10
787.190239
20
508.661113
42
0.267949
0
VERTEX
8
0
10
783.940239
20
508.661113
42
0.267949
0
VERTEX
8
0
10
782.315239
20
505.846531
0
VERTEX
8
0
10
782.316
20
496.846
0
VERTEX
8
0
10
728.816
20
496.846
0
VERTEX
8
0
10
728.816
20
505.846
42
0.267949
0
VERTEX
8
0
10
727.190239
20
508.661113
42
0.267949
0
VERTEX
8
0
10
723.940239
20
508.661113
42
0.268031
0
VERTEX
8
0
10
722.315594
20
505.846052
0
SEQEND
0
POLYLINE
70
1
62
7
8
0
66
1
0
VERTEX
8
0
10
736.182
20
605.490
0
VERTEX
8
0
10
768.182
20
605.490
0
VERTEX
8
0
10
778.182
20
595.490
0
VERTEX
8
0
10
778.182
20
563.490
0
VERTEX
8
0
10
736.182
20
563.490
0
VERTEX
8
0
10
736.182
20
605.490
0
SEQEND
0
POLYLINE
70
1
62
7
8
0
66
1
0
VERTEX
8
0
10
992.311
20
555.944
42
0.198913
0
VERTEX
8
0
10
982.967530
20
578.500791
42
0.198913
0
VERTEX
8
0
10
960.410817
20
587.844229
42
0.198913
0
VERTEX
8
0
10
937.854104
20
578.500943
42
0.198913
0
VERTEX
8
0
10
928.510817
20
555.944229
42
0.198913
0
VERTEX
8
0
10
937.854104
20
533.387516
42
0.198913
0
VERTEX
8
0
10
960.410817
20
524.044229
42
0.198913
0
VERTEX
8
0
10
982.967531
20
533.387516
42
0.198916
0
VERTEX
8
0
10
992.310710
20
555.943971
0
SEQEND
0
POLYLINE
70
1
62
7
8
0
66
1
0
VERTEX
8
0
10
1297.531
20
622.582
42
-0.405145
0
VERTEX
8
0
10
1299.317229
20
625.568594
0
VERTEX
8
0
10
1300.284
20
625.827
42
0.202902
0
VERTEX
8
0
10
1301.820550
20
627.025708
42
0.202902
0
VERTEX
8
0
10
1302.030397
20
628.963168
42
0.116077
0
VERTEX
8
0
10
1282.788717
20
662.290736
42
0.202902
0
VERTEX
8
0
10
1281.005904
20
663.077732
42
0.202902
0
VERTEX
8
0
10
1279.199789
20
662.345794
0
VERTEX
8
0
10
1278.493
20
661.638
42
-0.405145
0
VERTEX
8
0
10
1275.012564
20
661.584303
42
0.115884
0
VERTEX
8
0
10
1244.115674
20
679.422630
42
-0.405145
0
VERTEX
8
0
10
1242.422589
20
682.463233
0
VERTEX
8
0
10
1242.682
20
683.429
42
0.202902
0
VERTEX
8
0
10
1242.412352
20
685.359730
42
0.202902
0
VERTEX
8
0
10
1240.839386
20
686.510193
42
0.116077
0
VERTEX
8
0
10
1202.356026
20
686.510193
42
0.202902
0
VERTEX
8
0
10
1200.783060
20
685.359730
42
0.202902
0
VERTEX
8
0
10
1200.513880
20
683.429619
0
VERTEX
8
0
10
1200.773
20
682.463
42
-0.405145
0
VERTEX
8
0
10
1199.079738
20
679.422630
42
0.115884
0
VERTEX
8
0
10
1168.182848
20
661.584303
42
-0.405145
0
VERTEX
8
0
10
1164.703066
20
661.638350
0
VERTEX
8
0
10
1163.996
20
662.345
42
0.202902
0
VERTEX
8
0
10
1162.189508
20
663.077732
42
0.202902
0
VERTEX
8
0
10
1160.406695
20
662.290736
42
0.116077
0
VERTEX
8
0
10
1141.165014
20
628.963168
42
0.202902
0
VERTEX
8
0
10
1141.374862
20
627.025708
42
0.202902
0
VERTEX
8
0
10
1142.911797
20
625.827536
0
VERTEX
8
0
10
1143.879
20
625.568
42
-0.405145
0
VERTEX
8
0
10
1145.664880
20
622.582038
42
0.115884
0
VERTEX
8
0
10
1145.664880
20
586.905383
42
-0.405145
0
VERTEX
8
0
10
1143.878183
20
583.918827
0
VERTEX
8
0
10
1142.912
20
583.659
42
0.202902
0
VERTEX
8
0
10
1141.374862
20
582.461712
42
0.202902
0
VERTEX
8
0
10
1141.165014
20
580.524253
42
0.116077
0
VERTEX
8
0
10
1160.406695
20
547.196685
42
0.202902
0
VERTEX
8
0
10
1162.189508
20
546.409688
42
0.202902
0
VERTEX
8
0
10
1163.995623
20
547.141627
0
VERTEX
8
0
10
1164.703
20
547.849
42
-0.405145
0
VERTEX
8
0
10
1168.182848
20
547.903118
42
0.115884
0
VERTEX
8
0
10
1199.079738
20
530.064790
42
-0.405145
0
VERTEX
8
0
10
1200.772823
20
527.024187
0
VERTEX
8
0
10
1200.514
20
526.057
42
0.202902
0
VERTEX
8
0
10
1200.783060
20
524.127690
42
0.202902
0
VERTEX
8
0
10
1202.356026
20
522.977227
42
0.116077
0
VERTEX
8
0
10
1240.839386
20
522.977227
42
0.202902
0
VERTEX
8
0
10
1242.412352
20
524.127690
42
0.202902
0
VERTEX
8
0
10
1242.681532
20
526.057801
0
VERTEX
8
0
10
1242.423
20
527.024
42
-0.405145
0
VERTEX
8
0
10
1244.115674
20
530.064790
42
0.115884
0
VERTEX
8
0
10
1275.012564
20
547.903118
42
-0.405145
0
VERTEX
8
0
10
1278.492345
20
547.849071
0
VERTEX
8
0
10
1279.200
20
547.141
42
0.202902
0
VERTEX
8
0
10
1281.005904
20
546.409688
42
0.202902
0
VERTEX
8
0
10
1282.788717
20
547.196685
42
0.116077
0
VERTEX
8
0
10
1302.030397
20
580.524253
42
0.202902
0
VERTEX
8
0
10
1301.820550
20
582.461712
42
0.202902
0
VERTEX
8
0
10
1300.283615
20
583.659884
0
VERTEX
8
0
10
1299.318
20
583.918
42
-0.405145
0
VERTEX
8
0
10
1297.530532
20
586.905383
42
0.115881
0
VERTEX
8
0
10
1297.530599
20
622.582452
0
SEQEND
0
POLYLINE
70
1
62
7
8
0
66
1
0
VERTEX
8
0
10
818.523
20
584.684
0
VERTEX
8
0
10
897.523
20
584.684
42
-0.198912
0
VERTEX
8
0
10
901.766208
20
582.927147
42
-0.198912
0
VERTEX
8
0
10
903.523567
20
578.684506
0
VERTEX
8
0
10
903.523
20
499.684
42
-0.198913
0
VERTEX
8
0
10
901.766102
20
495.441757
42
-0.198913
0
VERTEX
8
0
10
897.523567
20
493.684506
0
VERTEX
8
0
10
818.523
20
493.684
42
-0.198913
0
VERTEX
8
0
10
814.280818
20
495.441757
42
-0.198913
0
VERTEX
8
0
10
812.523567
20
499.684506
0
VERTEX
8
0
10
812.523
20
578.684
42
-0.198912
0
VERTEX
8
0
10
814.280926
20
582.927147
42
-0.198954
0
VERTEX
8
0
10
818.523460
20
584.684248
0
SEQEND
0
POLYLINE
70
1
62
7
8
0
66
1
0
VERTEX
8
0
10
725.114
20
641.645
0
VERTEX
8
0
10
725.114
20
632.645
0
VERTEX
8
0
10
720.364
20
632.645
0
VERTEX
8
0
10
720.364
20
650.645
0
VERTEX
8
0
10
810.364
20
650.645
0
VERTEX
8
0
10
810.364
20
632.645
0
VERTEX
8
0
10
805.614
20
632.645
0
VERTEX
8
0
10
805.614
20
641.645
42
0.267949
0
VERTEX
8
0
10
803.988867
20
644.459841
42
0.267949
0
VERTEX
8
0
10
800.738867
20
644.459841
42
0.267949
0
VERTEX
8
0
10
799.113867
20
641.645258
0
VERTEX
8
0
10
799.114
20
632.645
0
VERTEX
8
0
10
731.614
20
632.645
0
VERTEX
8
0
10
731.614
20
641.645
42
0.267949
0
VERTEX
8
0
10
729.988867
20
644.459841
42
0.267949
0
VERTEX
8
0
10
726.738867
20
644.459841
42
0.267886
0
VERTEX
8
0
10
725.113594
20
641.645052
0
SEQEND
0
POLYLINE
70
1
62
7
8
0
66
1
0
VERTEX
8
0
10
737.354
20
673.899
0
VERTEX
8
0
10
737.354
20
664.899
0
VERTEX
8
0
10
730.604
20
664.899
0
VERTEX
8
0
10
730.604
20
682.899
0
VERTEX
8
0
10
810.604
20
682.899
0
VERTEX
8
0
10
810.604
20
664.899
0
VERTEX
8
0
10
803.854
20
664.899
0
VERTEX
8
0
10
803.854
20
673.899
42
0.267949
0
VERTEX
8
0
10
802.228512
20
676.713319
42
0.267949
0
VERTEX
8
0
10
798.978512
20
676.713319
42
0.267949
0
VERTEX
8
0
10
797.353512
20
673.898737
0
VERTEX
8
0
10
797.354
20
664.899
0
VERTEX
8
0
10
743.854
20
664.899
0
VERTEX
8
0
10
743.854
20
673.899
42
0.267949
0
VERTEX
8
0
10
742.228512
20
676.713319
42
0.267949
0
VERTEX
8
0
10
738.978512
20
676.713319
42
0.267968
0
VERTEX
8
0
10
737.353594
20
673.899052
0
SEQEND
0
POLYLINE
70
1
62
7
8
0
66
1
0
VERTEX
8
0
10
751.220
20
773.543
0
VERTEX
8
0
10
783.220
20
773.543
0
VERTEX
8
0
10
793.220
20
763.543
0
VERTEX
8
0
10
793.220
20
731.543
0
VERTEX
8
0
10
751.220
20
731.543
0
VERTEX
8
0
10
751.220
20
773.543
0
SEQEND
0
POLYLINE
70
1
62
7
8
0
66
1
0
VERTEX
8
0
10
1017.246
20
489.631
0
VERTEX
8
0
10
1017.246
20
480.631
0
VERTEX
8
0
10
1012.496
20
480.631
0
VERTEX
8
0
10
1012.496
20
498.631
0
VERTEX
8
0
10
1102.496
20
498.631
0
VERTEX
8
0
10
1102.496
20
480.631
0
VERTEX
8
0
10
1097.746
20
480.631
0
VERTEX
8
0
10
1097.746
20
489.631
42
0.267949
0
VERTEX
8
0
10
1096.120630
20
492.445575
42
0.267949
0
VERTEX
8
0
10
1092.870630
20
492.445575
42
0.267949
0
VERTEX
8
0
10
1091.245630
20
489.630992
0
VERTEX
8
0
10
1091.246
20
480.631
0
VERTEX
8
0
10
1023.746
20
480.631
0
VERTEX
8
0
10
1023.746
20
489.631
42
0.267949
0
VERTEX
8
0
10
1022.120630
20
492.445575
42
0.267949
0
VERTEX
8
0
10
1018.870630
20
492.445575
42
0.267941
0
VERTEX
8
0
10
1017.245594
20
489.631052
0
SEQEND
0
POLYLINE
70
1
62
7
8
0
66
1
0
VERTEX
8
0
10
1029.486
20
521.884
0
VERTEX
8
0
10
1029.486
20
512.884
0
VERTEX
8
0
10
1022.736
20
512.884
0
VERTEX
8
0
10
1022.736
20
530.884
0
VERTEX
8
0
10
1102.736
20
530.884
0
VERTEX
8
0
10
1102.736
20
512.884
0
VERTEX
8
0
10
1095.986
20
512.884
0
VERTEX
8
0
10
1095.986
20
521.884
42
0.267949
0
VERTEX
8
0
10
1094.360275
20
524.699054
42
0.267949
0
VERTEX
8
0
10
1091.110275
20
524.699054
42
0.267949
0
VERTEX
8
0
10
1089.485275
20
521.884471
0
VERTEX
8
0
10
1089.486
20
512.884
0
VERTEX
8
0
10
1035.986
20
512.884
0
VERTEX
8
0
10
1035.986
20
521.884
42
0.267949
0
VERTEX
8
0
10
1034.360275
20
524.699054
42
0.267949
0
VERTEX
8
0
10
1031.110275
20
524.699054
42
0.268023
0
VERTEX
8
0
10
1029.485594
20
521.884052
0
SEQEND
0
POLYLINE
70
1
62
7
8
0
66
1
0
VERTEX
8
0
10
1043.352
20
621.528
0
VERTEX
8
0
10
1075.352
20
621.528
0
VERTEX
8
0
10
1085.352
20
611.528
0
VERTEX
8
0
10
1085.352
20
579.528
0
VERTEX
8
0
10
1043.352
20
579.528
0
VERTEX
8
0
10
1043.352
20
621.528
0
SEQEND
0
POLYLINE
70
1
62
7
8
0
66
1
0
VERTEX
8
0
10
1009.315
20
660.151
0
VERTEX
8
0
10
1009.315
20
651.151
0
VERTEX
8
0
10
1004.565
20
651.151
0
VERTEX
8
0
10
1004.565
20
669.151
0
VERTEX
8
0
10
1094.565
20
669.151
0
VERTEX
8
0
10
1094.565
20
651.151
0
VERTEX
8
0
10
1089.815
20
651.151
0
VERTEX
8
0
10
1089.815
20
660.151
42
0.267949
0
VERTEX
8
0
10
1088.189451
20
662.965925
42
0.267949
0
VERTEX
8
0
10
1084.939451
20
662.965925
42
0.267949
0
VERTEX
8
0
10
1083.314451
20
660.151343
0
VERTEX
8
0
10
1083.315
20
651.151
0
VERTEX
8
0
10
1015.815
20
651.151
0
VERTEX
8
0
10
1015.815
20
660.151
42
0.267949
0
VERTEX
8
0
10
1014.189451
20
662.965925
42
0.267949
0
VERTEX
8
0
10
1010.939451
20
662.965925
42
0.267982
0
VERTEX
8
0
10
1009.314594
20
660.151052
0
SEQEND
0
POLYLINE
70
1
62
7
8
0
66
1
0
VERTEX
8
0
10
1021.555
20
692.405
0
VERTEX
8
0
10
1021.555
20
683.405
0
VERTEX
8
0
10
1014.805
20
683.405
0
VERTEX
8
0
10
1014.805
20
701.405
0
VERTEX
8
0
10
1094.805
20
701.405
0
VERTEX
8
0
10
1094.805
20
683.405
0
VERTEX
8
0
10
1088.055
20
683.405
0
VERTEX
8
0
10
1088.055
20
692.405
42
0.267949
0
VERTEX
8
0
10
1086.429096
20
695.219404
42
0.267949
0
VERTEX
8
0
10
1083.179096
20
695.219404
42
0.267949
0
VERTEX
8
0
10
1081.554096
20
692.404821
0
VERTEX
8
0
10
1081.555
20
683.405
0
VERTEX
8
0
10
1028.055
20
683.405
0
VERTEX
8
0
10
1028.055
20
692.405
42
0.267949
0
VERTEX
8
0
10
1026.429096
20
695.219404
42
0.267949
0
VERTEX
8
0
10
1023.179096
20
695.219404
42
0.268064
0
VERTEX
8
0
10
1021.554594
20
692.405052
0
SEQEND
0
POLYLINE
70
1
62
7
8
0
66
1
0
VERTEX
8
0
10
1035.421
20
792.049
0
VERTEX
8
0
10
1067.421
20
792.049
0
VERTEX
8
0
10
1077.421
20
782.049
0
VERTEX
8
0
10
1077.421
20
750.049
0
VERTEX
8
0
10
1035.421
20
750.049
0
VERTEX
8
0
10
1035.421
20
792.049
0
SEQEND
0
POLYLINE
70
1
62
7
8
0
66
1
0
VERTEX
8
0
10
862.588
20
697.163
0
VERTEX
8
0
10
862.588
20
688.163
0
VERTEX
8
0
10
857.838
20
688.163
0
VERTEX
8
0
10
857.838
20
706.163
0
VERTEX
8
0
10
947.838
20
706.163
0
VERTEX
8
0
10
947.838
20
688.163
0
VERTEX
8
0
10
943.088
20
688.163
0
VERTEX
8
0
10
943.088
20
697.163
42
0.267949
0
VERTEX
8
0
10
941.462638
20
699.978094
42
0.267949
0
VERTEX
8
0
10
938.212638
20
699.978094
42
0.267949
0
VERTEX
8
0
10
936.587638
20
697.163512
0
VERTEX
8
0
10
936.588
20
688.163
0
VERTEX
8
0
10
869.088
20
688.163
0
VERTEX
8
0
10
869.088
20
697.163
42
0.267949
0
VERTEX
8
0
10
867.462638
20
699.978094
42
0.267949
0
VERTEX
8
0
10
864.212638
20
699.978094
42
0.267939
0
VERTEX
8
0
10
862.587594
20
697.163052
0
SEQEND
0
POLYLINE
70
1
62
7
8
0
66
1
0
VERTEX
8
0
10
874.828
20
729.417
0
VERTEX
8
0
10
874.828
20
720.417
0
VERTEX
8
0
10
868.078
20
720.417
0
VERTEX
8
0
10
868.078
20
738.417
0
VERTEX
8
0
10
948.078
20
738.417
0
VERTEX
8
0
10
948.078
20
720.417
0
VERTEX
8
0
10
941.328
20
720.417
0
VERTEX
8
0
10
941.328
20
729.417
42
0.267949
0
VERTEX
8
0
10
939.702283
20
732.231573
42
0.267949
0
VERTEX
8
0
10
936.452283
20
732.231573
42
0.267949
0
VERTEX
8
0
10
934.827283
20
729.416990
0
VERTEX
8
0
10
934.828
20
720.417
0
VERTEX
8
0
10
881.328
20
720.417
0
VERTEX
8
0
10
881.328
20
729.417
42
0.267949
0
VERTEX
8
0
10
879.702283
20
732.231573
42
0.267949
0
VERTEX
8
0
10
876.452283
20
732.231573
42
0.268021
0
VERTEX
8
0
10
874.827594
20
729.417052
0
SEQEND
0
POLYLINE
70
1
62
7
8
0
66
1
0
VERTEX
8
0
10
888.694
20
829.061
0
VERTEX
8
0
10
920.694
20
829.061
0
VERTEX
8
0
10
930.694
20
819.061
0
VERTEX
8
0
10
930.694
20
787.061
0
VERTEX
8
0
10
888.694
20
787.061
0
VERTEX
8
0
10
888.694
20
829.061
0
SEQEND
0
POLYLINE
70
1
62
7
8
0
66
1
0
VERTEX
8
0
10
75.336
20
835.042
0
VERTEX
8
0
10
75.336
20
826.042
0
VERTEX
8
0
10
70.586
20
826.042
0
VERTEX
8
0
10
70.586
20
844.042
0
VERTEX
8
0
10
160.586
20
844.042
0
VERTEX
8
0
10
160.586
20
826.042
0
VERTEX
8
0
10
155.836
20
826.042
0
VERTEX
8
0
10
155.836
20
835.042
42
0.267949
0
VERTEX
8
0
10
154.211274
20
837.856415
42
0.267949
0
VERTEX
8
0
10
150.961274
20
837.856415
42
0.267949
0
VERTEX
8
0
10
149.336274
20
835.041832
0
VERTEX
8
0
10
149.336
20
826.042
0
VERTEX
8
0
10
81.836
20
826.042
0
VERTEX
8
0
10
81.836
20
835.042
42
0.267949
0
VERTEX
8
0
10
80.211274
20
837.856415
42
0.267949
0
VERTEX
8
0
10
76.961274
20
837.856415
42
0.267949
0
VERTEX
8
0
10
75.336274
20
835.041832
0
SEQEND
0
POLYLINE
70
1
62
7
8
0
66
1
0
VERTEX
8
0
10
87.576
20
867.295
0
VERTEX
8
0
10
87.576
20
858.295
0
VERTEX
8
0
10
80.826
20
858.295
0
VERTEX
8
0
10
80.826
20
876.295
0
VERTEX
8
0
10
160.826
20
876.295
0
VERTEX
8
0
10
160.826
20
858.295
0
VERTEX
8
0
10
154.076
20
858.295
0
VERTEX
8
0
10
154.076
20
867.295
42
0.267949
0
VERTEX
8
0
10
152.450919
20
870.109893
42
0.267949
0
VERTEX
8
0
10
149.200919
20
870.109893
42
0.267949
0
VERTEX
8
0
10
147.575919
20
867.295311
0
VERTEX
8
0
10
147.576
20
858.295
0
VERTEX
8
0
10
94.076
20
858.295
0
VERTEX
8
0
10
94.076
20
867.295
42
0.267949
0
VERTEX
8
0
10
92.450919
20
870.109893
42
0.267949
0
VERTEX
8
0
10
89.200919
20
870.109893
42
0.268031
0
VERTEX
8
0
10
87.576274
20
867.294832
0
SEQEND
0
POLYLINE
70
1
62
7
8
0
66
1
0
VERTEX
8
0
10
101.442
20
966.939
0
VERTEX
8
0
10
133.442
20
966.939
0
VERTEX
8
0
10
143.442
20
956.939
0
VERTEX
8
0
10
143.442
20
924.939
0
VERTEX
8
0
10
101.442
20
924.939
0
VERTEX
8
0
10
101.442
20
966.939
0
SEQEND
0
POLYLINE
70
1
62
7
8
0
66
1
0
VERTEX
8
0
10
357.571
20
917.393
42
0.198913
0
VERTEX
8
0
10
348.228210
20
939.949571
42
0.198913
0
VERTEX
8
0
10
325.671497
20
949.293009
42
0.198913
0
VERTEX
8
0
10
303.114784
20
939.949722
42
0.198913
0
VERTEX
8
0
10
293.771497
20
917.393009
42
0.198913
0
VERTEX
8
0
10
303.114784
20
894.836296
42
0.198913
0
VERTEX
8
0
10
325.671497
20
885.493009
42
0.198913
0
VERTEX
8
0
10
348.228210
20
894.836296
42
0.198916
0
VERTEX
8
0
10
357.571390
20
917.392751
0
SEQEND
0
POLYLINE
70
1
62
7
8
0
66
1
0
VERTEX
8
0
10
662.791
20
984.031
42
-0.405145
0
VERTEX
8
0
10
664.577908
20
987.017373
0
VERTEX
8
0
10
665.544
20
987.276
42
0.202902
0
VERTEX
8
0
10
667.081229
20
988.474487
42
0.202902
0
VERTEX
8
0
10
667.291076
20
990.411947
42
0.116077
0
VERTEX
8
0
10
648.049396
20
1023.739515
42
0.202902
0
VERTEX
8
0
10
646.266583
20
1024.526511
42
0.202902
0
VERTEX
8
0
10
644.460468
20
1023.794573
0
VERTEX
8
0
10
643.753
20
1023.087
42
-0.405145
0
VERTEX
8
0
10
640.273243
20
1023.033082
42
0.115884
0
VERTEX
8
0
10
609.376353
20
1040.871409
42
-0.405145
0
VERTEX
8
0
10
607.683268
20
1043.912012
0
VERTEX
8
0
10
607.942
20
1044.878
42
0.202902
0
VERTEX
8
0
10
607.673031
20
1046.808509
42
0.202902
0
VERTEX
8
0
10
606.100065
20
1047.958972
42
0.116077
0
VERTEX
8
0
10
567.616705
20
1047.958972
42
0.202902
0
VERTEX
8
0
10
566.043739
20
1046.808509
42
0.202902
0
VERTEX
8
0
10
565.774559
20
1044.878398
0
VERTEX
8
0
10
566.033
20
1043.912
42
-0.405145
0
VERTEX
8
0
10
564.340417
20
1040.871409
42
0.115884
0
VERTEX
8
0
10
533.443527
20
1023.033082
42
-0.405145
0
VERTEX
8
0
10
529.963745
20
1023.087129
0
VERTEX
8
0
10
529.256
20
1023.794
42
0.202902
0
VERTEX
8
0
10
527.450187
20
1024.526511
42
0.202902
0
VERTEX
8
0
10
525.667374
20
1023.739515
42
0.116077
0
VERTEX
8
0
10
506.425693
20
990.411947
42
0.202902
0
VERTEX
8
0
10
506.635541
20
988.474487
42
0.202902
0
VERTEX
8
0
10
508.172476
20
987.276315
0
VERTEX
8
0
10
509.139
20
987.017
42
-0.405145
0
VERTEX
8
0
10
510.925559
20
984.030817
42
0.115884
0
VERTEX
8
0
10
510.925559
20
948.354162
42
-0.405145
0
VERTEX
8
0
10
509.138862
20
945.367606
0
VERTEX
8
0
10
508.172
20
945.108
42
0.202902
0
VERTEX
8
0
10
506.635541
20
943.910491
42
0.202902
0
VERTEX
8
0
10
506.425693
20
941.973032
42
0.116077
0
VERTEX
8
0
10
525.667374
20
908.645464
42
0.202902
0
VERTEX
8
0
10
527.450187
20
907.858467
42
0.202902
0
VERTEX
8
0
10
529.256302
20
908.590406
0
VERTEX
8
0
10
529.963
20
909.298
42
-0.405145
0
VERTEX
8
0
10
533.443527
20
909.351897
42
0.115884
0
VERTEX
8
0
10
564.340417
20
891.513569
42
-0.405145
0
VERTEX
8
0
10
566.033502
20
888.472966
0
VERTEX
8
0
10
565.774
20
887.506
42
0.202902
0
VERTEX
8
0
10
566.043739
20
885.576469
42
0.202902
0
VERTEX
8
0
10
567.616705
20
884.426006
42
0.116077
0
VERTEX
8
0
10
606.100065
20
884.426006
42
0.202902
0
VERTEX
8
0
10
607.673031
20
885.576469
42
0.202902
0
VERTEX
8
0
10
607.942211
20
887.506580
0
VERTEX
8
0
10
607.683
20
888.473
42
-0.405145
0
VERTEX
8
0
10
609.376353
20
891.513569
42
0.115884
0
VERTEX
8
0
10
640.273243
20
909.351897
42
-0.405145
0
VERTEX
8
0
10
643.753024
20
909.297850
0
VERTEX
8
0
10
644.460
20
908.590
42
0.202902
0
VERTEX
8
0
10
646.266583
20
907.858467
42
0.202902
0
VERTEX
8
0
10
648.049396
20
908.645464
42
0.116077
0
VERTEX
8
0
10
667.291076
20
941.973032
42
0.202902
0
VERTEX
8
0
10
667.081229
20
943.910491
42
0.202902
0
VERTEX
8
0
10
665.544294
20
945.108663
0
VERTEX
8
0
10
664.578
20
945.367
42
-0.405145
0
VERTEX
8
0
10
662.791211
20
948.354162
42
0.115881
0
VERTEX
8
0
10
662.791278
20
984.031231
0
SEQEND
0
POLYLINE
70
1
62
7
8
0
66
1
0
VERTEX
8
0
10
183.784
20
946.133
0
VERTEX
8
0
10
262.784
20
946.133
42
-0.198912
0
VERTEX
8
0
10
267.026887
20
944.375926
42
-0.198912
0
VERTEX
8
0
10
268.784246
20
940.133285
0
VERTEX
8
0
10
268.784
20
861.133
42
-0.198913
0
VERTEX
8
0
10
267.026781
20
856.890536
42
-0.198913
0
VERTEX
8
0
10
262.784246
20
855.133285
0
VERTEX
8
0
10
183.784
20
855.133
42
-0.198913
0
VERTEX
8
0
10
179.541497
20
856.890536
42
-0.198913
0
VERTEX
8
0
10
177.784246
20
861.133285
0
VERTEX
8
0
10
177.784
20
940.133
42
-0.198912
0
VERTEX
8
0
10
179.541605
20
944.375926
42
-0.198954
0
VERTEX
8
0
10
183.784139
20
946.133027
0
SEQEND
0
POLYLINE
70
1
62
7
8
0
66
1
0
VERTEX
8
0
10
90.374
20
1003.094
0
VERTEX
8
0
10
90.374
20
994.094
0
VERTEX
8
0
10
85.624
20
994.094
0
VERTEX
8
0
10
85.624
20
1012.094
0
VERTEX
8
0
10
175.624
20
1012.094
0
VERTEX
8
0
10
175.624
20
994.094
0
VERTEX
8
0
10
170.874
20
994.094
0
VERTEX
8
0
10
170.874
20
1003.094
42
0.267949
0
VERTEX
8
0
10
169.249547
20
1005.908621
42
0.267949
0
VERTEX
8
0
10
165.999547
20
1005.908621
42
0.267949
0
VERTEX
8
0
10
164.374547
20
1003.094038
0
VERTEX
8
0
10
164.374
20
994.094
0
VERTEX
8
0
10
96.874
20
994.094
0
VERTEX
8
0
10
96.874
20
1003.094
42
0.267949
0
VERTEX
8
0
10
95.249547
20
1005.908621
42
0.267949
0
VERTEX
8
0
10
91.999547
20
1005.908621
42
0.267886
0
VERTEX
8
0
10
90.374274
20
1003.093832
0
SEQEND
0
POLYLINE
70
1
62
7
8
0
66
1
0
VERTEX
8
0
10
102.614
20
1035.348
0
VERTEX
8
0
10
102.614
20
1026.348
0
VERTEX
8
0
10
95.864
20
1026.348
0
VERTEX
8
0
10
95.864
20
1044.348
0
VERTEX
8
0
10
175.864
20
1044.348
0
VERTEX
8
0
10
175.864
20
1026.348
0
VERTEX
8
0
10
169.114
20
1026.348
0
VERTEX
8
0
10
169.114
20
1035.348
42
0.267949
0
VERTEX
8
0
10
167.489192
20
1038.162099
42
0.267949
0
VERTEX
8
0
10
164.239192
20
1038.162099
42
0.267949
0
VERTEX
8
0
10
162.614192
20
1035.347517
0
VERTEX
8
0
10
162.614
20
1026.348
0
VERTEX
8
0
10
109.114
20
1026.348
0
VERTEX
8
0
10
109.114
20
1035.348
42
0.267949
0
VERTEX
8
0
10
107.489192
20
1038.162099
42
0.267949
0
VERTEX
8
0
10
104.239192
20
1038.162099
42
0.267968
0
VERTEX
8
0
10
102.614274
20
1035.347832
0
SEQEND
0
POLYLINE
70
1
62
7
8
0
66
1
0
VERTEX
8
0
10
116.480
20
1134.992
0
VERTEX
8
0
10
148.480
20
1134.992
0
VERTEX
8
0
10
158.480
20
1124.992
0
VERTEX
8
0
10
158.480
20
1092.992
0
VERTEX
8
0
10
116.480
20
1092.992
0
VERTEX
8
0
10
116.480
20
1134.992
0
SEQEND
0
POLYLINE
70
1
62
7
8
0
66
1
0
VERTEX
8
0
10
382.506
20
851.080
0
VERTEX
8
0
10
382.506
20
842.080
0
VERTEX
8
0
10
377.756
20
842.080
0
VERTEX
8
0
10
377.756
20
860.080
0
VERTEX
8
0
10
467.756
20
860.080
0
VERTEX
8
0
10
467.756
20
842.080
0
VERTEX
8
0
10
463.006
20
842.080
0
VERTEX
8
0
10
463.006
20
851.080
42
0.267949
0
VERTEX
8
0
10
461.381310
20
853.894355
42
0.267949
0
VERTEX
8
0
10
458.131310
20
853.894355
42
0.267949
0
VERTEX
8
0
10
456.506310
20
851.079772
0
VERTEX
8
0
10
456.506
20
842.080
0
VERTEX
8
0
10
389.006
20
842.080
0
VERTEX
8
0
10
389.006
20
851.080
42
0.267949
0
VERTEX
8
0
10
387.381310
20
853.894355
42
0.267949
0
VERTEX
8
0
10
384.131310
20
853.894355
42
0.267941
0
VERTEX
8
0
10
382.506274
20
851.079832
0
SEQEND
0
POLYLINE
70
1
62
7
8
0
66
1
0
VERTEX
8
0
10
394.746
20
883.333
0
VERTEX
8
0
10
394.746
20
874.333
0
VERTEX
8
0
10
387.996
20
874.333
0
VERTEX
8
0
10
387.996
20
892.333
0
VERTEX
8
0
10
467.996
20
892.333
0
VERTEX
8
0
10
467.996
20
874.333
0
VERTEX
8
0
10
461.246
20
874.333
0
VERTEX
8
0
10
461.246
20
883.333
42
0.267949
0
VERTEX
8
0
10
459.620955
20
886.147834
42
0.267949
0
VERTEX
8
0
10
456.370955
20
886.147834
42
0.267949
0
VERTEX
8
0
10
454.745955
20
883.333251
0
VERTEX
8
0
10
454.746
20
874.333
0
VERTEX
8
0
10
401.246
20
874.333
0
VERTEX
8
0
10
401.246
20
883.333
42
0.267949
0
VERTEX
8
0
10
399.620955
20
886.147834
42
0.267949
0
VERTEX
8
0
10
396.370955
20
886.147834
42
0.268023
0
VERTEX
8
0
10
394.746274
20
883.332832
0
SEQEND
0
POLYLINE
70
1
62
7
8
0
66
1
0
VERTEX
8
0
10
408.612
20
982.977
0
VERTEX
8
0
10
440.612
20
982.977
0
VERTEX
8
0
10
450.612
20
972.977
0
VERTEX
8
0
10
450.612
20
940.977
0
VERTEX
8
0
10
408.612
20
940.977
0
VERTEX
8
0
10
408.612
20
982.977
0
SEQEND
0
POLYLINE
70
1
62
7
8
0
66
1
0
VERTEX
8
0
10
374.575
20
1021.600
0
VERTEX
8
0
10
374.575
20
1012.600
0
VERTEX
8
0
10
369.825
20
1012.600
0
VERTEX
8
0
10
369.825
20
1030.600
0
VERTEX
8
0
10
459.825
20
1030.600
0
VERTEX
8
0
10
459.825
20
1012.600
0
VERTEX
8
0
10
455.075
20
1012.600
0
VERTEX
8
0
10
455.075
20
1021.600
42
0.267949
0
VERTEX
8
0
10
453.450131
20
1024.414705
42
0.267949
0
VERTEX
8
0
10
450.200131
20
1024.414705
42
0.267949
0
VERTEX
8
0
10
448.575131
20
1021.600123
0
VERTEX
8
0
10
448.575
20
1012.600
0
VERTEX
8
0
10
381.075
20
1012.600
0
VERTEX
8
0
10
381.075
20
1021.600
42
0.267949
0
VERTEX
8
0
10
379.450131
20
1024.414705
42
0.267949
0
VERTEX
8
0
10
376.200131
20
1024.414705
42
0.267982
0
VERTEX
8
0
10
374.575274
20
1021.599832
0
SEQEND
0
POLYLINE
70
1
62
7
8
0
66
1
0
VERTEX
8
0
10
386.815
20
1053.854
0
VERTEX
8
0
10
386.815
20
1044.854
0
VERTEX
8
0
10
380.065
20
1044.854
0
VERTEX
8
0
10
380.065
20
1062.854
0
VERTEX
8
0
10
460.065
20
1062.854
0
VERTEX
8
0
10
460.065
20
1044.854
0
VERTEX
8
0
10
453.315
20
1044.854
0
VERTEX
8
0
10
453.315
20
1053.854
42
0.267949
0
VERTEX
8
0
10
451.689776
20
1056.668184
42
0.267949
0
VERTEX
8
0
10
448.439776
20
1056.668184
42
0.267949
0
VERTEX
8
0
10
446.814776
20
1053.853601
0
VERTEX
8
0
10
446.815
20
1044.854
0
VERTEX
8
0
10
393.315
20
1044.854
0
VERTEX
8
0
10
393.315
20
1053.854
42
0.267949
0
VERTEX
8
0
10
391.689776
20
1056.668184
42
0.267949
0
VERTEX
8
0
10
388.439776
20
1056.668184
42
0.268064
0
VERTEX
8
0
10
386.815274
20
1053.853832
0
SEQEND
0
POLYLINE
70
1
62
7
8
0
66
1
0
VERTEX
8
0
10
400.681
20
1153.498
0
VERTEX
8
0
10
432.681
20
1153.498
0
VERTEX
8
0
10
442.681
20
1143.498
0
VERTEX
8
0
10
442.681
20
1111.498
0
VERTEX
8
0
10
400.681
20
1111.498
0
VERTEX
8
0
10
400.681
20
1153.498
0
SEQEND
0
POLYLINE
70
1
62
7
8
0
66
1
0
VERTEX
8
0
10
227.848
20
1058.612
0
VERTEX
8
0
10
227.848
20
1049.612
0
VERTEX
8
0
10
223.098
20
1049.612
0
VERTEX
8
0
10
223.098
20
1067.612
0
VERTEX
8
0
10
313.098
20
1067.612
0
VERTEX
8
0
10
313.098
20
1049.612
0
VERTEX
8
0
10
308.348
20
1049.612
0
VERTEX
8
0
10
308.348
20
1058.612
42
0.267949
0
VERTEX
8
0
10
306.723318
20
1061.426874
42
0.267949
0
VERTEX
8
0
10
303.473318
20
1061.426874
42
0.267949
0
VERTEX
8
0
10
301.848318
20
1058.612292
0
VERTEX
8
0
10
301.848
20
1049.612
0
VERTEX
8
0
10
234.348
20
1049.612
0
VERTEX
8
0
10
234.348
20
1058.612
42
0.267949
0
VERTEX
8
0
10
232.723318
20
1061.426874
42
0.267949
0
VERTEX
8
0
10
229.473318
20
1061.426874
42
0.267939
0
VERTEX
8
0
10
227.848274
20
1058.611832
0
SEQEND
0
POLYLINE
70
1
62
7
8
0
66
1
0
VERTEX
8
0
10
240.088
20
1090.866
0
VERTEX
8
0
10
240.088
20
1081.866
0
VERTEX
8
0
10
233.338
20
1081.866
0
VERTEX
8
0
10
233.338
20
1099.866
0
VERTEX
8
0
10
313.338
20
1099.866
0
VERTEX
8
0
10
313.338
20
1081.866
0
VERTEX
8
0
10
306.588
20
1081.866
0
VERTEX
8
0
10
306.588
20
1090.866
42
0.267949
0
VERTEX
8
0
10
304.962963
20
1093.680353
42
0.267949
0
VERTEX
8
0
10
301.712963
20
1093.680353
42
0.267949
0
VERTEX
8
0
10
300.087963
20
1090.865770
0
VERTEX
8
0
10
300.088
20
1081.866
0
VERTEX
8
0
10
246.588
20
1081.866
0
VERTEX
8
0
10
246.588
20
1090.866
42
0.267949
0
VERTEX
8
0
10
244.962963
20
1093.680353
42
0.267949
0
VERTEX
8
0
10
241.712963
20
1093.680353
42
0.268021
0
VERTEX
8
0
10
240.088274
20
1090.865832
0
SEQEND
0
POLYLINE
70
1
62
7
8
0
66
1
0
VERTEX
8
0
10
253.954
20
1190.510
0
VERTEX
8
0
10
285.954
20
1190.510
0
VERTEX
8
0
10
295.954
20
1180.510
0
VERTEX
8
0
10
295.954
20
1148.510
0
VERTEX
8
0
10
253.954
20
1148.510
0
VERTEX
8
0
10
253.954
20
1190.510
0
SEQEND
0
POLYLINE
70
1
62
7
8
0
66
1
0
VERTEX
8
0
10
750.751
20
892.994
0
VERTEX
8
0
10
750.751
20
883.994
0
VERTEX
8
0
10
746.001
20
883.994
0
VERTEX
8
0
10
746.001
20
901.994
0
VERTEX
8
0
10
836.001
20
901.994
0
VERTEX
8
0
10
836.001
20
883.994
0
VERTEX
8
0
10
831.251
20
883.994
0
VERTEX
8
0
10
831.251
20
892.994
42
0.267949
0
VERTEX
8
0
10
829.626021
20
895.808841
42
0.267949
0
VERTEX
8
0
10
826.376021
20
895.808841
42
0.267949
0
VERTEX
8
0
10
824.751021
20
892.994258
0
VERTEX
8
0
10
824.751
20
883.994
0
VERTEX
8
0
10
757.251
20
883.994
0
VERTEX
8
0
10
757.251
20
892.994
42
0.267949
0
VERTEX
8
0
10
755.626021
20
895.808841
42
0.267949
0
VERTEX
8
0
10
752.376021
20
895.808841
42
0.267949
0
VERTEX
8
0
10
750.751021
20
892.994258
0
SEQEND
0
POLYLINE
70
1
62
7
8
0
66
1
0
VERTEX
8
0
10
762.991
20
925.247
0
VERTEX
8
0
10
762.991
20
916.247
0
VERTEX
8
0
10
756.241
20
916.247
0
VERTEX
8
0
10
756.241
20
934.247
0
VERTEX
8
0
10
836.241
20
934.247
0
VERTEX
8
0
10
836.241
20
916.247
0
VERTEX
8
0
10
829.491
20
916.247
0
VERTEX
8
0
10
829.491
20
925.247
42
0.267949
0
VERTEX
8
0
10
827.865666
20
928.062319
42
0.267949
0
VERTEX
8
0
10
824.615666
20
928.062319
42
0.267949
0
VERTEX
8
0
10
822.990666
20
925.247737
0
VERTEX
8
0
10
822.991
20
916.247
0
VERTEX
8
0
10
769.491
20
916.247
0
VERTEX
8
0
10
769.491
20
925.247
42
0.267949
0
VERTEX
8
0
10
767.865666
20
928.062319
42
0.267949
0
VERTEX
8
0
10
764.615666
20
928.062319
42
0.268031
0
VERTEX
8
0
10
762.991021
20
925.247258
0
SEQEND
0
POLYLINE
70
1
62
7
8
0
66
1
0
VERTEX
8
0
10
776.857
20
1024.891
0
VERTEX
8
0
10
808.857
20
1024.891
0
VERTEX
8
0
10
818.857
20
1014.891
0
VERTEX
8
0
10
818.857
20
982.891
0
VERTEX
8
0
10
776.857
20
982.891
0
VERTEX
8
0
10
776.857
20
1024.891
0
SEQEND
0
POLYLINE
70
1
62
7
8
0
66
1
0
VERTEX
8
0
10
1032.986
20
975.345
42
0.198913
0
VERTEX
8
0
10
1023.642957
20
997.901998
42
0.198913
0
VERTEX
8
0
10
1001.086244
20
1007.245436
42
0.198913
0
VERTEX
8
0
10
978.529531
20
997.902149
42
0.198913
0
VERTEX
8
0
10
969.186244
20
975.345436
42
0.198913
0
VERTEX
8
0
10
978.529531
20
952.788722
42
0.198913
0
VERTEX
8
0
10
1001.086244
20
943.445436
42
0.198913
0
VERTEX
8
0
10
1023.642957
20
952.788722
42
0.198916
0
VERTEX
8
0
10
1032.986137
20
975.345178
0
SEQEND
0
POLYLINE
70
1
62
7
8
0
66
1
0
VERTEX
8
0
10
1338.206
20
1041.984
42
-0.405145
0
VERTEX
8
0
10
1339.992655
20
1044.969800
0
VERTEX
8
0
10
1340.959
20
1045.229
42
0.202902
0
VERTEX
8
0
10
1342.495976
20
1046.426914
42
0.202902
0
VERTEX
8
0
10
1342.705823
20
1048.364374
42
0.116077
0
VERTEX
8
0
10
1323.464143
20
1081.691942
42
0.202902
0
VERTEX
8
0
10
1321.681330
20
1082.478938
42
0.202902
0
VERTEX
8
0
10
1319.875215
20
1081.747000
0
VERTEX
8
0
10
1319.168
20
1081.040
42
-0.405145
0
VERTEX
8
0
10
1315.687990
20
1080.985509
42
0.115884
0
VERTEX
8
0
10
1284.791100
20
1098.823836
42
-0.405145
0
VERTEX
8
0
10
1283.098015
20
1101.864439
0
VERTEX
8
0
10
1283.357
20
1102.831
42
0.202902
0
VERTEX
8
0
10
1283.087778
20
1104.760936
42
0.202902
0
VERTEX
8
0
10
1281.514812
20
1105.911399
42
0.116077
0
VERTEX
8
0
10
1243.031452
20
1105.911399
42
0.202902
0
VERTEX
8
0
10
1241.458486
20
1104.760936
42
0.202902
0
VERTEX
8
0
10
1241.189306
20
1102.830825
0
VERTEX
8
0
10
1241.448
20
1101.865
42
-0.405145
0
VERTEX
8
0
10
1239.755164
20
1098.823836
42
0.115884
0
VERTEX
8
0
10
1208.858274
20
1080.985509
42
-0.405145
0
VERTEX
8
0
10
1205.378492
20
1081.039556
0
VERTEX
8
0
10
1204.671
20
1081.747
42
0.202902
0
VERTEX
8
0
10
1202.864934
20
1082.478938
42
0.202902
0
VERTEX
8
0
10
1201.082121
20
1081.691942
42
0.116077
0
VERTEX
8
0
10
1181.840440
20
1048.364374
42
0.202902
0
VERTEX
8
0
10
1182.050288
20
1046.426914
42
0.202902
0
VERTEX
8
0
10
1183.587223
20
1045.228742
0
VERTEX
8
0
10
1184.554
20
1044.970
42
-0.405145
0
VERTEX
8
0
10
1186.340306
20
1041.983244
42
0.115884
0
VERTEX
8
0
10
1186.340306
20
1006.306589
42
-0.405145
0
VERTEX
8
0
10
1184.553609
20
1003.320033
0
VERTEX
8
0
10
1183.587
20
1003.061
42
0.202902
0
VERTEX
8
0
10
1182.050288
20
1001.862918
42
0.202902
0
VERTEX
8
0
10
1181.840440
20
999.925459
42
0.116077
0
VERTEX
8
0
10
1201.082121
20
966.597891
42
0.202902
0
VERTEX
8
0
10
1202.864934
20
965.810894
42
0.202902
0
VERTEX
8
0
10
1204.671049
20
966.542833
0
VERTEX
8
0
10
1205.378
20
967.251
42
-0.405145
0
VERTEX
8
0
10
1208.858274
20
967.304324
42
0.115884
0
VERTEX
8
0
10
1239.755164
20
949.465996
42
-0.405145
0
VERTEX
8
0
10
1241.448249
20
946.425393
0
VERTEX
8
0
10
1241.189
20
945.459
42
0.202902
0
VERTEX
8
0
10
1241.458486
20
943.528896
42
0.202902
0
VERTEX
8
0
10
1243.031452
20
942.378433
42
0.116077
0
VERTEX
8
0
10
1281.514812
20
942.378433
42
0.202902
0
VERTEX
8
0
10
1283.087778
20
943.528896
42
0.202902
0
VERTEX
8
0
10
1283.356958
20
945.459007
0
VERTEX
8
0
10
1283.098
20
946.426
42
-0.405145
0
VERTEX
8
0
10
1284.791100
20
949.465996
42
0.115884
0
VERTEX
8
0
10
1315.687990
20
967.304324
42
-0.405145
0
VERTEX
8
0
10
1319.167771
20
967.250277
0
VERTEX
8
0
10
1319.875
20
966.543
42
0.202902
0
VERTEX
8
0
10
1321.681330
20
965.810894
42
0.202902
0
VERTEX
8
0
10
1323.464143
20
966.597891
42
0.116077
0
VERTEX
8
0
10
1342.705823
20
999.925459
42
0.202902
0
VERTEX
8
0
10
1342.495976
20
1001.862918
42
0.202902
0
VERTEX
8
0
10
1340.959041
20
1003.061090
0
VERTEX
8
0
10
1339.993
20
1003.320
42
-0.405145
0
VERTEX
8
0
10
1338.205958
20
1006.306589
42
0.115881
0
VERTEX
8
0
10
1338.206025
20
1041.983658
0
SEQEND
0
POLYLINE
70
1
62
7
8
0
66
1
0
VERTEX
8
0
10
859.199
20
1004.085
0
VERTEX
8
0
10
938.199
20
1004.085
42
-0.198912
0
VERTEX
8
0
10
942.441635
20
1002.328353
42
-0.198912
0
VERTEX
8
0
10
944.198994
20
998.085712
0
VERTEX
8
0
10
944.199
20
919.085
42
-0.198913
0
VERTEX
8
0
10
942.441529
20
914.842963
42
-0.198913
0
VERTEX
8
0
10
938.198994
20
913.085712
0
VERTEX
8
0
10
859.199
20
913.085
42
-0.198913
0
VERTEX
8
0
10
854.956245
20
914.842963
42
-0.198913
0
VERTEX
8
0
10
853.198994
20
919.085712
0
VERTEX
8
0
10
853.199
20
998.085
42
-0.198912
0
VERTEX
8
0
10
854.956353
20
1002.328353
42
-0.198954
0
VERTEX
8
0
10
859.198887
20
1004.085454
0
SEQEND
0
POLYLINE
70
1
62
7
8
0
66
1
0
VERTEX
8
0
10
765.789
20
1061.046
0
VERTEX
8
0
10
765.789
20
1052.046
0
VERTEX
8
0
10
761.039
20
1052.046
0
VERTEX
8
0
10
761.039
20
1070.046
0
VERTEX
8
0
10
851.039
20
1070.046
0
VERTEX
8
0
10
851.039
20
1052.046
0
VERTEX
8
0
10
846.289
20
1052.046
0
VERTEX
8
0
10
846.289
20
1061.046
42
0.267949
0
VERTEX
8
0
10
844.664294
20
1063.861047
42
0.267949
0
VERTEX
8
0
10
841.414294
20
1063.861047
42
0.267949
0
VERTEX
8
0
10
839.789294
20
1061.046464
0
VERTEX
8
0
10
839.789
20
1052.046
0
VERTEX
8
0
10
772.289
20
1052.046
0
VERTEX
8
0
10
772.289
20
1061.046
42
0.267949
0
VERTEX
8
0
10
770.664294
20
1063.861047
42
0.267949
0
VERTEX
8
0
10
767.414294
20
1063.861047
42
0.267886
0
VERTEX
8
0
10
765.789021
20
1061.046258
0
SEQEND
0
POLYLINE
70
1
62
7
8
0
66
1
0
VERTEX
8
0
10
778.029
20
1093.300
0
VERTEX
8
0
10
778.029
20
1084.300
0
VERTEX
8
0
10
771.279
20
1084.300
0
VERTEX
8
0
10
771.279
20
1102.300
0
VERTEX
8
0
10
851.279
20
1102.300
0
VERTEX
8
0
10
851.279
20
1084.300
0
VERTEX
8
0
10
844.529
20
1084.300
0
VERTEX
8
0
10
844.529
20
1093.300
42
0.267949
0
VERTEX
8
0
10
842.903939
20
1096.114525
42
0.267949
0
VERTEX
8
0
10
839.653939
20
1096.114525
42
0.267949
0
VERTEX
8
0
10
838.028939
20
1093.299943
0
VERTEX
8
0
10
838.029
20
1084.300
0
VERTEX
8
0
10
784.529
20
1084.300
0
VERTEX
8
0
10
784.529
20
1093.300
42
0.267949
0
VERTEX
8
0
10
782.903939
20
1096.114525
42
0.267949
0
VERTEX
8
0
10
779.653939
20
1096.114525
42
0.267968
0
VERTEX
8
0
10
778.029021
20
1093.300258
0
SEQEND
0
POLYLINE
70
1
62
7
8
0
66
1
0
VERTEX
8
0
10
791.895
20
1192.944
0
VERTEX
8
0
10
823.895
20
1192.944
0
VERTEX
8
0
10
833.895
20
1182.944
0
VERTEX
8
0
10
833.895
20
1150.944
0
VERTEX
8
0
10
791.895
20
1150.944
0
VERTEX
8
0
10
791.895
20
1192.944
0
SEQEND
0
POLYLINE
70
1
62
7
8
0
66
1
0
VERTEX
8
0
10
1057.921
20
909.032
0
VERTEX
8
0
10
1057.921
20
900.032
0
VERTEX
8
0
10
1053.171
20
900.032
0
VERTEX
8
0
10
1053.171
20
918.032
0
VERTEX
8
0
10
1143.171
20
918.032
0
VERTEX
8
0
10
1143.171
20
900.032
0
VERTEX
8
0
10
1138.421
20
900.032
0
VERTEX
8
0
10
1138.421
20
909.032
42
0.267949
0
VERTEX
8
0
10
1136.796057
20
911.846781
42
0.267949
0
VERTEX
8
0
10
1133.546057
20
911.846781
42
0.267949
0
VERTEX
8
0
10
1131.921057
20
909.032198
0
VERTEX
8
0
10
1131.921
20
900.032
0
VERTEX
8
0
10
1064.421
20
900.032
0
VERTEX
8
0
10
1064.421
20
909.032
42
0.267949
0
VERTEX
8
0
10
1062.796057
20
911.846781
42
0.267949
0
VERTEX
8
0
10
1059.546057
20
911.846781
42
0.267941
0
VERTEX
8
0
10
1057.921021
20
909.032258
0
SEQEND
0
POLYLINE
70
1
62
7
8
0
66
1
0
VERTEX
8
0
10
1070.161
20
941.285
0
VERTEX
8
0
10
1070.161
20
932.285
0
VERTEX
8
0
10
1063.411
20
932.285
0
VERTEX
8
0
10
1063.411
20
950.285
0
VERTEX
8
0
10
1143.411
20
950.285
0
VERTEX
8
0
10
1143.411
20
932.285
0
VERTEX
8
0
10
1136.661
20
932.285
0
VERTEX
8
0
10
1136.661
20
941.285
42
0.267949
0
VERTEX
8
0
10
1135.035702
20
944.100260
42
0.267949
0
VERTEX
8
0
10
1131.785702
20
944.100260
42
0.267949
0
VERTEX
8
0
10
1130.160702
20
941.285677
0
VERTEX
8
0
10
1130.161
20
932.285
0
VERTEX
8
0
10
1076.661
20
932.285
0
VERTEX
8
0
10
1076.661
20
941.285
42
0.267949
0
VERTEX
8
0
10
1075.035702
20
944.100260
42
0.267949
0
VERTEX
8
0
10
1071.785702
20
944.100260
42
0.268023
0
VERTEX
8
0
10
1070.161021
20
941.285258
0
SEQEND
0
POLYLINE
70
1
62
7
8
0
66
1
0
VERTEX
8
0
10
1084.027
20
1040.929
0
VERTEX
8
0
10
1116.027
20
1040.929
0
VERTEX
8
0
10
1126.027
20
1030.929
0
VERTEX
8
0
10
1126.027
20
998.929
0
VERTEX
8
0
10
1084.027
20
998.929
0
VERTEX
8
0
10
1084.027
20
1040.929
0
SEQEND
0
POLYLINE
70
1
62
7
8
0
66
1
0
VERTEX
8
0
10
1049.990
20
1079.552
0
VERTEX
8
0
10
1049.990
20
1070.552
0
VERTEX
8
0
10
1045.240
20
1070.552
0
VERTEX
8
0
10
1045.240
20
1088.552
0
VERTEX
8
0
10
1135.240
20
1088.552
0
VERTEX
8
0
10
1135.240
20
1070.552
0
VERTEX
8
0
10
1130.490
20
1070.552
0
VERTEX
8
0
10
1130.490
20
1079.552
42
0.267949
0
VERTEX
8
0
10
1128.864878
20
1082.367131
42
0.267949
0
VERTEX
8
0
10
1125.614878
20
1082.367131
42
0.267949
0
VERTEX
8
0
10
1123.989878
20
1079.552549
0
VERTEX
8
0
10
1123.990
20
1070.552
0
VERTEX
8
0
10
1056.490
20
1070.552
0
VERTEX
8
0
10
1056.490
20
1079.552
42
0.267949
0
VERTEX
8
0
10
1054.864878
20
1082.367131
42
0.267949
0
VERTEX
8
0
10
1051.614878
20
1082.367131
42
0.267982
0
VERTEX
8
0
10
1049.990021
20
1079.552258
0
SEQEND
0
POLYLINE
70
1
62
7
8
0
66
1
0
VERTEX
8
0
10
1062.230
20
1111.806
0
VERTEX
8
0
10
1062.230
20
1102.806
0
VERTEX
8
0
10
1055.480
20
1102.806
0
VERTEX
8
0
10
1055.480
20
1120.806
0
VERTEX
8
0
10
1135.480
20
1120.806
0
VERTEX
8
0
10
1135.480
20
1102.806
0
VERTEX
8
0
10
1128.730
20
1102.806
0
VERTEX
8
0
10
1128.730
20
1111.806
42
0.267949
0
VERTEX
8
0
10
1127.104523
20
1114.620610
42
0.267949
0
VERTEX
8
0
10
1123.854523
20
1114.620610
42
0.267949
0
VERTEX
8
0
10
1122.229523
20
1111.806027
0
VERTEX
8
0
10
1122.230
20
1102.806
0
VERTEX
8
0
10
1068.730
20
1102.806
0
VERTEX
8
0
10
1068.730
20
1111.806
42
0.267949
0
VERTEX
8
0
10
1067.104523
20
1114.620610
42
0.267949
0
VERTEX
8
0
10
1063.854523
20
1114.620610
42
0.268064
0
VERTEX
8
0
10
1062.230021
20
1111.806258
0
SEQEND
0
POLYLINE
70
1
62
7
8
0
66
1
0
VERTEX
8
0
10
1076.096
20
1211.450
0
VERTEX
8
0
10
1108.096
20
1211.450
0
VERTEX
8
0
10
1118.096
20
1201.450
0
VERTEX
8
0
10
1118.096
20
1169.450
0
VERTEX
8
0
10
1076.096
20
1169.450
0
VERTEX
8
0
10
1076.096
20
1211.450
0
SEQEND
0
POLYLINE
70
1
62
7
8
0
66
1
0
VERTEX
8
0
10
903.263
20
1116.564
0
VERTEX
8
0
10
903.263
20
1107.564
0
VERTEX
8
0
10
898.513
20
1107.564
0
VERTEX
8
0
10
898.513
20
1125.564
0
VERTEX
8
0
10
988.513
20
1125.564
0
VERTEX
8
0
10
988.513
20
1107.564
0
VERTEX
8
0
10
983.763
20
1107.564
0
VERTEX
8
0
10
983.763
20
1116.564
42
0.267949
0
VERTEX
8
0
10
982.138065
20
1119.379300
42
0.267949
0
VERTEX
8
0
10
978.888065
20
1119.379300
42
0.267949
0
VERTEX
8
0
10
977.263065
20
1116.564718
0
VERTEX
8
0
10
977.263
20
1107.564
0
VERTEX
8
0
10
909.763
20
1107.564
0
VERTEX
8
0
10
909.763
20
1116.564
42
0.267949
0
VERTEX
8
0
10
908.138065
20
1119.379300
42
0.267949
0
VERTEX
8
0
10
904.888065
20
1119.379300
42
0.267939
0
VERTEX
8
0
10
903.263021
20
1116.564258
0
SEQEND
0
POLYLINE
70
1
62
7
8
0
66
1
0
VERTEX
8
0
10
915.503
20
1148.818
0
VERTEX
8
0
10
915.503
20
1139.818
0
VERTEX
8
0
10
908.753
20
1139.818
0
VERTEX
8
0
10
908.753
20
1157.818
0
VERTEX
8
0
10
988.753
20
1157.818
0
VERTEX
8
0
10
988.753
20
1139.818
0
VERTEX
8
0
10
982.003
20
1139.818
0
VERTEX
8
0
10
982.003
20
1148.818
42
0.267949
0
VERTEX
8
0
10
980.377710
20
1151.632779
42
0.267949
0
VERTEX
8
0
10
977.127710
20
1151.632779
42
0.267949
0
VERTEX
8
0
10
975.502710
20
1148.818196
0
VERTEX
8
0
10
975.503
20
1139.818
0
VERTEX
8
0
10
922.003
20
1139.818
0
VERTEX
8
0
10
922.003
20
1148.818
42
0.267949
0
VERTEX
8
0
10
920.377710
20
1151.632779
42
0.267949
0
VERTEX
8
0
10
917.127710
20
1151.632779
42
0.268021
0
VERTEX
8
0
10
915.503021
20
1148.818258
0
SEQEND
0
POLYLINE
70
1
62
7
8
0
66
1
0
VERTEX
8
0
10
929.369
20
1248.462
0
VERTEX
8
0
10
961.369
20
1248.462
0
VERTEX
8
0
10
971.369
20
1238.462
0
VERTEX
8
0
10
971.369
20
1206.462
0
VERTEX
8
0
10
929.369
20
1206.462
0
VERTEX
8
0
10
929.369
20
1248.462
0
SEQEND
0
POLYLINE
70
1
62
7
8
0
66
1
0
VERTEX
8
0
10
1436.195
20
80.102
0
VERTEX
8
0
10
1436.195
20
71.102
0
VERTEX
8
0
10
1431.445
20
71.102
0
VERTEX
8
0
10
1431.445
20
89.102
0
VERTEX
8
0
10
1521.445
20
89.102
0
VERTEX
8
0
10
1521.445
20
71.102
0
VERTEX
8
0
10
1516.695
20
71.102
0
VERTEX
8
0
10
1516.695
20
80.102
42
0.267949
0
VERTEX
8
0
10
1515.070124
20
82.916252
42
0.267949
0
VERTEX
8
0
10
1511.820124
20
82.916252
42
0.267949
0
VERTEX
8
0
10
1510.195124
20
80.101669
0
VERTEX
8
0
10
1510.195
20
71.102
0
VERTEX
8
0
10
1442.695
20
71.102
0
VERTEX
8
0
10
1442.695
20
80.102
42
0.267949
0
VERTEX
8
0
10
1441.070124
20
82.916252
42
0.267949
0
VERTEX
8
0
10
1437.820124
20
82.916252
42
0.267949
0
VERTEX
8
0
10
1436.195124
20
80.101669
0
SEQEND
0
POLYLINE
70
1
62
7
8
0
66
1
0
VERTEX
8
0
10
1448.435
20
112.355
0
VERTEX
8
0
10
1448.435
20
103.355
0
VERTEX
8
0
10
1441.685
20
103.355
0
VERTEX
8
0
10
1441.685
20
121.355
0
VERTEX
8
0
10
1521.685
20
121.355
0
VERTEX
8
0
10
1521.685
20
103.355
0
VERTEX
8
0
10
1514.935
20
103.355
0
VERTEX
8
0
10
1514.935
20
112.355
42
0.267949
0
VERTEX
8
0
10
1513.309769
20
115.169730
42
0.267949
0
VERTEX
8
0
10
1510.059769
20
115.169730
42
0.267949
0
VERTEX
8
0
10
1508.434769
20
112.355148
0
VERTEX
8
0
10
1508.435
20
103.355
0
VERTEX
8
0
10
1454.935
20
103.355
0
VERTEX
8
0
10
1454.935
20
112.355
42
0.267949
0
VERTEX
8
0
10
1453.309769
20
115.169730
42
0.267949
0
VERTEX
8
0
10
1450.059769
20
115.169730
42
0.268031
0
VERTEX
8
0
10
1448.435124
20
112.354669
0
SEQEND
0
POLYLINE
70
1
62
7
8
0
66
1
0
VERTEX
8
0
10
1462.301
20
211.999
0
VERTEX
8
0
10
1494.301
20
211.999
0
VERTEX
8
0
10
1504.301
20
201.999
0
VERTEX
8
0
10
1504.301
20
169.999
0
VERTEX
8
0
10
1462.301
20
169.999
0
VERTEX
8
0
10
1462.301
20
211.999
0
SEQEND
0
POLYLINE
70
1
62
7
8
0
66
1
0
VERTEX
8
0
10
1718.430
20
162.453
42
0.198913
0
VERTEX
8
0
10
1709.087060
20
185.009409
42
0.198913
0
VERTEX
8
0
10
1686.530347
20
194.352847
42
0.198913
0
VERTEX
8
0
10
1663.973634
20
185.009560
42
0.198913
0
VERTEX
8
0
10
1654.630347
20
162.452847
42
0.198913
0
VERTEX
8
0
10
1663.973634
20
139.896133
42
0.198913
0
VERTEX
8
0
10
1686.530347
20
130.552847
42
0.198913
0
VERTEX
8
0
10
1709.087060
20
139.896133
42
0.198916
0
VERTEX
8
0
10
1718.430240
20
162.452589
0
SEQEND
0
POLYLINE
70
1
62
7
8
0
66
1
0
VERTEX
8
0
10
2023.650
20
229.091
42
-0.405145
0
VERTEX
8
0
10
2025.436758
20
232.077211
0
VERTEX
8
0
10
2026.403
20
232.336
42
0.202902
0
VERTEX
8
0
10
2027.940079
20
233.534325
42
0.202902
0
VERTEX
8
0
10
2028.149926
20
235.471785
42
0.116077
0
VERTEX
8
0
10
2008.908246
20
268.799353
42
0.202902
0
VERTEX
8
0
10
2007.125433
20
269.586349
42
0.202902
0
VERTEX
8
0
10
2005.319318
20
268.854411
0
VERTEX
8
0
10
2004.612
20
268.147
42
-0.405145
0
VERTEX
8
0
10
2001.132093
20
268.092920
42
0.115884
0
VERTEX
8
0
10
1970.235203
20
285.931247
42
-0.405145
0
VERTEX
8
0
10
1968.542118
20
288.971850
0
VERTEX
8
0
10
1968.801
20
289.938
42
0.202902
0
VERTEX
8
0
10
1968.531881
20
291.868347
42
0.202902
0
VERTEX
8
0
10
1966.958915
20
293.018810
42
0.116077
0
VERTEX
8
0
10
1928.475555
20
293.018810
42
0.202902
0
VERTEX
8
0
10
1926.902589
20
291.868347
42
0.202902
0
VERTEX
8
0
10
1926.633409
20
289.938236
0
VERTEX
8
0
10
1926.892
20
288.972
42
-0.405145
0
VERTEX
8
0
10
1925.199267
20
285.931247
42
0.115884
0
VERTEX
8
0
10
1894.302377
20
268.092920
42
-0.405145
0
VERTEX
8
0
10
1890.822595
20
268.146967
0
VERTEX
8
0
10
1890.115
20
268.854
42
0.202902
0
VERTEX
8
0
10
1888.309037
20
269.586349
42
0.202902
0
VERTEX
8
0
10
1886.526224
20
268.799353
42
0.116077
0
VERTEX
8
0
10
1867.284543
20
235.471785
42
0.202902
0
VERTEX
8
0
10
1867.494391
20
233.534325
42
0.202902
0
VERTEX
8
0
10
1869.031326
20
232.336153
0
VERTEX
8
0
10
1869.998
20
232.077
42
-0.405145
0
VERTEX
8
0
10
1871.784409
20
229.090655
42
0.115884
0
VERTEX
8
0
10
1871.784409
20
193.414000
42
-0.405145
0
VERTEX
8
0
10
1869.997712
20
190.427444
0
VERTEX
8
0
10
1869.031
20
190.168
42
0.202902
0
VERTEX
8
0
10
1867.494391
20
188.970329
42
0.202902
0
VERTEX
8
0
10
1867.284543
20
187.032870
42
0.116077
0
VERTEX
8
0
10
1886.526224
20
153.705302
42
0.202902
0
VERTEX
8
0
10
1888.309037
20
152.918305
42
0.202902
0
VERTEX
8
0
10
1890.115152
20
153.650244
0
VERTEX
8
0
10
1890.822
20
154.358
42
-0.405145
0
VERTEX
8
0
10
1894.302377
20
154.411735
42
0.115884
0
VERTEX
8
0
10
1925.199267
20
136.573407
42
-0.405145
0
VERTEX
8
0
10
1926.892352
20
133.532804
0
VERTEX
8
0
10
1926.633
20
132.566
42
0.202902
0
VERTEX
8
0
10
1926.902589
20
130.636307
42
0.202902
0
VERTEX
8
0
10
1928.475555
20
129.485844
42
0.116077
0
VERTEX
8
0
10
1966.958915
20
129.485844
42
0.202902
0
VERTEX
8
0
10
1968.531881
20
130.636307
42
0.202902
0
VERTEX
8
0
10
1968.801061
20
132.566418
0
VERTEX
8
0
10
1968.542
20
133.533
42
-0.405145
0
VERTEX
8
0
10
1970.235203
20
136.573407
42
0.115884
0
VERTEX
8
0
10
2001.132093
20
154.411735
42
-0.405145
0
VERTEX
8
0
10
2004.611874
20
154.357688
0
VERTEX
8
0
10
2005.319
20
153.650
42
0.202902
0
VERTEX
8
0
10
2007.125433
20
152.918305
42
0.202902
0
VERTEX
8
0
10
2008.908246
20
153.705302
42
0.116077
0
VERTEX
8
0
10
2028.149926
20
187.032870
42
0.202902
0
VERTEX
8
0
10
2027.940079
20
188.970329
42
0.202902
0
VERTEX
8
0
10
2026.403144
20
190.168501
0
VERTEX
8
0
10
2025.437
20
190.427
42
-0.405145
0
VERTEX
8
0
10
2023.650061
20
193.414000
42
0.115881
0
VERTEX
8
0
10
2023.650128
20
229.091069
0
SEQEND
0
POLYLINE
70
1
62
7
8
0
66
1
0
VERTEX
8
0
10
1544.643
20
191.193
0
VERTEX
8
0
10
1623.643
20
191.193
42
-0.198912
0
VERTEX
8
0
10
1627.885737
20
189.435764
42
-0.198912
0
VERTEX
8
0
10
1629.643096
20
185.193123
0
VERTEX
8
0
10
1629.643
20
106.193
42
-0.198913
0
VERTEX
8
0
10
1627.885631
20
101.950374
42
-0.198913
0
VERTEX
8
0
10
1623.643096
20
100.193123
0
VERTEX
8
0
10
1544.643
20
100.193
42
-0.198913
0
VERTEX
8
0
10
1540.400347
20
101.950374
42
-0.198913
0
VERTEX
8
0
10
1538.643096
20
106.193123
0
VERTEX
8
0
10
1538.643
20
185.193
42
-0.198912
0
VERTEX
8
0
10
1540.400455
20
189.435764
42
-0.198954
0
VERTEX
8
0
10
1544.642989
20
191.192865
0
SEQEND
0
POLYLINE
70
1
62
7
8
0
66
1
0
VERTEX
8
0
10
1451.233
20
248.154
0
VERTEX
8
0
10
1451.233
20
239.154
0
VERTEX
8
0
10
1446.483
20
239.154
0
VERTEX
8
0
10
1446.483
20
257.154
0
VERTEX
8
0
10
1536.483
20
257.154
0
VERTEX
8
0
10
1536.483
20
239.154
0
VERTEX
8
0
10
1531.733
20
239.154
0
VERTEX
8
0
10
1531.733
20
248.154
42
0.267949
0
VERTEX
8
0
10
1530.108397
20
250.968458
42
0.267949
0
VERTEX
8
0
10
1526.858397
20
250.968458
42
0.267949
0
VERTEX
8
0
10
1525.233397
20
248.153875
0
VERTEX
8
0
10
1525.233
20
239.154
0
VERTEX
8
0
10
1457.733
20
239.154
0
VERTEX
8
0
10
1457.733
20
248.154
42
0.267949
0
VERTEX
8
0
10
1456.108397
20
250.968458
42
0.267949
0
VERTEX
8
0
10
1452.858397
20
250.968458
42
0.267886
0
VERTEX
8
0
10
1451.233124
20
248.153669
0
SEQEND
0
POLYLINE
70
1
62
7
8
0
66
1
0
VERTEX
8
0
10
1463.473
20
280.408
0
VERTEX
8
0
10
1463.473
20
271.408
0
VERTEX
8
0
10
1456.723
20
271.408
0
VERTEX
8
0
10
1456.723
20
289.408
0
VERTEX
8
0
10
1536.723
20
289.408
0
VERTEX
8
0
10
1536.723
20
271.408
0
VERTEX
8
0
10
1529.973
20
271.408
0
VERTEX
8
0
10
1529.973
20
280.408
42
0.267949
0
VERTEX
8
0
10
1528.348042
20
283.221936
42
0.267949
0
VERTEX
8
0
10
1525.098042
20
283.221936
42
0.267949
0
VERTEX
8
0
10
1523.473042
20
280.407354
0
VERTEX
8
0
10
1523.473
20
271.408
0
VERTEX
8
0
10
1469.973
20
271.408
0
VERTEX
8
0
10
1469.973
20
280.408
42
0.267949
0
VERTEX
8
0
10
1468.348042
20
283.221936
42
0.267949
0
VERTEX
8
0
10
1465.098042
20
283.221936
42
0.267968
0
VERTEX
8
0
10
1463.473124
20
280.407669
0
SEQEND
0
POLYLINE
70
1
62
7
8
0
66
1
0
VERTEX
8
0
10
1477.339
20
380.052
0
VERTEX
8
0
10
1509.339
20
380.052
0
VERTEX
8
0
10
1519.339
20
370.052
0
VERTEX
8
0
10
1519.339
20
338.052
0
VERTEX
8
0
10
1477.339
20
338.052
0
VERTEX
8
0
10
1477.339
20
380.052
0
SEQEND
0
POLYLINE
70
1
62
7
8
0
66
1
0
VERTEX
8
0
10
1743.365
20
96.140
0
VERTEX
8
0
10
1743.365
20
87.140
0
VERTEX
8
0
10
1738.615
20
87.140
0
VERTEX
8
0
10
1738.615
20
105.140
0
VERTEX
8
0
10
1828.615
20
105.140
0
VERTEX
8
0
10
1828.615
20
87.140
0
VERTEX
8
0
10
1823.865
20
87.140
0
VERTEX
8
0
10
1823.865
20
96.140
42
0.267949
0
VERTEX
8
0
10
1822.240160
20
98.954192
42
0.267949
0
VERTEX
8
0
10
1818.990160
20
98.954192
42
0.267949
0
VERTEX
8
0
10
1817.365160
20
96.139609
0
VERTEX
8
0
10
1817.365
20
87.140
0
VERTEX
8
0
10
1749.865
20
87.140
0
VERTEX
8
0
10
1749.865
20
96.140
42
0.267949
0
VERTEX
8
0
10
1748.240160
20
98.954192
42
0.267949
0
VERTEX
8
0
10
1744.990160
20
98.954192
42
0.267941
0
VERTEX
8
0
10
1743.365124
20
96.139669
0
SEQEND
0
POLYLINE
70
1
62
7
8
0
66
1
0
VERTEX
8
0
10
1755.605
20
128.393
0
VERTEX
8
0
10
1755.605
20
119.393
0
VERTEX
8
0
10
1748.855
20
119.393
0
VERTEX
8
0
10
1748.855
20
137.393
0
VERTEX
8
0
10
1828.855
20
137.393
0
VERTEX
8
0
10
1828.855
20
119.393
0
VERTEX
8
0
10
1822.105
20
119.393
0
VERTEX
8
0
10
1822.105
20
128.393
42
0.267949
0
VERTEX
8
0
10
1820.479805
20
131.207671
42
0.267949
0
VERTEX
8
0
10
1817.229805
20
131.207671
42
0.267949
0
VERTEX
8
0
10
1815.604805
20
128.393088
0
VERTEX
8
0
10
1815.605
20
119.393
0
VERTEX
8
0
10
1762.105
20
119.393
0
VERTEX
8
0
10
1762.105
20
128.393
42
0.267949
0
VERTEX
8
0
10
1760.479805
20
131.207671
42
0.267949
0
VERTEX
8
0
10
1757.229805
20
131.207671
42
0.268023
0
VERTEX
8
0
10
1755.605124
20
128.392669
0
SEQEND
0
POLYLINE
70
1
62
7
8
0
66
1
0
VERTEX
8
0
10
1769.471
20
228.037
0
VERTEX
8
0
10
1801.471
20
228.037
0
VERTEX
8
0
10
1811.471
20
218.037
0
VERTEX
8
0
10
1811.471
20
186.037
0
VERTEX
8
0
10
1769.471
20
186.037
0
VERTEX
8
0
10
1769.471
20
228.037
0
SEQEND
0
POLYLINE
70
1
62
7
8
0
66
1
0
VERTEX
8
0
10
1735.434
20
266.660
0
VERTEX
8
0
10
1735.434
20
257.660
0
VERTEX
8
0
10
1730.684
20
257.660
0
VERTEX
8
0
10
1730.684
20
275.660
0
VERTEX
8
0
10
1820.684
20
275.660
0
VERTEX
8
0
10
1820.684
20
257.660
0
VERTEX
8
0
10
1815.934
20
257.660
0
VERTEX
8
0
10
1815.934
20
266.660
42
0.267949
0
VERTEX
8
0
10
1814.308981
20
269.474542
42
0.267949
0
VERTEX
8
0
10
1811.058981
20
269.474542
42
0.267949
0
VERTEX
8
0
10
1809.433981
20
266.659960
0
VERTEX
8
0
10
1809.434
20
257.660
0
VERTEX
8
0
10
1741.934
20
257.660
0
VERTEX
8
0
10
1741.934
20
266.660
42
0.267949
0
VERTEX
8
0
10
1740.308981
20
269.474542
42
0.267949
0
VERTEX
8
0
10
1737.058981
20
269.474542
42
0.267982
0
VERTEX
8
0
10
1735.434124
20
266.659669
0
SEQEND
0
POLYLINE
70
1
62
7
8
0
66
1
0
VERTEX
8
0
10
1747.674
20
298.914
0
VERTEX
8
0
10
1747.674
20
289.914
0
VERTEX
8
0
10
1740.924
20
289.914
0
VERTEX
8
0
10
1740.924
20
307.914
0
VERTEX
8
0
10
1820.924
20
307.914
0
VERTEX
8
0
10
1820.924
20
289.914
0
VERTEX
8
0
10
1814.174
20
289.914
0
VERTEX
8
0
10
1814.174
20
298.914
42
0.267949
0
VERTEX
8
0
10
1812.548626
20
301.728021
42
0.267949
0
VERTEX
8
0
10
1809.298626
20
301.728021
42
0.267949
0
VERTEX
8
0
10
1807.673626
20
298.913438
0
VERTEX
8
0
10
1807.674
20
289.914
0
VERTEX
8
0
10
1754.174
20
289.914
0
VERTEX
8
0
10
1754.174
20
298.914
42
0.267949
0
VERTEX
8
0
10
1752.548626
20
301.728021
42
0.267949
0
VERTEX
8
0
10
1749.298626
20
301.728021
42
0.268064
0
VERTEX
8
0
10
1747.674124
20
298.913669
0
SEQEND
0
POLYLINE
70
1
62
7
8
0
66
1
0
VERTEX
8
0
10
1761.540
20
398.558
0
VERTEX
8
0
10
1793.540
20
398.558
0
VERTEX
8
0
10
1803.540
20
388.558
0
VERTEX
8
0
10
1803.540
20
356.558
0
VERTEX
8
0
10
1761.540
20
356.558
0
VERTEX
8
0
10
1761.540
20
398.558
0
SEQEND
0
POLYLINE
70
1
62
7
8
0
66
1
0
VERTEX
8
0
10
1588.707
20
303.672
0
VERTEX
8
0
10
1588.707
20
294.672
0
VERTEX
8
0
10
1583.957
20
294.672
0
VERTEX
8
0
10
1583.957
20
312.672
0
VERTEX
8
0
10
1673.957
20
312.672
0
VERTEX
8
0
10
1673.957
20
294.672
0
VERTEX
8
0
10
1669.207
20
294.672
0
VERTEX
8
0
10
1669.207
20
303.672
42
0.267949
0
VERTEX
8
0
10
1667.582168
20
306.486711
42
0.267949
0
VERTEX
8
0
10
1664.332168
20
306.486711
42
0.267949
0
VERTEX
8
0
10
1662.707168
20
303.672129
0
VERTEX
8
0
10
1662.707
20
294.672
0
VERTEX
8
0
10
1595.207
20
294.672
0
VERTEX
8
0
10
1595.207
20
303.672
42
0.267949
0
VERTEX
8
0
10
1593.582168
20
306.486711
42
0.267949
0
VERTEX
8
0
10
1590.332168
20
306.486711
42
0.267939
0
VERTEX
8
0
10
1588.707124
20
303.671669
0
SEQEND
0
POLYLINE
70
1
62
7
8
0
66
1
0
VERTEX
8
0
10
1600.947
20
335.926
0
VERTEX
8
0
10
1600.947
20
326.926
0
VERTEX
8
0
10
1594.197
20
326.926
0
VERTEX
8
0
10
1594.197
20
344.926
0
VERTEX
8
0
10
1674.197
20
344.926
0
VERTEX
8
0
10
1674.197
20
326.926
0
VERTEX
8
0
10
1667.447
20
326.926
0
VERTEX
8
0
10
1667.447
20
335.926
42
0.267949
0
VERTEX
8
0
10
1665.821813
20
338.740190
42
0.267949
0
VERTEX
8
0
10
1662.571813
20
338.740190
42
0.267949
0
VERTEX
8
0
10
1660.946813
20
335.925607
0
VERTEX
8
0
10
1660.947
20
326.926
0
VERTEX
8
0
10
1607.447
20
326.926
0
VERTEX
8
0
10
1607.447
20
335.926
42
0.267949
0
VERTEX
8
0
10
1605.821813
20
338.740190
42
0.267949
0
VERTEX
8
0
10
1602.571813
20
338.740190
42
0.268021
0
VERTEX
8
0
10
1600.947124
20
335.925669
0
SEQEND
0
POLYLINE
70
1
62
7
8
0
66
1
0
VERTEX
8
0
10
1614.813
20
435.570
0
VERTEX
8
0
10
1646.813
20
435.570
0
VERTEX
8
0
10
1656.813
20
425.570
0
VERTEX
8
0
10
1656.813
20
393.570
0
VERTEX
8
0
10
1614.813
20
393.570
0
VERTEX
8
0
10
1614.813
20
435.570
0
SEQEND
0
POLYLINE
70
1
62
7
8
0
66
1
0
VERTEX
8
0
10
1484.490
20
485.885
0
VERTEX
8
0
10
1484.490
20
476.885
0
VERTEX
8
0
10
1479.740
20
476.885
0
VERTEX
8
0
10
1479.740
20
494.885
0
VERTEX
8
0
10
1569.740
20
494.885
0
VERTEX
8
0
10
1569.740
20
476.885
0
VERTEX
8
0
10
1564.990
20
476.885
0
VERTEX
8
0
10
1564.990
20
485.885
42
0.267949
0
VERTEX
8
0
10
1563.364977
20
488.700068
42
0.267949
0
VERTEX
8
0
10
1560.114977
20
488.700068
42
0.267949
0
VERTEX
8
0
10
1558.489977
20
485.885485
0
VERTEX
8
0
10
1558.490
20
476.885
0
VERTEX
8
0
10
1490.990
20
476.885
0
VERTEX
8
0
10
1490.990
20
485.885
42
0.267949
0
VERTEX
8
0
10
1489.364977
20
488.700068
42
0.267949
0
VERTEX
8
0
10
1486.114977
20
488.700068
42
0.267949
0
VERTEX
8
0
10
1484.489977
20
485.885485
0
SEQEND
0
POLYLINE
70
1
62
7
8
0
66
1
0
VERTEX
8
0
10
1496.730
20
518.138
0
VERTEX
8
0
10
1496.730
20
509.138
0
VERTEX
8
0
10
1489.980
20
509.138
0
VERTEX
8
0
10
1489.980
20
527.138
0
VERTEX
8
0
10
1569.980
20
527.138
0
VERTEX
8
0
10
1569.980
20
509.138
0
VERTEX
8
0
10
1563.230
20
509.138
0
VERTEX
8
0
10
1563.230
20
518.138
42
0.267949
0
VERTEX
8
0
10
1561.604622
20
520.953546
42
0.267949
0
VERTEX
8
0
10
1558.354622
20
520.953546
42
0.267949
0
VERTEX
8
0
10
1556.729622
20
518.138964
0
VERTEX
8
0
10
1556.730
20
509.138
0
VERTEX
8
0
10
1503.230
20
509.138
0
VERTEX
8
0
10
1503.230
20
518.138
42
0.267949
0
VERTEX
8
0
10
1501.604622
20
520.953546
42
0.267949
0
VERTEX
8
0
10
1498.354622
20
520.953546
42
0.268031
0
VERTEX
8
0
10
1496.729977
20
518.138485
0
SEQEND
0
POLYLINE
70
1
62
7
8
0
66
1
0
VERTEX
8
0
10
1510.596
20
617.782
0
VERTEX
8
0
10
1542.596
20
617.782
0
VERTEX
8
0
10
1552.596
20
607.782
0
VERTEX
8
0
10
1552.596
20
575.782
0
VERTEX
8
0
10
1510.596
20
575.782
0
VERTEX
8
0
10
1510.596
20
617.782
0
SEQEND
0
POLYLINE
70
1
62
7
8
0
66
1
0
VERTEX
8
0
10
1766.725
20
568.236
42
0.198913
0
VERTEX
8
0
10
1757.381913
20
590.793224
42
0.198913
0
VERTEX
8
0
10
1734.825200
20
600.136662
42
0.198913
0
VERTEX
8
0
10
1712.268486
20
590.793375
42
0.198913
0
VERTEX
8
0
10
1702.925200
20
568.236662
42
0.198913
0
VERTEX
8
0
10
1712.268486
20
545.679949
42
0.198913
0
VERTEX
8
0
10
1734.825200
20
536.336662
42
0.198913
0
VERTEX
8
0
10
1757.381913
20
545.679949
42
0.198916
0
VERTEX
8
0
10
1766.725093
20
568.236404
0
SEQEND
0
POLYLINE
70
1
62
7
8
0
66
1
0
VERTEX
8
0
10
2071.945
20
634.875
42
-0.405145
0
VERTEX
8
0
10
2073.731611
20
637.861026
0
VERTEX
8
0
10
2074.698
20
638.120
42
0.202902
0
VERTEX
8
0
10
2076.234932
20
639.318140
42
0.202902
0
VERTEX
8
0
10
2076.444779
20
641.255600
42
0.116077
0
VERTEX
8
0
10
2057.203099
20
674.583168
42
0.202902
0
VERTEX
8
0
10
2055.420286
20
675.370164
42
0.202902
0
VERTEX
8
0
10
2053.614171
20
674.638226
0
VERTEX
8
0
10
2052.907
20
673.931
42
-0.405145
0
VERTEX
8
0
10
2049.426946
20
673.876735
42
0.115884
0
VERTEX
8
0
10
2018.530056
20
691.715062
42
-0.405145
0
VERTEX
8
0
10
2016.836971
20
694.755665
0
VERTEX
8
0
10
2017.096
20
695.722
42
0.202902
0
VERTEX
8
0
10
2016.826734
20
697.652162
42
0.202902
0
VERTEX
8
0
10
2015.253768
20
698.802625
42
0.116077
0
VERTEX
8
0
10
1976.770408
20
698.802625
42
0.202902
0
VERTEX
8
0
10
1975.197442
20
697.652162
42
0.202902
0
VERTEX
8
0
10
1974.928262
20
695.722051
0
VERTEX
8
0
10
1975.187
20
694.756
42
-0.405145
0
VERTEX
8
0
10
1973.494120
20
691.715062
42
0.115884
0
VERTEX
8
0
10
1942.597230
20
673.876735
42
-0.405145
0
VERTEX
8
0
10
1939.117448
20
673.930782
0
VERTEX
8
0
10
1938.410
20
674.638
42
0.202902
0
VERTEX
8
0
10
1936.603890
20
675.370164
42
0.202902
0
VERTEX
8
0
10
1934.821077
20
674.583168
42
0.116077
0
VERTEX
8
0
10
1915.579396
20
641.255600
42
0.202902
0
VERTEX
8
0
10
1915.789244
20
639.318140
42
0.202902
0
VERTEX
8
0
10
1917.326179
20
638.119968
0
VERTEX
8
0
10
1918.293
20
637.861
42
-0.405145
0
VERTEX
8
0
10
1920.079262
20
634.874470
42
0.115884
0
VERTEX
8
0
10
1920.079262
20
599.197815
42
-0.405145
0
VERTEX
8
0
10
1918.292565
20
596.211259
0
VERTEX
8
0
10
1917.326
20
595.952
42
0.202902
0
VERTEX
8
0
10
1915.789244
20
594.754144
42
0.202902
0
VERTEX
8
0
10
1915.579396
20
592.816685
42
0.116077
0
VERTEX
8
0
10
1934.821077
20
559.489117
42
0.202902
0
VERTEX
8
0
10
1936.603890
20
558.702120
42
0.202902
0
VERTEX
8
0
10
1938.410005
20
559.434059
0
VERTEX
8
0
10
1939.117
20
560.142
42
-0.405145
0
VERTEX
8
0
10
1942.597230
20
560.195550
42
0.115884
0
VERTEX
8
0
10
1973.494120
20
542.357222
42
-0.405145
0
VERTEX
8
0
10
1975.187205
20
539.316619
0
VERTEX
8
0
10
1974.928
20
538.350
42
0.202902
0
VERTEX
8
0
10
1975.197442
20
536.420122
42
0.202902
0
VERTEX
8
0
10
1976.770408
20
535.269659
42
0.116077
0
VERTEX
8
0
10
2015.253768
20
535.269659
42
0.202902
0
VERTEX
8
0
10
2016.826734
20
536.420122
42
0.202902
0
VERTEX
8
0
10
2017.095914
20
538.350233
0
VERTEX
8
0
10
2016.837
20
539.317
42
-0.405145
0
VERTEX
8
0
10
2018.530056
20
542.357222
42
0.115884
0
VERTEX
8
0
10
2049.426946
20
560.195550
42
-0.405145
0
VERTEX
8
0
10
2052.906727
20
560.141503
0
VERTEX
8
0
10
2053.614
20
559.434
42
0.202902
0
VERTEX
8
0
10
2055.420286
20
558.702120
42
0.202902
0
VERTEX
8
0
10
2057.203099
20
559.489117
42
0.116077
0
VERTEX
8
0
10
2076.444779
20
592.816685
42
0.202902
0
VERTEX
8
0
10
2076.234932
20
594.754144
42
0.202902
0
VERTEX
8
0
10
2074.697997
20
595.952316
0
VERTEX
8
0
10
2073.732
20
596.211
42
-0.405145
0
VERTEX
8
0
10
2071.944914
20
599.197815
42
0.115881
0
VERTEX
8
0
10
2071.944981
20
634.874884
0
SEQEND
0
POLYLINE
70
1
62
7
8
0
66
1
0
VERTEX
8
0
10
1592.938
20
596.977
0
VERTEX
8
0
10
1671.938
20
596.977
42
-0.198912
0
VERTEX
8
0
10
1676.180590
20
595.219579
42
-0.198912
0
VERTEX
8
0
10
1677.937949
20
590.976938
0
VERTEX
8
0
10
1677.938
20
511.977
42
-0.198913
0
VERTEX
8
0
10
1676.180484
20
507.734189
42
-0.198913
0
VERTEX
8
0
10
1671.937949
20
505.976938
0
VERTEX
8
0
10
1592.938
20
505.977
42
-0.198913
0
VERTEX
8
0
10
1588.695200
20
507.734189
42
-0.198913
0
VERTEX
8
0
10
1586.937949
20
511.976938
0
VERTEX
8
0
10
1586.938
20
590.977
42
-0.198912
0
VERTEX
8
0
10
1588.695308
20
595.219579
42
-0.198954
0
VERTEX
8
0
10
1592.937842
20
596.976680
0
SEQEND
0
POLYLINE
70
1
62
7
8
0
66
1
0
VERTEX
8
0
10
1499.528
20
653.937
0
VERTEX
8
0
10
1499.528
20
644.937
0
VERTEX
8
0
10
1494.778
20
644.937
0
VERTEX
8
0
10
1494.778
20
662.937
0
VERTEX
8
0
10
1584.778
20
662.937
0
VERTEX
8
0
10
1584.778
20
644.937
0
VERTEX
8
0
10
1580.028
20
644.937
0
VERTEX
8
0
10
1580.028
20
653.937
42
0.267949
0
VERTEX
8
0
10
1578.403250
20
656.752274
42
0.267949
0
VERTEX
8
0
10
1575.153250
20
656.752274
42
0.267949
0
VERTEX
8
0
10
1573.528250
20
653.937691
0
VERTEX
8
0
10
1573.528
20
644.937
0
VERTEX
8
0
10
1506.028
20
644.937
0
VERTEX
8
0
10
1506.028
20
653.937
42
0.267949
0
VERTEX
8
0
10
1504.403250
20
656.752274
42
0.267949
0
VERTEX
8
0
10
1501.153250
20
656.752274
42
0.267886
0
VERTEX
8
0
10
1499.527977
20
653.937485
0
SEQEND
0
POLYLINE
70
1
62
7
8
0
66
1
0
VERTEX
8
0
10
1511.768
20
686.191
0
VERTEX
8
0
10
1511.768
20
677.191
0
VERTEX
8
0
10
1505.018
20
677.191
0
VERTEX
8
0
10
1505.018
20
695.191
0
VERTEX
8
0
10
1585.018
20
695.191
0
VERTEX
8
0
10
1585.018
20
677.191
0
VERTEX
8
0
10
1578.268
20
677.191
0
VERTEX
8
0
10
1578.268
20
686.191
42
0.267949
0
VERTEX
8
0
10
1576.642895
20
689.005752
42
0.267949
0
VERTEX
8
0
10
1573.392895
20
689.005752
42
0.267949
0
VERTEX
8
0
10
1571.767895
20
686.191170
0
VERTEX
8
0
10
1571.768
20
677.191
0
VERTEX
8
0
10
1518.268
20
677.191
0
VERTEX
8
0
10
1518.268
20
686.191
42
0.267949
0
VERTEX
8
0
10
1516.642895
20
689.005752
42
0.267949
0
VERTEX
8
0
10
1513.392895
20
689.005752
42
0.267968
0
VERTEX
8
0
10
1511.767977
20
686.191485
0
SEQEND
0
POLYLINE
70
1
62
7
8
0
66
1
0
VERTEX
8
0
10
1525.634
20
785.835
0
VERTEX
8
0
10
1557.634
20
785.835
0
VERTEX
8
0
10
1567.634
20
775.835
0
VERTEX
8
0
10
1567.634
20
743.835
0
VERTEX
8
0
10
1525.634
20
743.835
0
VERTEX
8
0
10
1525.634
20
785.835
0
SEQEND
0
POLYLINE
70
1
62
7
8
0
66
1
0
VERTEX
8
0
10
1791.660
20
501.923
0
VERTEX
8
0
10
1791.660
20
492.923
0
VERTEX
8
0
10
1786.910
20
492.923
0
VERTEX
8
0
10
1786.910
20
510.923
0
VERTEX
8
0
10
1876.910
20
510.923
0
VERTEX
8
0
10
1876.910
20
492.923
0
VERTEX
8
0
10
1872.160
20
492.923
0
VERTEX
8
0
10
1872.160
20
501.923
42
0.267949
0
VERTEX
8
0
10
1870.535013
20
504.738008
42
0.267949
0
VERTEX
8
0
10
1867.285013
20
504.738008
42
0.267949
0
VERTEX
8
0
10
1865.660013
20
501.923425
0
VERTEX
8
0
10
1865.660
20
492.923
0
VERTEX
8
0
10
1798.160
20
492.923
0
VERTEX
8
0
10
1798.160
20
501.923
42
0.267949
0
VERTEX
8
0
10
1796.535013
20
504.738008
42
0.267949
0
VERTEX
8
0
10
1793.285013
20
504.738008
42
0.267941
0
VERTEX
8
0
10
1791.659977
20
501.923485
0
SEQEND
0
POLYLINE
70
1
62
7
8
0
66
1
0
VERTEX
8
0
10
1803.900
20
534.176
0
VERTEX
8
0
10
1803.900
20
525.176
0
VERTEX
8
0
10
1797.150
20
525.176
0
VERTEX
8
0
10
1797.150
20
543.176
0
VERTEX
8
0
10
1877.150
20
543.176
0
VERTEX
8
0
10
1877.150
20
525.176
0
VERTEX
8
0
10
1870.400
20
525.176
0
VERTEX
8
0
10
1870.400
20
534.176
42
0.267949
0
VERTEX
8
0
10
1868.774658
20
536.991487
42
0.267949
0
VERTEX
8
0
10
1865.524658
20
536.991487
42
0.267949
0
VERTEX
8
0
10
1863.899658
20
534.176904
0
VERTEX
8
0
10
1863.900
20
525.176
0
VERTEX
8
0
10
1810.400
20
525.176
0
VERTEX
8
0
10
1810.400
20
534.176
42
0.267949
0
VERTEX
8
0
10
1808.774658
20
536.991487
42
0.267949
0
VERTEX
8
0
10
1805.524658
20
536.991487
42
0.268023
0
VERTEX
8
0
10
1803.899977
20
534.176485
0
SEQEND
0
POLYLINE
70
1
62
7
8
0
66
1
0
VERTEX
8
0
10
1817.766
20
633.820
0
VERTEX
8
0
10
1849.766
20
633.820
0
VERTEX
8
0
10
1859.766
20
623.820
0
VERTEX
8
0
10
1859.766
20
591.820
0
VERTEX
8
0
10
1817.766
20
591.820
0
VERTEX
8
0
10
1817.766
20
633.820
0
SEQEND
0
POLYLINE
70
1
62
7
8
0
66
1
0
VERTEX
8
0
10
1783.729
20
672.443
0
VERTEX
8
0
10
1783.729
20
663.443
0
VERTEX
8
0
10
1778.979
20
663.443
0
VERTEX
8
0
10
1778.979
20
681.443
0
VERTEX
8
0
10
1868.979
20
681.443
0
VERTEX
8
0
10
1868.979
20
663.443
0
VERTEX
8
0
10
1864.229
20
663.443
0
VERTEX
8
0
10
1864.229
20
672.443
42
0.267949
0
VERTEX
8
0
10
1862.603834
20
675.258358
42
0.267949
0
VERTEX
8
0
10
1859.353834
20
675.258358
42
0.267949
0
VERTEX
8
0
10
1857.728834
20
672.443776
0
VERTEX
8
0
10
1857.729
20
663.443
0
VERTEX
8
0
10
1790.229
20
663.443
0
VERTEX
8
0
10
1790.229
20
672.443
42
0.267949
0
VERTEX
8
0
10
1788.603834
20
675.258358
42
0.267949
0
VERTEX
8
0
10
1785.353834
20
675.258358
42
0.267982
0
VERTEX
8
0
10
1783.728977
20
672.443485
0
SEQEND
0
POLYLINE
70
1
62
7
8
0
66
1
0
VERTEX
8
0
10
1795.969
20
704.697
0
VERTEX
8
0
10
1795.969
20
695.697
0
VERTEX
8
0
10
1789.219
20
695.697
0
VERTEX
8
0
10
1789.219
20
713.697
0
VERTEX
8
0
10
1869.219
20
713.697
0
VERTEX
8
0
10
1869.219
20
695.697
0
VERTEX
8
0
10
1862.469
20
695.697
0
VERTEX
8
0
10
1862.469
20
704.697
42
0.267949
0
VERTEX
8
0
10
1860.843479
20
707.511837
42
0.267949
0
VERTEX
8
0
10
1857.593479
20
707.511837
42
0.267949
0
VERTEX
8
0
10
1855.968479
20
704.697254
0
VERTEX
8
0
10
1855.969
20
695.697
0
VERTEX
8
0
10
1802.469
20
695.697
0
VERTEX
8
0
10
1802.469
20
704.697
42
0.267949
0
VERTEX
8
0
10
1800.843479
20
707.511837
42
0.267949
0
VERTEX
8
0
10
1797.593479
20
707.511837
42
0.268064
0
VERTEX
8
0
10
1795.968977
20
704.697485
0
SEQEND
0
POLYLINE
70
1
62
7
8
0
66
1
0
VERTEX
8
0
10
1809.835
20
804.341
0
VERTEX
8
0
10
1841.835
20
804.341
0
VERTEX
8
0
10
1851.835
20
794.341
0
VERTEX
8
0
10
1851.835
20
762.341
0
VERTEX
8
0
10
1809.835
20
762.341
0
VERTEX
8
0
10
1809.835
20
804.341
0
SEQEND
0
POLYLINE
70
1
62
7
8
0
66
1
0
VERTEX
8
0
10
1637.002
20
709.455
0
VERTEX
8
0
10
1637.002
20
700.455
0
VERTEX
8
0
10
1632.252
20
700.455
0
VERTEX
8
0
10
1632.252
20
718.455
0
VERTEX
8
0
10
1722.252
20
718.455
0
VERTEX
8
0
10
1722.252
20
700.455
0
VERTEX
8
0
10
1717.502
20
700.455
0
VERTEX
8
0
10
1717.502
20
709.455
42
0.267949
0
VERTEX
8
0
10
1715.877021
20
712.270527
42
0.267949
0
VERTEX
8
0
10
1712.627021
20
712.270527
42
0.267949
0
VERTEX
8
0
10
1711.002021
20
709.455945
0
VERTEX
8
0
10
1711.002
20
700.455
0
VERTEX
8
0
10
1643.502
20
700.455
0
VERTEX
8
0
10
1643.502
20
709.455
42
0.267949
0
VERTEX
8
0
10
1641.877021
20
712.270527
42
0.267949
0
VERTEX
8
0
10
1638.627021
20
712.270527
42
0.267939
0
VERTEX
8
0
10
1637.001977
20
709.455485
0
SEQEND
0
POLYLINE
70
1
62
7
8
0
66
1
0
VERTEX
8
0
10
1649.242
20
741.709
0
VERTEX
8
0
10
1649.242
20
732.709
0
VERTEX
8
0
10
1642.492
20
732.709
0
VERTEX
8
0
10
1642.492
20
750.709
0
VERTEX
8
0
10
1722.492
20
750.709
0
VERTEX
8
0
10
1722.492
20
732.709
0
VERTEX
8
0
10
1715.742
20
732.709
0
VERTEX
8
0
10
1715.742
20
741.709
42
0.267949
0
VERTEX
8
0
10
1714.116666
20
744.524006
42
0.267949
0
VERTEX
8
0
10
1710.866666
20
744.524006
42
0.267949
0
VERTEX
8
0
10
1709.241666
20
741.709423
0
VERTEX
8
0
10
1709.242
20
732.709
0
VERTEX
8
0
10
1655.742
20
732.709
0
VERTEX
8
0
10
1655.742
20
741.709
42
0.267949
0
VERTEX
8
0
10
1654.116666
20
744.524006
42
0.267949
0
VERTEX
8
0
10
1650.866666
20
744.524006
42
0.268021
0
VERTEX
8
0
10
1649.241977
20
741.709485
0
SEQEND
0
POLYLINE
70
1
62
7
8
0
66
1
0
VERTEX
8
0
10
1663.108
20
841.353
0
VERTEX
8
0
10
1695.108
20
841.353
0
VERTEX
8
0
10
1705.108
20
831.353
0
VERTEX
8
0
10
1705.108
20
799.353
0
VERTEX
8
0
10
1663.108
20
799.353
0
VERTEX
8
0
10
1663.108
20
841.353
0
SEQEND
0
POLYLINE
70
1
62
7
8
0
66
1
0
VERTEX
8
0
10
2111.275
20
106.907
0
VERTEX
8
0
10
2111.275
20
97.907
0
VERTEX
8
0
10
2106.525
20
97.907
0
VERTEX
8
0
10
2106.525
20
115.907
0
VERTEX
8
0
10
2196.525
20
115.907
0
VERTEX
8
0
10
2196.525
20
97.907
0
VERTEX
8
0
10
2191.775
20
97.907
0
VERTEX
8
0
10
2191.775
20
106.907
42
0.267949
0
VERTEX
8
0
10
2190.150406
20
109.722037
42
0.267949
0
VERTEX
8
0
10
2186.900406
20
109.722037
42
0.267949
0
VERTEX
8
0
10
2185.275406
20
106.907454
0
VERTEX
8
0
10
2185.275
20
97.907
0
VERTEX
8
0
10
2117.775
20
97.907
0
VERTEX
8
0
10
2117.775
20
106.907
42
0.267949
0
VERTEX
8
0
10
2116.150406
20
109.722037
42
0.267949
0
VERTEX
8
0
10
2112.900406
20
109.722037
42
0.267949
0
VERTEX
8
0
10
2111.275406
20
106.907454
0
SEQEND
0
POLYLINE
70
1
62
7
8
0
66
1
0
VERTEX
8
0
10
2123.515
20
139.160
0
VERTEX
8
0
10
2123.515
20
130.160
0
VERTEX
8
0
10
2116.765
20
130.160
0
VERTEX
8
0
10
2116.765
20
148.160
0
VERTEX
8
0
10
2196.765
20
148.160
0
VERTEX
8
0
10
2196.765
20
130.160
0
VERTEX
8
0
10
2190.015
20
130.160
0
VERTEX
8
0
10
2190.015
20
139.160
42
0.267949
0
VERTEX
8
0
10
2188.390051
20
141.975515
42
0.267949
0
VERTEX
8
0
10
2185.140051
20
141.975515
42
0.267949
0
VERTEX
8
0
10
2183.515051
20
139.160933
0
VERTEX
8
0
10
2183.515
20
130.160
0
VERTEX
8
0
10
2130.015
20
130.160
0
VERTEX
8
0
10
2130.015
20
139.160
42
0.267949
0
VERTEX
8
0
10
2128.390051
20
141.975515
42
0.267949
0
VERTEX
8
0
10
2125.140051
20
141.975515
42
0.268031
0
VERTEX
8
0
10
2123.515406
20
139.160454
0
SEQEND
0
POLYLINE
70
1
62
7
8
0
66
1
0
VERTEX
8
0
10
2137.381
20
238.804
0
VERTEX
8
0
10
2169.381
20
238.804
0
VERTEX
8
0
10
2179.381
20
228.804
0
VERTEX
8
0
10
2179.381
20
196.804
0
VERTEX
8
0
10
2137.381
20
196.804
0
VERTEX
8
0
10
2137.381
20
238.804
0
SEQEND
0
POLYLINE
70
1
62
7
8
0
66
1
0
VERTEX
8
0
10
2393.511
20
189.258
42
0.198913
0
VERTEX
8
0
10
2384.167342
20
211.815194
42
0.198913
0
VERTEX
8
0
10
2361.610629
20
221.158631
42
0.198913
0
VERTEX
8
0
10
2339.053915
20
211.815345
42
0.198913
0
VERTEX
8
0
10
2329.710629
20
189.258631
42
0.198913
0
VERTEX
8
0
10
2339.053915
20
166.701918
42
0.198913
0
VERTEX
8
0
10
2361.610629
20
157.358631
42
0.198913
0
VERTEX
8
0
10
2384.167342
20
166.701918
42
0.198916
0
VERTEX
8
0
10
2393.510522
20
189.258373
0
SEQEND
0
POLYLINE
70
1
62
7
8
0
66
1
0
VERTEX
8
0
10
2698.730
20
255.897
42
-0.405145
0
VERTEX
8
0
10
2700.517040
20
258.882996
0
VERTEX
8
0
10
2701.483
20
259.142
42
0.202902
0
VERTEX
8
0
10
2703.020361
20
260.340110
42
0.202902
0
VERTEX
8
0
10
2703.230208
20
262.277570
42
0.116077
0
VERTEX
8
0
10
2683.988528
20
295.605138
42
0.202902
0
VERTEX
8
0
10
2682.205715
20
296.392134
42
0.202902
0
VERTEX
8
0
10
2680.399600
20
295.660196
0
VERTEX
8
0
10
2679.692
20
294.953
42
-0.405145
0
VERTEX
8
0
10
2676.212375
20
294.898705
42
0.115884
0
VERTEX
8
0
10
2645.315485
20
312.737032
42
-0.405145
0
VERTEX
8
0
10
2643.622400
20
315.777635
0
VERTEX
8
0
10
2643.881
20
316.744
42
0.202902
0
VERTEX
8
0
10
2643.612163
20
318.674132
42
0.202902
0
VERTEX
8
0
10
2642.039197
20
319.824595
42
0.116077
0
VERTEX
8
0
10
2603.555837
20
319.824595
42
0.202902
0
VERTEX
8
0
10
2601.982871
20
318.674132
42
0.202902
0
VERTEX
8
0
10
2601.713691
20
316.744021
0
VERTEX
8
0
10
2601.972
20
315.778
42
-0.405145
0
VERTEX
8
0
10
2600.279549
20
312.737032
42
0.115884
0
VERTEX
8
0
10
2569.382659
20
294.898705
42
-0.405145
0
VERTEX
8
0
10
2565.902877
20
294.952752
0
VERTEX
8
0
10
2565.195
20
295.660
42
0.202902
0
VERTEX
8
0
10
2563.389319
20
296.392134
42
0.202902
0
VERTEX
8
0
10
2561.606506
20
295.605138
42
0.116077
0
VERTEX
8
0
10
2542.364825
20
262.277570
42
0.202902
0
VERTEX
8
0
10
2542.574673
20
260.340110
42
0.202902
0
VERTEX
8
0
10
2544.111608
20
259.141938
0
VERTEX
8
0
10
2545.078
20
258.883
42
-0.405145
0
VERTEX
8
0
10
2546.864691
20
255.896440
42
0.115884
0
VERTEX
8
0
10
2546.864691
20
220.219785
42
-0.405145
0
VERTEX
8
0
10
2545.077994
20
217.233229
0
VERTEX
8
0
10
2544.111
20
216.974
42
0.202902
0
VERTEX
8
0
10
2542.574673
20
215.776114
42
0.202902
0
VERTEX
8
0
10
2542.364825
20
213.838655
42
0.116077
0
VERTEX
8
0
10
2561.606506
20
180.511087
42
0.202902
0
VERTEX
8
0
10
2563.389319
20
179.724090
42
0.202902
0
VERTEX
8
0
10
2565.195434
20
180.456029
0
VERTEX
8
0
10
2565.902
20
181.164
42
-0.405145
0
VERTEX
8
0
10
2569.382659
20
181.217520
42
0.115884
0
VERTEX
8
0
10
2600.279549
20
163.379192
42
-0.405145
0
VERTEX
8
0
10
2601.972634
20
160.338589
0
VERTEX
8
0
10
2601.713
20
159.372
42
0.202902
0
VERTEX
8
0
10
2601.982871
20
157.442092
42
0.202902
0
VERTEX
8
0
10
2603.555837
20
156.291629
42
0.116077
0
VERTEX
8
0
10
2642.039197
20
156.291629
42
0.202902
0
VERTEX
8
0
10
2643.612163
20
157.442092
42
0.202902
0
VERTEX
8
0
10
2643.881343
20
159.372203
0
VERTEX
8
0
10
2643.622
20
160.339
42
-0.405145
0
VERTEX
8
0
10
2645.315485
20
163.379192
42
0.115884
0
VERTEX
8
0
10
2676.212375
20
181.217520
42
-0.405145
0
VERTEX
8
0
10
2679.692156
20
181.163473
0
VERTEX
8
0
10
2680.399
20
180.456
42
0.202902
0
VERTEX
8
0
10
2682.205715
20
179.724090
42
0.202902
0
VERTEX
8
0
10
2683.988528
20
180.511087
42
0.116077
0
VERTEX
8
0
10
2703.230208
20
213.838655
42
0.202902
0
VERTEX
8
0
10
2703.020361
20
215.776114
42
0.202902
0
VERTEX
8
0
10
2701.483426
20
216.974286
0
VERTEX
8
0
10
2700.517
20
217.233
42
-0.405145
0
VERTEX
8
0
10
2698.730343
20
220.219785
42
0.115881
0
VERTEX
8
0
10
2698.730410
20
255.896854
0
SEQEND
0
POLYLINE
70
1
62
7
8
0
66
1
0
VERTEX
8
0
10
2219.723
20
217.999
0
VERTEX
8
0
10
2298.723
20
217.999
42
-0.198912
0
VERTEX
8
0
10
2302.966019
20
216.241549
42
-0.198912
0
VERTEX
8
0
10
2304.723378
20
211.998908
0
VERTEX
8
0
10
2304.723
20
132.999
42
-0.198913
0
VERTEX
8
0
10
2302.965913
20
128.756159
42
-0.198913
0
VERTEX
8
0
10
2298.723378
20
126.998908
0
VERTEX
8
0
10
2219.723
20
126.999
42
-0.198913
0
VERTEX
8
0
10
2215.480629
20
128.756159
42
-0.198913
0
VERTEX
8
0
10
2213.723378
20
132.998908
0
VERTEX
8
0
10
2213.723
20
211.999
42
-0.198912
0
VERTEX
8
0
10
2215.480737
20
216.241549
42
-0.198954
0
VERTEX
8
0
10
2219.723271
20
217.998650
0
SEQEND
0
POLYLINE
70
1
62
7
8
0
66
1
0
VERTEX
8
0
10
2126.313
20
274.959
0
VERTEX
8
0
10
2126.313
20
265.959
0
VERTEX
8
0
10
2121.563
20
265.959
0
VERTEX
8
0
10
2121.563
20
283.959
0
VERTEX
8
0
10
2211.563
20
283.959
0
VERTEX
8
0
10
2211.563
20
265.959
0
VERTEX
8
0
10
2206.813
20
265.959
0
VERTEX
8
0
10
2206.813
20
274.959
42
0.267949
0
VERTEX
8
0
10
2205.188679
20
277.774243
42
0.267949
0
VERTEX
8
0
10
2201.938679
20
277.774243
42
0.267949
0
VERTEX
8
0
10
2200.313679
20
274.959660
0
VERTEX
8
0
10
2200.313
20
265.959
0
VERTEX
8
0
10
2132.813
20
265.959
0
VERTEX
8
0
10
2132.813
20
274.959
42
0.267949
0
VERTEX
8
0
10
2131.188679
20
277.774243
42
0.267949
0
VERTEX
8
0
10
2127.938679
20
277.774243
42
0.267886
0
VERTEX
8
0
10
2126.313406
20
274.959454
0
SEQEND
0
POLYLINE
70
1
62
7
8
0
66
1
0
VERTEX
8
0
10
2138.553
20
307.213
0
VERTEX
8
0
10
2138.553
20
298.213
0
VERTEX
8
0
10
2131.803
20
298.213
0
VERTEX
8
0
10
2131.803
20
316.213
0
VERTEX
8
0
10
2211.803
20
316.213
0
VERTEX
8
0
10
2211.803
20
298.213
0
VERTEX
8
0
10
2205.053
20
298.213
0
VERTEX
8
0
10
2205.053
20
307.213
42
0.267949
0
VERTEX
8
0
10
2203.428324
20
310.027721
42
0.267949
0
VERTEX
8
0
10
2200.178324
20
310.027721
42
0.267949
0
VERTEX
8
0
10
2198.553324
20
307.213139
0
VERTEX
8
0
10
2198.553
20
298.213
0
VERTEX
8
0
10
2145.053
20
298.213
0
VERTEX
8
0
10
2145.053
20
307.213
42
0.267949
0
VERTEX
8
0
10
2143.428324
20
310.027721
42
0.267949
0
VERTEX
8
0
10
2140.178324
20
310.027721
42
0.267968
0
VERTEX
8
0
10
2138.553406
20
307.213454
0
SEQEND
0
POLYLINE
70
1
62
7
8
0
66
1
0
VERTEX
8
0
10
2152.419
20
406.857
0
VERTEX
8
0
10
2184.419
20
406.857
0
VERTEX
8
0
10
2194.419
20
396.857
0
VERTEX
8
0
10
2194.419
20
364.857
0
VERTEX
8
0
10
2152.419
20
364.857
0
VERTEX
8
0
10
2152.419
20
406.857
0
SEQEND
0
POLYLINE
70
1
62
7
8
0
66
1
0
VERTEX
8
0
10
2418.445
20
122.945
0
VERTEX
8
0
10
2418.445
20
113.945
0
VERTEX
8
0
10
2413.695
20
113.945
0
VERTEX
8
0
10
2413.695
20
131.945
0
VERTEX
8
0
10
2503.695
20
131.945
0
VERTEX
8
0
10
2503.695
20
113.945
0
VERTEX
8
0
10
2498.945
20
113.945
0
VERTEX
8
0
10
2498.945
20
122.945
42
0.267949
0
VERTEX
8
0
10
2497.320442
20
125.759977
42
0.267949
0
VERTEX
8
0
10
2494.070442
20
125.759977
42
0.267949
0
VERTEX
8
0
10
2492.445442
20
122.945394
0
VERTEX
8
0
10
2492.445
20
113.945
0
VERTEX
8
0
10
2424.945
20
113.945
0
VERTEX
8
0
10
2424.945
20
122.945
42
0.267949
0
VERTEX
8
0
10
2423.320442
20
125.759977
42
0.267949
0
VERTEX
8
0
10
2420.070442
20
125.759977
42
0.267941
0
VERTEX
8
0
10
2418.445406
20
122.945454
0
SEQEND
0
POLYLINE
70
1
62
7
8
0
66
1
0
VERTEX
8
0
10
2430.685
20
155.198
0
VERTEX
8
0
10
2430.685
20
146.198
0
VERTEX
8
0
10
2423.935
20
146.198
0
VERTEX
8
0
10
2423.935
20
164.198
0
VERTEX
8
0
10
2503.935
20
164.198
0
VERTEX
8
0
10
2503.935
20
146.198
0
VERTEX
8
0
10
2497.185
20
146.198
0
VERTEX
8
0
10
2497.185
20
155.198
42
0.267949
0
VERTEX
8
0
10
2495.560087
20
158.013456
42
0.267949
0
VERTEX
8
0
10
2492.310087
20
158.013456
42
0.267949
0
VERTEX
8
0
10
2490.685087
20
155.198873
0
VERTEX
8
0
10
2490.685
20
146.198
0
VERTEX
8
0
10
2437.185
20
146.198
0
VERTEX
8
0
10
2437.185
20
155.198
42
0.267949
0
VERTEX
8
0
10
2435.560087
20
158.013456
42
0.267949
0
VERTEX
8
0
10
2432.310087
20
158.013456
42
0.268023
0
VERTEX
8
0
10
2430.685406
20
155.198454
0
SEQEND
0
POLYLINE
70
1
62
7
8
0
66
1
0
VERTEX
8
0
10
2444.551
20
254.842
0
VERTEX
8
0
10
2476.551
20
254.842
0
VERTEX
8
0
10
2486.551
20
244.842
0
VERTEX
8
0
10
2486.551
20
212.842
0
VERTEX
8
0
10
2444.551
20
212.842
0
VERTEX
8
0
10
2444.551
20
254.842
0
SEQEND
0
POLYLINE
70
1
62
7
8
0
66
1
0
VERTEX
8
0
10
2410.514
20
293.465
0
VERTEX
8
0
10
2410.514
20
284.465
0
VERTEX
8
0
10
2405.764
20
284.465
0
VERTEX
8
0
10
2405.764
20
302.465
0
VERTEX
8
0
10
2495.764
20
302.465
0
VERTEX
8
0
10
2495.764
20
284.465
0
VERTEX
8
0
10
2491.014
20
284.465
0
VERTEX
8
0
10
2491.014
20
293.465
42
0.267949
0
VERTEX
8
0
10
2489.389263
20
296.280327
42
0.267949
0
VERTEX
8
0
10
2486.139263
20
296.280327
42
0.267949
0
VERTEX
8
0
10
2484.514263
20
293.465745
0
VERTEX
8
0
10
2484.514
20
284.465
0
VERTEX
8
0
10
2417.014
20
284.465
0
VERTEX
8
0
10
2417.014
20
293.465
42
0.267949
0
VERTEX
8
0
10
2415.389263
20
296.280327
42
0.267949
0
VERTEX
8
0
10
2412.139263
20
296.280327
42
0.267982
0
VERTEX
8
0
10
2410.514406
20
293.465454
0
SEQEND
0
POLYLINE
70
1
62
7
8
0
66
1
0
VERTEX
8
0
10
2422.754
20
325.719
0
VERTEX
8
0
10
2422.754
20
316.719
0
VERTEX
8
0
10
2416.004
20
316.719
0
VERTEX
8
0
10
2416.004
20
334.719
0
VERTEX
8
0
10
2496.004
20
334.719
0
VERTEX
8
0
10
2496.004
20
316.719
0
VERTEX
8
0
10
2489.254
20
316.719
0
VERTEX
8
0
10
2489.254
20
325.719
42
0.267949
0
VERTEX
8
0
10
2487.628908
20
328.533806
42
0.267949
0
VERTEX
8
0
10
2484.378908
20
328.533806
42
0.267949
0
VERTEX
8
0
10
2482.753908
20
325.719223
0
VERTEX
8
0
10
2482.754
20
316.719
0
VERTEX
8
0
10
2429.254
20
316.719
0
VERTEX
8
0
10
2429.254
20
325.719
42
0.267949
0
VERTEX
8
0
10
2427.628908
20
328.533806
42
0.267949
0
VERTEX
8
0
10
2424.378908
20
328.533806
42
0.268064
0
VERTEX
8
0
10
2422.754406
20
325.719454
0
SEQEND
0
POLYLINE
70
1
62
7
8
0
66
1
0
VERTEX
8
0
10
2436.620
20
425.363
0
VERTEX
8
0
10
2468.620
20
425.363
0
VERTEX
8
0
10
2478.620
20
415.363
0
VERTEX
8
0
10
2478.620
20
383.363
0
VERTEX
8
0
10
2436.620
20
383.363
0
VERTEX
8
0
10
2436.620
20
425.363
0
SEQEND
0
POLYLINE
70
1
62
7
8
0
66
1
0
VERTEX
8
0
10
2263.787
20
330.477
0
VERTEX
8
0
10
2263.787
20
321.477
0
VERTEX
8
0
10
2259.037
20
321.477
0
VERTEX
8
0
10
2259.037
20
339.477
0
VERTEX
8
0
10
2349.037
20
339.477
0
VERTEX
8
0
10
2349.037
20
321.477
0
VERTEX
8
0
10
2344.287
20
321.477
0
VERTEX
8
0
10
2344.287
20
330.477
42
0.267949
0
VERTEX
8
0
10
2342.662450
20
333.292496
42
0.267949
0
VERTEX
8
0
10
2339.412450
20
333.292496
42
0.267949
0
VERTEX
8
0
10
2337.787450
20
330.477914
0
VERTEX
8
0
10
2337.787
20
321.477
0
VERTEX
8
0
10
2270.287
20
321.477
0
VERTEX
8
0
10
2270.287
20
330.477
42
0.267949
0
VERTEX
8
0
10
2268.662450
20
333.292496
42
0.267949
0
VERTEX
8
0
10
2265.412450
20
333.292496
42
0.267939
0
VERTEX
8
0
10
2263.787406
20
330.477454
0
SEQEND
0
POLYLINE
70
1
62
7
8
0
66
1
0
VERTEX
8
0
10
2276.027
20
362.731
0
VERTEX
8
0
10
2276.027
20
353.731
0
VERTEX
8
0
10
2269.277
20
353.731
0
VERTEX
8
0
10
2269.277
20
371.731
0
VERTEX
8
0
10
2349.277
20
371.731
0
VERTEX
8
0
10
2349.277
20
353.731
0
VERTEX
8
0
10
2342.527
20
353.731
0
VERTEX
8
0
10
2342.527
20
362.731
42
0.267949
0
VERTEX
8
0
10
2340.902095
20
365.545975
42
0.267949
0
VERTEX
8
0
10
2337.652095
20
365.545975
42
0.267949
0
VERTEX
8
0
10
2336.027095
20
362.731392
0
VERTEX
8
0
10
2336.027
20
353.731
0
VERTEX
8
0
10
2282.527
20
353.731
0
VERTEX
8
0
10
2282.527
20
362.731
42
0.267949
0
VERTEX
8
0
10
2280.902095
20
365.545975
42
0.267949
0
VERTEX
8
0
10
2277.652095
20
365.545975
42
0.268021
0
VERTEX
8
0
10
2276.027406
20
362.731454
0
SEQEND
0
POLYLINE
70
1
62
7
8
0
66
1
0
VERTEX
8
0
10
2289.893
20
462.375
0
VERTEX
8
0
10
2321.893
20
462.375
0
VERTEX
8
0
10
2331.893
20
452.375
0
VERTEX
8
0
10
2331.893
20
420.375
0
VERTEX
8
0
10
2289.893
20
420.375
0
VERTEX
8
0
10
2289.893
20
462.375
0
SEQEND
0
POLYLINE
70
1
62
7
8
0
66
1
0
VERTEX
8
0
10
2141.521
20
544.695
0
VERTEX
8
0
10
2141.521
20
535.695
0
VERTEX
8
0
10
2136.771
20
535.695
0
VERTEX
8
0
10
2136.771
20
553.695
0
VERTEX
8
0
10
2226.771
20
553.695
0
VERTEX
8
0
10
2226.771
20
535.695
0
VERTEX
8
0
10
2222.021
20
535.695
0
VERTEX
8
0
10
2222.021
20
544.695
42
0.267949
0
VERTEX
8
0
10
2220.395718
20
547.509304
42
0.267949
0
VERTEX
8
0
10
2217.145718
20
547.509304
42
0.267949
0
VERTEX
8
0
10
2215.520718
20
544.694721
0
VERTEX
8
0
10
2215.521
20
535.695
0
VERTEX
8
0
10
2148.021
20
535.695
0
VERTEX
8
0
10
2148.021
20
544.695
42
0.267949
0
VERTEX
8
0
10
2146.395718
20
547.509304
42
0.267949
0
VERTEX
8
0
10
2143.145718
20
547.509304
42
0.267949
0
VERTEX
8
0
10
2141.520718
20
544.694721
0
SEQEND
0
POLYLINE
70
1
62
7
8
0
66
1
0
VERTEX
8
0
10
2153.761
20
576.948
0
VERTEX
8
0
10
2153.761
20
567.948
0
VERTEX
8
0
10
2147.011
20
567.948
0
VERTEX
8
0
10
2147.011
20
585.948
0
VERTEX
8
0
10
2227.011
20
585.948
0
VERTEX
8
0
10
2227.011
20
567.948
0
VERTEX
8
0
10
2220.261
20
567.948
0
VERTEX
8
0
10
2220.261
20
576.948
42
0.267949
0
VERTEX
8
0
10
2218.635363
20
579.762782
42
0.267949
0
VERTEX
8
0
10
2215.385363
20
579.762782
42
0.267949
0
VERTEX
8
0
10
2213.760363
20
576.948200
0
VERTEX
8
0
10
2213.761
20
567.948
0
VERTEX
8
0
10
2160.261
20
567.948
0
VERTEX
8
0
10
2160.261
20
576.948
42
0.267949
0
VERTEX
8
0
10
2158.635363
20
579.762782
42
0.267949
0
VERTEX
8
0
10
2155.385363
20
579.762782
42
0.268031
0
VERTEX
8
0
10
2153.760718
20
576.947721
0
SEQEND
0
POLYLINE
70
1
62
7
8
0
66
1
0
VERTEX
8
0
10
2167.627
20
676.592
0
VERTEX
8
0
10
2199.627
20
676.592
0
VERTEX
8
0
10
2209.627
20
666.592
0
VERTEX
8
0
10
2209.627
20
634.592
0
VERTEX
8
0
10
2167.627
20
634.592
0
VERTEX
8
0
10
2167.627
20
676.592
0
SEQEND
0
POLYLINE
70
1
62
7
8
0
66
1
0
VERTEX
8
0
10
2423.756
20
627.046
42
0.198913
0
VERTEX
8
0
10
2414.412654
20
649.602461
42
0.198913
0
VERTEX
8
0
10
2391.855941
20
658.945899
42
0.198913
0
VERTEX
8
0
10
2369.299228
20
649.602612
42
0.198913
0
VERTEX
8
0
10
2359.955941
20
627.045899
42
0.198913
0
VERTEX
8
0
10
2369.299228
20
604.489185
42
0.198913
0
VERTEX
8
0
10
2391.855941
20
595.145899
42
0.198913
0
VERTEX
8
0
10
2414.412654
20
604.489185
42
0.198916
0
VERTEX
8
0
10
2423.755834
20
627.045641
0
SEQEND
0
POLYLINE
70
1
62
7
8
0
66
1
0
VERTEX
8
0
10
2728.976
20
693.684
42
-0.405145
0
VERTEX
8
0
10
2730.762352
20
696.670263
0
VERTEX
8
0
10
2731.729
20
696.929
42
0.202902
0
VERTEX
8
0
10
2733.265673
20
698.127377
42
0.202902
0
VERTEX
8
0
10
2733.475520
20
700.064837
42
0.116077
0
VERTEX
8
0
10
2714.233840
20
733.392405
42
0.202902
0
VERTEX
8
0
10
2712.451027
20
734.179401
42
0.202902
0
VERTEX
8
0
10
2710.644912
20
733.447463
0
VERTEX
8
0
10
2709.938
20
732.740
42
-0.405145
0
VERTEX
8
0
10
2706.457687
20
732.685972
42
0.115884
0
VERTEX
8
0
10
2675.560797
20
750.524299
42
-0.405145
0
VERTEX
8
0
10
2673.867712
20
753.564902
0
VERTEX
8
0
10
2674.127
20
754.531
42
0.202902
0
VERTEX
8
0
10
2673.857475
20
756.461399
42
0.202902
0
VERTEX
8
0
10
2672.284509
20
757.611862
42
0.116077
0
VERTEX
8
0
10
2633.801149
20
757.611862
42
0.202902
0
VERTEX
8
0
10
2632.228183
20
756.461399
42
0.202902
0
VERTEX
8
0
10
2631.959003
20
754.531288
0
VERTEX
8
0
10
2632.218
20
753.565
42
-0.405145
0
VERTEX
8
0
10
2630.524861
20
750.524299
42
0.115884
0
VERTEX
8
0
10
2599.627971
20
732.685972
42
-0.405145
0
VERTEX
8
0
10
2596.148189
20
732.740019
0
VERTEX
8
0
10
2595.441
20
733.447
42
0.202902
0
VERTEX
8
0
10
2593.634631
20
734.179401
42
0.202902
0
VERTEX
8
0
10
2591.851818
20
733.392405
42
0.116077
0
VERTEX
8
0
10
2572.610137
20
700.064837
42
0.202902
0
VERTEX
8
0
10
2572.819985
20
698.127377
42
0.202902
0
VERTEX
8
0
10
2574.356920
20
696.929205
0
VERTEX
8
0
10
2575.324
20
696.670
42
-0.405145
0
VERTEX
8
0
10
2577.110003
20
693.683707
42
0.115884
0
VERTEX
8
0
10
2577.110003
20
658.007052
42
-0.405145
0
VERTEX
8
0
10
2575.323306
20
655.020496
0
VERTEX
8
0
10
2574.357
20
654.761
42
0.202902
0
VERTEX
8
0
10
2572.819985
20
653.563381
42
0.202902
0
VERTEX
8
0
10
2572.610137
20
651.625922
42
0.116077
0
VERTEX
8
0
10
2591.851818
20
618.298354
42
0.202902
0
VERTEX
8
0
10
2593.634631
20
617.511357
42
0.202902
0
VERTEX
8
0
10
2595.440746
20
618.243296
0
VERTEX
8
0
10
2596.148
20
618.951
42
-0.405145
0
VERTEX
8
0
10
2599.627971
20
619.004787
42
0.115884
0
VERTEX
8
0
10
2630.524861
20
601.166459
42
-0.405145
0
VERTEX
8
0
10
2632.217946
20
598.125856
0
VERTEX
8
0
10
2631.959
20
597.159
42
0.202902
0
VERTEX
8
0
10
2632.228183
20
595.229359
42
0.202902
0
VERTEX
8
0
10
2633.801149
20
594.078896
42
0.116077
0
VERTEX
8
0
10
2672.284509
20
594.078896
42
0.202902
0
VERTEX
8
0
10
2673.857475
20
595.229359
42
0.202902
0
VERTEX
8
0
10
2674.126655
20
597.159470
0
VERTEX
8
0
10
2673.868
20
598.126
42
-0.405145
0
VERTEX
8
0
10
2675.560797
20
601.166459
42
0.115884
0
VERTEX
8
0
10
2706.457687
20
619.004787
42
-0.405145
0
VERTEX
8
0
10
2709.937468
20
618.950740
0
VERTEX
8
0
10
2710.645
20
618.243
42
0.202902
0
VERTEX
8
0
10
2712.451027
20
617.511357
42
0.202902
0
VERTEX
8
0
10
2714.233840
20
618.298354
42
0.116077
0
VERTEX
8
0
10
2733.475520
20
651.625922
42
0.202902
0
VERTEX
8
0
10
2733.265673
20
653.563381
42
0.202902
0
VERTEX
8
0
10
2731.728738
20
654.761553
0
VERTEX
8
0
10
2730.763
20
655.020
42
-0.405145
0
VERTEX
8
0
10
2728.975655
20
658.007052
42
0.115881
0
VERTEX
8
0
10
2728.975722
20
693.684121
0
SEQEND
0
POLYLINE
70
1
62
7
8
0
66
1
0
VERTEX
8
0
10
2249.969
20
655.786
0
VERTEX
8
0
10
2328.969
20
655.786
42
-0.198912
0
VERTEX
8
0
10
2333.211332
20
654.028816
42
-0.198912
0
VERTEX
8
0
10
2334.968691
20
649.786175
0
VERTEX
8
0
10
2334.969
20
570.786
42
-0.198913
0
VERTEX
8
0
10
2333.211226
20
566.543426
42
-0.198913
0
VERTEX
8
0
10
2328.968691
20
564.786175
0
VERTEX
8
0
10
2249.969
20
564.786
42
-0.198913
0
VERTEX
8
0
10
2245.725942
20
566.543426
42
-0.198913
0
VERTEX
8
0
10
2243.968691
20
570.786175
0
VERTEX
8
0
10
2243.969
20
649.786
42
-0.198912
0
VERTEX
8
0
10
2245.726050
20
654.028816
42
-0.198954
0
VERTEX
8
0
10
2249.968584
20
655.785917
0
SEQEND
0
POLYLINE
70
1
62
7
8
0
66
1
0
VERTEX
8
0
10
2156.559
20
712.747
0
VERTEX
8
0
10
2156.559
20
703.747
0
VERTEX
8
0
10
2151.809
20
703.747
0
VERTEX
8
0
10
2151.809
20
721.747
0
VERTEX
8
0
10
2241.809
20
721.747
0
VERTEX
8
0
10
2241.809
20
703.747
0
VERTEX
8
0
10
2237.059
20
703.747
0
VERTEX
8
0
10
2237.059
20
712.747
42
0.267949
0
VERTEX
8
0
10
2235.433991
20
715.561510
42
0.267949
0
VERTEX
8
0
10
2232.183991
20
715.561510
42
0.267949
0
VERTEX
8
0
10
2230.558991
20
712.746927
0
VERTEX
8
0
10
2230.559
20
703.747
0
VERTEX
8
0
10
2163.059
20
703.747
0
VERTEX
8
0
10
2163.059
20
712.747
42
0.267949
0
VERTEX
8
0
10
2161.433991
20
715.561510
42
0.267949
0
VERTEX
8
0
10
2158.183991
20
715.561510
42
0.267886
0
VERTEX
8
0
10
2156.558718
20
712.746721
0
SEQEND
0
POLYLINE
70
1
62
7
8
0
66
1
0
VERTEX
8
0
10
2168.799
20
745.001
0
VERTEX
8
0
10
2168.799
20
736.001
0
VERTEX
8
0
10
2162.049
20
736.001
0
VERTEX
8
0
10
2162.049
20
754.001
0
VERTEX
8
0
10
2242.049
20
754.001
0
VERTEX
8
0
10
2242.049
20
736.001
0
VERTEX
8
0
10
2235.299
20
736.001
0
VERTEX
8
0
10
2235.299
20
745.001
42
0.267949
0
VERTEX
8
0
10
2233.673636
20
747.814988
42
0.267949
0
VERTEX
8
0
10
2230.423636
20
747.814988
42
0.267949
0
VERTEX
8
0
10
2228.798636
20
745.000406
0
VERTEX
8
0
10
2228.799
20
736.001
0
VERTEX
8
0
10
2175.299
20
736.001
0
VERTEX
8
0
10
2175.299
20
745.001
42
0.267949
0
VERTEX
8
0
10
2173.673636
20
747.814988
42
0.267949
0
VERTEX
8
0
10
2170.423636
20
747.814988
42
0.267968
0
VERTEX
8
0
10
2168.798718
20
745.000721
0
SEQEND
0
POLYLINE
70
1
62
7
8
0
66
1
0
VERTEX
8
0
10
2182.665
20
844.645
0
VERTEX
8
0
10
2214.665
20
844.645
0
VERTEX
8
0
10
2224.665
20
834.645
0
VERTEX
8
0
10
2224.665
20
802.645
0
VERTEX
8
0
10
2182.665
20
802.645
0
VERTEX
8
0
10
2182.665
20
844.645
0
SEQEND
0
POLYLINE
70
1
62
7
8
0
66
1
0
VERTEX
8
0
10
2448.691
20
560.733
0
VERTEX
8
0
10
2448.691
20
551.733
0
VERTEX
8
0
10
2443.941
20
551.733
0
VERTEX
8
0
10
2443.941
20
569.733
0
VERTEX
8
0
10
2533.941
20
569.733
0
VERTEX
8
0
10
2533.941
20
551.733
0
VERTEX
8
0
10
2529.191
20
551.733
0
VERTEX
8
0
10
2529.191
20
560.733
42
0.267949
0
VERTEX
8
0
10
2527.565754
20
563.547244
42
0.267949
0
VERTEX
8
0
10
2524.315754
20
563.547244
42
0.267949
0
VERTEX
8
0
10
2522.690754
20
560.732661
0
VERTEX
8
0
10
2522.691
20
551.733
0
VERTEX
8
0
10
2455.191
20
551.733
0
VERTEX
8
0
10
2455.191
20
560.733
42
0.267949
0
VERTEX
8
0
10
2453.565754
20
563.547244
42
0.267949
0
VERTEX
8
0
10
2450.315754
20
563.547244
42
0.267941
0
VERTEX
8
0
10
2448.690718
20
560.732721
0
SEQEND
0
POLYLINE
70
1
62
7
8
0
66
1
0
VERTEX
8
0
10
2460.931
20
592.986
0
VERTEX
8
0
10
2460.931
20
583.986
0
VERTEX
8
0
10
2454.181
20
583.986
0
VERTEX
8
0
10
2454.181
20
601.986
0
VERTEX
8
0
10
2534.181
20
601.986
0
VERTEX
8
0
10
2534.181
20
583.986
0
VERTEX
8
0
10
2527.431
20
583.986
0
VERTEX
8
0
10
2527.431
20
592.986
42
0.267949
0
VERTEX
8
0
10
2525.805399
20
595.800723
42
0.267949
0
VERTEX
8
0
10
2522.555399
20
595.800723
42
0.267949
0
VERTEX
8
0
10
2520.930399
20
592.986140
0
VERTEX
8
0
10
2520.931
20
583.986
0
VERTEX
8
0
10
2467.431
20
583.986
0
VERTEX
8
0
10
2467.431
20
592.986
42
0.267949
0
VERTEX
8
0
10
2465.805399
20
595.800723
42
0.267949
0
VERTEX
8
0
10
2462.555399
20
595.800723
42
0.268023
0
VERTEX
8
0
10
2460.930718
20
592.985721
0
SEQEND
0
POLYLINE
70
1
62
7
8
0
66
1
0
VERTEX
8
0
10
2474.797
20
692.630
0
VERTEX
8
0
10
2506.797
20
692.630
0
VERTEX
8
0
10
2516.797
20
682.630
0
VERTEX
8
0
10
2516.797
20
650.630
0
VERTEX
8
0
10
2474.797
20
650.630
0
VERTEX
8
0
10
2474.797
20
692.630
0
SEQEND
0
POLYLINE
70
1
62
7
8
0
66
1
0
VERTEX
8
0
10
2440.760
20
731.253
0
VERTEX
8
0
10
2440.760
20
722.253
0
VERTEX
8
0
10
2436.010
20
722.253
0
VERTEX
8
0
10
2436.010
20
740.253
0
VERTEX
8
0
10
2526.010
20
740.253
0
VERTEX
8
0
10
2526.010
20
722.253
0
VERTEX
8
0
10
2521.260
20
722.253
0
VERTEX
8
0
10
2521.260
20
731.253
42
0.267949
0
VERTEX
8
0
10
2519.634575
20
734.067594
42
0.267949
0
VERTEX
8
0
10
2516.384575
20
734.067594
42
0.267949
0
VERTEX
8
0
10
2514.759575
20
731.253012
0
VERTEX
8
0
10
2514.760
20
722.253
0
VERTEX
8
0
10
2447.260
20
722.253
0
VERTEX
8
0
10
2447.260
20
731.253
42
0.267949
0
VERTEX
8
0
10
2445.634575
20
734.067594
42
0.267949
0
VERTEX
8
0
10
2442.384575
20
734.067594
42
0.267982
0
VERTEX
8
0
10
2440.759718
20
731.252721
0
SEQEND
0
POLYLINE
70
1
62
7
8
0
66
1
0
VERTEX
8
0
10
2453.000
20
763.507
0
VERTEX
8
0
10
2453.000
20
754.507
0
VERTEX
8
0
10
2446.250
20
754.507
0
VERTEX
8
0
10
2446.250
20
772.507
0
VERTEX
8
0
10
2526.250
20
772.507
0
VERTEX
8
0
10
2526.250
20
754.507
0
VERTEX
8
0
10
2519.500
20
754.507
0
VERTEX
8
0
10
2519.500
20
763.507
42
0.267949
0
VERTEX
8
0
10
2517.874220
20
766.321073
42
0.267949
0
VERTEX
8
0
10
2514.624220
20
766.321073
42
0.267949
0
VERTEX
8
0
10
2512.999220
20
763.506490
0
VERTEX
8
0
10
2513.000
20
754.507
0
VERTEX
8
0
10
2459.500
20
754.507
0
VERTEX
8
0
10
2459.500
20
763.507
42
0.267949
0
VERTEX
8
0
10
2457.874220
20
766.321073
42
0.267949
0
VERTEX
8
0
10
2454.624220
20
766.321073
42
0.268064
0
VERTEX
8
0
10
2452.999718
20
763.506721
0
SEQEND
0
POLYLINE
70
1
62
7
8
0
66
1
0
VERTEX
8
0
10
2466.866
20
863.151
0
VERTEX
8
0
10
2498.866
20
863.151
0
VERTEX
8
0
10
2508.866
20
853.151
0
VERTEX
8
0
10
2508.866
20
821.151
0
VERTEX
8
0
10
2466.866
20
821.151
0
VERTEX
8
0
10
2466.866
20
863.151
0
SEQEND
0
POLYLINE
70
1
62
7
8
0
66
1
0
VERTEX
8
0
10
2294.033
20
768.265
0
VERTEX
8
0
10
2294.033
20
759.265
0
VERTEX
8
0
10
2289.283
20
759.265
0
VERTEX
8
0
10
2289.283
20
777.265
0
VERTEX
8
0
10
2379.283
20
777.265
0
VERTEX
8
0
10
2379.283
20
759.265
0
VERTEX
8
0
10
2374.533
20
759.265
0
VERTEX
8
0
10
2374.533
20
768.265
42
0.267949
0
VERTEX
8
0
10
2372.907762
20
771.079763
42
0.267949
0
VERTEX
8
0
10
2369.657762
20
771.079763
42
0.267949
0
VERTEX
8
0
10
2368.032762
20
768.265181
0
VERTEX
8
0
10
2368.033
20
759.265
0
VERTEX
8
0
10
2300.533
20
759.265
0
VERTEX
8
0
10
2300.533
20
768.265
42
0.267949
0
VERTEX
8
0
10
2298.907762
20
771.079763
42
0.267949
0
VERTEX
8
0
10
2295.657762
20
771.079763
42
0.267939
0
VERTEX
8
0
10
2294.032718
20
768.264721
0
SEQEND
0
POLYLINE
70
1
62
7
8
0
66
1
0
VERTEX
8
0
10
2306.273
20
800.519
0
VERTEX
8
0
10
2306.273
20
791.519
0
VERTEX
8
0
10
2299.523
20
791.519
0
VERTEX
8
0
10
2299.523
20
809.519
0
VERTEX
8
0
10
2379.523
20
809.519
0
VERTEX
8
0
10
2379.523
20
791.519
0
VERTEX
8
0
10
2372.773
20
791.519
0
VERTEX
8
0
10
2372.773
20
800.519
42
0.267949
0
VERTEX
8
0
10
2371.147407
20
803.333242
42
0.267949
0
VERTEX
8
0
10
2367.897407
20
803.333242
42
0.267949
0
VERTEX
8
0
10
2366.272407
20
800.518659
0
VERTEX
8
0
10
2366.273
20
791.519
0
VERTEX
8
0
10
2312.773
20
791.519
0
VERTEX
8
0
10
2312.773
20
800.519
42
0.267949
0
VERTEX
8
0
10
2311.147407
20
803.333242
42
0.267949
0
VERTEX
8
0
10
2307.897407
20
803.333242
42
0.268021
0
VERTEX
8
0
10
2306.272718
20
800.518721
0
SEQEND
0
POLYLINE
70
1
62
7
8
0
66
1
0
VERTEX
8
0
10
2320.139
20
900.163
0
VERTEX
8
0
10
2352.139
20
900.163
0
VERTEX
8
0
10
2362.139
20
890.163
0
VERTEX
8
0
10
2362.139
20
858.163
0
VERTEX
8
0
10
2320.139
20
858.163
0
VERTEX
8
0
10
2320.139
20
900.163
0
SEQEND
0
POLYLINE
70
1
62
7
8
0
66
1
0
VERTEX
8
0
10
1506.781
20
906.144
0
VERTEX
8
0
10
1506.781
20
897.144
0
VERTEX
8
0
10
1502.031
20
897.144
0
VERTEX
8
0
10
1502.031
20
915.144
0
VERTEX
8
0
10
1592.031
20
915.144
0
VERTEX
8
0
10
1592.031
20
897.144
0
VERTEX
8
0
10
1587.281
20
897.144
0
VERTEX
8
0
10
1587.281
20
906.144
42
0.267949
0
VERTEX
8
0
10
1585.656398
20
908.958084
42
0.267949
0
VERTEX
8
0
10
1582.406398
20
908.958084
42
0.267949
0
VERTEX
8
0
10
1580.781398
20
906.143501
0
VERTEX
8
0
10
1580.781
20
897.144
0
VERTEX
8
0
10
1513.281
20
897.144
0
VERTEX
8
0
10
1513.281
20
906.144
42
0.267949
0
VERTEX
8
0
10
1511.656398
20
908.958084
42
0.267949
0
VERTEX
8
0
10
1508.406398
20
908.958084
42
0.267949
0
VERTEX
8
0
10
1506.781398
20
906.143501
0
SEQEND
0
POLYLINE
70
1
62
7
8
0
66
1
0
VERTEX
8
0
10
1519.021
20
938.397
0
VERTEX
8
0
10
1519.021
20
929.397
0
VERTEX
8
0
10
1512.271
20
929.397
0
VERTEX
8
0
10
1512.271
20
947.397
0
VERTEX
8
0
10
1592.271
20
947.397
0
VERTEX
8
0
10
1592.271
20
929.397
0
VERTEX
8
0
10
1585.521
20
929.397
0
VERTEX
8
0
10
1585.521
20
938.397
42
0.267949
0
VERTEX
8
0
10
1583.896043
20
941.211562
42
0.267949
0
VERTEX
8
0
10
1580.646043
20
941.211562
42
0.267949
0
VERTEX
8
0
10
1579.021043
20
938.396980
0
VERTEX
8
0
10
1579.021
20
929.397
0
VERTEX
8
0
10
1525.521
20
929.397
0
VERTEX
8
0
10
1525.521
20
938.397
42
0.267949
0
VERTEX
8
0
10
1523.896043
20
941.211562
42
0.267949
0
VERTEX
8
0
10
1520.646043
20
941.211562
42
0.268031
0
VERTEX
8
0
10
1519.021398
20
938.396501
0
SEQEND
0
POLYLINE
70
1
62
7
8
0
66
1
0
VERTEX
8
0
10
1532.887
20
1038.041
0
VERTEX
8
0
10
1564.887
20
1038.041
0
VERTEX
8
0
10
1574.887
20
1028.041
0
VERTEX
8
0
10
1574.887
20
996.041
0
VERTEX
8
0
10
1532.887
20
996.041
0
VERTEX
8
0
10
1532.887
20
1038.041
0
SEQEND
0
POLYLINE
70
1
62
7
8
0
66
1
0
VERTEX
8
0
10
1789.017
20
988.494
42
0.198913
0
VERTEX
8
0
10
1779.673334
20
1011.051240
42
0.198913
0
VERTEX
8
0
10
1757.116621
20
1020.394678
42
0.198913
0
VERTEX
8
0
10
1734.559907
20
1011.051392
42
0.198913
0
VERTEX
8
0
10
1725.216621
20
988.494678
42
0.198913
0
VERTEX
8
0
10
1734.559907
20
965.937965
42
0.198913
0
VERTEX
8
0
10
1757.116621
20
956.594678
42
0.198913
0
VERTEX
8
0
10
1779.673334
20
965.937965
42
0.198916
0
VERTEX
8
0
10
1789.016514
20
988.494420
0
SEQEND
0
POLYLINE
70
1
62
7
8
0
66
1
0
VERTEX
8
0
10
2094.236
20
1055.133
42
-0.405145
0
VERTEX
8
0
10
2096.023032
20
1058.119043
0
VERTEX
8
0
10
2096.989
20
1058.378
42
0.202902
0
VERTEX
8
0
10
2098.526353
20
1059.576157
42
0.202902
0
VERTEX
8
0
10
2098.736200
20
1061.513617
42
0.116077
0
VERTEX
8
0
10
2079.494520
20
1094.841185
42
0.202902
0
VERTEX
8
0
10
2077.711707
20
1095.628181
42
0.202902
0
VERTEX
8
0
10
2075.905592
20
1094.896243
0
VERTEX
8
0
10
2075.198
20
1094.189
42
-0.405145
0
VERTEX
8
0
10
2071.718367
20
1094.134752
42
0.115884
0
VERTEX
8
0
10
2040.821477
20
1111.973079
42
-0.405145
0
VERTEX
8
0
10
2039.128392
20
1115.013682
0
VERTEX
8
0
10
2039.387
20
1115.980
42
0.202902
0
VERTEX
8
0
10
2039.118155
20
1117.910179
42
0.202902
0
VERTEX
8
0
10
2037.545189
20
1119.060642
42
0.116077
0
VERTEX
8
0
10
1999.061829
20
1119.060642
42
0.202902
0
VERTEX
8
0
10
1997.488863
20
1117.910179
42
0.202902
0
VERTEX
8
0
10
1997.219683
20
1115.980068
0
VERTEX
8
0
10
1997.478
20
1115.014
42
-0.405145
0
VERTEX
8
0
10
1995.785541
20
1111.973079
42
0.115884
0
VERTEX
8
0
10
1964.888651
20
1094.134752
42
-0.405145
0
VERTEX
8
0
10
1961.408869
20
1094.188799
0
VERTEX
8
0
10
1960.701
20
1094.896
42
0.202902
0
VERTEX
8
0
10
1958.895311
20
1095.628181
42
0.202902
0
VERTEX
8
0
10
1957.112498
20
1094.841185
42
0.116077
0
VERTEX
8
0
10
1937.870817
20
1061.513617
42
0.202902
0
VERTEX
8
0
10
1938.080665
20
1059.576157
42
0.202902
0
VERTEX
8
0
10
1939.617600
20
1058.377985
0
VERTEX
8
0
10
1940.584
20
1058.119
42
-0.405145
0
VERTEX
8
0
10
1942.370683
20
1055.132487
42
0.115884
0
VERTEX
8
0
10
1942.370683
20
1019.455832
42
-0.405145
0
VERTEX
8
0
10
1940.583986
20
1016.469276
0
VERTEX
8
0
10
1939.617
20
1016.210
42
0.202902
0
VERTEX
8
0
10
1938.080665
20
1015.012161
42
0.202902
0
VERTEX
8
0
10
1937.870817
20
1013.074702
42
0.116077
0
VERTEX
8
0
10
1957.112498
20
979.747134
42
0.202902
0
VERTEX
8
0
10
1958.895311
20
978.960137
42
0.202902
0
VERTEX
8
0
10
1960.701426
20
979.692076
0
VERTEX
8
0
10
1961.408
20
980.400
42
-0.405145
0
VERTEX
8
0
10
1964.888651
20
980.453567
42
0.115884
0
VERTEX
8
0
10
1995.785541
20
962.615239
42
-0.405145
0
VERTEX
8
0
10
1997.478626
20
959.574636
0
VERTEX
8
0
10
1997.219
20
958.608
42
0.202902
0
VERTEX
8
0
10
1997.488863
20
956.678139
42
0.202902
0
VERTEX
8
0
10
1999.061829
20
955.527676
42
0.116077
0
VERTEX
8
0
10
2037.545189
20
955.527676
42
0.202902
0
VERTEX
8
0
10
2039.118155
20
956.678139
42
0.202902
0
VERTEX
8
0
10
2039.387335
20
958.608250
0
VERTEX
8
0
10
2039.128
20
959.575
42
-0.405145
0
VERTEX
8
0
10
2040.821477
20
962.615239
42
0.115884
0
VERTEX
8
0
10
2071.718367
20
980.453567
42
-0.405145
0
VERTEX
8
0
10
2075.198148
20
980.399520
0
VERTEX
8
0
10
2075.905
20
979.692
42
0.202902
0
VERTEX
8
0
10
2077.711707
20
978.960137
42
0.202902
0
VERTEX
8
0
10
2079.494520
20
979.747134
42
0.116077
0
VERTEX
8
0
10
2098.736200
20
1013.074702
42
0.202902
0
VERTEX
8
0
10
2098.526353
20
1015.012161
42
0.202902
0
VERTEX
8
0
10
2096.989418
20
1016.210333
0
VERTEX
8
0
10
2096.023
20
1016.469
42
-0.405145
0
VERTEX
8
0
10
2094.236335
20
1019.455832
42
0.115881
0
VERTEX
8
0
10
2094.236402
20
1055.132901
0
SEQEND
0
POLYLINE
70
1
62
7
8
0
66
1
0
VERTEX
8
0
10
1615.229
20
1017.235
0
VERTEX
8
0
10
1694.229
20
1017.235
42
-0.198912
0
VERTEX
8
0
10
1698.472011
20
1015.477596
42
-0.198912
0
VERTEX
8
0
10
1700.229370
20
1011.234955
0
VERTEX
8
0
10
1700.229
20
932.235
42
-0.198913
0
VERTEX
8
0
10
1698.471905
20
927.992206
42
-0.198913
0
VERTEX
8
0
10
1694.229370
20
926.234955
0
VERTEX
8
0
10
1615.229
20
926.235
42
-0.198913
0
VERTEX
8
0
10
1610.986621
20
927.992206
42
-0.198913
0
VERTEX
8
0
10
1609.229370
20
932.234955
0
VERTEX
8
0
10
1609.229
20
1011.235
42
-0.198912
0
VERTEX
8
0
10
1610.986729
20
1015.477596
42
-0.198954
0
VERTEX
8
0
10
1615.229263
20
1017.234697
0
SEQEND
0
POLYLINE
70
1
62
7
8
0
66
1
0
VERTEX
8
0
10
1521.819
20
1074.196
0
VERTEX
8
0
10
1521.819
20
1065.196
0
VERTEX
8
0
10
1517.069
20
1065.196
0
VERTEX
8
0
10
1517.069
20
1083.196
0
VERTEX
8
0
10
1607.069
20
1083.196
0
VERTEX
8
0
10
1607.069
20
1065.196
0
VERTEX
8
0
10
1602.319
20
1065.196
0
VERTEX
8
0
10
1602.319
20
1074.196
42
0.267949
0
VERTEX
8
0
10
1600.694671
20
1077.010290
42
0.267949
0
VERTEX
8
0
10
1597.444671
20
1077.010290
42
0.267949
0
VERTEX
8
0
10
1595.819671
20
1074.195707
0
VERTEX
8
0
10
1595.819
20
1065.196
0
VERTEX
8
0
10
1528.319
20
1065.196
0
VERTEX
8
0
10
1528.319
20
1074.196
42
0.267949
0
VERTEX
8
0
10
1526.694671
20
1077.010290
42
0.267949
0
VERTEX
8
0
10
1523.444671
20
1077.010290
42
0.267886
0
VERTEX
8
0
10
1521.819398
20
1074.195501
0
SEQEND
0
POLYLINE
70
1
62
7
8
0
66
1
0
VERTEX
8
0
10
1534.059
20
1106.450
0
VERTEX
8
0
10
1534.059
20
1097.450
0
VERTEX
8
0
10
1527.309
20
1097.450
0
VERTEX
8
0
10
1527.309
20
1115.450
0
VERTEX
8
0
10
1607.309
20
1115.450
0
VERTEX
8
0
10
1607.309
20
1097.450
0
VERTEX
8
0
10
1600.559
20
1097.450
0
VERTEX
8
0
10
1600.559
20
1106.450
42
0.267949
0
VERTEX
8
0
10
1598.934316
20
1109.263768
42
0.267949
0
VERTEX
8
0
10
1595.684316
20
1109.263768
42
0.267949
0
VERTEX
8
0
10
1594.059316
20
1106.449186
0
VERTEX
8
0
10
1594.059
20
1097.450
0
VERTEX
8
0
10
1540.559
20
1097.450
0
VERTEX
8
0
10
1540.559
20
1106.450
42
0.267949
0
VERTEX
8
0
10
1538.934316
20
1109.263768
42
0.267949
0
VERTEX
8
0
10
1535.684316
20
1109.263768
42
0.267968
0
VERTEX
8
0
10
1534.059398
20
1106.449501
0
SEQEND
0
POLYLINE
70
1
62
7
8
0
66
1
0
VERTEX
8
0
10
1547.925
20
1206.094
0
VERTEX
8
0
10
1579.925
20
1206.094
0
VERTEX
8
0
10
1589.925
20
1196.094
0
VERTEX
8
0
10
1589.925
20
1164.094
0
VERTEX
8
0
10
1547.925
20
1164.094
0
VERTEX
8
0
10
1547.925
20
1206.094
0
SEQEND
0
POLYLINE
70
1
62
7
8
0
66
1
0
VERTEX
8
0
10
1813.951
20
922.182
0
VERTEX
8
0
10
1813.951
20
913.182
0
VERTEX
8
0
10
1809.201
20
913.182
0
VERTEX
8
0
10
1809.201
20
931.182
0
VERTEX
8
0
10
1899.201
20
931.182
0
VERTEX
8
0
10
1899.201
20
913.182
0
VERTEX
8
0
10
1894.451
20
913.182
0
VERTEX
8
0
10
1894.451
20
922.182
42
0.267949
0
VERTEX
8
0
10
1892.826434
20
924.996024
42
0.267949
0
VERTEX
8
0
10
1889.576434
20
924.996024
42
0.267949
0
VERTEX
8
0
10
1887.951434
20
922.181441
0
VERTEX
8
0
10
1887.951
20
913.182
0
VERTEX
8
0
10
1820.451
20
913.182
0
VERTEX
8
0
10
1820.451
20
922.182
42
0.267949
0
VERTEX
8
0
10
1818.826434
20
924.996024
42
0.267949
0
VERTEX
8
0
10
1815.576434
20
924.996024
42
0.267941
0
VERTEX
8
0
10
1813.951398
20
922.181501
0
SEQEND
0
POLYLINE
70
1
62
7
8
0
66
1
0
VERTEX
8
0
10
1826.191
20
954.435
0
VERTEX
8
0
10
1826.191
20
945.435
0
VERTEX
8
0
10
1819.441
20
945.435
0
VERTEX
8
0
10
1819.441
20
963.435
0
VERTEX
8
0
10
1899.441
20
963.435
0
VERTEX
8
0
10
1899.441
20
945.435
0
VERTEX
8
0
10
1892.691
20
945.435
0
VERTEX
8
0
10
1892.691
20
954.435
42
0.267949
0
VERTEX
8
0
10
1891.066079
20
957.249503
42
0.267949
0
VERTEX
8
0
10
1887.816079
20
957.249503
42
0.267949
0
VERTEX
8
0
10
1886.191079
20
954.434920
0
VERTEX
8
0
10
1886.191
20
945.435
0
VERTEX
8
0
10
1832.691
20
945.435
0
VERTEX
8
0
10
1832.691
20
954.435
42
0.267949
0
VERTEX
8
0
10
1831.066079
20
957.249503
42
0.267949
0
VERTEX
8
0
10
1827.816079
20
957.249503
42
0.268023
0
VERTEX
8
0
10
1826.191398
20
954.434501
0
SEQEND
0
POLYLINE
70
1
62
7
8
0
66
1
0
VERTEX
8
0
10
1840.057
20
1054.079
0
VERTEX
8
0
10
1872.057
20
1054.079
0
VERTEX
8
0
10
1882.057
20
1044.079
0
VERTEX
8
0
10
1882.057
20
1012.079
0
VERTEX
8
0
10
1840.057
20
1012.079
0
VERTEX
8
0
10
1840.057
20
1054.079
0
SEQEND
0
POLYLINE
70
1
62
7
8
0
66
1
0
VERTEX
8
0
10
1806.020
20
1092.702
0
VERTEX
8
0
10
1806.020
20
1083.702
0
VERTEX
8
0
10
1801.270
20
1083.702
0
VERTEX
8
0
10
1801.270
20
1101.702
0
VERTEX
8
0
10
1891.270
20
1101.702
0
VERTEX
8
0
10
1891.270
20
1083.702
0
VERTEX
8
0
10
1886.520
20
1083.702
0
VERTEX
8
0
10
1886.520
20
1092.702
42
0.267949
0
VERTEX
8
0
10
1884.895255
20
1095.516374
42
0.267949
0
VERTEX
8
0
10
1881.645255
20
1095.516374
42
0.267949
0
VERTEX
8
0
10
1880.020255
20
1092.701792
0
VERTEX
8
0
10
1880.020
20
1083.702
0
VERTEX
8
0
10
1812.520
20
1083.702
0
VERTEX
8
0
10
1812.520
20
1092.702
42
0.267949
0
VERTEX
8
0
10
1810.895255
20
1095.516374
42
0.267949
0
VERTEX
8
0
10
1807.645255
20
1095.516374
42
0.267982
0
VERTEX
8
0
10
1806.020398
20
1092.701501
0
SEQEND
0
POLYLINE
70
1
62
7
8
0
66
1
0
VERTEX
8
0
10
1818.260
20
1124.956
0
VERTEX
8
0
10
1818.260
20
1115.956
0
VERTEX
8
0
10
1811.510
20
1115.956
0
VERTEX
8
0
10
1811.510
20
1133.956
0
VERTEX
8
0
10
1891.510
20
1133.956
0
VERTEX
8
0
10
1891.510
20
1115.956
0
VERTEX
8
0
10
1884.760
20
1115.956
0
VERTEX
8
0
10
1884.760
20
1124.956
42
0.267949
0
VERTEX
8
0
10
1883.134900
20
1127.769853
42
0.267949
0
VERTEX
8
0
10
1879.884900
20
1127.769853
42
0.267949
0
VERTEX
8
0
10
1878.259900
20
1124.955270
0
VERTEX
8
0
10
1878.260
20
1115.956
0
VERTEX
8
0
10
1824.760
20
1115.956
0
VERTEX
8
0
10
1824.760
20
1124.956
42
0.267949
0
VERTEX
8
0
10
1823.134900
20
1127.769853
42
0.267949
0
VERTEX
8
0
10
1819.884900
20
1127.769853
42
0.268064
0
VERTEX
8
0
10
1818.260398
20
1124.955501
0
SEQEND
0
POLYLINE
70
1
62
7
8
0
66
1
0
VERTEX
8
0
10
1832.126
20
1224.600
0
VERTEX
8
0
10
1864.126
20
1224.600
0
VERTEX
8
0
10
1874.126
20
1214.600
0
VERTEX
8
0
10
1874.126
20
1182.600
0
VERTEX
8
0
10
1832.126
20
1182.600
0
VERTEX
8
0
10
1832.126
20
1224.600
0
SEQEND
0
POLYLINE
70
1
62
7
8
0
66
1
0
VERTEX
8
0
10
1659.293
20
1129.714
0
VERTEX
8
0
10
1659.293
20
1120.714
0
VERTEX
8
0
10
1654.543
20
1120.714
0
VERTEX
8
0
10
1654.543
20
1138.714
0
VERTEX
8
0
10
1744.543
20
1138.714
0
VERTEX
8
0
10
1744.543
20
1120.714
0
VERTEX
8
0
10
1739.793
20
1120.714
0
VERTEX
8
0
10
1739.793
20
1129.714
42
0.267949
0
VERTEX
8
0
10
1738.168442
20
1132.528543
42
0.267949
0
VERTEX
8
0
10
1734.918442
20
1132.528543
42
0.267949
0
VERTEX
8
0
10
1733.293442
20
1129.713961
0
VERTEX
8
0
10
1733.293
20
1120.714
0
VERTEX
8
0
10
1665.793
20
1120.714
0
VERTEX
8
0
10
1665.793
20
1129.714
42
0.267949
0
VERTEX
8
0
10
1664.168442
20
1132.528543
42
0.267949
0
VERTEX
8
0
10
1660.918442
20
1132.528543
42
0.267939
0
VERTEX
8
0
10
1659.293398
20
1129.713501
0
SEQEND
0
POLYLINE
70
1
62
7
8
0
66
1
0
VERTEX
8
0
10
1671.533
20
1161.968
0
VERTEX
8
0
10
1671.533
20
1152.968
0
VERTEX
8
0
10
1664.783
20
1152.968
0
VERTEX
8
0
10
1664.783
20
1170.968
0
VERTEX
8
0
10
1744.783
20
1170.968
0
VERTEX
8
0
10
1744.783
20
1152.968
0
VERTEX
8
0
10
1738.033
20
1152.968
0
VERTEX
8
0
10
1738.033
20
1161.968
42
0.267949
0
VERTEX
8
0
10
1736.408087
20
1164.782022
42
0.267949
0
VERTEX
8
0
10
1733.158087
20
1164.782022
42
0.267949
0
VERTEX
8
0
10
1731.533087
20
1161.967439
0
VERTEX
8
0
10
1731.533
20
1152.968
0
VERTEX
8
0
10
1678.033
20
1152.968
0
VERTEX
8
0
10
1678.033
20
1161.968
42
0.267949
0
VERTEX
8
0
10
1676.408087
20
1164.782022
42
0.267949
0
VERTEX
8
0
10
1673.158087
20
1164.782022
42
0.268021
0
VERTEX
8
0
10
1671.533398
20
1161.967501
0
SEQEND
0
POLYLINE
70
1
62
7
8
0
66
1
0
VERTEX
8
0
10
1685.399
20
1261.612
0
VERTEX
8
0
10
1717.399
20
1261.612
0
VERTEX
8
0
10
1727.399
20
1251.612
0
VERTEX
8
0
10
1727.399
20
1219.612
0
VERTEX
8
0
10
1685.399
20
1219.612
0
VERTEX
8
0
10
1685.399
20
1261.612
0
SEQEND
0
POLYLINE
70
1
62
7
8
0
66
1
0
VERTEX
8
0
10
2182.196
20
964.096
0
VERTEX
8
0
10
2182.196
20
955.096
0
VERTEX
8
0
10
2177.446
20
955.096
0
VERTEX
8
0
10
2177.446
20
973.096
0
VERTEX
8
0
10
2267.446
20
973.096
0
VERTEX
8
0
10
2267.446
20
955.096
0
VERTEX
8
0
10
2262.696
20
955.096
0
VERTEX
8
0
10
2262.696
20
964.096
42
0.267949
0
VERTEX
8
0
10
2261.071145
20
966.910511
42
0.267949
0
VERTEX
8
0
10
2257.821145
20
966.910511
42
0.267949
0
VERTEX
8
0
10
2256.196145
20
964.095928
0
VERTEX
8
0
10
2256.196
20
955.096
0
VERTEX
8
0
10
2188.696
20
955.096
0
VERTEX
8
0
10
2188.696
20
964.096
42
0.267949
0
VERTEX
8
0
10
2187.071145
20
966.910511
42
0.267949
0
VERTEX
8
0
10
2183.821145
20
966.910511
42
0.267949
0
VERTEX
8
0
10
2182.196145
20
964.095928
0
SEQEND
0
POLYLINE
70
1
62
7
8
0
66
1
0
VERTEX
8
0
10
2194.436
20
996.349
0
VERTEX
8
0
10
2194.436
20
987.349
0
VERTEX
8
0
10
2187.686
20
987.349
0
VERTEX
8
0
10
2187.686
20
1005.349
0
VERTEX
8
0
10
2267.686
20
1005.349
0
VERTEX
8
0
10
2267.686
20
987.349
0
VERTEX
8
0
10
2260.936
20
987.349
0
VERTEX
8
0
10
2260.936
20
996.349
42
0.267949
0
VERTEX
8
0
10
2259.310790
20
999.163989
42
0.267949
0
VERTEX
8
0
10
2256.060790
20
999.163989
42
0.267949
0
VERTEX
8
0
10
2254.435790
20
996.349407
0
VERTEX
8
0
10
2254.436
20
987.349
0
VERTEX
8
0
10
2200.936
20
987.349
0
VERTEX
8
0
10
2200.936
20
996.349
42
0.267949
0
VERTEX
8
0
10
2199.310790
20
999.163989
42
0.267949
0
VERTEX
8
0
10
2196.060790
20
999.163989
42
0.268031
0
VERTEX
8
0
10
2194.436145
20
996.348928
0
SEQEND
0
POLYLINE
70
1
62
7
8
0
66
1
0
VERTEX
8
0
10
2208.302
20
1095.993
0
VERTEX
8
0
10
2240.302
20
1095.993
0
VERTEX
8
0
10
2250.302
20
1085.993
0
VERTEX
8
0
10
2250.302
20
1053.993
0
VERTEX
8
0
10
2208.302
20
1053.993
0
VERTEX
8
0
10
2208.302
20
1095.993
0
SEQEND
0
POLYLINE
70
1
62
7
8
0
66
1
0
VERTEX
8
0
10
2464.431
20
1046.447
42
0.198913
0
VERTEX
8
0
10
2455.088081
20
1069.003667
42
0.198913
0
VERTEX
8
0
10
2432.531368
20
1078.347105
42
0.198913
0
VERTEX
8
0
10
2409.974655
20
1069.003818
42
0.198913
0
VERTEX
8
0
10
2400.631368
20
1046.447105
42
0.198913
0
VERTEX
8
0
10
2409.974655
20
1023.890392
42
0.198913
0
VERTEX
8
0
10
2432.531368
20
1014.547105
42
0.198913
0
VERTEX
8
0
10
2455.088081
20
1023.890392
42
0.198916
0
VERTEX
8
0
10
2464.431261
20
1046.446847
0
SEQEND
0
POLYLINE
70
1
62
7
8
0
66
1
0
VERTEX
8
0
10
2769.651
20
1113.085
42
-0.405145
0
VERTEX
8
0
10
2771.437779
20
1116.071470
0
VERTEX
8
0
10
2772.404
20
1116.330
42
0.202902
0
VERTEX
8
0
10
2773.941100
20
1117.528584
42
0.202902
0
VERTEX
8
0
10
2774.150947
20
1119.466044
42
0.116077
0
VERTEX
8
0
10
2754.909267
20
1152.793612
42
0.202902
0
VERTEX
8
0
10
2753.126454
20
1153.580608
42
0.202902
0
VERTEX
8
0
10
2751.320339
20
1152.848670
0
VERTEX
8
0
10
2750.613
20
1152.141
42
-0.405145
0
VERTEX
8
0
10
2747.133114
20
1152.087179
42
0.115884
0
VERTEX
8
0
10
2716.236224
20
1169.925506
42
-0.405145
0
VERTEX
8
0
10
2714.543139
20
1172.966109
0
VERTEX
8
0
10
2714.802
20
1173.932
42
0.202902
0
VERTEX
8
0
10
2714.532902
20
1175.862606
42
0.202902
0
VERTEX
8
0
10
2712.959936
20
1177.013069
42
0.116077
0
VERTEX
8
0
10
2674.476576
20
1177.013069
42
0.202902
0
VERTEX
8
0
10
2672.903610
20
1175.862606
42
0.202902
0
VERTEX
8
0
10
2672.634430
20
1173.932495
0
VERTEX
8
0
10
2672.893
20
1172.966
42
-0.405145
0
VERTEX
8
0
10
2671.200288
20
1169.925506
42
0.115884
0
VERTEX
8
0
10
2640.303398
20
1152.087179
42
-0.405145
0
VERTEX
8
0
10
2636.823616
20
1152.141226
0
VERTEX
8
0
10
2636.116
20
1152.848
42
0.202902
0
VERTEX
8
0
10
2634.310058
20
1153.580608
42
0.202902
0
VERTEX
8
0
10
2632.527245
20
1152.793612
42
0.116077
0
VERTEX
8
0
10
2613.285564
20
1119.466044
42
0.202902
0
VERTEX
8
0
10
2613.495412
20
1117.528584
42
0.202902
0
VERTEX
8
0
10
2615.032347
20
1116.330412
0
VERTEX
8
0
10
2615.999
20
1116.071
42
-0.405145
0
VERTEX
8
0
10
2617.785430
20
1113.084914
42
0.115884
0
VERTEX
8
0
10
2617.785430
20
1077.408259
42
-0.405145
0
VERTEX
8
0
10
2615.998733
20
1074.421703
0
VERTEX
8
0
10
2615.032
20
1074.162
42
0.202902
0
VERTEX
8
0
10
2613.495412
20
1072.964588
42
0.202902
0
VERTEX
8
0
10
2613.285564
20
1071.027129
42
0.116077
0
VERTEX
8
0
10
2632.527245
20
1037.699561
42
0.202902
0
VERTEX
8
0
10
2634.310058
20
1036.912564
42
0.202902
0
VERTEX
8
0
10
2636.116173
20
1037.644503
0
VERTEX
8
0
10
2636.823
20
1038.352
42
-0.405145
0
VERTEX
8
0
10
2640.303398
20
1038.405994
42
0.115884
0
VERTEX
8
0
10
2671.200288
20
1020.567666
42
-0.405145
0
VERTEX
8
0
10
2672.893373
20
1017.527063
0
VERTEX
8
0
10
2672.634
20
1016.560
42
0.202902
0
VERTEX
8
0
10
2672.903610
20
1014.630566
42
0.202902
0
VERTEX
8
0
10
2674.476576
20
1013.480103
42
0.116077
0
VERTEX
8
0
10
2712.959936
20
1013.480103
42
0.202902
0
VERTEX
8
0
10
2714.532902
20
1014.630566
42
0.202902
0
VERTEX
8
0
10
2714.802082
20
1016.560677
0
VERTEX
8
0
10
2714.543
20
1017.527
42
-0.405145
0
VERTEX
8
0
10
2716.236224
20
1020.567666
42
0.115884
0
VERTEX
8
0
10
2747.133114
20
1038.405994
42
-0.405145
0
VERTEX
8
0
10
2750.612895
20
1038.351947
0
VERTEX
8
0
10
2751.320
20
1037.644
42
0.202902
0
VERTEX
8
0
10
2753.126454
20
1036.912564
42
0.202902
0
VERTEX
8
0
10
2754.909267
20
1037.699561
42
0.116077
0
VERTEX
8
0
10
2774.150947
20
1071.027129
42
0.202902
0
VERTEX
8
0
10
2773.941100
20
1072.964588
42
0.202902
0
VERTEX
8
0
10
2772.404165
20
1074.162760
0
VERTEX
8
0
10
2771.438
20
1074.421
42
-0.405145
0
VERTEX
8
0
10
2769.651082
20
1077.408259
42
0.115881
0
VERTEX
8
0
10
2769.651149
20
1113.085328
0
SEQEND
0
POLYLINE
70
1
62
7
8
0
66
1
0
VERTEX
8
0
10
2290.644
20
1075.187
0
VERTEX
8
0
10
2369.644
20
1075.187
42
-0.198912
0
VERTEX
8
0
10
2373.886758
20
1073.430022
42
-0.198912
0
VERTEX
8
0
10
2375.644117
20
1069.187381
0
VERTEX
8
0
10
2375.644
20
990.187
42
-0.198913
0
VERTEX
8
0
10
2373.886653
20
985.944633
42
-0.198913
0
VERTEX
8
0
10
2369.644117
20
984.187381
0
VERTEX
8
0
10
2290.644
20
984.187
42
-0.198913
0
VERTEX
8
0
10
2286.401369
20
985.944633
42
-0.198913
0
VERTEX
8
0
10
2284.644117
20
990.187381
0
VERTEX
8
0
10
2284.644
20
1069.187
42
-0.198912
0
VERTEX
8
0
10
2286.401476
20
1073.430022
42
-0.198954
0
VERTEX
8
0
10
2290.644010
20
1075.187123
0
SEQEND
0
POLYLINE
70
1
62
7
8
0
66
1
0
VERTEX
8
0
10
2197.234
20
1132.148
0
VERTEX
8
0
10
2197.234
20
1123.148
0
VERTEX
8
0
10
2192.484
20
1123.148
0
VERTEX
8
0
10
2192.484
20
1141.148
0
VERTEX
8
0
10
2282.484
20
1141.148
0
VERTEX
8
0
10
2282.484
20
1123.148
0
VERTEX
8
0
10
2277.734
20
1123.148
0
VERTEX
8
0
10
2277.734
20
1132.148
42
0.267949
0
VERTEX
8
0
10
2276.109418
20
1134.962717
42
0.267949
0
VERTEX
8
0
10
2272.859418
20
1134.962717
42
0.267949
0
VERTEX
8
0
10
2271.234418
20
1132.148134
0
VERTEX
8
0
10
2271.234
20
1123.148
0
VERTEX
8
0
10
2203.734
20
1123.148
0
VERTEX
8
0
10
2203.734
20
1132.148
42
0.267949
0
VERTEX
8
0
10
2202.109418
20
1134.962717
42
0.267949
0
VERTEX
8
0
10
2198.859418
20
1134.962717
42
0.267886
0
VERTEX
8
0
10
2197.234145
20
1132.147928
0
SEQEND
0
POLYLINE
70
1
62
7
8
0
66
1
0
VERTEX
8
0
10
2209.474
20
1164.402
0
VERTEX
8
0
10
2209.474
20
1155.402
0
VERTEX
8
0
10
2202.724
20
1155.402
0
VERTEX
8
0
10
2202.724
20
1173.402
0
VERTEX
8
0
10
2282.724
20
1173.402
0
VERTEX
8
0
10
2282.724
20
1155.402
0
VERTEX
8
0
10
2275.974
20
1155.402
0
VERTEX
8
0
10
2275.974
20
1164.402
42
0.267949
0
VERTEX
8
0
10
2274.349063
20
1167.216195
42
0.267949
0
VERTEX
8
0
10
2271.099063
20
1167.216195
42
0.267949
0
VERTEX
8
0
10
2269.474063
20
1164.401613
0
VERTEX
8
0
10
2269.474
20
1155.402
0
VERTEX
8
0
10
2215.974
20
1155.402
0
VERTEX
8
0
10
2215.974
20
1164.402
42
0.267949
0
VERTEX
8
0
10
2214.349063
20
1167.216195
42
0.267949
0
VERTEX
8
0
10
2211.099063
20
1167.216195
42
0.267968
0
VERTEX
8
0
10
2209.474145
20
1164.401928
0
SEQEND
0
POLYLINE
70
1
62
7
8
0
66
1
0
VERTEX
8
0
10
2223.340
20
1264.046
0
VERTEX
8
0
10
2255.340
20
1264.046
0
VERTEX
8
0
10
2265.340
20
1254.046
0
VERTEX
8
0
10
2265.340
20
1222.046
0
VERTEX
8
0
10
2223.340
20
1222.046
0
VERTEX
8
0
10
2223.340
20
1264.046
0
SEQEND
0
POLYLINE
70
1
62
7
8
0
66
1
0
VERTEX
8
0
10
2489.366
20
980.134
0
VERTEX
8
0
10
2489.366
20
971.134
0
VERTEX
8
0
10
2484.616
20
971.134
0
VERTEX
8
0
10
2484.616
20
989.134
0
VERTEX
8
0
10
2574.616
20
989.134
0
VERTEX
8
0
10
2574.616
20
971.134
0
VERTEX
8
0
10
2569.866
20
971.134
0
VERTEX
8
0
10
2569.866
20
980.134
42
0.267949
0
VERTEX
8
0
10
2568.241181
20
982.948451
42
0.267949
0
VERTEX
8
0
10
2564.991181
20
982.948451
42
0.267949
0
VERTEX
8
0
10
2563.366181
20
980.133868
0
VERTEX
8
0
10
2563.366
20
971.134
0
VERTEX
8
0
10
2495.866
20
971.134
0
VERTEX
8
0
10
2495.866
20
980.134
42
0.267949
0
VERTEX
8
0
10
2494.241181
20
982.948451
42
0.267949
0
VERTEX
8
0
10
2490.991181
20
982.948451
42
0.267941
0
VERTEX
8
0
10
2489.366145
20
980.133928
0
SEQEND
0
POLYLINE
70
1
62
7
8
0
66
1
0
VERTEX
8
0
10
2501.606
20
1012.387
0
VERTEX
8
0
10
2501.606
20
1003.387
0
VERTEX
8
0
10
2494.856
20
1003.387
0
VERTEX
8
0
10
2494.856
20
1021.387
0
VERTEX
8
0
10
2574.856
20
1021.387
0
VERTEX
8
0
10
2574.856
20
1003.387
0
VERTEX
8
0
10
2568.106
20
1003.387
0
VERTEX
8
0
10
2568.106
20
1012.387
42
0.267949
0
VERTEX
8
0
10
2566.480826
20
1015.201930
42
0.267949
0
VERTEX
8
0
10
2563.230826
20
1015.201930
42
0.267949
0
VERTEX
8
0
10
2561.605826
20
1012.387347
0
VERTEX
8
0
10
2561.606
20
1003.387
0
VERTEX
8
0
10
2508.106
20
1003.387
0
VERTEX
8
0
10
2508.106
20
1012.387
42
0.267949
0
VERTEX
8
0
10
2506.480826
20
1015.201930
42
0.267949
0
VERTEX
8
0
10
2503.230826
20
1015.201930
42
0.268023
0
VERTEX
8
0
10
2501.606145
20
1012.386928
0
SEQEND
0
POLYLINE
70
1
62
7
8
0
66
1
0
VERTEX
8
0
10
2515.472
20
1112.031
0
VERTEX
8
0
10
2547.472
20
1112.031
0
VERTEX
8
0
10
2557.472
20
1102.031
0
VERTEX
8
0
10
2557.472
20
1070.031
0
VERTEX
8
0
10
2515.472
20
1070.031
0
VERTEX
8
0
10
2515.472
20
1112.031
0
SEQEND
0
POLYLINE
70
1
62
7
8
0
66
1
0
VERTEX
8
0
10
2481.435
20
1150.654
0
VERTEX
8
0
10
2481.435
20
1141.654
0
VERTEX
8
0
10
2476.685
20
1141.654
0
VERTEX
8
0
10
2476.685
20
1159.654
0
VERTEX
8
0
10
2566.685
20
1159.654
0
VERTEX
8
0
10
2566.685
20
1141.654
0
VERTEX
8
0
10
2561.935
20
1141.654
0
VERTEX
8
0
10
2561.935
20
1150.654
42
0.267949
0
VERTEX
8
0
10
2560.310002
20
1153.468801
42
0.267949
0
VERTEX
8
0
10
2557.060002
20
1153.468801
42
0.267949
0
VERTEX
8
0
10
2555.435002
20
1150.654219
0
VERTEX
8
0
10
2555.435
20
1141.654
0
VERTEX
8
0
10
2487.935
20
1141.654
0
VERTEX
8
0
10
2487.935
20
1150.654
42
0.267949
0
VERTEX
8
0
10
2486.310002
20
1153.468801
42
0.267949
0
VERTEX
8
0
10
2483.060002
20
1153.468801
42
0.267982
0
VERTEX
8
0
10
2481.435145
20
1150.653928
0
SEQEND
0
POLYLINE
70
1
62
7
8
0
66
1
0
VERTEX
8
0
10
2493.675
20
1182.908
0
VERTEX
8
0
10
2493.675
20
1173.908
0
VERTEX
8
0
10
2486.925
20
1173.908
0
VERTEX
8
0
10
2486.925
20
1191.908
0
VERTEX
8
0
10
2566.925
20
1191.908
0
VERTEX
8
0
10
2566.925
20
1173.908
0
VERTEX
8
0
10
2560.175
20
1173.908
0
VERTEX
8
0
10
2560.175
20
1182.908
42
0.267949
0
VERTEX
8
0
10
2558.549647
20
1185.722280
42
0.267949
0
VERTEX
8
0
10
2555.299647
20
1185.722280
42
0.267949
0
VERTEX
8
0
10
2553.674647
20
1182.907697
0
VERTEX
8
0
10
2553.675
20
1173.908
0
VERTEX
8
0
10
2500.175
20
1173.908
0
VERTEX
8
0
10
2500.175
20
1182.908
42
0.267949
0
VERTEX
8
0
10
2498.549647
20
1185.722280
42
0.267949
0
VERTEX
8
0
10
2495.299647
20
1185.722280
42
0.268064
0
VERTEX
8
0
10
2493.675145
20
1182.907928
0
SEQEND
0
POLYLINE
70
1
62
7
8
0
66
1
0
VERTEX
8
0
10
2507.541
20
1282.552
0
VERTEX
8
0
10
2539.541
20
1282.552
0
VERTEX
8
0
10
2549.541
20
1272.552
0
VERTEX
8
0
10
2549.541
20
1240.552
0
VERTEX
8
0
10
2507.541
20
1240.552
0
VERTEX
8
0
10
2507.541
20
1282.552
0
SEQEND
0
POLYLINE
70
1
62
7
8
0
66
1
0
VERTEX
8
0
10
2334.708
20
1187.666
0
VERTEX
8
0
10
2334.708
20
1178.666
0
VERTEX
8
0
10
2329.958
20
1178.666
0
VERTEX
8
0
10
2329.958
20
1196.666
0
VERTEX
8
0
10
2419.958
20
1196.666
0
VERTEX
8
0
10
2419.958
20
1178.666
0
VERTEX
8
0
10
2415.208
20
1178.666
0
VERTEX
8
0
10
2415.208
20
1187.666
42
0.267949
0
VERTEX
8
0
10
2413.583189
20
1190.480970
42
0.267949
0
VERTEX
8
0
10
2410.333189
20
1190.480970
42
0.267949
0
VERTEX
8
0
10
2408.708189
20
1187.666388
0
VERTEX
8
0
10
2408.708
20
1178.666
0
VERTEX
8
0
10
2341.208
20
1178.666
0
VERTEX
8
0
10
2341.208
20
1187.666
42
0.267949
0
VERTEX
8
0
10
2339.583189
20
1190.480970
42
0.267949
0
VERTEX
8
0
10
2336.333189
20
1190.480970
42
0.267939
0
VERTEX
8
0
10
2334.708145
20
1187.665928
0
SEQEND
0
POLYLINE
70
1
62
7
8
0
66
1
0
VERTEX
8
0
10
2346.948
20
1219.920
0
VERTEX
8
0
10
2346.948
20
1210.920
0
VERTEX
8
0
10
2340.198
20
1210.920
0
VERTEX
8
0
10
2340.198
20
1228.920
0
VERTEX
8
0
10
2420.198
20
1228.920
0
VERTEX
8
0
10
2420.198
20
1210.920
0
VERTEX
8
0
10
2413.448
20
1210.920
0
VERTEX
8
0
10
2413.448
20
1219.920
42
0.267949
0
VERTEX
8
0
10
2411.822834
20
1222.734449
42
0.267949
0
VERTEX
8
0
10
2408.572834
20
1222.734449
42
0.267949
0
VERTEX
8
0
10
2406.947834
20
1219.919866
0
VERTEX
8
0
10
2406.948
20
1210.920
0
VERTEX
8
0
10
2353.448
20
1210.920
0
VERTEX
8
0
10
2353.448
20
1219.920
42
0.267949
0
VERTEX
8
0
10
2351.822834
20
1222.734449
42
0.267949
0
VERTEX
8
0
10
2348.572834
20
1222.734449
42
0.268021
0
VERTEX
8
0
10
2346.948145
20
1219.919928
0
SEQEND
0
POLYLINE
70
1
62
7
8
0
66
1
0
VERTEX
8
0
10
2360.814
20
1319.564
0
VERTEX
8
0
10
2392.814
20
1319.564
0
VERTEX
8
0
10
2402.814
20
1309.564
0
VERTEX
8
0
10
2402.814
20
1277.564
0
VERTEX
8
0
10
2360.814
20
1277.564
0
VERTEX
8
0
10
2360.814
20
1319.564
0
SEQEND
0
ENDSEC
0
EOF
