<?xml version="1.0" encoding="UTF-8" standalone="yes"?>
<!-- Created with sK1/UniConvertor (http://sk1project.org/) -->
<svg xmlns="http://www.w3.org/2000/svg" xmlns:xlink="http://www.w3.org/1999/xlink"
  width="595.276pt" height="841.89pt" viewBox="0 0 595.276 841.89"
  fill-rule="evenodd">
<g>
<path style="stroke:#000000; stroke-width:0.72; fill:none" d="M 4.75 832.89L 4.75 841.89L 0 841.89L 0 823.89L 90 823.89L 90 841.89L 85.25 841.89L 85.25 832.89L 83.625 830.075L 80.375 830.075L 78.75 832.89L 78.75 841.89L 11.25 841.89L 11.25 832.89L 9.625 830.075L 6.375 830.075L 4.75 832.89"/>
<path style="stroke:#000000; stroke-width:0.72; fill:none" d="M 16.99 800.637L 16.99 809.637L 10.24 809.637L 10.24 791.637L 90.24 791.637L 90.24 809.637L 83.49 809.637L 83.49 800.637L 81.8646 797.822L 78.6146 797.822L 76.9896 800.636L 76.99 809.637L 23.49 809.637L 23.49 800.637L 21.8646 797.822L 18.6146 797.822L 16.99 800.637"/>
<path style="stroke:#000000; stroke-width:0.72; fill:none" d="M 30.856 700.993L 62.856 700.993L 72.856 710.993L 72.856 742.993L 30.856 742.993L 30.856 700.993"/>
<path style="stroke:#000000; stroke-width:0.72; fill:none" d="M 286.985 750.539L 277.642 727.982L 255.085 718.639L 232.529 727.982L 223.185 750.539L 232.529 773.095L 255.085 782.439L 277.642 773.095L 286.985 750.539L 286.985 750.539z"/>
<path style="stroke:#000000; stroke-width:0.72; fill:none" d="M 592.205 683.901L 593.992 680.914L 594.958 680.656L 596.495 679.457L 596.705 677.52L 577.463 644.192L 575.68 643.405L 573.874 644.137L 573.167 644.845L 569.687 644.898L 538.79 627.06L 537.097 624.02L 537.356 623.054L 537.087 621.123L 535.514 619.973L 497.03 619.973L 495.457 621.123L 495.188 623.053L 495.447 624.02L 493.754 627.06L 462.857 644.898L 459.377 644.844L 458.67 644.138L 456.864 643.405L 455.081 644.192L 435.839 677.52L 436.049 679.457L 437.586 680.655L 438.553 680.915L 440.339 683.901L 440.339 719.577L 438.553 722.564L 437.586 722.824L 436.049 724.021L 435.839 725.959L 455.081 759.286L 456.864 760.073L 458.67 759.341L 459.377 758.634L 462.857 758.58L 493.754 776.418L 495.447 779.459L 495.188 780.426L 495.457 782.355L 497.03 783.506L 535.514 783.506L 537.087 782.355L 537.356 780.425L 537.097 779.459L 538.79 776.418L 569.687 758.58L 573.167 758.634L 573.874 759.342L 575.68 760.073L 577.463 759.286L 596.705 725.959L 596.495 724.021L 594.958 722.823L 593.992 722.565L 592.205 719.577L 592.205 683.9L 592.205 683.901z"/>
<path style="stroke:#000000; stroke-width:0.72; fill:none" d="M 113.198 721.799L 192.198 721.799L 196.441 723.556L 198.198 727.798L 198.198 806.799L 196.441 811.041L 192.198 812.798L 113.198 812.799L 108.955 811.041L 107.198 806.798L 107.198 727.799L 108.955 723.556L 113.198 721.799L 113.198 721.799z"/>
<path style="stroke:#000000; stroke-width:0.72; fill:none" d="M 19.788 664.838L 19.788 673.838L 15.038 673.838L 15.038 655.838L 105.038 655.838L 105.038 673.838L 100.288 673.838L 100.288 664.838L 98.6633 662.023L 95.4133 662.023L 93.7883 664.838L 93.788 673.838L 26.288 673.838L 26.288 664.838L 24.6633 662.023L 21.4133 662.023L 19.788 664.838"/>
<path style="stroke:#000000; stroke-width:0.72; fill:none" d="M 32.028 632.584L 32.028 641.584L 25.278 641.584L 25.278 623.584L 105.278 623.584L 105.278 641.584L 98.528 641.584L 98.528 632.584L 96.9029 629.77L 93.6529 629.77L 92.0279 632.584L 92.028 641.584L 38.528 641.584L 38.528 632.584L 36.9029 629.77L 33.6529 629.77L 32.028 632.584"/>
<path style="stroke:#000000; stroke-width:0.72; fill:none" d="M 45.894 532.94L 77.894 532.94L 87.894 542.94L 87.894 574.94L 45.894 574.94L 45.894 532.94"/>
<path style="stroke:#000000; stroke-width:0.72; fill:none" d="M 311.92 816.852L 311.92 825.852L 307.17 825.852L 307.17 807.852L 397.17 807.852L 397.17 825.852L 392.42 825.852L 392.42 816.852L 390.795 814.037L 387.545 814.037L 385.92 816.852L 385.92 825.852L 318.42 825.852L 318.42 816.852L 316.795 814.037L 313.545 814.037L 311.92 816.852"/>
<path style="stroke:#000000; stroke-width:0.72; fill:none" d="M 324.16 784.599L 324.16 793.599L 317.41 793.599L 317.41 775.599L 397.41 775.599L 397.41 793.599L 390.66 793.599L 390.66 784.599L 389.035 781.784L 385.785 781.784L 384.16 784.598L 384.16 793.599L 330.66 793.599L 330.66 784.599L 329.035 781.784L 325.785 781.784L 324.16 784.599"/>
<path style="stroke:#000000; stroke-width:0.72; fill:none" d="M 338.026 684.955L 370.026 684.955L 380.026 694.955L 380.026 726.955L 338.026 726.955L 338.026 684.955"/>
<path style="stroke:#000000; stroke-width:0.72; fill:none" d="M 303.989 646.332L 303.989 655.332L 299.239 655.332L 299.239 637.332L 389.239 637.332L 389.239 655.332L 384.489 655.332L 384.489 646.332L 382.864 643.517L 379.614 643.517L 377.989 646.331L 377.989 655.332L 310.489 655.332L 310.489 646.332L 308.864 643.517L 305.614 643.517L 303.989 646.332"/>
<path style="stroke:#000000; stroke-width:0.72; fill:none" d="M 316.229 614.078L 316.229 623.078L 309.479 623.078L 309.479 605.078L 389.479 605.078L 389.479 623.078L 382.729 623.078L 382.729 614.078L 381.104 611.263L 377.854 611.263L 376.229 614.078L 376.229 623.078L 322.729 623.078L 322.729 614.078L 321.104 611.263L 317.854 611.263L 316.229 614.078"/>
<path style="stroke:#000000; stroke-width:0.72; fill:none" d="M 330.095 514.434L 362.095 514.434L 372.095 524.434L 372.095 556.434L 330.095 556.434L 330.095 514.434"/>
<path style="stroke:#000000; stroke-width:0.72; fill:none" d="M 157.262 609.32L 157.262 618.32L 152.512 618.32L 152.512 600.32L 242.512 600.32L 242.512 618.32L 237.762 618.32L 237.762 609.32L 236.137 606.505L 232.887 606.505L 231.262 609.319L 231.262 618.32L 163.762 618.32L 163.762 609.32L 162.137 606.505L 158.887 606.505L 157.262 609.32"/>
<path style="stroke:#000000; stroke-width:0.72; fill:none" d="M 169.502 577.066L 169.502 586.066L 162.752 586.066L 162.752 568.066L 242.752 568.066L 242.752 586.066L 236.002 586.066L 236.002 577.066L 234.377 574.251L 231.127 574.251L 229.502 577.066L 229.502 586.066L 176.002 586.066L 176.002 577.066L 174.377 574.251L 171.127 574.251L 169.502 577.066"/>
<path style="stroke:#000000; stroke-width:0.72; fill:none" d="M 183.368 477.422L 215.368 477.422L 225.368 487.422L 225.368 519.422L 183.368 519.422L 183.368 477.422"/>
<path style="stroke:#000000; stroke-width:0.72; fill:none" d="M 53.045 427.106L 53.045 436.106L 48.295 436.106L 48.295 418.106L 138.295 418.106L 138.295 436.106L 133.545 436.106L 133.545 427.106L 131.92 424.291L 128.67 424.291L 127.045 427.106L 127.045 436.106L 59.545 436.106L 59.545 427.106L 57.9199 424.291L 54.6699 424.291L 53.0449 427.106L 53.045 427.106z"/>
<path style="stroke:#000000; stroke-width:0.72; fill:none" d="M 65.285 394.853L 65.285 403.853L 58.535 403.853L 58.535 385.853L 138.535 385.853L 138.535 403.853L 131.785 403.853L 131.785 394.853L 130.16 392.038L 126.91 392.038L 125.285 394.852L 125.285 403.853L 71.785 403.853L 71.785 394.853L 70.1595 392.038L 66.9095 392.038L 65.2849 394.853L 65.285 394.853z"/>
<path style="stroke:#000000; stroke-width:0.72; fill:none" d="M 79.151 295.209L 111.151 295.209L 121.151 305.209L 121.151 337.209L 79.151 337.209L 79.151 295.209"/>
<path style="stroke:#000000; stroke-width:0.72; fill:none" d="M 335.28 344.755L 325.937 322.198L 303.38 312.855L 280.823 322.198L 271.48 344.755L 280.823 367.311L 303.38 376.655L 325.937 367.311L 335.28 344.755L 335.28 344.755z"/>
<path style="stroke:#000000; stroke-width:0.72; fill:none" d="M 640.5 278.117L 642.286 275.13L 643.253 274.872L 644.79 273.673L 645 271.736L 625.758 238.408L 623.975 237.621L 622.169 238.353L 621.462 239.061L 617.982 239.115L 587.085 221.276L 585.392 218.236L 585.651 217.27L 585.382 215.339L 583.809 214.189L 545.325 214.189L 543.752 215.339L 543.483 217.269L 543.742 218.236L 542.049 221.276L 511.152 239.115L 507.672 239.061L 506.965 238.354L 505.159 237.621L 503.376 238.408L 484.134 271.736L 484.344 273.673L 485.881 274.871L 486.848 275.131L 488.634 278.117L 488.634 313.794L 486.847 316.78L 485.881 317.04L 484.344 318.237L 484.134 320.175L 503.376 353.502L 505.159 354.289L 506.965 353.557L 507.672 352.85L 511.152 352.796L 542.049 370.634L 543.742 373.675L 543.483 374.642L 543.752 376.571L 545.325 377.722L 583.809 377.722L 585.382 376.571L 585.651 374.641L 585.392 373.675L 587.085 370.634L 617.982 352.796L 621.462 352.85L 622.169 353.558L 623.975 354.289L 625.758 353.502L 645 320.175L 644.79 318.237L 643.253 317.039L 642.287 316.781L 640.5 313.794L 640.5 278.117L 640.5 278.117z"/>
<path style="stroke:#000000; stroke-width:0.72; fill:none" d="M 161.493 316.015L 240.493 316.015L 244.735 317.772L 246.493 322.015L 246.493 401.015L 244.735 405.257L 240.493 407.014L 161.493 407.015L 157.25 405.257L 155.493 401.014L 155.493 322.015L 157.25 317.772L 161.493 316.015L 161.493 316.015z"/>
<path style="stroke:#000000; stroke-width:0.72; fill:none" d="M 68.083 259.054L 68.083 268.054L 63.333 268.054L 63.333 250.054L 153.333 250.054L 153.333 268.054L 148.583 268.054L 148.583 259.054L 146.958 256.239L 143.708 256.239L 142.083 259.054L 142.083 268.054L 74.583 268.054L 74.583 259.054L 72.9581 256.239L 69.7081 256.239L 68.0829 259.054L 68.083 259.054z"/>
<path style="stroke:#000000; stroke-width:0.72; fill:none" d="M 80.323 226.8L 80.323 235.8L 73.573 235.8L 73.573 217.8L 153.573 217.8L 153.573 235.8L 146.823 235.8L 146.823 226.8L 145.198 223.986L 141.948 223.986L 140.323 226.8L 140.323 235.8L 86.823 235.8L 86.823 226.8L 85.1978 223.986L 81.9478 223.986L 80.3229 226.8L 80.323 226.8z"/>
<path style="stroke:#000000; stroke-width:0.72; fill:none" d="M 94.189 127.156L 126.189 127.156L 136.189 137.156L 136.189 169.156L 94.189 169.156L 94.189 127.156"/>
<path style="stroke:#000000; stroke-width:0.72; fill:none" d="M 360.215 411.068L 360.215 420.068L 355.465 420.068L 355.465 402.068L 445.465 402.068L 445.465 420.068L 440.715 420.068L 440.715 411.068L 439.09 408.253L 435.84 408.253L 434.215 411.068L 434.215 420.068L 366.715 420.068L 366.715 411.068L 365.09 408.253L 361.84 408.253L 360.215 411.068L 360.215 411.068z"/>
<path style="stroke:#000000; stroke-width:0.72; fill:none" d="M 372.455 378.815L 372.455 387.815L 365.705 387.815L 365.705 369.815L 445.705 369.815L 445.705 387.815L 438.955 387.815L 438.955 378.815L 437.33 376L 434.08 376L 432.455 378.815L 432.455 387.815L 378.955 387.815L 378.955 378.815L 377.33 376L 374.08 376L 372.455 378.815L 372.455 378.815z"/>
<path style="stroke:#000000; stroke-width:0.72; fill:none" d="M 386.321 279.171L 418.321 279.171L 428.321 289.171L 428.321 321.171L 386.321 321.171L 386.321 279.171"/>
<path style="stroke:#000000; stroke-width:0.72; fill:none" d="M 352.284 240.548L 352.284 249.548L 347.534 249.548L 347.534 231.548L 437.534 231.548L 437.534 249.548L 432.784 249.548L 432.784 240.548L 431.159 237.733L 427.909 237.733L 426.284 240.548L 426.284 249.548L 358.784 249.548L 358.784 240.548L 357.159 237.733L 353.909 237.733L 352.284 240.548L 352.284 240.548z"/>
<path style="stroke:#000000; stroke-width:0.72; fill:none" d="M 364.524 208.294L 364.524 217.294L 357.774 217.294L 357.774 199.294L 437.774 199.294L 437.774 217.294L 431.024 217.294L 431.024 208.294L 429.398 205.48L 426.148 205.48L 424.523 208.294L 424.524 217.294L 371.024 217.294L 371.024 208.294L 369.398 205.48L 366.148 205.48L 364.524 208.294L 364.524 208.294z"/>
<path style="stroke:#000000; stroke-width:0.72; fill:none" d="M 378.39 108.65L 410.39 108.65L 420.39 118.65L 420.39 150.65L 378.39 150.65L 378.39 108.65"/>
<path style="stroke:#000000; stroke-width:0.72; fill:none" d="M 205.557 203.536L 205.557 212.536L 200.807 212.536L 200.807 194.536L 290.807 194.536L 290.807 212.536L 286.057 212.536L 286.057 203.536L 284.432 200.721L 281.182 200.721L 279.557 203.536L 279.557 212.536L 212.057 212.536L 212.057 203.536L 210.432 200.721L 207.182 200.721L 205.557 203.536L 205.557 203.536z"/>
<path style="stroke:#000000; stroke-width:0.72; fill:none" d="M 217.797 171.282L 217.797 180.282L 211.047 180.282L 211.047 162.282L 291.047 162.282L 291.047 180.282L 284.297 180.282L 284.297 171.282L 282.672 168.467L 279.422 168.467L 277.797 171.282L 277.797 180.282L 224.297 180.282L 224.297 171.282L 222.672 168.467L 219.422 168.467L 217.797 171.282L 217.797 171.282z"/>
<path style="stroke:#000000; stroke-width:0.72; fill:none" d="M 231.663 71.6378L 263.663 71.6378L 273.663 81.6378L 273.663 113.638L 231.663 113.638L 231.663 71.6378"/>
<path style="stroke:#000000; stroke-width:0.72; fill:none" d="M 679.83 806.084L 679.83 815.084L 675.08 815.084L 675.08 797.084L 765.08 797.084L 765.08 815.084L 760.33 815.084L 760.33 806.084L 758.705 803.269L 755.455 803.269L 753.83 806.084L 753.83 815.084L 686.33 815.084L 686.33 806.084L 684.705 803.269L 681.455 803.269L 679.83 806.084L 679.83 806.084z"/>
<path style="stroke:#000000; stroke-width:0.72; fill:none" d="M 692.07 773.831L 692.07 782.831L 685.32 782.831L 685.32 764.831L 765.32 764.831L 765.32 782.831L 758.57 782.831L 758.57 773.831L 756.945 771.016L 753.695 771.016L 752.07 773.831L 752.07 782.831L 698.57 782.831L 698.57 773.831L 696.945 771.016L 693.695 771.016L 692.07 773.831L 692.07 773.831z"/>
<path style="stroke:#000000; stroke-width:0.72; fill:none" d="M 705.936 674.187L 737.936 674.187L 747.936 684.187L 747.936 716.187L 705.936 716.187L 705.936 674.187"/>
<path style="stroke:#000000; stroke-width:0.72; fill:none" d="M 962.065 723.733L 952.722 701.176L 930.166 691.833L 907.609 701.176L 898.266 723.733L 907.609 746.29L 930.166 755.633L 952.722 746.29L 962.065 723.733L 962.065 723.733z"/>
<path style="stroke:#000000; stroke-width:0.72; fill:none" d="M 1267.29 657.095L 1269.07 654.108L 1270.04 653.85L 1271.58 652.651L 1271.79 650.714L 1252.54 617.386L 1250.76 616.599L 1248.95 617.331L 1248.25 618.039L 1244.77 618.093L 1213.87 600.254L 1212.18 597.214L 1212.44 596.248L 1212.17 594.317L 1210.59 593.167L 1172.11 593.167L 1170.54 594.317L 1170.27 596.247L 1170.53 597.214L 1168.83 600.254L 1137.94 618.093L 1134.46 618.039L 1133.75 617.332L 1131.94 616.599L 1130.16 617.386L 1110.92 650.714L 1111.13 652.651L 1112.67 653.849L 1113.63 654.109L 1115.42 657.095L 1115.42 692.772L 1113.63 695.758L 1112.67 696.018L 1111.13 697.215L 1110.92 699.153L 1130.16 732.48L 1131.94 733.267L 1133.75 732.535L 1134.46 731.828L 1137.94 731.774L 1168.83 749.612L 1170.53 752.653L 1170.27 753.62L 1170.54 755.549L 1172.11 756.7L 1210.59 756.7L 1212.17 755.549L 1212.44 753.619L 1212.18 752.653L 1213.87 749.612L 1244.77 731.774L 1248.25 731.828L 1248.95 732.536L 1250.76 733.267L 1252.54 732.48L 1271.79 699.153L 1271.58 697.215L 1270.04 696.017L 1269.07 695.759L 1267.29 692.772L 1267.29 657.095L 1267.29 657.095z"/>
<path style="stroke:#000000; stroke-width:0.72; fill:none" d="M 788.278 694.993L 867.278 694.993L 871.521 696.75L 873.278 700.993L 873.278 779.993L 871.521 784.235L 867.278 785.993L 788.278 785.993L 784.036 784.235L 782.278 779.993L 782.278 700.993L 784.036 696.75L 788.278 694.993L 788.278 694.993z"/>
<path style="stroke:#000000; stroke-width:0.72; fill:none" d="M 694.868 638.032L 694.868 647.032L 690.118 647.032L 690.118 629.032L 780.118 629.032L 780.118 647.032L 775.368 647.032L 775.368 638.032L 773.744 635.217L 770.494 635.217L 768.869 638.032L 768.868 647.032L 701.368 647.032L 701.368 638.032L 699.744 635.217L 696.494 635.217L 694.868 638.032L 694.868 638.032z"/>
<path style="stroke:#000000; stroke-width:0.72; fill:none" d="M 707.108 605.778L 707.108 614.778L 700.358 614.778L 700.358 596.778L 780.358 596.778L 780.358 614.778L 773.608 614.778L 773.608 605.778L 771.983 602.964L 768.733 602.964L 767.108 605.778L 767.108 614.778L 713.608 614.778L 713.608 605.778L 711.983 602.964L 708.733 602.964L 707.108 605.778L 707.108 605.778z"/>
<path style="stroke:#000000; stroke-width:0.72; fill:none" d="M 720.974 506.134L 752.974 506.134L 762.974 516.134L 762.974 548.134L 720.974 548.134L 720.974 506.134"/>
<path style="stroke:#000000; stroke-width:0.72; fill:none" d="M 987 790.046L 987 799.046L 982.25 799.046L 982.25 781.046L 1072.25 781.046L 1072.25 799.046L 1067.5 799.046L 1067.5 790.046L 1065.88 787.231L 1062.63 787.231L 1061 790.046L 1061 799.046L 993.5 799.046L 993.5 790.046L 991.875 787.231L 988.625 787.231L 987 790.046L 987 790.046z"/>
<path style="stroke:#000000; stroke-width:0.72; fill:none" d="M 999.24 757.793L 999.24 766.793L 992.49 766.793L 992.49 748.793L 1072.49 748.793L 1072.49 766.793L 1065.74 766.793L 1065.74 757.793L 1064.11 754.978L 1060.86 754.978L 1059.24 757.793L 1059.24 766.793L 1005.74 766.793L 1005.74 757.793L 1004.11 754.978L 1000.86 754.978L 999.24 757.793L 999.24 757.793z"/>
<path style="stroke:#000000; stroke-width:0.72; fill:none" d="M 1013.11 658.149L 1045.11 658.149L 1055.11 668.149L 1055.11 700.149L 1013.11 700.149L 1013.11 658.149"/>
<path style="stroke:#000000; stroke-width:0.72; fill:none" d="M 979.069 619.526L 979.069 628.526L 974.319 628.526L 974.319 610.526L 1064.32 610.526L 1064.32 628.526L 1059.57 628.526L 1059.57 619.526L 1057.94 616.711L 1054.69 616.711L 1053.07 619.526L 1053.07 628.526L 985.569 628.526L 985.569 619.526L 983.944 616.711L 980.694 616.711L 979.069 619.526L 979.069 619.526z"/>
<path style="stroke:#000000; stroke-width:0.72; fill:none" d="M 991.309 587.272L 991.309 596.272L 984.559 596.272L 984.559 578.272L 1064.56 578.272L 1064.56 596.272L 1057.81 596.272L 1057.81 587.272L 1056.18 584.458L 1052.93 584.458L 1051.31 587.272L 1051.31 596.272L 997.809 596.272L 997.809 587.272L 996.184 584.458L 992.934 584.458L 991.309 587.272L 991.309 587.272z"/>
<path style="stroke:#000000; stroke-width:0.72; fill:none" d="M 1005.17 487.628L 1037.18 487.628L 1047.18 497.628L 1047.18 529.628L 1005.17 529.628L 1005.17 487.628"/>
<path style="stroke:#000000; stroke-width:0.72; fill:none" d="M 832.342 582.514L 832.342 591.514L 827.592 591.514L 827.592 573.514L 917.592 573.514L 917.592 591.514L 912.842 591.514L 912.842 582.514L 911.217 579.699L 907.967 579.699L 906.342 582.514L 906.342 591.514L 838.842 591.514L 838.842 582.514L 837.217 579.699L 833.967 579.699L 832.342 582.514L 832.342 582.514z"/>
<path style="stroke:#000000; stroke-width:0.72; fill:none" d="M 844.582 550.26L 844.582 559.26L 837.832 559.26L 837.832 541.26L 917.832 541.26L 917.832 559.26L 911.082 559.26L 911.082 550.26L 909.457 547.445L 906.207 547.445L 904.582 550.26L 904.582 559.26L 851.082 559.26L 851.082 550.26L 849.457 547.445L 846.207 547.445L 844.582 550.26L 844.582 550.26z"/>
<path style="stroke:#000000; stroke-width:0.72; fill:none" d="M 858.448 450.616L 890.448 450.616L 900.448 460.616L 900.448 492.616L 858.448 492.616L 858.448 450.616"/>
<path style="stroke:#000000; stroke-width:0.72; fill:none" d="M 710.076 368.297L 710.076 377.297L 705.326 377.297L 705.326 359.297L 795.326 359.297L 795.326 377.297L 790.576 377.297L 790.576 368.297L 788.951 365.482L 785.701 365.482L 784.076 368.297L 784.076 377.297L 716.576 377.297L 716.576 368.297L 714.951 365.482L 711.701 365.482L 710.076 368.297L 710.076 368.297z"/>
<path style="stroke:#000000; stroke-width:0.72; fill:none" d="M 722.316 336.044L 722.316 345.044L 715.566 345.044L 715.566 327.044L 795.566 327.044L 795.566 345.044L 788.816 345.044L 788.816 336.044L 787.19 333.229L 783.94 333.229L 782.315 336.043L 782.316 345.044L 728.816 345.044L 728.816 336.044L 727.19 333.229L 723.94 333.229L 722.316 336.044L 722.316 336.044z"/>
<path style="stroke:#000000; stroke-width:0.72; fill:none" d="M 736.182 236.4L 768.182 236.4L 778.182 246.4L 778.182 278.4L 736.182 278.4L 736.182 236.4"/>
<path style="stroke:#000000; stroke-width:0.72; fill:none" d="M 992.311 285.946L 982.968 263.389L 960.411 254.046L 937.854 263.389L 928.511 285.946L 937.854 308.502L 960.411 317.846L 982.968 308.502L 992.311 285.946L 992.311 285.946z"/>
<path style="stroke:#000000; stroke-width:0.72; fill:none" d="M 1297.53 219.308L 1299.32 216.321L 1300.28 216.063L 1301.82 214.864L 1302.03 212.927L 1282.79 179.599L 1281.01 178.812L 1279.2 179.544L 1278.49 180.252L 1275.01 180.305L 1244.12 162.467L 1242.42 159.427L 1242.68 158.461L 1242.41 156.53L 1240.84 155.38L 1202.36 155.38L 1200.78 156.53L 1200.51 158.46L 1200.77 159.427L 1199.08 162.467L 1168.18 180.305L 1164.7 180.251L 1164 179.545L 1162.19 178.812L 1160.41 179.599L 1141.17 212.927L 1141.37 214.864L 1142.91 216.062L 1143.88 216.322L 1145.66 219.308L 1145.66 254.984L 1143.88 257.971L 1142.91 258.231L 1141.37 259.428L 1141.17 261.366L 1160.41 294.693L 1162.19 295.48L 1164 294.748L 1164.7 294.041L 1168.18 293.987L 1199.08 311.825L 1200.77 314.866L 1200.51 315.833L 1200.78 317.762L 1202.36 318.913L 1240.84 318.913L 1242.41 317.762L 1242.68 315.832L 1242.42 314.866L 1244.12 311.825L 1275.01 293.987L 1278.49 294.041L 1279.2 294.749L 1281.01 295.48L 1282.79 294.693L 1302.03 261.366L 1301.82 259.428L 1300.28 258.23L 1299.32 257.972L 1297.53 254.984L 1297.53 219.307L 1297.53 219.308z"/>
<path style="stroke:#000000; stroke-width:0.72; fill:none" d="M 818.523 257.206L 897.523 257.206L 901.766 258.963L 903.524 263.205L 903.523 342.206L 901.766 346.448L 897.524 348.205L 818.523 348.206L 814.281 346.448L 812.524 342.205L 812.523 263.206L 814.281 258.963L 818.523 257.206L 818.523 257.206z"/>
<path style="stroke:#000000; stroke-width:0.72; fill:none" d="M 725.114 200.245L 725.114 209.245L 720.364 209.245L 720.364 191.245L 810.364 191.245L 810.364 209.245L 805.614 209.245L 805.614 200.245L 803.989 197.43L 800.739 197.43L 799.114 200.245L 799.114 209.245L 731.614 209.245L 731.614 200.245L 729.989 197.43L 726.739 197.43L 725.114 200.245L 725.114 200.245z"/>
<path style="stroke:#000000; stroke-width:0.72; fill:none" d="M 737.354 167.991L 737.354 176.991L 730.604 176.991L 730.604 158.991L 810.604 158.991L 810.604 176.991L 803.854 176.991L 803.854 167.991L 802.229 165.176L 798.979 165.176L 797.354 167.991L 797.354 176.991L 743.854 176.991L 743.854 167.991L 742.229 165.176L 738.979 165.176L 737.354 167.991L 737.354 167.991z"/>
<path style="stroke:#000000; stroke-width:0.72; fill:none" d="M 751.22 68.3467L 783.22 68.3467L 793.22 78.3467L 793.22 110.347L 751.22 110.347L 751.22 68.3467"/>
<path style="stroke:#000000; stroke-width:0.72; fill:none" d="M 1017.25 352.259L 1017.25 361.259L 1012.5 361.259L 1012.5 343.259L 1102.5 343.259L 1102.5 361.259L 1097.75 361.259L 1097.75 352.259L 1096.12 349.444L 1092.87 349.444L 1091.25 352.259L 1091.25 361.259L 1023.75 361.259L 1023.75 352.259L 1022.12 349.444L 1018.87 349.444L 1017.25 352.259L 1017.25 352.259z"/>
<path style="stroke:#000000; stroke-width:0.72; fill:none" d="M 1029.49 320.006L 1029.49 329.006L 1022.74 329.006L 1022.74 311.006L 1102.74 311.006L 1102.74 329.006L 1095.99 329.006L 1095.99 320.006L 1094.36 317.191L 1091.11 317.191L 1089.49 320.005L 1089.49 329.006L 1035.99 329.006L 1035.99 320.006L 1034.36 317.191L 1031.11 317.191L 1029.49 320.006L 1029.49 320.006z"/>
<path style="stroke:#000000; stroke-width:0.72; fill:none" d="M 1043.35 220.362L 1075.35 220.362L 1085.35 230.362L 1085.35 262.362L 1043.35 262.362L 1043.35 220.362"/>
<path style="stroke:#000000; stroke-width:0.72; fill:none" d="M 1009.32 181.739L 1009.32 190.739L 1004.57 190.739L 1004.57 172.739L 1094.56 172.739L 1094.56 190.739L 1089.81 190.739L 1089.81 181.739L 1088.19 178.924L 1084.94 178.924L 1083.31 181.738L 1083.31 190.739L 1015.82 190.739L 1015.82 181.739L 1014.19 178.924L 1010.94 178.924L 1009.31 181.739L 1009.32 181.739z"/>
<path style="stroke:#000000; stroke-width:0.72; fill:none" d="M 1021.55 149.485L 1021.55 158.485L 1014.8 158.485L 1014.8 140.485L 1094.81 140.485L 1094.81 158.485L 1088.06 158.485L 1088.06 149.485L 1086.43 146.67L 1083.18 146.67L 1081.55 149.485L 1081.56 158.485L 1028.06 158.485L 1028.06 149.485L 1026.43 146.67L 1023.18 146.67L 1021.55 149.485L 1021.55 149.485z"/>
<path style="stroke:#000000; stroke-width:0.72; fill:none" d="M 1035.42 49.8408L 1067.42 49.8408L 1077.42 59.8408L 1077.42 91.8408L 1035.42 91.8408L 1035.42 49.8408"/>
<path style="stroke:#000000; stroke-width:0.72; fill:none" d="M 862.588 144.727L 862.588 153.727L 857.838 153.727L 857.838 135.727L 947.838 135.727L 947.838 153.727L 943.088 153.727L 943.088 144.727L 941.463 141.912L 938.213 141.912L 936.588 144.726L 936.588 153.727L 869.088 153.727L 869.088 144.727L 867.463 141.912L 864.213 141.912L 862.588 144.727L 862.588 144.727z"/>
<path style="stroke:#000000; stroke-width:0.72; fill:none" d="M 874.828 112.473L 874.828 121.473L 868.078 121.473L 868.078 103.473L 948.078 103.473L 948.078 121.473L 941.328 121.473L 941.328 112.473L 939.702 109.658L 936.452 109.658L 934.827 112.473L 934.828 121.473L 881.328 121.473L 881.328 112.473L 879.702 109.658L 876.452 109.658L 874.828 112.473L 874.828 112.473z"/>
<path style="stroke:#000000; stroke-width:0.72; fill:none" d="M 888.694 12.8288L 920.694 12.8288L 930.694 22.8288L 930.694 54.8288L 888.694 54.8288L 888.694 12.8288"/>
<path style="stroke:#000000; stroke-width:0.72; fill:none" d="M 75.336 6.84778L 75.336 15.8478L 70.586 15.8478L 70.586 -2.15222L 160.586 -2.15222L 160.586 15.8478L 155.836 15.8478L 155.836 6.84778L 154.211 4.03333L 150.961 4.03333L 149.336 6.84796L 149.336 15.8478L 81.836 15.8478L 81.836 6.84778L 80.2113 4.03333L 76.9613 4.03333L 75.3363 6.84796L 75.336 6.84778z"/>
<path style="stroke:#000000; stroke-width:0.72; fill:none" d="M 87.576 -25.4052L 87.576 -16.4052L 80.826 -16.4052L 80.826 -34.4052L 160.826 -34.4052L 160.826 -16.4052L 154.076 -16.4052L 154.076 -25.4052L 152.451 -28.2201L 149.201 -28.2201L 147.576 -25.4055L 147.576 -16.4052L 94.076 -16.4052L 94.076 -25.4052L 92.4509 -28.2201L 89.2009 -28.2201L 87.5763 -25.4051L 87.576 -25.4052z"/>
<path style="stroke:#000000; stroke-width:0.72; fill:none" d="M 101.442 -125.049L 133.442 -125.049L 143.442 -115.049L 143.442 -83.0493L 101.442 -83.0493L 101.442 -125.049"/>
<path style="stroke:#000000; stroke-width:0.72; fill:none" d="M 357.571 -75.5032L 348.228 -98.0598L 325.672 -107.403L 303.115 -98.0599L 293.771 -75.5032L 303.115 -52.9465L 325.672 -43.6032L 348.228 -52.9465L 357.571 -75.503L 357.571 -75.5032z"/>
<path style="stroke:#000000; stroke-width:0.72; fill:none" d="M 662.791 -142.141L 664.578 -145.128L 665.544 -145.386L 667.081 -146.585L 667.291 -148.522L 648.049 -181.85L 646.267 -182.637L 644.46 -181.905L 643.753 -181.197L 640.273 -181.143L 609.376 -198.982L 607.683 -202.022L 607.942 -202.988L 607.673 -204.919L 606.1 -206.069L 567.617 -206.069L 566.044 -204.919L 565.775 -202.989L 566.033 -202.022L 564.34 -198.982L 533.444 -181.143L 529.964 -181.197L 529.256 -181.904L 527.45 -182.637L 525.667 -181.85L 506.426 -148.522L 506.636 -146.585L 508.172 -145.387L 509.139 -145.127L 510.926 -142.141L 510.926 -106.464L 509.139 -103.478L 508.172 -103.218L 506.636 -102.021L 506.426 -100.083L 525.667 -66.7557L 527.45 -65.9687L 529.256 -66.7006L 529.963 -67.4082L 533.444 -67.4621L 564.34 -49.6238L 566.034 -46.5832L 565.774 -45.6162L 566.044 -43.6867L 567.617 -42.5363L 606.1 -42.5363L 607.673 -43.6867L 607.942 -45.6168L 607.683 -46.5833L 609.376 -49.6238L 640.273 -67.4621L 643.753 -67.4081L 644.46 -66.7003L 646.267 -65.9687L 648.049 -66.7557L 667.291 -100.083L 667.081 -102.021L 665.544 -103.219L 664.578 -103.477L 662.791 -106.464L 662.791 -142.141L 662.791 -142.141z"/>
<path style="stroke:#000000; stroke-width:0.72; fill:none" d="M 183.784 -104.243L 262.784 -104.243L 267.027 -102.486L 268.784 -98.2435L 268.784 -19.2432L 267.027 -15.0008L 262.784 -13.2435L 183.784 -13.2432L 179.542 -15.0008L 177.784 -19.2435L 177.784 -98.2432L 179.542 -102.486L 183.784 -104.243L 183.784 -104.243z"/>
<path style="stroke:#000000; stroke-width:0.72; fill:none" d="M 90.374 -161.204L 90.374 -152.204L 85.624 -152.204L 85.624 -170.204L 175.624 -170.204L 175.624 -152.204L 170.874 -152.204L 170.874 -161.204L 169.25 -164.019L 166 -164.019L 164.375 -161.204L 164.374 -152.204L 96.874 -152.204L 96.874 -161.204L 95.2495 -164.019L 91.9995 -164.019L 90.3743 -161.204L 90.374 -161.204z"/>
<path style="stroke:#000000; stroke-width:0.72; fill:none" d="M 102.614 -193.458L 102.614 -184.458L 95.864 -184.458L 95.864 -202.458L 175.864 -202.458L 175.864 -184.458L 169.114 -184.458L 169.114 -193.458L 167.489 -196.272L 164.239 -196.272L 162.614 -193.458L 162.614 -184.458L 109.114 -184.458L 109.114 -193.458L 107.489 -196.272L 104.239 -196.272L 102.614 -193.458L 102.614 -193.458z"/>
<path style="stroke:#000000; stroke-width:0.72; fill:none" d="M 116.48 -293.102L 148.48 -293.102L 158.48 -283.102L 158.48 -251.102L 116.48 -251.102L 116.48 -293.102"/>
<path style="stroke:#000000; stroke-width:0.72; fill:none" d="M 382.506 -9.19025L 382.506 -0.190247L 377.756 -0.190247L 377.756 -18.1902L 467.756 -18.1902L 467.756 -0.190247L 463.006 -0.190247L 463.006 -9.19025L 461.381 -12.0046L 458.131 -12.0046L 456.506 -9.19L 456.506 -0.190247L 389.006 -0.190247L 389.006 -9.19025L 387.381 -12.0046L 384.131 -12.0046L 382.506 -9.19006L 382.506 -9.19025z"/>
<path style="stroke:#000000; stroke-width:0.72; fill:none" d="M 394.746 -41.4432L 394.746 -32.4432L 387.996 -32.4432L 387.996 -50.4432L 467.996 -50.4432L 467.996 -32.4432L 461.246 -32.4432L 461.246 -41.4432L 459.621 -44.2581L 456.371 -44.2581L 454.746 -41.4435L 454.746 -32.4432L 401.246 -32.4432L 401.246 -41.4432L 399.621 -44.2581L 396.371 -44.2581L 394.746 -41.4431L 394.746 -41.4432z"/>
<path style="stroke:#000000; stroke-width:0.72; fill:none" d="M 408.612 -141.087L 440.612 -141.087L 450.612 -131.087L 450.612 -99.0872L 408.612 -99.0872L 408.612 -141.087"/>
<path style="stroke:#000000; stroke-width:0.72; fill:none" d="M 374.575 -179.71L 374.575 -170.71L 369.825 -170.71L 369.825 -188.71L 459.825 -188.71L 459.825 -170.71L 455.075 -170.71L 455.075 -179.71L 453.45 -182.525L 450.2 -182.525L 448.575 -179.71L 448.575 -170.71L 381.075 -170.71L 381.075 -179.71L 379.45 -182.525L 376.2 -182.525L 374.575 -179.71L 374.575 -179.71z"/>
<path style="stroke:#000000; stroke-width:0.72; fill:none" d="M 386.815 -211.964L 386.815 -202.964L 380.065 -202.964L 380.065 -220.964L 460.065 -220.964L 460.065 -202.964L 453.315 -202.964L 453.315 -211.964L 451.69 -214.778L 448.44 -214.778L 446.815 -211.964L 446.815 -202.964L 393.315 -202.964L 393.315 -211.964L 391.69 -214.778L 388.44 -214.778L 386.815 -211.964L 386.815 -211.964z"/>
<path style="stroke:#000000; stroke-width:0.72; fill:none" d="M 400.681 -311.608L 432.681 -311.608L 442.681 -301.608L 442.681 -269.608L 400.681 -269.608L 400.681 -311.608"/>
<path style="stroke:#000000; stroke-width:0.72; fill:none" d="M 227.848 -216.722L 227.848 -207.722L 223.098 -207.722L 223.098 -225.722L 313.098 -225.722L 313.098 -207.722L 308.348 -207.722L 308.348 -216.722L 306.723 -219.537L 303.473 -219.537L 301.848 -216.723L 301.848 -207.722L 234.348 -207.722L 234.348 -216.722L 232.723 -219.537L 229.473 -219.537L 227.848 -216.722L 227.848 -216.722z"/>
<path style="stroke:#000000; stroke-width:0.72; fill:none" d="M 240.088 -248.976L 240.088 -239.976L 233.338 -239.976L 233.338 -257.976L 313.338 -257.976L 313.338 -239.976L 306.588 -239.976L 306.588 -248.976L 304.963 -251.791L 301.713 -251.791L 300.088 -248.976L 300.088 -239.976L 246.588 -239.976L 246.588 -248.976L 244.963 -251.791L 241.713 -251.791L 240.088 -248.976L 240.088 -248.976z"/>
<path style="stroke:#000000; stroke-width:0.72; fill:none" d="M 253.954 -348.62L 285.954 -348.62L 295.954 -338.62L 295.954 -306.62L 253.954 -306.62L 253.954 -348.62"/>
<path style="stroke:#000000; stroke-width:0.72; fill:none" d="M 750.751 -51.1042L 750.751 -42.1042L 746.001 -42.1042L 746.001 -60.1042L 836.001 -60.1042L 836.001 -42.1042L 831.251 -42.1042L 831.251 -51.1042L 829.626 -53.9191L 826.376 -53.9191L 824.751 -51.1045L 824.751 -42.1042L 757.251 -42.1042L 757.251 -51.1042L 755.626 -53.9191L 752.376 -53.9191L 750.751 -51.1045L 750.751 -51.1042z"/>
<path style="stroke:#000000; stroke-width:0.72; fill:none" d="M 762.991 -83.3572L 762.991 -74.3572L 756.241 -74.3572L 756.241 -92.3572L 836.241 -92.3572L 836.241 -74.3572L 829.491 -74.3572L 829.491 -83.3572L 827.866 -86.1725L 824.616 -86.1725L 822.991 -83.358L 822.991 -74.3572L 769.491 -74.3572L 769.491 -83.3572L 767.866 -86.1725L 764.616 -86.1725L 762.991 -83.3575L 762.991 -83.3572z"/>
<path style="stroke:#000000; stroke-width:0.72; fill:none" d="M 776.857 -183.001L 808.857 -183.001L 818.857 -173.001L 818.857 -141.001L 776.857 -141.001L 776.857 -183.001"/>
<path style="stroke:#000000; stroke-width:0.72; fill:none" d="M 1032.99 -133.455L 1023.64 -156.012L 1001.09 -165.356L 978.53 -156.012L 969.186 -133.456L 978.53 -110.899L 1001.09 -101.556L 1023.64 -110.899L 1032.99 -133.455L 1032.99 -133.455z"/>
<path style="stroke:#000000; stroke-width:0.72; fill:none" d="M 1338.21 -200.094L 1339.99 -203.08L 1340.96 -203.339L 1342.5 -204.537L 1342.71 -206.475L 1323.46 -239.802L 1321.68 -240.589L 1319.88 -239.857L 1319.17 -239.15L 1315.69 -239.096L 1284.79 -256.934L 1283.1 -259.975L 1283.36 -260.941L 1283.09 -262.871L 1281.51 -264.022L 1243.03 -264.022L 1241.46 -262.871L 1241.19 -260.941L 1241.45 -259.975L 1239.76 -256.934L 1208.86 -239.096L 1205.38 -239.15L 1204.67 -239.857L 1202.86 -240.589L 1201.08 -239.802L 1181.84 -206.475L 1182.05 -204.537L 1183.59 -203.339L 1184.55 -203.08L 1186.34 -200.094L 1186.34 -164.417L 1184.55 -161.43L 1183.59 -161.171L 1182.05 -159.973L 1181.84 -158.036L 1201.08 -124.708L 1202.86 -123.921L 1204.67 -124.653L 1205.38 -125.361L 1208.86 -125.415L 1239.76 -107.576L 1241.45 -104.536L 1241.19 -103.569L 1241.46 -101.639L 1243.03 -100.489L 1281.51 -100.489L 1283.09 -101.639L 1283.36 -103.569L 1283.1 -104.536L 1284.79 -107.576L 1315.69 -125.415L 1319.17 -125.361L 1319.88 -124.653L 1321.68 -123.921L 1323.46 -124.708L 1342.71 -158.036L 1342.5 -159.973L 1340.96 -161.171L 1339.99 -161.43L 1338.21 -164.417L 1338.21 -200.094L 1338.21 -200.094z"/>
<path style="stroke:#000000; stroke-width:0.72; fill:none" d="M 859.199 -162.195L 938.199 -162.195L 942.442 -160.439L 944.199 -156.196L 944.199 -77.1953L 942.442 -72.9532L 938.199 -71.1959L 859.199 -71.1953L 854.956 -72.9532L 853.199 -77.1959L 853.199 -156.195L 854.956 -160.439L 859.199 -162.196L 859.199 -162.195z"/>
<path style="stroke:#000000; stroke-width:0.72; fill:none" d="M 765.789 -219.156L 765.789 -210.156L 761.039 -210.156L 761.039 -228.156L 851.039 -228.156L 851.039 -210.156L 846.289 -210.156L 846.289 -219.156L 844.664 -221.971L 841.414 -221.971L 839.789 -219.157L 839.789 -210.156L 772.289 -210.156L 772.289 -219.156L 770.664 -221.971L 767.414 -221.971L 765.789 -219.156L 765.789 -219.156z"/>
<path style="stroke:#000000; stroke-width:0.72; fill:none" d="M 778.029 -251.41L 778.029 -242.41L 771.279 -242.41L 771.279 -260.41L 851.279 -260.41L 851.279 -242.41L 844.529 -242.41L 844.529 -251.41L 842.904 -254.225L 839.654 -254.225L 838.029 -251.41L 838.029 -242.41L 784.529 -242.41L 784.529 -251.41L 782.904 -254.225L 779.654 -254.225L 778.029 -251.411L 778.029 -251.41z"/>
<path style="stroke:#000000; stroke-width:0.72; fill:none" d="M 791.895 -351.054L 823.895 -351.054L 833.895 -341.054L 833.895 -309.054L 791.895 -309.054L 791.895 -351.054"/>
<path style="stroke:#000000; stroke-width:0.72; fill:none" d="M 1057.92 -67.1422L 1057.92 -58.1422L 1053.17 -58.1422L 1053.17 -76.1422L 1143.17 -76.1422L 1143.17 -58.1422L 1138.42 -58.1422L 1138.42 -67.1422L 1136.8 -69.957L 1133.55 -69.957L 1131.92 -67.1425L 1131.92 -58.1422L 1064.42 -58.1422L 1064.42 -67.1422L 1062.8 -69.957L 1059.55 -69.957L 1057.92 -67.1425L 1057.92 -67.1422z"/>
<path style="stroke:#000000; stroke-width:0.72; fill:none" d="M 1070.16 -99.3952L 1070.16 -90.3952L 1063.41 -90.3952L 1063.41 -108.395L 1143.41 -108.395L 1143.41 -90.3952L 1136.66 -90.3952L 1136.66 -99.3952L 1135.04 -102.211L 1131.79 -102.211L 1130.16 -99.3959L 1130.16 -90.3952L 1076.66 -90.3952L 1076.66 -99.3952L 1075.04 -102.211L 1071.79 -102.211L 1070.16 -99.3955L 1070.16 -99.3952z"/>
<path style="stroke:#000000; stroke-width:0.72; fill:none" d="M 1084.03 -199.039L 1116.03 -199.039L 1126.03 -189.039L 1126.03 -157.039L 1084.03 -157.039L 1084.03 -199.039"/>
<path style="stroke:#000000; stroke-width:0.72; fill:none" d="M 1049.99 -237.662L 1049.99 -228.662L 1045.24 -228.662L 1045.24 -246.662L 1135.24 -246.662L 1135.24 -228.662L 1130.49 -228.662L 1130.49 -237.662L 1128.86 -240.477L 1125.61 -240.477L 1123.99 -237.663L 1123.99 -228.662L 1056.49 -228.662L 1056.49 -237.662L 1054.86 -240.477L 1051.61 -240.477L 1049.99 -237.662L 1049.99 -237.662z"/>
<path style="stroke:#000000; stroke-width:0.72; fill:none" d="M 1062.23 -269.916L 1062.23 -260.916L 1055.48 -260.916L 1055.48 -278.916L 1135.48 -278.916L 1135.48 -260.916L 1128.73 -260.916L 1128.73 -269.916L 1127.1 -272.731L 1123.85 -272.731L 1122.23 -269.916L 1122.23 -260.916L 1068.73 -260.916L 1068.73 -269.916L 1067.1 -272.731L 1063.85 -272.731L 1062.23 -269.917L 1062.23 -269.916z"/>
<path style="stroke:#000000; stroke-width:0.72; fill:none" d="M 1076.1 -369.56L 1108.1 -369.56L 1118.1 -359.56L 1118.1 -327.56L 1076.1 -327.56L 1076.1 -369.56"/>
<path style="stroke:#000000; stroke-width:0.72; fill:none" d="M 903.263 -274.674L 903.263 -265.674L 898.513 -265.674L 898.513 -283.674L 988.513 -283.674L 988.513 -265.674L 983.763 -265.674L 983.763 -274.674L 982.138 -277.49L 978.888 -277.49L 977.263 -274.675L 977.263 -265.674L 909.763 -265.674L 909.763 -274.674L 908.138 -277.49L 904.888 -277.49L 903.263 -274.674L 903.263 -274.674z"/>
<path style="stroke:#000000; stroke-width:0.72; fill:none" d="M 915.503 -306.928L 915.503 -297.928L 908.753 -297.928L 908.753 -315.928L 988.753 -315.928L 988.753 -297.928L 982.003 -297.928L 982.003 -306.928L 980.378 -309.743L 977.128 -309.743L 975.503 -306.928L 975.503 -297.928L 922.003 -297.928L 922.003 -306.928L 920.378 -309.743L 917.128 -309.743L 915.503 -306.928L 915.503 -306.928z"/>
<path style="stroke:#000000; stroke-width:0.72; fill:none" d="M 929.369 -406.572L 961.369 -406.572L 971.369 -396.572L 971.369 -364.572L 929.369 -364.572L 929.369 -406.572"/>
<path style="stroke:#000000; stroke-width:0.72; fill:none" d="M 1436.19 761.788L 1436.19 770.788L 1431.44 770.788L 1431.44 752.788L 1521.44 752.788L 1521.44 770.788L 1516.69 770.788L 1516.69 761.788L 1515.07 758.974L 1511.82 758.974L 1510.2 761.788L 1510.19 770.788L 1442.69 770.788L 1442.69 761.788L 1441.07 758.974L 1437.82 758.974L 1436.2 761.788L 1436.19 761.788z"/>
<path style="stroke:#000000; stroke-width:0.72; fill:none" d="M 1448.44 729.535L 1448.44 738.535L 1441.69 738.535L 1441.69 720.535L 1521.69 720.535L 1521.69 738.535L 1514.94 738.535L 1514.94 729.535L 1513.31 726.72L 1510.06 726.72L 1508.43 729.535L 1508.44 738.535L 1454.94 738.535L 1454.94 729.535L 1453.31 726.72L 1450.06 726.72L 1448.44 729.535L 1448.44 729.535z"/>
<path style="stroke:#000000; stroke-width:0.72; fill:none" d="M 1462.3 629.891L 1494.3 629.891L 1504.3 639.891L 1504.3 671.891L 1462.3 671.891L 1462.3 629.891"/>
<path style="stroke:#000000; stroke-width:0.72; fill:none" d="M 1718.43 679.437L 1709.09 656.88L 1686.53 647.537L 1663.97 656.88L 1654.63 679.437L 1663.97 701.994L 1686.53 711.337L 1709.09 701.994L 1718.43 679.437L 1718.43 679.437z"/>
<path style="stroke:#000000; stroke-width:0.72; fill:none" d="M 2023.65 612.799L 2025.44 609.813L 2026.4 609.554L 2027.94 608.355L 2028.15 606.418L 2008.91 573.09L 2007.13 572.303L 2005.32 573.035L 2004.61 573.743L 2001.13 573.797L 1970.24 555.958L 1968.54 552.918L 1968.8 551.952L 1968.53 550.021L 1966.96 548.871L 1928.48 548.871L 1926.9 550.021L 1926.63 551.952L 1926.89 552.918L 1925.2 555.958L 1894.3 573.797L 1890.82 573.743L 1890.11 573.036L 1888.31 572.303L 1886.53 573.09L 1867.28 606.418L 1867.49 608.355L 1869.03 609.554L 1870 609.813L 1871.78 612.799L 1871.78 648.476L 1870 651.462L 1869.03 651.722L 1867.49 652.919L 1867.28 654.857L 1886.53 688.184L 1888.31 688.971L 1890.12 688.24L 1890.82 687.532L 1894.3 687.478L 1925.2 705.316L 1926.89 708.357L 1926.63 709.324L 1926.9 711.253L 1928.48 712.404L 1966.96 712.404L 1968.53 711.253L 1968.8 709.323L 1968.54 708.357L 1970.24 705.316L 2001.13 687.478L 2004.61 687.532L 2005.32 688.24L 2007.13 688.971L 2008.91 688.184L 2028.15 654.857L 2027.94 652.919L 2026.4 651.721L 2025.44 651.463L 2023.65 648.476L 2023.65 612.799L 2023.65 612.799z"/>
<path style="stroke:#000000; stroke-width:0.72; fill:none" d="M 1544.64 650.697L 1623.64 650.697L 1627.89 652.454L 1629.64 656.697L 1629.64 735.697L 1627.89 739.939L 1623.64 741.697L 1544.64 741.697L 1540.4 739.939L 1538.64 735.697L 1538.64 656.697L 1540.4 652.454L 1544.64 650.697L 1544.64 650.697z"/>
<path style="stroke:#000000; stroke-width:0.72; fill:none" d="M 1451.23 593.736L 1451.23 602.736L 1446.48 602.736L 1446.48 584.736L 1536.48 584.736L 1536.48 602.736L 1531.73 602.736L 1531.73 593.736L 1530.11 590.921L 1526.86 590.921L 1525.23 593.736L 1525.23 602.736L 1457.73 602.736L 1457.73 593.736L 1456.11 590.921L 1452.86 590.921L 1451.23 593.736L 1451.23 593.736z"/>
<path style="stroke:#000000; stroke-width:0.72; fill:none" d="M 1463.47 561.482L 1463.47 570.482L 1456.72 570.482L 1456.72 552.482L 1536.72 552.482L 1536.72 570.482L 1529.97 570.482L 1529.97 561.482L 1528.35 558.668L 1525.1 558.668L 1523.47 561.482L 1523.47 570.482L 1469.97 570.482L 1469.97 561.482L 1468.35 558.668L 1465.1 558.668L 1463.47 561.482L 1463.47 561.482z"/>
<path style="stroke:#000000; stroke-width:0.72; fill:none" d="M 1477.34 461.838L 1509.34 461.838L 1519.34 471.838L 1519.34 503.838L 1477.34 503.838L 1477.34 461.838"/>
<path style="stroke:#000000; stroke-width:0.72; fill:none" d="M 1743.36 745.75L 1743.36 754.75L 1738.61 754.75L 1738.61 736.75L 1828.61 736.75L 1828.61 754.75L 1823.86 754.75L 1823.86 745.75L 1822.24 742.936L 1818.99 742.936L 1817.37 745.75L 1817.36 754.75L 1749.86 754.75L 1749.86 745.75L 1748.24 742.936L 1744.99 742.936L 1743.37 745.75L 1743.36 745.75z"/>
<path style="stroke:#000000; stroke-width:0.72; fill:none" d="M 1755.6 713.497L 1755.6 722.497L 1748.85 722.497L 1748.85 704.497L 1828.85 704.497L 1828.85 722.497L 1822.1 722.497L 1822.1 713.497L 1820.48 710.682L 1817.23 710.682L 1815.6 713.497L 1815.6 722.497L 1762.1 722.497L 1762.1 713.497L 1760.48 710.682L 1757.23 710.682L 1755.61 713.497L 1755.6 713.497z"/>
<path style="stroke:#000000; stroke-width:0.72; fill:none" d="M 1769.47 613.853L 1801.47 613.853L 1811.47 623.853L 1811.47 655.853L 1769.47 655.853L 1769.47 613.853"/>
<path style="stroke:#000000; stroke-width:0.72; fill:none" d="M 1735.43 575.23L 1735.43 584.23L 1730.68 584.23L 1730.68 566.23L 1820.68 566.23L 1820.68 584.23L 1815.93 584.23L 1815.93 575.23L 1814.31 572.415L 1811.06 572.415L 1809.43 575.23L 1809.43 584.23L 1741.93 584.23L 1741.93 575.23L 1740.31 572.415L 1737.06 572.415L 1735.43 575.23L 1735.43 575.23z"/>
<path style="stroke:#000000; stroke-width:0.72; fill:none" d="M 1747.67 542.976L 1747.67 551.976L 1740.92 551.976L 1740.92 533.976L 1820.92 533.976L 1820.92 551.976L 1814.17 551.976L 1814.17 542.976L 1812.55 540.162L 1809.3 540.162L 1807.67 542.976L 1807.67 551.976L 1754.17 551.976L 1754.17 542.976L 1752.55 540.162L 1749.3 540.162L 1747.67 542.976L 1747.67 542.976z"/>
<path style="stroke:#000000; stroke-width:0.72; fill:none" d="M 1761.54 443.332L 1793.54 443.332L 1803.54 453.332L 1803.54 485.332L 1761.54 485.332L 1761.54 443.332"/>
<path style="stroke:#000000; stroke-width:0.72; fill:none" d="M 1588.71 538.218L 1588.71 547.218L 1583.96 547.218L 1583.96 529.218L 1673.96 529.218L 1673.96 547.218L 1669.21 547.218L 1669.21 538.218L 1667.58 535.403L 1664.33 535.403L 1662.71 538.218L 1662.71 547.218L 1595.21 547.218L 1595.21 538.218L 1593.58 535.403L 1590.33 535.403L 1588.71 538.218L 1588.71 538.218z"/>
<path style="stroke:#000000; stroke-width:0.72; fill:none" d="M 1600.95 505.964L 1600.95 514.964L 1594.2 514.964L 1594.2 496.964L 1674.2 496.964L 1674.2 514.964L 1667.45 514.964L 1667.45 505.964L 1665.82 503.15L 1662.57 503.15L 1660.95 505.964L 1660.95 514.964L 1607.45 514.964L 1607.45 505.964L 1605.82 503.15L 1602.57 503.15L 1600.95 505.964L 1600.95 505.964z"/>
<path style="stroke:#000000; stroke-width:0.72; fill:none" d="M 1614.81 406.32L 1646.81 406.32L 1656.81 416.32L 1656.81 448.32L 1614.81 448.32L 1614.81 406.32"/>
<path style="stroke:#000000; stroke-width:0.72; fill:none" d="M 1484.49 356.005L 1484.49 365.005L 1479.74 365.005L 1479.74 347.005L 1569.74 347.005L 1569.74 365.005L 1564.99 365.005L 1564.99 356.005L 1563.36 353.19L 1560.11 353.19L 1558.49 356.004L 1558.49 365.005L 1490.99 365.005L 1490.99 356.005L 1489.36 353.19L 1486.11 353.19L 1484.49 356.004L 1484.49 356.005z"/>
<path style="stroke:#000000; stroke-width:0.72; fill:none" d="M 1496.73 323.752L 1496.73 332.752L 1489.98 332.752L 1489.98 314.752L 1569.98 314.752L 1569.98 332.752L 1563.23 332.752L 1563.23 323.752L 1561.6 320.936L 1558.35 320.936L 1556.73 323.751L 1556.73 332.752L 1503.23 332.752L 1503.23 323.752L 1501.6 320.936L 1498.35 320.936L 1496.73 323.751L 1496.73 323.752z"/>
<path style="stroke:#000000; stroke-width:0.72; fill:none" d="M 1510.6 224.108L 1542.6 224.108L 1552.6 234.108L 1552.6 266.108L 1510.6 266.108L 1510.6 224.108"/>
<path style="stroke:#000000; stroke-width:0.72; fill:none" d="M 1766.72 273.654L 1757.38 251.097L 1734.83 241.753L 1712.27 251.096L 1702.93 273.653L 1712.27 296.21L 1734.83 305.553L 1757.38 296.21L 1766.73 273.653L 1766.72 273.654z"/>
<path style="stroke:#000000; stroke-width:0.72; fill:none" d="M 2071.95 207.015L 2073.73 204.029L 2074.7 203.77L 2076.23 202.572L 2076.44 200.634L 2057.2 167.307L 2055.42 166.52L 2053.61 167.252L 2052.91 167.959L 2049.43 168.013L 2018.53 150.175L 2016.84 147.134L 2017.1 146.168L 2016.83 144.238L 2015.25 143.087L 1976.77 143.087L 1975.2 144.238L 1974.93 146.168L 1975.19 147.134L 1973.49 150.175L 1942.6 168.013L 1939.12 167.959L 1938.41 167.252L 1936.6 166.52L 1934.82 167.307L 1915.58 200.634L 1915.79 202.572L 1917.33 203.77L 1918.29 204.029L 1920.08 207.015L 1920.08 242.692L 1918.29 245.679L 1917.33 245.938L 1915.79 247.136L 1915.58 249.073L 1934.82 282.401L 1936.6 283.188L 1938.41 282.456L 1939.12 281.748L 1942.6 281.694L 1973.49 299.533L 1975.19 302.573L 1974.93 303.54L 1975.2 305.47L 1976.77 306.62L 2015.25 306.62L 2016.83 305.47L 2017.1 303.54L 2016.84 302.573L 2018.53 299.533L 2049.43 281.694L 2052.91 281.748L 2053.61 282.456L 2055.42 283.188L 2057.2 282.401L 2076.44 249.073L 2076.23 247.136L 2074.7 245.937L 2073.73 245.679L 2071.94 242.692L 2071.95 207.015L 2071.95 207.015z"/>
<path style="stroke:#000000; stroke-width:0.72; fill:none" d="M 1592.94 244.913L 1671.94 244.913L 1676.18 246.67L 1677.94 250.913L 1677.94 329.913L 1676.18 334.156L 1671.94 335.913L 1592.94 335.913L 1588.7 334.156L 1586.94 329.913L 1586.94 250.913L 1588.7 246.67L 1592.94 244.913L 1592.94 244.913z"/>
<path style="stroke:#000000; stroke-width:0.72; fill:none" d="M 1499.53 187.953L 1499.53 196.953L 1494.78 196.953L 1494.78 178.953L 1584.78 178.953L 1584.78 196.953L 1580.03 196.953L 1580.03 187.953L 1578.4 185.138L 1575.15 185.138L 1573.53 187.952L 1573.53 196.953L 1506.03 196.953L 1506.03 187.953L 1504.4 185.138L 1501.15 185.138L 1499.53 187.952L 1499.53 187.953z"/>
<path style="stroke:#000000; stroke-width:0.72; fill:none" d="M 1511.77 155.699L 1511.77 164.699L 1505.02 164.699L 1505.02 146.699L 1585.02 146.699L 1585.02 164.699L 1578.27 164.699L 1578.27 155.699L 1576.64 152.884L 1573.39 152.884L 1571.77 155.699L 1571.77 164.699L 1518.27 164.699L 1518.27 155.699L 1516.64 152.884L 1513.39 152.884L 1511.77 155.698L 1511.77 155.699z"/>
<path style="stroke:#000000; stroke-width:0.72; fill:none" d="M 1525.63 56.0547L 1557.63 56.0547L 1567.63 66.0547L 1567.63 98.0547L 1525.63 98.0547L 1525.63 56.0547"/>
<path style="stroke:#000000; stroke-width:0.72; fill:none" d="M 1791.66 339.967L 1791.66 348.967L 1786.91 348.967L 1786.91 330.967L 1876.91 330.967L 1876.91 348.967L 1872.16 348.967L 1872.16 339.967L 1870.54 337.152L 1867.29 337.152L 1865.66 339.966L 1865.66 348.967L 1798.16 348.967L 1798.16 339.967L 1796.54 337.152L 1793.29 337.152L 1791.66 339.966L 1791.66 339.967z"/>
<path style="stroke:#000000; stroke-width:0.72; fill:none" d="M 1803.9 307.714L 1803.9 316.714L 1797.15 316.714L 1797.15 298.714L 1877.15 298.714L 1877.15 316.714L 1870.4 316.714L 1870.4 307.714L 1868.77 304.898L 1865.52 304.898L 1863.9 307.713L 1863.9 316.714L 1810.4 316.714L 1810.4 307.714L 1808.77 304.898L 1805.52 304.898L 1803.9 307.713L 1803.9 307.714z"/>
<path style="stroke:#000000; stroke-width:0.72; fill:none" d="M 1817.77 208.07L 1849.77 208.07L 1859.77 218.07L 1859.77 250.07L 1817.77 250.07L 1817.77 208.07"/>
<path style="stroke:#000000; stroke-width:0.72; fill:none" d="M 1783.73 169.447L 1783.73 178.447L 1778.98 178.447L 1778.98 160.447L 1868.98 160.447L 1868.98 178.447L 1864.23 178.447L 1864.23 169.447L 1862.6 166.631L 1859.35 166.631L 1857.73 169.446L 1857.73 178.447L 1790.23 178.447L 1790.23 169.447L 1788.6 166.631L 1785.35 166.631L 1783.73 169.446L 1783.73 169.447z"/>
<path style="stroke:#000000; stroke-width:0.72; fill:none" d="M 1795.97 137.193L 1795.97 146.193L 1789.22 146.193L 1789.22 128.193L 1869.22 128.193L 1869.22 146.193L 1862.47 146.193L 1862.47 137.193L 1860.84 134.378L 1857.59 134.378L 1855.97 137.193L 1855.97 146.193L 1802.47 146.193L 1802.47 137.193L 1800.84 134.378L 1797.59 134.378L 1795.97 137.192L 1795.97 137.193z"/>
<path style="stroke:#000000; stroke-width:0.72; fill:none" d="M 1809.83 37.5488L 1841.83 37.5488L 1851.83 47.5488L 1851.83 79.5488L 1809.83 79.5488L 1809.83 37.5488"/>
<path style="stroke:#000000; stroke-width:0.72; fill:none" d="M 1637 132.435L 1637 141.435L 1632.25 141.435L 1632.25 123.435L 1722.25 123.435L 1722.25 141.435L 1717.5 141.435L 1717.5 132.435L 1715.88 129.619L 1712.63 129.619L 1711 132.434L 1711 141.435L 1643.5 141.435L 1643.5 132.435L 1641.88 129.619L 1638.63 129.619L 1637 132.434L 1637 132.435z"/>
<path style="stroke:#000000; stroke-width:0.72; fill:none" d="M 1649.24 100.181L 1649.24 109.181L 1642.49 109.181L 1642.49 91.1808L 1722.49 91.1808L 1722.49 109.181L 1715.74 109.181L 1715.74 100.181L 1714.12 97.3658L 1710.87 97.3658L 1709.24 100.18L 1709.24 109.181L 1655.74 109.181L 1655.74 100.181L 1654.12 97.3658L 1650.87 97.3658L 1649.24 100.18L 1649.24 100.181z"/>
<path style="stroke:#000000; stroke-width:0.72; fill:none" d="M 1663.11 0.536743L 1695.11 0.536743L 1705.11 10.5367L 1705.11 42.5367L 1663.11 42.5367L 1663.11 0.536743"/>
<path style="stroke:#000000; stroke-width:0.72; fill:none" d="M 2111.27 734.983L 2111.27 743.983L 2106.52 743.983L 2106.52 725.983L 2196.52 725.983L 2196.52 743.983L 2191.77 743.983L 2191.77 734.983L 2190.15 732.168L 2186.9 732.168L 2185.28 734.982L 2185.27 743.983L 2117.77 743.983L 2117.77 734.983L 2116.15 732.168L 2112.9 732.168L 2111.28 734.982L 2111.27 734.983z"/>
<path style="stroke:#000000; stroke-width:0.72; fill:none" d="M 2123.51 702.73L 2123.51 711.73L 2116.76 711.73L 2116.76 693.73L 2196.76 693.73L 2196.76 711.73L 2190.01 711.73L 2190.01 702.73L 2188.39 699.914L 2185.14 699.914L 2183.52 702.729L 2183.51 711.73L 2130.01 711.73L 2130.01 702.73L 2128.39 699.914L 2125.14 699.914L 2123.52 702.729L 2123.51 702.73z"/>
<path style="stroke:#000000; stroke-width:0.72; fill:none" d="M 2137.38 603.086L 2169.38 603.086L 2179.38 613.086L 2179.38 645.086L 2137.38 645.086L 2137.38 603.086"/>
<path style="stroke:#000000; stroke-width:0.72; fill:none" d="M 2393.51 652.632L 2384.17 630.075L 2361.61 620.731L 2339.05 630.074L 2329.71 652.631L 2339.05 675.188L 2361.61 684.531L 2384.17 675.188L 2393.51 652.631L 2393.51 652.632z"/>
<path style="stroke:#000000; stroke-width:0.72; fill:none" d="M 2698.73 585.993L 2700.52 583.007L 2701.48 582.748L 2703.02 581.55L 2703.23 579.612L 2683.99 546.285L 2682.21 545.498L 2680.4 546.23L 2679.69 546.937L 2676.21 546.991L 2645.32 529.153L 2643.62 526.112L 2643.88 525.146L 2643.61 523.216L 2642.04 522.065L 2603.56 522.065L 2601.98 523.216L 2601.71 525.146L 2601.97 526.112L 2600.28 529.153L 2569.38 546.991L 2565.9 546.937L 2565.2 546.23L 2563.39 545.498L 2561.61 546.285L 2542.36 579.612L 2542.57 581.55L 2544.11 582.748L 2545.08 583.007L 2546.86 585.993L 2546.86 621.67L 2545.08 624.657L 2544.11 624.916L 2542.57 626.114L 2542.36 628.051L 2561.61 661.379L 2563.39 662.166L 2565.2 661.434L 2565.9 660.726L 2569.38 660.672L 2600.28 678.511L 2601.97 681.551L 2601.71 682.518L 2601.98 684.448L 2603.56 685.598L 2642.04 685.598L 2643.61 684.448L 2643.88 682.518L 2643.62 681.551L 2645.32 678.511L 2676.21 660.672L 2679.69 660.726L 2680.4 661.434L 2682.21 662.166L 2683.99 661.379L 2703.23 628.051L 2703.02 626.114L 2701.48 624.915L 2700.52 624.657L 2698.73 621.67L 2698.73 585.993L 2698.73 585.993z"/>
<path style="stroke:#000000; stroke-width:0.72; fill:none" d="M 2219.72 623.891L 2298.72 623.891L 2302.97 625.648L 2304.72 629.891L 2304.72 708.891L 2302.97 713.134L 2298.72 714.891L 2219.72 714.891L 2215.48 713.134L 2213.72 708.891L 2213.72 629.891L 2215.48 625.648L 2219.72 623.891L 2219.72 623.891z"/>
<path style="stroke:#000000; stroke-width:0.72; fill:none" d="M 2126.31 566.931L 2126.31 575.931L 2121.56 575.931L 2121.56 557.931L 2211.56 557.931L 2211.56 575.931L 2206.81 575.931L 2206.81 566.931L 2205.19 564.116L 2201.94 564.116L 2200.31 566.93L 2200.31 575.931L 2132.81 575.931L 2132.81 566.931L 2131.19 564.116L 2127.94 564.116L 2126.31 566.93L 2126.31 566.931z"/>
<path style="stroke:#000000; stroke-width:0.72; fill:none" d="M 2138.55 534.677L 2138.55 543.677L 2131.8 543.677L 2131.8 525.677L 2211.8 525.677L 2211.8 543.677L 2205.05 543.677L 2205.05 534.677L 2203.43 531.862L 2200.18 531.862L 2198.55 534.677L 2198.55 543.677L 2145.05 543.677L 2145.05 534.677L 2143.43 531.862L 2140.18 531.862L 2138.55 534.676L 2138.55 534.677z"/>
<path style="stroke:#000000; stroke-width:0.72; fill:none" d="M 2152.42 435.033L 2184.42 435.033L 2194.42 445.033L 2194.42 477.033L 2152.42 477.033L 2152.42 435.033"/>
<path style="stroke:#000000; stroke-width:0.72; fill:none" d="M 2418.45 718.945L 2418.45 727.945L 2413.7 727.945L 2413.7 709.945L 2503.7 709.945L 2503.7 727.945L 2498.95 727.945L 2498.95 718.945L 2497.32 716.13L 2494.07 716.13L 2492.45 718.944L 2492.45 727.945L 2424.95 727.945L 2424.95 718.945L 2423.32 716.13L 2420.07 716.13L 2418.45 718.944L 2418.45 718.945z"/>
<path style="stroke:#000000; stroke-width:0.72; fill:none" d="M 2430.69 686.692L 2430.69 695.692L 2423.94 695.692L 2423.94 677.692L 2503.94 677.692L 2503.94 695.692L 2497.19 695.692L 2497.19 686.692L 2495.56 683.876L 2492.31 683.876L 2490.69 686.691L 2490.69 695.692L 2437.19 695.692L 2437.19 686.692L 2435.56 683.876L 2432.31 683.876L 2430.69 686.691L 2430.69 686.692z"/>
<path style="stroke:#000000; stroke-width:0.72; fill:none" d="M 2444.55 587.048L 2476.55 587.048L 2486.55 597.048L 2486.55 629.048L 2444.55 629.048L 2444.55 587.048"/>
<path style="stroke:#000000; stroke-width:0.72; fill:none" d="M 2410.51 548.425L 2410.51 557.425L 2405.76 557.425L 2405.76 539.425L 2495.76 539.425L 2495.76 557.425L 2491.01 557.425L 2491.01 548.425L 2489.39 545.609L 2486.14 545.609L 2484.51 548.424L 2484.51 557.425L 2417.01 557.425L 2417.01 548.425L 2415.39 545.609L 2412.14 545.609L 2410.51 548.424L 2410.51 548.425z"/>
<path style="stroke:#000000; stroke-width:0.72; fill:none" d="M 2422.75 516.171L 2422.75 525.171L 2416 525.171L 2416 507.171L 2496 507.171L 2496 525.171L 2489.25 525.171L 2489.25 516.171L 2487.63 513.356L 2484.38 513.356L 2482.75 516.171L 2482.75 525.171L 2429.25 525.171L 2429.25 516.171L 2427.63 513.356L 2424.38 513.356L 2422.75 516.17L 2422.75 516.171z"/>
<path style="stroke:#000000; stroke-width:0.72; fill:none" d="M 2436.62 416.527L 2468.62 416.527L 2478.62 426.527L 2478.62 458.527L 2436.62 458.527L 2436.62 416.527"/>
<path style="stroke:#000000; stroke-width:0.72; fill:none" d="M 2263.79 511.413L 2263.79 520.413L 2259.04 520.413L 2259.04 502.413L 2349.04 502.413L 2349.04 520.413L 2344.29 520.413L 2344.29 511.413L 2342.66 508.597L 2339.41 508.597L 2337.79 511.412L 2337.79 520.413L 2270.29 520.413L 2270.29 511.413L 2268.66 508.597L 2265.41 508.597L 2263.79 511.412L 2263.79 511.413z"/>
<path style="stroke:#000000; stroke-width:0.72; fill:none" d="M 2276.03 479.159L 2276.03 488.159L 2269.28 488.159L 2269.28 470.159L 2349.28 470.159L 2349.28 488.159L 2342.53 488.159L 2342.53 479.159L 2340.9 476.344L 2337.65 476.344L 2336.03 479.158L 2336.03 488.159L 2282.53 488.159L 2282.53 479.159L 2280.9 476.344L 2277.65 476.344L 2276.03 479.158L 2276.03 479.159z"/>
<path style="stroke:#000000; stroke-width:0.72; fill:none" d="M 2289.89 379.515L 2321.89 379.515L 2331.89 389.515L 2331.89 421.515L 2289.89 421.515L 2289.89 379.515"/>
<path style="stroke:#000000; stroke-width:0.72; fill:none" d="M 2141.52 297.195L 2141.52 306.195L 2136.77 306.195L 2136.77 288.195L 2226.77 288.195L 2226.77 306.195L 2222.02 306.195L 2222.02 297.195L 2220.4 294.38L 2217.15 294.38L 2215.52 297.195L 2215.52 306.195L 2148.02 306.195L 2148.02 297.195L 2146.4 294.38L 2143.15 294.38L 2141.52 297.195L 2141.52 297.195z"/>
<path style="stroke:#000000; stroke-width:0.72; fill:none" d="M 2153.76 264.942L 2153.76 273.942L 2147.01 273.942L 2147.01 255.942L 2227.01 255.942L 2227.01 273.942L 2220.26 273.942L 2220.26 264.942L 2218.64 262.127L 2215.39 262.127L 2213.76 264.942L 2213.76 273.942L 2160.26 273.942L 2160.26 264.942L 2158.64 262.127L 2155.39 262.127L 2153.76 264.942L 2153.76 264.942z"/>
<path style="stroke:#000000; stroke-width:0.72; fill:none" d="M 2167.63 165.298L 2199.63 165.298L 2209.63 175.298L 2209.63 207.298L 2167.63 207.298L 2167.63 165.298"/>
<path style="stroke:#000000; stroke-width:0.72; fill:none" d="M 2423.76 214.844L 2414.41 192.287L 2391.86 182.944L 2369.3 192.287L 2359.96 214.844L 2369.3 237.401L 2391.86 246.744L 2414.41 237.401L 2423.76 214.844L 2423.76 214.844z"/>
<path style="stroke:#000000; stroke-width:0.72; fill:none" d="M 2728.98 148.206L 2730.76 145.219L 2731.73 144.961L 2733.27 143.762L 2733.48 141.825L 2714.23 108.497L 2712.45 107.71L 2710.65 108.442L 2709.94 109.15L 2706.46 109.204L 2675.56 91.3655L 2673.87 88.3249L 2674.13 87.3588L 2673.86 85.4283L 2672.28 84.2779L 2633.8 84.2779L 2632.23 85.4283L 2631.96 87.3585L 2632.22 88.3248L 2630.52 91.3655L 2599.63 109.204L 2596.15 109.15L 2595.44 108.443L 2593.63 107.71L 2591.85 108.497L 2572.61 141.825L 2572.82 143.762L 2574.36 144.961L 2575.32 145.22L 2577.11 148.206L 2577.11 183.883L 2575.32 186.869L 2574.36 187.129L 2572.82 188.326L 2572.61 190.264L 2591.85 223.591L 2593.63 224.378L 2595.44 223.646L 2596.15 222.939L 2599.63 222.885L 2630.52 240.723L 2632.22 243.764L 2631.96 244.731L 2632.23 246.66L 2633.8 247.811L 2672.28 247.811L 2673.86 246.66L 2674.13 244.73L 2673.87 243.764L 2675.56 240.723L 2706.46 222.885L 2709.94 222.939L 2710.65 223.647L 2712.45 224.378L 2714.23 223.591L 2733.48 190.264L 2733.27 188.326L 2731.73 187.128L 2730.76 186.87L 2728.98 183.883L 2728.98 148.206L 2728.98 148.206z"/>
<path style="stroke:#000000; stroke-width:0.72; fill:none" d="M 2249.97 186.104L 2328.97 186.104L 2333.21 187.861L 2334.97 192.104L 2334.97 271.104L 2333.21 275.346L 2328.97 277.104L 2249.97 277.104L 2245.73 275.346L 2243.97 271.104L 2243.97 192.104L 2245.73 187.861L 2249.97 186.104L 2249.97 186.104z"/>
<path style="stroke:#000000; stroke-width:0.72; fill:none" d="M 2156.56 129.143L 2156.56 138.143L 2151.81 138.143L 2151.81 120.143L 2241.81 120.143L 2241.81 138.143L 2237.06 138.143L 2237.06 129.143L 2235.43 126.328L 2232.18 126.328L 2230.56 129.143L 2230.56 138.143L 2163.06 138.143L 2163.06 129.143L 2161.43 126.328L 2158.18 126.328L 2156.56 129.143L 2156.56 129.143z"/>
<path style="stroke:#000000; stroke-width:0.72; fill:none" d="M 2168.8 96.8888L 2168.8 105.889L 2162.05 105.889L 2162.05 87.8888L 2242.05 87.8888L 2242.05 105.889L 2235.3 105.889L 2235.3 96.8888L 2233.67 94.0748L 2230.42 94.0748L 2228.8 96.8893L 2228.8 105.889L 2175.3 105.889L 2175.3 96.8888L 2173.67 94.0748L 2170.42 94.0748L 2168.8 96.889L 2168.8 96.8888z"/>
<path style="stroke:#000000; stroke-width:0.72; fill:none" d="M 2182.67 -2.75525L 2214.67 -2.75525L 2224.67 7.24475L 2224.67 39.2448L 2182.67 39.2448L 2182.67 -2.75525"/>
<path style="stroke:#000000; stroke-width:0.72; fill:none" d="M 2448.69 281.157L 2448.69 290.157L 2443.94 290.157L 2443.94 272.157L 2533.94 272.157L 2533.94 290.157L 2529.19 290.157L 2529.19 281.157L 2527.57 278.343L 2524.32 278.343L 2522.69 281.157L 2522.69 290.157L 2455.19 290.157L 2455.19 281.157L 2453.57 278.343L 2450.32 278.343L 2448.69 281.157L 2448.69 281.157z"/>
<path style="stroke:#000000; stroke-width:0.72; fill:none" d="M 2460.93 248.904L 2460.93 257.904L 2454.18 257.904L 2454.18 239.904L 2534.18 239.904L 2534.18 257.904L 2527.43 257.904L 2527.43 248.904L 2525.81 246.089L 2522.56 246.089L 2520.93 248.904L 2520.93 257.904L 2467.43 257.904L 2467.43 248.904L 2465.81 246.089L 2462.56 246.089L 2460.93 248.904L 2460.93 248.904z"/>
<path style="stroke:#000000; stroke-width:0.72; fill:none" d="M 2474.8 149.26L 2506.8 149.26L 2516.8 159.26L 2516.8 191.26L 2474.8 191.26L 2474.8 149.26"/>
<path style="stroke:#000000; stroke-width:0.72; fill:none" d="M 2440.76 110.637L 2440.76 119.637L 2436.01 119.637L 2436.01 101.637L 2526.01 101.637L 2526.01 119.637L 2521.26 119.637L 2521.26 110.637L 2519.63 107.822L 2516.38 107.822L 2514.76 110.637L 2514.76 119.637L 2447.26 119.637L 2447.26 110.637L 2445.63 107.822L 2442.38 107.822L 2440.76 110.637L 2440.76 110.637z"/>
<path style="stroke:#000000; stroke-width:0.72; fill:none" d="M 2453 78.3828L 2453 87.3828L 2446.25 87.3828L 2446.25 69.3828L 2526.25 69.3828L 2526.25 87.3828L 2519.5 87.3828L 2519.5 78.3828L 2517.87 75.5687L 2514.62 75.5687L 2513 78.3833L 2513 87.3828L 2459.5 87.3828L 2459.5 78.3828L 2457.87 75.5687L 2454.62 75.5687L 2453 78.3831L 2453 78.3828z"/>
<path style="stroke:#000000; stroke-width:0.72; fill:none" d="M 2466.87 -21.2612L 2498.87 -21.2612L 2508.87 -11.2612L 2508.87 20.7388L 2466.87 20.7388L 2466.87 -21.2612"/>
<path style="stroke:#000000; stroke-width:0.72; fill:none" d="M 2294.03 73.6248L 2294.03 82.6248L 2289.28 82.6248L 2289.28 64.6248L 2379.28 64.6248L 2379.28 82.6248L 2374.53 82.6248L 2374.53 73.6248L 2372.91 70.81L 2369.66 70.81L 2368.03 73.6246L 2368.03 82.6248L 2300.53 82.6248L 2300.53 73.6248L 2298.91 70.81L 2295.66 70.81L 2294.03 73.6251L 2294.03 73.6248z"/>
<path style="stroke:#000000; stroke-width:0.72; fill:none" d="M 2306.27 41.3708L 2306.27 50.3708L 2299.52 50.3708L 2299.52 32.3708L 2379.52 32.3708L 2379.52 50.3708L 2372.77 50.3708L 2372.77 41.3708L 2371.15 38.5565L 2367.9 38.5565L 2366.27 41.3711L 2366.27 50.3708L 2312.77 50.3708L 2312.77 41.3708L 2311.15 38.5565L 2307.9 38.5565L 2306.27 41.371L 2306.27 41.3708z"/>
<path style="stroke:#000000; stroke-width:0.72; fill:none" d="M 2320.14 -58.2733L 2352.14 -58.2733L 2362.14 -48.2733L 2362.14 -16.2733L 2320.14 -16.2733L 2320.14 -58.2733"/>
<path style="stroke:#000000; stroke-width:0.72; fill:none" d="M 1506.78 -64.2542L 1506.78 -55.2542L 1502.03 -55.2542L 1502.03 -73.2542L 1592.03 -73.2542L 1592.03 -55.2542L 1587.28 -55.2542L 1587.28 -64.2542L 1585.66 -67.0683L 1582.41 -67.0683L 1580.78 -64.2537L 1580.78 -55.2542L 1513.28 -55.2542L 1513.28 -64.2542L 1511.66 -67.0683L 1508.41 -67.0683L 1506.78 -64.2537L 1506.78 -64.2542z"/>
<path style="stroke:#000000; stroke-width:0.72; fill:none" d="M 1519.02 -96.5072L 1519.02 -87.5072L 1512.27 -87.5072L 1512.27 -105.507L 1592.27 -105.507L 1592.27 -87.5072L 1585.52 -87.5072L 1585.52 -96.5072L 1583.9 -99.3218L 1580.65 -99.3218L 1579.02 -96.5072L 1579.02 -87.5072L 1525.52 -87.5072L 1525.52 -96.5072L 1523.9 -99.3218L 1520.65 -99.3218L 1519.02 -96.5067L 1519.02 -96.5072z"/>
<path style="stroke:#000000; stroke-width:0.72; fill:none" d="M 1532.89 -196.151L 1564.89 -196.151L 1574.89 -186.151L 1574.89 -154.151L 1532.89 -154.151L 1532.89 -196.151"/>
<path style="stroke:#000000; stroke-width:0.72; fill:none" d="M 1789.02 -146.604L 1779.67 -169.161L 1757.12 -178.505L 1734.56 -169.162L 1725.22 -146.605L 1734.56 -124.048L 1757.12 -114.705L 1779.67 -124.048L 1789.02 -146.605L 1789.02 -146.604z"/>
<path style="stroke:#000000; stroke-width:0.72; fill:none" d="M 2094.24 -213.243L 2096.02 -216.229L 2096.99 -216.488L 2098.53 -217.686L 2098.74 -219.624L 2079.49 -252.951L 2077.71 -253.738L 2075.91 -253.006L 2075.2 -252.299L 2071.72 -252.245L 2040.82 -270.083L 2039.13 -273.124L 2039.39 -274.09L 2039.12 -276.02L 2037.55 -277.171L 1999.06 -277.171L 1997.49 -276.02L 1997.22 -274.09L 1997.48 -273.124L 1995.79 -270.083L 1964.89 -252.245L 1961.41 -252.299L 1960.7 -253.006L 1958.9 -253.738L 1957.11 -252.951L 1937.87 -219.624L 1938.08 -217.686L 1939.62 -216.488L 1940.58 -216.229L 1942.37 -213.243L 1942.37 -177.566L 1940.58 -174.58L 1939.62 -174.32L 1938.08 -173.122L 1937.87 -171.185L 1957.11 -137.857L 1958.9 -137.07L 1960.7 -137.802L 1961.41 -138.51L 1964.89 -138.564L 1995.79 -120.725L 1997.48 -117.685L 1997.22 -116.718L 1997.49 -114.788L 1999.06 -113.638L 2037.55 -113.638L 2039.12 -114.788L 2039.39 -116.719L 2039.13 -117.685L 2040.82 -120.725L 2071.72 -138.564L 2075.2 -138.51L 2075.91 -137.802L 2077.71 -137.07L 2079.49 -137.857L 2098.74 -171.185L 2098.53 -173.122L 2096.99 -174.321L 2096.02 -174.579L 2094.24 -177.566L 2094.24 -213.243L 2094.24 -213.243z"/>
<path style="stroke:#000000; stroke-width:0.72; fill:none" d="M 1615.23 -175.345L 1694.23 -175.345L 1698.47 -173.588L 1700.23 -169.345L 1700.23 -90.3452L 1698.47 -86.1024L 1694.23 -84.3452L 1615.23 -84.3452L 1610.99 -86.1024L 1609.23 -90.3452L 1609.23 -169.345L 1610.99 -173.588L 1615.23 -175.345L 1615.23 -175.345z"/>
<path style="stroke:#000000; stroke-width:0.72; fill:none" d="M 1521.82 -232.306L 1521.82 -223.306L 1517.07 -223.306L 1517.07 -241.306L 1607.07 -241.306L 1607.07 -223.306L 1602.32 -223.306L 1602.32 -232.306L 1600.69 -235.12L 1597.44 -235.12L 1595.82 -232.306L 1595.82 -223.306L 1528.32 -223.306L 1528.32 -232.306L 1526.69 -235.12L 1523.44 -235.12L 1521.82 -232.306L 1521.82 -232.306z"/>
<path style="stroke:#000000; stroke-width:0.72; fill:none" d="M 1534.06 -264.56L 1534.06 -255.56L 1527.31 -255.56L 1527.31 -273.56L 1607.31 -273.56L 1607.31 -255.56L 1600.56 -255.56L 1600.56 -264.56L 1598.93 -267.374L 1595.68 -267.374L 1594.06 -264.559L 1594.06 -255.56L 1540.56 -255.56L 1540.56 -264.56L 1538.93 -267.374L 1535.68 -267.374L 1534.06 -264.56L 1534.06 -264.56z"/>
<path style="stroke:#000000; stroke-width:0.72; fill:none" d="M 1547.93 -364.204L 1579.93 -364.204L 1589.93 -354.204L 1589.93 -322.204L 1547.93 -322.204L 1547.93 -364.204"/>
<path style="stroke:#000000; stroke-width:0.72; fill:none" d="M 1813.95 -80.2922L 1813.95 -71.2922L 1809.2 -71.2922L 1809.2 -89.2922L 1899.2 -89.2922L 1899.2 -71.2922L 1894.45 -71.2922L 1894.45 -80.2922L 1892.83 -83.1063L 1889.58 -83.1063L 1887.95 -80.2917L 1887.95 -71.2922L 1820.45 -71.2922L 1820.45 -80.2922L 1818.83 -83.1063L 1815.58 -83.1063L 1813.95 -80.2917L 1813.95 -80.2922z"/>
<path style="stroke:#000000; stroke-width:0.72; fill:none" d="M 1826.19 -112.545L 1826.19 -103.545L 1819.44 -103.545L 1819.44 -121.545L 1899.44 -121.545L 1899.44 -103.545L 1892.69 -103.545L 1892.69 -112.545L 1891.07 -115.36L 1887.82 -115.36L 1886.19 -112.545L 1886.19 -103.545L 1832.69 -103.545L 1832.69 -112.545L 1831.07 -115.36L 1827.82 -115.36L 1826.19 -112.545L 1826.19 -112.545z"/>
<path style="stroke:#000000; stroke-width:0.72; fill:none" d="M 1840.06 -212.189L 1872.06 -212.189L 1882.06 -202.189L 1882.06 -170.189L 1840.06 -170.189L 1840.06 -212.189"/>
<path style="stroke:#000000; stroke-width:0.72; fill:none" d="M 1806.02 -250.812L 1806.02 -241.812L 1801.27 -241.812L 1801.27 -259.812L 1891.27 -259.812L 1891.27 -241.812L 1886.52 -241.812L 1886.52 -250.812L 1884.9 -253.627L 1881.65 -253.627L 1880.02 -250.812L 1880.02 -241.812L 1812.52 -241.812L 1812.52 -250.812L 1810.9 -253.627L 1807.65 -253.627L 1806.02 -250.812L 1806.02 -250.812z"/>
<path style="stroke:#000000; stroke-width:0.72; fill:none" d="M 1818.26 -283.066L 1818.26 -274.066L 1811.51 -274.066L 1811.51 -292.066L 1891.51 -292.066L 1891.51 -274.066L 1884.76 -274.066L 1884.76 -283.066L 1883.13 -285.88L 1879.88 -285.88L 1878.26 -283.066L 1878.26 -274.066L 1824.76 -274.066L 1824.76 -283.066L 1823.13 -285.88L 1819.88 -285.88L 1818.26 -283.066L 1818.26 -283.066z"/>
<path style="stroke:#000000; stroke-width:0.72; fill:none" d="M 1832.13 -382.71L 1864.13 -382.71L 1874.13 -372.71L 1874.13 -340.71L 1832.13 -340.71L 1832.13 -382.71"/>
<path style="stroke:#000000; stroke-width:0.72; fill:none" d="M 1659.29 -287.824L 1659.29 -278.824L 1654.54 -278.824L 1654.54 -296.824L 1744.54 -296.824L 1744.54 -278.824L 1739.79 -278.824L 1739.79 -287.824L 1738.17 -290.639L 1734.92 -290.639L 1733.29 -287.824L 1733.29 -278.824L 1665.79 -278.824L 1665.79 -287.824L 1664.17 -290.639L 1660.92 -290.639L 1659.29 -287.824L 1659.29 -287.824z"/>
<path style="stroke:#000000; stroke-width:0.72; fill:none" d="M 1671.53 -320.078L 1671.53 -311.078L 1664.78 -311.078L 1664.78 -329.078L 1744.78 -329.078L 1744.78 -311.078L 1738.03 -311.078L 1738.03 -320.078L 1736.41 -322.892L 1733.16 -322.892L 1731.53 -320.078L 1731.53 -311.078L 1678.03 -311.078L 1678.03 -320.078L 1676.41 -322.892L 1673.16 -322.892L 1671.53 -320.078L 1671.53 -320.078z"/>
<path style="stroke:#000000; stroke-width:0.72; fill:none" d="M 1685.4 -419.722L 1717.4 -419.722L 1727.4 -409.722L 1727.4 -377.722L 1685.4 -377.722L 1685.4 -419.722"/>
<path style="stroke:#000000; stroke-width:0.72; fill:none" d="M 2182.2 -122.206L 2182.2 -113.206L 2177.45 -113.206L 2177.45 -131.206L 2267.45 -131.206L 2267.45 -113.206L 2262.7 -113.206L 2262.7 -122.206L 2261.07 -125.021L 2257.82 -125.021L 2256.2 -122.206L 2256.2 -113.206L 2188.7 -113.206L 2188.7 -122.206L 2187.07 -125.021L 2183.82 -125.021L 2182.2 -122.206L 2182.2 -122.206z"/>
<path style="stroke:#000000; stroke-width:0.72; fill:none" d="M 2194.44 -154.459L 2194.44 -145.459L 2187.69 -145.459L 2187.69 -163.459L 2267.69 -163.459L 2267.69 -145.459L 2260.94 -145.459L 2260.94 -154.459L 2259.31 -157.274L 2256.06 -157.274L 2254.44 -154.46L 2254.44 -145.459L 2200.94 -145.459L 2200.94 -154.459L 2199.31 -157.274L 2196.06 -157.274L 2194.44 -154.459L 2194.44 -154.459z"/>
<path style="stroke:#000000; stroke-width:0.72; fill:none" d="M 2208.3 -254.103L 2240.3 -254.103L 2250.3 -244.103L 2250.3 -212.103L 2208.3 -212.103L 2208.3 -254.103"/>
<path style="stroke:#000000; stroke-width:0.72; fill:none" d="M 2464.43 -204.557L 2455.09 -227.114L 2432.53 -236.457L 2409.97 -227.114L 2400.63 -204.557L 2409.97 -182.001L 2432.53 -172.657L 2455.09 -182.001L 2464.43 -204.557L 2464.43 -204.557z"/>
<path style="stroke:#000000; stroke-width:0.72; fill:none" d="M 2769.65 -271.195L 2771.44 -274.182L 2772.4 -274.44L 2773.94 -275.639L 2774.15 -277.576L 2754.91 -310.904L 2753.13 -311.691L 2751.32 -310.959L 2750.61 -310.251L 2747.13 -310.197L 2716.24 -328.036L 2714.54 -331.076L 2714.8 -332.042L 2714.53 -333.973L 2712.96 -335.123L 2674.48 -335.123L 2672.9 -333.973L 2672.63 -332.043L 2672.89 -331.076L 2671.2 -328.036L 2640.3 -310.197L 2636.82 -310.251L 2636.12 -310.958L 2634.31 -311.691L 2632.53 -310.904L 2613.29 -277.576L 2613.5 -275.639L 2615.03 -274.441L 2616 -274.181L 2617.79 -271.195L 2617.79 -235.518L 2616 -232.532L 2615.03 -232.272L 2613.5 -231.075L 2613.29 -229.137L 2632.53 -195.81L 2634.31 -195.023L 2636.12 -195.755L 2636.82 -196.462L 2640.3 -196.516L 2671.2 -178.678L 2672.89 -175.637L 2672.63 -174.67L 2672.9 -172.741L 2674.48 -171.59L 2712.96 -171.59L 2714.53 -172.741L 2714.8 -174.671L 2714.54 -175.637L 2716.24 -178.678L 2747.13 -196.516L 2750.61 -196.462L 2751.32 -195.754L 2753.13 -195.023L 2754.91 -195.81L 2774.15 -229.137L 2773.94 -231.075L 2772.4 -232.273L 2771.44 -232.531L 2769.65 -235.518L 2769.65 -271.196L 2769.65 -271.195z"/>
<path style="stroke:#000000; stroke-width:0.72; fill:none" d="M 2290.64 -233.297L 2369.64 -233.297L 2373.89 -231.54L 2375.64 -227.298L 2375.64 -148.297L 2373.89 -144.055L 2369.64 -142.298L 2290.64 -142.297L 2286.4 -144.055L 2284.64 -148.298L 2284.64 -227.297L 2286.4 -231.54L 2290.64 -233.297L 2290.64 -233.297z"/>
<path style="stroke:#000000; stroke-width:0.72; fill:none" d="M 2197.23 -290.258L 2197.23 -281.258L 2192.48 -281.258L 2192.48 -299.258L 2282.48 -299.258L 2282.48 -281.258L 2277.73 -281.258L 2277.73 -290.258L 2276.11 -293.073L 2272.86 -293.073L 2271.23 -290.258L 2271.23 -281.258L 2203.73 -281.258L 2203.73 -290.258L 2202.11 -293.073L 2198.86 -293.073L 2197.23 -290.258L 2197.23 -290.258z"/>
<path style="stroke:#000000; stroke-width:0.72; fill:none" d="M 2209.47 -322.512L 2209.47 -313.512L 2202.72 -313.512L 2202.72 -331.512L 2282.72 -331.512L 2282.72 -313.512L 2275.97 -313.512L 2275.97 -322.512L 2274.35 -325.326L 2271.1 -325.326L 2269.47 -322.512L 2269.47 -313.512L 2215.97 -313.512L 2215.97 -322.512L 2214.35 -325.326L 2211.1 -325.326L 2209.47 -322.512"/>
<path style="stroke:#000000; stroke-width:0.72; fill:none" d="M 2223.34 -422.156L 2255.34 -422.156L 2265.34 -412.156L 2265.34 -380.156L 2223.34 -380.156L 2223.34 -422.156"/>
<path style="stroke:#000000; stroke-width:0.72; fill:none" d="M 2489.37 -138.244L 2489.37 -129.244L 2484.62 -129.244L 2484.62 -147.244L 2574.62 -147.244L 2574.62 -129.244L 2569.87 -129.244L 2569.87 -138.244L 2568.24 -141.059L 2564.99 -141.059L 2563.37 -138.244L 2563.37 -129.244L 2495.87 -129.244L 2495.87 -138.244L 2494.24 -141.059L 2490.99 -141.059L 2489.37 -138.244L 2489.37 -138.244z"/>
<path style="stroke:#000000; stroke-width:0.72; fill:none" d="M 2501.61 -170.497L 2501.61 -161.497L 2494.86 -161.497L 2494.86 -179.497L 2574.86 -179.497L 2574.86 -161.497L 2568.11 -161.497L 2568.11 -170.497L 2566.48 -173.312L 2563.23 -173.312L 2561.61 -170.498L 2561.61 -161.497L 2508.11 -161.497L 2508.11 -170.497L 2506.48 -173.312L 2503.23 -173.312L 2501.61 -170.497L 2501.61 -170.497z"/>
<path style="stroke:#000000; stroke-width:0.72; fill:none" d="M 2515.47 -270.141L 2547.47 -270.141L 2557.47 -260.141L 2557.47 -228.141L 2515.47 -228.141L 2515.47 -270.141"/>
<path style="stroke:#000000; stroke-width:0.72; fill:none" d="M 2481.44 -308.764L 2481.44 -299.764L 2476.69 -299.764L 2476.69 -317.764L 2566.69 -317.764L 2566.69 -299.764L 2561.94 -299.764L 2561.94 -308.764L 2560.31 -311.579L 2557.06 -311.579L 2555.44 -308.764L 2555.44 -299.764L 2487.94 -299.764L 2487.94 -308.764L 2486.31 -311.579L 2483.06 -311.579L 2481.44 -308.764L 2481.44 -308.764z"/>
<path style="stroke:#000000; stroke-width:0.72; fill:none" d="M 2493.68 -341.018L 2493.68 -332.018L 2486.93 -332.018L 2486.93 -350.018L 2566.93 -350.018L 2566.93 -332.018L 2560.18 -332.018L 2560.18 -341.018L 2558.55 -343.833L 2555.3 -343.833L 2553.67 -341.018L 2553.68 -332.018L 2500.18 -332.018L 2500.18 -341.018L 2498.55 -343.833L 2495.3 -343.833L 2493.68 -341.018"/>
<path style="stroke:#000000; stroke-width:0.72; fill:none" d="M 2507.54 -440.662L 2539.54 -440.662L 2549.54 -430.662L 2549.54 -398.662L 2507.54 -398.662L 2507.54 -440.662"/>
<path style="stroke:#000000; stroke-width:0.72; fill:none" d="M 2334.71 -345.776L 2334.71 -336.776L 2329.96 -336.776L 2329.96 -354.776L 2419.96 -354.776L 2419.96 -336.776L 2415.21 -336.776L 2415.21 -345.776L 2413.58 -348.591L 2410.33 -348.591L 2408.71 -345.777L 2408.71 -336.776L 2341.21 -336.776L 2341.21 -345.776L 2339.58 -348.591L 2336.33 -348.591L 2334.71 -345.776L 2334.71 -345.776z"/>
<path style="stroke:#000000; stroke-width:0.72; fill:none" d="M 2346.95 -378.03L 2346.95 -369.03L 2340.2 -369.03L 2340.2 -387.03L 2420.2 -387.03L 2420.2 -369.03L 2413.45 -369.03L 2413.45 -378.03L 2411.82 -380.845L 2408.57 -380.845L 2406.95 -378.03L 2406.95 -369.03L 2353.45 -369.03L 2353.45 -378.03L 2351.82 -380.845L 2348.57 -380.845L 2346.95 -378.03L 2346.95 -378.03z"/>
<path style="stroke:#000000; stroke-width:0.72; fill:none" d="M 2360.81 -477.674L 2392.81 -477.674L 2402.81 -467.674L 2402.81 -435.674L 2360.81 -435.674L 2360.81 -477.674"/>
</g>
</svg>