0
SECTION
2
ENTITIES
0
POLYLINE
70
1
62
7
8
0
66
1
0
VERTEX
8
0
10
4.750
20
9.000
0
VERTEX
8
0
10
4.750
20
0.000
0
VERTEX
8
0
10
0.000
20
0.000
0
VERTEX
8
0
10
0.000
20
18.000
0
VERTEX
8
0
10
90.000
20
18.000
0
VERTEX
8
0
10
90.000
20
0.000
0
VERTEX
8
0
10
85.250
20
0.000
0
VERTEX
8
0
10
85.250
20
9.000
42
0.267949
0
VERTEX
8
0
10
83.625000
20
11.814583
42
0.267949
0
VERTEX
8
0
10
80.375000
20
11.814583
42
0.267949
0
VERTEX
8
0
10
78.750000
20
9.000000
0
VERTEX
8
0
10
78.750
20
0.000
0
VERTEX
8
0
10
11.250
20
0.000
0
VERTEX
8
0
10
11.250
20
9.000
42
0.267949
0
VERTEX
8
0
10
9.625000
20
11.814583
42
0.267949
0
VERTEX
8
0
10
6.375000
20
11.814583
42
0.267949
0
VERTEX
8
0
10
4.750000
20
9.000000
0
SEQEND
0
POLYLINE
70
1
62
7
8
0
66
1
0
VERTEX
8
0
10
16.990
20
41.253
0
VERTEX
8
0
10
16.990
20
32.253
0
VERTEX
8
0
10
10.240
20
32.253
0
VERTEX
8
0
10
10.240
20
50.253
0
VERTEX
8
0
10
90.240
20
50.253
0
VERTEX
8
0
10
90.240
20
32.253
0
VERTEX
8
0
10
83.490
20
32.253
0
VERTEX
8
0
10
83.490
20
41.253
42
0.267949
0
VERTEX
8
0
10
81.864645
20
44.068061
42
0.267949
0
VERTEX
8
0
10
78.614645
20
44.068061
42
0.267949
0
VERTEX
8
0
10
76.989645
20
41.253479
0
VERTEX
8
0
10
76.990
20
32.253
0
VERTEX
8
0
10
23.490
20
32.253
0
VERTEX
8
0
10
23.490
20
41.253
42
0.267949
0
VERTEX
8
0
10
21.864645
20
44.068061
42
0.267949
0
VERTEX
8
0
10
18.614645
20
44.068061
42
0.268031
0
VERTEX
8
0
10
16.990000
20
41.253000
0
SEQEND
0
POLYLINE
70
1
62
7
8
0
66
1
0
VERTEX
8
0
10
30.856
20
140.897
0
VERTEX
8
0
10
62.856
20
140.897
0
VERTEX
8
0
10
72.856
20
130.897
0
VERTEX
8
0
10
72.856
20
98.897
0
VERTEX
8
0
10
30.856
20
98.897
0
VERTEX
8
0
10
30.856
20
140.897
0
SEQEND
0
POLYLINE
70
1
62
7
8
0
66
1
0
VERTEX
8
0
10
286.985
20
91.351
42
0.198913
0
VERTEX
8
0
10
277.641936
20
113.907740
42
0.198913
0
VERTEX
8
0
10
255.085223
20
123.251177
42
0.198913
0
VERTEX
8
0
10
232.528510
20
113.907891
42
0.198913
0
VERTEX
8
0
10
223.185223
20
91.351177
42
0.198913
0
VERTEX
8
0
10
232.528510
20
68.794464
42
0.198913
0
VERTEX
8
0
10
255.085223
20
59.451177
42
0.198913
0
VERTEX
8
0
10
277.641936
20
68.794464
42
0.198916
0
VERTEX
8
0
10
286.985116
20
91.350919
0
SEQEND
0
POLYLINE
70
1
62
7
8
0
66
1
0
VERTEX
8
0
10
592.205
20
157.989
42
-0.405145
0
VERTEX
8
0
10
593.991634
20
160.975542
0
VERTEX
8
0
10
594.958
20
161.234
42
0.202902
0
VERTEX
8
0
10
596.494955
20
162.432656
42
0.202902
0
VERTEX
8
0
10
596.704802
20
164.370116
42
0.116077
0
VERTEX
8
0
10
577.463122
20
197.697684
42
0.202902
0
VERTEX
8
0
10
575.680309
20
198.484680
42
0.202902
0
VERTEX
8
0
10
573.874194
20
197.752742
0
VERTEX
8
0
10
573.167
20
197.045
42
-0.405145
0
VERTEX
8
0
10
569.686969
20
196.991251
42
0.115884
0
VERTEX
8
0
10
538.790079
20
214.829578
42
-0.405145
0
VERTEX
8
0
10
537.096994
20
217.870181
0
VERTEX
8
0
10
537.356
20
218.836
42
0.202902
0
VERTEX
8
0
10
537.086757
20
220.766678
42
0.202902
0
VERTEX
8
0
10
535.513791
20
221.917141
42
0.116077
0
VERTEX
8
0
10
497.030431
20
221.917141
42
0.202902
0
VERTEX
8
0
10
495.457465
20
220.766678
42
0.202902
0
VERTEX
8
0
10
495.188285
20
218.836567
0
VERTEX
8
0
10
495.447
20
217.870
42
-0.405145
0
VERTEX
8
0
10
493.754143
20
214.829578
42
0.115884
0
VERTEX
8
0
10
462.857253
20
196.991251
42
-0.405145
0
VERTEX
8
0
10
459.377471
20
197.045298
0
VERTEX
8
0
10
458.670
20
197.752
42
0.202902
0
VERTEX
8
0
10
456.863913
20
198.484680
42
0.202902
0
VERTEX
8
0
10
455.081100
20
197.697684
42
0.116077
0
VERTEX
8
0
10
435.839419
20
164.370116
42
0.202902
0
VERTEX
8
0
10
436.049267
20
162.432656
42
0.202902
0
VERTEX
8
0
10
437.586202
20
161.234484
0
VERTEX
8
0
10
438.553
20
160.975
42
-0.405145
0
VERTEX
8
0
10
440.339285
20
157.988986
42
0.115884
0
VERTEX
8
0
10
440.339285
20
122.312331
42
-0.405145
0
VERTEX
8
0
10
438.552588
20
119.325775
0
VERTEX
8
0
10
437.586
20
119.066
42
0.202902
0
VERTEX
8
0
10
436.049267
20
117.868660
42
0.202902
0
VERTEX
8
0
10
435.839419
20
115.931201
42
0.116077
0
VERTEX
8
0
10
455.081100
20
82.603633
42
0.202902
0
VERTEX
8
0
10
456.863913
20
81.816636
42
0.202902
0
VERTEX
8
0
10
458.670028
20
82.548575
0
VERTEX
8
0
10
459.377
20
83.256
42
-0.405145
0
VERTEX
8
0
10
462.857253
20
83.310066
42
0.115884
0
VERTEX
8
0
10
493.754143
20
65.471738
42
-0.405145
0
VERTEX
8
0
10
495.447228
20
62.431135
0
VERTEX
8
0
10
495.188
20
61.464
42
0.202902
0
VERTEX
8
0
10
495.457465
20
59.534638
42
0.202902
0
VERTEX
8
0
10
497.030431
20
58.384175
42
0.116077
0
VERTEX
8
0
10
535.513791
20
58.384175
42
0.202902
0
VERTEX
8
0
10
537.086757
20
59.534638
42
0.202902
0
VERTEX
8
0
10
537.355937
20
61.464749
0
VERTEX
8
0
10
537.097
20
62.431
42
-0.405145
0
VERTEX
8
0
10
538.790079
20
65.471738
42
0.115884
0
VERTEX
8
0
10
569.686969
20
83.310066
42
-0.405145
0
VERTEX
8
0
10
573.166750
20
83.256019
0
VERTEX
8
0
10
573.874
20
82.548
42
0.202902
0
VERTEX
8
0
10
575.680309
20
81.816636
42
0.202902
0
VERTEX
8
0
10
577.463122
20
82.603633
42
0.116077
0
VERTEX
8
0
10
596.704802
20
115.931201
42
0.202902
0
VERTEX
8
0
10
596.494955
20
117.868660
42
0.202902
0
VERTEX
8
0
10
594.958020
20
119.066832
0
VERTEX
8
0
10
593.992
20
119.325
42
-0.405145
0
VERTEX
8
0
10
592.204937
20
122.312331
42
0.115881
0
VERTEX
8
0
10
592.205004
20
157.989400
0
SEQEND
0
POLYLINE
70
1
62
7
8
0
66
1
0
VERTEX
8
0
10
113.198
20
120.091
0
VERTEX
8
0
10
192.198
20
120.091
42
-0.198912
0
VERTEX
8
0
10
196.440613
20
118.334095
42
-0.198912
0
VERTEX
8
0
10
198.197972
20
114.091454
0
VERTEX
8
0
10
198.198
20
35.091
42
-0.198913
0
VERTEX
8
0
10
196.440508
20
30.848705
42
-0.198913
0
VERTEX
8
0
10
192.197972
20
29.091454
0
VERTEX
8
0
10
113.198
20
29.091
42
-0.198913
0
VERTEX
8
0
10
108.955224
20
30.848705
42
-0.198913
0
VERTEX
8
0
10
107.197972
20
35.091454
0
VERTEX
8
0
10
107.198
20
114.091
42
-0.198912
0
VERTEX
8
0
10
108.955331
20
118.334095
42
-0.198954
0
VERTEX
8
0
10
113.197865
20
120.091196
0
SEQEND
0
POLYLINE
70
1
62
7
8
0
66
1
0
VERTEX
8
0
10
19.788
20
177.052
0
VERTEX
8
0
10
19.788
20
168.052
0
VERTEX
8
0
10
15.038
20
168.052
0
VERTEX
8
0
10
15.038
20
186.052
0
VERTEX
8
0
10
105.038
20
186.052
0
VERTEX
8
0
10
105.038
20
168.052
0
VERTEX
8
0
10
100.288
20
168.052
0
VERTEX
8
0
10
100.288
20
177.052
42
0.267949
0
VERTEX
8
0
10
98.663273
20
179.866789
42
0.267949
0
VERTEX
8
0
10
95.413273
20
179.866789
42
0.267949
0
VERTEX
8
0
10
93.788273
20
177.052206
0
VERTEX
8
0
10
93.788
20
168.052
0
VERTEX
8
0
10
26.288
20
168.052
0
VERTEX
8
0
10
26.288
20
177.052
42
0.267949
0
VERTEX
8
0
10
24.663273
20
179.866789
42
0.267949
0
VERTEX
8
0
10
21.413273
20
179.866789
42
0.267886
0
VERTEX
8
0
10
19.788000
20
177.052000
0
SEQEND
0
POLYLINE
70
1
62
7
8
0
66
1
0
VERTEX
8
0
10
32.028
20
209.306
0
VERTEX
8
0
10
32.028
20
200.306
0
VERTEX
8
0
10
25.278
20
200.306
0
VERTEX
8
0
10
25.278
20
218.306
0
VERTEX
8
0
10
105.278
20
218.306
0
VERTEX
8
0
10
105.278
20
200.306
0
VERTEX
8
0
10
98.528
20
200.306
0
VERTEX
8
0
10
98.528
20
209.306
42
0.267949
0
VERTEX
8
0
10
96.902918
20
212.120267
42
0.267949
0
VERTEX
8
0
10
93.652918
20
212.120267
42
0.267949
0
VERTEX
8
0
10
92.027918
20
209.305685
0
VERTEX
8
0
10
92.028
20
200.306
0
VERTEX
8
0
10
38.528
20
200.306
0
VERTEX
8
0
10
38.528
20
209.306
42
0.267949
0
VERTEX
8
0
10
36.902918
20
212.120267
42
0.267949
0
VERTEX
8
0
10
33.652918
20
212.120267
42
0.267968
0
VERTEX
8
0
10
32.028000
20
209.306000
0
SEQEND
0
POLYLINE
70
1
62
7
8
0
66
1
0
VERTEX
8
0
10
45.894
20
308.950
0
VERTEX
8
0
10
77.894
20
308.950
0
VERTEX
8
0
10
87.894
20
298.950
0
VERTEX
8
0
10
87.894
20
266.950
0
VERTEX
8
0
10
45.894
20
266.950
0
VERTEX
8
0
10
45.894
20
308.950
0
SEQEND
0
POLYLINE
70
1
62
7
8
0
66
1
0
VERTEX
8
0
10
311.920
20
25.038
0
VERTEX
8
0
10
311.920
20
16.038
0
VERTEX
8
0
10
307.170
20
16.038
0
VERTEX
8
0
10
307.170
20
34.038
0
VERTEX
8
0
10
397.170
20
34.038
0
VERTEX
8
0
10
397.170
20
16.038
0
VERTEX
8
0
10
392.420
20
16.038
0
VERTEX
8
0
10
392.420
20
25.038
42
0.267949
0
VERTEX
8
0
10
390.795036
20
27.852523
42
0.267949
0
VERTEX
8
0
10
387.545036
20
27.852523
42
0.267949
0
VERTEX
8
0
10
385.920036
20
25.037940
0
VERTEX
8
0
10
385.920
20
16.038
0
VERTEX
8
0
10
318.420
20
16.038
0
VERTEX
8
0
10
318.420
20
25.038
42
0.267949
0
VERTEX
8
0
10
316.795036
20
27.852523
42
0.267949
0
VERTEX
8
0
10
313.545036
20
27.852523
42
0.267941
0
VERTEX
8
0
10
311.920000
20
25.038000
0
SEQEND
0
POLYLINE
70
1
62
7
8
0
66
1
0
VERTEX
8
0
10
324.160
20
57.291
0
VERTEX
8
0
10
324.160
20
48.291
0
VERTEX
8
0
10
317.410
20
48.291
0
VERTEX
8
0
10
317.410
20
66.291
0
VERTEX
8
0
10
397.410
20
66.291
0
VERTEX
8
0
10
397.410
20
48.291
0
VERTEX
8
0
10
390.660
20
48.291
0
VERTEX
8
0
10
390.660
20
57.291
42
0.267949
0
VERTEX
8
0
10
389.034681
20
60.106002
42
0.267949
0
VERTEX
8
0
10
385.784681
20
60.106002
42
0.267949
0
VERTEX
8
0
10
384.159681
20
57.291419
0
VERTEX
8
0
10
384.160
20
48.291
0
VERTEX
8
0
10
330.660
20
48.291
0
VERTEX
8
0
10
330.660
20
57.291
42
0.267949
0
VERTEX
8
0
10
329.034681
20
60.106002
42
0.267949
0
VERTEX
8
0
10
325.784681
20
60.106002
42
0.268023
0
VERTEX
8
0
10
324.160000
20
57.291000
0
SEQEND
0
POLYLINE
70
1
62
7
8
0
66
1
0
VERTEX
8
0
10
338.026
20
156.935
0
VERTEX
8
0
10
370.026
20
156.935
0
VERTEX
8
0
10
380.026
20
146.935
0
VERTEX
8
0
10
380.026
20
114.935
0
VERTEX
8
0
10
338.026
20
114.935
0
VERTEX
8
0
10
338.026
20
156.935
0
SEQEND
0
POLYLINE
70
1
62
7
8
0
66
1
0
VERTEX
8
0
10
303.989
20
195.558
0
VERTEX
8
0
10
303.989
20
186.558
0
VERTEX
8
0
10
299.239
20
186.558
0
VERTEX
8
0
10
299.239
20
204.558
0
VERTEX
8
0
10
389.239
20
204.558
0
VERTEX
8
0
10
389.239
20
186.558
0
VERTEX
8
0
10
384.489
20
186.558
0
VERTEX
8
0
10
384.489
20
195.558
42
0.267949
0
VERTEX
8
0
10
382.863857
20
198.372873
42
0.267949
0
VERTEX
8
0
10
379.613857
20
198.372873
42
0.267949
0
VERTEX
8
0
10
377.988857
20
195.558291
0
VERTEX
8
0
10
377.989
20
186.558
0
VERTEX
8
0
10
310.489
20
186.558
0
VERTEX
8
0
10
310.489
20
195.558
42
0.267949
0
VERTEX
8
0
10
308.863857
20
198.372873
42
0.267949
0
VERTEX
8
0
10
305.613857
20
198.372873
42
0.267982
0
VERTEX
8
0
10
303.989000
20
195.558000
0
SEQEND
0
POLYLINE
70
1
62
7
8
0
66
1
0
VERTEX
8
0
10
316.229
20
227.812
0
VERTEX
8
0
10
316.229
20
218.812
0
VERTEX
8
0
10
309.479
20
218.812
0
VERTEX
8
0
10
309.479
20
236.812
0
VERTEX
8
0
10
389.479
20
236.812
0
VERTEX
8
0
10
389.479
20
218.812
0
VERTEX
8
0
10
382.729
20
218.812
0
VERTEX
8
0
10
382.729
20
227.812
42
0.267949
0
VERTEX
8
0
10
381.103502
20
230.626352
42
0.267949
0
VERTEX
8
0
10
377.853502
20
230.626352
42
0.267949
0
VERTEX
8
0
10
376.228502
20
227.811769
0
VERTEX
8
0
10
376.229
20
218.812
0
VERTEX
8
0
10
322.729
20
218.812
0
VERTEX
8
0
10
322.729
20
227.812
42
0.267949
0
VERTEX
8
0
10
321.103502
20
230.626352
42
0.267949
0
VERTEX
8
0
10
317.853502
20
230.626352
42
0.268064
0
VERTEX
8
0
10
316.229000
20
227.812000
0
SEQEND
0
POLYLINE
70
1
62
7
8
0
66
1
0
VERTEX
8
0
10
330.095
20
327.456
0
VERTEX
8
0
10
362.095
20
327.456
0
VERTEX
8
0
10
372.095
20
317.456
0
VERTEX
8
0
10
372.095
20
285.456
0
VERTEX
8
0
10
330.095
20
285.456
0
VERTEX
8
0
10
330.095
20
327.456
0
SEQEND
0
POLYLINE
70
1
62
7
8
0
66
1
0
VERTEX
8
0
10
157.262
20
232.570
0
VERTEX
8
0
10
157.262
20
223.570
0
VERTEX
8
0
10
152.512
20
223.570
0
VERTEX
8
0
10
152.512
20
241.570
0
VERTEX
8
0
10
242.512
20
241.570
0
VERTEX
8
0
10
242.512
20
223.570
0
VERTEX
8
0
10
237.762
20
223.570
0
VERTEX
8
0
10
237.762
20
232.570
42
0.267949
0
VERTEX
8
0
10
236.137044
20
235.385042
42
0.267949
0
VERTEX
8
0
10
232.887044
20
235.385042
42
0.267949
0
VERTEX
8
0
10
231.262044
20
232.570460
0
VERTEX
8
0
10
231.262
20
223.570
0
VERTEX
8
0
10
163.762
20
223.570
0
VERTEX
8
0
10
163.762
20
232.570
42
0.267949
0
VERTEX
8
0
10
162.137044
20
235.385042
42
0.267949
0
VERTEX
8
0
10
158.887044
20
235.385042
42
0.267939
0
VERTEX
8
0
10
157.262000
20
232.570000
0
SEQEND
0
POLYLINE
70
1
62
7
8
0
66
1
0
VERTEX
8
0
10
169.502
20
264.824
0
VERTEX
8
0
10
169.502
20
255.824
0
VERTEX
8
0
10
162.752
20
255.824
0
VERTEX
8
0
10
162.752
20
273.824
0
VERTEX
8
0
10
242.752
20
273.824
0
VERTEX
8
0
10
242.752
20
255.824
0
VERTEX
8
0
10
236.002
20
255.824
0
VERTEX
8
0
10
236.002
20
264.824
42
0.267949
0
VERTEX
8
0
10
234.376689
20
267.638521
42
0.267949
0
VERTEX
8
0
10
231.126689
20
267.638521
42
0.267949
0
VERTEX
8
0
10
229.501689
20
264.823938
0
VERTEX
8
0
10
229.502
20
255.824
0
VERTEX
8
0
10
176.002
20
255.824
0
VERTEX
8
0
10
176.002
20
264.824
42
0.267949
0
VERTEX
8
0
10
174.376689
20
267.638521
42
0.267949
0
VERTEX
8
0
10
171.126689
20
267.638521
42
0.268021
0
VERTEX
8
0
10
169.502000
20
264.824000
0
SEQEND
0
POLYLINE
70
1
62
7
8
0
66
1
0
VERTEX
8
0
10
183.368
20
364.468
0
VERTEX
8
0
10
215.368
20
364.468
0
VERTEX
8
0
10
225.368
20
354.468
0
VERTEX
8
0
10
225.368
20
322.468
0
VERTEX
8
0
10
183.368
20
322.468
0
VERTEX
8
0
10
183.368
20
364.468
0
SEQEND
0
POLYLINE
70
1
62
7
8
0
66
1
0
VERTEX
8
0
10
53.045
20
414.784
0
VERTEX
8
0
10
53.045
20
405.784
0
VERTEX
8
0
10
48.295
20
405.784
0
VERTEX
8
0
10
48.295
20
423.784
0
VERTEX
8
0
10
138.295
20
423.784
0
VERTEX
8
0
10
138.295
20
405.784
0
VERTEX
8
0
10
133.545
20
405.784
0
VERTEX
8
0
10
133.545
20
414.784
42
0.267949
0
VERTEX
8
0
10
131.919853
20
417.598398
42
0.267949
0
VERTEX
8
0
10
128.669853
20
417.598398
42
0.267949
0
VERTEX
8
0
10
127.044853
20
414.783815
0
VERTEX
8
0
10
127.045
20
405.784
0
VERTEX
8
0
10
59.545
20
405.784
0
VERTEX
8
0
10
59.545
20
414.784
42
0.267949
0
VERTEX
8
0
10
57.919853
20
417.598398
42
0.267949
0
VERTEX
8
0
10
54.669853
20
417.598398
42
0.267949
0
VERTEX
8
0
10
53.044853
20
414.783815
0
SEQEND
0
POLYLINE
70
1
62
7
8
0
66
1
0
VERTEX
8
0
10
65.285
20
447.037
0
VERTEX
8
0
10
65.285
20
438.037
0
VERTEX
8
0
10
58.535
20
438.037
0
VERTEX
8
0
10
58.535
20
456.037
0
VERTEX
8
0
10
138.535
20
456.037
0
VERTEX
8
0
10
138.535
20
438.037
0
VERTEX
8
0
10
131.785
20
438.037
0
VERTEX
8
0
10
131.785
20
447.037
42
0.267949
0
VERTEX
8
0
10
130.159498
20
449.851876
42
0.267949
0
VERTEX
8
0
10
126.909498
20
449.851876
42
0.267949
0
VERTEX
8
0
10
125.284498
20
447.037294
0
VERTEX
8
0
10
125.285
20
438.037
0
VERTEX
8
0
10
71.785
20
438.037
0
VERTEX
8
0
10
71.785
20
447.037
42
0.267949
0
VERTEX
8
0
10
70.159498
20
449.851876
42
0.267949
0
VERTEX
8
0
10
66.909498
20
449.851876
42
0.268031
0
VERTEX
8
0
10
65.284853
20
447.036815
0
SEQEND
0
POLYLINE
70
1
62
7
8
0
66
1
0
VERTEX
8
0
10
79.151
20
546.681
0
VERTEX
8
0
10
111.151
20
546.681
0
VERTEX
8
0
10
121.151
20
536.681
0
VERTEX
8
0
10
121.151
20
504.681
0
VERTEX
8
0
10
79.151
20
504.681
0
VERTEX
8
0
10
79.151
20
546.681
0
SEQEND
0
POLYLINE
70
1
62
7
8
0
66
1
0
VERTEX
8
0
10
335.280
20
497.135
42
0.198913
0
VERTEX
8
0
10
325.936789
20
519.691555
42
0.198913
0
VERTEX
8
0
10
303.380076
20
529.034993
42
0.198913
0
VERTEX
8
0
10
280.823362
20
519.691706
42
0.198913
0
VERTEX
8
0
10
271.480076
20
497.134993
42
0.198913
0
VERTEX
8
0
10
280.823362
20
474.578279
42
0.198913
0
VERTEX
8
0
10
303.380076
20
465.234993
42
0.198913
0
VERTEX
8
0
10
325.936789
20
474.578279
42
0.198916
0
VERTEX
8
0
10
335.279969
20
497.134735
0
SEQEND
0
POLYLINE
70
1
62
7
8
0
66
1
0
VERTEX
8
0
10
640.500
20
563.773
42
-0.405145
0
VERTEX
8
0
10
642.286487
20
566.759357
0
VERTEX
8
0
10
643.253
20
567.018
42
0.202902
0
VERTEX
8
0
10
644.789808
20
568.216471
42
0.202902
0
VERTEX
8
0
10
644.999655
20
570.153931
42
0.116077
0
VERTEX
8
0
10
625.757975
20
603.481499
42
0.202902
0
VERTEX
8
0
10
623.975162
20
604.268495
42
0.202902
0
VERTEX
8
0
10
622.169047
20
603.536557
0
VERTEX
8
0
10
621.462
20
602.829
42
-0.405145
0
VERTEX
8
0
10
617.981822
20
602.775066
42
0.115884
0
VERTEX
8
0
10
587.084932
20
620.613393
42
-0.405145
0
VERTEX
8
0
10
585.391847
20
623.653996
0
VERTEX
8
0
10
585.651
20
624.620
42
0.202902
0
VERTEX
8
0
10
585.381610
20
626.550493
42
0.202902
0
VERTEX
8
0
10
583.808644
20
627.700956
42
0.116077
0
VERTEX
8
0
10
545.325284
20
627.700956
42
0.202902
0
VERTEX
8
0
10
543.752318
20
626.550493
42
0.202902
0
VERTEX
8
0
10
543.483138
20
624.620382
0
VERTEX
8
0
10
543.742
20
623.654
42
-0.405145
0
VERTEX
8
0
10
542.048996
20
620.613393
42
0.115884
0
VERTEX
8
0
10
511.152106
20
602.775066
42
-0.405145
0
VERTEX
8
0
10
507.672324
20
602.829113
0
VERTEX
8
0
10
506.965
20
603.536
42
0.202902
0
VERTEX
8
0
10
505.158766
20
604.268495
42
0.202902
0
VERTEX
8
0
10
503.375953
20
603.481499
42
0.116077
0
VERTEX
8
0
10
484.134272
20
570.153931
42
0.202902
0
VERTEX
8
0
10
484.344120
20
568.216471
42
0.202902
0
VERTEX
8
0
10
485.881055
20
567.018299
0
VERTEX
8
0
10
486.848
20
566.759
42
-0.405145
0
VERTEX
8
0
10
488.634138
20
563.772801
42
0.115884
0
VERTEX
8
0
10
488.634138
20
528.096146
42
-0.405145
0
VERTEX
8
0
10
486.847441
20
525.109590
0
VERTEX
8
0
10
485.881
20
524.850
42
0.202902
0
VERTEX
8
0
10
484.344120
20
523.652475
42
0.202902
0
VERTEX
8
0
10
484.134272
20
521.715016
42
0.116077
0
VERTEX
8
0
10
503.375953
20
488.387448
42
0.202902
0
VERTEX
8
0
10
505.158766
20
487.600451
42
0.202902
0
VERTEX
8
0
10
506.964881
20
488.332390
0
VERTEX
8
0
10
507.672
20
489.040
42
-0.405145
0
VERTEX
8
0
10
511.152106
20
489.093881
42
0.115884
0
VERTEX
8
0
10
542.048996
20
471.255553
42
-0.405145
0
VERTEX
8
0
10
543.742081
20
468.214950
0
VERTEX
8
0
10
543.483
20
467.248
42
0.202902
0
VERTEX
8
0
10
543.752318
20
465.318453
42
0.202902
0
VERTEX
8
0
10
545.325284
20
464.167990
42
0.116077
0
VERTEX
8
0
10
583.808644
20
464.167990
42
0.202902
0
VERTEX
8
0
10
585.381610
20
465.318453
42
0.202902
0
VERTEX
8
0
10
585.650790
20
467.248564
0
VERTEX
8
0
10
585.392
20
468.215
42
-0.405145
0
VERTEX
8
0
10
587.084932
20
471.255553
42
0.115884
0
VERTEX
8
0
10
617.981822
20
489.093881
42
-0.405145
0
VERTEX
8
0
10
621.461603
20
489.039834
0
VERTEX
8
0
10
622.169
20
488.332
42
0.202902
0
VERTEX
8
0
10
623.975162
20
487.600451
42
0.202902
0
VERTEX
8
0
10
625.757975
20
488.387448
42
0.116077
0
VERTEX
8
0
10
644.999655
20
521.715016
42
0.202902
0
VERTEX
8
0
10
644.789808
20
523.652475
42
0.202902
0
VERTEX
8
0
10
643.252873
20
524.850647
0
VERTEX
8
0
10
642.287
20
525.109
42
-0.405145
0
VERTEX
8
0
10
640.499790
20
528.096146
42
0.115881
0
VERTEX
8
0
10
640.499857
20
563.773215
0
SEQEND
0
POLYLINE
70
1
62
7
8
0
66
1
0
VERTEX
8
0
10
161.493
20
525.875
0
VERTEX
8
0
10
240.493
20
525.875
42
-0.198912
0
VERTEX
8
0
10
244.735466
20
524.117910
42
-0.198912
0
VERTEX
8
0
10
246.492825
20
519.875269
0
VERTEX
8
0
10
246.493
20
440.875
42
-0.198913
0
VERTEX
8
0
10
244.735360
20
436.632520
42
-0.198913
0
VERTEX
8
0
10
240.492825
20
434.875269
0
VERTEX
8
0
10
161.493
20
434.875
42
-0.198913
0
VERTEX
8
0
10
157.250076
20
436.632520
42
-0.198913
0
VERTEX
8
0
10
155.492825
20
440.875269
0
VERTEX
8
0
10
155.493
20
519.875
42
-0.198912
0
VERTEX
8
0
10
157.250184
20
524.117910
42
-0.198954
0
VERTEX
8
0
10
161.492718
20
525.875011
0
SEQEND
0
POLYLINE
70
1
62
7
8
0
66
1
0
VERTEX
8
0
10
68.083
20
582.836
0
VERTEX
8
0
10
68.083
20
573.836
0
VERTEX
8
0
10
63.333
20
573.836
0
VERTEX
8
0
10
63.333
20
591.836
0
VERTEX
8
0
10
153.333
20
591.836
0
VERTEX
8
0
10
153.333
20
573.836
0
VERTEX
8
0
10
148.583
20
573.836
0
VERTEX
8
0
10
148.583
20
582.836
42
0.267949
0
VERTEX
8
0
10
146.958126
20
585.650604
42
0.267949
0
VERTEX
8
0
10
143.708126
20
585.650604
42
0.267949
0
VERTEX
8
0
10
142.083126
20
582.836021
0
VERTEX
8
0
10
142.083
20
573.836
0
VERTEX
8
0
10
74.583
20
573.836
0
VERTEX
8
0
10
74.583
20
582.836
42
0.267949
0
VERTEX
8
0
10
72.958126
20
585.650604
42
0.267949
0
VERTEX
8
0
10
69.708126
20
585.650604
42
0.267886
0
VERTEX
8
0
10
68.082853
20
582.835815
0
SEQEND
0
POLYLINE
70
1
62
7
8
0
66
1
0
VERTEX
8
0
10
80.323
20
615.090
0
VERTEX
8
0
10
80.323
20
606.090
0
VERTEX
8
0
10
73.573
20
606.090
0
VERTEX
8
0
10
73.573
20
624.090
0
VERTEX
8
0
10
153.573
20
624.090
0
VERTEX
8
0
10
153.573
20
606.090
0
VERTEX
8
0
10
146.823
20
606.090
0
VERTEX
8
0
10
146.823
20
615.090
42
0.267949
0
VERTEX
8
0
10
145.197771
20
617.904082
42
0.267949
0
VERTEX
8
0
10
141.947771
20
617.904082
42
0.267949
0
VERTEX
8
0
10
140.322771
20
615.089500
0
VERTEX
8
0
10
140.323
20
606.090
0
VERTEX
8
0
10
86.823
20
606.090
0
VERTEX
8
0
10
86.823
20
615.090
42
0.267949
0
VERTEX
8
0
10
85.197771
20
617.904082
42
0.267949
0
VERTEX
8
0
10
81.947771
20
617.904082
42
0.267968
0
VERTEX
8
0
10
80.322853
20
615.089815
0
SEQEND
0
POLYLINE
70
1
62
7
8
0
66
1
0
VERTEX
8
0
10
94.189
20
714.734
0
VERTEX
8
0
10
126.189
20
714.734
0
VERTEX
8
0
10
136.189
20
704.734
0
VERTEX
8
0
10
136.189
20
672.734
0
VERTEX
8
0
10
94.189
20
672.734
0
VERTEX
8
0
10
94.189
20
714.734
0
SEQEND
0
POLYLINE
70
1
62
7
8
0
66
1
0
VERTEX
8
0
10
360.215
20
430.822
0
VERTEX
8
0
10
360.215
20
421.822
0
VERTEX
8
0
10
355.465
20
421.822
0
VERTEX
8
0
10
355.465
20
439.822
0
VERTEX
8
0
10
445.465
20
439.822
0
VERTEX
8
0
10
445.465
20
421.822
0
VERTEX
8
0
10
440.715
20
421.822
0
VERTEX
8
0
10
440.715
20
430.822
42
0.267949
0
VERTEX
8
0
10
439.089889
20
433.636338
42
0.267949
0
VERTEX
8
0
10
435.839889
20
433.636338
42
0.267949
0
VERTEX
8
0
10
434.214889
20
430.821755
0
VERTEX
8
0
10
434.215
20
421.822
0
VERTEX
8
0
10
366.715
20
421.822
0
VERTEX
8
0
10
366.715
20
430.822
42
0.267949
0
VERTEX
8
0
10
365.089889
20
433.636338
42
0.267949
0
VERTEX
8
0
10
361.839889
20
433.636338
42
0.267941
0
VERTEX
8
0
10
360.214853
20
430.821815
0
SEQEND
0
POLYLINE
70
1
62
7
8
0
66
1
0
VERTEX
8
0
10
372.455
20
463.075
0
VERTEX
8
0
10
372.455
20
454.075
0
VERTEX
8
0
10
365.705
20
454.075
0
VERTEX
8
0
10
365.705
20
472.075
0
VERTEX
8
0
10
445.705
20
472.075
0
VERTEX
8
0
10
445.705
20
454.075
0
VERTEX
8
0
10
438.955
20
454.075
0
VERTEX
8
0
10
438.955
20
463.075
42
0.267949
0
VERTEX
8
0
10
437.329534
20
465.889817
42
0.267949
0
VERTEX
8
0
10
434.079534
20
465.889817
42
0.267949
0
VERTEX
8
0
10
432.454534
20
463.075234
0
VERTEX
8
0
10
432.455
20
454.075
0
VERTEX
8
0
10
378.955
20
454.075
0
VERTEX
8
0
10
378.955
20
463.075
42
0.267949
0
VERTEX
8
0
10
377.329534
20
465.889817
42
0.267949
0
VERTEX
8
0
10
374.079534
20
465.889817
42
0.268023
0
VERTEX
8
0
10
372.454853
20
463.074815
0
SEQEND
0
POLYLINE
70
1
62
7
8
0
66
1
0
VERTEX
8
0
10
386.321
20
562.719
0
VERTEX
8
0
10
418.321
20
562.719
0
VERTEX
8
0
10
428.321
20
552.719
0
VERTEX
8
0
10
428.321
20
520.719
0
VERTEX
8
0
10
386.321
20
520.719
0
VERTEX
8
0
10
386.321
20
562.719
0
SEQEND
0
POLYLINE
70
1
62
7
8
0
66
1
0
VERTEX
8
0
10
352.284
20
601.342
0
VERTEX
8
0
10
352.284
20
592.342
0
VERTEX
8
0
10
347.534
20
592.342
0
VERTEX
8
0
10
347.534
20
610.342
0
VERTEX
8
0
10
437.534
20
610.342
0
VERTEX
8
0
10
437.534
20
592.342
0
VERTEX
8
0
10
432.784
20
592.342
0
VERTEX
8
0
10
432.784
20
601.342
42
0.267949
0
VERTEX
8
0
10
431.158710
20
604.156688
42
0.267949
0
VERTEX
8
0
10
427.908710
20
604.156688
42
0.267949
0
VERTEX
8
0
10
426.283710
20
601.342106
0
VERTEX
8
0
10
426.284
20
592.342
0
VERTEX
8
0
10
358.784
20
592.342
0
VERTEX
8
0
10
358.784
20
601.342
42
0.267949
0
VERTEX
8
0
10
357.158710
20
604.156688
42
0.267949
0
VERTEX
8
0
10
353.908710
20
604.156688
42
0.267982
0
VERTEX
8
0
10
352.283853
20
601.341815
0
SEQEND
0
POLYLINE
70
1
62
7
8
0
66
1
0
VERTEX
8
0
10
364.524
20
633.596
0
VERTEX
8
0
10
364.524
20
624.596
0
VERTEX
8
0
10
357.774
20
624.596
0
VERTEX
8
0
10
357.774
20
642.596
0
VERTEX
8
0
10
437.774
20
642.596
0
VERTEX
8
0
10
437.774
20
624.596
0
VERTEX
8
0
10
431.024
20
624.596
0
VERTEX
8
0
10
431.024
20
633.596
42
0.267949
0
VERTEX
8
0
10
429.398355
20
636.410167
42
0.267949
0
VERTEX
8
0
10
426.148355
20
636.410167
42
0.267949
0
VERTEX
8
0
10
424.523355
20
633.595584
0
VERTEX
8
0
10
424.524
20
624.596
0
VERTEX
8
0
10
371.024
20
624.596
0
VERTEX
8
0
10
371.024
20
633.596
42
0.267949
0
VERTEX
8
0
10
369.398355
20
636.410167
42
0.267949
0
VERTEX
8
0
10
366.148355
20
636.410167
42
0.268064
0
VERTEX
8
0
10
364.523853
20
633.595815
0
SEQEND
0
POLYLINE
70
1
62
7
8
0
66
1
0
VERTEX
8
0
10
378.390
20
733.240
0
VERTEX
8
0
10
410.390
20
733.240
0
VERTEX
8
0
10
420.390
20
723.240
0
VERTEX
8
0
10
420.390
20
691.240
0
VERTEX
8
0
10
378.390
20
691.240
0
VERTEX
8
0
10
378.390
20
733.240
0
SEQEND
0
POLYLINE
70
1
62
7
8
0
66
1
0
VERTEX
8
0
10
205.557
20
638.354
0
VERTEX
8
0
10
205.557
20
629.354
0
VERTEX
8
0
10
200.807
20
629.354
0
VERTEX
8
0
10
200.807
20
647.354
0
VERTEX
8
0
10
290.807
20
647.354
0
VERTEX
8
0
10
290.807
20
629.354
0
VERTEX
8
0
10
286.057
20
629.354
0
VERTEX
8
0
10
286.057
20
638.354
42
0.267949
0
VERTEX
8
0
10
284.431897
20
641.168857
42
0.267949
0
VERTEX
8
0
10
281.181897
20
641.168857
42
0.267949
0
VERTEX
8
0
10
279.556897
20
638.354275
0
VERTEX
8
0
10
279.557
20
629.354
0
VERTEX
8
0
10
212.057
20
629.354
0
VERTEX
8
0
10
212.057
20
638.354
42
0.267949
0
VERTEX
8
0
10
210.431897
20
641.168857
42
0.267949
0
VERTEX
8
0
10
207.181897
20
641.168857
42
0.267939
0
VERTEX
8
0
10
205.556853
20
638.353815
0
SEQEND
0
POLYLINE
70
1
62
7
8
0
66
1
0
VERTEX
8
0
10
217.797
20
670.608
0
VERTEX
8
0
10
217.797
20
661.608
0
VERTEX
8
0
10
211.047
20
661.608
0
VERTEX
8
0
10
211.047
20
679.608
0
VERTEX
8
0
10
291.047
20
679.608
0
VERTEX
8
0
10
291.047
20
661.608
0
VERTEX
8
0
10
284.297
20
661.608
0
VERTEX
8
0
10
284.297
20
670.608
42
0.267949
0
VERTEX
8
0
10
282.671542
20
673.422336
42
0.267949
0
VERTEX
8
0
10
279.421542
20
673.422336
42
0.267949
0
VERTEX
8
0
10
277.796542
20
670.607753
0
VERTEX
8
0
10
277.797
20
661.608
0
VERTEX
8
0
10
224.297
20
661.608
0
VERTEX
8
0
10
224.297
20
670.608
42
0.267949
0
VERTEX
8
0
10
222.671542
20
673.422336
42
0.267949
0
VERTEX
8
0
10
219.421542
20
673.422336
42
0.268021
0
VERTEX
8
0
10
217.796853
20
670.607815
0
SEQEND
0
POLYLINE
70
1
62
7
8
0
66
1
0
VERTEX
8
0
10
231.663
20
770.252
0
VERTEX
8
0
10
263.663
20
770.252
0
VERTEX
8
0
10
273.663
20
760.252
0
VERTEX
8
0
10
273.663
20
728.252
0
VERTEX
8
0
10
231.663
20
728.252
0
VERTEX
8
0
10
231.663
20
770.252
0
SEQEND
0
POLYLINE
70
1
62
7
8
0
66
1
0
VERTEX
8
0
10
679.830
20
35.806
0
VERTEX
8
0
10
679.830
20
26.806
0
VERTEX
8
0
10
675.080
20
26.806
0
VERTEX
8
0
10
675.080
20
44.806
0
VERTEX
8
0
10
765.080
20
44.806
0
VERTEX
8
0
10
765.080
20
26.806
0
VERTEX
8
0
10
760.330
20
26.806
0
VERTEX
8
0
10
760.330
20
35.806
42
0.267949
0
VERTEX
8
0
10
758.705282
20
38.620368
42
0.267949
0
VERTEX
8
0
10
755.455282
20
38.620368
42
0.267949
0
VERTEX
8
0
10
753.830282
20
35.805785
0
VERTEX
8
0
10
753.830
20
26.806
0
VERTEX
8
0
10
686.330
20
26.806
0
VERTEX
8
0
10
686.330
20
35.806
42
0.267949
0
VERTEX
8
0
10
684.705282
20
38.620368
42
0.267949
0
VERTEX
8
0
10
681.455282
20
38.620368
42
0.267949
0
VERTEX
8
0
10
679.830282
20
35.805785
0
SEQEND
0
POLYLINE
70
1
62
7
8
0
66
1
0
VERTEX
8
0
10
692.070
20
68.059
0
VERTEX
8
0
10
692.070
20
59.059
0
VERTEX
8
0
10
685.320
20
59.059
0
VERTEX
8
0
10
685.320
20
77.059
0
VERTEX
8
0
10
765.320
20
77.059
0
VERTEX
8
0
10
765.320
20
59.059
0
VERTEX
8
0
10
758.570
20
59.059
0
VERTEX
8
0
10
758.570
20
68.059
42
0.267949
0
VERTEX
8
0
10
756.944927
20
70.873846
42
0.267949
0
VERTEX
8
0
10
753.694927
20
70.873846
42
0.267949
0
VERTEX
8
0
10
752.069927
20
68.059264
0
VERTEX
8
0
10
752.070
20
59.059
0
VERTEX
8
0
10
698.570
20
59.059
0
VERTEX
8
0
10
698.570
20
68.059
42
0.267949
0
VERTEX
8
0
10
696.944927
20
70.873846
42
0.267949
0
VERTEX
8
0
10
693.694927
20
70.873846
42
0.268031
0
VERTEX
8
0
10
692.070282
20
68.058785
0
SEQEND
0
POLYLINE
70
1
62
7
8
0
66
1
0
VERTEX
8
0
10
705.936
20
167.703
0
VERTEX
8
0
10
737.936
20
167.703
0
VERTEX
8
0
10
747.936
20
157.703
0
VERTEX
8
0
10
747.936
20
125.703
0
VERTEX
8
0
10
705.936
20
125.703
0
VERTEX
8
0
10
705.936
20
167.703
0
SEQEND
0
POLYLINE
70
1
62
7
8
0
66
1
0
VERTEX
8
0
10
962.065
20
118.157
42
0.198913
0
VERTEX
8
0
10
952.722218
20
140.713524
42
0.198913
0
VERTEX
8
0
10
930.165505
20
150.056962
42
0.198913
0
VERTEX
8
0
10
907.608792
20
140.713675
42
0.198913
0
VERTEX
8
0
10
898.265505
20
118.156962
42
0.198913
0
VERTEX
8
0
10
907.608792
20
95.600249
42
0.198913
0
VERTEX
8
0
10
930.165505
20
86.256962
42
0.198913
0
VERTEX
8
0
10
952.722218
20
95.600249
42
0.198916
0
VERTEX
8
0
10
962.065398
20
118.156704
0
SEQEND
0
POLYLINE
70
1
62
7
8
0
66
1
0
VERTEX
8
0
10
1267.285
20
184.795
42
-0.405145
0
VERTEX
8
0
10
1269.071916
20
187.781327
0
VERTEX
8
0
10
1270.038
20
188.040
42
0.202902
0
VERTEX
8
0
10
1271.575237
20
189.238441
42
0.202902
0
VERTEX
8
0
10
1271.785084
20
191.175901
42
0.116077
0
VERTEX
8
0
10
1252.543404
20
224.503469
42
0.202902
0
VERTEX
8
0
10
1250.760591
20
225.290465
42
0.202902
0
VERTEX
8
0
10
1248.954476
20
224.558527
0
VERTEX
8
0
10
1248.247
20
223.851
42
-0.405145
0
VERTEX
8
0
10
1244.767251
20
223.797036
42
0.115884
0
VERTEX
8
0
10
1213.870361
20
241.635363
42
-0.405145
0
VERTEX
8
0
10
1212.177276
20
244.675966
0
VERTEX
8
0
10
1212.436
20
245.642
42
0.202902
0
VERTEX
8
0
10
1212.167039
20
247.572463
42
0.202902
0
VERTEX
8
0
10
1210.594073
20
248.722926
42
0.116077
0
VERTEX
8
0
10
1172.110713
20
248.722926
42
0.202902
0
VERTEX
8
0
10
1170.537747
20
247.572463
42
0.202902
0
VERTEX
8
0
10
1170.268567
20
245.642352
0
VERTEX
8
0
10
1170.527
20
244.676
42
-0.405145
0
VERTEX
8
0
10
1168.834425
20
241.635363
42
0.115884
0
VERTEX
8
0
10
1137.937535
20
223.797036
42
-0.405145
0
VERTEX
8
0
10
1134.457753
20
223.851083
0
VERTEX
8
0
10
1133.750
20
224.558
42
0.202902
0
VERTEX
8
0
10
1131.944195
20
225.290465
42
0.202902
0
VERTEX
8
0
10
1130.161382
20
224.503469
42
0.116077
0
VERTEX
8
0
10
1110.919701
20
191.175901
42
0.202902
0
VERTEX
8
0
10
1111.129549
20
189.238441
42
0.202902
0
VERTEX
8
0
10
1112.666484
20
188.040269
0
VERTEX
8
0
10
1113.633
20
187.781
42
-0.405145
0
VERTEX
8
0
10
1115.419567
20
184.794771
42
0.115884
0
VERTEX
8
0
10
1115.419567
20
149.118116
42
-0.405145
0
VERTEX
8
0
10
1113.632870
20
146.131560
0
VERTEX
8
0
10
1112.666
20
145.872
42
0.202902
0
VERTEX
8
0
10
1111.129549
20
144.674445
42
0.202902
0
VERTEX
8
0
10
1110.919701
20
142.736986
42
0.116077
0
VERTEX
8
0
10
1130.161382
20
109.409418
42
0.202902
0
VERTEX
8
0
10
1131.944195
20
108.622421
42
0.202902
0
VERTEX
8
0
10
1133.750310
20
109.354360
0
VERTEX
8
0
10
1134.457
20
110.062
42
-0.405145
0
VERTEX
8
0
10
1137.937535
20
110.115851
42
0.115884
0
VERTEX
8
0
10
1168.834425
20
92.277523
42
-0.405145
0
VERTEX
8
0
10
1170.527510
20
89.236920
0
VERTEX
8
0
10
1170.268
20
88.270
42
0.202902
0
VERTEX
8
0
10
1170.537747
20
86.340423
42
0.202902
0
VERTEX
8
0
10
1172.110713
20
85.189960
42
0.116077
0
VERTEX
8
0
10
1210.594073
20
85.189960
42
0.202902
0
VERTEX
8
0
10
1212.167039
20
86.340423
42
0.202902
0
VERTEX
8
0
10
1212.436219
20
88.270534
0
VERTEX
8
0
10
1212.177
20
89.237
42
-0.405145
0
VERTEX
8
0
10
1213.870361
20
92.277523
42
0.115884
0
VERTEX
8
0
10
1244.767251
20
110.115851
42
-0.405145
0
VERTEX
8
0
10
1248.247032
20
110.061804
0
VERTEX
8
0
10
1248.954
20
109.354
42
0.202902
0
VERTEX
8
0
10
1250.760591
20
108.622421
42
0.202902
0
VERTEX
8
0
10
1252.543404
20
109.409418
42
0.116077
0
VERTEX
8
0
10
1271.785084
20
142.736986
42
0.202902
0
VERTEX
8
0
10
1271.575237
20
144.674445
42
0.202902
0
VERTEX
8
0
10
1270.038302
20
145.872617
0
VERTEX
8
0
10
1269.072
20
146.131
42
-0.405145
0
VERTEX
8
0
10
1267.285219
20
149.118116
42
0.115881
0
VERTEX
8
0
10
1267.285286
20
184.795185
0
SEQEND
0
POLYLINE
70
1
62
7
8
0
66
1
0
VERTEX
8
0
10
788.278
20
146.897
0
VERTEX
8
0
10
867.278
20
146.897
42
-0.198912
0
VERTEX
8
0
10
871.520895
20
145.139879
42
-0.198912
0
VERTEX
8
0
10
873.278254
20
140.897238
0
VERTEX
8
0
10
873.278
20
61.897
42
-0.198913
0
VERTEX
8
0
10
871.520790
20
57.654490
42
-0.198913
0
VERTEX
8
0
10
867.278254
20
55.897238
0
VERTEX
8
0
10
788.278
20
55.897
42
-0.198913
0
VERTEX
8
0
10
784.035506
20
57.654490
42
-0.198913
0
VERTEX
8
0
10
782.278254
20
61.897238
0
VERTEX
8
0
10
782.278
20
140.897
42
-0.198912
0
VERTEX
8
0
10
784.035613
20
145.139879
42
-0.198954
0
VERTEX
8
0
10
788.278147
20
146.896980
0
SEQEND
0
POLYLINE
70
1
62
7
8
0
66
1
0
VERTEX
8
0
10
694.868
20
203.858
0
VERTEX
8
0
10
694.868
20
194.858
0
VERTEX
8
0
10
690.118
20
194.858
0
VERTEX
8
0
10
690.118
20
212.858
0
VERTEX
8
0
10
780.118
20
212.858
0
VERTEX
8
0
10
780.118
20
194.858
0
VERTEX
8
0
10
775.368
20
194.858
0
VERTEX
8
0
10
775.368
20
203.858
42
0.267949
0
VERTEX
8
0
10
773.743555
20
206.672574
42
0.267949
0
VERTEX
8
0
10
770.493555
20
206.672574
42
0.267949
0
VERTEX
8
0
10
768.868555
20
203.857991
0
VERTEX
8
0
10
768.868
20
194.858
0
VERTEX
8
0
10
701.368
20
194.858
0
VERTEX
8
0
10
701.368
20
203.858
42
0.267949
0
VERTEX
8
0
10
699.743555
20
206.672574
42
0.267949
0
VERTEX
8
0
10
696.493555
20
206.672574
42
0.267886
0
VERTEX
8
0
10
694.868282
20
203.857785
0
SEQEND
0
POLYLINE
70
1
62
7
8
0
66
1
0
VERTEX
8
0
10
707.108
20
236.112
0
VERTEX
8
0
10
707.108
20
227.112
0
VERTEX
8
0
10
700.358
20
227.112
0
VERTEX
8
0
10
700.358
20
245.112
0
VERTEX
8
0
10
780.358
20
245.112
0
VERTEX
8
0
10
780.358
20
227.112
0
VERTEX
8
0
10
773.608
20
227.112
0
VERTEX
8
0
10
773.608
20
236.112
42
0.267949
0
VERTEX
8
0
10
771.983200
20
238.926052
42
0.267949
0
VERTEX
8
0
10
768.733200
20
238.926052
42
0.267949
0
VERTEX
8
0
10
767.108200
20
236.111470
0
VERTEX
8
0
10
767.108
20
227.112
0
VERTEX
8
0
10
713.608
20
227.112
0
VERTEX
8
0
10
713.608
20
236.112
42
0.267949
0
VERTEX
8
0
10
711.983200
20
238.926052
42
0.267949
0
VERTEX
8
0
10
708.733200
20
238.926052
42
0.267968
0
VERTEX
8
0
10
707.108282
20
236.111785
0
SEQEND
0
POLYLINE
70
1
62
7
8
0
66
1
0
VERTEX
8
0
10
720.974
20
335.756
0
VERTEX
8
0
10
752.974
20
335.756
0
VERTEX
8
0
10
762.974
20
325.756
0
VERTEX
8
0
10
762.974
20
293.756
0
VERTEX
8
0
10
720.974
20
293.756
0
VERTEX
8
0
10
720.974
20
335.756
0
SEQEND
0
POLYLINE
70
1
62
7
8
0
66
1
0
VERTEX
8
0
10
987.000
20
51.844
0
VERTEX
8
0
10
987.000
20
42.844
0
VERTEX
8
0
10
982.250
20
42.844
0
VERTEX
8
0
10
982.250
20
60.844
0
VERTEX
8
0
10
1072.250
20
60.844
0
VERTEX
8
0
10
1072.250
20
42.844
0
VERTEX
8
0
10
1067.500
20
42.844
0
VERTEX
8
0
10
1067.500
20
51.844
42
0.267949
0
VERTEX
8
0
10
1065.875318
20
54.658308
42
0.267949
0
VERTEX
8
0
10
1062.625318
20
54.658308
42
0.267949
0
VERTEX
8
0
10
1061.000318
20
51.843725
0
VERTEX
8
0
10
1061.000
20
42.844
0
VERTEX
8
0
10
993.500
20
42.844
0
VERTEX
8
0
10
993.500
20
51.844
42
0.267949
0
VERTEX
8
0
10
991.875318
20
54.658308
42
0.267949
0
VERTEX
8
0
10
988.625318
20
54.658308
42
0.267941
0
VERTEX
8
0
10
987.000282
20
51.843785
0
SEQEND
0
POLYLINE
70
1
62
7
8
0
66
1
0
VERTEX
8
0
10
999.240
20
84.097
0
VERTEX
8
0
10
999.240
20
75.097
0
VERTEX
8
0
10
992.490
20
75.097
0
VERTEX
8
0
10
992.490
20
93.097
0
VERTEX
8
0
10
1072.490
20
93.097
0
VERTEX
8
0
10
1072.490
20
75.097
0
VERTEX
8
0
10
1065.740
20
75.097
0
VERTEX
8
0
10
1065.740
20
84.097
42
0.267949
0
VERTEX
8
0
10
1064.114963
20
86.911787
42
0.267949
0
VERTEX
8
0
10
1060.864963
20
86.911787
42
0.267949
0
VERTEX
8
0
10
1059.239963
20
84.097204
0
VERTEX
8
0
10
1059.240
20
75.097
0
VERTEX
8
0
10
1005.740
20
75.097
0
VERTEX
8
0
10
1005.740
20
84.097
42
0.267949
0
VERTEX
8
0
10
1004.114963
20
86.911787
42
0.267949
0
VERTEX
8
0
10
1000.864963
20
86.911787
42
0.268023
0
VERTEX
8
0
10
999.240282
20
84.096785
0
SEQEND
0
POLYLINE
70
1
62
7
8
0
66
1
0
VERTEX
8
0
10
1013.106
20
183.741
0
VERTEX
8
0
10
1045.106
20
183.741
0
VERTEX
8
0
10
1055.106
20
173.741
0
VERTEX
8
0
10
1055.106
20
141.741
0
VERTEX
8
0
10
1013.106
20
141.741
0
VERTEX
8
0
10
1013.106
20
183.741
0
SEQEND
0
POLYLINE
70
1
62
7
8
0
66
1
0
VERTEX
8
0
10
979.069
20
222.364
0
VERTEX
8
0
10
979.069
20
213.364
0
VERTEX
8
0
10
974.319
20
213.364
0
VERTEX
8
0
10
974.319
20
231.364
0
VERTEX
8
0
10
1064.319
20
231.364
0
VERTEX
8
0
10
1064.319
20
213.364
0
VERTEX
8
0
10
1059.569
20
213.364
0
VERTEX
8
0
10
1059.569
20
222.364
42
0.267949
0
VERTEX
8
0
10
1057.944139
20
225.178658
42
0.267949
0
VERTEX
8
0
10
1054.694139
20
225.178658
42
0.267949
0
VERTEX
8
0
10
1053.069139
20
222.364076
0
VERTEX
8
0
10
1053.069
20
213.364
0
VERTEX
8
0
10
985.569
20
213.364
0
VERTEX
8
0
10
985.569
20
222.364
42
0.267949
0
VERTEX
8
0
10
983.944139
20
225.178658
42
0.267949
0
VERTEX
8
0
10
980.694139
20
225.178658
42
0.267982
0
VERTEX
8
0
10
979.069282
20
222.363785
0
SEQEND
0
POLYLINE
70
1
62
7
8
0
66
1
0
VERTEX
8
0
10
991.309
20
254.618
0
VERTEX
8
0
10
991.309
20
245.618
0
VERTEX
8
0
10
984.559
20
245.618
0
VERTEX
8
0
10
984.559
20
263.618
0
VERTEX
8
0
10
1064.559
20
263.618
0
VERTEX
8
0
10
1064.559
20
245.618
0
VERTEX
8
0
10
1057.809
20
245.618
0
VERTEX
8
0
10
1057.809
20
254.618
42
0.267949
0
VERTEX
8
0
10
1056.183784
20
257.432137
42
0.267949
0
VERTEX
8
0
10
1052.933784
20
257.432137
42
0.267949
0
VERTEX
8
0
10
1051.308784
20
254.617554
0
VERTEX
8
0
10
1051.309
20
245.618
0
VERTEX
8
0
10
997.809
20
245.618
0
VERTEX
8
0
10
997.809
20
254.618
42
0.267949
0
VERTEX
8
0
10
996.183784
20
257.432137
42
0.267949
0
VERTEX
8
0
10
992.933784
20
257.432137
42
0.268064
0
VERTEX
8
0
10
991.309282
20
254.617785
0
SEQEND
0
POLYLINE
70
1
62
7
8
0
66
1
0
VERTEX
8
0
10
1005.175
20
354.262
0
VERTEX
8
0
10
1037.175
20
354.262
0
VERTEX
8
0
10
1047.175
20
344.262
0
VERTEX
8
0
10
1047.175
20
312.262
0
VERTEX
8
0
10
1005.175
20
312.262
0
VERTEX
8
0
10
1005.175
20
354.262
0
SEQEND
0
POLYLINE
70
1
62
7
8
0
66
1
0
VERTEX
8
0
10
832.342
20
259.376
0
VERTEX
8
0
10
832.342
20
250.376
0
VERTEX
8
0
10
827.592
20
250.376
0
VERTEX
8
0
10
827.592
20
268.376
0
VERTEX
8
0
10
917.592
20
268.376
0
VERTEX
8
0
10
917.592
20
250.376
0
VERTEX
8
0
10
912.842
20
250.376
0
VERTEX
8
0
10
912.842
20
259.376
42
0.267949
0
VERTEX
8
0
10
911.217326
20
262.190827
42
0.267949
0
VERTEX
8
0
10
907.967326
20
262.190827
42
0.267949
0
VERTEX
8
0
10
906.342326
20
259.376245
0
VERTEX
8
0
10
906.342
20
250.376
0
VERTEX
8
0
10
838.842
20
250.376
0
VERTEX
8
0
10
838.842
20
259.376
42
0.267949
0
VERTEX
8
0
10
837.217326
20
262.190827
42
0.267949
0
VERTEX
8
0
10
833.967326
20
262.190827
42
0.267939
0
VERTEX
8
0
10
832.342282
20
259.375785
0
SEQEND
0
POLYLINE
70
1
62
7
8
0
66
1
0
VERTEX
8
0
10
844.582
20
291.630
0
VERTEX
8
0
10
844.582
20
282.630
0
VERTEX
8
0
10
837.832
20
282.630
0
VERTEX
8
0
10
837.832
20
300.630
0
VERTEX
8
0
10
917.832
20
300.630
0
VERTEX
8
0
10
917.832
20
282.630
0
VERTEX
8
0
10
911.082
20
282.630
0
VERTEX
8
0
10
911.082
20
291.630
42
0.267949
0
VERTEX
8
0
10
909.456971
20
294.444306
42
0.267949
0
VERTEX
8
0
10
906.206971
20
294.444306
42
0.267949
0
VERTEX
8
0
10
904.581971
20
291.629723
0
VERTEX
8
0
10
904.582
20
282.630
0
VERTEX
8
0
10
851.082
20
282.630
0
VERTEX
8
0
10
851.082
20
291.630
42
0.267949
0
VERTEX
8
0
10
849.456971
20
294.444306
42
0.267949
0
VERTEX
8
0
10
846.206971
20
294.444306
42
0.268021
0
VERTEX
8
0
10
844.582282
20
291.629785
0
SEQEND
0
POLYLINE
70
1
62
7
8
0
66
1
0
VERTEX
8
0
10
858.448
20
391.274
0
VERTEX
8
0
10
890.448
20
391.274
0
VERTEX
8
0
10
900.448
20
381.274
0
VERTEX
8
0
10
900.448
20
349.274
0
VERTEX
8
0
10
858.448
20
349.274
0
VERTEX
8
0
10
858.448
20
391.274
0
SEQEND
0
POLYLINE
70
1
62
7
8
0
66
1
0
VERTEX
8
0
10
710.076
20
473.593
0
VERTEX
8
0
10
710.076
20
464.593
0
VERTEX
8
0
10
705.326
20
464.593
0
VERTEX
8
0
10
705.326
20
482.593
0
VERTEX
8
0
10
795.326
20
482.593
0
VERTEX
8
0
10
795.326
20
464.593
0
VERTEX
8
0
10
790.576
20
464.593
0
VERTEX
8
0
10
790.576
20
473.593
42
0.267949
0
VERTEX
8
0
10
788.950594
20
476.407635
42
0.267949
0
VERTEX
8
0
10
785.700594
20
476.407635
42
0.267949
0
VERTEX
8
0
10
784.075594
20
473.593052
0
VERTEX
8
0
10
784.076
20
464.593
0
VERTEX
8
0
10
716.576
20
464.593
0
VERTEX
8
0
10
716.576
20
473.593
42
0.267949
0
VERTEX
8
0
10
714.950594
20
476.407635
42
0.267949
0
VERTEX
8
0
10
711.700594
20
476.407635
42
0.267949
0
VERTEX
8
0
10
710.075594
20
473.593052
0
SEQEND
0
POLYLINE
70
1
62
7
8
0
66
1
0
VERTEX
8
0
10
722.316
20
505.846
0
VERTEX
8
0
10
722.316
20
496.846
0
VERTEX
8
0
10
715.566
20
496.846
0
VERTEX
8
0
10
715.566
20
514.846
0
VERTEX
8
0
10
795.566
20
514.846
0
VERTEX
8
0
10
795.566
20
496.846
0
VERTEX
8
0
10
788.816
20
496.846
0
VERTEX
8
0
10
788.816
20
505.846
42
0.267949
0
VERTEX
8
0
10
787.190239
20
508.661113
42
0.267949
0
VERTEX
8
0
10
783.940239
20
508.661113
42
0.267949
0
VERTEX
8
0
10
782.315239
20
505.846531
0
VERTEX
8
0
10
782.316
20
496.846
0
VERTEX
8
0
10
728.816
20
496.846
0
VERTEX
8
0
10
728.816
20
505.846
42
0.267949
0
VERTEX
8
0
10
727.190239
20
508.661113
42
0.267949
0
VERTEX
8
0
10
723.940239
20
508.661113
42
0.268031
0
VERTEX
8
0
10
722.315594
20
505.846052
0
SEQEND
0
POLYLINE
70
1
62
7
8
0
66
1
0
VERTEX
8
0
10
736.182
20
605.490
0
VERTEX
8
0
10
768.182
20
605.490
0
VERTEX
8
0
10
778.182
20
595.490
0
VERTEX
8
0
10
778.182
20
563.490
0
VERTEX
8
0
10
736.182
20
563.490
0
VERTEX
8
0
10
736.182
20
605.490
0
SEQEND
0
POLYLINE
70
1
62
7
8
0
66
1
0
VERTEX
8
0
10
992.311
20
555.944
42
0.198913
0
VERTEX
8
0
10
982.967530
20
578.500791
42
0.198913
0
VERTEX
8
0
10
960.410817
20
587.844229
42
0.198913
0
VERTEX
8
0
10
937.854104
20
578.500943
42
0.198913
0
VERTEX
8
0
10
928.510817
20
555.944229
42
0.198913
0
VERTEX
8
0
10
937.854104
20
533.387516
42
0.198913
0
VERTEX
8
0
10
960.410817
20
524.044229
42
0.198913
0
VERTEX
8
0
10
982.967531
20
533.387516
42
0.198916
0
VERTEX
8
0
10
992.310710
20
555.943971
0
SEQEND
0
POLYLINE
70
1
62
7
8
0
66
1
0
VERTEX
8
0
10
1297.531
20
622.582
42
-0.405145
0
VERTEX
8
0
10
1299.317229
20
625.568594
0
VERTEX
8
0
10
1300.284
20
625.827
42
0.202902
0
VERTEX
8
0
10
1301.820550
20
627.025708
42
0.202902
0
VERTEX
8
0
10
1302.030397
20
628.963168
42
0.116077
0
VERTEX
8
0
10
1282.788717
20
662.290736
42
0.202902
0
VERTEX
8
0
10
1281.005904
20
663.077732
42
0.202902
0
VERTEX
8
0
10
1279.199789
20
662.345794
0
VERTEX
8
0
10
1278.493
20
661.638
42
-0.405145
0
VERTEX
8
0
10
1275.012564
20
661.584303
42
0.115884
0
VERTEX
8
0
10
1244.115674
20
679.422630
42
-0.405145
0
VERTEX
8
0
10
1242.422589
20
682.463233
0
VERTEX
8
0
10
1242.682
20
683.429
42
0.202902
0
VERTEX
8
0
10
1242.412352
20
685.359730
42
0.202902
0
VERTEX
8
0
10
1240.839386
20
686.510193
42
0.116077
0
VERTEX
8
0
10
1202.356026
20
686.510193
42
0.202902
0
VERTEX
8
0
10
1200.783060
20
685.359730
42
0.202902
0
VERTEX
8
0
10
1200.513880
20
683.429619
0
VERTEX
8
0
10
1200.773
20
682.463
42
-0.405145
0
VERTEX
8
0
10
1199.079738
20
679.422630
42
0.115884
0
VERTEX
8
0
10
1168.182848
20
661.584303
42
-0.405145
0
VERTEX
8
0
10
1164.703066
20
661.638350
0
VERTEX
8
0
10
1163.996
20
662.345
42
0.202902
0
VERTEX
8
0
10
1162.189508
20
663.077732
42
0.202902
0
VERTEX
8
0
10
1160.406695
20
662.290736
42
0.116077
0
VERTEX
8
0
10
1141.165014
20
628.963168
42
0.202902
0
VERTEX
8
0
10
1141.374862
20
627.025708
42
0.202902
0
VERTEX
8
0
10
1142.911797
20
625.827536
0
VERTEX
8
0
10
1143.879
20
625.568
42
-0.405145
0
VERTEX
8
0
10
1145.664880
20
622.582038
42
0.115884
0
VERTEX
8
0
10
1145.664880
20
586.905383
42
-0.405145
0
VERTEX
8
0
10
1143.878183
20
583.918827
0
VERTEX
8
0
10
1142.912
20
583.659
42
0.202902
0
VERTEX
8
0
10
1141.374862
20
582.461712
42
0.202902
0
VERTEX
8
0
10
1141.165014
20
580.524253
42
0.116077
0
VERTEX
8
0
10
1160.406695
20
547.196685
42
0.202902
0
VERTEX
8
0
10
1162.189508
20
546.409688
42
0.202902
0
VERTEX
8
0
10
1163.995623
20
547.141627
0
VERTEX
8
0
10
1164.703
20
547.849
42
-0.405145
0
VERTEX
8
0
10
1168.182848
20
547.903118
42
0.115884
0
VERTEX
8
0
10
1199.079738
20
530.064790
42
-0.405145
0
VERTEX
8
0
10
1200.772823
20
527.024187
0
VERTEX
8
0
10
1200.514
20
526.057
42
0.202902
0
VERTEX
8
0
10
1200.783060
20
524.127690
42
0.202902
0
VERTEX
8
0
10
1202.356026
20
522.977227
42
0.116077
0
VERTEX
8
0
10
1240.839386
20
522.977227
42
0.202902
0
VERTEX
8
0
10
1242.412352
20
524.127690
42
0.202902
0
VERTEX
8
0
10
1242.681532
20
526.057801
0
VERTEX
8
0
10
1242.423
20
527.024
42
-0.405145
0
VERTEX
8
0
10
1244.115674
20
530.064790
42
0.115884
0
VERTEX
8
0
10
1275.012564
20
547.903118
42
-0.405145
0
VERTEX
8
0
10
1278.492345
20
547.849071
0
VERTEX
8
0
10
1279.200
20
547.141
42
0.202902
0
VERTEX
8
0
10
1281.005904
20
546.409688
42
0.202902
0
VERTEX
8
0
10
1282.788717
20
547.196685
42
0.116077
0
VERTEX
8
0
10
1302.030397
20
580.524253
42
0.202902
0
VERTEX
8
0
10
1301.820550
20
582.461712
42
0.202902
0
VERTEX
8
0
10
1300.283615
20
583.659884
0
VERTEX
8
0
10
1299.318
20
583.918
42
-0.405145
0
VERTEX
8
0
10
1297.530532
20
586.905383
42
0.115881
0
VERTEX
8
0
10
1297.530599
20
622.582452
0
SEQEND
0
POLYLINE
70
1
62
7
8
0
66
1
0
VERTEX
8
0
10
818.523
20
584.684
0
VERTEX
8
0
10
897.523
20
584.684
42
-0.198912
0
VERTEX
8
0
10
901.766208
20
582.927147
42
-0.198912
0
VERTEX
8
0
10
903.523567
20
578.684506
0
VERTEX
8
0
10
903.523
20
499.684
42
-0.198913
0
VERTEX
8
0
10
901.766102
20
495.441757
42
-0.198913
0
VERTEX
8
0
10
897.523567
20
493.684506
0
VERTEX
8
0
10
818.523
20
493.684
42
-0.198913
0
VERTEX
8
0
10
814.280818
20
495.441757
42
-0.198913
0
VERTEX
8
0
10
812.523567
20
499.684506
0
VERTEX
8
0
10
812.523
20
578.684
42
-0.198912
0
VERTEX
8
0
10
814.280926
20
582.927147
42
-0.198954
0
VERTEX
8
0
10
818.523460
20
584.684248
0
SEQEND
0
POLYLINE
70
1
62
7
8
0
66
1
0
VERTEX
8
0
10
725.114
20
641.645
0
VERTEX
8
0
10
725.114
20
632.645
0
VERTEX
8
0
10
720.364
20
632.645
0
VERTEX
8
0
10
720.364
20
650.645
0
VERTEX
8
0
10
810.364
20
650.645
0
VERTEX
8
0
10
810.364
20
632.645
0
VERTEX
8
0
10
805.614
20
632.645
0
VERTEX
8
0
10
805.614
20
641.645
42
0.267949
0
VERTEX
8
0
10
803.988867
20
644.459841
42
0.267949
0
VERTEX
8
0
10
800.738867
20
644.459841
42
0.267949
0
VERTEX
8
0
10
799.113867
20
641.645258
0
VERTEX
8
0
10
799.114
20
632.645
0
VERTEX
8
0
10
731.614
20
632.645
0
VERTEX
8
0
10
731.614
20
641.645
42
0.267949
0
VERTEX
8
0
10
729.988867
20
644.459841
42
0.267949
0
VERTEX
8
0
10
726.738867
20
644.459841
42
0.267886
0
VERTEX
8
0
10
725.113594
20
641.645052
0
SEQEND
0
POLYLINE
70
1
62
7
8
0
66
1
0
VERTEX
8
0
10
737.354
20
673.899
0
VERTEX
8
0
10
737.354
20
664.899
0
VERTEX
8
0
10
730.604
20
664.899
0
VERTEX
8
0
10
730.604
20
682.899
0
VERTEX
8
0
10
810.604
20
682.899
0
VERTEX
8
0
10
810.604
20
664.899
0
VERTEX
8
0
10
803.854
20
664.899
0
VERTEX
8
0
10
803.854
20
673.899
42
0.267949
0
VERTEX
8
0
10
802.228512
20
676.713319
42
0.267949
0
VERTEX
8
0
10
798.978512
20
676.713319
42
0.267949
0
VERTEX
8
0
10
797.353512
20
673.898737
0
VERTEX
8
0
10
797.354
20
664.899
0
VERTEX
8
0
10
743.854
20
664.899
0
VERTEX
8
0
10
743.854
20
673.899
42
0.267949
0
VERTEX
8
0
10
742.228512
20
676.713319
42
0.267949
0
VERTEX
8
0
10
738.978512
20
676.713319
42
0.267968
0
VERTEX
8
0
10
737.353594
20
673.899052
0
SEQEND
0
POLYLINE
70
1
62
7
8
0
66
1
0
VERTEX
8
0
10
751.220
20
773.543
0
VERTEX
8
0
10
783.220
20
773.543
0
VERTEX
8
0
10
793.220
20
763.543
0
VERTEX
8
0
10
793.220
20
731.543
0
VERTEX
8
0
10
751.220
20
731.543
0
VERTEX
8
0
10
751.220
20
773.543
0
SEQEND
0
POLYLINE
70
1
62
7
8
0
66
1
0
VERTEX
8
0
10
1017.246
20
489.631
0
VERTEX
8
0
10
1017.246
20
480.631
0
VERTEX
8
0
10
1012.496
20
480.631
0
VERTEX
8
0
10
1012.496
20
498.631
0
VERTEX
8
0
10
1102.496
20
498.631
0
VERTEX
8
0
10
1102.496
20
480.631
0
VERTEX
8
0
10
1097.746
20
480.631
0
VERTEX
8
0
10
1097.746
20
489.631
42
0.267949
0
VERTEX
8
0
10
1096.120630
20
492.445575
42
0.267949
0
VERTEX
8
0
10
1092.870630
20
492.445575
42
0.267949
0
VERTEX
8
0
10
1091.245630
20
489.630992
0
VERTEX
8
0
10
1091.246
20
480.631
0
VERTEX
8
0
10
1023.746
20
480.631
0
VERTEX
8
0
10
1023.746
20
489.631
42
0.267949
0
VERTEX
8
0
10
1022.120630
20
492.445575
42
0.267949
0
VERTEX
8
0
10
1018.870630
20
492.445575
42
0.267941
0
VERTEX
8
0
10
1017.245594
20
489.631052
0
SEQEND
0
POLYLINE
70
1
62
7
8
0
66
1
0
VERTEX
8
0
10
1029.486
20
521.884
0
VERTEX
8
0
10
1029.486
20
512.884
0
VERTEX
8
0
10
1022.736
20
512.884
0
VERTEX
8
0
10
1022.736
20
530.884
0
VERTEX
8
0
10
1102.736
20
530.884
0
VERTEX
8
0
10
1102.736
20
512.884
0
VERTEX
8
0
10
1095.986
20
512.884
0
VERTEX
8
0
10
1095.986
20
521.884
42
0.267949
0
VERTEX
8
0
10
1094.360275
20
524.699054
42
0.267949
0
VERTEX
8
0
10
1091.110275
20
524.699054
42
0.267949
0
VERTEX
8
0
10
1089.485275
20
521.884471
0
VERTEX
8
0
10
1089.486
20
512.884
0
VERTEX
8
0
10
1035.986
20
512.884
0
VERTEX
8
0
10
1035.986
20
521.884
42
0.267949
0
VERTEX
8
0
10
1034.360275
20
524.699054
42
0.267949
0
VERTEX
8
0
10
1031.110275
20
524.699054
42
0.268023
0
VERTEX
8
0
10
1029.485594
20
521.884052
0
SEQEND
0
POLYLINE
70
1
62
7
8
0
66
1
0
VERTEX
8
0
10
1043.352
20
621.528
0
VERTEX
8
0
10
1075.352
20
621.528
0
VERTEX
8
0
10
1085.352
20
611.528
0
VERTEX
8
0
10
1085.352
20
579.528
0
VERTEX
8
0
10
1043.352
20
579.528
0
VERTEX
8
0
10
1043.352
20
621.528
0
SEQEND
0
POLYLINE
70
1
62
7
8
0
66
1
0
VERTEX
8
0
10
1009.315
20
660.151
0
VERTEX
8
0
10
1009.315
20
651.151
0
VERTEX
8
0
10
1004.565
20
651.151
0
VERTEX
8
0
10
1004.565
20
669.151
0
VERTEX
8
0
10
1094.565
20
669.151
0
VERTEX
8
0
10
1094.565
20
651.151
0
VERTEX
8
0
10
1089.815
20
651.151
0
VERTEX
8
0
10
1089.815
20
660.151
42
0.267949
0
VERTEX
8
0
10
1088.189451
20
662.965925
42
0.267949
0
VERTEX
8
0
10
1084.939451
20
662.965925
42
0.267949
0
VERTEX
8
0
10
1083.314451
20
660.151343
0
VERTEX
8
0
10
1083.315
20
651.151
0
VERTEX
8
0
10
1015.815
20
651.151
0
VERTEX
8
0
10
1015.815
20
660.151
42
0.267949
0
VERTEX
8
0
10
1014.189451
20
662.965925
42
0.267949
0
VERTEX
8
0
10
1010.939451
20
662.965925
42
0.267982
0
VERTEX
8
0
10
1009.314594
20
660.151052
0
SEQEND
0
POLYLINE
70
1
62
7
8
0
66
1
0
VERTEX
8
0
10
1021.555
20
692.405
0
VERTEX
8
0
10
1021.555
20
683.405
0
VERTEX
8
0
10
1014.805
20
683.405
0
VERTEX
8
0
10
1014.805
20
701.405
0
VERTEX
8
0
10
1094.805
20
701.405
0
VERTEX
8
0
10
1094.805
20
683.405
0
VERTEX
8
0
10
1088.055
20
683.405
0
VERTEX
8
0
10
1088.055
20
692.405
42
0.267949
0
VERTEX
8
0
10
1086.429096
20
695.219404
42
0.267949
0
VERTEX
8
0
10
1083.179096
20
695.219404
42
0.267949
0
VERTEX
8
0
10
1081.554096
20
692.404821
0
VERTEX
8
0
10
1081.555
20
683.405
0
VERTEX
8
0
10
1028.055
20
683.405
0
VERTEX
8
0
10
1028.055
20
692.405
42
0.267949
0
VERTEX
8
0
10
1026.429096
20
695.219404
42
0.267949
0
VERTEX
8
0
10
1023.179096
20
695.219404
42
0.268064
0
VERTEX
8
0
10
1021.554594
20
692.405052
0
SEQEND
0
POLYLINE
70
1
62
7
8
0
66
1
0
VERTEX
8
0
10
1035.421
20
792.049
0
VERTEX
8
0
10
1067.421
20
792.049
0
VERTEX
8
0
10
1077.421
20
782.049
0
VERTEX
8
0
10
1077.421
20
750.049
0
VERTEX
8
0
10
1035.421
20
750.049
0
VERTEX
8
0
10
1035.421
20
792.049
0
SEQEND
0
POLYLINE
70
1
62
7
8
0
66
1
0
VERTEX
8
0
10
862.588
20
697.163
0
VERTEX
8
0
10
862.588
20
688.163
0
VERTEX
8
0
10
857.838
20
688.163
0
VERTEX
8
0
10
857.838
20
706.163
0
VERTEX
8
0
10
947.838
20
706.163
0
VERTEX
8
0
10
947.838
20
688.163
0
VERTEX
8
0
10
943.088
20
688.163
0
VERTEX
8
0
10
943.088
20
697.163
42
0.267949
0
VERTEX
8
0
10
941.462638
20
699.978094
42
0.267949
0
VERTEX
8
0
10
938.212638
20
699.978094
42
0.267949
0
VERTEX
8
0
10
936.587638
20
697.163512
0
VERTEX
8
0
10
936.588
20
688.163
0
VERTEX
8
0
10
869.088
20
688.163
0
VERTEX
8
0
10
869.088
20
697.163
42
0.267949
0
VERTEX
8
0
10
867.462638
20
699.978094
42
0.267949
0
VERTEX
8
0
10
864.212638
20
699.978094
42
0.267939
0
VERTEX
8
0
10
862.587594
20
697.163052
0
SEQEND
0
POLYLINE
70
1
62
7
8
0
66
1
0
VERTEX
8
0
10
874.828
20
729.417
0
VERTEX
8
0
10
874.828
20
720.417
0
VERTEX
8
0
10
868.078
20
720.417
0
VERTEX
8
0
10
868.078
20
738.417
0
VERTEX
8
0
10
948.078
20
738.417
0
VERTEX
8
0
10
948.078
20
720.417
0
VERTEX
8
0
10
941.328
20
720.417
0
VERTEX
8
0
10
941.328
20
729.417
42
0.267949
0
VERTEX
8
0
10
939.702283
20
732.231573
42
0.267949
0
VERTEX
8
0
10
936.452283
20
732.231573
42
0.267949
0
VERTEX
8
0
10
934.827283
20
729.416990
0
VERTEX
8
0
10
934.828
20
720.417
0
VERTEX
8
0
10
881.328
20
720.417
0
VERTEX
8
0
10
881.328
20
729.417
42
0.267949
0
VERTEX
8
0
10
879.702283
20
732.231573
42
0.267949
0
VERTEX
8
0
10
876.452283
20
732.231573
42
0.268021
0
VERTEX
8
0
10
874.827594
20
729.417052
0
SEQEND
0
POLYLINE
70
1
62
7
8
0
66
1
0
VERTEX
8
0
10
888.694
20
829.061
0
VERTEX
8
0
10
920.694
20
829.061
0
VERTEX
8
0
10
930.694
20
819.061
0
VERTEX
8
0
10
930.694
20
787.061
0
VERTEX
8
0
10
888.694
20
787.061
0
VERTEX
8
0
10
888.694
20
829.061
0
SEQEND
0
POLYLINE
70
1
62
7
8
0
66
1
0
VERTEX
8
0
10
75.336
20
835.042
0
VERTEX
8
0
10
75.336
20
826.042
0
VERTEX
8
0
10
70.586
20
826.042
0
VERTEX
8
0
10
70.586
20
844.042
0
VERTEX
8
0
10
160.586
20
844.042
0
VERTEX
8
0
10
160.586
20
826.042
0
VERTEX
8
0
10
155.836
20
826.042
0
VERTEX
8
0
10
155.836
20
835.042
42
0.267949
0
VERTEX
8
0
10
154.211274
20
837.856415
42
0.267949
0
VERTEX
8
0
10
150.961274
20
837.856415
42
0.267949
0
VERTEX
8
0
10
149.336274
20
835.041832
0
VERTEX
8
0
10
149.336
20
826.042
0
VERTEX
8
0
10
81.836
20
826.042
0
VERTEX
8
0
10
81.836
20
835.042
42
0.267949
0
VERTEX
8
0
10
80.211274
20
837.856415
42
0.267949
0
VERTEX
8
0
10
76.961274
20
837.856415
42
0.267949
0
VERTEX
8
0
10
75.336274
20
835.041832
0
SEQEND
0
POLYLINE
70
1
62
7
8
0
66
1
0
VERTEX
8
0
10
87.576
20
867.295
0
VERTEX
8
0
10
87.576
20
858.295
0
VERTEX
8
0
10
80.826
20
858.295
0
VERTEX
8
0
10
80.826
20
876.295
0
VERTEX
8
0
10
160.826
20
876.295
0
VERTEX
8
0
10
160.826
20
858.295
0
VERTEX
8
0
10
154.076
20
858.295
0
VERTEX
8
0
10
154.076
20
867.295
42
0.267949
0
VERTEX
8
0
10
152.450919
20
870.109893
42
0.267949
0
VERTEX
8
0
10
149.200919
20
870.109893
42
0.267949
0
VERTEX
8
0
10
147.575919
20
867.295311
0
VERTEX
8
0
10
147.576
20
858.295
0
VERTEX
8
0
10
94.076
20
858.295
0
VERTEX
8
0
10
94.076
20
867.295
42
0.267949
0
VERTEX
8
0
10
92.450919
20
870.109893
42
0.267949
0
VERTEX
8
0
10
89.200919
20
870.109893
42
0.268031
0
VERTEX
8
0
10
87.576274
20
867.294832
0
SEQEND
0
POLYLINE
70
1
62
7
8
0
66
1
0
VERTEX
8
0
10
101.442
20
966.939
0
VERTEX
8
0
10
133.442
20
966.939
0
VERTEX
8
0
10
143.442
20
956.939
0
VERTEX
8
0
10
143.442
20
924.939
0
VERTEX
8
0
10
101.442
20
924.939
0
VERTEX
8
0
10
101.442
20
966.939
0
SEQEND
0
POLYLINE
70
1
62
7
8
0
66
1
0
VERTEX
8
0
10
357.571
20
917.393
42
0.198913
0
VERTEX
8
0
10
348.228210
20
939.949571
42
0.198913
0
VERTEX
8
0
10
325.671497
20
949.293009
42
0.198913
0
VERTEX
8
0
10
303.114784
20
939.949722
42
0.198913
0
VERTEX
8
0
10
293.771497
20
917.393009
42
0.198913
0
VERTEX
8
0
10
303.114784
20
894.836296
42
0.198913
0
VERTEX
8
0
10
325.671497
20
885.493009
42
0.198913
0
VERTEX
8
0
10
348.228210
20
894.836296
42
0.198916
0
VERTEX
8
0
10
357.571390
20
917.392751
0
SEQEND
0
POLYLINE
70
1
62
7
8
0
66
1
0
VERTEX
8
0
10
662.791
20
984.031
42
-0.405145
0
VERTEX
8
0
10
664.577908
20
987.017373
0
VERTEX
8
0
10
665.544
20
987.276
42
0.202902
0
VERTEX
8
0
10
667.081229
20
988.474487
42
0.202902
0
VERTEX
8
0
10
667.291076
20
990.411947
42
0.116077
0
VERTEX
8
0
10
648.049396
20
1023.739515
42
0.202902
0
VERTEX
8
0
10
646.266583
20
1024.526511
42
0.202902
0
VERTEX
8
0
10
644.460468
20
1023.794573
0
VERTEX
8
0
10
643.753
20
1023.087
42
-0.405145
0
VERTEX
8
0
10
640.273243
20
1023.033082
42
0.115884
0
VERTEX
8
0
10
609.376353
20
1040.871409
42
-0.405145
0
VERTEX
8
0
10
607.683268
20
1043.912012
0
VERTEX
8
0
10
607.942
20
1044.878
42
0.202902
0
VERTEX
8
0
10
607.673031
20
1046.808509
42
0.202902
0
VERTEX
8
0
10
606.100065
20
1047.958972
42
0.116077
0
VERTEX
8
0
10
567.616705
20
1047.958972
42
0.202902
0
VERTEX
8
0
10
566.043739
20
1046.808509
42
0.202902
0
VERTEX
8
0
10
565.774559
20
1044.878398
0
VERTEX
8
0
10
566.033
20
1043.912
42
-0.405145
0
VERTEX
8
0
10
564.340417
20
1040.871409
42
0.115884
0
VERTEX
8
0
10
533.443527
20
1023.033082
42
-0.405145
0
VERTEX
8
0
10
529.963745
20
1023.087129
0
VERTEX
8
0
10
529.256
20
1023.794
42
0.202902
0
VERTEX
8
0
10
527.450187
20
1024.526511
42
0.202902
0
VERTEX
8
0
10
525.667374
20
1023.739515
42
0.116077
0
VERTEX
8
0
10
506.425693
20
990.411947
42
0.202902
0
VERTEX
8
0
10
506.635541
20
988.474487
42
0.202902
0
VERTEX
8
0
10
508.172476
20
987.276315
0
VERTEX
8
0
10
509.139
20
987.017
42
-0.405145
0
VERTEX
8
0
10
510.925559
20
984.030817
42
0.115884
0
VERTEX
8
0
10
510.925559
20
948.354162
42
-0.405145
0
VERTEX
8
0
10
509.138862
20
945.367606
0
VERTEX
8
0
10
508.172
20
945.108
42
0.202902
0
VERTEX
8
0
10
506.635541
20
943.910491
42
0.202902
0
VERTEX
8
0
10
506.425693
20
941.973032
42
0.116077
0
VERTEX
8
0
10
525.667374
20
908.645464
42
0.202902
0
VERTEX
8
0
10
527.450187
20
907.858467
42
0.202902
0
VERTEX
8
0
10
529.256302
20
908.590406
0
VERTEX
8
0
10
529.963
20
909.298
42
-0.405145
0
VERTEX
8
0
10
533.443527
20
909.351897
42
0.115884
0
VERTEX
8
0
10
564.340417
20
891.513569
42
-0.405145
0
VERTEX
8
0
10
566.033502
20
888.472966
0
VERTEX
8
0
10
565.774
20
887.506
42
0.202902
0
VERTEX
8
0
10
566.043739
20
885.576469
42
0.202902
0
VERTEX
8
0
10
567.616705
20
884.426006
42
0.116077
0
VERTEX
8
0
10
606.100065
20
884.426006
42
0.202902
0
VERTEX
8
0
10
607.673031
20
885.576469
42
0.202902
0
VERTEX
8
0
10
607.942211
20
887.506580
0
VERTEX
8
0
10
607.683
20
888.473
42
-0.405145
0
VERTEX
8
0
10
609.376353
20
891.513569
42
0.115884
0
VERTEX
8
0
10
640.273243
20
909.351897
42
-0.405145
0
VERTEX
8
0
10
643.753024
20
909.297850
0
VERTEX
8
0
10
644.460
20
908.590
42
0.202902
0
VERTEX
8
0
10
646.266583
20
907.858467
42
0.202902
0
VERTEX
8
0
10
648.049396
20
908.645464
42
0.116077
0
VERTEX
8
0
10
667.291076
20
941.973032
42
0.202902
0
VERTEX
8
0
10
667.081229
20
943.910491
42
0.202902
0
VERTEX
8
0
10
665.544294
20
945.108663
0
VERTEX
8
0
10
664.578
20
945.367
42
-0.405145
0
VERTEX
8
0
10
662.791211
20
948.354162
42
0.115881
0
VERTEX
8
0
10
662.791278
20
984.031231
0
SEQEND
0
POLYLINE
70
1
62
7
8
0
66
1
0
VERTEX
8
0
10
183.784
20
946.133
0
VERTEX
8
0
10
262.784
20
946.133
42
-0.198912
0
VERTEX
8
0
10
267.026887
20
944.375926
42
-0.198912
0
VERTEX
8
0
10
268.784246
20
940.133285
0
VERTEX
8
0
10
268.784
20
861.133
42
-0.198913
0
VERTEX
8
0
10
267.026781
20
856.890536
42
-0.198913
0
VERTEX
8
0
10
262.784246
20
855.133285
0
VERTEX
8
0
10
183.784
20
855.133
42
-0.198913
0
VERTEX
8
0
10
179.541497
20
856.890536
42
-0.198913
0
VERTEX
8
0
10
177.784246
20
861.133285
0
VERTEX
8
0
10
177.784
20
940.133
42
-0.198912
0
VERTEX
8
0
10
179.541605
20
944.375926
42
-0.198954
0
VERTEX
8
0
10
183.784139
20
946.133027
0
SEQEND
0
POLYLINE
70
1
62
7
8
0
66
1
0
VERTEX
8
0
10
90.374
20
1003.094
0
VERTEX
8
0
10
90.374
20
994.094
0
VERTEX
8
0
10
85.624
20
994.094
0
VERTEX
8
0
10
85.624
20
1012.094
0
VERTEX
8
0
10
175.624
20
1012.094
0
VERTEX
8
0
10
175.624
20
994.094
0
VERTEX
8
0
10
170.874
20
994.094
0
VERTEX
8
0
10
170.874
20
1003.094
42
0.267949
0
VERTEX
8
0
10
169.249547
20
1005.908621
42
0.267949
0
VERTEX
8
0
10
165.999547
20
1005.908621
42
0.267949
0
VERTEX
8
0
10
164.374547
20
1003.094038
0
VERTEX
8
0
10
164.374
20
994.094
0
VERTEX
8
0
10
96.874
20
994.094
0
VERTEX
8
0
10
96.874
20
1003.094
42
0.267949
0
VERTEX
8
0
10
95.249547
20
1005.908621
42
0.267949
0
VERTEX
8
0
10
91.999547
20
1005.908621
42
0.267886
0
VERTEX
8
0
10
90.374274
20
1003.093832
0
SEQEND
0
POLYLINE
70
1
62
7
8
0
66
1
0
VERTEX
8
0
10
102.614
20
1035.348
0
VERTEX
8
0
10
102.614
20
1026.348
0
VERTEX
8
0
10
95.864
20
1026.348
0
VERTEX
8
0
10
95.864
20
1044.348
0
VERTEX
8
0
10
175.864
20
1044.348
0
VERTEX
8
0
10
175.864
20
1026.348
0
VERTEX
8
0
10
169.114
20
1026.348
0
VERTEX
8
0
10
169.114
20
1035.348
42
0.267949
0
VERTEX
8
0
10
167.489192
20
1038.162099
42
0.267949
0
VERTEX
8
0
10
164.239192
20
1038.162099
42
0.267949
0
VERTEX
8
0
10
162.614192
20
1035.347517
0
VERTEX
8
0
10
162.614
20
1026.348
0
VERTEX
8
0
10
109.114
20
1026.348
0
VERTEX
8
0
10
109.114
20
1035.348
42
0.267949
0
VERTEX
8
0
10
107.489192
20
1038.162099
42
0.267949
0
VERTEX
8
0
10
104.239192
20
1038.162099
42
0.267968
0
VERTEX
8
0
10
102.614274
20
1035.347832
0
SEQEND
0
POLYLINE
70
1
62
7
8
0
66
1
0
VERTEX
8
0
10
116.480
20
1134.992
0
VERTEX
8
0
10
148.480
20
1134.992
0
VERTEX
8
0
10
158.480
20
1124.992
0
VERTEX
8
0
10
158.480
20
1092.992
0
VERTEX
8
0
10
116.480
20
1092.992
0
VERTEX
8
0
10
116.480
20
1134.992
0
SEQEND
0
POLYLINE
70
1
62
7
8
0
66
1
0
VERTEX
8
0
10
382.506
20
851.080
0
VERTEX
8
0
10
382.506
20
842.080
0
VERTEX
8
0
10
377.756
20
842.080
0
VERTEX
8
0
10
377.756
20
860.080
0
VERTEX
8
0
10
467.756
20
860.080
0
VERTEX
8
0
10
467.756
20
842.080
0
VERTEX
8
0
10
463.006
20
842.080
0
VERTEX
8
0
10
463.006
20
851.080
42
0.267949
0
VERTEX
8
0
10
461.381310
20
853.894355
42
0.267949
0
VERTEX
8
0
10
458.131310
20
853.894355
42
0.267949
0
VERTEX
8
0
10
456.506310
20
851.079772
0
VERTEX
8
0
10
456.506
20
842.080
0
VERTEX
8
0
10
389.006
20
842.080
0
VERTEX
8
0
10
389.006
20
851.080
42
0.267949
0
VERTEX
8
0
10
387.381310
20
853.894355
42
0.267949
0
VERTEX
8
0
10
384.131310
20
853.894355
42
0.267941
0
VERTEX
8
0
10
382.506274
20
851.079832
0
SEQEND
0
POLYLINE
70
1
62
7
8
0
66
1
0
VERTEX
8
0
10
394.746
20
883.333
0
VERTEX
8
0
10
394.746
20
874.333
0
VERTEX
8
0
10
387.996
20
874.333
0
VERTEX
8
0
10
387.996
20
892.333
0
VERTEX
8
0
10
467.996
20
892.333
0
VERTEX
8
0
10
467.996
20
874.333
0
VERTEX
8
0
10
461.246
20
874.333
0
VERTEX
8
0
10
461.246
20
883.333
42
0.267949
0
VERTEX
8
0
10
459.620955
20
886.147834
42
0.267949
0
VERTEX
8
0
10
456.370955
20
886.147834
42
0.267949
0
VERTEX
8
0
10
454.745955
20
883.333251
0
VERTEX
8
0
10
454.746
20
874.333
0
VERTEX
8
0
10
401.246
20
874.333
0
VERTEX
8
0
10
401.246
20
883.333
42
0.267949
0
VERTEX
8
0
10
399.620955
20
886.147834
42
0.267949
0
VERTEX
8
0
10
396.370955
20
886.147834
42
0.268023
0
VERTEX
8
0
10
394.746274
20
883.332832
0
SEQEND
0
POLYLINE
70
1
62
7
8
0
66
1
0
VERTEX
8
0
10
408.612
20
982.977
0
VERTEX
8
0
10
440.612
20
982.977
0
VERTEX
8
0
10
450.612
20
972.977
0
VERTEX
8
0
10
450.612
20
940.977
0
VERTEX
8
0
10
408.612
20
940.977
0
VERTEX
8
0
10
408.612
20
982.977
0
SEQEND
0
POLYLINE
70
1
62
7
8
0
66
1
0
VERTEX
8
0
10
374.575
20
1021.600
0
VERTEX
8
0
10
374.575
20
1012.600
0
VERTEX
8
0
10
369.825
20
1012.600
0
VERTEX
8
0
10
369.825
20
1030.600
0
VERTEX
8
0
10
459.825
20
1030.600
0
VERTEX
8
0
10
459.825
20
1012.600
0
VERTEX
8
0
10
455.075
20
1012.600
0
VERTEX
8
0
10
455.075
20
1021.600
42
0.267949
0
VERTEX
8
0
10
453.450131
20
1024.414705
42
0.267949
0
VERTEX
8
0
10
450.200131
20
1024.414705
42
0.267949
0
VERTEX
8
0
10
448.575131
20
1021.600123
0
VERTEX
8
0
10
448.575
20
1012.600
0
VERTEX
8
0
10
381.075
20
1012.600
0
VERTEX
8
0
10
381.075
20
1021.600
42
0.267949
0
VERTEX
8
0
10
379.450131
20
1024.414705
42
0.267949
0
VERTEX
8
0
10
376.200131
20
1024.414705
42
0.267982
0
VERTEX
8
0
10
374.575274
20
1021.599832
0
SEQEND
0
POLYLINE
70
1
62
7
8
0
66
1
0
VERTEX
8
0
10
386.815
20
1053.854
0
VERTEX
8
0
10
386.815
20
1044.854
0
VERTEX
8
0
10
380.065
20
1044.854
0
VERTEX
8
0
10
380.065
20
1062.854
0
VERTEX
8
0
10
460.065
20
1062.854
0
VERTEX
8
0
10
460.065
20
1044.854
0
VERTEX
8
0
10
453.315
20
1044.854
0
VERTEX
8
0
10
453.315
20
1053.854
42
0.267949
0
VERTEX
8
0
10
451.689776
20
1056.668184
42
0.267949
0
VERTEX
8
0
10
448.439776
20
1056.668184
42
0.267949
0
VERTEX
8
0
10
446.814776
20
1053.853601
0
VERTEX
8
0
10
446.815
20
1044.854
0
VERTEX
8
0
10
393.315
20
1044.854
0
VERTEX
8
0
10
393.315
20
1053.854
42
0.267949
0
VERTEX
8
0
10
391.689776
20
1056.668184
42
0.267949
0
VERTEX
8
0
10
388.439776
20
1056.668184
42
0.268064
0
VERTEX
8
0
10
386.815274
20
1053.853832
0
SEQEND
0
POLYLINE
70
1
62
7
8
0
66
1
0
VERTEX
8
0
10
400.681
20
1153.498
0
VERTEX
8
0
10
432.681
20
1153.498
0
VERTEX
8
0
10
442.681
20
1143.498
0
VERTEX
8
0
10
442.681
20
1111.498
0
VERTEX
8
0
10
400.681
20
1111.498
0
VERTEX
8
0
10
400.681
20
1153.498
0
SEQEND
0
POLYLINE
70
1
62
7
8
0
66
1
0
VERTEX
8
0
10
227.848
20
1058.612
0
VERTEX
8
0
10
227.848
20
1049.612
0
VERTEX
8
0
10
223.098
20
1049.612
0
VERTEX
8
0
10
223.098
20
1067.612
0
VERTEX
8
0
10
313.098
20
1067.612
0
VERTEX
8
0
10
313.098
20
1049.612
0
VERTEX
8
0
10
308.348
20
1049.612
0
VERTEX
8
0
10
308.348
20
1058.612
42
0.267949
0
VERTEX
8
0
10
306.723318
20
1061.426874
42
0.267949
0
VERTEX
8
0
10
303.473318
20
1061.426874
42
0.267949
0
VERTEX
8
0
10
301.848318
20
1058.612292
0
VERTEX
8
0
10
301.848
20
1049.612
0
VERTEX
8
0
10
234.348
20
1049.612
0
VERTEX
8
0
10
234.348
20
1058.612
42
0.267949
0
VERTEX
8
0
10
232.723318
20
1061.426874
42
0.267949
0
VERTEX
8
0
10
229.473318
20
1061.426874
42
0.267939
0
VERTEX
8
0
10
227.848274
20
1058.611832
0
SEQEND
0
POLYLINE
70
1
62
7
8
0
66
1
0
VERTEX
8
0
10
240.088
20
1090.866
0
VERTEX
8
0
10
240.088
20
1081.866
0
VERTEX
8
0
10
233.338
20
1081.866
0
VERTEX
8
0
10
233.338
20
1099.866
0
VERTEX
8
0
10
313.338
20
1099.866
0
VERTEX
8
0
10
313.338
20
1081.866
0
VERTEX
8
0
10
306.588
20
1081.866
0
VERTEX
8
0
10
306.588
20
1090.866
42
0.267949
0
VERTEX
8
0
10
304.962963
20
1093.680353
42
0.267949
0
VERTEX
8
0
10
301.712963
20
1093.680353
42
0.267949
0
VERTEX
8
0
10
300.087963
20
1090.865770
0
VERTEX
8
0
10
300.088
20
1081.866
0
VERTEX
8
0
10
246.588
20
1081.866
0
VERTEX
8
0
10
246.588
20
1090.866
42
0.267949
0
VERTEX
8
0
10
244.962963
20
1093.680353
42
0.267949
0
VERTEX
8
0
10
241.712963
20
1093.680353
42
0.268021
0
VERTEX
8
0
10
240.088274
20
1090.865832
0
SEQEND
0
POLYLINE
70
1
62
7
8
0
66
1
0
VERTEX
8
0
10
253.954
20
1190.510
0
VERTEX
8
0
10
285.954
20
1190.510
0
VERTEX
8
0
10
295.954
20
1180.510
0
VERTEX
8
0
10
295.954
20
1148.510
0
VERTEX
8
0
10
253.954
20
1148.510
0
VERTEX
8
0
10
253.954
20
1190.510
0
SEQEND
0
POLYLINE
70
1
62
7
8
0
66
1
0
VERTEX
8
0
10
750.751
20
892.994
0
VERTEX
8
0
10
750.751
20
883.994
0
VERTEX
8
0
10
746.001
20
883.994
0
VERTEX
8
0
10
746.001
20
901.994
0
VERTEX
8
0
10
836.001
20
901.994
0
VERTEX
8
0
10
836.001
20
883.994
0
VERTEX
8
0
10
831.251
20
883.994
0
VERTEX
8
0
10
831.251
20
892.994
42
0.267949
0
VERTEX
8
0
10
829.626021
20
895.808841
42
0.267949
0
VERTEX
8
0
10
826.376021
20
895.808841
42
0.267949
0
VERTEX
8
0
10
824.751021
20
892.994258
0
VERTEX
8
0
10
824.751
20
883.994
0
VERTEX
8
0
10
757.251
20
883.994
0
VERTEX
8
0
10
757.251
20
892.994
42
0.267949
0
VERTEX
8
0
10
755.626021
20
895.808841
42
0.267949
0
VERTEX
8
0
10
752.376021
20
895.808841
42
0.267949
0
VERTEX
8
0
10
750.751021
20
892.994258
0
SEQEND
0
POLYLINE
70
1
62
7
8
0
66
1
0
VERTEX
8
0
10
762.991
20
925.247
0
VERTEX
8
0
10
762.991
20
916.247
0
VERTEX
8
0
10
756.241
20
916.247
0
VERTEX
8
0
10
756.241
20
934.247
0
VERTEX
8
0
10
836.241
20
934.247
0
VERTEX
8
0
10
836.241
20
916.247
0
VERTEX
8
0
10
829.491
20
916.247
0
VERTEX
8
0
10
829.491
20
925.247
42
0.267949
0
VERTEX
8
0
10
827.865666
20
928.062319
42
0.267949
0
VERTEX
8
0
10
824.615666
20
928.062319
42
0.267949
0
VERTEX
8
0
10
822.990666
20
925.247737
0
VERTEX
8
0
10
822.991
20
916.247
0
VERTEX
8
0
10
769.491
20
916.247
0
VERTEX
8
0
10
769.491
20
925.247
42
0.267949
0
VERTEX
8
0
10
767.865666
20
928.062319
42
0.267949
0
VERTEX
8
0
10
764.615666
20
928.062319
42
0.268031
0
VERTEX
8
0
10
762.991021
20
925.247258
0
SEQEND
0
POLYLINE
70
1
62
7
8
0
66
1
0
VERTEX
8
0
10
776.857
20
1024.891
0
VERTEX
8
0
10
808.857
20
1024.891
0
VERTEX
8
0
10
818.857
20
1014.891
0
VERTEX
8
0
10
818.857
20
982.891
0
VERTEX
8
0
10
776.857
20
982.891
0
VERTEX
8
0
10
776.857
20
1024.891
0
SEQEND
0
POLYLINE
70
1
62
7
8
0
66
1
0
VERTEX
8
0
10
1032.986
20
975.345
42
0.198913
0
VERTEX
8
0
10
1023.642957
20
997.901998
42
0.198913
0
VERTEX
8
0
10
1001.086244
20
1007.245436
42
0.198913
0
VERTEX
8
0
10
978.529531
20
997.902149
42
0.198913
0
VERTEX
8
0
10
969.186244
20
975.345436
42
0.198913
0
VERTEX
8
0
10
978.529531
20
952.788722
42
0.198913
0
VERTEX
8
0
10
1001.086244
20
943.445436
42
0.198913
0
VERTEX
8
0
10
1023.642957
20
952.788722
42
0.198916
0
VERTEX
8
0
10
1032.986137
20
975.345178
0
SEQEND
0
POLYLINE
70
1
62
7
8
0
66
1
0
VERTEX
8
0
10
1338.206
20
1041.984
42
-0.405145
0
VERTEX
8
0
10
1339.992655
20
1044.969800
0
VERTEX
8
0
10
1340.959
20
1045.229
42
0.202902
0
VERTEX
8
0
10
1342.495976
20
1046.426914
42
0.202902
0
VERTEX
8
0
10
1342.705823
20
1048.364374
42
0.116077
0
VERTEX
8
0
10
1323.464143
20
1081.691942
42
0.202902
0
VERTEX
8
0
10
1321.681330
20
1082.478938
42
0.202902
0
VERTEX
8
0
10
1319.875215
20
1081.747000
0
VERTEX
8
0
10
1319.168
20
1081.040
42
-0.405145
0
VERTEX
8
0
10
1315.687990
20
1080.985509
42
0.115884
0
VERTEX
8
0
10
1284.791100
20
1098.823836
42
-0.405145
0
VERTEX
8
0
10
1283.098015
20
1101.864439
0
VERTEX
8
0
10
1283.357
20
1102.831
42
0.202902
0
VERTEX
8
0
10
1283.087778
20
1104.760936
42
0.202902
0
VERTEX
8
0
10
1281.514812
20
1105.911399
42
0.116077
0
VERTEX
8
0
10
1243.031452
20
1105.911399
42
0.202902
0
VERTEX
8
0
10
1241.458486
20
1104.760936
42
0.202902
0
VERTEX
8
0
10
1241.189306
20
1102.830825
0
VERTEX
8
0
10
1241.448
20
1101.865
42
-0.405145
0
VERTEX
8
0
10
1239.755164
20
1098.823836
42
0.115884
0
VERTEX
8
0
10
1208.858274
20
1080.985509
42
-0.405145
0
VERTEX
8
0
10
1205.378492
20
1081.039556
0
VERTEX
8
0
10
1204.671
20
1081.747
42
0.202902
0
VERTEX
8
0
10
1202.864934
20
1082.478938
42
0.202902
0
VERTEX
8
0
10
1201.082121
20
1081.691942
42
0.116077
0
VERTEX
8
0
10
1181.840440
20
1048.364374
42
0.202902
0
VERTEX
8
0
10
1182.050288
20
1046.426914
42
0.202902
0
VERTEX
8
0
10
1183.587223
20
1045.228742
0
VERTEX
8
0
10
1184.554
20
1044.970
42
-0.405145
0
VERTEX
8
0
10
1186.340306
20
1041.983244
42
0.115884
0
VERTEX
8
0
10
1186.340306
20
1006.306589
42
-0.405145
0
VERTEX
8
0
10
1184.553609
20
1003.320033
0
VERTEX
8
0
10
1183.587
20
1003.061
42
0.202902
0
VERTEX
8
0
10
1182.050288
20
1001.862918
42
0.202902
0
VERTEX
8
0
10
1181.840440
20
999.925459
42
0.116077
0
VERTEX
8
0
10
1201.082121
20
966.597891
42
0.202902
0
VERTEX
8
0
10
1202.864934
20
965.810894
42
0.202902
0
VERTEX
8
0
10
1204.671049
20
966.542833
0
VERTEX
8
0
10
1205.378
20
967.251
42
-0.405145
0
VERTEX
8
0
10
1208.858274
20
967.304324
42
0.115884
0
VERTEX
8
0
10
1239.755164
20
949.465996
42
-0.405145
0
VERTEX
8
0
10
1241.448249
20
946.425393
0
VERTEX
8
0
10
1241.189
20
945.459
42
0.202902
0
VERTEX
8
0
10
1241.458486
20
943.528896
42
0.202902
0
VERTEX
8
0
10
1243.031452
20
942.378433
42
0.116077
0
VERTEX
8
0
10
1281.514812
20
942.378433
42
0.202902
0
VERTEX
8
0
10
1283.087778
20
943.528896
42
0.202902
0
VERTEX
8
0
10
1283.356958
20
945.459007
0
VERTEX
8
0
10
1283.098
20
946.426
42
-0.405145
0
VERTEX
8
0
10
1284.791100
20
949.465996
42
0.115884
0
VERTEX
8
0
10
1315.687990
20
967.304324
42
-0.405145
0
VERTEX
8
0
10
1319.167771
20
967.250277
0
VERTEX
8
0
10
1319.875
20
966.543
42
0.202902
0
VERTEX
8
0
10
1321.681330
20
965.810894
42
0.202902
0
VERTEX
8
0
10
1323.464143
20
966.597891
42
0.116077
0
VERTEX
8
0
10
1342.705823
20
999.925459
42
0.202902
0
VERTEX
8
0
10
1342.495976
20
1001.862918
42
0.202902
0
VERTEX
8
0
10
1340.959041
20
1003.061090
0
VERTEX
8
0
10
1339.993
20
1003.320
42
-0.405145
0
VERTEX
8
0
10
1338.205958
20
1006.306589
42
0.115881
0
VERTEX
8
0
10
1338.206025
20
1041.983658
0
SEQEND
0
POLYLINE
70
1
62
7
8
0
66
1
0
VERTEX
8
0
10
859.199
20
1004.085
0
VERTEX
8
0
10
938.199
20
1004.085
42
-0.198912
0
VERTEX
8
0
10
942.441635
20
1002.328353
42
-0.198912
0
VERTEX
8
0
10
944.198994
20
998.085712
0
VERTEX
8
0
10
944.199
20
919.085
42
-0.198913
0
VERTEX
8
0
10
942.441529
20
914.842963
42
-0.198913
0
VERTEX
8
0
10
938.198994
20
913.085712
0
VERTEX
8
0
10
859.199
20
913.085
42
-0.198913
0
VERTEX
8
0
10
854.956245
20
914.842963
42
-0.198913
0
VERTEX
8
0
10
853.198994
20
919.085712
0
VERTEX
8
0
10
853.199
20
998.085
42
-0.198912
0
VERTEX
8
0
10
854.956353
20
1002.328353
42
-0.198954
0
VERTEX
8
0
10
859.198887
20
1004.085454
0
SEQEND
0
POLYLINE
70
1
62
7
8
0
66
1
0
VERTEX
8
0
10
765.789
20
1061.046
0
VERTEX
8
0
10
765.789
20
1052.046
0
VERTEX
8
0
10
761.039
20
1052.046
0
VERTEX
8
0
10
761.039
20
1070.046
0
VERTEX
8
0
10
851.039
20
1070.046
0
VERTEX
8
0
10
851.039
20
1052.046
0
VERTEX
8
0
10
846.289
20
1052.046
0
VERTEX
8
0
10
846.289
20
1061.046
42
0.267949
0
VERTEX
8
0
10
844.664294
20
1063.861047
42
0.267949
0
VERTEX
8
0
10
841.414294
20
1063.861047
42
0.267949
0
VERTEX
8
0
10
839.789294
20
1061.046464
0
VERTEX
8
0
10
839.789
20
1052.046
0
VERTEX
8
0
10
772.289
20
1052.046
0
VERTEX
8
0
10
772.289
20
1061.046
42
0.267949
0
VERTEX
8
0
10
770.664294
20
1063.861047
42
0.267949
0
VERTEX
8
0
10
767.414294
20
1063.861047
42
0.267886
0
VERTEX
8
0
10
765.789021
20
1061.046258
0
SEQEND
0
POLYLINE
70
1
62
7
8
0
66
1
0
VERTEX
8
0
10
778.029
20
1093.300
0
VERTEX
8
0
10
778.029
20
1084.300
0
VERTEX
8
0
10
771.279
20
1084.300
0
VERTEX
8
0
10
771.279
20
1102.300
0
VERTEX
8
0
10
851.279
20
1102.300
0
VERTEX
8
0
10
851.279
20
1084.300
0
VERTEX
8
0
10
844.529
20
1084.300
0
VERTEX
8
0
10
844.529
20
1093.300
42
0.267949
0
VERTEX
8
0
10
842.903939
20
1096.114525
42
0.267949
0
VERTEX
8
0
10
839.653939
20
1096.114525
42
0.267949
0
VERTEX
8
0
10
838.028939
20
1093.299943
0
VERTEX
8
0
10
838.029
20
1084.300
0
VERTEX
8
0
10
784.529
20
1084.300
0
VERTEX
8
0
10
784.529
20
1093.300
42
0.267949
0
VERTEX
8
0
10
782.903939
20
1096.114525
42
0.267949
0
VERTEX
8
0
10
779.653939
20
1096.114525
42
0.267968
0
VERTEX
8
0
10
778.029021
20
1093.300258
0
SEQEND
0
POLYLINE
70
1
62
7
8
0
66
1
0
VERTEX
8
0
10
791.895
20
1192.944
0
VERTEX
8
0
10
823.895
20
1192.944
0
VERTEX
8
0
10
833.895
20
1182.944
0
VERTEX
8
0
10
833.895
20
1150.944
0
VERTEX
8
0
10
791.895
20
1150.944
0
VERTEX
8
0
10
791.895
20
1192.944
0
SEQEND
0
POLYLINE
70
1
62
7
8
0
66
1
0
VERTEX
8
0
10
1057.921
20
909.032
0
VERTEX
8
0
10
1057.921
20
900.032
0
VERTEX
8
0
10
1053.171
20
900.032
0
VERTEX
8
0
10
1053.171
20
918.032
0
VERTEX
8
0
10
1143.171
20
918.032
0
VERTEX
8
0
10
1143.171
20
900.032
0
VERTEX
8
0
10
1138.421
20
900.032
0
VERTEX
8
0
10
1138.421
20
909.032
42
0.267949
0
VERTEX
8
0
10
1136.796057
20
911.846781
42
0.267949
0
VERTEX
8
0
10
1133.546057
20
911.846781
42
0.267949
0
VERTEX
8
0
10
1131.921057
20
909.032198
0
VERTEX
8
0
10
1131.921
20
900.032
0
VERTEX
8
0
10
1064.421
20
900.032
0
VERTEX
8
0
10
1064.421
20
909.032
42
0.267949
0
VERTEX
8
0
10
1062.796057
20
911.846781
42
0.267949
0
VERTEX
8
0
10
1059.546057
20
911.846781
42
0.267941
0
VERTEX
8
0
10
1057.921021
20
909.032258
0
SEQEND
0
POLYLINE
70
1
62
7
8
0
66
1
0
VERTEX
8
0
10
1070.161
20
941.285
0
VERTEX
8
0
10
1070.161
20
932.285
0
VERTEX
8
0
10
1063.411
20
932.285
0
VERTEX
8
0
10
1063.411
20
950.285
0
VERTEX
8
0
10
1143.411
20
950.285
0
VERTEX
8
0
10
1143.411
20
932.285
0
VERTEX
8
0
10
1136.661
20
932.285
0
VERTEX
8
0
10
1136.661
20
941.285
42
0.267949
0
VERTEX
8
0
10
1135.035702
20
944.100260
42
0.267949
0
VERTEX
8
0
10
1131.785702
20
944.100260
42
0.267949
0
VERTEX
8
0
10
1130.160702
20
941.285677
0
VERTEX
8
0
10
1130.161
20
932.285
0
VERTEX
8
0
10
1076.661
20
932.285
0
VERTEX
8
0
10
1076.661
20
941.285
42
0.267949
0
VERTEX
8
0
10
1075.035702
20
944.100260
42
0.267949
0
VERTEX
8
0
10
1071.785702
20
944.100260
42
0.268023
0
VERTEX
8
0
10
1070.161021
20
941.285258
0
SEQEND
0
POLYLINE
70
1
62
7
8
0
66
1
0
VERTEX
8
0
10
1084.027
20
1040.929
0
VERTEX
8
0
10
1116.027
20
1040.929
0
VERTEX
8
0
10
1126.027
20
1030.929
0
VERTEX
8
0
10
1126.027
20
998.929
0
VERTEX
8
0
10
1084.027
20
998.929
0
VERTEX
8
0
10
1084.027
20
1040.929
0
SEQEND
0
POLYLINE
70
1
62
7
8
0
66
1
0
VERTEX
8
0
10
1049.990
20
1079.552
0
VERTEX
8
0
10
1049.990
20
1070.552
0
VERTEX
8
0
10
1045.240
20
1070.552
0
VERTEX
8
0
10
1045.240
20
1088.552
0
VERTEX
8
0
10
1135.240
20
1088.552
0
VERTEX
8
0
10
1135.240
20
1070.552
0
VERTEX
8
0
10
1130.490
20
1070.552
0
VERTEX
8
0
10
1130.490
20
1079.552
42
0.267949
0
VERTEX
8
0
10
1128.864878
20
1082.367131
42
0.267949
0
VERTEX
8
0
10
1125.614878
20
1082.367131
42
0.267949
0
VERTEX
8
0
10
1123.989878
20
1079.552549
0
VERTEX
8
0
10
1123.990
20
1070.552
0
VERTEX
8
0
10
1056.490
20
1070.552
0
VERTEX
8
0
10
1056.490
20
1079.552
42
0.267949
0
VERTEX
8
0
10
1054.864878
20
1082.367131
42
0.267949
0
VERTEX
8
0
10
1051.614878
20
1082.367131
42
0.267982
0
VERTEX
8
0
10
1049.990021
20
1079.552258
0
SEQEND
0
POLYLINE
70
1
62
7
8
0
66
1
0
VERTEX
8
0
10
1062.230
20
1111.806
0
VERTEX
8
0
10
1062.230
20
1102.806
0
VERTEX
8
0
10
1055.480
20
1102.806
0
VERTEX
8
0
10
1055.480
20
1120.806
0
VERTEX
8
0
10
1135.480
20
1120.806
0
VERTEX
8
0
10
1135.480
20
1102.806
0
VERTEX
8
0
10
1128.730
20
1102.806
0
VERTEX
8
0
10
1128.730
20
1111.806
42
0.267949
0
VERTEX
8
0
10
1127.104523
20
1114.620610
42
0.267949
0
VERTEX
8
0
10
1123.854523
20
1114.620610
42
0.267949
0
VERTEX
8
0
10
1122.229523
20
1111.806027
0
VERTEX
8
0
10
1122.230
20
1102.806
0
VERTEX
8
0
10
1068.730
20
1102.806
0
VERTEX
8
0
10
1068.730
20
1111.806
42
0.267949
0
VERTEX
8
0
10
1067.104523
20
1114.620610
42
0.267949
0
VERTEX
8
0
10
1063.854523
20
1114.620610
42
0.268064
0
VERTEX
8
0
10
1062.230021
20
1111.806258
0
SEQEND
0
POLYLINE
70
1
62
7
8
0
66
1
0
VERTEX
8
0
10
1076.096
20
1211.450
0
VERTEX
8
0
10
1108.096
20
1211.450
0
VERTEX
8
0
10
1118.096
20
1201.450
0
VERTEX
8
0
10
1118.096
20
1169.450
0
VERTEX
8
0
10
1076.096
20
1169.450
0
VERTEX
8
0
10
1076.096
20
1211.450
0
SEQEND
0
POLYLINE
70
1
62
7
8
0
66
1
0
VERTEX
8
0
10
903.263
20
1116.564
0
VERTEX
8
0
10
903.263
20
1107.564
0
VERTEX
8
0
10
898.513
20
1107.564
0
VERTEX
8
0
10
898.513
20
1125.564
0
VERTEX
8
0
10
988.513
20
1125.564
0
VERTEX
8
0
10
988.513
20
1107.564
0
VERTEX
8
0
10
983.763
20
1107.564
0
VERTEX
8
0
10
983.763
20
1116.564
42
0.267949
0
VERTEX
8
0
10
982.138065
20
1119.379300
42
0.267949
0
VERTEX
8
0
10
978.888065
20
1119.379300
42
0.267949
0
VERTEX
8
0
10
977.263065
20
1116.564718
0
VERTEX
8
0
10
977.263
20
1107.564
0
VERTEX
8
0
10
909.763
20
1107.564
0
VERTEX
8
0
10
909.763
20
1116.564
42
0.267949
0
VERTEX
8
0
10
908.138065
20
1119.379300
42
0.267949
0
VERTEX
8
0
10
904.888065
20
1119.379300
42
0.267939
0
VERTEX
8
0
10
903.263021
20
1116.564258
0
SEQEND
0
POLYLINE
70
1
62
7
8
0
66
1
0
VERTEX
8
0
10
915.503
20
1148.818
0
VERTEX
8
0
10
915.503
20
1139.818
0
VERTEX
8
0
10
908.753
20
1139.818
0
VERTEX
8
0
10
908.753
20
1157.818
0
VERTEX
8
0
10
988.753
20
1157.818
0
VERTEX
8
0
10
988.753
20
1139.818
0
VERTEX
8
0
10
982.003
20
1139.818
0
VERTEX
8
0
10
982.003
20
1148.818
42
0.267949
0
VERTEX
8
0
10
980.377710
20
1151.632779
42
0.267949
0
VERTEX
8
0
10
977.127710
20
1151.632779
42
0.267949
0
VERTEX
8
0
10
975.502710
20
1148.818196
0
VERTEX
8
0
10
975.503
20
1139.818
0
VERTEX
8
0
10
922.003
20
1139.818
0
VERTEX
8
0
10
922.003
20
1148.818
42
0.267949
0
VERTEX
8
0
10
920.377710
20
1151.632779
42
0.267949
0
VERTEX
8
0
10
917.127710
20
1151.632779
42
0.268021
0
VERTEX
8
0
10
915.503021
20
1148.818258
0
SEQEND
0
POLYLINE
70
1
62
7
8
0
66
1
0
VERTEX
8
0
10
929.369
20
1248.462
0
VERTEX
8
0
10
961.369
20
1248.462
0
VERTEX
8
0
10
971.369
20
1238.462
0
VERTEX
8
0
10
971.369
20
1206.462
0
VERTEX
8
0
10
929.369
20
1206.462
0
VERTEX
8
0
10
929.369
20
1248.462
0
SEQEND
0
ENDSEC
0
EOF
