<?xml version="1.0" encoding="UTF-8" standalone="yes"?>
<!-- Created with sK1/UniConvertor (http://sk1project.org/) -->
<svg xmlns="http://www.w3.org/2000/svg" xmlns:xlink="http://www.w3.org/1999/xlink"
  width="595.276pt" height="841.89pt" viewBox="0 0 595.276 841.89"
  fill-rule="evenodd">
<g>
<path style="stroke:#000000; stroke-width:0.72; fill:none" d="M 4.75 832.89L 4.75 841.89L 0 841.89L 0 823.89L 90 823.89L 90 841.89L 85.25 841.89L 85.25 832.89L 83.625 830.075L 80.375 830.075L 78.75 832.89L 78.75 841.89L 11.25 841.89L 11.25 832.89L 9.625 830.075L 6.375 830.075L 4.75 832.89"/>
<path style="stroke:#000000; stroke-width:0.72; fill:none" d="M 16.99 800.637L 16.99 809.637L 10.24 809.637L 10.24 791.637L 90.24 791.637L 90.24 809.637L 83.49 809.637L 83.49 800.637L 81.8646 797.822L 78.6146 797.822L 76.9896 800.636L 76.99 809.637L 23.49 809.637L 23.49 800.637L 21.8646 797.822L 18.6146 797.822L 16.99 800.637"/>
<path style="stroke:#000000; stroke-width:0.72; fill:none" d="M 30.856 700.993L 62.856 700.993L 72.856 710.993L 72.856 742.993L 30.856 742.993L 30.856 700.993"/>
<path style="stroke:#000000; stroke-width:0.72; fill:none" d="M 286.985 750.539L 277.642 727.982L 255.085 718.639L 232.529 727.982L 223.185 750.539L 232.529 773.095L 255.085 782.439L 277.642 773.095L 286.985 750.539L 286.985 750.539z"/>
<path style="stroke:#000000; stroke-width:0.72; fill:none" d="M 592.205 683.901L 593.992 680.914L 594.958 680.656L 596.495 679.457L 596.705 677.52L 577.463 644.192L 575.68 643.405L 573.874 644.137L 573.167 644.845L 569.687 644.898L 538.79 627.06L 537.097 624.02L 537.356 623.054L 537.087 621.123L 535.514 619.973L 497.03 619.973L 495.457 621.123L 495.188 623.053L 495.447 624.02L 493.754 627.06L 462.857 644.898L 459.377 644.844L 458.67 644.138L 456.864 643.405L 455.081 644.192L 435.839 677.52L 436.049 679.457L 437.586 680.655L 438.553 680.915L 440.339 683.901L 440.339 719.577L 438.553 722.564L 437.586 722.824L 436.049 724.021L 435.839 725.959L 455.081 759.286L 456.864 760.073L 458.67 759.341L 459.377 758.634L 462.857 758.58L 493.754 776.418L 495.447 779.459L 495.188 780.426L 495.457 782.355L 497.03 783.506L 535.514 783.506L 537.087 782.355L 537.356 780.425L 537.097 779.459L 538.79 776.418L 569.687 758.58L 573.167 758.634L 573.874 759.342L 575.68 760.073L 577.463 759.286L 596.705 725.959L 596.495 724.021L 594.958 722.823L 593.992 722.565L 592.205 719.577L 592.205 683.9L 592.205 683.901z"/>
<path style="stroke:#000000; stroke-width:0.72; fill:none" d="M 113.198 721.799L 192.198 721.799L 196.441 723.556L 198.198 727.798L 198.198 806.799L 196.441 811.041L 192.198 812.798L 113.198 812.799L 108.955 811.041L 107.198 806.798L 107.198 727.799L 108.955 723.556L 113.198 721.799L 113.198 721.799z"/>
<path style="stroke:#000000; stroke-width:0.72; fill:none" d="M 19.788 664.838L 19.788 673.838L 15.038 673.838L 15.038 655.838L 105.038 655.838L 105.038 673.838L 100.288 673.838L 100.288 664.838L 98.6633 662.023L 95.4133 662.023L 93.7883 664.838L 93.788 673.838L 26.288 673.838L 26.288 664.838L 24.6633 662.023L 21.4133 662.023L 19.788 664.838"/>
<path style="stroke:#000000; stroke-width:0.72; fill:none" d="M 32.028 632.584L 32.028 641.584L 25.278 641.584L 25.278 623.584L 105.278 623.584L 105.278 641.584L 98.528 641.584L 98.528 632.584L 96.9029 629.77L 93.6529 629.77L 92.0279 632.584L 92.028 641.584L 38.528 641.584L 38.528 632.584L 36.9029 629.77L 33.6529 629.77L 32.028 632.584"/>
<path style="stroke:#000000; stroke-width:0.72; fill:none" d="M 45.894 532.94L 77.894 532.94L 87.894 542.94L 87.894 574.94L 45.894 574.94L 45.894 532.94"/>
<path style="stroke:#000000; stroke-width:0.72; fill:none" d="M 311.92 816.852L 311.92 825.852L 307.17 825.852L 307.17 807.852L 397.17 807.852L 397.17 825.852L 392.42 825.852L 392.42 816.852L 390.795 814.037L 387.545 814.037L 385.92 816.852L 385.92 825.852L 318.42 825.852L 318.42 816.852L 316.795 814.037L 313.545 814.037L 311.92 816.852"/>
<path style="stroke:#000000; stroke-width:0.72; fill:none" d="M 324.16 784.599L 324.16 793.599L 317.41 793.599L 317.41 775.599L 397.41 775.599L 397.41 793.599L 390.66 793.599L 390.66 784.599L 389.035 781.784L 385.785 781.784L 384.16 784.598L 384.16 793.599L 330.66 793.599L 330.66 784.599L 329.035 781.784L 325.785 781.784L 324.16 784.599"/>
<path style="stroke:#000000; stroke-width:0.72; fill:none" d="M 338.026 684.955L 370.026 684.955L 380.026 694.955L 380.026 726.955L 338.026 726.955L 338.026 684.955"/>
<path style="stroke:#000000; stroke-width:0.72; fill:none" d="M 303.989 646.332L 303.989 655.332L 299.239 655.332L 299.239 637.332L 389.239 637.332L 389.239 655.332L 384.489 655.332L 384.489 646.332L 382.864 643.517L 379.614 643.517L 377.989 646.331L 377.989 655.332L 310.489 655.332L 310.489 646.332L 308.864 643.517L 305.614 643.517L 303.989 646.332"/>
<path style="stroke:#000000; stroke-width:0.72; fill:none" d="M 316.229 614.078L 316.229 623.078L 309.479 623.078L 309.479 605.078L 389.479 605.078L 389.479 623.078L 382.729 623.078L 382.729 614.078L 381.104 611.263L 377.854 611.263L 376.229 614.078L 376.229 623.078L 322.729 623.078L 322.729 614.078L 321.104 611.263L 317.854 611.263L 316.229 614.078"/>
<path style="stroke:#000000; stroke-width:0.72; fill:none" d="M 330.095 514.434L 362.095 514.434L 372.095 524.434L 372.095 556.434L 330.095 556.434L 330.095 514.434"/>
<path style="stroke:#000000; stroke-width:0.72; fill:none" d="M 157.262 609.32L 157.262 618.32L 152.512 618.32L 152.512 600.32L 242.512 600.32L 242.512 618.32L 237.762 618.32L 237.762 609.32L 236.137 606.505L 232.887 606.505L 231.262 609.319L 231.262 618.32L 163.762 618.32L 163.762 609.32L 162.137 606.505L 158.887 606.505L 157.262 609.32"/>
<path style="stroke:#000000; stroke-width:0.72; fill:none" d="M 169.502 577.066L 169.502 586.066L 162.752 586.066L 162.752 568.066L 242.752 568.066L 242.752 586.066L 236.002 586.066L 236.002 577.066L 234.377 574.251L 231.127 574.251L 229.502 577.066L 229.502 586.066L 176.002 586.066L 176.002 577.066L 174.377 574.251L 171.127 574.251L 169.502 577.066"/>
<path style="stroke:#000000; stroke-width:0.72; fill:none" d="M 183.368 477.422L 215.368 477.422L 225.368 487.422L 225.368 519.422L 183.368 519.422L 183.368 477.422"/>
<path style="stroke:#000000; stroke-width:0.72; fill:none" d="M 53.045 427.106L 53.045 436.106L 48.295 436.106L 48.295 418.106L 138.295 418.106L 138.295 436.106L 133.545 436.106L 133.545 427.106L 131.92 424.291L 128.67 424.291L 127.045 427.106L 127.045 436.106L 59.545 436.106L 59.545 427.106L 57.9199 424.291L 54.6699 424.291L 53.0449 427.106L 53.045 427.106z"/>
<path style="stroke:#000000; stroke-width:0.72; fill:none" d="M 65.285 394.853L 65.285 403.853L 58.535 403.853L 58.535 385.853L 138.535 385.853L 138.535 403.853L 131.785 403.853L 131.785 394.853L 130.16 392.038L 126.91 392.038L 125.285 394.852L 125.285 403.853L 71.785 403.853L 71.785 394.853L 70.1595 392.038L 66.9095 392.038L 65.2849 394.853L 65.285 394.853z"/>
<path style="stroke:#000000; stroke-width:0.72; fill:none" d="M 79.151 295.209L 111.151 295.209L 121.151 305.209L 121.151 337.209L 79.151 337.209L 79.151 295.209"/>
<path style="stroke:#000000; stroke-width:0.72; fill:none" d="M 335.28 344.755L 325.937 322.198L 303.38 312.855L 280.823 322.198L 271.48 344.755L 280.823 367.311L 303.38 376.655L 325.937 367.311L 335.28 344.755L 335.28 344.755z"/>
<path style="stroke:#000000; stroke-width:0.72; fill:none" d="M 640.5 278.117L 642.286 275.13L 643.253 274.872L 644.79 273.673L 645 271.736L 625.758 238.408L 623.975 237.621L 622.169 238.353L 621.462 239.061L 617.982 239.115L 587.085 221.276L 585.392 218.236L 585.651 217.27L 585.382 215.339L 583.809 214.189L 545.325 214.189L 543.752 215.339L 543.483 217.269L 543.742 218.236L 542.049 221.276L 511.152 239.115L 507.672 239.061L 506.965 238.354L 505.159 237.621L 503.376 238.408L 484.134 271.736L 484.344 273.673L 485.881 274.871L 486.848 275.131L 488.634 278.117L 488.634 313.794L 486.847 316.78L 485.881 317.04L 484.344 318.237L 484.134 320.175L 503.376 353.502L 505.159 354.289L 506.965 353.557L 507.672 352.85L 511.152 352.796L 542.049 370.634L 543.742 373.675L 543.483 374.642L 543.752 376.571L 545.325 377.722L 583.809 377.722L 585.382 376.571L 585.651 374.641L 585.392 373.675L 587.085 370.634L 617.982 352.796L 621.462 352.85L 622.169 353.558L 623.975 354.289L 625.758 353.502L 645 320.175L 644.79 318.237L 643.253 317.039L 642.287 316.781L 640.5 313.794L 640.5 278.117L 640.5 278.117z"/>
<path style="stroke:#000000; stroke-width:0.72; fill:none" d="M 161.493 316.015L 240.493 316.015L 244.735 317.772L 246.493 322.015L 246.493 401.015L 244.735 405.257L 240.493 407.014L 161.493 407.015L 157.25 405.257L 155.493 401.014L 155.493 322.015L 157.25 317.772L 161.493 316.015L 161.493 316.015z"/>
<path style="stroke:#000000; stroke-width:0.72; fill:none" d="M 68.083 259.054L 68.083 268.054L 63.333 268.054L 63.333 250.054L 153.333 250.054L 153.333 268.054L 148.583 268.054L 148.583 259.054L 146.958 256.239L 143.708 256.239L 142.083 259.054L 142.083 268.054L 74.583 268.054L 74.583 259.054L 72.9581 256.239L 69.7081 256.239L 68.0829 259.054L 68.083 259.054z"/>
<path style="stroke:#000000; stroke-width:0.72; fill:none" d="M 80.323 226.8L 80.323 235.8L 73.573 235.8L 73.573 217.8L 153.573 217.8L 153.573 235.8L 146.823 235.8L 146.823 226.8L 145.198 223.986L 141.948 223.986L 140.323 226.8L 140.323 235.8L 86.823 235.8L 86.823 226.8L 85.1978 223.986L 81.9478 223.986L 80.3229 226.8L 80.323 226.8z"/>
<path style="stroke:#000000; stroke-width:0.72; fill:none" d="M 94.189 127.156L 126.189 127.156L 136.189 137.156L 136.189 169.156L 94.189 169.156L 94.189 127.156"/>
<path style="stroke:#000000; stroke-width:0.72; fill:none" d="M 360.215 411.068L 360.215 420.068L 355.465 420.068L 355.465 402.068L 445.465 402.068L 445.465 420.068L 440.715 420.068L 440.715 411.068L 439.09 408.253L 435.84 408.253L 434.215 411.068L 434.215 420.068L 366.715 420.068L 366.715 411.068L 365.09 408.253L 361.84 408.253L 360.215 411.068L 360.215 411.068z"/>
<path style="stroke:#000000; stroke-width:0.72; fill:none" d="M 372.455 378.815L 372.455 387.815L 365.705 387.815L 365.705 369.815L 445.705 369.815L 445.705 387.815L 438.955 387.815L 438.955 378.815L 437.33 376L 434.08 376L 432.455 378.815L 432.455 387.815L 378.955 387.815L 378.955 378.815L 377.33 376L 374.08 376L 372.455 378.815L 372.455 378.815z"/>
<path style="stroke:#000000; stroke-width:0.72; fill:none" d="M 386.321 279.171L 418.321 279.171L 428.321 289.171L 428.321 321.171L 386.321 321.171L 386.321 279.171"/>
<path style="stroke:#000000; stroke-width:0.72; fill:none" d="M 352.284 240.548L 352.284 249.548L 347.534 249.548L 347.534 231.548L 437.534 231.548L 437.534 249.548L 432.784 249.548L 432.784 240.548L 431.159 237.733L 427.909 237.733L 426.284 240.548L 426.284 249.548L 358.784 249.548L 358.784 240.548L 357.159 237.733L 353.909 237.733L 352.284 240.548L 352.284 240.548z"/>
<path style="stroke:#000000; stroke-width:0.72; fill:none" d="M 364.524 208.294L 364.524 217.294L 357.774 217.294L 357.774 199.294L 437.774 199.294L 437.774 217.294L 431.024 217.294L 431.024 208.294L 429.398 205.48L 426.148 205.48L 424.523 208.294L 424.524 217.294L 371.024 217.294L 371.024 208.294L 369.398 205.48L 366.148 205.48L 364.524 208.294L 364.524 208.294z"/>
<path style="stroke:#000000; stroke-width:0.72; fill:none" d="M 378.39 108.65L 410.39 108.65L 420.39 118.65L 420.39 150.65L 378.39 150.65L 378.39 108.65"/>
<path style="stroke:#000000; stroke-width:0.72; fill:none" d="M 205.557 203.536L 205.557 212.536L 200.807 212.536L 200.807 194.536L 290.807 194.536L 290.807 212.536L 286.057 212.536L 286.057 203.536L 284.432 200.721L 281.182 200.721L 279.557 203.536L 279.557 212.536L 212.057 212.536L 212.057 203.536L 210.432 200.721L 207.182 200.721L 205.557 203.536L 205.557 203.536z"/>
<path style="stroke:#000000; stroke-width:0.72; fill:none" d="M 217.797 171.282L 217.797 180.282L 211.047 180.282L 211.047 162.282L 291.047 162.282L 291.047 180.282L 284.297 180.282L 284.297 171.282L 282.672 168.467L 279.422 168.467L 277.797 171.282L 277.797 180.282L 224.297 180.282L 224.297 171.282L 222.672 168.467L 219.422 168.467L 217.797 171.282L 217.797 171.282z"/>
<path style="stroke:#000000; stroke-width:0.72; fill:none" d="M 231.663 71.6378L 263.663 71.6378L 273.663 81.6378L 273.663 113.638L 231.663 113.638L 231.663 71.6378"/>
<path style="stroke:#000000; stroke-width:0.72; fill:none" d="M 679.83 806.084L 679.83 815.084L 675.08 815.084L 675.08 797.084L 765.08 797.084L 765.08 815.084L 760.33 815.084L 760.33 806.084L 758.705 803.269L 755.455 803.269L 753.83 806.084L 753.83 815.084L 686.33 815.084L 686.33 806.084L 684.705 803.269L 681.455 803.269L 679.83 806.084L 679.83 806.084z"/>
<path style="stroke:#000000; stroke-width:0.72; fill:none" d="M 692.07 773.831L 692.07 782.831L 685.32 782.831L 685.32 764.831L 765.32 764.831L 765.32 782.831L 758.57 782.831L 758.57 773.831L 756.945 771.016L 753.695 771.016L 752.07 773.831L 752.07 782.831L 698.57 782.831L 698.57 773.831L 696.945 771.016L 693.695 771.016L 692.07 773.831L 692.07 773.831z"/>
<path style="stroke:#000000; stroke-width:0.72; fill:none" d="M 705.936 674.187L 737.936 674.187L 747.936 684.187L 747.936 716.187L 705.936 716.187L 705.936 674.187"/>
<path style="stroke:#000000; stroke-width:0.72; fill:none" d="M 962.065 723.733L 952.722 701.176L 930.166 691.833L 907.609 701.176L 898.266 723.733L 907.609 746.29L 930.166 755.633L 952.722 746.29L 962.065 723.733L 962.065 723.733z"/>
<path style="stroke:#000000; stroke-width:0.72; fill:none" d="M 1267.29 657.095L 1269.07 654.108L 1270.04 653.85L 1271.58 652.651L 1271.79 650.714L 1252.54 617.386L 1250.76 616.599L 1248.95 617.331L 1248.25 618.039L 1244.77 618.093L 1213.87 600.254L 1212.18 597.214L 1212.44 596.248L 1212.17 594.317L 1210.59 593.167L 1172.11 593.167L 1170.54 594.317L 1170.27 596.247L 1170.53 597.214L 1168.83 600.254L 1137.94 618.093L 1134.46 618.039L 1133.75 617.332L 1131.94 616.599L 1130.16 617.386L 1110.92 650.714L 1111.13 652.651L 1112.67 653.849L 1113.63 654.109L 1115.42 657.095L 1115.42 692.772L 1113.63 695.758L 1112.67 696.018L 1111.13 697.215L 1110.92 699.153L 1130.16 732.48L 1131.94 733.267L 1133.75 732.535L 1134.46 731.828L 1137.94 731.774L 1168.83 749.612L 1170.53 752.653L 1170.27 753.62L 1170.54 755.549L 1172.11 756.7L 1210.59 756.7L 1212.17 755.549L 1212.44 753.619L 1212.18 752.653L 1213.87 749.612L 1244.77 731.774L 1248.25 731.828L 1248.95 732.536L 1250.76 733.267L 1252.54 732.48L 1271.79 699.153L 1271.58 697.215L 1270.04 696.017L 1269.07 695.759L 1267.29 692.772L 1267.29 657.095L 1267.29 657.095z"/>
<path style="stroke:#000000; stroke-width:0.72; fill:none" d="M 788.278 694.993L 867.278 694.993L 871.521 696.75L 873.278 700.993L 873.278 779.993L 871.521 784.235L 867.278 785.993L 788.278 785.993L 784.036 784.235L 782.278 779.993L 782.278 700.993L 784.036 696.75L 788.278 694.993L 788.278 694.993z"/>
<path style="stroke:#000000; stroke-width:0.72; fill:none" d="M 694.868 638.032L 694.868 647.032L 690.118 647.032L 690.118 629.032L 780.118 629.032L 780.118 647.032L 775.368 647.032L 775.368 638.032L 773.744 635.217L 770.494 635.217L 768.869 638.032L 768.868 647.032L 701.368 647.032L 701.368 638.032L 699.744 635.217L 696.494 635.217L 694.868 638.032L 694.868 638.032z"/>
<path style="stroke:#000000; stroke-width:0.72; fill:none" d="M 707.108 605.778L 707.108 614.778L 700.358 614.778L 700.358 596.778L 780.358 596.778L 780.358 614.778L 773.608 614.778L 773.608 605.778L 771.983 602.964L 768.733 602.964L 767.108 605.778L 767.108 614.778L 713.608 614.778L 713.608 605.778L 711.983 602.964L 708.733 602.964L 707.108 605.778L 707.108 605.778z"/>
<path style="stroke:#000000; stroke-width:0.72; fill:none" d="M 720.974 506.134L 752.974 506.134L 762.974 516.134L 762.974 548.134L 720.974 548.134L 720.974 506.134"/>
<path style="stroke:#000000; stroke-width:0.72; fill:none" d="M 987 790.046L 987 799.046L 982.25 799.046L 982.25 781.046L 1072.25 781.046L 1072.25 799.046L 1067.5 799.046L 1067.5 790.046L 1065.88 787.231L 1062.63 787.231L 1061 790.046L 1061 799.046L 993.5 799.046L 993.5 790.046L 991.875 787.231L 988.625 787.231L 987 790.046L 987 790.046z"/>
<path style="stroke:#000000; stroke-width:0.72; fill:none" d="M 999.24 757.793L 999.24 766.793L 992.49 766.793L 992.49 748.793L 1072.49 748.793L 1072.49 766.793L 1065.74 766.793L 1065.74 757.793L 1064.11 754.978L 1060.86 754.978L 1059.24 757.793L 1059.24 766.793L 1005.74 766.793L 1005.74 757.793L 1004.11 754.978L 1000.86 754.978L 999.24 757.793L 999.24 757.793z"/>
<path style="stroke:#000000; stroke-width:0.72; fill:none" d="M 1013.11 658.149L 1045.11 658.149L 1055.11 668.149L 1055.11 700.149L 1013.11 700.149L 1013.11 658.149"/>
<path style="stroke:#000000; stroke-width:0.72; fill:none" d="M 979.069 619.526L 979.069 628.526L 974.319 628.526L 974.319 610.526L 1064.32 610.526L 1064.32 628.526L 1059.57 628.526L 1059.57 619.526L 1057.94 616.711L 1054.69 616.711L 1053.07 619.526L 1053.07 628.526L 985.569 628.526L 985.569 619.526L 983.944 616.711L 980.694 616.711L 979.069 619.526L 979.069 619.526z"/>
<path style="stroke:#000000; stroke-width:0.72; fill:none" d="M 991.309 587.272L 991.309 596.272L 984.559 596.272L 984.559 578.272L 1064.56 578.272L 1064.56 596.272L 1057.81 596.272L 1057.81 587.272L 1056.18 584.458L 1052.93 584.458L 1051.31 587.272L 1051.31 596.272L 997.809 596.272L 997.809 587.272L 996.184 584.458L 992.934 584.458L 991.309 587.272L 991.309 587.272z"/>
<path style="stroke:#000000; stroke-width:0.72; fill:none" d="M 1005.17 487.628L 1037.18 487.628L 1047.18 497.628L 1047.18 529.628L 1005.17 529.628L 1005.17 487.628"/>
<path style="stroke:#000000; stroke-width:0.72; fill:none" d="M 832.342 582.514L 832.342 591.514L 827.592 591.514L 827.592 573.514L 917.592 573.514L 917.592 591.514L 912.842 591.514L 912.842 582.514L 911.217 579.699L 907.967 579.699L 906.342 582.514L 906.342 591.514L 838.842 591.514L 838.842 582.514L 837.217 579.699L 833.967 579.699L 832.342 582.514L 832.342 582.514z"/>
<path style="stroke:#000000; stroke-width:0.72; fill:none" d="M 844.582 550.26L 844.582 559.26L 837.832 559.26L 837.832 541.26L 917.832 541.26L 917.832 559.26L 911.082 559.26L 911.082 550.26L 909.457 547.445L 906.207 547.445L 904.582 550.26L 904.582 559.26L 851.082 559.26L 851.082 550.26L 849.457 547.445L 846.207 547.445L 844.582 550.26L 844.582 550.26z"/>
<path style="stroke:#000000; stroke-width:0.72; fill:none" d="M 858.448 450.616L 890.448 450.616L 900.448 460.616L 900.448 492.616L 858.448 492.616L 858.448 450.616"/>
<path style="stroke:#000000; stroke-width:0.72; fill:none" d="M 710.076 368.297L 710.076 377.297L 705.326 377.297L 705.326 359.297L 795.326 359.297L 795.326 377.297L 790.576 377.297L 790.576 368.297L 788.951 365.482L 785.701 365.482L 784.076 368.297L 784.076 377.297L 716.576 377.297L 716.576 368.297L 714.951 365.482L 711.701 365.482L 710.076 368.297L 710.076 368.297z"/>
<path style="stroke:#000000; stroke-width:0.72; fill:none" d="M 722.316 336.044L 722.316 345.044L 715.566 345.044L 715.566 327.044L 795.566 327.044L 795.566 345.044L 788.816 345.044L 788.816 336.044L 787.19 333.229L 783.94 333.229L 782.315 336.043L 782.316 345.044L 728.816 345.044L 728.816 336.044L 727.19 333.229L 723.94 333.229L 722.316 336.044L 722.316 336.044z"/>
<path style="stroke:#000000; stroke-width:0.72; fill:none" d="M 736.182 236.4L 768.182 236.4L 778.182 246.4L 778.182 278.4L 736.182 278.4L 736.182 236.4"/>
<path style="stroke:#000000; stroke-width:0.72; fill:none" d="M 992.311 285.946L 982.968 263.389L 960.411 254.046L 937.854 263.389L 928.511 285.946L 937.854 308.502L 960.411 317.846L 982.968 308.502L 992.311 285.946L 992.311 285.946z"/>
<path style="stroke:#000000; stroke-width:0.72; fill:none" d="M 1297.53 219.308L 1299.32 216.321L 1300.28 216.063L 1301.82 214.864L 1302.03 212.927L 1282.79 179.599L 1281.01 178.812L 1279.2 179.544L 1278.49 180.252L 1275.01 180.305L 1244.12 162.467L 1242.42 159.427L 1242.68 158.461L 1242.41 156.53L 1240.84 155.38L 1202.36 155.38L 1200.78 156.53L 1200.51 158.46L 1200.77 159.427L 1199.08 162.467L 1168.18 180.305L 1164.7 180.251L 1164 179.545L 1162.19 178.812L 1160.41 179.599L 1141.17 212.927L 1141.37 214.864L 1142.91 216.062L 1143.88 216.322L 1145.66 219.308L 1145.66 254.984L 1143.88 257.971L 1142.91 258.231L 1141.37 259.428L 1141.17 261.366L 1160.41 294.693L 1162.19 295.48L 1164 294.748L 1164.7 294.041L 1168.18 293.987L 1199.08 311.825L 1200.77 314.866L 1200.51 315.833L 1200.78 317.762L 1202.36 318.913L 1240.84 318.913L 1242.41 317.762L 1242.68 315.832L 1242.42 314.866L 1244.12 311.825L 1275.01 293.987L 1278.49 294.041L 1279.2 294.749L 1281.01 295.48L 1282.79 294.693L 1302.03 261.366L 1301.82 259.428L 1300.28 258.23L 1299.32 257.972L 1297.53 254.984L 1297.53 219.307L 1297.53 219.308z"/>
<path style="stroke:#000000; stroke-width:0.72; fill:none" d="M 818.523 257.206L 897.523 257.206L 901.766 258.963L 903.524 263.205L 903.523 342.206L 901.766 346.448L 897.524 348.205L 818.523 348.206L 814.281 346.448L 812.524 342.205L 812.523 263.206L 814.281 258.963L 818.523 257.206L 818.523 257.206z"/>
<path style="stroke:#000000; stroke-width:0.72; fill:none" d="M 725.114 200.245L 725.114 209.245L 720.364 209.245L 720.364 191.245L 810.364 191.245L 810.364 209.245L 805.614 209.245L 805.614 200.245L 803.989 197.43L 800.739 197.43L 799.114 200.245L 799.114 209.245L 731.614 209.245L 731.614 200.245L 729.989 197.43L 726.739 197.43L 725.114 200.245L 725.114 200.245z"/>
<path style="stroke:#000000; stroke-width:0.72; fill:none" d="M 737.354 167.991L 737.354 176.991L 730.604 176.991L 730.604 158.991L 810.604 158.991L 810.604 176.991L 803.854 176.991L 803.854 167.991L 802.229 165.176L 798.979 165.176L 797.354 167.991L 797.354 176.991L 743.854 176.991L 743.854 167.991L 742.229 165.176L 738.979 165.176L 737.354 167.991L 737.354 167.991z"/>
<path style="stroke:#000000; stroke-width:0.72; fill:none" d="M 751.22 68.3467L 783.22 68.3467L 793.22 78.3467L 793.22 110.347L 751.22 110.347L 751.22 68.3467"/>
<path style="stroke:#000000; stroke-width:0.72; fill:none" d="M 1017.25 352.259L 1017.25 361.259L 1012.5 361.259L 1012.5 343.259L 1102.5 343.259L 1102.5 361.259L 1097.75 361.259L 1097.75 352.259L 1096.12 349.444L 1092.87 349.444L 1091.25 352.259L 1091.25 361.259L 1023.75 361.259L 1023.75 352.259L 1022.12 349.444L 1018.87 349.444L 1017.25 352.259L 1017.25 352.259z"/>
<path style="stroke:#000000; stroke-width:0.72; fill:none" d="M 1029.49 320.006L 1029.49 329.006L 1022.74 329.006L 1022.74 311.006L 1102.74 311.006L 1102.74 329.006L 1095.99 329.006L 1095.99 320.006L 1094.36 317.191L 1091.11 317.191L 1089.49 320.005L 1089.49 329.006L 1035.99 329.006L 1035.99 320.006L 1034.36 317.191L 1031.11 317.191L 1029.49 320.006L 1029.49 320.006z"/>
<path style="stroke:#000000; stroke-width:0.72; fill:none" d="M 1043.35 220.362L 1075.35 220.362L 1085.35 230.362L 1085.35 262.362L 1043.35 262.362L 1043.35 220.362"/>
<path style="stroke:#000000; stroke-width:0.72; fill:none" d="M 1009.32 181.739L 1009.32 190.739L 1004.57 190.739L 1004.57 172.739L 1094.56 172.739L 1094.56 190.739L 1089.81 190.739L 1089.81 181.739L 1088.19 178.924L 1084.94 178.924L 1083.31 181.738L 1083.31 190.739L 1015.82 190.739L 1015.82 181.739L 1014.19 178.924L 1010.94 178.924L 1009.31 181.739L 1009.32 181.739z"/>
<path style="stroke:#000000; stroke-width:0.72; fill:none" d="M 1021.55 149.485L 1021.55 158.485L 1014.8 158.485L 1014.8 140.485L 1094.81 140.485L 1094.81 158.485L 1088.06 158.485L 1088.06 149.485L 1086.43 146.67L 1083.18 146.67L 1081.55 149.485L 1081.56 158.485L 1028.06 158.485L 1028.06 149.485L 1026.43 146.67L 1023.18 146.67L 1021.55 149.485L 1021.55 149.485z"/>
<path style="stroke:#000000; stroke-width:0.72; fill:none" d="M 1035.42 49.8408L 1067.42 49.8408L 1077.42 59.8408L 1077.42 91.8408L 1035.42 91.8408L 1035.42 49.8408"/>
<path style="stroke:#000000; stroke-width:0.72; fill:none" d="M 862.588 144.727L 862.588 153.727L 857.838 153.727L 857.838 135.727L 947.838 135.727L 947.838 153.727L 943.088 153.727L 943.088 144.727L 941.463 141.912L 938.213 141.912L 936.588 144.726L 936.588 153.727L 869.088 153.727L 869.088 144.727L 867.463 141.912L 864.213 141.912L 862.588 144.727L 862.588 144.727z"/>
<path style="stroke:#000000; stroke-width:0.72; fill:none" d="M 874.828 112.473L 874.828 121.473L 868.078 121.473L 868.078 103.473L 948.078 103.473L 948.078 121.473L 941.328 121.473L 941.328 112.473L 939.702 109.658L 936.452 109.658L 934.827 112.473L 934.828 121.473L 881.328 121.473L 881.328 112.473L 879.702 109.658L 876.452 109.658L 874.828 112.473L 874.828 112.473z"/>
<path style="stroke:#000000; stroke-width:0.72; fill:none" d="M 888.694 12.8288L 920.694 12.8288L 930.694 22.8288L 930.694 54.8288L 888.694 54.8288L 888.694 12.8288"/>
<path style="stroke:#000000; stroke-width:0.72; fill:none" d="M 75.336 6.84778L 75.336 15.8478L 70.586 15.8478L 70.586 -2.15222L 160.586 -2.15222L 160.586 15.8478L 155.836 15.8478L 155.836 6.84778L 154.211 4.03333L 150.961 4.03333L 149.336 6.84796L 149.336 15.8478L 81.836 15.8478L 81.836 6.84778L 80.2113 4.03333L 76.9613 4.03333L 75.3363 6.84796L 75.336 6.84778z"/>
<path style="stroke:#000000; stroke-width:0.72; fill:none" d="M 87.576 -25.4052L 87.576 -16.4052L 80.826 -16.4052L 80.826 -34.4052L 160.826 -34.4052L 160.826 -16.4052L 154.076 -16.4052L 154.076 -25.4052L 152.451 -28.2201L 149.201 -28.2201L 147.576 -25.4055L 147.576 -16.4052L 94.076 -16.4052L 94.076 -25.4052L 92.4509 -28.2201L 89.2009 -28.2201L 87.5763 -25.4051L 87.576 -25.4052z"/>
<path style="stroke:#000000; stroke-width:0.72; fill:none" d="M 101.442 -125.049L 133.442 -125.049L 143.442 -115.049L 143.442 -83.0493L 101.442 -83.0493L 101.442 -125.049"/>
<path style="stroke:#000000; stroke-width:0.72; fill:none" d="M 357.571 -75.5032L 348.228 -98.0598L 325.672 -107.403L 303.115 -98.0599L 293.771 -75.5032L 303.115 -52.9465L 325.672 -43.6032L 348.228 -52.9465L 357.571 -75.503L 357.571 -75.5032z"/>
<path style="stroke:#000000; stroke-width:0.72; fill:none" d="M 662.791 -142.141L 664.578 -145.128L 665.544 -145.386L 667.081 -146.585L 667.291 -148.522L 648.049 -181.85L 646.267 -182.637L 644.46 -181.905L 643.753 -181.197L 640.273 -181.143L 609.376 -198.982L 607.683 -202.022L 607.942 -202.988L 607.673 -204.919L 606.1 -206.069L 567.617 -206.069L 566.044 -204.919L 565.775 -202.989L 566.033 -202.022L 564.34 -198.982L 533.444 -181.143L 529.964 -181.197L 529.256 -181.904L 527.45 -182.637L 525.667 -181.85L 506.426 -148.522L 506.636 -146.585L 508.172 -145.387L 509.139 -145.127L 510.926 -142.141L 510.926 -106.464L 509.139 -103.478L 508.172 -103.218L 506.636 -102.021L 506.426 -100.083L 525.667 -66.7557L 527.45 -65.9687L 529.256 -66.7006L 529.963 -67.4082L 533.444 -67.4621L 564.34 -49.6238L 566.034 -46.5832L 565.774 -45.6162L 566.044 -43.6867L 567.617 -42.5363L 606.1 -42.5363L 607.673 -43.6867L 607.942 -45.6168L 607.683 -46.5833L 609.376 -49.6238L 640.273 -67.4621L 643.753 -67.4081L 644.46 -66.7003L 646.267 -65.9687L 648.049 -66.7557L 667.291 -100.083L 667.081 -102.021L 665.544 -103.219L 664.578 -103.477L 662.791 -106.464L 662.791 -142.141L 662.791 -142.141z"/>
<path style="stroke:#000000; stroke-width:0.72; fill:none" d="M 183.784 -104.243L 262.784 -104.243L 267.027 -102.486L 268.784 -98.2435L 268.784 -19.2432L 267.027 -15.0008L 262.784 -13.2435L 183.784 -13.2432L 179.542 -15.0008L 177.784 -19.2435L 177.784 -98.2432L 179.542 -102.486L 183.784 -104.243L 183.784 -104.243z"/>
<path style="stroke:#000000; stroke-width:0.72; fill:none" d="M 90.374 -161.204L 90.374 -152.204L 85.624 -152.204L 85.624 -170.204L 175.624 -170.204L 175.624 -152.204L 170.874 -152.204L 170.874 -161.204L 169.25 -164.019L 166 -164.019L 164.375 -161.204L 164.374 -152.204L 96.874 -152.204L 96.874 -161.204L 95.2495 -164.019L 91.9995 -164.019L 90.3743 -161.204L 90.374 -161.204z"/>
<path style="stroke:#000000; stroke-width:0.72; fill:none" d="M 102.614 -193.458L 102.614 -184.458L 95.864 -184.458L 95.864 -202.458L 175.864 -202.458L 175.864 -184.458L 169.114 -184.458L 169.114 -193.458L 167.489 -196.272L 164.239 -196.272L 162.614 -193.458L 162.614 -184.458L 109.114 -184.458L 109.114 -193.458L 107.489 -196.272L 104.239 -196.272L 102.614 -193.458L 102.614 -193.458z"/>
<path style="stroke:#000000; stroke-width:0.72; fill:none" d="M 116.48 -293.102L 148.48 -293.102L 158.48 -283.102L 158.48 -251.102L 116.48 -251.102L 116.48 -293.102"/>
<path style="stroke:#000000; stroke-width:0.72; fill:none" d="M 382.506 -9.19025L 382.506 -0.190247L 377.756 -0.190247L 377.756 -18.1902L 467.756 -18.1902L 467.756 -0.190247L 463.006 -0.190247L 463.006 -9.19025L 461.381 -12.0046L 458.131 -12.0046L 456.506 -9.19L 456.506 -0.190247L 389.006 -0.190247L 389.006 -9.19025L 387.381 -12.0046L 384.131 -12.0046L 382.506 -9.19006L 382.506 -9.19025z"/>
<path style="stroke:#000000; stroke-width:0.72; fill:none" d="M 394.746 -41.4432L 394.746 -32.4432L 387.996 -32.4432L 387.996 -50.4432L 467.996 -50.4432L 467.996 -32.4432L 461.246 -32.4432L 461.246 -41.4432L 459.621 -44.2581L 456.371 -44.2581L 454.746 -41.4435L 454.746 -32.4432L 401.246 -32.4432L 401.246 -41.4432L 399.621 -44.2581L 396.371 -44.2581L 394.746 -41.4431L 394.746 -41.4432z"/>
<path style="stroke:#000000; stroke-width:0.72; fill:none" d="M 408.612 -141.087L 440.612 -141.087L 450.612 -131.087L 450.612 -99.0872L 408.612 -99.0872L 408.612 -141.087"/>
<path style="stroke:#000000; stroke-width:0.72; fill:none" d="M 374.575 -179.71L 374.575 -170.71L 369.825 -170.71L 369.825 -188.71L 459.825 -188.71L 459.825 -170.71L 455.075 -170.71L 455.075 -179.71L 453.45 -182.525L 450.2 -182.525L 448.575 -179.71L 448.575 -170.71L 381.075 -170.71L 381.075 -179.71L 379.45 -182.525L 376.2 -182.525L 374.575 -179.71L 374.575 -179.71z"/>
<path style="stroke:#000000; stroke-width:0.72; fill:none" d="M 386.815 -211.964L 386.815 -202.964L 380.065 -202.964L 380.065 -220.964L 460.065 -220.964L 460.065 -202.964L 453.315 -202.964L 453.315 -211.964L 451.69 -214.778L 448.44 -214.778L 446.815 -211.964L 446.815 -202.964L 393.315 -202.964L 393.315 -211.964L 391.69 -214.778L 388.44 -214.778L 386.815 -211.964L 386.815 -211.964z"/>
<path style="stroke:#000000; stroke-width:0.72; fill:none" d="M 400.681 -311.608L 432.681 -311.608L 442.681 -301.608L 442.681 -269.608L 400.681 -269.608L 400.681 -311.608"/>
<path style="stroke:#000000; stroke-width:0.72; fill:none" d="M 227.848 -216.722L 227.848 -207.722L 223.098 -207.722L 223.098 -225.722L 313.098 -225.722L 313.098 -207.722L 308.348 -207.722L 308.348 -216.722L 306.723 -219.537L 303.473 -219.537L 301.848 -216.723L 301.848 -207.722L 234.348 -207.722L 234.348 -216.722L 232.723 -219.537L 229.473 -219.537L 227.848 -216.722L 227.848 -216.722z"/>
<path style="stroke:#000000; stroke-width:0.72; fill:none" d="M 240.088 -248.976L 240.088 -239.976L 233.338 -239.976L 233.338 -257.976L 313.338 -257.976L 313.338 -239.976L 306.588 -239.976L 306.588 -248.976L 304.963 -251.791L 301.713 -251.791L 300.088 -248.976L 300.088 -239.976L 246.588 -239.976L 246.588 -248.976L 244.963 -251.791L 241.713 -251.791L 240.088 -248.976L 240.088 -248.976z"/>
<path style="stroke:#000000; stroke-width:0.72; fill:none" d="M 253.954 -348.62L 285.954 -348.62L 295.954 -338.62L 295.954 -306.62L 253.954 -306.62L 253.954 -348.62"/>
<path style="stroke:#000000; stroke-width:0.72; fill:none" d="M 750.751 -51.1042L 750.751 -42.1042L 746.001 -42.1042L 746.001 -60.1042L 836.001 -60.1042L 836.001 -42.1042L 831.251 -42.1042L 831.251 -51.1042L 829.626 -53.9191L 826.376 -53.9191L 824.751 -51.1045L 824.751 -42.1042L 757.251 -42.1042L 757.251 -51.1042L 755.626 -53.9191L 752.376 -53.9191L 750.751 -51.1045L 750.751 -51.1042z"/>
<path style="stroke:#000000; stroke-width:0.72; fill:none" d="M 762.991 -83.3572L 762.991 -74.3572L 756.241 -74.3572L 756.241 -92.3572L 836.241 -92.3572L 836.241 -74.3572L 829.491 -74.3572L 829.491 -83.3572L 827.866 -86.1725L 824.616 -86.1725L 822.991 -83.358L 822.991 -74.3572L 769.491 -74.3572L 769.491 -83.3572L 767.866 -86.1725L 764.616 -86.1725L 762.991 -83.3575L 762.991 -83.3572z"/>
<path style="stroke:#000000; stroke-width:0.72; fill:none" d="M 776.857 -183.001L 808.857 -183.001L 818.857 -173.001L 818.857 -141.001L 776.857 -141.001L 776.857 -183.001"/>
<path style="stroke:#000000; stroke-width:0.72; fill:none" d="M 1032.99 -133.455L 1023.64 -156.012L 1001.09 -165.356L 978.53 -156.012L 969.186 -133.456L 978.53 -110.899L 1001.09 -101.556L 1023.64 -110.899L 1032.99 -133.455L 1032.99 -133.455z"/>
<path style="stroke:#000000; stroke-width:0.72; fill:none" d="M 1338.21 -200.094L 1339.99 -203.08L 1340.96 -203.339L 1342.5 -204.537L 1342.71 -206.475L 1323.46 -239.802L 1321.68 -240.589L 1319.88 -239.857L 1319.17 -239.15L 1315.69 -239.096L 1284.79 -256.934L 1283.1 -259.975L 1283.36 -260.941L 1283.09 -262.871L 1281.51 -264.022L 1243.03 -264.022L 1241.46 -262.871L 1241.19 -260.941L 1241.45 -259.975L 1239.76 -256.934L 1208.86 -239.096L 1205.38 -239.15L 1204.67 -239.857L 1202.86 -240.589L 1201.08 -239.802L 1181.84 -206.475L 1182.05 -204.537L 1183.59 -203.339L 1184.55 -203.08L 1186.34 -200.094L 1186.34 -164.417L 1184.55 -161.43L 1183.59 -161.171L 1182.05 -159.973L 1181.84 -158.036L 1201.08 -124.708L 1202.86 -123.921L 1204.67 -124.653L 1205.38 -125.361L 1208.86 -125.415L 1239.76 -107.576L 1241.45 -104.536L 1241.19 -103.569L 1241.46 -101.639L 1243.03 -100.489L 1281.51 -100.489L 1283.09 -101.639L 1283.36 -103.569L 1283.1 -104.536L 1284.79 -107.576L 1315.69 -125.415L 1319.17 -125.361L 1319.88 -124.653L 1321.68 -123.921L 1323.46 -124.708L 1342.71 -158.036L 1342.5 -159.973L 1340.96 -161.171L 1339.99 -161.43L 1338.21 -164.417L 1338.21 -200.094L 1338.21 -200.094z"/>
<path style="stroke:#000000; stroke-width:0.72; fill:none" d="M 859.199 -162.195L 938.199 -162.195L 942.442 -160.439L 944.199 -156.196L 944.199 -77.1953L 942.442 -72.9532L 938.199 -71.1959L 859.199 -71.1953L 854.956 -72.9532L 853.199 -77.1959L 853.199 -156.195L 854.956 -160.439L 859.199 -162.196L 859.199 -162.195z"/>
<path style="stroke:#000000; stroke-width:0.72; fill:none" d="M 765.789 -219.156L 765.789 -210.156L 761.039 -210.156L 761.039 -228.156L 851.039 -228.156L 851.039 -210.156L 846.289 -210.156L 846.289 -219.156L 844.664 -221.971L 841.414 -221.971L 839.789 -219.157L 839.789 -210.156L 772.289 -210.156L 772.289 -219.156L 770.664 -221.971L 767.414 -221.971L 765.789 -219.156L 765.789 -219.156z"/>
<path style="stroke:#000000; stroke-width:0.72; fill:none" d="M 778.029 -251.41L 778.029 -242.41L 771.279 -242.41L 771.279 -260.41L 851.279 -260.41L 851.279 -242.41L 844.529 -242.41L 844.529 -251.41L 842.904 -254.225L 839.654 -254.225L 838.029 -251.41L 838.029 -242.41L 784.529 -242.41L 784.529 -251.41L 782.904 -254.225L 779.654 -254.225L 778.029 -251.411L 778.029 -251.41z"/>
<path style="stroke:#000000; stroke-width:0.72; fill:none" d="M 791.895 -351.054L 823.895 -351.054L 833.895 -341.054L 833.895 -309.054L 791.895 -309.054L 791.895 -351.054"/>
<path style="stroke:#000000; stroke-width:0.72; fill:none" d="M 1057.92 -67.1422L 1057.92 -58.1422L 1053.17 -58.1422L 1053.17 -76.1422L 1143.17 -76.1422L 1143.17 -58.1422L 1138.42 -58.1422L 1138.42 -67.1422L 1136.8 -69.957L 1133.55 -69.957L 1131.92 -67.1425L 1131.92 -58.1422L 1064.42 -58.1422L 1064.42 -67.1422L 1062.8 -69.957L 1059.55 -69.957L 1057.92 -67.1425L 1057.92 -67.1422z"/>
<path style="stroke:#000000; stroke-width:0.72; fill:none" d="M 1070.16 -99.3952L 1070.16 -90.3952L 1063.41 -90.3952L 1063.41 -108.395L 1143.41 -108.395L 1143.41 -90.3952L 1136.66 -90.3952L 1136.66 -99.3952L 1135.04 -102.211L 1131.79 -102.211L 1130.16 -99.3959L 1130.16 -90.3952L 1076.66 -90.3952L 1076.66 -99.3952L 1075.04 -102.211L 1071.79 -102.211L 1070.16 -99.3955L 1070.16 -99.3952z"/>
<path style="stroke:#000000; stroke-width:0.72; fill:none" d="M 1084.03 -199.039L 1116.03 -199.039L 1126.03 -189.039L 1126.03 -157.039L 1084.03 -157.039L 1084.03 -199.039"/>
<path style="stroke:#000000; stroke-width:0.72; fill:none" d="M 1049.99 -237.662L 1049.99 -228.662L 1045.24 -228.662L 1045.24 -246.662L 1135.24 -246.662L 1135.24 -228.662L 1130.49 -228.662L 1130.49 -237.662L 1128.86 -240.477L 1125.61 -240.477L 1123.99 -237.663L 1123.99 -228.662L 1056.49 -228.662L 1056.49 -237.662L 1054.86 -240.477L 1051.61 -240.477L 1049.99 -237.662L 1049.99 -237.662z"/>
<path style="stroke:#000000; stroke-width:0.72; fill:none" d="M 1062.23 -269.916L 1062.23 -260.916L 1055.48 -260.916L 1055.48 -278.916L 1135.48 -278.916L 1135.48 -260.916L 1128.73 -260.916L 1128.73 -269.916L 1127.1 -272.731L 1123.85 -272.731L 1122.23 -269.916L 1122.23 -260.916L 1068.73 -260.916L 1068.73 -269.916L 1067.1 -272.731L 1063.85 -272.731L 1062.23 -269.917L 1062.23 -269.916z"/>
<path style="stroke:#000000; stroke-width:0.72; fill:none" d="M 1076.1 -369.56L 1108.1 -369.56L 1118.1 -359.56L 1118.1 -327.56L 1076.1 -327.56L 1076.1 -369.56"/>
<path style="stroke:#000000; stroke-width:0.72; fill:none" d="M 903.263 -274.674L 903.263 -265.674L 898.513 -265.674L 898.513 -283.674L 988.513 -283.674L 988.513 -265.674L 983.763 -265.674L 983.763 -274.674L 982.138 -277.49L 978.888 -277.49L 977.263 -274.675L 977.263 -265.674L 909.763 -265.674L 909.763 -274.674L 908.138 -277.49L 904.888 -277.49L 903.263 -274.674L 903.263 -274.674z"/>
<path style="stroke:#000000; stroke-width:0.72; fill:none" d="M 915.503 -306.928L 915.503 -297.928L 908.753 -297.928L 908.753 -315.928L 988.753 -315.928L 988.753 -297.928L 982.003 -297.928L 982.003 -306.928L 980.378 -309.743L 977.128 -309.743L 975.503 -306.928L 975.503 -297.928L 922.003 -297.928L 922.003 -306.928L 920.378 -309.743L 917.128 -309.743L 915.503 -306.928L 915.503 -306.928z"/>
<path style="stroke:#000000; stroke-width:0.72; fill:none" d="M 929.369 -406.572L 961.369 -406.572L 971.369 -396.572L 971.369 -364.572L 929.369 -364.572L 929.369 -406.572"/>
</g>
</svg>