  0
SECTION
  2
HEADER
  9
$ACADVER
  1
AC1027
  9
$ACADMAINTVER
 70
105
  9
$DWGCODEPAGE
  3
ANSI_1252
  9
$LASTSAVEDBY
  1
ezdxf
  9
$REQUIREDVERSIONS
160
0
  9
$INSBASE
 10
0.0
 20
0.0
 30
0.0
  9
$EXTMIN
 10
1e+20
 20
1e+20
 30
1e+20
  9
$EXTMAX
 10
-1e+20
 20
-1e+20
 30
-1e+20
  9
$LIMMIN
 10
0.0
 20
0.0
  9
$LIMMAX
 10
420.0
 20
297.0
  9
$ORTHOMODE
 70
0
  9
$REGENMODE
 70
1
  9
$FILLMODE
 70
1
  9
$QTEXTMODE
 70
0
  9
$MIRRTEXT
 70
1
  9
$LTSCALE
 40
1.0
  9
$ATTMODE
 70
1
  9
$TEXTSIZE
 40
2.5
  9
$TRACEWID
 40
1.0
  9
$TEXTSTYLE
  7
Standard
  9
$CLAYER
  8
0
  9
$CELTYPE
  6
ByLayer
  9
$CECOLOR
 62
256
  9
$CELTSCALE
 40
1.0
  9
$DISPSILH
 70
0
  9
$DIMSCALE
 40
1.0
  9
$DIMASZ
 40
2.5
  9
$DIMEXO
 40
0.625
  9
$DIMDLI
 40
3.75
  9
$DIMRND
 40
0.0
  9
$DIMDLE
 40
0.0
  9
$DIMEXE
 40
1.25
  9
$DIMTP
 40
0.0
  9
$DIMTM
 40
0.0
  9
$DIMTXT
 40
2.5
  9
$DIMCEN
 40
2.5
  9
$DIMTSZ
 40
0.0
  9
$DIMTOL
 70
0
  9
$DIMLIM
 70
0
  9
$DIMTIH
 70
0
  9
$DIMTOH
 70
0
  9
$DIMSE1
 70
0
  9
$DIMSE2
 70
0
  9
$DIMTAD
 70
1
  9
$DIMZIN
 70
8
  9
$DIMBLK
  1

  9
$DIMASO
 70
1
  9
$DIMSHO
 70
1
  9
$DIMPOST
  1

  9
$DIMAPOST
  1

  9
$DIMALT
 70
0
  9
$DIMALTD
 70
3
  9
$DIMALTF
 40
0.03937007874
  9
$DIMLFAC
 40
1.0
  9
$DIMTOFL
 70
1
  9
$DIMTVP
 40
0.0
  9
$DIMTIX
 70
0
  9
$DIMSOXD
 70
0
  9
$DIMSAH
 70
0
  9
$DIMBLK1
  1

  9
$DIMBLK2
  1

  9
$DIMSTYLE
  2
ISO-25
  9
$DIMCLRD
 70
0
  9
$DIMCLRE
 70
0
  9
$DIMCLRT
 70
0
  9
$DIMTFAC
 40
1.0
  9
$DIMGAP
 40
0.625
  9
$DIMJUST
 70
0
  9
$DIMSD1
 70
0
  9
$DIMSD2
 70
0
  9
$DIMTOLJ
 70
0
  9
$DIMTZIN
 70
8
  9
$DIMALTZ
 70
0
  9
$DIMALTTZ
 70
0
  9
$DIMUPT
 70
0
  9
$DIMDEC
 70
2
  9
$DIMTDEC
 70
2
  9
$DIMALTU
 70
2
  9
$DIMALTTD
 70
3
  9
$DIMTXSTY
  7
Standard
  9
$DIMAUNIT
 70
0
  9
$DIMADEC
 70
0
  9
$DIMALTRND
 40
0.0
  9
$DIMAZIN
 70
0
  9
$DIMDSEP
 70
44
  9
$DIMATFIT
 70
3
  9
$DIMFRAC
 70
0
  9
$DIMLDRBLK
  1

  9
$DIMLUNIT
 70
2
  9
$DIMLWD
 70
-2
  9
$DIMLWE
 70
-2
  9
$DIMTMOVE
 70
0
  9
$DIMFXL
 40
1.0
  9
$DIMFXLON
 70
0
  9
$DIMJOGANG
 40
0.785398163397
  9
$DIMTFILL
 70
0
  9
$DIMTFILLCLR
 70
0
  9
$DIMARCSYM
 70
0
  9
$DIMLTYPE
  6

  9
$DIMLTEX1
  6

  9
$DIMLTEX2
  6

  9
$DIMTXTDIRECTION
 70
0
  9
$LUNITS
 70
2
  9
$LUPREC
 70
4
  9
$SKETCHINC
 40
1.0
  9
$FILLETRAD
 40
10.0
  9
$AUNITS
 70
0
  9
$AUPREC
 70
2
  9
$MENU
  1
.
  9
$ELEVATION
 40
0.0
  9
$PELEVATION
 40
0.0
  9
$THICKNESS
 40
0.0
  9
$LIMCHECK
 70
0
  9
$CHAMFERA
 40
0.0
  9
$CHAMFERB
 40
0.0
  9
$CHAMFERC
 40
0.0
  9
$CHAMFERD
 40
0.0
  9
$SKPOLY
 70
0
  9
$TDCREATE
 40
2459848.7565625
  9
$TDUCREATE
 40
2458532.153996898
  9
$TDUPDATE
 40
2459848.7565625
  9
$TDUUPDATE
 40
2458532.1544311
  9
$TDINDWG
 40
0.0
  9
$TDUSRTIMER
 40
0.0
  9
$USRTIMER
 70
1
  9
$ANGBASE
 50
0.0
  9
$ANGDIR
 70
0
  9
$PDMODE
 70
0
  9
$PDSIZE
 40
0.0
  9
$PLINEWID
 40
0.0
  9
$SPLFRAME
 70
0
  9
$SPLINETYPE
 70
6
  9
$SPLINESEGS
 70
8
  9
$HANDSEED
  5
284
  9
$SURFTAB1
 70
6
  9
$SURFTAB2
 70
6
  9
$SURFTYPE
 70
6
  9
$SURFU
 70
6
  9
$SURFV
 70
6
  9
$UCSBASE
  2

  9
$UCSNAME
  2

  9
$UCSORG
 10
0.0
 20
0.0
 30
0.0
  9
$UCSXDIR
 10
1.0
 20
0.0
 30
0.0
  9
$UCSYDIR
 10
0.0
 20
1.0
 30
0.0
  9
$UCSORTHOREF
  2

  9
$UCSORTHOVIEW
 70
0
  9
$UCSORGTOP
 10
0.0
 20
0.0
 30
0.0
  9
$UCSORGBOTTOM
 10
0.0
 20
0.0
 30
0.0
  9
$UCSORGLEFT
 10
0.0
 20
0.0
 30
0.0
  9
$UCSORGRIGHT
 10
0.0
 20
0.0
 30
0.0
  9
$UCSORGFRONT
 10
0.0
 20
0.0
 30
0.0
  9
$UCSORGBACK
 10
0.0
 20
0.0
 30
0.0
  9
$PUCSBASE
  2

  9
$PUCSNAME
  2

  9
$PUCSORG
 10
0.0
 20
0.0
 30
0.0
  9
$PUCSXDIR
 10
1.0
 20
0.0
 30
0.0
  9
$PUCSYDIR
 10
0.0
 20
1.0
 30
0.0
  9
$PUCSORTHOREF
  2

  9
$PUCSORTHOVIEW
 70
0
  9
$PUCSORGTOP
 10
0.0
 20
0.0
 30
0.0
  9
$PUCSORGBOTTOM
 10
0.0
 20
0.0
 30
0.0
  9
$PUCSORGLEFT
 10
0.0
 20
0.0
 30
0.0
  9
$PUCSORGRIGHT
 10
0.0
 20
0.0
 30
0.0
  9
$PUCSORGFRONT
 10
0.0
 20
0.0
 30
0.0
  9
$PUCSORGBACK
 10
0.0
 20
0.0
 30
0.0
  9
$USERI1
 70
0
  9
$USERI2
 70
0
  9
$USERI3
 70
0
  9
$USERI4
 70
0
  9
$USERI5
 70
0
  9
$USERR1
 40
0.0
  9
$USERR2
 40
0.0
  9
$USERR3
 40
0.0
  9
$USERR4
 40
0.0
  9
$USERR5
 40
0.0
  9
$WORLDVIEW
 70
1
  9
$SHADEDGE
 70
3
  9
$SHADEDIF
 70
70
  9
$TILEMODE
 70
1
  9
$MAXACTVP
 70
64
  9
$PINSBASE
 10
0.0
 20
0.0
 30
0.0
  9
$PLIMCHECK
 70
0
  9
$PEXTMIN
 10
1e+20
 20
1e+20
 30
1e+20
  9
$PEXTMAX
 10
-1e+20
 20
-1e+20
 30
-1e+20
  9
$PLIMMIN
 10
0.0
 20
0.0
  9
$PLIMMAX
 10
420.0
 20
297.0
  9
$UNITMODE
 70
0
  9
$VISRETAIN
 70
1
  9
$PLINEGEN
 70
0
  9
$PSLTSCALE
 70
1
  9
$TREEDEPTH
 70
3020
  9
$CMLSTYLE
  2
Standard
  9
$CMLJUST
 70
0
  9
$CMLSCALE
 40
20.0
  9
$PROXYGRAPHICS
 70
1
  9
$MEASUREMENT
 70
1
  9
$CELWEIGHT
370
-1
  9
$ENDCAPS
280
0
  9
$JOINSTYLE
280
0
  9
$LWDISPLAY
290
0
  9
$INSUNITS
 70
6
  9
$HYPERLINKBASE
  1

  9
$STYLESHEET
  1

  9
$XEDIT
290
1
  9
$CEPSNTYPE
380
0
  9
$PSTYLEMODE
290
1
  9
$FINGERPRINTGUID
  2
{B9198505-5499-456E-B496-9ED79B9392E2}
  9
$VERSIONGUID
  2
{101157D4-197A-42AB-BF21-9F888E98192A}
  9
$EXTNAMES
290
1
  9
$PSVPSCALE
 40
0.0
  9
$OLESTARTUP
290
0
  9
$SORTENTS
280
127
  9
$INDEXCTL
280
0
  9
$HIDETEXT
280
1
  9
$XCLIPFRAME
280
0
  9
$HALOGAP
280
0
  9
$OBSCOLOR
 70
257
  9
$OBSLTYPE
280
0
  9
$INTERSECTIONDISPLAY
280
0
  9
$INTERSECTIONCOLOR
 70
257
  9
$DIMASSOC
280
2
  9
$PROJECTNAME
  1

  9
$CAMERADISPLAY
290
0
  9
$LENSLENGTH
 40
50.0
  9
$CAMERAHEIGHT
 40
0.0
  9
$STEPSPERSEC
 40
24.0
  9
$STEPSIZE
 40
100.0
  9
$3DDWFPREC
 40
2.0
  9
$PSOLWIDTH
 40
0.005
  9
$PSOLHEIGHT
 40
0.08
  9
$LOFTANG1
 40
1.570796326795
  9
$LOFTANG2
 40
1.570796326795
  9
$LOFTMAG1
 40
0.0
  9
$LOFTMAG2
 40
0.0
  9
$LOFTPARAM
 70
7
  9
$LOFTNORMALS
280
1
  9
$LATITUDE
 40
37.795
  9
$LONGITUDE
 40
-122.394
  9
$NORTHDIRECTION
 40
0.0
  9
$TIMEZONE
 70
-8000
  9
$LIGHTGLYPHDISPLAY
280
1
  9
$TILEMODELIGHTSYNCH
280
1
  9
$CMATERIAL
347
20
  9
$SOLIDHIST
280
0
  9
$SHOWHIST
280
1
  9
$DWFFRAME
280
2
  9
$DGNFRAME
280
2
  9
$REALWORLDSCALE
290
1
  9
$INTERFERECOLOR
 62
256
  9
$CSHADOW
280
0
  9
$SHADOWPLANELOCATION
 40
0.0
  0
ENDSEC
  0
SECTION
  2
CLASSES
  0
CLASS
  1
ACDBDICTIONARYWDFLT
  2
AcDbDictionaryWithDefault
  3
ObjectDBX Classes
 90
0
 91
0
280
0
281
0
  0
CLASS
  1
SUN
  2
AcDbSun
  3
SCENEOE
 90
1153
 91
0
280
0
281
0
  0
CLASS
  1
VISUALSTYLE
  2
AcDbVisualStyle
  3
ObjectDBX Classes
 90
4095
 91
0
280
0
281
0
  0
CLASS
  1
MATERIAL
  2
AcDbMaterial
  3
ObjectDBX Classes
 90
1153
 91
0
280
0
281
0
  0
CLASS
  1
SCALE
  2
AcDbScale
  3
ObjectDBX Classes
 90
1153
 91
0
280
0
281
0
  0
CLASS
  1
TABLESTYLE
  2
AcDbTableStyle
  3
ObjectDBX Classes
 90
4095
 91
0
280
0
281
0
  0
CLASS
  1
MLEADERSTYLE
  2
AcDbMLeaderStyle
  3
ACDB_MLEADERSTYLE_CLASS
 90
4095
 91
0
280
0
281
0
  0
CLASS
  1
DICTIONARYVAR
  2
AcDbDictionaryVar
  3
ObjectDBX Classes
 90
0
 91
0
280
0
281
0
  0
CLASS
  1
CELLSTYLEMAP
  2
AcDbCellStyleMap
  3
ObjectDBX Classes
 90
1152
 91
0
280
0
281
0
  0
CLASS
  1
MENTALRAYRENDERSETTINGS
  2
AcDbMentalRayRenderSettings
  3
SCENEOE
 90
1024
 91
0
280
0
281
0
  0
CLASS
  1
ACDBDETAILVIEWSTYLE
  2
AcDbDetailViewStyle
  3
ObjectDBX Classes
 90
1025
 91
0
280
0
281
0
  0
CLASS
  1
ACDBSECTIONVIEWSTYLE
  2
AcDbSectionViewStyle
  3
ObjectDBX Classes
 90
1025
 91
0
280
0
281
0
  0
CLASS
  1
RASTERVARIABLES
  2
AcDbRasterVariables
  3
ISM
 90
0
 91
0
280
0
281
0
  0
CLASS
  1
LAYOUT
  2
AcDbLayout
  3
ObjectDBX Classes
 90
0
 91
0
280
0
281
0
  0
CLASS
  1
ACDBPLACEHOLDER
  2
AcDbPlaceHolder
  3
ObjectDBX Classes
 90
0
 91
0
280
0
281
0
  0
ENDSEC
  0
SECTION
  2
TABLES
  0
TABLE
  2
VPORT
  5
8
330
0
100
AcDbSymbolTable
 70
1
  0
VPORT
  5
23
330
8
100
AcDbSymbolTableRecord
100
AcDbViewportTableRecord
  2
*Active
 70
0
 10
0.0
 20
0.0
 11
1.0
 21
1.0
 12
0.0
 22
0.0
 13
0.0
 23
0.0
 14
0.5
 24
0.5
 15
0.5
 25
0.5
 16
0.0
 26
0.0
 36
1.0
 17
0.0
 27
0.0
 37
0.0
 40
1000.0
 41
1.34
 42
50.0
 43
0.0
 44
0.0
 50
0.0
 51
0.0
 71
0
 72
1000
 73
1
 74
3
 75
0
 76
0
 77
0
 78
0
281
0
 65
0
146
0.0
  0
ENDTAB
  0
TABLE
  2
LTYPE
  5
2
330
0
100
AcDbSymbolTable
 70
3
  0
LTYPE
  5
24
330
2
100
AcDbSymbolTableRecord
100
AcDbLinetypeTableRecord
  2
ByBlock
 70
0
  3

 72
65
 73
0
 40
0.0
  0
LTYPE
  5
25
330
2
100
AcDbSymbolTableRecord
100
AcDbLinetypeTableRecord
  2
ByLayer
 70
0
  3

 72
65
 73
0
 40
0.0
  0
LTYPE
  5
26
330
2
100
AcDbSymbolTableRecord
100
AcDbLinetypeTableRecord
  2
Continuous
 70
0
  3

 72
65
 73
0
 40
0.0
  0
ENDTAB
  0
TABLE
  2
LAYER
  5
1
330
0
100
AcDbSymbolTable
 70
2
  0
LAYER
  5
27
330
1
100
AcDbSymbolTableRecord
100
AcDbLayerTableRecord
  2
0
 70
0
 62
7
  6
Continuous
370
-3
390
13
347
21
  0
LAYER
  5
28
330
1
100
AcDbSymbolTableRecord
100
AcDbLayerTableRecord
  2
Defpoints
 70
0
 62
7
  6
Continuous
290
0
370
-3
390
13
347
21
  0
ENDTAB
  0
TABLE
  2
STYLE
  5
5
330
0
100
AcDbSymbolTable
 70
1
  0
STYLE
  5
29
330
5
100
AcDbSymbolTableRecord
100
AcDbTextStyleTableRecord
  2
Standard
 70
0
 40
0.0
 41
1.0
 50
0.0
 71
0
 42
2.5
  3
txt
  4

  0
ENDTAB
  0
TABLE
  2
VIEW
  5
7
330
0
100
AcDbSymbolTable
 70
0
  0
ENDTAB
  0
TABLE
  2
UCS
  5
6
330
0
100
AcDbSymbolTable
 70
0
  0
ENDTAB
  0
TABLE
  2
APPID
  5
3
330
0
100
AcDbSymbolTable
 70
3
  0
APPID
  5
2A
330
3
100
AcDbSymbolTableRecord
100
AcDbRegAppTableRecord
  2
ACAD
 70
0
  0
APPID
  5
281
330
3
100
AcDbSymbolTableRecord
100
AcDbRegAppTableRecord
  2
HATCHBACKGROUNDCOLOR
 70
0
  0
APPID
  5
282
330
3
100
AcDbSymbolTableRecord
100
AcDbRegAppTableRecord
  2
EZDXF
 70
0
  0
ENDTAB
  0
TABLE
  2
DIMSTYLE
  5
4
330
0
100
AcDbSymbolTable
 70
1
100
AcDbDimStyleTable
  0
DIMSTYLE
105
2B
330
4
100
AcDbSymbolTableRecord
100
AcDbDimStyleTableRecord
  2
Standard
 70
0
 40
1.0
 41
2.5
 42
0.625
 43
3.75
 44
1.25
 45
0.0
 46
0.0
 47
0.0
 48
0.0
 49
2.5
140
2.5
141
2.5
142
0.0
143
0.03937007874
144
1.0
145
0.0
146
1.0
147
0.625
148
0.0
 69
0
 70
0
 71
0
 72
0
 73
0
 74
0
 75
0
 76
0
 77
1
 78
8
 79
3
170
0
171
3
172
1
173
0
174
0
175
0
176
0
177
0
178
0
179
2
271
2
272
2
273
2
274
3
275
0
276
0
277
2
278
44
279
0
280
0
281
0
282
0
283
0
284
8
285
0
286
0
288
0
289
3
290
0
371
-2
372
-2
  0
ENDTAB
  0
TABLE
  2
BLOCK_RECORD
  5
9
330
0
100
AcDbSymbolTable
 70
2
  0
BLOCK_RECORD
  5
17
330
9
100
AcDbSymbolTableRecord
100
AcDbBlockTableRecord
  2
*Model_Space
340
1A
 70
0
280
1
281
0
  0
BLOCK_RECORD
  5
1B
330
9
100
AcDbSymbolTableRecord
100
AcDbBlockTableRecord
  2
*Paper_Space
340
1E
 70
0
280
1
281
0
  0
ENDTAB
  0
ENDSEC
  0
SECTION
  2
BLOCKS
  0
BLOCK
  5
18
330
17
100
AcDbEntity
  8
0
100
AcDbBlockBegin
  2
*Model_Space
 70
0
 10
0.0
 20
0.0
 30
0.0
  3
*Model_Space
  1

  0
ENDBLK
  5
19
330
17
100
AcDbEntity
  8
0
100
AcDbBlockEnd
  0
BLOCK
  5
1C
330
1B
100
AcDbEntity
  8
0
100
AcDbBlockBegin
  2
*Paper_Space
 70
0
 10
0.0
 20
0.0
 30
0.0
  3
*Paper_Space
  1

  0
ENDBLK
  5
1D
330
1B
100
AcDbEntity
  8
0
100
AcDbBlockEnd
  0
ENDSEC
  0
SECTION
  2
ENTITIES
  0
POLYLINE
  5
2F
330
17
100
AcDbEntity
  8
0
100
AcDb2dPolyline
 66
1
 10
0.0
 20
0.0
 30
0.0
 70
0
  0
VERTEX
  5
31
330
17
100
AcDbEntity
  8
0
100
AcDbVertex
100
AcDb2dVertex
 10
7.0062450938822
 20
155.28779750277002
 30
0.0
 70
0
  0
VERTEX
  5
32
330
17
100
AcDbEntity
  8
0
100
AcDbVertex
100
AcDb2dVertex
 10
28.041669972434278
 20
121.35297483716087
 30
0.0
 70
0
  0
VERTEX
  5
33
330
17
100
AcDbEntity
  8
0
100
AcDbVertex
100
AcDb2dVertex
 10
24.291627132325544
 20
72.66745868217399
 30
0.0
 70
0
  0
VERTEX
  5
34
330
17
100
AcDbEntity
  8
0
100
AcDbVertex
100
AcDb2dVertex
 10
67.38908332635542
 20
67.82032349114934
 30
0.0
 70
0
  0
VERTEX
  5
35
330
17
100
AcDbEntity
  8
0
100
AcDbVertex
100
AcDb2dVertex
 10
142.5808455712795
 20
3.8710344449332283
 30
0.0
 70
0
  0
VERTEX
  5
36
330
17
100
AcDbEntity
  8
0
100
AcDbVertex
100
AcDb2dVertex
 10
154.94338994142353
 20
89.93787484823486
 30
0.0
 70
0
  0
VERTEX
  5
37
330
17
100
AcDbEntity
  8
0
100
AcDbVertex
100
AcDb2dVertex
 10
186.72503417749672
 20
118.25992523444253
 30
0.0
 70
0
  0
VERTEX
  5
38
330
17
100
AcDbEntity
  8
0
100
AcDbVertex
100
AcDb2dVertex
 10
130.86991556844163
 20
166.93443620428096
 30
0.0
 70
0
  0
VERTEX
  5
39
330
17
100
AcDbEntity
  8
0
100
AcDbVertex
100
AcDb2dVertex
 10
138.15028572233163
 20
246.84126134049689
 30
0.0
 70
0
  0
VERTEX
  5
3A
330
17
100
AcDbEntity
  8
0
100
AcDbVertex
100
AcDb2dVertex
 10
75.16998898300608
 20
282.4163876098604
 30
0.0
 70
0
  0
VERTEX
  5
3B
330
17
100
AcDbEntity
  8
0
100
AcDbVertex
100
AcDb2dVertex
 10
21.785062797831785
 20
210.0767221178333
 30
0.0
 70
0
  0
VERTEX
  5
3C
330
17
100
AcDbEntity
  8
0
100
AcDbVertex
100
AcDb2dVertex
 10
7.0062450938822
 20
155.28779750277002
 30
0.0
 70
0
  0
SEQEND
  5
30
330
17
100
AcDbEntity
  8
0
  0
POLYLINE
  5
3D
330
17
100
AcDbEntity
  8
0
100
AcDb2dPolyline
 66
1
 10
0.0
 20
0.0
 30
0.0
 70
0
  0
VERTEX
  5
3F
330
17
100
AcDbEntity
  8
0
100
AcDbVertex
100
AcDb2dVertex
 10
157.04890069803156
 20
507.0663158912659
 30
0.0
 70
0
  0
VERTEX
  5
40
330
17
100
AcDbEntity
  8
0
100
AcDbVertex
100
AcDb2dVertex
 10
94.17427924632037
 20
467.309466521979
 30
0.0
 70
0
  0
VERTEX
  5
41
330
17
100
AcDbEntity
  8
0
100
AcDbVertex
100
AcDb2dVertex
 10
42.62895163893589
 20
487.4373191446562
 30
0.0
 70
0
  0
VERTEX
  5
42
330
17
100
AcDbEntity
  8
0
100
AcDbVertex
100
AcDb2dVertex
 10
49.90964043898347
 20
408.5575918550551
 30
0.0
 70
0
  0
VERTEX
  5
43
330
17
100
AcDbEntity
  8
0
100
AcDbVertex
100
AcDb2dVertex
 10
5.340646961673286
 20
380.95288048338654
 30
0.0
 70
0
  0
VERTEX
  5
44
330
17
100
AcDbEntity
  8
0
100
AcDbVertex
100
AcDb2dVertex
 10
12.052098554176922
 20
330.3963415771478
 30
0.0
 70
0
  0
VERTEX
  5
45
330
17
100
AcDbEntity
  8
0
100
AcDbVertex
100
AcDb2dVertex
 10
58.25107911470076
 20
317.18131498449117
 30
0.0
 70
0
  0
VERTEX
  5
46
330
17
100
AcDbEntity
  8
0
100
AcDbVertex
100
AcDb2dVertex
 10
107.39718993863022
 20
279.2280036697927
 30
0.0
 70
0
  0
VERTEX
  5
47
330
17
100
AcDbEntity
  8
0
100
AcDbVertex
100
AcDb2dVertex
 10
132.4245566784069
 20
344.74013260689486
 30
0.0
 70
0
  0
VERTEX
  5
48
330
17
100
AcDbEntity
  8
0
100
AcDbVertex
100
AcDb2dVertex
 10
223.82784878093338
 20
324.8804037181561
 30
0.0
 70
0
  0
VERTEX
  5
49
330
17
100
AcDbEntity
  8
0
100
AcDbVertex
100
AcDb2dVertex
 10
158.1245539427428
 20
391.1917162820108
 30
0.0
 70
0
  0
VERTEX
  5
4A
330
17
100
AcDbEntity
  8
0
100
AcDbVertex
100
AcDb2dVertex
 10
158.43068124740938
 20
416.36267280215554
 30
0.0
 70
0
  0
VERTEX
  5
4B
330
17
100
AcDbEntity
  8
0
100
AcDbVertex
100
AcDb2dVertex
 10
157.04890069803156
 20
507.0663158912659
 30
0.0
 70
0
  0
SEQEND
  5
3E
330
17
100
AcDbEntity
  8
0
  0
POLYLINE
  5
4C
330
17
100
AcDbEntity
  8
0
100
AcDb2dPolyline
 66
1
 10
0.0
 20
0.0
 30
0.0
 70
0
  0
VERTEX
  5
4E
330
17
100
AcDbEntity
  8
0
100
AcDbVertex
100
AcDb2dVertex
 10
148.6740671352637
 20
713.7803981299556
 30
0.0
 70
0
  0
VERTEX
  5
4F
330
17
100
AcDbEntity
  8
0
100
AcDbVertex
100
AcDb2dVertex
 10
65.46877010442053
 20
733.4952507258234
 30
0.0
 70
0
  0
VERTEX
  5
50
330
17
100
AcDbEntity
  8
0
100
AcDbVertex
100
AcDb2dVertex
 10
61.38106283439826
 20
636.1765843687482
 30
0.0
 70
0
  0
VERTEX
  5
51
330
17
100
AcDbEntity
  8
0
100
AcDbVertex
100
AcDb2dVertex
 10
3.0430939739294636
 20
552.0683781374171
 30
0.0
 70
0
  0
VERTEX
  5
52
330
17
100
AcDbEntity
  8
0
100
AcDbVertex
100
AcDb2dVertex
 10
122.49124128361595
 20
501.2151022704943
 30
0.0
 70
0
  0
VERTEX
  5
53
330
17
100
AcDbEntity
  8
0
100
AcDbVertex
100
AcDb2dVertex
 10
190.865664732699
 20
591.7471541959227
 30
0.0
 70
0
  0
VERTEX
  5
54
330
17
100
AcDbEntity
  8
0
100
AcDbVertex
100
AcDb2dVertex
 10
220.87283589649084
 20
670.4045219407445
 30
0.0
 70
0
  0
VERTEX
  5
55
330
17
100
AcDbEntity
  8
0
100
AcDbVertex
100
AcDb2dVertex
 10
148.6740671352637
 20
713.7803981299556
 30
0.0
 70
0
  0
SEQEND
  5
4D
330
17
100
AcDbEntity
  8
0
  0
POLYLINE
  5
56
330
17
100
AcDbEntity
  8
0
100
AcDb2dPolyline
 66
1
 10
0.0
 20
0.0
 30
0.0
 70
0
  0
VERTEX
  5
58
330
17
100
AcDbEntity
  8
0
100
AcDbVertex
100
AcDb2dVertex
 10
151.0719549431314
 20
933.3098157536687
 30
0.0
 70
0
  0
VERTEX
  5
59
330
17
100
AcDbEntity
  8
0
100
AcDbVertex
100
AcDb2dVertex
 10
83.6718263028454
 20
954.3711998130058
 30
0.0
 70
0
  0
VERTEX
  5
5A
330
17
100
AcDbEntity
  8
0
100
AcDbVertex
100
AcDb2dVertex
 10
44.09963395638283
 20
921.8449926148777
 30
0.0
 70
0
  0
VERTEX
  5
5B
330
17
100
AcDbEntity
  8
0
100
AcDbVertex
100
AcDb2dVertex
 10
5.916173644121557
 20
886.2774596171985
 30
0.0
 70
0
  0
VERTEX
  5
5C
330
17
100
AcDbEntity
  8
0
100
AcDbVertex
100
AcDb2dVertex
 10
65.14241783895397
 20
834.8782943465118
 30
0.0
 70
0
  0
VERTEX
  5
5D
330
17
100
AcDbEntity
  8
0
100
AcDbVertex
100
AcDb2dVertex
 10
72.60597860142147
 20
793.4877830343017
 30
0.0
 70
0
  0
VERTEX
  5
5E
330
17
100
AcDbEntity
  8
0
100
AcDbVertex
100
AcDb2dVertex
 10
111.80494332119852
 20
806.3240498864585
 30
0.0
 70
0
  0
VERTEX
  5
5F
330
17
100
AcDbEntity
  8
0
100
AcDbVertex
100
AcDb2dVertex
 10
164.0942253186267
 20
718.9645353360826
 30
0.0
 70
0
  0
VERTEX
  5
60
330
17
100
AcDbEntity
  8
0
100
AcDbVertex
100
AcDb2dVertex
 10
177.02988728131194
 20
818.1696403636774
 30
0.0
 70
0
  0
VERTEX
  5
61
330
17
100
AcDbEntity
  8
0
100
AcDbVertex
100
AcDb2dVertex
 10
216.44834634816962
 20
849.6003774424215
 30
0.0
 70
0
  0
VERTEX
  5
62
330
17
100
AcDbEntity
  8
0
100
AcDbVertex
100
AcDb2dVertex
 10
212.73737888147062
 20
919.646775759094
 30
0.0
 70
0
  0
VERTEX
  5
63
330
17
100
AcDbEntity
  8
0
100
AcDbVertex
100
AcDb2dVertex
 10
151.0719549431314
 20
933.3098157536687
 30
0.0
 70
0
  0
SEQEND
  5
57
330
17
100
AcDbEntity
  8
0
  0
POLYLINE
  5
64
330
17
100
AcDbEntity
  8
0
100
AcDb2dPolyline
 66
1
 10
0.0
 20
0.0
 30
0.0
 70
0
  0
VERTEX
  5
66
330
17
100
AcDbEntity
  8
0
100
AcDbVertex
100
AcDb2dVertex
 10
236.86441013321206
 20
135.11468845709297
 30
0.0
 70
0
  0
VERTEX
  5
67
330
17
100
AcDbEntity
  8
0
100
AcDbVertex
100
AcDb2dVertex
 10
274.7391397728941
 20
40.37133963976285
 30
0.0
 70
0
  0
VERTEX
  5
68
330
17
100
AcDbEntity
  8
0
100
AcDbVertex
100
AcDb2dVertex
 10
322.90752377939407
 20
106.09074528381572
 30
0.0
 70
0
  0
VERTEX
  5
69
330
17
100
AcDbEntity
  8
0
100
AcDbVertex
100
AcDb2dVertex
 10
342.25723392886675
 20
164.60294360929572
 30
0.0
 70
0
  0
VERTEX
  5
6A
330
17
100
AcDbEntity
  8
0
100
AcDbVertex
100
AcDb2dVertex
 10
289.78995378806246
 20
185.3451625845894
 30
0.0
 70
0
  0
VERTEX
  5
6B
330
17
100
AcDbEntity
  8
0
100
AcDbVertex
100
AcDb2dVertex
 10
335.3963503472382
 20
282.3059297968887
 30
0.0
 70
0
  0
VERTEX
  5
6C
330
17
100
AcDbEntity
  8
0
100
AcDbVertex
100
AcDb2dVertex
 10
258.7806099263588
 20
275.29671739444547
 30
0.0
 70
0
  0
VERTEX
  5
6D
330
17
100
AcDbEntity
  8
0
100
AcDbVertex
100
AcDb2dVertex
 10
156.08310236563898
 20
290.9661416494716
 30
0.0
 70
0
  0
VERTEX
  5
6E
330
17
100
AcDbEntity
  8
0
100
AcDbVertex
100
AcDb2dVertex
 10
140.19155916019284
 20
173.73049292436409
 30
0.0
 70
0
  0
VERTEX
  5
6F
330
17
100
AcDbEntity
  8
0
100
AcDbVertex
100
AcDb2dVertex
 10
236.86441013321206
 20
135.11468845709297
 30
0.0
 70
0
  0
SEQEND
  5
65
330
17
100
AcDbEntity
  8
0
  0
POLYLINE
  5
70
330
17
100
AcDbEntity
  8
0
100
AcDb2dPolyline
 66
1
 10
0.0
 20
0.0
 30
0.0
 70
0
  0
VERTEX
  5
72
330
17
100
AcDbEntity
  8
0
100
AcDbVertex
100
AcDb2dVertex
 10
165.04276839335742
 20
404.13191761428
 30
0.0
 70
0
  0
VERTEX
  5
73
330
17
100
AcDbEntity
  8
0
100
AcDbVertex
100
AcDb2dVertex
 10
248.37737299260016
 20
319.1674855844207
 30
0.0
 70
0
  0
VERTEX
  5
74
330
17
100
AcDbEntity
  8
0
100
AcDbVertex
100
AcDb2dVertex
 10
316.0209020097976
 20
394.0687337578395
 30
0.0
 70
0
  0
VERTEX
  5
75
330
17
100
AcDbEntity
  8
0
100
AcDbVertex
100
AcDb2dVertex
 10
360.15299958376664
 20
449.996746822536
 30
0.0
 70
0
  0
VERTEX
  5
76
330
17
100
AcDbEntity
  8
0
100
AcDbVertex
100
AcDb2dVertex
 10
347.00890502378127
 20
545.8778157601314
 30
0.0
 70
0
  0
VERTEX
  5
77
330
17
100
AcDbEntity
  8
0
100
AcDbVertex
100
AcDb2dVertex
 10
219.5739333221981
 20
577.3384156128989
 30
0.0
 70
0
  0
VERTEX
  5
78
330
17
100
AcDbEntity
  8
0
100
AcDbVertex
100
AcDb2dVertex
 10
163.91658819438388
 20
495.3605824856283
 30
0.0
 70
0
  0
VERTEX
  5
79
330
17
100
AcDbEntity
  8
0
100
AcDbVertex
100
AcDb2dVertex
 10
165.04276839335742
 20
404.13191761428
 30
0.0
 70
0
  0
SEQEND
  5
71
330
17
100
AcDbEntity
  8
0
  0
POLYLINE
  5
7A
330
17
100
AcDbEntity
  8
0
100
AcDb2dPolyline
 66
1
 10
0.0
 20
0.0
 30
0.0
 70
0
  0
VERTEX
  5
7C
330
17
100
AcDbEntity
  8
0
100
AcDbVertex
100
AcDb2dVertex
 10
351.8671136713643
 20
844.5664096415018
 30
0.0
 70
0
  0
VERTEX
  5
7D
330
17
100
AcDbEntity
  8
0
100
AcDbVertex
100
AcDb2dVertex
 10
257.09367201672524
 20
861.6150894682542
 30
0.0
 70
0
  0
VERTEX
  5
7E
330
17
100
AcDbEntity
  8
0
100
AcDbVertex
100
AcDb2dVertex
 10
187.28512611541458
 20
809.2558346496086
 30
0.0
 70
0
  0
VERTEX
  5
7F
330
17
100
AcDbEntity
  8
0
100
AcDbVertex
100
AcDb2dVertex
 10
198.9330490568363
 20
732.1765113618009
 30
0.0
 70
0
  0
VERTEX
  5
80
330
17
100
AcDbEntity
  8
0
100
AcDbVertex
100
AcDb2dVertex
 10
212.27461397014696
 20
687.8853948730851
 30
0.0
 70
0
  0
VERTEX
  5
81
330
17
100
AcDbEntity
  8
0
100
AcDbVertex
100
AcDb2dVertex
 10
286.89170246529306
 20
715.2162568619791
 30
0.0
 70
0
  0
VERTEX
  5
82
330
17
100
AcDbEntity
  8
0
100
AcDbVertex
100
AcDb2dVertex
 10
249.91663962621953
 20
630.5708911673252
 30
0.0
 70
0
  0
VERTEX
  5
83
330
17
100
AcDbEntity
  8
0
100
AcDbVertex
100
AcDb2dVertex
 10
298.13479504228224
 20
651.1765061140904
 30
0.0
 70
0
  0
VERTEX
  5
84
330
17
100
AcDbEntity
  8
0
100
AcDbVertex
100
AcDb2dVertex
 10
318.82686407350946
 20
684.4522095633366
 30
0.0
 70
0
  0
VERTEX
  5
85
330
17
100
AcDbEntity
  8
0
100
AcDbVertex
100
AcDb2dVertex
 10
397.56028941971306
 20
674.1762930296318
 30
0.0
 70
0
  0
VERTEX
  5
86
330
17
100
AcDbEntity
  8
0
100
AcDbVertex
100
AcDb2dVertex
 10
359.5680757107339
 20
718.1882116082753
 30
0.0
 70
0
  0
VERTEX
  5
87
330
17
100
AcDbEntity
  8
0
100
AcDbVertex
100
AcDb2dVertex
 10
387.4511472124395
 20
787.8987460058235
 30
0.0
 70
0
  0
VERTEX
  5
88
330
17
100
AcDbEntity
  8
0
100
AcDbVertex
100
AcDb2dVertex
 10
351.8671136713643
 20
844.5664096415018
 30
0.0
 70
0
  0
SEQEND
  5
7B
330
17
100
AcDbEntity
  8
0
  0
POLYLINE
  5
89
330
17
100
AcDbEntity
  8
0
100
AcDb2dPolyline
 66
1
 10
0.0
 20
0.0
 30
0.0
 70
0
  0
VERTEX
  5
8B
330
17
100
AcDbEntity
  8
0
100
AcDbVertex
100
AcDb2dVertex
 10
459.10671579836793
 20
451.8917469295675
 30
0.0
 70
0
  0
VERTEX
  5
8C
330
17
100
AcDbEntity
  8
0
100
AcDbVertex
100
AcDb2dVertex
 10
385.2715482859592
 20
422.9494572723018
 30
0.0
 70
0
  0
VERTEX
  5
8D
330
17
100
AcDbEntity
  8
0
100
AcDbVertex
100
AcDb2dVertex
 10
321.7954920808721
 20
383.11870508341354
 30
0.0
 70
0
  0
VERTEX
  5
8E
330
17
100
AcDbEntity
  8
0
100
AcDbVertex
100
AcDb2dVertex
 10
318.2881283344029
 20
319.3461555378732
 30
0.0
 70
0
  0
VERTEX
  5
8F
330
17
100
AcDbEntity
  8
0
100
AcDbVertex
100
AcDb2dVertex
 10
375.0313941542396
 20
246.52839302035758
 30
0.0
 70
0
  0
VERTEX
  5
90
330
17
100
AcDbEntity
  8
0
100
AcDbVertex
100
AcDb2dVertex
 10
448.7617381403685
 20
204.26985660079362
 30
0.0
 70
0
  0
VERTEX
  5
91
330
17
100
AcDbEntity
  8
0
100
AcDbVertex
100
AcDb2dVertex
 10
498.9149675595469
 20
264.7762351000813
 30
0.0
 70
0
  0
VERTEX
  5
92
330
17
100
AcDbEntity
  8
0
100
AcDbVertex
100
AcDb2dVertex
 10
502.95588937069283
 20
324.71377230900976
 30
0.0
 70
0
  0
VERTEX
  5
93
330
17
100
AcDbEntity
  8
0
100
AcDbVertex
100
AcDb2dVertex
 10
519.5684066432623
 20
387.0256372598942
 30
0.0
 70
0
  0
VERTEX
  5
94
330
17
100
AcDbEntity
  8
0
100
AcDbVertex
100
AcDb2dVertex
 10
459.10671579836793
 20
451.8917469295675
 30
0.0
 70
0
  0
SEQEND
  5
8A
330
17
100
AcDbEntity
  8
0
  0
POLYLINE
  5
95
330
17
100
AcDbEntity
  8
0
100
AcDb2dPolyline
 66
1
 10
0.0
 20
0.0
 30
0.0
 70
0
  0
VERTEX
  5
97
330
17
100
AcDbEntity
  8
0
100
AcDbVertex
100
AcDb2dVertex
 10
348.1432094916331
 20
869.9752757223695
 30
0.0
 70
0
  0
VERTEX
  5
98
330
17
100
AcDbEntity
  8
0
100
AcDbVertex
100
AcDb2dVertex
 10
364.5200242744214
 20
849.6044090033948
 30
0.0
 70
0
  0
VERTEX
  5
99
330
17
100
AcDbEntity
  8
0
100
AcDbVertex
100
AcDb2dVertex
 10
415.8129965044667
 20
781.6422732871384
 30
0.0
 70
0
  0
VERTEX
  5
9A
330
17
100
AcDbEntity
  8
0
100
AcDbVertex
100
AcDb2dVertex
 10
434.25810598751383
 20
844.1512795225377
 30
0.0
 70
0
  0
VERTEX
  5
9B
330
17
100
AcDbEntity
  8
0
100
AcDbVertex
100
AcDb2dVertex
 10
469.18898742546503
 20
879.7780417247336
 30
0.0
 70
0
  0
VERTEX
  5
9C
330
17
100
AcDbEntity
  8
0
100
AcDbVertex
100
AcDb2dVertex
 10
456.2666392531432
 20
915.2173148402923
 30
0.0
 70
0
  0
VERTEX
  5
9D
330
17
100
AcDbEntity
  8
0
100
AcDbVertex
100
AcDb2dVertex
 10
460.11002376189333
 20
987.7670984619213
 30
0.0
 70
0
  0
VERTEX
  5
9E
330
17
100
AcDbEntity
  8
0
100
AcDbVertex
100
AcDb2dVertex
 10
385.09135846394264
 20
984.8563407985083
 30
0.0
 70
0
  0
VERTEX
  5
9F
330
17
100
AcDbEntity
  8
0
100
AcDbVertex
100
AcDb2dVertex
 10
335.7250854547706
 20
992.3492594929891
 30
0.0
 70
0
  0
VERTEX
  5
A0
330
17
100
AcDbEntity
  8
0
100
AcDbVertex
100
AcDb2dVertex
 10
349.2433740294804
 20
920.8470487785575
 30
0.0
 70
0
  0
VERTEX
  5
A1
330
17
100
AcDbEntity
  8
0
100
AcDbVertex
100
AcDb2dVertex
 10
246.19676511892595
 20
877.8927101441192
 30
0.0
 70
0
  0
VERTEX
  5
A2
330
17
100
AcDbEntity
  8
0
100
AcDbVertex
100
AcDb2dVertex
 10
348.1432094916331
 20
869.9752757223695
 30
0.0
 70
0
  0
SEQEND
  5
96
330
17
100
AcDbEntity
  8
0
  0
POLYLINE
  5
A3
330
17
100
AcDbEntity
  8
0
100
AcDb2dPolyline
 66
1
 10
0.0
 20
0.0
 30
0.0
 70
0
  0
VERTEX
  5
A5
330
17
100
AcDbEntity
  8
0
100
AcDbVertex
100
AcDb2dVertex
 10
281.6489987263757
 20
610.1012153299151
 30
0.0
 70
0
  0
VERTEX
  5
A6
330
17
100
AcDbEntity
  8
0
100
AcDbVertex
100
AcDb2dVertex
 10
361.1689867615895
 20
548.2067179593209
 30
0.0
 70
0
  0
VERTEX
  5
A7
330
17
100
AcDbEntity
  8
0
100
AcDbVertex
100
AcDb2dVertex
 10
373.9733806460134
 20
439.0926304425047
 30
0.0
 70
0
  0
VERTEX
  5
A8
330
17
100
AcDbEntity
  8
0
100
AcDbVertex
100
AcDb2dVertex
 10
499.53292657308066
 20
473.17640571892133
 30
0.0
 70
0
  0
VERTEX
  5
A9
330
17
100
AcDbEntity
  8
0
100
AcDbVertex
100
AcDb2dVertex
 10
509.6049339705438
 20
597.6752800387252
 30
0.0
 70
0
  0
VERTEX
  5
AA
330
17
100
AcDbEntity
  8
0
100
AcDbVertex
100
AcDb2dVertex
 10
417.85417195370263
 20
610.8560606607579
 30
0.0
 70
0
  0
VERTEX
  5
AB
330
17
100
AcDbEntity
  8
0
100
AcDbVertex
100
AcDb2dVertex
 10
351.20837050787907
 20
647.4738694341871
 30
0.0
 70
0
  0
VERTEX
  5
AC
330
17
100
AcDbEntity
  8
0
100
AcDbVertex
100
AcDb2dVertex
 10
281.6489987263757
 20
610.1012153299151
 30
0.0
 70
0
  0
SEQEND
  5
A4
330
17
100
AcDbEntity
  8
0
  0
POLYLINE
  5
AD
330
17
100
AcDbEntity
  8
0
100
AcDb2dPolyline
 66
1
 10
0.0
 20
0.0
 30
0.0
 70
0
  0
VERTEX
  5
AF
330
17
100
AcDbEntity
  8
0
100
AcDbVertex
100
AcDb2dVertex
 10
572.4975379607778
 20
187.47243861929647
 30
0.0
 70
0
  0
VERTEX
  5
B0
330
17
100
AcDbEntity
  8
0
100
AcDbVertex
100
AcDb2dVertex
 10
370.97928881319496
 20
166.0301306061602
 30
0.0
 70
0
  0
VERTEX
  5
B1
330
17
100
AcDbEntity
  8
0
100
AcDbVertex
100
AcDb2dVertex
 10
308.94881966230264
 20
48.93022221659376
 30
0.0
 70
0
  0
VERTEX
  5
B2
330
17
100
AcDbEntity
  8
0
100
AcDbVertex
100
AcDb2dVertex
 10
536.06935901526
 20
7.799659619418691
 30
0.0
 70
0
  0
VERTEX
  5
B3
330
17
100
AcDbEntity
  8
0
100
AcDbVertex
100
AcDb2dVertex
 10
572.4975379607778
 20
187.47243861929647
 30
0.0
 70
0
  0
SEQEND
  5
AE
330
17
100
AcDbEntity
  8
0
  0
POLYLINE
  5
B4
330
17
100
AcDbEntity
  8
0
100
AcDb2dPolyline
 66
1
 10
0.0
 20
0.0
 30
0.0
 70
0
  0
VERTEX
  5
B6
330
17
100
AcDbEntity
  8
0
100
AcDbVertex
100
AcDb2dVertex
 10
442.60141132046795
 20
676.2679792839463
 30
0.0
 70
0
  0
VERTEX
  5
B7
330
17
100
AcDbEntity
  8
0
100
AcDbVertex
100
AcDb2dVertex
 10
457.7172746506415
 20
619.1609439662903
 30
0.0
 70
0
  0
VERTEX
  5
B8
330
17
100
AcDbEntity
  8
0
100
AcDbVertex
100
AcDb2dVertex
 10
502.98184833193716
 20
611.5964109941701
 30
0.0
 70
0
  0
VERTEX
  5
B9
330
17
100
AcDbEntity
  8
0
100
AcDbVertex
100
AcDb2dVertex
 10
540.8961502876267
 20
634.9838339142826
 30
0.0
 70
0
  0
VERTEX
  5
BA
330
17
100
AcDbEntity
  8
0
100
AcDbVertex
100
AcDb2dVertex
 10
579.3846688038802
 20
659.7270934795586
 30
0.0
 70
0
  0
VERTEX
  5
BB
330
17
100
AcDbEntity
  8
0
100
AcDbVertex
100
AcDb2dVertex
 10
571.2969649280215
 20
694.791793732069
 30
0.0
 70
0
  0
VERTEX
  5
BC
330
17
100
AcDbEntity
  8
0
100
AcDbVertex
100
AcDb2dVertex
 10
566.2741455334395
 20
716.3516295049866
 30
0.0
 70
0
  0
VERTEX
  5
BD
330
17
100
AcDbEntity
  8
0
100
AcDbVertex
100
AcDb2dVertex
 10
590.1463350874437
 20
762.1966453080138
 30
0.0
 70
0
  0
VERTEX
  5
BE
330
17
100
AcDbEntity
  8
0
100
AcDbVertex
100
AcDb2dVertex
 10
569.8014186525797
 20
859.7081208921063
 30
0.0
 70
0
  0
VERTEX
  5
BF
330
17
100
AcDbEntity
  8
0
100
AcDbVertex
100
AcDb2dVertex
 10
485.8294735110992
 20
847.728238335389
 30
0.0
 70
0
  0
VERTEX
  5
C0
330
17
100
AcDbEntity
  8
0
100
AcDbVertex
100
AcDb2dVertex
 10
438.86740529751853
 20
784.6773633181929
 30
0.0
 70
0
  0
VERTEX
  5
C1
330
17
100
AcDbEntity
  8
0
100
AcDbVertex
100
AcDb2dVertex
 10
394.12111458485015
 20
747.8388155040645
 30
0.0
 70
0
  0
VERTEX
  5
C2
330
17
100
AcDbEntity
  8
0
100
AcDbVertex
100
AcDb2dVertex
 10
442.60141132046795
 20
676.2679792839463
 30
0.0
 70
0
  0
SEQEND
  5
B5
330
17
100
AcDbEntity
  8
0
  0
POLYLINE
  5
C3
330
17
100
AcDbEntity
  8
0
100
AcDb2dPolyline
 66
1
 10
0.0
 20
0.0
 30
0.0
 70
0
  0
VERTEX
  5
C5
330
17
100
AcDbEntity
  8
0
100
AcDbVertex
100
AcDb2dVertex
 10
568.4257961017427
 20
291.5301129587085
 30
0.0
 70
0
  0
VERTEX
  5
C6
330
17
100
AcDbEntity
  8
0
100
AcDbVertex
100
AcDb2dVertex
 10
524.019653821316
 20
276.4220386250256
 30
0.0
 70
0
  0
VERTEX
  5
C7
330
17
100
AcDbEntity
  8
0
100
AcDbVertex
100
AcDb2dVertex
 10
487.4173495454269
 20
222.63504638536483
 30
0.0
 70
0
  0
VERTEX
  5
C8
330
17
100
AcDbEntity
  8
0
100
AcDbVertex
100
AcDb2dVertex
 10
560.7652188508323
 20
192.13752761724572
 30
0.0
 70
0
  0
VERTEX
  5
C9
330
17
100
AcDbEntity
  8
0
100
AcDbVertex
100
AcDb2dVertex
 10
597.1246504877059
 20
194.1914160396143
 30
0.0
 70
0
  0
VERTEX
  5
CA
330
17
100
AcDbEntity
  8
0
100
AcDbVertex
100
AcDb2dVertex
 10
667.420083737361
 20
142.98936593916204
 30
0.0
 70
0
  0
VERTEX
  5
CB
330
17
100
AcDbEntity
  8
0
100
AcDbVertex
100
AcDb2dVertex
 10
678.4854928743796
 20
209.2303160403385
 30
0.0
 70
0
  0
VERTEX
  5
CC
330
17
100
AcDbEntity
  8
0
100
AcDbVertex
100
AcDb2dVertex
 10
705.1494992367309
 20
251.46754014637932
 30
0.0
 70
0
  0
VERTEX
  5
CD
330
17
100
AcDbEntity
  8
0
100
AcDbVertex
100
AcDb2dVertex
 10
692.5671332408905
 20
325.1776762872209
 30
0.0
 70
0
  0
VERTEX
  5
CE
330
17
100
AcDbEntity
  8
0
100
AcDbVertex
100
AcDb2dVertex
 10
640.9846890399732
 20
342.1488571285011
 30
0.0
 70
0
  0
VERTEX
  5
CF
330
17
100
AcDbEntity
  8
0
100
AcDbVertex
100
AcDb2dVertex
 10
580.6837195416474
 20
359.7082712960914
 30
0.0
 70
0
  0
VERTEX
  5
D0
330
17
100
AcDbEntity
  8
0
100
AcDbVertex
100
AcDb2dVertex
 10
568.4257961017427
 20
291.5301129587085
 30
0.0
 70
0
  0
SEQEND
  5
C4
330
17
100
AcDbEntity
  8
0
  0
POLYLINE
  5
D1
330
17
100
AcDbEntity
  8
0
100
AcDb2dPolyline
 66
1
 10
0.0
 20
0.0
 30
0.0
 70
0
  0
VERTEX
  5
D3
330
17
100
AcDbEntity
  8
0
100
AcDbVertex
100
AcDb2dVertex
 10
567.7392425363141
 20
382.3611373727685
 30
0.0
 70
0
  0
VERTEX
  5
D4
330
17
100
AcDbEntity
  8
0
100
AcDbVertex
100
AcDb2dVertex
 10
675.7211435556112
 20
347.5524241055523
 30
0.0
 70
0
  0
VERTEX
  5
D5
330
17
100
AcDbEntity
  8
0
100
AcDbVertex
100
AcDb2dVertex
 10
699.4296648540812
 20
438.1346050263941
 30
0.0
 70
0
  0
VERTEX
  5
D6
330
17
100
AcDbEntity
  8
0
100
AcDbVertex
100
AcDb2dVertex
 10
678.471006143513
 20
514.7769314649901
 30
0.0
 70
0
  0
VERTEX
  5
D7
330
17
100
AcDbEntity
  8
0
100
AcDbVertex
100
AcDb2dVertex
 10
695.7972205830417
 20
604.9328050791574
 30
0.0
 70
0
  0
VERTEX
  5
D8
330
17
100
AcDbEntity
  8
0
100
AcDbVertex
100
AcDb2dVertex
 10
571.6390727060038
 20
605.3511552873921
 30
0.0
 70
0
  0
VERTEX
  5
D9
330
17
100
AcDbEntity
  8
0
100
AcDbVertex
100
AcDb2dVertex
 10
515.3201898525163
 20
575.7756142769202
 30
0.0
 70
0
  0
VERTEX
  5
DA
330
17
100
AcDbEntity
  8
0
100
AcDbVertex
100
AcDb2dVertex
 10
534.2828847929646
 20
489.8676958634471
 30
0.0
 70
0
  0
VERTEX
  5
DB
330
17
100
AcDbEntity
  8
0
100
AcDbVertex
100
AcDb2dVertex
 10
515.0178527547871
 20
438.91493988862635
 30
0.0
 70
0
  0
VERTEX
  5
DC
330
17
100
AcDbEntity
  8
0
100
AcDbVertex
100
AcDb2dVertex
 10
567.7392425363141
 20
382.3611373727685
 30
0.0
 70
0
  0
SEQEND
  5
D2
330
17
100
AcDbEntity
  8
0
  0
POLYLINE
  5
DD
330
17
100
AcDbEntity
  8
0
100
AcDb2dPolyline
 66
1
 10
0.0
 20
0.0
 30
0.0
 70
0
  0
VERTEX
  5
DF
330
17
100
AcDbEntity
  8
0
100
AcDbVertex
100
AcDb2dVertex
 10
604.5514618270453
 20
816.3584869320259
 30
0.0
 70
0
  0
VERTEX
  5
E0
330
17
100
AcDbEntity
  8
0
100
AcDbVertex
100
AcDb2dVertex
 10
676.7009693507614
 20
852.5456363541076
 30
0.0
 70
0
  0
VERTEX
  5
E1
330
17
100
AcDbEntity
  8
0
100
AcDbVertex
100
AcDb2dVertex
 10
656.7806639490276
 20
758.4751096843949
 30
0.0
 70
0
  0
VERTEX
  5
E2
330
17
100
AcDbEntity
  8
0
100
AcDbVertex
100
AcDb2dVertex
 10
699.3057886585009
 20
793.8744519053989
 30
0.0
 70
0
  0
VERTEX
  5
E3
330
17
100
AcDbEntity
  8
0
100
AcDbVertex
100
AcDb2dVertex
 10
748.6791095622502
 20
794.0691753480918
 30
0.0
 70
0
  0
VERTEX
  5
E4
330
17
100
AcDbEntity
  8
0
100
AcDbVertex
100
AcDb2dVertex
 10
733.1607630649495
 20
847.4340334025366
 30
0.0
 70
0
  0
VERTEX
  5
E5
330
17
100
AcDbEntity
  8
0
100
AcDbVertex
100
AcDb2dVertex
 10
774.2366643718867
 20
868.421335522793
 30
0.0
 70
0
  0
VERTEX
  5
E6
330
17
100
AcDbEntity
  8
0
100
AcDbVertex
100
AcDb2dVertex
 10
773.6167723276338
 20
925.5083783127792
 30
0.0
 70
0
  0
VERTEX
  5
E7
330
17
100
AcDbEntity
  8
0
100
AcDbVertex
100
AcDb2dVertex
 10
685.8648568109783
 20
865.0023637730852
 30
0.0
 70
0
  0
VERTEX
  5
E8
330
17
100
AcDbEntity
  8
0
100
AcDbVertex
100
AcDb2dVertex
 10
688.2404649509997
 20
983.2227713102845
 30
0.0
 70
0
  0
VERTEX
  5
E9
330
17
100
AcDbEntity
  8
0
100
AcDbVertex
100
AcDb2dVertex
 10
634.5074534119062
 20
972.6774891057207
 30
0.0
 70
0
  0
VERTEX
  5
EA
330
17
100
AcDbEntity
  8
0
100
AcDbVertex
100
AcDb2dVertex
 10
636.5143585366571
 20
904.7976413514725
 30
0.0
 70
0
  0
VERTEX
  5
EB
330
17
100
AcDbEntity
  8
0
100
AcDbVertex
100
AcDb2dVertex
 10
570.7805319831672
 20
876.3624509810577
 30
0.0
 70
0
  0
VERTEX
  5
EC
330
17
100
AcDbEntity
  8
0
100
AcDbVertex
100
AcDb2dVertex
 10
604.5514618270453
 20
816.3584869320259
 30
0.0
 70
0
  0
SEQEND
  5
DE
330
17
100
AcDbEntity
  8
0
  0
POLYLINE
  5
ED
330
17
100
AcDbEntity
  8
0
100
AcDb2dPolyline
 66
1
 10
0.0
 20
0.0
 30
0.0
 70
0
  0
VERTEX
  5
EF
330
17
100
AcDbEntity
  8
0
100
AcDbVertex
100
AcDb2dVertex
 10
742.2529147847384
 20
578.0340099717611
 30
0.0
 70
0
  0
VERTEX
  5
F0
330
17
100
AcDbEntity
  8
0
100
AcDbVertex
100
AcDb2dVertex
 10
798.8162860487023
 20
655.7730491910843
 30
0.0
 70
0
  0
VERTEX
  5
F1
330
17
100
AcDbEntity
  8
0
100
AcDbVertex
100
AcDb2dVertex
 10
829.5448719551316
 20
743.914947119007
 30
0.0
 70
0
  0
VERTEX
  5
F2
330
17
100
AcDbEntity
  8
0
100
AcDbVertex
100
AcDb2dVertex
 10
764.4694365400007
 20
784.3563206143658
 30
0.0
 70
0
  0
VERTEX
  5
F3
330
17
100
AcDbEntity
  8
0
100
AcDbVertex
100
AcDb2dVertex
 10
703.62343800434
 20
731.9422914745046
 30
0.0
 70
0
  0
VERTEX
  5
F4
330
17
100
AcDbEntity
  8
0
100
AcDbVertex
100
AcDb2dVertex
 10
651.1251781531823
 20
740.1736265023827
 30
0.0
 70
0
  0
VERTEX
  5
F5
330
17
100
AcDbEntity
  8
0
100
AcDbVertex
100
AcDb2dVertex
 10
601.1004112731697
 20
654.4715662277337
 30
0.0
 70
0
  0
VERTEX
  5
F6
330
17
100
AcDbEntity
  8
0
100
AcDbVertex
100
AcDb2dVertex
 10
682.1217431083878
 20
635.9922515078117
 30
0.0
 70
0
  0
VERTEX
  5
F7
330
17
100
AcDbEntity
  8
0
100
AcDbVertex
100
AcDb2dVertex
 10
742.2529147847384
 20
578.0340099717611
 30
0.0
 70
0
  0
SEQEND
  5
EE
330
17
100
AcDbEntity
  8
0
  0
POLYLINE
  5
F8
330
17
100
AcDbEntity
  8
0
100
AcDb2dPolyline
 66
1
 10
0.0
 20
0.0
 30
0.0
 70
0
  0
VERTEX
  5
FA
330
17
100
AcDbEntity
  8
0
100
AcDbVertex
100
AcDb2dVertex
 10
779.554939962838
 20
239.7969241817329
 30
0.0
 70
0
  0
VERTEX
  5
FB
330
17
100
AcDbEntity
  8
0
100
AcDbVertex
100
AcDb2dVertex
 10
711.5655032114425
 20
183.57427668511724
 30
0.0
 70
0
  0
VERTEX
  5
FC
330
17
100
AcDbEntity
  8
0
100
AcDbVertex
100
AcDb2dVertex
 10
657.1463858672951
 20
108.35741969604253
 30
0.0
 70
0
  0
VERTEX
  5
FD
330
17
100
AcDbEntity
  8
0
100
AcDbVertex
100
AcDb2dVertex
 10
708.1898786244382
 20
6.999352767680577
 30
0.0
 70
0
  0
VERTEX
  5
FE
330
17
100
AcDbEntity
  8
0
100
AcDbVertex
100
AcDb2dVertex
 10
791.0045038599541
 20
2.0630755793126947
 30
0.0
 70
0
  0
VERTEX
  5
FF
330
17
100
AcDbEntity
  8
0
100
AcDbVertex
100
AcDb2dVertex
 10
848.702247663632
 20
84.68027909722437
 30
0.0
 70
0
  0
VERTEX
  5
100
330
17
100
AcDbEntity
  8
0
100
AcDbVertex
100
AcDb2dVertex
 10
819.516490931288
 20
147.73680478652165
 30
0.0
 70
0
  0
VERTEX
  5
101
330
17
100
AcDbEntity
  8
0
100
AcDbVertex
100
AcDb2dVertex
 10
779.554939962838
 20
239.7969241817329
 30
0.0
 70
0
  0
SEQEND
  5
F9
330
17
100
AcDbEntity
  8
0
  0
POLYLINE
  5
102
330
17
100
AcDbEntity
  8
0
100
AcDb2dPolyline
 66
1
 10
0.0
 20
0.0
 30
0.0
 70
0
  0
VERTEX
  5
104
330
17
100
AcDbEntity
  8
0
100
AcDbVertex
100
AcDb2dVertex
 10
692.0153071158691
 20
507.9538168495172
 30
0.0
 70
0
  0
VERTEX
  5
105
330
17
100
AcDbEntity
  8
0
100
AcDbVertex
100
AcDb2dVertex
 10
736.0005300527487
 20
413.67547123198085
 30
0.0
 70
0
  0
VERTEX
  5
106
330
17
100
AcDbEntity
  8
0
100
AcDbVertex
100
AcDb2dVertex
 10
763.1478329612021
 20
330.3139442356142
 30
0.0
 70
0
  0
VERTEX
  5
107
330
17
100
AcDbEntity
  8
0
100
AcDbVertex
100
AcDb2dVertex
 10
857.508814443252
 20
363.3910274426664
 30
0.0
 70
0
  0
VERTEX
  5
108
330
17
100
AcDbEntity
  8
0
100
AcDbVertex
100
AcDb2dVertex
 10
866.1994788578071
 20
471.2683446072863
 30
0.0
 70
0
  0
VERTEX
  5
109
330
17
100
AcDbEntity
  8
0
100
AcDbVertex
100
AcDb2dVertex
 10
783.1534415415315
 20
592.2702317003111
 30
0.0
 70
0
  0
VERTEX
  5
10A
330
17
100
AcDbEntity
  8
0
100
AcDbVertex
100
AcDb2dVertex
 10
692.0153071158691
 20
507.9538168495172
 30
0.0
 70
0
  0
SEQEND
  5
103
330
17
100
AcDbEntity
  8
0
  0
POLYLINE
  5
10B
330
17
100
AcDbEntity
  8
0
100
AcDb2dPolyline
 66
1
 10
0.0
 20
0.0
 30
0.0
 70
0
  0
VERTEX
  5
10D
330
17
100
AcDbEntity
  8
0
100
AcDbVertex
100
AcDb2dVertex
 10
890.1364190258464
 20
320.61310698659906
 30
0.0
 70
0
  0
VERTEX
  5
10E
330
17
100
AcDbEntity
  8
0
100
AcDbVertex
100
AcDb2dVertex
 10
810.942606302902
 20
337.1209151437877
 30
0.0
 70
0
  0
VERTEX
  5
10F
330
17
100
AcDbEntity
  8
0
100
AcDbVertex
100
AcDb2dVertex
 10
724.0472345105221
 20
279.09840275445254
 30
0.0
 70
0
  0
VERTEX
  5
110
330
17
100
AcDbEntity
  8
0
100
AcDbVertex
100
AcDb2dVertex
 10
812.8350661188357
 20
240.4449683856203
 30
0.0
 70
0
  0
VERTEX
  5
111
330
17
100
AcDbEntity
  8
0
100
AcDbVertex
100
AcDb2dVertex
 10
836.6560558424077
 20
140.82738486291908
 30
0.0
 70
0
  0
VERTEX
  5
112
330
17
100
AcDbEntity
  8
0
100
AcDbVertex
100
AcDb2dVertex
 10
944.9039370807782
 20
187.1105135548621
 30
0.0
 70
0
  0
VERTEX
  5
113
330
17
100
AcDbEntity
  8
0
100
AcDbVertex
100
AcDb2dVertex
 10
958.0811687263506
 20
284.72630740077716
 30
0.0
 70
0
  0
VERTEX
  5
114
330
17
100
AcDbEntity
  8
0
100
AcDbVertex
100
AcDb2dVertex
 10
890.1364190258464
 20
320.61310698659906
 30
0.0
 70
0
  0
SEQEND
  5
10C
330
17
100
AcDbEntity
  8
0
  0
POLYLINE
  5
115
330
17
100
AcDbEntity
  8
0
100
AcDb2dPolyline
 66
1
 10
0.0
 20
0.0
 30
0.0
 70
0
  0
VERTEX
  5
117
330
17
100
AcDbEntity
  8
0
100
AcDbVertex
100
AcDb2dVertex
 10
946.9836055113855
 20
783.4527205041469
 30
0.0
 70
0
  0
VERTEX
  5
118
330
17
100
AcDbEntity
  8
0
100
AcDbVertex
100
AcDb2dVertex
 10
958.359109243136
 20
823.5590747518877
 30
0.0
 70
0
  0
VERTEX
  5
119
330
17
100
AcDbEntity
  8
0
100
AcDbVertex
100
AcDb2dVertex
 10
932.4389229488918
 20
863.4081067348487
 30
0.0
 70
0
  0
VERTEX
  5
11A
330
17
100
AcDbEntity
  8
0
100
AcDbVertex
100
AcDb2dVertex
 10
963.8393266856076
 20
899.0968220871578
 30
0.0
 70
0
  0
VERTEX
  5
11B
330
17
100
AcDbEntity
  8
0
100
AcDbVertex
100
AcDb2dVertex
 10
950.7994899461207
 20
962.1303139446322
 30
0.0
 70
0
  0
VERTEX
  5
11C
330
17
100
AcDbEntity
  8
0
100
AcDbVertex
100
AcDb2dVertex
 10
899.9104901415146
 20
988.7398023759157
 30
0.0
 70
0
  0
VERTEX
  5
11D
330
17
100
AcDbEntity
  8
0
100
AcDbVertex
100
AcDb2dVertex
 10
857.6929587280365
 20
948.2581478625858
 30
0.0
 70
0
  0
VERTEX
  5
11E
330
17
100
AcDbEntity
  8
0
100
AcDbVertex
100
AcDb2dVertex
 10
779.7104325383897
 20
948.0035626051023
 30
0.0
 70
0
  0
VERTEX
  5
11F
330
17
100
AcDbEntity
  8
0
100
AcDbVertex
100
AcDb2dVertex
 10
816.9594796127665
 20
879.7808089534259
 30
0.0
 70
0
  0
VERTEX
  5
120
330
17
100
AcDbEntity
  8
0
100
AcDbVertex
100
AcDb2dVertex
 10
776.4458837596592
 20
796.6431446114032
 30
0.0
 70
0
  0
VERTEX
  5
121
330
17
100
AcDbEntity
  8
0
100
AcDbVertex
100
AcDb2dVertex
 10
837.3462193086082
 20
750.0686895629685
 30
0.0
 70
0
  0
VERTEX
  5
122
330
17
100
AcDbEntity
  8
0
100
AcDbVertex
100
AcDb2dVertex
 10
900.6930792128227
 20
803.9309264176164
 30
0.0
 70
0
  0
VERTEX
  5
123
330
17
100
AcDbEntity
  8
0
100
AcDbVertex
100
AcDb2dVertex
 10
946.9836055113855
 20
783.4527205041469
 30
0.0
 70
0
  0
SEQEND
  5
116
330
17
100
AcDbEntity
  8
0
  0
POLYLINE
  5
124
330
17
100
AcDbEntity
  8
0
100
AcDb2dPolyline
 66
1
 10
0.0
 20
0.0
 30
0.0
 70
0
  0
VERTEX
  5
126
330
17
100
AcDbEntity
  8
0
100
AcDbVertex
100
AcDb2dVertex
 10
959.4432390240107
 20
709.0240121307927
 30
0.0
 70
0
  0
VERTEX
  5
127
330
17
100
AcDbEntity
  8
0
100
AcDbVertex
100
AcDb2dVertex
 10
891.4412532707572
 20
755.8189329918855
 30
0.0
 70
0
  0
VERTEX
  5
128
330
17
100
AcDbEntity
  8
0
100
AcDbVertex
100
AcDb2dVertex
 10
864.3851004818598
 20
669.9456418768067
 30
0.0
 70
0
  0
VERTEX
  5
129
330
17
100
AcDbEntity
  8
0
100
AcDbVertex
100
AcDb2dVertex
 10
795.9796923998641
 20
623.891468765214
 30
0.0
 70
0
  0
VERTEX
  5
12A
330
17
100
AcDbEntity
  8
0
100
AcDbVertex
100
AcDb2dVertex
 10
829.1165862386883
 20
544.869055722781
 30
0.0
 70
0
  0
VERTEX
  5
12B
330
17
100
AcDbEntity
  8
0
100
AcDbVertex
100
AcDb2dVertex
 10
916.2874280288517
 20
543.6571550798928
 30
0.0
 70
0
  0
VERTEX
  5
12C
330
17
100
AcDbEntity
  8
0
100
AcDbVertex
100
AcDb2dVertex
 10
990.6112653403877
 20
531.4496369321321
 30
0.0
 70
0
  0
VERTEX
  5
12D
330
17
100
AcDbEntity
  8
0
100
AcDbVertex
100
AcDb2dVertex
 10
994.1738928654462
 20
608.9211224834893
 30
0.0
 70
0
  0
VERTEX
  5
12E
330
17
100
AcDbEntity
  8
0
100
AcDbVertex
100
AcDb2dVertex
 10
979.8116789195728
 20
663.4615440755833
 30
0.0
 70
0
  0
VERTEX
  5
12F
330
17
100
AcDbEntity
  8
0
100
AcDbVertex
100
AcDb2dVertex
 10
959.4432390240107
 20
709.0240121307927
 30
0.0
 70
0
  0
SEQEND
  5
125
330
17
100
AcDbEntity
  8
0
  0
POLYLINE
  5
130
330
17
100
AcDbEntity
  8
0
100
AcDb2dPolyline
 66
1
 10
0.0
 20
0.0
 30
0.0
 70
0
  0
VERTEX
  5
132
330
17
100
AcDbEntity
  8
0
100
AcDbVertex
100
AcDb2dVertex
 10
983.1961652007778
 20
525.1857655001616
 30
0.0
 70
0
  0
VERTEX
  5
133
330
17
100
AcDbEntity
  8
0
100
AcDbVertex
100
AcDb2dVertex
 10
920.6919296454578
 20
492.4541266332511
 30
0.0
 70
0
  0
VERTEX
  5
134
330
17
100
AcDbEntity
  8
0
100
AcDbVertex
100
AcDb2dVertex
 10
901.2252355342965
 20
420.90034691396664
 30
0.0
 70
0
  0
VERTEX
  5
135
330
17
100
AcDbEntity
  8
0
100
AcDbVertex
100
AcDb2dVertex
 10
938.6573587707302
 20
351.53735728566795
 30
0.0
 70
0
  0
VERTEX
  5
136
330
17
100
AcDbEntity
  8
0
100
AcDbVertex
100
AcDb2dVertex
 10
975.4104916308692
 20
267.77438484319316
 30
0.0
 70
0
  0
VERTEX
  5
137
330
17
100
AcDbEntity
  8
0
100
AcDbVertex
100
AcDb2dVertex
 10
1039.2197541642731
 20
322.4573313555861
 30
0.0
 70
0
  0
VERTEX
  5
138
330
17
100
AcDbEntity
  8
0
100
AcDbVertex
100
AcDb2dVertex
 10
994.3852684659097
 20
416.8726943174373
 30
0.0
 70
0
  0
VERTEX
  5
139
330
17
100
AcDbEntity
  8
0
100
AcDbVertex
100
AcDb2dVertex
 10
1072.3513424837806
 20
460.1750392878806
 30
0.0
 70
0
  0
VERTEX
  5
13A
330
17
100
AcDbEntity
  8
0
100
AcDbVertex
100
AcDb2dVertex
 10
1037.1984890998986
 20
511.0788245050444
 30
0.0
 70
0
  0
VERTEX
  5
13B
330
17
100
AcDbEntity
  8
0
100
AcDbVertex
100
AcDb2dVertex
 10
983.1961652007778
 20
525.1857655001616
 30
0.0
 70
0
  0
SEQEND
  5
131
330
17
100
AcDbEntity
  8
0
  0
POLYLINE
  5
13C
330
17
100
AcDbEntity
  8
0
100
AcDb2dPolyline
 66
1
 10
0.0
 20
0.0
 30
0.0
 70
0
  0
VERTEX
  5
13E
330
17
100
AcDbEntity
  8
0
100
AcDbVertex
100
AcDb2dVertex
 10
922.1470048273134
 20
112.11070024661052
 30
0.0
 70
0
  0
VERTEX
  5
13F
330
17
100
AcDbEntity
  8
0
100
AcDbVertex
100
AcDb2dVertex
 10
929.1149707157883
 20
90.92347125128568
 30
0.0
 70
0
  0
VERTEX
  5
140
330
17
100
AcDbEntity
  8
0
100
AcDbVertex
100
AcDb2dVertex
 10
916.8203959278525
 20
16.420640350921687
 30
0.0
 70
0
  0
VERTEX
  5
141
330
17
100
AcDbEntity
  8
0
100
AcDbVertex
100
AcDb2dVertex
 10
963.7033644665518
 20
2.2045295317285953
 30
0.0
 70
0
  0
VERTEX
  5
142
330
17
100
AcDbEntity
  8
0
100
AcDbVertex
100
AcDb2dVertex
 10
1018.1783531366896
 20
42.25782973803315
 30
0.0
 70
0
  0
VERTEX
  5
143
330
17
100
AcDbEntity
  8
0
100
AcDbVertex
100
AcDb2dVertex
 10
1076.3697438005258
 20
42.94319722217067
 30
0.0
 70
0
  0
VERTEX
  5
144
330
17
100
AcDbEntity
  8
0
100
AcDbVertex
100
AcDb2dVertex
 10
1032.2627855443513
 20
125.67488078422215
 30
0.0
 70
0
  0
VERTEX
  5
145
330
17
100
AcDbEntity
  8
0
100
AcDbVertex
100
AcDb2dVertex
 10
1077.7662678477159
 20
215.6199728878078
 30
0.0
 70
0
  0
VERTEX
  5
146
330
17
100
AcDbEntity
  8
0
100
AcDbVertex
100
AcDb2dVertex
 10
1008.904802645025
 20
216.44154343369038
 30
0.0
 70
0
  0
VERTEX
  5
147
330
17
100
AcDbEntity
  8
0
100
AcDbVertex
100
AcDb2dVertex
 10
965.5649554853715
 20
137.62806349685488
 30
0.0
 70
0
  0
VERTEX
  5
148
330
17
100
AcDbEntity
  8
0
100
AcDbVertex
100
AcDb2dVertex
 10
920.5072606141689
 20
163.16470022905258
 30
0.0
 70
0
  0
VERTEX
  5
149
330
17
100
AcDbEntity
  8
0
100
AcDbVertex
100
AcDb2dVertex
 10
876.2313029247478
 20
143.63115429951486
 30
0.0
 70
0
  0
VERTEX
  5
14A
330
17
100
AcDbEntity
  8
0
100
AcDbVertex
100
AcDb2dVertex
 10
922.1470048273134
 20
112.11070024661052
 30
0.0
 70
0
  0
SEQEND
  5
13D
330
17
100
AcDbEntity
  8
0
  0
POLYLINE
  5
14B
330
17
100
AcDbEntity
  8
0
100
AcDb2dPolyline
 66
1
 10
0.0
 20
0.0
 30
0.0
 70
0
  0
VERTEX
  5
14D
330
17
100
AcDbEntity
  8
0
100
AcDbVertex
100
AcDb2dVertex
 10
946.2296339072869
 20
861.4466208176037
 30
0.0
 70
0
  0
VERTEX
  5
14E
330
17
100
AcDbEntity
  8
0
100
AcDbVertex
100
AcDb2dVertex
 10
1012.268182072886
 20
782.3465289490061
 30
0.0
 70
0
  0
VERTEX
  5
14F
330
17
100
AcDbEntity
  8
0
100
AcDbVertex
100
AcDb2dVertex
 10
994.2571855573744
 20
697.752762785912
 30
0.0
 70
0
  0
VERTEX
  5
150
330
17
100
AcDbEntity
  8
0
100
AcDbVertex
100
AcDb2dVertex
 10
1058.7975075806094
 20
679.3951482322976
 30
0.0
 70
0
  0
VERTEX
  5
151
330
17
100
AcDbEntity
  8
0
100
AcDbVertex
100
AcDb2dVertex
 10
1152.1477139101812
 20
727.7239671424385
 30
0.0
 70
0
  0
VERTEX
  5
152
330
17
100
AcDbEntity
  8
0
100
AcDbVertex
100
AcDb2dVertex
 10
1114.7370718646798
 20
803.2986092691589
 30
0.0
 70
0
  0
VERTEX
  5
153
330
17
100
AcDbEntity
  8
0
100
AcDbVertex
100
AcDb2dVertex
 10
1123.7558903882732
 20
835.332399632423
 30
0.0
 70
0
  0
VERTEX
  5
154
330
17
100
AcDbEntity
  8
0
100
AcDbVertex
100
AcDb2dVertex
 10
1079.4029387335886
 20
858.2284039532262
 30
0.0
 70
0
  0
VERTEX
  5
155
330
17
100
AcDbEntity
  8
0
100
AcDbVertex
100
AcDb2dVertex
 10
1008.0535270993947
 20
889.0654462847309
 30
0.0
 70
0
  0
VERTEX
  5
156
330
17
100
AcDbEntity
  8
0
100
AcDbVertex
100
AcDb2dVertex
 10
946.2296339072869
 20
861.4466208176037
 30
0.0
 70
0
  0
SEQEND
  5
14C
330
17
100
AcDbEntity
  8
0
  0
POLYLINE
  5
157
330
17
100
AcDbEntity
  8
0
100
AcDb2dPolyline
 66
1
 10
0.0
 20
0.0
 30
0.0
 70
0
  0
VERTEX
  5
159
330
17
100
AcDbEntity
  8
0
100
AcDbVertex
100
AcDb2dVertex
 10
1153.2429375016568
 20
382.24308024422
 30
0.0
 70
0
  0
VERTEX
  5
15A
330
17
100
AcDbEntity
  8
0
100
AcDbVertex
100
AcDb2dVertex
 10
1074.7833445963424
 20
343.09745613666877
 30
0.0
 70
0
  0
VERTEX
  5
15B
330
17
100
AcDbEntity
  8
0
100
AcDbVertex
100
AcDb2dVertex
 10
998.1442024541922
 20
253.20797045589475
 30
0.0
 70
0
  0
VERTEX
  5
15C
330
17
100
AcDbEntity
  8
0
100
AcDbVertex
100
AcDb2dVertex
 10
1092.8501619216827
 20
218.92716885944802
 30
0.0
 70
0
  0
VERTEX
  5
15D
330
17
100
AcDbEntity
  8
0
100
AcDbVertex
100
AcDb2dVertex
 10
1131.9274641736029
 20
168.74307247062526
 30
0.0
 70
0
  0
VERTEX
  5
15E
330
17
100
AcDbEntity
  8
0
100
AcDbVertex
100
AcDb2dVertex
 10
1171.3661935307537
 20
208.01876718460633
 30
0.0
 70
0
  0
VERTEX
  5
15F
330
17
100
AcDbEntity
  8
0
100
AcDbVertex
100
AcDb2dVertex
 10
1188.916807318421
 20
247.2238223573685
 30
0.0
 70
0
  0
VERTEX
  5
160
330
17
100
AcDbEntity
  8
0
100
AcDbVertex
100
AcDb2dVertex
 10
1169.27686520218
 20
281.4202659606606
 30
0.0
 70
0
  0
VERTEX
  5
161
330
17
100
AcDbEntity
  8
0
100
AcDbVertex
100
AcDb2dVertex
 10
1153.2429375016568
 20
382.24308024422
 30
0.0
 70
0
  0
SEQEND
  5
158
330
17
100
AcDbEntity
  8
0
  0
POLYLINE
  5
162
330
17
100
AcDbEntity
  8
0
100
AcDb2dPolyline
 66
1
 10
0.0
 20
0.0
 30
0.0
 70
0
  0
VERTEX
  5
164
330
17
100
AcDbEntity
  8
0
100
AcDbVertex
100
AcDb2dVertex
 10
1171.4274651002243
 20
514.4504314149976
 30
0.0
 70
0
  0
VERTEX
  5
165
330
17
100
AcDbEntity
  8
0
100
AcDbVertex
100
AcDb2dVertex
 10
1183.892804012497
 20
552.5541606729506
 30
0.0
 70
0
  0
VERTEX
  5
166
330
17
100
AcDbEntity
  8
0
100
AcDbVertex
100
AcDb2dVertex
 10
1183.8656453123485
 20
641.4129253468462
 30
0.0
 70
0
  0
VERTEX
  5
167
330
17
100
AcDbEntity
  8
0
100
AcDbVertex
100
AcDb2dVertex
 10
1107.3731241683663
 20
621.5008594489216
 30
0.0
 70
0
  0
VERTEX
  5
168
330
17
100
AcDbEntity
  8
0
100
AcDbVertex
100
AcDb2dVertex
 10
1054.3407527975805
 20
608.2469886224624
 30
0.0
 70
0
  0
VERTEX
  5
169
330
17
100
AcDbEntity
  8
0
100
AcDbVertex
100
AcDb2dVertex
 10
1060.8635906812328
 20
557.9132086986916
 30
0.0
 70
0
  0
VERTEX
  5
16A
330
17
100
AcDbEntity
  8
0
100
AcDbVertex
100
AcDb2dVertex
 10
1003.9070682099066
 20
534.8914434571092
 30
0.0
 70
0
  0
VERTEX
  5
16B
330
17
100
AcDbEntity
  8
0
100
AcDbVertex
100
AcDb2dVertex
 10
1086.331966153632
 20
530.7650404834391
 30
0.0
 70
0
  0
VERTEX
  5
16C
330
17
100
AcDbEntity
  8
0
100
AcDbVertex
100
AcDb2dVertex
 10
1076.7831644333687
 20
501.3956440688465
 30
0.0
 70
0
  0
VERTEX
  5
16D
330
17
100
AcDbEntity
  8
0
100
AcDbVertex
100
AcDb2dVertex
 10
1097.8092415893793
 20
478.65616855367966
 30
0.0
 70
0
  0
VERTEX
  5
16E
330
17
100
AcDbEntity
  8
0
100
AcDbVertex
100
AcDb2dVertex
 10
1164.1758076975893
 20
422.9144225209471
 30
0.0
 70
0
  0
VERTEX
  5
16F
330
17
100
AcDbEntity
  8
0
100
AcDbVertex
100
AcDb2dVertex
 10
1171.4274651002243
 20
514.4504314149976
 30
0.0
 70
0
  0
SEQEND
  5
163
330
17
100
AcDbEntity
  8
0
  0
POLYLINE
  5
170
330
17
100
AcDbEntity
  8
0
100
AcDb2dPolyline
 66
1
 10
0.0
 20
0.0
 30
0.0
 70
0
  0
VERTEX
  5
172
330
17
100
AcDbEntity
  8
0
100
AcDbVertex
100
AcDb2dVertex
 10
1197.381921107129
 20
978.1203184332492
 30
0.0
 70
0
  0
VERTEX
  5
173
330
17
100
AcDbEntity
  8
0
100
AcDbVertex
100
AcDb2dVertex
 10
1100.691690446897
 20
918.2171188085225
 30
0.0
 70
0
  0
VERTEX
  5
174
330
17
100
AcDbEntity
  8
0
100
AcDbVertex
100
AcDb2dVertex
 10
1140.603416620412
 20
810.0383457971515
 30
0.0
 70
0
  0
VERTEX
  5
175
330
17
100
AcDbEntity
  8
0
100
AcDbVertex
100
AcDb2dVertex
 10
1265.9967622736326
 20
778.6855173254953
 30
0.0
 70
0
  0
VERTEX
  5
176
330
17
100
AcDbEntity
  8
0
100
AcDbVertex
100
AcDb2dVertex
 10
1303.0396126609485
 20
940.9920808773101
 30
0.0
 70
0
  0
VERTEX
  5
177
330
17
100
AcDbEntity
  8
0
100
AcDbVertex
100
AcDb2dVertex
 10
1197.381921107129
 20
978.1203184332492
 30
0.0
 70
0
  0
SEQEND
  5
171
330
17
100
AcDbEntity
  8
0
  0
POLYLINE
  5
178
330
17
100
AcDbEntity
  8
0
100
AcDb2dPolyline
 66
1
 10
0.0
 20
0.0
 30
0.0
 70
0
  0
VERTEX
  5
17A
330
17
100
AcDbEntity
  8
0
100
AcDbVertex
100
AcDb2dVertex
 10
1151.7447021987794
 20
97.64633605363285
 30
0.0
 70
0
  0
VERTEX
  5
17B
330
17
100
AcDbEntity
  8
0
100
AcDbVertex
100
AcDb2dVertex
 10
1077.7404941751188
 20
31.78833234663324
 30
0.0
 70
0
  0
VERTEX
  5
17C
330
17
100
AcDbEntity
  8
0
100
AcDbVertex
100
AcDb2dVertex
 10
1128.401817817295
 20
4.252723745826927
 30
0.0
 70
0
  0
VERTEX
  5
17D
330
17
100
AcDbEntity
  8
0
100
AcDbVertex
100
AcDb2dVertex
 10
1181.511255314734
 20
4.810514007882318
 30
0.0
 70
0
  0
VERTEX
  5
17E
330
17
100
AcDbEntity
  8
0
100
AcDbVertex
100
AcDb2dVertex
 10
1227.214305166446
 20
6.455827606244611
 30
0.0
 70
0
  0
VERTEX
  5
17F
330
17
100
AcDbEntity
  8
0
100
AcDbVertex
100
AcDb2dVertex
 10
1252.254762718147
 20
41.651542363319834
 30
0.0
 70
0
  0
VERTEX
  5
180
330
17
100
AcDbEntity
  8
0
100
AcDbVertex
100
AcDb2dVertex
 10
1279.6124304814416
 20
63.85197925561857
 30
0.0
 70
0
  0
VERTEX
  5
181
330
17
100
AcDbEntity
  8
0
100
AcDbVertex
100
AcDb2dVertex
 10
1257.5526599324894
 20
98.88546036417242
 30
0.0
 70
0
  0
VERTEX
  5
182
330
17
100
AcDbEntity
  8
0
100
AcDbVertex
100
AcDb2dVertex
 10
1270.5386401267722
 20
148.25742235869498
 30
0.0
 70
0
  0
VERTEX
  5
183
330
17
100
AcDbEntity
  8
0
100
AcDbVertex
100
AcDb2dVertex
 10
1240.9289141483423
 20
175.52121216584555
 30
0.0
 70
0
  0
VERTEX
  5
184
330
17
100
AcDbEntity
  8
0
100
AcDbVertex
100
AcDb2dVertex
 10
1182.84764423368
 20
204.2365739881995
 30
0.0
 70
0
  0
VERTEX
  5
185
330
17
100
AcDbEntity
  8
0
100
AcDbVertex
100
AcDb2dVertex
 10
1159.7492848357276
 20
144.42604719943068
 30
0.0
 70
0
  0
VERTEX
  5
186
330
17
100
AcDbEntity
  8
0
100
AcDbVertex
100
AcDb2dVertex
 10
1100.9820295026361
 20
142.51216021339008
 30
0.0
 70
0
  0
VERTEX
  5
187
330
17
100
AcDbEntity
  8
0
100
AcDbVertex
100
AcDb2dVertex
 10
1151.7447021987794
 20
97.64633605363285
 30
0.0
 70
0
  0
SEQEND
  5
179
330
17
100
AcDbEntity
  8
0
  0
POLYLINE
  5
188
330
17
100
AcDbEntity
  8
0
100
AcDb2dPolyline
 66
1
 10
0.0
 20
0.0
 30
0.0
 70
0
  0
VERTEX
  5
18A
330
17
100
AcDbEntity
  8
0
100
AcDbVertex
100
AcDb2dVertex
 10
1351.802122503696
 20
261.8115862989624
 30
0.0
 70
0
  0
VERTEX
  5
18B
330
17
100
AcDbEntity
  8
0
100
AcDbVertex
100
AcDb2dVertex
 10
1360.6834432159812
 20
414.33062170653193
 30
0.0
 70
0
  0
VERTEX
  5
18C
330
17
100
AcDbEntity
  8
0
100
AcDbVertex
100
AcDb2dVertex
 10
1267.940170619127
 20
470.66326672147704
 30
0.0
 70
0
  0
VERTEX
  5
18D
330
17
100
AcDbEntity
  8
0
100
AcDbVertex
100
AcDb2dVertex
 10
1190.1071899201906
 20
458.92817415058835
 30
0.0
 70
0
  0
VERTEX
  5
18E
330
17
100
AcDbEntity
  8
0
100
AcDbVertex
100
AcDb2dVertex
 10
1168.5569728964365
 20
347.54756750580856
 30
0.0
 70
0
  0
VERTEX
  5
18F
330
17
100
AcDbEntity
  8
0
100
AcDbVertex
100
AcDb2dVertex
 10
1251.5022196525822
 20
308.7236771896388
 30
0.0
 70
0
  0
VERTEX
  5
190
330
17
100
AcDbEntity
  8
0
100
AcDbVertex
100
AcDb2dVertex
 10
1351.802122503696
 20
261.8115862989624
 30
0.0
 70
0
  0
SEQEND
  5
189
330
17
100
AcDbEntity
  8
0
  0
POLYLINE
  5
191
330
17
100
AcDbEntity
  8
0
100
AcDb2dPolyline
 66
1
 10
0.0
 20
0.0
 30
0.0
 70
0
  0
VERTEX
  5
193
330
17
100
AcDbEntity
  8
0
100
AcDbVertex
100
AcDb2dVertex
 10
1317.04982767542
 20
627.0264390058963
 30
0.0
 70
0
  0
VERTEX
  5
194
330
17
100
AcDbEntity
  8
0
100
AcDbVertex
100
AcDb2dVertex
 10
1331.47409725697
 20
677.3786519053604
 30
0.0
 70
0
  0
VERTEX
  5
195
330
17
100
AcDbEntity
  8
0
100
AcDbVertex
100
AcDb2dVertex
 10
1348.853543373363
 20
722.6966737854451
 30
0.0
 70
0
  0
VERTEX
  5
196
330
17
100
AcDbEntity
  8
0
100
AcDbVertex
100
AcDb2dVertex
 10
1299.867162579139
 20
761.0650839150281
 30
0.0
 70
0
  0
VERTEX
  5
197
330
17
100
AcDbEntity
  8
0
100
AcDbVertex
100
AcDb2dVertex
 10
1259.6843448404013
 20
733.2559099179394
 30
0.0
 70
0
  0
VERTEX
  5
198
330
17
100
AcDbEntity
  8
0
100
AcDbVertex
100
AcDb2dVertex
 10
1157.9636928228697
 20
782.2265602334737
 30
0.0
 70
0
  0
VERTEX
  5
199
330
17
100
AcDbEntity
  8
0
100
AcDbVertex
100
AcDb2dVertex
 10
1162.0189189250693
 20
698.1022970419095
 30
0.0
 70
0
  0
VERTEX
  5
19A
330
17
100
AcDbEntity
  8
0
100
AcDbVertex
100
AcDb2dVertex
 10
1176.7635381941514
 20
652.252899508984
 30
0.0
 70
0
  0
VERTEX
  5
19B
330
17
100
AcDbEntity
  8
0
100
AcDbVertex
100
AcDb2dVertex
 10
1235.982692109023
 20
640.9030521273105
 30
0.0
 70
0
  0
VERTEX
  5
19C
330
17
100
AcDbEntity
  8
0
100
AcDbVertex
100
AcDb2dVertex
 10
1246.8386007106255
 20
593.8852878281136
 30
0.0
 70
0
  0
VERTEX
  5
19D
330
17
100
AcDbEntity
  8
0
100
AcDbVertex
100
AcDb2dVertex
 10
1286.3808961046038
 20
566.4523723168439
 30
0.0
 70
0
  0
VERTEX
  5
19E
330
17
100
AcDbEntity
  8
0
100
AcDbVertex
100
AcDb2dVertex
 10
1317.04982767542
 20
627.0264390058963
 30
0.0
 70
0
  0
SEQEND
  5
192
330
17
100
AcDbEntity
  8
0
  0
POLYLINE
  5
19F
330
17
100
AcDbEntity
  8
0
100
AcDb2dPolyline
 66
1
 10
0.0
 20
0.0
 30
0.0
 70
0
  0
VERTEX
  5
1A1
330
17
100
AcDbEntity
  8
0
100
AcDbVertex
100
AcDb2dVertex
 10
1429.4713280195137
 20
114.03333601084721
 30
0.0
 70
0
  0
VERTEX
  5
1A2
330
17
100
AcDbEntity
  8
0
100
AcDbVertex
100
AcDb2dVertex
 10
1442.0064676487514
 20
201.81418197643927
 30
0.0
 70
0
  0
VERTEX
  5
1A3
330
17
100
AcDbEntity
  8
0
100
AcDbVertex
100
AcDb2dVertex
 10
1382.2016381887042
 20
239.10131914786862
 30
0.0
 70
0
  0
VERTEX
  5
1A4
330
17
100
AcDbEntity
  8
0
100
AcDbVertex
100
AcDb2dVertex
 10
1304.606693645303
 20
184.47692265319154
 30
0.0
 70
0
  0
VERTEX
  5
1A5
330
17
100
AcDbEntity
  8
0
100
AcDbVertex
100
AcDb2dVertex
 10
1273.0471439668256
 20
94.41436890346452
 30
0.0
 70
0
  0
VERTEX
  5
1A6
330
17
100
AcDbEntity
  8
0
100
AcDbVertex
100
AcDb2dVertex
 10
1357.2888897611863
 20
7.897783394258937
 30
0.0
 70
0
  0
VERTEX
  5
1A7
330
17
100
AcDbEntity
  8
0
100
AcDbVertex
100
AcDb2dVertex
 10
1429.4713280195137
 20
114.03333601084721
 30
0.0
 70
0
  0
SEQEND
  5
1A0
330
17
100
AcDbEntity
  8
0
  0
POLYLINE
  5
1A8
330
17
100
AcDbEntity
  8
0
100
AcDb2dPolyline
 66
1
 10
0.0
 20
0.0
 30
0.0
 70
0
  0
VERTEX
  5
1AA
330
17
100
AcDbEntity
  8
0
100
AcDbVertex
100
AcDb2dVertex
 10
1464.1613236955804
 20
428.84217765065443
 30
0.0
 70
0
  0
VERTEX
  5
1AB
330
17
100
AcDbEntity
  8
0
100
AcDbVertex
100
AcDb2dVertex
 10
1456.2951614053363
 20
492.3315914225798
 30
0.0
 70
0
  0
VERTEX
  5
1AC
330
17
100
AcDbEntity
  8
0
100
AcDbVertex
100
AcDb2dVertex
 10
1425.7628733942347
 20
549.5756311396576
 30
0.0
 70
0
  0
VERTEX
  5
1AD
330
17
100
AcDbEntity
  8
0
100
AcDbVertex
100
AcDb2dVertex
 10
1357.9085408584824
 20
602.9650685874952
 30
0.0
 70
0
  0
VERTEX
  5
1AE
330
17
100
AcDbEntity
  8
0
100
AcDbVertex
100
AcDb2dVertex
 10
1293.0597623596602
 20
552.6650261124354
 30
0.0
 70
0
  0
VERTEX
  5
1AF
330
17
100
AcDbEntity
  8
0
100
AcDbVertex
100
AcDb2dVertex
 10
1325.5789569556823
 20
485.02669153899495
 30
0.0
 70
0
  0
VERTEX
  5
1B0
330
17
100
AcDbEntity
  8
0
100
AcDbVertex
100
AcDb2dVertex
 10
1323.3418952030408
 20
450.3993993556463
 30
0.0
 70
0
  0
VERTEX
  5
1B1
330
17
100
AcDbEntity
  8
0
100
AcDbVertex
100
AcDb2dVertex
 10
1360.8820254344296
 20
433.2804567268443
 30
0.0
 70
0
  0
VERTEX
  5
1B2
330
17
100
AcDbEntity
  8
0
100
AcDbVertex
100
AcDb2dVertex
 10
1417.8337011980818
 20
371.07159477982714
 30
0.0
 70
0
  0
VERTEX
  5
1B3
330
17
100
AcDbEntity
  8
0
100
AcDbVertex
100
AcDb2dVertex
 10
1464.1613236955804
 20
428.84217765065443
 30
0.0
 70
0
  0
SEQEND
  5
1A9
330
17
100
AcDbEntity
  8
0
  0
POLYLINE
  5
1B4
330
17
100
AcDbEntity
  8
0
100
AcDb2dPolyline
 66
1
 10
0.0
 20
0.0
 30
0.0
 70
0
  0
VERTEX
  5
1B6
330
17
100
AcDbEntity
  8
0
100
AcDbVertex
100
AcDb2dVertex
 10
1284.5332875654237
 20
830.3001261793706
 30
0.0
 70
0
  0
VERTEX
  5
1B7
330
17
100
AcDbEntity
  8
0
100
AcDbVertex
100
AcDb2dVertex
 10
1303.4712580488308
 20
785.7973057263796
 30
0.0
 70
0
  0
VERTEX
  5
1B8
330
17
100
AcDbEntity
  8
0
100
AcDbVertex
100
AcDb2dVertex
 10
1365.475879140477
 20
723.9614024655261
 30
0.0
 70
0
  0
VERTEX
  5
1B9
330
17
100
AcDbEntity
  8
0
100
AcDbVertex
100
AcDb2dVertex
 10
1408.1021991037314
 20
765.5414034811558
 30
0.0
 70
0
  0
VERTEX
  5
1BA
330
17
100
AcDbEntity
  8
0
100
AcDbVertex
100
AcDb2dVertex
 10
1450.045156485092
 20
824.2306739096516
 30
0.0
 70
0
  0
VERTEX
  5
1BB
330
17
100
AcDbEntity
  8
0
100
AcDbVertex
100
AcDb2dVertex
 10
1422.0542188501288
 20
884.2016378795327
 30
0.0
 70
0
  0
VERTEX
  5
1BC
330
17
100
AcDbEntity
  8
0
100
AcDbVertex
100
AcDb2dVertex
 10
1353.363163950926
 20
962.3258520685928
 30
0.0
 70
0
  0
VERTEX
  5
1BD
330
17
100
AcDbEntity
  8
0
100
AcDbVertex
100
AcDb2dVertex
 10
1311.7683381493216
 20
867.870857535413
 30
0.0
 70
0
  0
VERTEX
  5
1BE
330
17
100
AcDbEntity
  8
0
100
AcDbVertex
100
AcDb2dVertex
 10
1284.5332875654237
 20
830.3001261793706
 30
0.0
 70
0
  0
SEQEND
  5
1B5
330
17
100
AcDbEntity
  8
0
  0
POLYLINE
  5
1BF
330
17
100
AcDbEntity
  8
0
100
AcDb2dPolyline
 66
1
 10
0.0
 20
0.0
 30
0.0
 70
0
  0
VERTEX
  5
1C1
330
17
100
AcDbEntity
  8
0
100
AcDbVertex
100
AcDb2dVertex
 10
1418.1916043308258
 20
571.1819153152171
 30
0.0
 70
0
  0
VERTEX
  5
1C2
330
17
100
AcDbEntity
  8
0
100
AcDbVertex
100
AcDb2dVertex
 10
1484.7091235651085
 20
583.4617226753481
 30
0.0
 70
0
  0
VERTEX
  5
1C3
330
17
100
AcDbEntity
  8
0
100
AcDbVertex
100
AcDb2dVertex
 10
1533.1590142147106
 20
597.6361651468874
 30
0.0
 70
0
  0
VERTEX
  5
1C4
330
17
100
AcDbEntity
  8
0
100
AcDbVertex
100
AcDb2dVertex
 10
1534.7614067291813
 20
659.1775370720151
 30
0.0
 70
0
  0
VERTEX
  5
1C5
330
17
100
AcDbEntity
  8
0
100
AcDbVertex
100
AcDb2dVertex
 10
1502.8212874276242
 20
766.7775799797487
 30
0.0
 70
0
  0
VERTEX
  5
1C6
330
17
100
AcDbEntity
  8
0
100
AcDbVertex
100
AcDb2dVertex
 10
1434.857608977176
 20
701.3042830858418
 30
0.0
 70
0
  0
VERTEX
  5
1C7
330
17
100
AcDbEntity
  8
0
100
AcDbVertex
100
AcDb2dVertex
 10
1343.4337610260643
 20
687.2995272465365
 30
0.0
 70
0
  0
VERTEX
  5
1C8
330
17
100
AcDbEntity
  8
0
100
AcDbVertex
100
AcDb2dVertex
 10
1396.7618344353768
 20
619.2305621269296
 30
0.0
 70
0
  0
VERTEX
  5
1C9
330
17
100
AcDbEntity
  8
0
100
AcDbVertex
100
AcDb2dVertex
 10
1418.1916043308258
 20
571.1819153152171
 30
0.0
 70
0
  0
SEQEND
  5
1C0
330
17
100
AcDbEntity
  8
0
  0
POLYLINE
  5
1CA
330
17
100
AcDbEntity
  8
0
100
AcDb2dPolyline
 66
1
 10
0.0
 20
0.0
 30
0.0
 70
0
  0
VERTEX
  5
1CC
330
17
100
AcDbEntity
  8
0
100
AcDbVertex
100
AcDb2dVertex
 10
1567.6181542044578
 20
319.2240339897006
 30
0.0
 70
0
  0
VERTEX
  5
1CD
330
17
100
AcDbEntity
  8
0
100
AcDbVertex
100
AcDb2dVertex
 10
1513.9799893256145
 20
415.9340887988119
 30
0.0
 70
0
  0
VERTEX
  5
1CE
330
17
100
AcDbEntity
  8
0
100
AcDbVertex
100
AcDb2dVertex
 10
1422.235928903262
 20
354.91300244658214
 30
0.0
 70
0
  0
VERTEX
  5
1CF
330
17
100
AcDbEntity
  8
0
100
AcDbVertex
100
AcDb2dVertex
 10
1411.674513811572
 20
237.59391337163552
 30
0.0
 70
0
  0
VERTEX
  5
1D0
330
17
100
AcDbEntity
  8
0
100
AcDbVertex
100
AcDb2dVertex
 10
1528.7808986453563
 20
164.15768954599102
 30
0.0
 70
0
  0
VERTEX
  5
1D1
330
17
100
AcDbEntity
  8
0
100
AcDbVertex
100
AcDb2dVertex
 10
1567.6181542044578
 20
319.2240339897006
 30
0.0
 70
0
  0
SEQEND
  5
1CB
330
17
100
AcDbEntity
  8
0
  0
POLYLINE
  5
1D2
330
17
100
AcDbEntity
  8
0
100
AcDb2dPolyline
 66
1
 10
0.0
 20
0.0
 30
0.0
 70
0
  0
VERTEX
  5
1D4
330
17
100
AcDbEntity
  8
0
100
AcDbVertex
100
AcDb2dVertex
 10
1598.452300996046
 20
790.4452797161614
 30
0.0
 70
0
  0
VERTEX
  5
1D5
330
17
100
AcDbEntity
  8
0
100
AcDbVertex
100
AcDb2dVertex
 10
1581.3544738441753
 20
973.7982874811669
 30
0.0
 70
0
  0
VERTEX
  5
1D6
330
17
100
AcDbEntity
  8
0
100
AcDbVertex
100
AcDb2dVertex
 10
1400.227394450372
 20
983.4366146361182
 30
0.0
 70
0
  0
VERTEX
  5
1D7
330
17
100
AcDbEntity
  8
0
100
AcDbVertex
100
AcDb2dVertex
 10
1459.9976023716545
 20
828.4969494807999
 30
0.0
 70
0
  0
VERTEX
  5
1D8
330
17
100
AcDbEntity
  8
0
100
AcDbVertex
100
AcDb2dVertex
 10
1598.452300996046
 20
790.4452797161614
 30
0.0
 70
0
  0
SEQEND
  5
1D3
330
17
100
AcDbEntity
  8
0
  0
POLYLINE
  5
1D9
330
17
100
AcDbEntity
  8
0
100
AcDb2dPolyline
 66
1
 10
0.0
 20
0.0
 30
0.0
 70
0
  0
VERTEX
  5
1DB
330
17
100
AcDbEntity
  8
0
100
AcDbVertex
100
AcDb2dVertex
 10
1556.3533953716346
 20
606.7451528184962
 30
0.0
 70
0
  0
VERTEX
  5
1DC
330
17
100
AcDbEntity
  8
0
100
AcDbVertex
100
AcDb2dVertex
 10
1533.922116137829
 20
555.3899246088248
 30
0.0
 70
0
  0
VERTEX
  5
1DD
330
17
100
AcDbEntity
  8
0
100
AcDbVertex
100
AcDb2dVertex
 10
1463.4454556767491
 20
536.8267630833333
 30
0.0
 70
0
  0
VERTEX
  5
1DE
330
17
100
AcDbEntity
  8
0
100
AcDbVertex
100
AcDb2dVertex
 10
1492.9564620570034
 20
481.0013530493715
 30
0.0
 70
0
  0
VERTEX
  5
1DF
330
17
100
AcDbEntity
  8
0
100
AcDbVertex
100
AcDb2dVertex
 10
1532.071434081669
 20
404.0169183701653
 30
0.0
 70
0
  0
VERTEX
  5
1E0
330
17
100
AcDbEntity
  8
0
100
AcDbVertex
100
AcDb2dVertex
 10
1625.3697258619977
 20
400.6203614143334
 30
0.0
 70
0
  0
VERTEX
  5
1E1
330
17
100
AcDbEntity
  8
0
100
AcDbVertex
100
AcDb2dVertex
 10
1643.5304292614426
 20
465.0265069444163
 30
0.0
 70
0
  0
VERTEX
  5
1E2
330
17
100
AcDbEntity
  8
0
100
AcDbVertex
100
AcDb2dVertex
 10
1652.3294066645535
 20
511.2449273633506
 30
0.0
 70
0
  0
VERTEX
  5
1E3
330
17
100
AcDbEntity
  8
0
100
AcDbVertex
100
AcDb2dVertex
 10
1618.6607425105728
 20
559.1123918478387
 30
0.0
 70
0
  0
VERTEX
  5
1E4
330
17
100
AcDbEntity
  8
0
100
AcDbVertex
100
AcDb2dVertex
 10
1600.0541436408225
 20
584.217927195295
 30
0.0
 70
0
  0
VERTEX
  5
1E5
330
17
100
AcDbEntity
  8
0
100
AcDbVertex
100
AcDb2dVertex
 10
1556.3533953716346
 20
606.7451528184962
 30
0.0
 70
0
  0
SEQEND
  5
1DA
330
17
100
AcDbEntity
  8
0
  0
POLYLINE
  5
1E6
330
17
100
AcDbEntity
  8
0
100
AcDb2dPolyline
 66
1
 10
0.0
 20
0.0
 30
0.0
 70
0
  0
VERTEX
  5
1E8
330
17
100
AcDbEntity
  8
0
100
AcDbVertex
100
AcDb2dVertex
 10
1499.100573473725
 20
138.00012006143254
 30
0.0
 70
0
  0
VERTEX
  5
1E9
330
17
100
AcDbEntity
  8
0
100
AcDbVertex
100
AcDb2dVertex
 10
1411.5708081178855
 20
6.436904355287794
 30
0.0
 70
0
  0
VERTEX
  5
1EA
330
17
100
AcDbEntity
  8
0
100
AcDbVertex
100
AcDb2dVertex
 10
1613.562193781479
 20
6.342005228499346
 30
0.0
 70
0
  0
VERTEX
  5
1EB
330
17
100
AcDbEntity
  8
0
100
AcDbVertex
100
AcDb2dVertex
 10
1596.8611574868012
 20
192.25963716972197
 30
0.0
 70
0
  0
VERTEX
  5
1EC
330
17
100
AcDbEntity
  8
0
100
AcDbVertex
100
AcDb2dVertex
 10
1499.100573473725
 20
138.00012006143254
 30
0.0
 70
0
  0
SEQEND
  5
1E7
330
17
100
AcDbEntity
  8
0
  0
POLYLINE
  5
1ED
330
17
100
AcDbEntity
  8
0
100
AcDb2dPolyline
 66
1
 10
0.0
 20
0.0
 30
0.0
 70
0
  0
VERTEX
  5
1EF
330
17
100
AcDbEntity
  8
0
100
AcDbVertex
100
AcDb2dVertex
 10
1493.8279004975886
 20
798.6148837905672
 30
0.0
 70
0
  0
VERTEX
  5
1F0
330
17
100
AcDbEntity
  8
0
100
AcDbVertex
100
AcDb2dVertex
 10
1576.0898677337177
 20
685.0951102073717
 30
0.0
 70
0
  0
VERTEX
  5
1F1
330
17
100
AcDbEntity
  8
0
100
AcDbVertex
100
AcDb2dVertex
 10
1702.343175231258
 20
618.8590578916079
 30
0.0
 70
0
  0
VERTEX
  5
1F2
330
17
100
AcDbEntity
  8
0
100
AcDbVertex
100
AcDb2dVertex
 10
1678.3409925821554
 20
776.0498991462757
 30
0.0
 70
0
  0
VERTEX
  5
1F3
330
17
100
AcDbEntity
  8
0
100
AcDbVertex
100
AcDb2dVertex
 10
1627.2403261016505
 20
773.1749487472389
 30
0.0
 70
0
  0
VERTEX
  5
1F4
330
17
100
AcDbEntity
  8
0
100
AcDbVertex
100
AcDb2dVertex
 10
1493.8279004975886
 20
798.6148837905672
 30
0.0
 70
0
  0
SEQEND
  5
1EE
330
17
100
AcDbEntity
  8
0
  0
POLYLINE
  5
1F5
330
17
100
AcDbEntity
  8
0
100
AcDb2dPolyline
 66
1
 10
0.0
 20
0.0
 30
0.0
 70
0
  0
VERTEX
  5
1F7
330
17
100
AcDbEntity
  8
0
100
AcDbVertex
100
AcDb2dVertex
 10
1707.7411390204163
 20
124.71215699629775
 30
0.0
 70
0
  0
VERTEX
  5
1F8
330
17
100
AcDbEntity
  8
0
100
AcDbVertex
100
AcDb2dVertex
 10
1740.7752229664486
 20
214.76716599650905
 30
0.0
 70
0
  0
VERTEX
  5
1F9
330
17
100
AcDbEntity
  8
0
100
AcDbVertex
100
AcDb2dVertex
 10
1720.731016585547
 20
314.6885905926134
 30
0.0
 70
0
  0
VERTEX
  5
1FA
330
17
100
AcDbEntity
  8
0
100
AcDbVertex
100
AcDb2dVertex
 10
1608.7587355255932
 20
342.6665333216562
 30
0.0
 70
0
  0
VERTEX
  5
1FB
330
17
100
AcDbEntity
  8
0
100
AcDbVertex
100
AcDb2dVertex
 10
1566.3208576238387
 20
255.48309976885363
 30
0.0
 70
0
  0
VERTEX
  5
1FC
330
17
100
AcDbEntity
  8
0
100
AcDbVertex
100
AcDb2dVertex
 10
1607.725928175537
 20
197.9043103786753
 30
0.0
 70
0
  0
VERTEX
  5
1FD
330
17
100
AcDbEntity
  8
0
100
AcDbVertex
100
AcDb2dVertex
 10
1627.5964143809254
 20
178.48241727111414
 30
0.0
 70
0
  0
VERTEX
  5
1FE
330
17
100
AcDbEntity
  8
0
100
AcDbVertex
100
AcDb2dVertex
 10
1707.7411390204163
 20
124.71215699629775
 30
0.0
 70
0
  0
SEQEND
  5
1F6
330
17
100
AcDbEntity
  8
0
  0
POLYLINE
  5
1FF
330
17
100
AcDbEntity
  8
0
100
AcDb2dPolyline
 66
1
 10
0.0
 20
0.0
 30
0.0
 70
0
  0
VERTEX
  5
201
330
17
100
AcDbEntity
  8
0
100
AcDbVertex
100
AcDb2dVertex
 10
1785.8187033171685
 20
883.7895500999248
 30
0.0
 70
0
  0
VERTEX
  5
202
330
17
100
AcDbEntity
  8
0
100
AcDbVertex
100
AcDb2dVertex
 10
1728.4385806898654
 20
968.5963208469265
 30
0.0
 70
0
  0
VERTEX
  5
203
330
17
100
AcDbEntity
  8
0
100
AcDbVertex
100
AcDb2dVertex
 10
1658.118827122585
 20
988.7821351133998
 30
0.0
 70
0
  0
VERTEX
  5
204
330
17
100
AcDbEntity
  8
0
100
AcDbVertex
100
AcDb2dVertex
 10
1618.18941233362
 20
908.7587366180312
 30
0.0
 70
0
  0
VERTEX
  5
205
330
17
100
AcDbEntity
  8
0
100
AcDbVertex
100
AcDb2dVertex
 10
1700.3219852942937
 20
762.7384626325083
 30
0.0
 70
0
  0
VERTEX
  5
206
330
17
100
AcDbEntity
  8
0
100
AcDbVertex
100
AcDb2dVertex
 10
1785.8187033171685
 20
883.7895500999248
 30
0.0
 70
0
  0
SEQEND
  5
200
330
17
100
AcDbEntity
  8
0
  0
POLYLINE
  5
207
330
17
100
AcDbEntity
  8
0
100
AcDb2dPolyline
 66
1
 10
0.0
 20
0.0
 30
0.0
 70
0
  0
VERTEX
  5
209
330
17
100
AcDbEntity
  8
0
100
AcDbVertex
100
AcDb2dVertex
 10
1823.4040609348497
 20
386.569129137685
 30
0.0
 70
0
  0
VERTEX
  5
20A
330
17
100
AcDbEntity
  8
0
100
AcDbVertex
100
AcDb2dVertex
 10
1826.4962687505117
 20
441.8870244058847
 30
0.0
 70
0
  0
VERTEX
  5
20B
330
17
100
AcDbEntity
  8
0
100
AcDbVertex
100
AcDb2dVertex
 10
1823.2457392100644
 20
490.5372703719165
 30
0.0
 70
0
  0
VERTEX
  5
20C
330
17
100
AcDbEntity
  8
0
100
AcDbVertex
100
AcDb2dVertex
 10
1763.6289320509288
 20
518.8921947012176
 30
0.0
 70
0
  0
VERTEX
  5
20D
330
17
100
AcDbEntity
  8
0
100
AcDbVertex
100
AcDb2dVertex
 10
1697.9095761241724
 20
528.2769331941398
 30
0.0
 70
0
  0
VERTEX
  5
20E
330
17
100
AcDbEntity
  8
0
100
AcDbVertex
100
AcDb2dVertex
 10
1656.1183538901948
 20
477.41528893475095
 30
0.0
 70
0
  0
VERTEX
  5
20F
330
17
100
AcDbEntity
  8
0
100
AcDbVertex
100
AcDb2dVertex
 10
1641.2581996832682
 20
403.81317328877367
 30
0.0
 70
0
  0
VERTEX
  5
210
330
17
100
AcDbEntity
  8
0
100
AcDbVertex
100
AcDb2dVertex
 10
1702.850481343576
 20
381.7790930487413
 30
0.0
 70
0
  0
VERTEX
  5
211
330
17
100
AcDbEntity
  8
0
100
AcDbVertex
100
AcDb2dVertex
 10
1721.7627362743585
 20
325.2700715987081
 30
0.0
 70
0
  0
VERTEX
  5
212
330
17
100
AcDbEntity
  8
0
100
AcDbVertex
100
AcDb2dVertex
 10
1775.8390288990279
 20
366.04945527600006
 30
0.0
 70
0
  0
VERTEX
  5
213
330
17
100
AcDbEntity
  8
0
100
AcDbVertex
100
AcDb2dVertex
 10
1823.4040609348497
 20
386.569129137685
 30
0.0
 70
0
  0
SEQEND
  5
208
330
17
100
AcDbEntity
  8
0
  0
POLYLINE
  5
214
330
17
100
AcDbEntity
  8
0
100
AcDb2dPolyline
 66
1
 10
0.0
 20
0.0
 30
0.0
 70
0
  0
VERTEX
  5
216
330
17
100
AcDbEntity
  8
0
100
AcDbVertex
100
AcDb2dVertex
 10
1732.9060783093603
 20
135.6451450792112
 30
0.0
 70
0
  0
VERTEX
  5
217
330
17
100
AcDbEntity
  8
0
100
AcDbVertex
100
AcDb2dVertex
 10
1675.730371066248
 20
65.45226691103883
 30
0.0
 70
0
  0
VERTEX
  5
218
330
17
100
AcDbEntity
  8
0
100
AcDbVertex
100
AcDb2dVertex
 10
1717.1820246548775
 20
2.932471773304286
 30
0.0
 70
0
  0
VERTEX
  5
219
330
17
100
AcDbEntity
  8
0
100
AcDbVertex
100
AcDb2dVertex
 10
1785.954800457364
 20
18.13691457435246
 30
0.0
 70
0
  0
VERTEX
  5
21A
330
17
100
AcDbEntity
  8
0
100
AcDbVertex
100
AcDb2dVertex
 10
1814.7382780951357
 20
20.28668129773314
 30
0.0
 70
0
  0
VERTEX
  5
21B
330
17
100
AcDbEntity
  8
0
100
AcDbVertex
100
AcDb2dVertex
 10
1855.1236748277142
 20
52.790578572076214
 30
0.0
 70
0
  0
VERTEX
  5
21C
330
17
100
AcDbEntity
  8
0
100
AcDbVertex
100
AcDb2dVertex
 10
1856.067629626873
 20
157.0765362685412
 30
0.0
 70
0
  0
VERTEX
  5
21D
330
17
100
AcDbEntity
  8
0
100
AcDbVertex
100
AcDb2dVertex
 10
1784.4531967051948
 20
209.918280459781
 30
0.0
 70
0
  0
VERTEX
  5
21E
330
17
100
AcDbEntity
  8
0
100
AcDbVertex
100
AcDb2dVertex
 10
1732.9060783093603
 20
135.6451450792112
 30
0.0
 70
0
  0
SEQEND
  5
215
330
17
100
AcDbEntity
  8
0
  0
POLYLINE
  5
21F
330
17
100
AcDbEntity
  8
0
100
AcDb2dPolyline
 66
1
 10
0.0
 20
0.0
 30
0.0
 70
0
  0
VERTEX
  5
221
330
17
100
AcDbEntity
  8
0
100
AcDbVertex
100
AcDb2dVertex
 10
1706.471813355935
 20
654.7112697196648
 30
0.0
 70
0
  0
VERTEX
  5
222
330
17
100
AcDbEntity
  8
0
100
AcDbVertex
100
AcDb2dVertex
 10
1851.0063065692534
 20
617.7454867951412
 30
0.0
 70
0
  0
VERTEX
  5
223
330
17
100
AcDbEntity
  8
0
100
AcDbVertex
100
AcDb2dVertex
 10
1877.7796517953973
 20
818.9892157502969
 30
0.0
 70
0
  0
VERTEX
  5
224
330
17
100
AcDbEntity
  8
0
100
AcDbVertex
100
AcDb2dVertex
 10
1697.0860885074167
 20
732.3259521428379
 30
0.0
 70
0
  0
VERTEX
  5
225
330
17
100
AcDbEntity
  8
0
100
AcDbVertex
100
AcDb2dVertex
 10
1706.471813355935
 20
654.7112697196648
 30
0.0
 70
0
  0
SEQEND
  5
220
330
17
100
AcDbEntity
  8
0
  0
POLYLINE
  5
226
330
17
100
AcDbEntity
  8
0
100
AcDb2dPolyline
 66
1
 10
0.0
 20
0.0
 30
0.0
 70
0
  0
VERTEX
  5
228
330
17
100
AcDbEntity
  8
0
100
AcDbVertex
100
AcDb2dVertex
 10
1847.8495114494863
 20
427.9741549822831
 30
0.0
 70
0
  0
VERTEX
  5
229
330
17
100
AcDbEntity
  8
0
100
AcDbVertex
100
AcDb2dVertex
 10
1839.6094532458392
 20
356.67047414419915
 30
0.0
 70
0
  0
VERTEX
  5
22A
330
17
100
AcDbEntity
  8
0
100
AcDbVertex
100
AcDb2dVertex
 10
1750.706283142458
 20
327.60968505212463
 30
0.0
 70
0
  0
VERTEX
  5
22B
330
17
100
AcDbEntity
  8
0
100
AcDbVertex
100
AcDb2dVertex
 10
1802.6972984440083
 20
207.37222391292408
 30
0.0
 70
0
  0
VERTEX
  5
22C
330
17
100
AcDbEntity
  8
0
100
AcDbVertex
100
AcDb2dVertex
 10
1878.861691335782
 20
284.81832340723935
 30
0.0
 70
0
  0
VERTEX
  5
22D
330
17
100
AcDbEntity
  8
0
100
AcDbVertex
100
AcDb2dVertex
 10
1909.0479574359742
 20
340.19794240867674
 30
0.0
 70
0
  0
VERTEX
  5
22E
330
17
100
AcDbEntity
  8
0
100
AcDbVertex
100
AcDb2dVertex
 10
1914.4987425083928
 20
388.9231072170393
 30
0.0
 70
0
  0
VERTEX
  5
22F
330
17
100
AcDbEntity
  8
0
100
AcDbVertex
100
AcDb2dVertex
 10
1847.8495114494863
 20
427.9741549822831
 30
0.0
 70
0
  0
SEQEND
  5
227
330
17
100
AcDbEntity
  8
0
  0
POLYLINE
  5
230
330
17
100
AcDbEntity
  8
0
100
AcDb2dPolyline
 66
1
 10
0.0
 20
0.0
 30
0.0
 70
0
  0
VERTEX
  5
232
330
17
100
AcDbEntity
  8
0
100
AcDbVertex
100
AcDb2dVertex
 10
1986.1212961644287
 20
524.0759884433027
 30
0.0
 70
0
  0
VERTEX
  5
233
330
17
100
AcDbEntity
  8
0
100
AcDbVertex
100
AcDb2dVertex
 10
1952.8516692704122
 20
562.2595273667127
 30
0.0
 70
0
  0
VERTEX
  5
234
330
17
100
AcDbEntity
  8
0
100
AcDbVertex
100
AcDb2dVertex
 10
1907.9408808035098
 20
601.4912134569232
 30
0.0
 70
0
  0
VERTEX
  5
235
330
17
100
AcDbEntity
  8
0
100
AcDbVertex
100
AcDb2dVertex
 10
1785.5717309650445
 20
603.7063622327006
 30
0.0
 70
0
  0
VERTEX
  5
236
330
17
100
AcDbEntity
  8
0
100
AcDbVertex
100
AcDb2dVertex
 10
1834.8073849111915
 20
490.1887405523139
 30
0.0
 70
0
  0
VERTEX
  5
237
330
17
100
AcDbEntity
  8
0
100
AcDbVertex
100
AcDb2dVertex
 10
1875.7179022669054
 20
422.105290934434
 30
0.0
 70
0
  0
VERTEX
  5
238
330
17
100
AcDbEntity
  8
0
100
AcDbVertex
100
AcDb2dVertex
 10
1936.1156809953948
 20
439.8926100232157
 30
0.0
 70
0
  0
VERTEX
  5
239
330
17
100
AcDbEntity
  8
0
100
AcDbVertex
100
AcDb2dVertex
 10
1987.2582356695461
 20
458.3976838429584
 30
0.0
 70
0
  0
VERTEX
  5
23A
330
17
100
AcDbEntity
  8
0
100
AcDbVertex
100
AcDb2dVertex
 10
1986.1212961644287
 20
524.0759884433027
 30
0.0
 70
0
  0
SEQEND
  5
231
330
17
100
AcDbEntity
  8
0
  0
POLYLINE
  5
23B
330
17
100
AcDbEntity
  8
0
100
AcDb2dPolyline
 66
1
 10
0.0
 20
0.0
 30
0.0
 70
0
  0
VERTEX
  5
23D
330
17
100
AcDbEntity
  8
0
100
AcDbVertex
100
AcDb2dVertex
 10
1870.7347591066375
 20
910.129361986369
 30
0.0
 70
0
  0
VERTEX
  5
23E
330
17
100
AcDbEntity
  8
0
100
AcDbVertex
100
AcDb2dVertex
 10
1839.802215740044
 20
858.5825477053254
 30
0.0
 70
0
  0
VERTEX
  5
23F
330
17
100
AcDbEntity
  8
0
100
AcDbVertex
100
AcDb2dVertex
 10
1897.8013798814977
 20
827.914641782593
 30
0.0
 70
0
  0
VERTEX
  5
240
330
17
100
AcDbEntity
  8
0
100
AcDbVertex
100
AcDb2dVertex
 10
1931.299350944298
 20
866.3087530590523
 30
0.0
 70
0
  0
VERTEX
  5
241
330
17
100
AcDbEntity
  8
0
100
AcDbVertex
100
AcDb2dVertex
 10
1981.488650073297
 20
881.432936196966
 30
0.0
 70
0
  0
VERTEX
  5
242
330
17
100
AcDbEntity
  8
0
100
AcDbVertex
100
AcDb2dVertex
 10
1973.74120554341
 20
928.0470083850425
 30
0.0
 70
0
  0
VERTEX
  5
243
330
17
100
AcDbEntity
  8
0
100
AcDbVertex
100
AcDb2dVertex
 10
1959.909534128989
 20
964.5246277583266
 30
0.0
 70
0
  0
VERTEX
  5
244
330
17
100
AcDbEntity
  8
0
100
AcDbVertex
100
AcDb2dVertex
 10
1914.960410836008
 20
992.7036738912263
 30
0.0
 70
0
  0
VERTEX
  5
245
330
17
100
AcDbEntity
  8
0
100
AcDbVertex
100
AcDb2dVertex
 10
1880.6807526023604
 20
989.9695140069781
 30
0.0
 70
0
  0
VERTEX
  5
246
330
17
100
AcDbEntity
  8
0
100
AcDbVertex
100
AcDb2dVertex
 10
1820.2052846465695
 20
969.1302557901412
 30
0.0
 70
0
  0
VERTEX
  5
247
330
17
100
AcDbEntity
  8
0
100
AcDbVertex
100
AcDb2dVertex
 10
1764.6655804649072
 20
933.9019145207218
 30
0.0
 70
0
  0
VERTEX
  5
248
330
17
100
AcDbEntity
  8
0
100
AcDbVertex
100
AcDb2dVertex
 10
1870.7347591066375
 20
910.129361986369
 30
0.0
 70
0
  0
SEQEND
  5
23C
330
17
100
AcDbEntity
  8
0
  0
POLYLINE
  5
249
330
17
100
AcDbEntity
  8
0
100
AcDb2dPolyline
 66
1
 10
0.0
 20
0.0
 30
0.0
 70
0
  0
VERTEX
  5
24B
330
17
100
AcDbEntity
  8
0
100
AcDbVertex
100
AcDb2dVertex
 10
1886.258454233415
 20
151.32380417102053
 30
0.0
 70
0
  0
VERTEX
  5
24C
330
17
100
AcDbEntity
  8
0
100
AcDbVertex
100
AcDb2dVertex
 10
1912.626291667903
 20
61.74274097505736
 30
0.0
 70
0
  0
VERTEX
  5
24D
330
17
100
AcDbEntity
  8
0
100
AcDbVertex
100
AcDb2dVertex
 10
1971.361950126391
 20
135.0685155074533
 30
0.0
 70
0
  0
VERTEX
  5
24E
330
17
100
AcDbEntity
  8
0
100
AcDbVertex
100
AcDb2dVertex
 10
1987.206028545614
 20
192.3492965595994
 30
0.0
 70
0
  0
VERTEX
  5
24F
330
17
100
AcDbEntity
  8
0
100
AcDbVertex
100
AcDb2dVertex
 10
1933.6197830345734
 20
231.96574944820492
 30
0.0
 70
0
  0
VERTEX
  5
250
330
17
100
AcDbEntity
  8
0
100
AcDbVertex
100
AcDb2dVertex
 10
1860.3397994134712
 20
251.17120270707335
 30
0.0
 70
0
  0
VERTEX
  5
251
330
17
100
AcDbEntity
  8
0
100
AcDbVertex
100
AcDb2dVertex
 10
1837.1688686335378
 20
189.8081356317453
 30
0.0
 70
0
  0
VERTEX
  5
252
330
17
100
AcDbEntity
  8
0
100
AcDbVertex
100
AcDb2dVertex
 10
1886.258454233415
 20
151.32380417102053
 30
0.0
 70
0
  0
SEQEND
  5
24A
330
17
100
AcDbEntity
  8
0
  0
POLYLINE
  5
253
330
17
100
AcDbEntity
  8
0
100
AcDb2dPolyline
 66
1
 10
0.0
 20
0.0
 30
0.0
 70
0
  0
VERTEX
  5
255
330
17
100
AcDbEntity
  8
0
100
AcDbVertex
100
AcDb2dVertex
 10
1889.339501703051
 20
653.6011627322447
 30
0.0
 70
0
  0
VERTEX
  5
256
330
17
100
AcDbEntity
  8
0
100
AcDbVertex
100
AcDb2dVertex
 10
1913.9452636844326
 20
610.4740740165703
 30
0.0
 70
0
  0
VERTEX
  5
257
330
17
100
AcDbEntity
  8
0
100
AcDbVertex
100
AcDb2dVertex
 10
1993.1930710358433
 20
589.1254190093451
 30
0.0
 70
0
  0
VERTEX
  5
258
330
17
100
AcDbEntity
  8
0
100
AcDbVertex
100
AcDb2dVertex
 10
1991.9493308887124
 20
646.9533777071359
 30
0.0
 70
0
  0
VERTEX
  5
259
330
17
100
AcDbEntity
  8
0
100
AcDbVertex
100
AcDb2dVertex
 10
1985.8454740574396
 20
756.9356129421726
 30
0.0
 70
0
  0
VERTEX
  5
25A
330
17
100
AcDbEntity
  8
0
100
AcDbVertex
100
AcDb2dVertex
 10
1873.320413429536
 20
724.5097222956033
 30
0.0
 70
0
  0
VERTEX
  5
25B
330
17
100
AcDbEntity
  8
0
100
AcDbVertex
100
AcDb2dVertex
 10
1889.339501703051
 20
653.6011627322447
 30
0.0
 70
0
  0
SEQEND
  5
254
330
17
100
AcDbEntity
  8
0
  0
POLYLINE
  5
25C
330
17
100
AcDbEntity
  8
0
100
AcDb2dPolyline
 66
1
 10
0.0
 20
0.0
 30
0.0
 70
0
  0
VERTEX
  5
25E
330
17
100
AcDbEntity
  8
0
100
AcDbVertex
100
AcDb2dVertex
 10
544.8295726397002
 20
985.9423806615263
 30
0.0
 70
0
  0
VERTEX
  5
25F
330
17
100
AcDbEntity
  8
0
100
AcDbVertex
100
AcDb2dVertex
 10
497.0533252580016
 20
972.1454551917254
 30
0.0
 70
0
  0
VERTEX
  5
260
330
17
100
AcDbEntity
  8
0
100
AcDbVertex
100
AcDb2dVertex
 10
462.2989865152106
 20
929.3367589154328
 30
0.0
 70
0
  0
VERTEX
  5
261
330
17
100
AcDbEntity
  8
0
100
AcDbVertex
100
AcDb2dVertex
 10
490.91761091284735
 20
859.1382223882193
 30
0.0
 70
0
  0
VERTEX
  5
262
330
17
100
AcDbEntity
  8
0
100
AcDbVertex
100
AcDb2dVertex
 10
558.1206042517787
 20
877.1386107677702
 30
0.0
 70
0
  0
VERTEX
  5
263
330
17
100
AcDbEntity
  8
0
100
AcDbVertex
100
AcDb2dVertex
 10
593.8009637348875
 20
952.1237921602345
 30
0.0
 70
0
  0
VERTEX
  5
264
330
17
100
AcDbEntity
  8
0
100
AcDbVertex
100
AcDb2dVertex
 10
544.8295726397002
 20
985.9423806615263
 30
0.0
 70
0
  0
SEQEND
  5
25D
330
17
100
AcDbEntity
  8
0
  0
POLYLINE
  5
265
330
17
100
AcDbEntity
  8
0
100
AcDb2dPolyline
 66
1
 10
0.0
 20
0.0
 30
0.0
 70
0
  0
VERTEX
  5
267
330
17
100
AcDbEntity
  8
0
100
AcDbVertex
100
AcDb2dVertex
 10
1285.5968426226773
 20
170.60016353266374
 30
0.0
 70
0
  0
VERTEX
  5
268
330
17
100
AcDbEntity
  8
0
100
AcDbVertex
100
AcDb2dVertex
 10
1301.7183653545374
 20
203.8390597973189
 30
0.0
 70
0
  0
VERTEX
  5
269
330
17
100
AcDbEntity
  8
0
100
AcDbVertex
100
AcDb2dVertex
 10
1319.9664992216005
 20
257.5922766012219
 30
0.0
 70
0
  0
VERTEX
  5
26A
330
17
100
AcDbEntity
  8
0
100
AcDbVertex
100
AcDb2dVertex
 10
1267.634513141746
 20
275.6557852193555
 30
0.0
 70
0
  0
VERTEX
  5
26B
330
17
100
AcDbEntity
  8
0
100
AcDbVertex
100
AcDb2dVertex
 10
1232.76549603307
 20
301.75416644460597
 30
0.0
 70
0
  0
VERTEX
  5
26C
330
17
100
AcDbEntity
  8
0
100
AcDbVertex
100
AcDb2dVertex
 10
1204.055400117666
 20
254.41551853429803
 30
0.0
 70
0
  0
VERTEX
  5
26D
330
17
100
AcDbEntity
  8
0
100
AcDbVertex
100
AcDb2dVertex
 10
1195.965261468541
 20
225.3401389969266
 30
0.0
 70
0
  0
VERTEX
  5
26E
330
17
100
AcDbEntity
  8
0
100
AcDbVertex
100
AcDb2dVertex
 10
1217.9038117839586
 20
201.29446455504237
 30
0.0
 70
0
  0
VERTEX
  5
26F
330
17
100
AcDbEntity
  8
0
100
AcDbVertex
100
AcDb2dVertex
 10
1252.0089127058493
 20
216.1197056387756
 30
0.0
 70
0
  0
VERTEX
  5
270
330
17
100
AcDbEntity
  8
0
100
AcDbVertex
100
AcDb2dVertex
 10
1285.5968426226773
 20
170.60016353266374
 30
0.0
 70
0
  0
SEQEND
  5
266
330
17
100
AcDbEntity
  8
0
  0
POLYLINE
  5
271
330
17
100
AcDbEntity
  8
0
100
AcDb2dPolyline
 66
1
 10
0.0
 20
0.0
 30
0.0
 70
0
  0
VERTEX
  5
273
330
17
100
AcDbEntity
  8
0
100
AcDbVertex
100
AcDb2dVertex
 10
553.52845593245
 20
43.05527456216354
 30
0.0
 70
0
  0
VERTEX
  5
274
330
17
100
AcDbEntity
  8
0
100
AcDbVertex
100
AcDb2dVertex
 10
592.5386853407165
 20
2.111960228993075
 30
0.0
 70
0
  0
VERTEX
  5
275
330
17
100
AcDbEntity
  8
0
100
AcDbVertex
100
AcDb2dVertex
 10
640.8643370245409
 20
8.279108128481012
 30
0.0
 70
0
  0
VERTEX
  5
276
330
17
100
AcDbEntity
  8
0
100
AcDbVertex
100
AcDb2dVertex
 10
664.7449947146758
 20
52.25928539749287
 30
0.0
 70
0
  0
VERTEX
  5
277
330
17
100
AcDbEntity
  8
0
100
AcDbVertex
100
AcDb2dVertex
 10
641.4287139145637
 20
98.91445524945756
 30
0.0
 70
0
  0
VERTEX
  5
278
330
17
100
AcDbEntity
  8
0
100
AcDbVertex
100
AcDb2dVertex
 10
576.0630883649208
 20
124.10642128567444
 30
0.0
 70
0
  0
VERTEX
  5
279
330
17
100
AcDbEntity
  8
0
100
AcDbVertex
100
AcDb2dVertex
 10
553.52845593245
 20
43.05527456216354
 30
0.0
 70
0
  0
SEQEND
  5
272
330
17
100
AcDbEntity
  8
0
  0
POLYLINE
  5
27A
330
17
100
AcDbEntity
  8
0
100
AcDb2dPolyline
 66
1
 10
0.0
 20
0.0
 30
0.0
 70
0
  0
VERTEX
  5
27C
330
17
100
AcDbEntity
  8
0
100
AcDbVertex
100
AcDb2dVertex
 10
0.0
 20
0.0
 30
0.0
 70
0
  0
VERTEX
  5
27D
330
17
100
AcDbEntity
  8
0
100
AcDbVertex
100
AcDb2dVertex
 10
0.0
 20
997.9
 30
0.0
 70
0
  0
VERTEX
  5
27E
330
17
100
AcDbEntity
  8
0
100
AcDbVertex
100
AcDb2dVertex
 10
1997.9
 20
997.9
 30
0.0
 70
0
  0
VERTEX
  5
27F
330
17
100
AcDbEntity
  8
0
100
AcDbVertex
100
AcDb2dVertex
 10
1997.9
 20
0.0
 30
0.0
 70
0
  0
VERTEX
  5
280
330
17
100
AcDbEntity
  8
0
100
AcDbVertex
100
AcDb2dVertex
 10
0.0
 20
0.0
 30
0.0
 70
0
  0
SEQEND
  5
27B
330
17
100
AcDbEntity
  8
0
  0
ENDSEC
  0
SECTION
  2
OBJECTS
  0
DICTIONARY
  5
A
330
0
100
AcDbDictionary
281
1
  3
ACAD_COLOR
350
B
  3
ACAD_GROUP
350
C
  3
ACAD_LAYOUT
350
D
  3
ACAD_MATERIAL
350
E
  3
ACAD_MLEADERSTYLE
350
F
  3
ACAD_MLINESTYLE
350
10
  3
ACAD_PLOTSETTINGS
350
11
  3
ACAD_PLOTSTYLENAME
350
12
  3
ACAD_SCALELIST
350
14
  3
ACAD_TABLESTYLE
350
15
  3
ACAD_VISUALSTYLE
350
16
  3
EZDXF_META
350
2D
  0
DICTIONARY
  5
B
330
A
100
AcDbDictionary
281
1
  0
DICTIONARY
  5
C
330
A
100
AcDbDictionary
281
1
  0
DICTIONARY
  5
D
330
A
100
AcDbDictionary
281
1
  3
Model
350
1A
  3
Layout1
350
1E
  0
DICTIONARY
  5
E
330
A
100
AcDbDictionary
281
1
  3
ByBlock
350
1F
  3
ByLayer
350
20
  3
Global
350
21
  0
DICTIONARY
  5
F
330
A
100
AcDbDictionary
281
1
  3
Standard
350
2C
  0
DICTIONARY
  5
10
330
A
100
AcDbDictionary
281
1
  3
Standard
350
22
  0
DICTIONARY
  5
11
330
A
100
AcDbDictionary
281
1
  0
ACDBDICTIONARYWDFLT
  5
12
330
A
100
AcDbDictionary
281
1
  3
Normal
350
13
100
AcDbDictionaryWithDefault
340
13
  0
ACDBPLACEHOLDER
  5
13
330
12
  0
DICTIONARY
  5
14
330
A
100
AcDbDictionary
281
1
  0
DICTIONARY
  5
15
330
A
100
AcDbDictionary
281
1
  0
DICTIONARY
  5
16
330
A
100
AcDbDictionary
281
1
  0
LAYOUT
  5
1A
330
D
100
AcDbPlotSettings
  1

  2
Adobe PDF
  4
A3
  6

 40
7.5
 41
20.0
 42
7.5
 43
20.0
 44
420.0
 45
297.0
 46
0.0
 47
0.0
 48
0.0
 49
0.0
140
0.0
141
0.0
142
1.0
143
1.0
 70
1024
 72
1
 73
1
 74
5
  7

 75
16
 76
0
 77
2
 78
300
147
1.0
148
0.0
149
0.0
100
AcDbLayout
  1
Model
 70
1
 71
0
 10
0.0
 20
0.0
 11
420.0
 21
297.0
 12
0.0
 22
0.0
 32
0.0
 14
1e+20
 24
1e+20
 34
1e+20
 15
-1e+20
 25
-1e+20
 35
-1e+20
146
0.0
 13
0.0
 23
0.0
 33
0.0
 16
1.0
 26
0.0
 36
0.0
 17
0.0
 27
1.0
 37
0.0
 76
1
330
17
  0
LAYOUT
  5
1E
330
D
100
AcDbPlotSettings
  1

  2
Adobe PDF
  4
A3
  6

 40
7.5
 41
20.0
 42
7.5
 43
20.0
 44
420.0
 45
297.0
 46
0.0
 47
0.0
 48
0.0
 49
0.0
140
0.0
141
0.0
142
1.0
143
1.0
 70
0
 72
1
 73
1
 74
5
  7

 75
16
 76
0
 77
2
 78
300
147
1.0
148
0.0
149
0.0
100
AcDbLayout
  1
Layout1
 70
1
 71
1
 10
0.0
 20
0.0
 11
420.0
 21
297.0
 12
0.0
 22
0.0
 32
0.0
 14
1e+20
 24
1e+20
 34
1e+20
 15
-1e+20
 25
-1e+20
 35
-1e+20
146
0.0
 13
0.0
 23
0.0
 33
0.0
 16
1.0
 26
0.0
 36
0.0
 17
0.0
 27
1.0
 37
0.0
 76
1
330
1B
  0
MATERIAL
  5
1F
102
{ACAD_REACTORS
330
E
102
}
330
E
100
AcDbMaterial
  1
ByBlock
  2

 70
0
 40
1.0
 71
1
 41
1.0
 91
-1023410177
 42
1.0
 72
1
  3

 73
1
 74
1
 75
1
 44
0.5
 73
0
 45
1.0
 46
1.0
 77
1
  4

 78
1
 79
1
170
1
 48
1.0
171
1
  6

172
1
173
1
174
1
140
1.0
141
1.0
175
1
  7

176
1
177
1
178
1
143
1.0
179
1
  8

270
1
271
1
272
1
145
1.0
146
1.0
273
1
  9

274
1
275
1
276
1
 42
1.0
 72
1
  3

 73
1
 74
1
 75
1
 94
63
  0
MATERIAL
  5
20
102
{ACAD_REACTORS
330
E
102
}
330
E
100
AcDbMaterial
  1
ByLayer
  2

 70
0
 40
1.0
 71
1
 41
1.0
 91
-1023410177
 42
1.0
 72
1
  3

 73
1
 74
1
 75
1
 44
0.5
 73
0
 45
1.0
 46
1.0
 77
1
  4

 78
1
 79
1
170
1
 48
1.0
171
1
  6

172
1
173
1
174
1
140
1.0
141
1.0
175
1
  7

176
1
177
1
178
1
143
1.0
179
1
  8

270
1
271
1
272
1
145
1.0
146
1.0
273
1
  9

274
1
275
1
276
1
 42
1.0
 72
1
  3

 73
1
 74
1
 75
1
 94
63
  0
MATERIAL
  5
21
102
{ACAD_REACTORS
330
E
102
}
330
E
100
AcDbMaterial
  1
Global
  2

 70
0
 40
1.0
 71
1
 41
1.0
 91
-1023410177
 42
1.0
 72
1
  3

 73
1
 74
1
 75
1
 44
0.5
 73
0
 45
1.0
 46
1.0
 77
1
  4

 78
1
 79
1
170
1
 48
1.0
171
1
  6

172
1
173
1
174
1
140
1.0
141
1.0
175
1
  7

176
1
177
1
178
1
143
1.0
179
1
  8

270
1
271
1
272
1
145
1.0
146
1.0
273
1
  9

274
1
275
1
276
1
 42
1.0
 72
1
  3

 73
1
 74
1
 75
1
 94
63
  0
MLINESTYLE
  5
22
102
{ACAD_REACTORS
330
10
102
}
330
10
100
AcDbMlineStyle
  2
Standard
 70
0
  3

 62
256
 51
90.0
 52
90.0
 71
2
 49
0.5
 62
256
  6
BYLAYER
 49
-0.5
 62
256
  6
BYLAYER
  0
MLEADERSTYLE
  5
2C
102
{ACAD_REACTORS
330
F
102
}
330
F
100
AcDbMLeaderStyle
179
2
170
2
171
1
172
0
 90
2
 40
0.0
 41
0.0
173
1
 91
-1056964608
 92
-2
290
1
 42
2.0
291
1
 43
8.0
  3
Standard
 44
4.0
300

342
29
174
1
175
1
176
0
178
1
 93
-1056964608
 45
4.0
292
0
297
0
 46
4.0
 94
-1056964608
 47
1.0
 49
1.0
140
1.0
294
1
141
0.0
177
0
142
1.0
295
0
296
0
143
3.75
271
0
272
9
273
9
  0
DICTIONARY
  5
2D
330
A
100
AcDbDictionary
280
1
281
1
  3
CREATED_BY_EZDXF
350
2E
  3
WRITTEN_BY_EZDXF
350
283
  0
DICTIONARYVAR
  5
2E
330
2D
100
DictionaryVariables
280
0
  1
0.18.1 @ 2022-09-25T11:09:27.195474+00:00
  0
DICTIONARYVAR
  5
283
330
2D
100
DictionaryVariables
280
0
  1
0.18.1 @ 2022-09-25T11:09:27.226718+00:00
  0
ENDSEC
  0
EOF
