  0
SECTION
  2
HEADER
  9
$ACADVER
  1
AC1027
  9
$ACADMAINTVER
 70
105
  9
$DWGCODEPAGE
  3
ANSI_1252
  9
$LASTSAVEDBY
  1
ezdxf
  9
$REQUIREDVERSIONS
160
0
  9
$INSBASE
 10
0.0
 20
0.0
 30
0.0
  9
$EXTMIN
 10
1e+20
 20
1e+20
 30
1e+20
  9
$EXTMAX
 10
-1e+20
 20
-1e+20
 30
-1e+20
  9
$LIMMIN
 10
0.0
 20
0.0
  9
$LIMMAX
 10
420.0
 20
297.0
  9
$ORTHOMODE
 70
0
  9
$REGENMODE
 70
1
  9
$FILLMODE
 70
1
  9
$QTEXTMODE
 70
0
  9
$MIRRTEXT
 70
1
  9
$LTSCALE
 40
1.0
  9
$ATTMODE
 70
1
  9
$TEXTSIZE
 40
2.5
  9
$TRACEWID
 40
1.0
  9
$TEXTSTYLE
  7
Standard
  9
$CLAYER
  8
0
  9
$CELTYPE
  6
ByLayer
  9
$CECOLOR
 62
256
  9
$CELTSCALE
 40
1.0
  9
$DISPSILH
 70
0
  9
$DIMSCALE
 40
1.0
  9
$DIMASZ
 40
2.5
  9
$DIMEXO
 40
0.625
  9
$DIMDLI
 40
3.75
  9
$DIMRND
 40
0.0
  9
$DIMDLE
 40
0.0
  9
$DIMEXE
 40
1.25
  9
$DIMTP
 40
0.0
  9
$DIMTM
 40
0.0
  9
$DIMTXT
 40
2.5
  9
$DIMCEN
 40
2.5
  9
$DIMTSZ
 40
0.0
  9
$DIMTOL
 70
0
  9
$DIMLIM
 70
0
  9
$DIMTIH
 70
0
  9
$DIMTOH
 70
0
  9
$DIMSE1
 70
0
  9
$DIMSE2
 70
0
  9
$DIMTAD
 70
1
  9
$DIMZIN
 70
8
  9
$DIMBLK
  1

  9
$DIMASO
 70
1
  9
$DIMSHO
 70
1
  9
$DIMPOST
  1

  9
$DIMAPOST
  1

  9
$DIMALT
 70
0
  9
$DIMALTD
 70
3
  9
$DIMALTF
 40
0.03937007874
  9
$DIMLFAC
 40
1.0
  9
$DIMTOFL
 70
1
  9
$DIMTVP
 40
0.0
  9
$DIMTIX
 70
0
  9
$DIMSOXD
 70
0
  9
$DIMSAH
 70
0
  9
$DIMBLK1
  1

  9
$DIMBLK2
  1

  9
$DIMSTYLE
  2
ISO-25
  9
$DIMCLRD
 70
0
  9
$DIMCLRE
 70
0
  9
$DIMCLRT
 70
0
  9
$DIMTFAC
 40
1.0
  9
$DIMGAP
 40
0.625
  9
$DIMJUST
 70
0
  9
$DIMSD1
 70
0
  9
$DIMSD2
 70
0
  9
$DIMTOLJ
 70
0
  9
$DIMTZIN
 70
8
  9
$DIMALTZ
 70
0
  9
$DIMALTTZ
 70
0
  9
$DIMUPT
 70
0
  9
$DIMDEC
 70
2
  9
$DIMTDEC
 70
2
  9
$DIMALTU
 70
2
  9
$DIMALTTD
 70
3
  9
$DIMTXSTY
  7
Standard
  9
$DIMAUNIT
 70
0
  9
$DIMADEC
 70
0
  9
$DIMALTRND
 40
0.0
  9
$DIMAZIN
 70
0
  9
$DIMDSEP
 70
44
  9
$DIMATFIT
 70
3
  9
$DIMFRAC
 70
0
  9
$DIMLDRBLK
  1

  9
$DIMLUNIT
 70
2
  9
$DIMLWD
 70
-2
  9
$DIMLWE
 70
-2
  9
$DIMTMOVE
 70
0
  9
$DIMFXL
 40
1.0
  9
$DIMFXLON
 70
0
  9
$DIMJOGANG
 40
0.785398163397
  9
$DIMTFILL
 70
0
  9
$DIMTFILLCLR
 70
0
  9
$DIMARCSYM
 70
0
  9
$DIMLTYPE
  6

  9
$DIMLTEX1
  6

  9
$DIMLTEX2
  6

  9
$DIMTXTDIRECTION
 70
0
  9
$LUNITS
 70
2
  9
$LUPREC
 70
4
  9
$SKETCHINC
 40
1.0
  9
$FILLETRAD
 40
10.0
  9
$AUNITS
 70
0
  9
$AUPREC
 70
2
  9
$MENU
  1
.
  9
$ELEVATION
 40
0.0
  9
$PELEVATION
 40
0.0
  9
$THICKNESS
 40
0.0
  9
$LIMCHECK
 70
0
  9
$CHAMFERA
 40
0.0
  9
$CHAMFERB
 40
0.0
  9
$CHAMFERC
 40
0.0
  9
$CHAMFERD
 40
0.0
  9
$SKPOLY
 70
0
  9
$TDCREATE
 40
2459850.0879166666
  9
$TDUCREATE
 40
2458532.153996898
  9
$TDUPDATE
 40
2459850.0879166666
  9
$TDUUPDATE
 40
2458532.1544311
  9
$TDINDWG
 40
0.0
  9
$TDUSRTIMER
 40
0.0
  9
$USRTIMER
 70
1
  9
$ANGBASE
 50
0.0
  9
$ANGDIR
 70
0
  9
$PDMODE
 70
0
  9
$PDSIZE
 40
0.0
  9
$PLINEWID
 40
0.0
  9
$SPLFRAME
 70
0
  9
$SPLINETYPE
 70
6
  9
$SPLINESEGS
 70
8
  9
$HANDSEED
  5
2F8
  9
$SURFTAB1
 70
6
  9
$SURFTAB2
 70
6
  9
$SURFTYPE
 70
6
  9
$SURFU
 70
6
  9
$SURFV
 70
6
  9
$UCSBASE
  2

  9
$UCSNAME
  2

  9
$UCSORG
 10
0.0
 20
0.0
 30
0.0
  9
$UCSXDIR
 10
1.0
 20
0.0
 30
0.0
  9
$UCSYDIR
 10
0.0
 20
1.0
 30
0.0
  9
$UCSORTHOREF
  2

  9
$UCSORTHOVIEW
 70
0
  9
$UCSORGTOP
 10
0.0
 20
0.0
 30
0.0
  9
$UCSORGBOTTOM
 10
0.0
 20
0.0
 30
0.0
  9
$UCSORGLEFT
 10
0.0
 20
0.0
 30
0.0
  9
$UCSORGRIGHT
 10
0.0
 20
0.0
 30
0.0
  9
$UCSORGFRONT
 10
0.0
 20
0.0
 30
0.0
  9
$UCSORGBACK
 10
0.0
 20
0.0
 30
0.0
  9
$PUCSBASE
  2

  9
$PUCSNAME
  2

  9
$PUCSORG
 10
0.0
 20
0.0
 30
0.0
  9
$PUCSXDIR
 10
1.0
 20
0.0
 30
0.0
  9
$PUCSYDIR
 10
0.0
 20
1.0
 30
0.0
  9
$PUCSORTHOREF
  2

  9
$PUCSORTHOVIEW
 70
0
  9
$PUCSORGTOP
 10
0.0
 20
0.0
 30
0.0
  9
$PUCSORGBOTTOM
 10
0.0
 20
0.0
 30
0.0
  9
$PUCSORGLEFT
 10
0.0
 20
0.0
 30
0.0
  9
$PUCSORGRIGHT
 10
0.0
 20
0.0
 30
0.0
  9
$PUCSORGFRONT
 10
0.0
 20
0.0
 30
0.0
  9
$PUCSORGBACK
 10
0.0
 20
0.0
 30
0.0
  9
$USERI1
 70
0
  9
$USERI2
 70
0
  9
$USERI3
 70
0
  9
$USERI4
 70
0
  9
$USERI5
 70
0
  9
$USERR1
 40
0.0
  9
$USERR2
 40
0.0
  9
$USERR3
 40
0.0
  9
$USERR4
 40
0.0
  9
$USERR5
 40
0.0
  9
$WORLDVIEW
 70
1
  9
$SHADEDGE
 70
3
  9
$SHADEDIF
 70
70
  9
$TILEMODE
 70
1
  9
$MAXACTVP
 70
64
  9
$PINSBASE
 10
0.0
 20
0.0
 30
0.0
  9
$PLIMCHECK
 70
0
  9
$PEXTMIN
 10
1e+20
 20
1e+20
 30
1e+20
  9
$PEXTMAX
 10
-1e+20
 20
-1e+20
 30
-1e+20
  9
$PLIMMIN
 10
0.0
 20
0.0
  9
$PLIMMAX
 10
420.0
 20
297.0
  9
$UNITMODE
 70
0
  9
$VISRETAIN
 70
1
  9
$PLINEGEN
 70
0
  9
$PSLTSCALE
 70
1
  9
$TREEDEPTH
 70
3020
  9
$CMLSTYLE
  2
Standard
  9
$CMLJUST
 70
0
  9
$CMLSCALE
 40
20.0
  9
$PROXYGRAPHICS
 70
1
  9
$MEASUREMENT
 70
1
  9
$CELWEIGHT
370
-1
  9
$ENDCAPS
280
0
  9
$JOINSTYLE
280
0
  9
$LWDISPLAY
290
0
  9
$INSUNITS
 70
6
  9
$HYPERLINKBASE
  1

  9
$STYLESHEET
  1

  9
$XEDIT
290
1
  9
$CEPSNTYPE
380
0
  9
$PSTYLEMODE
290
1
  9
$FINGERPRINTGUID
  2
{5127EE1A-CFDD-4E4A-9B03-6330A9612AAC}
  9
$VERSIONGUID
  2
{A5B64244-78A2-42C7-98ED-94156E93CB7D}
  9
$EXTNAMES
290
1
  9
$PSVPSCALE
 40
0.0
  9
$OLESTARTUP
290
0
  9
$SORTENTS
280
127
  9
$INDEXCTL
280
0
  9
$HIDETEXT
280
1
  9
$XCLIPFRAME
280
0
  9
$HALOGAP
280
0
  9
$OBSCOLOR
 70
257
  9
$OBSLTYPE
280
0
  9
$INTERSECTIONDISPLAY
280
0
  9
$INTERSECTIONCOLOR
 70
257
  9
$DIMASSOC
280
2
  9
$PROJECTNAME
  1

  9
$CAMERADISPLAY
290
0
  9
$LENSLENGTH
 40
50.0
  9
$CAMERAHEIGHT
 40
0.0
  9
$STEPSPERSEC
 40
24.0
  9
$STEPSIZE
 40
100.0
  9
$3DDWFPREC
 40
2.0
  9
$PSOLWIDTH
 40
0.005
  9
$PSOLHEIGHT
 40
0.08
  9
$LOFTANG1
 40
1.570796326795
  9
$LOFTANG2
 40
1.570796326795
  9
$LOFTMAG1
 40
0.0
  9
$LOFTMAG2
 40
0.0
  9
$LOFTPARAM
 70
7
  9
$LOFTNORMALS
280
1
  9
$LATITUDE
 40
37.795
  9
$LONGITUDE
 40
-122.394
  9
$NORTHDIRECTION
 40
0.0
  9
$TIMEZONE
 70
-8000
  9
$LIGHTGLYPHDISPLAY
280
1
  9
$TILEMODELIGHTSYNCH
280
1
  9
$CMATERIAL
347
20
  9
$SOLIDHIST
280
0
  9
$SHOWHIST
280
1
  9
$DWFFRAME
280
2
  9
$DGNFRAME
280
2
  9
$REALWORLDSCALE
290
1
  9
$INTERFERECOLOR
 62
256
  9
$CSHADOW
280
0
  9
$SHADOWPLANELOCATION
 40
0.0
  0
ENDSEC
  0
SECTION
  2
CLASSES
  0
CLASS
  1
ACDBDICTIONARYWDFLT
  2
AcDbDictionaryWithDefault
  3
ObjectDBX Classes
 90
0
 91
0
280
0
281
0
  0
CLASS
  1
SUN
  2
AcDbSun
  3
SCENEOE
 90
1153
 91
0
280
0
281
0
  0
CLASS
  1
VISUALSTYLE
  2
AcDbVisualStyle
  3
ObjectDBX Classes
 90
4095
 91
0
280
0
281
0
  0
CLASS
  1
MATERIAL
  2
AcDbMaterial
  3
ObjectDBX Classes
 90
1153
 91
0
280
0
281
0
  0
CLASS
  1
SCALE
  2
AcDbScale
  3
ObjectDBX Classes
 90
1153
 91
0
280
0
281
0
  0
CLASS
  1
TABLESTYLE
  2
AcDbTableStyle
  3
ObjectDBX Classes
 90
4095
 91
0
280
0
281
0
  0
CLASS
  1
MLEADERSTYLE
  2
AcDbMLeaderStyle
  3
ACDB_MLEADERSTYLE_CLASS
 90
4095
 91
0
280
0
281
0
  0
CLASS
  1
DICTIONARYVAR
  2
AcDbDictionaryVar
  3
ObjectDBX Classes
 90
0
 91
0
280
0
281
0
  0
CLASS
  1
CELLSTYLEMAP
  2
AcDbCellStyleMap
  3
ObjectDBX Classes
 90
1152
 91
0
280
0
281
0
  0
CLASS
  1
MENTALRAYRENDERSETTINGS
  2
AcDbMentalRayRenderSettings
  3
SCENEOE
 90
1024
 91
0
280
0
281
0
  0
CLASS
  1
ACDBDETAILVIEWSTYLE
  2
AcDbDetailViewStyle
  3
ObjectDBX Classes
 90
1025
 91
0
280
0
281
0
  0
CLASS
  1
ACDBSECTIONVIEWSTYLE
  2
AcDbSectionViewStyle
  3
ObjectDBX Classes
 90
1025
 91
0
280
0
281
0
  0
CLASS
  1
RASTERVARIABLES
  2
AcDbRasterVariables
  3
ISM
 90
0
 91
0
280
0
281
0
  0
CLASS
  1
LAYOUT
  2
AcDbLayout
  3
ObjectDBX Classes
 90
0
 91
0
280
0
281
0
  0
CLASS
  1
ACDBPLACEHOLDER
  2
AcDbPlaceHolder
  3
ObjectDBX Classes
 90
0
 91
0
280
0
281
0
  0
ENDSEC
  0
SECTION
  2
TABLES
  0
TABLE
  2
VPORT
  5
8
330
0
100
AcDbSymbolTable
 70
1
  0
VPORT
  5
23
330
8
100
AcDbSymbolTableRecord
100
AcDbViewportTableRecord
  2
*Active
 70
0
 10
0.0
 20
0.0
 11
1.0
 21
1.0
 12
0.0
 22
0.0
 13
0.0
 23
0.0
 14
0.5
 24
0.5
 15
0.5
 25
0.5
 16
0.0
 26
0.0
 36
1.0
 17
0.0
 27
0.0
 37
0.0
 40
1000.0
 41
1.34
 42
50.0
 43
0.0
 44
0.0
 50
0.0
 51
0.0
 71
0
 72
1000
 73
1
 74
3
 75
0
 76
0
 77
0
 78
0
281
0
 65
0
146
0.0
  0
ENDTAB
  0
TABLE
  2
LTYPE
  5
2
330
0
100
AcDbSymbolTable
 70
3
  0
LTYPE
  5
24
330
2
100
AcDbSymbolTableRecord
100
AcDbLinetypeTableRecord
  2
ByBlock
 70
0
  3

 72
65
 73
0
 40
0.0
  0
LTYPE
  5
25
330
2
100
AcDbSymbolTableRecord
100
AcDbLinetypeTableRecord
  2
ByLayer
 70
0
  3

 72
65
 73
0
 40
0.0
  0
LTYPE
  5
26
330
2
100
AcDbSymbolTableRecord
100
AcDbLinetypeTableRecord
  2
Continuous
 70
0
  3

 72
65
 73
0
 40
0.0
  0
ENDTAB
  0
TABLE
  2
LAYER
  5
1
330
0
100
AcDbSymbolTable
 70
2
  0
LAYER
  5
27
330
1
100
AcDbSymbolTableRecord
100
AcDbLayerTableRecord
  2
0
 70
0
 62
7
  6
Continuous
370
-3
390
13
347
21
  0
LAYER
  5
28
330
1
100
AcDbSymbolTableRecord
100
AcDbLayerTableRecord
  2
Defpoints
 70
0
 62
7
  6
Continuous
290
0
370
-3
390
13
347
21
  0
ENDTAB
  0
TABLE
  2
STYLE
  5
5
330
0
100
AcDbSymbolTable
 70
1
  0
STYLE
  5
29
330
5
100
AcDbSymbolTableRecord
100
AcDbTextStyleTableRecord
  2
Standard
 70
0
 40
0.0
 41
1.0
 50
0.0
 71
0
 42
2.5
  3
txt
  4

  0
ENDTAB
  0
TABLE
  2
VIEW
  5
7
330
0
100
AcDbSymbolTable
 70
0
  0
ENDTAB
  0
TABLE
  2
UCS
  5
6
330
0
100
AcDbSymbolTable
 70
0
  0
ENDTAB
  0
TABLE
  2
APPID
  5
3
330
0
100
AcDbSymbolTable
 70
3
  0
APPID
  5
2A
330
3
100
AcDbSymbolTableRecord
100
AcDbRegAppTableRecord
  2
ACAD
 70
0
  0
APPID
  5
2F5
330
3
100
AcDbSymbolTableRecord
100
AcDbRegAppTableRecord
  2
HATCHBACKGROUNDCOLOR
 70
0
  0
APPID
  5
2F6
330
3
100
AcDbSymbolTableRecord
100
AcDbRegAppTableRecord
  2
EZDXF
 70
0
  0
ENDTAB
  0
TABLE
  2
DIMSTYLE
  5
4
330
0
100
AcDbSymbolTable
 70
1
100
AcDbDimStyleTable
  0
DIMSTYLE
105
2B
330
4
100
AcDbSymbolTableRecord
100
AcDbDimStyleTableRecord
  2
Standard
 70
0
 40
1.0
 41
2.5
 42
0.625
 43
3.75
 44
1.25
 45
0.0
 46
0.0
 47
0.0
 48
0.0
 49
2.5
140
2.5
141
2.5
142
0.0
143
0.03937007874
144
1.0
145
0.0
146
1.0
147
0.625
148
0.0
 69
0
 70
0
 71
0
 72
0
 73
0
 74
0
 75
0
 76
0
 77
1
 78
8
 79
3
170
0
171
3
172
1
173
0
174
0
175
0
176
0
177
0
178
0
179
2
271
2
272
2
273
2
274
3
275
0
276
0
277
2
278
44
279
0
280
0
281
0
282
0
283
0
284
8
285
0
286
0
288
0
289
3
290
0
371
-2
372
-2
  0
ENDTAB
  0
TABLE
  2
BLOCK_RECORD
  5
9
330
0
100
AcDbSymbolTable
 70
2
  0
BLOCK_RECORD
  5
17
330
9
100
AcDbSymbolTableRecord
100
AcDbBlockTableRecord
  2
*Model_Space
340
1A
 70
0
280
1
281
0
  0
BLOCK_RECORD
  5
1B
330
9
100
AcDbSymbolTableRecord
100
AcDbBlockTableRecord
  2
*Paper_Space
340
1E
 70
0
280
1
281
0
  0
ENDTAB
  0
ENDSEC
  0
SECTION
  2
BLOCKS
  0
BLOCK
  5
18
330
17
100
AcDbEntity
  8
0
100
AcDbBlockBegin
  2
*Model_Space
 70
0
 10
0.0
 20
0.0
 30
0.0
  3
*Model_Space
  1

  0
ENDBLK
  5
19
330
17
100
AcDbEntity
  8
0
100
AcDbBlockEnd
  0
BLOCK
  5
1C
330
1B
100
AcDbEntity
  8
0
100
AcDbBlockBegin
  2
*Paper_Space
 70
0
 10
0.0
 20
0.0
 30
0.0
  3
*Paper_Space
  1

  0
ENDBLK
  5
1D
330
1B
100
AcDbEntity
  8
0
100
AcDbBlockEnd
  0
ENDSEC
  0
SECTION
  2
ENTITIES
  0
POLYLINE
  5
2F
330
17
100
AcDbEntity
  8
0
100
AcDb2dPolyline
 66
1
 10
0.0
 20
0.0
 30
0.0
 70
0
  0
VERTEX
  5
31
330
17
100
AcDbEntity
  8
0
100
AcDbVertex
100
AcDb2dVertex
 10
243.68015566179926
 20
176.44885586807501
 30
0.0
 70
0
  0
VERTEX
  5
32
330
17
100
AcDbEntity
  8
0
100
AcDbVertex
100
AcDb2dVertex
 10
197.1915280181611
 20
0.0
 30
0.0
 70
0
  0
VERTEX
  5
33
330
17
100
AcDbEntity
  8
0
100
AcDbVertex
100
AcDb2dVertex
 10
19.082686774680198
 20
29.04447023273775
 30
0.0
 70
0
  0
VERTEX
  5
34
330
17
100
AcDbEntity
  8
0
100
AcDbVertex
100
AcDb2dVertex
 10
0.0
 20
188.10493408755494
 30
0.0
 70
0
  0
VERTEX
  5
35
330
17
100
AcDbEntity
  8
0
100
AcDbVertex
100
AcDb2dVertex
 10
119.55956257885077
 20
287.8665347859261
 30
0.0
 70
0
  0
VERTEX
  5
36
330
17
100
AcDbEntity
  8
0
100
AcDbVertex
100
AcDb2dVertex
 10
243.68015566179926
 20
176.44885586807501
 30
0.0
 70
0
  0
SEQEND
  5
30
330
17
100
AcDbEntity
  8
0
  0
POLYLINE
  5
37
330
17
100
AcDbEntity
  8
0
100
AcDb2dPolyline
 66
1
 10
0.0
 20
0.0
 30
0.0
 70
0
  0
VERTEX
  5
39
330
17
100
AcDbEntity
  8
0
100
AcDbVertex
100
AcDb2dVertex
 10
158.32686663918463
 20
588.2162330134017
 30
0.0
 70
0
  0
VERTEX
  5
3A
330
17
100
AcDbEntity
  8
0
100
AcDbVertex
100
AcDb2dVertex
 10
174.91753891497984
 20
436.3382853155655
 30
0.0
 70
0
  0
VERTEX
  5
3B
330
17
100
AcDbEntity
  8
0
100
AcDbVertex
100
AcDb2dVertex
 10
237.12201970138722
 20
411.2656450284991
 30
0.0
 70
0
  0
VERTEX
  5
3C
330
17
100
AcDbEntity
  8
0
100
AcDbVertex
100
AcDb2dVertex
 10
218.13318686582306
 20
353.5757621885843
 30
0.0
 70
0
  0
VERTEX
  5
3D
330
17
100
AcDbEntity
  8
0
100
AcDbVertex
100
AcDb2dVertex
 10
182.52443470257793
 20
312.8128577279307
 30
0.0
 70
0
  0
VERTEX
  5
3E
330
17
100
AcDbEntity
  8
0
100
AcDbVertex
100
AcDb2dVertex
 10
136.6419877835835
 20
282.8
 30
0.0
 70
0
  0
VERTEX
  5
3F
330
17
100
AcDbEntity
  8
0
100
AcDbVertex
100
AcDb2dVertex
 10
101.78432568102075
 20
336.1696091759744
 30
0.0
 70
0
  0
VERTEX
  5
40
330
17
100
AcDbEntity
  8
0
100
AcDbVertex
100
AcDb2dVertex
 10
0.0
 20
310.08632084993076
 30
0.0
 70
0
  0
VERTEX
  5
41
330
17
100
AcDbEntity
  8
0
100
AcDbVertex
100
AcDb2dVertex
 10
79.2893891703581
 20
385.8389178357385
 30
0.0
 70
0
  0
VERTEX
  5
42
330
17
100
AcDbEntity
  8
0
100
AcDbVertex
100
AcDb2dVertex
 10
71.54517790616669
 20
422.97998161058854
 30
0.0
 70
0
  0
VERTEX
  5
43
330
17
100
AcDbEntity
  8
0
100
AcDbVertex
100
AcDb2dVertex
 10
82.0982024078101
 20
490.36051849502155
 30
0.0
 70
0
  0
VERTEX
  5
44
330
17
100
AcDbEntity
  8
0
100
AcDbVertex
100
AcDb2dVertex
 10
158.32686663918463
 20
588.2162330134017
 30
0.0
 70
0
  0
SEQEND
  5
38
330
17
100
AcDbEntity
  8
0
  0
POLYLINE
  5
45
330
17
100
AcDbEntity
  8
0
100
AcDb2dPolyline
 66
1
 10
0.0
 20
0.0
 30
0.0
 70
0
  0
VERTEX
  5
47
330
17
100
AcDbEntity
  8
0
100
AcDbVertex
100
AcDb2dVertex
 10
45.89375532960661
 20
537.32
 30
0.0
 70
0
  0
VERTEX
  5
48
330
17
100
AcDbEntity
  8
0
100
AcDbVertex
100
AcDb2dVertex
 10
43.42308716690914
 20
620.982110439053
 30
0.0
 70
0
  0
VERTEX
  5
49
330
17
100
AcDbEntity
  8
0
100
AcDbVertex
100
AcDb2dVertex
 10
25.05612487859797
 20
652.380236975623
 30
0.0
 70
0
  0
VERTEX
  5
4A
330
17
100
AcDbEntity
  8
0
100
AcDbVertex
100
AcDb2dVertex
 10
1.8006851542539977
 20
697.9465423780333
 30
0.0
 70
0
  0
VERTEX
  5
4B
330
17
100
AcDbEntity
  8
0
100
AcDbVertex
100
AcDb2dVertex
 10
0.0
 20
766.7091106192776
 30
0.0
 70
0
  0
VERTEX
  5
4C
330
17
100
AcDbEntity
  8
0
100
AcDbVertex
100
AcDb2dVertex
 10
40.55610134031304
 20
846.5710912232178
 30
0.0
 70
0
  0
VERTEX
  5
4D
330
17
100
AcDbEntity
  8
0
100
AcDbVertex
100
AcDb2dVertex
 10
132.18293995114573
 20
857.0255256656487
 30
0.0
 70
0
  0
VERTEX
  5
4E
330
17
100
AcDbEntity
  8
0
100
AcDbVertex
100
AcDb2dVertex
 10
153.58705643291148
 20
734.0755799046242
 30
0.0
 70
0
  0
VERTEX
  5
4F
330
17
100
AcDbEntity
  8
0
100
AcDbVertex
100
AcDb2dVertex
 10
220.28823657444946
 20
718.4329958765596
 30
0.0
 70
0
  0
VERTEX
  5
50
330
17
100
AcDbEntity
  8
0
100
AcDbVertex
100
AcDb2dVertex
 10
207.14073995695338
 20
660.1763172040799
 30
0.0
 70
0
  0
VERTEX
  5
51
330
17
100
AcDbEntity
  8
0
100
AcDbVertex
100
AcDb2dVertex
 10
215.7399677099093
 20
598.3630548823382
 30
0.0
 70
0
  0
VERTEX
  5
52
330
17
100
AcDbEntity
  8
0
100
AcDbVertex
100
AcDb2dVertex
 10
141.9382115805535
 20
602.3921916491212
 30
0.0
 70
0
  0
VERTEX
  5
53
330
17
100
AcDbEntity
  8
0
100
AcDbVertex
100
AcDb2dVertex
 10
110.39039867908625
 20
569.3976312654481
 30
0.0
 70
0
  0
VERTEX
  5
54
330
17
100
AcDbEntity
  8
0
100
AcDbVertex
100
AcDb2dVertex
 10
45.89375532960661
 20
537.32
 30
0.0
 70
0
  0
SEQEND
  5
46
330
17
100
AcDbEntity
  8
0
  0
POLYLINE
  5
55
330
17
100
AcDbEntity
  8
0
100
AcDb2dPolyline
 66
1
 10
0.0
 20
0.0
 30
0.0
 70
0
  0
VERTEX
  5
57
330
17
100
AcDbEntity
  8
0
100
AcDbVertex
100
AcDb2dVertex
 10
373.50401393397567
 20
906.1312360055972
 30
0.0
 70
0
  0
VERTEX
  5
58
330
17
100
AcDbEntity
  8
0
100
AcDbVertex
100
AcDb2dVertex
 10
404.97111482204605
 20
837.7183199534488
 30
0.0
 70
0
  0
VERTEX
  5
59
330
17
100
AcDbEntity
  8
0
100
AcDbVertex
100
AcDb2dVertex
 10
356.68659942489126
 20
776.83592288986
 30
0.0
 70
0
  0
VERTEX
  5
5A
330
17
100
AcDbEntity
  8
0
100
AcDbVertex
100
AcDb2dVertex
 10
317.93015556711356
 20
703.6714787974787
 30
0.0
 70
0
  0
VERTEX
  5
5B
330
17
100
AcDbEntity
  8
0
100
AcDbVertex
100
AcDb2dVertex
 10
239.80489119752153
 20
747.6541866442332
 30
0.0
 70
0
  0
VERTEX
  5
5C
330
17
100
AcDbEntity
  8
0
100
AcDbVertex
100
AcDb2dVertex
 10
195.13667092751638
 20
782.444244469242
 30
0.0
 70
0
  0
VERTEX
  5
5D
330
17
100
AcDbEntity
  8
0
100
AcDbVertex
100
AcDb2dVertex
 10
141.4
 20
822.983034920119
 30
0.0
 70
0
  0
VERTEX
  5
5E
330
17
100
AcDbEntity
  8
0
100
AcDbVertex
100
AcDb2dVertex
 10
207.05081687657315
 20
871.7352457692227
 30
0.0
 70
0
  0
VERTEX
  5
5F
330
17
100
AcDbEntity
  8
0
100
AcDbVertex
100
AcDb2dVertex
 10
183.15545460589976
 20
961.52
 30
0.0
 70
0
  0
VERTEX
  5
60
330
17
100
AcDbEntity
  8
0
100
AcDbVertex
100
AcDb2dVertex
 10
259.8898829110527
 20
924.7713182334279
 30
0.0
 70
0
  0
VERTEX
  5
61
330
17
100
AcDbEntity
  8
0
100
AcDbVertex
100
AcDb2dVertex
 10
293.2984028558335
 20
901.5701006249641
 30
0.0
 70
0
  0
VERTEX
  5
62
330
17
100
AcDbEntity
  8
0
100
AcDbVertex
100
AcDb2dVertex
 10
373.50401393397567
 20
906.1312360055972
 30
0.0
 70
0
  0
SEQEND
  5
56
330
17
100
AcDbEntity
  8
0
  0
POLYLINE
  5
63
330
17
100
AcDbEntity
  8
0
100
AcDb2dPolyline
 66
1
 10
0.0
 20
0.0
 30
0.0
 70
0
  0
VERTEX
  5
65
330
17
100
AcDbEntity
  8
0
100
AcDbVertex
100
AcDb2dVertex
 10
241.30514285496594
 20
422.1344046689742
 30
0.0
 70
0
  0
VERTEX
  5
66
330
17
100
AcDbEntity
  8
0
100
AcDbVertex
100
AcDb2dVertex
 10
213.72873018241611
 20
501.5589477507401
 30
0.0
 70
0
  0
VERTEX
  5
67
330
17
100
AcDbEntity
  8
0
100
AcDbVertex
100
AcDb2dVertex
 10
295.99230828250506
 20
487.6360305812178
 30
0.0
 70
0
  0
VERTEX
  5
68
330
17
100
AcDbEntity
  8
0
100
AcDbVertex
100
AcDb2dVertex
 10
343.2223373399037
 20
508.32358421264814
 30
0.0
 70
0
  0
VERTEX
  5
69
330
17
100
AcDbEntity
  8
0
100
AcDbVertex
100
AcDb2dVertex
 10
391.5759257841092
 20
490.46954192734336
 30
0.0
 70
0
  0
VERTEX
  5
6A
330
17
100
AcDbEntity
  8
0
100
AcDbVertex
100
AcDb2dVertex
 10
436.54956672843275
 20
456.64682460403765
 30
0.0
 70
0
  0
VERTEX
  5
6B
330
17
100
AcDbEntity
  8
0
100
AcDbVertex
100
AcDb2dVertex
 10
424.3828973510863
 20
400.699350434271
 30
0.0
 70
0
  0
VERTEX
  5
6C
330
17
100
AcDbEntity
  8
0
100
AcDbVertex
100
AcDb2dVertex
 10
428.6161313157321
 20
345.7855413890437
 30
0.0
 70
0
  0
VERTEX
  5
6D
330
17
100
AcDbEntity
  8
0
100
AcDbVertex
100
AcDb2dVertex
 10
357.18695686089757
 20
353.418900949977
 30
0.0
 70
0
  0
VERTEX
  5
6E
330
17
100
AcDbEntity
  8
0
100
AcDbVertex
100
AcDb2dVertex
 10
340.7573921604299
 20
260.4431985439237
 30
0.0
 70
0
  0
VERTEX
  5
6F
330
17
100
AcDbEntity
  8
0
100
AcDbVertex
100
AcDb2dVertex
 10
266.46277752200126
 20
240.38
 30
0.0
 70
0
  0
VERTEX
  5
70
330
17
100
AcDbEntity
  8
0
100
AcDbVertex
100
AcDb2dVertex
 10
169.68
 20
263.4499612930499
 30
0.0
 70
0
  0
VERTEX
  5
71
330
17
100
AcDbEntity
  8
0
100
AcDbVertex
100
AcDb2dVertex
 10
297.81906400612263
 20
392.973825080305
 30
0.0
 70
0
  0
VERTEX
  5
72
330
17
100
AcDbEntity
  8
0
100
AcDbVertex
100
AcDb2dVertex
 10
241.30514285496594
 20
422.1344046689742
 30
0.0
 70
0
  0
SEQEND
  5
64
330
17
100
AcDbEntity
  8
0
  0
POLYLINE
  5
73
330
17
100
AcDbEntity
  8
0
100
AcDb2dPolyline
 66
1
 10
0.0
 20
0.0
 30
0.0
 70
0
  0
VERTEX
  5
75
330
17
100
AcDbEntity
  8
0
100
AcDbVertex
100
AcDb2dVertex
 10
254.52
 20
160.81699068816718
 30
0.0
 70
0
  0
VERTEX
  5
76
330
17
100
AcDbEntity
  8
0
100
AcDbVertex
100
AcDb2dVertex
 10
355.6948154717014
 20
181.94011051679314
 30
0.0
 70
0
  0
VERTEX
  5
77
330
17
100
AcDbEntity
  8
0
100
AcDbVertex
100
AcDb2dVertex
 10
392.8428013197354
 20
272.92911495283056
 30
0.0
 70
0
  0
VERTEX
  5
78
330
17
100
AcDbEntity
  8
0
100
AcDbVertex
100
AcDb2dVertex
 10
459.0232872899676
 20
209.8286330672866
 30
0.0
 70
0
  0
VERTEX
  5
79
330
17
100
AcDbEntity
  8
0
100
AcDbVertex
100
AcDb2dVertex
 10
486.63359871240436
 20
152.42038604369878
 30
0.0
 70
0
  0
VERTEX
  5
7A
330
17
100
AcDbEntity
  8
0
100
AcDbVertex
100
AcDb2dVertex
 10
509.00862404790314
 20
93.20926473214769
 30
0.0
 70
0
  0
VERTEX
  5
7B
330
17
100
AcDbEntity
  8
0
100
AcDbVertex
100
AcDb2dVertex
 10
498.20293256375874
 20
6.145571085592223
 30
0.0
 70
0
  0
VERTEX
  5
7C
330
17
100
AcDbEntity
  8
0
100
AcDbVertex
100
AcDb2dVertex
 10
412.0592753387418
 20
0.0
 30
0.0
 70
0
  0
VERTEX
  5
7D
330
17
100
AcDbEntity
  8
0
100
AcDbVertex
100
AcDb2dVertex
 10
350.07331238801044
 20
31.23773321865272
 30
0.0
 70
0
  0
VERTEX
  5
7E
330
17
100
AcDbEntity
  8
0
100
AcDbVertex
100
AcDb2dVertex
 10
296.06744864798986
 20
77.55621212011968
 30
0.0
 70
0
  0
VERTEX
  5
7F
330
17
100
AcDbEntity
  8
0
100
AcDbVertex
100
AcDb2dVertex
 10
254.52
 20
160.81699068816718
 30
0.0
 70
0
  0
SEQEND
  5
74
330
17
100
AcDbEntity
  8
0
  0
POLYLINE
  5
80
330
17
100
AcDbEntity
  8
0
100
AcDb2dPolyline
 66
1
 10
0.0
 20
0.0
 30
0.0
 70
0
  0
VERTEX
  5
82
330
17
100
AcDbEntity
  8
0
100
AcDbVertex
100
AcDb2dVertex
 10
399.0779847434016
 20
568.9184250706148
 30
0.0
 70
0
  0
VERTEX
  5
83
330
17
100
AcDbEntity
  8
0
100
AcDbVertex
100
AcDb2dVertex
 10
292.90047587022747
 20
562.952600278253
 30
0.0
 70
0
  0
VERTEX
  5
84
330
17
100
AcDbEntity
  8
0
100
AcDbVertex
100
AcDb2dVertex
 10
212.10000000000002
 20
658.8460337164998
 30
0.0
 70
0
  0
VERTEX
  5
85
330
17
100
AcDbEntity
  8
0
100
AcDbVertex
100
AcDb2dVertex
 10
337.8945531641719
 20
683.7546344983743
 30
0.0
 70
0
  0
VERTEX
  5
86
330
17
100
AcDbEntity
  8
0
100
AcDbVertex
100
AcDb2dVertex
 10
438.42926908458077
 20
805.98
 30
0.0
 70
0
  0
VERTEX
  5
87
330
17
100
AcDbEntity
  8
0
100
AcDbVertex
100
AcDb2dVertex
 10
468.75714830648167
 20
653.0175570770645
 30
0.0
 70
0
  0
VERTEX
  5
88
330
17
100
AcDbEntity
  8
0
100
AcDbVertex
100
AcDb2dVertex
 10
399.0779847434016
 20
568.9184250706148
 30
0.0
 70
0
  0
SEQEND
  5
81
330
17
100
AcDbEntity
  8
0
  0
POLYLINE
  5
89
330
17
100
AcDbEntity
  8
0
100
AcDb2dPolyline
 66
1
 10
0.0
 20
0.0
 30
0.0
 70
0
  0
VERTEX
  5
8B
330
17
100
AcDbEntity
  8
0
100
AcDbVertex
100
AcDb2dVertex
 10
450.5208483541527
 20
452.6960127731605
 30
0.0
 70
0
  0
VERTEX
  5
8C
330
17
100
AcDbEntity
  8
0
100
AcDbVertex
100
AcDb2dVertex
 10
410.06
 20
524.5381939408189
 30
0.0
 70
0
  0
VERTEX
  5
8D
330
17
100
AcDbEntity
  8
0
100
AcDbVertex
100
AcDb2dVertex
 10
474.93310300753615
 20
579.1489101186786
 30
0.0
 70
0
  0
VERTEX
  5
8E
330
17
100
AcDbEntity
  8
0
100
AcDbVertex
100
AcDb2dVertex
 10
506.95043347226203
 20
667.2693070391357
 30
0.0
 70
0
  0
VERTEX
  5
8F
330
17
100
AcDbEntity
  8
0
100
AcDbVertex
100
AcDb2dVertex
 10
581.2396720714821
 20
606.9704736328905
 30
0.0
 70
0
  0
VERTEX
  5
90
330
17
100
AcDbEntity
  8
0
100
AcDbVertex
100
AcDb2dVertex
 10
615.2138194378139
 20
568.7345565993924
 30
0.0
 70
0
  0
VERTEX
  5
91
330
17
100
AcDbEntity
  8
0
100
AcDbVertex
100
AcDb2dVertex
 10
625.8025008335084
 20
524.8862860531025
 30
0.0
 70
0
  0
VERTEX
  5
92
330
17
100
AcDbEntity
  8
0
100
AcDbVertex
100
AcDb2dVertex
 10
611.7905167024505
 20
482.26414239394444
 30
0.0
 70
0
  0
VERTEX
  5
93
330
17
100
AcDbEntity
  8
0
100
AcDbVertex
100
AcDb2dVertex
 10
584.9187114728625
 20
417.63449195980894
 30
0.0
 70
0
  0
VERTEX
  5
94
330
17
100
AcDbEntity
  8
0
100
AcDbVertex
100
AcDb2dVertex
 10
503.7101451784724
 20
381.78000000000003
 30
0.0
 70
0
  0
VERTEX
  5
95
330
17
100
AcDbEntity
  8
0
100
AcDbVertex
100
AcDb2dVertex
 10
450.5208483541527
 20
452.6960127731605
 30
0.0
 70
0
  0
SEQEND
  5
8A
330
17
100
AcDbEntity
  8
0
  0
POLYLINE
  5
96
330
17
100
AcDbEntity
  8
0
100
AcDb2dPolyline
 66
1
 10
0.0
 20
0.0
 30
0.0
 70
0
  0
VERTEX
  5
98
330
17
100
AcDbEntity
  8
0
100
AcDbVertex
100
AcDb2dVertex
 10
581.6776840053184
 20
805.8106897650757
 30
0.0
 70
0
  0
VERTEX
  5
99
330
17
100
AcDbEntity
  8
0
100
AcDbVertex
100
AcDb2dVertex
 10
568.6782857411996
 20
781.4590308605412
 30
0.0
 70
0
  0
VERTEX
  5
9A
330
17
100
AcDbEntity
  8
0
100
AcDbVertex
100
AcDb2dVertex
 10
551.9808656707315
 20
707.0
 30
0.0
 70
0
  0
VERTEX
  5
9B
330
17
100
AcDbEntity
  8
0
100
AcDbVertex
100
AcDb2dVertex
 10
510.75537526583014
 20
765.6059989570629
 30
0.0
 70
0
  0
VERTEX
  5
9C
330
17
100
AcDbEntity
  8
0
100
AcDbVertex
100
AcDb2dVertex
 10
462.9819345327122
 20
758.3049575644991
 30
0.0
 70
0
  0
VERTEX
  5
9D
330
17
100
AcDbEntity
  8
0
100
AcDbVertex
100
AcDb2dVertex
 10
485.48046251867277
 20
818.0203926436475
 30
0.0
 70
0
  0
VERTEX
  5
9E
330
17
100
AcDbEntity
  8
0
100
AcDbVertex
100
AcDb2dVertex
 10
425.1963019393579
 20
838.7882611272736
 30
0.0
 70
0
  0
VERTEX
  5
9F
330
17
100
AcDbEntity
  8
0
100
AcDbVertex
100
AcDb2dVertex
 10
395.92
 20
896.3713244719781
 30
0.0
 70
0
  0
VERTEX
  5
A0
330
17
100
AcDbEntity
  8
0
100
AcDbVertex
100
AcDb2dVertex
 10
477.29280143987904
 20
895.8171218985667
 30
0.0
 70
0
  0
VERTEX
  5
A1
330
17
100
AcDbEntity
  8
0
100
AcDbVertex
100
AcDb2dVertex
 10
480.5662763894992
 20
974.8986960812578
 30
0.0
 70
0
  0
VERTEX
  5
A2
330
17
100
AcDbEntity
  8
0
100
AcDbVertex
100
AcDb2dVertex
 10
536.4984596950981
 20
924.1914447437571
 30
0.0
 70
0
  0
VERTEX
  5
A3
330
17
100
AcDbEntity
  8
0
100
AcDbVertex
100
AcDb2dVertex
 10
594.6305281337259
 20
962.872901697305
 30
0.0
 70
0
  0
VERTEX
  5
A4
330
17
100
AcDbEntity
  8
0
100
AcDbVertex
100
AcDb2dVertex
 10
567.282195871583
 20
868.2530478884061
 30
0.0
 70
0
  0
VERTEX
  5
A5
330
17
100
AcDbEntity
  8
0
100
AcDbVertex
100
AcDb2dVertex
 10
634.717529448875
 20
866.8992133939478
 30
0.0
 70
0
  0
VERTEX
  5
A6
330
17
100
AcDbEntity
  8
0
100
AcDbVertex
100
AcDb2dVertex
 10
595.6764080651662
 20
828.616610246874
 30
0.0
 70
0
  0
VERTEX
  5
A7
330
17
100
AcDbEntity
  8
0
100
AcDbVertex
100
AcDb2dVertex
 10
581.6776840053184
 20
805.8106897650757
 30
0.0
 70
0
  0
SEQEND
  5
97
330
17
100
AcDbEntity
  8
0
  0
POLYLINE
  5
A8
330
17
100
AcDbEntity
  8
0
100
AcDb2dPolyline
 66
1
 10
0.0
 20
0.0
 30
0.0
 70
0
  0
VERTEX
  5
AA
330
17
100
AcDbEntity
  8
0
100
AcDbVertex
100
AcDb2dVertex
 10
582.3873251343598
 20
85.65712109921671
 30
0.0
 70
0
  0
VERTEX
  5
AB
330
17
100
AcDbEntity
  8
0
100
AcDbVertex
100
AcDb2dVertex
 10
527.6810423831804
 20
180.5347889655751
 30
0.0
 70
0
  0
VERTEX
  5
AC
330
17
100
AcDbEntity
  8
0
100
AcDbVertex
100
AcDb2dVertex
 10
508.62164138882054
 20
208.70747607698814
 30
0.0
 70
0
  0
VERTEX
  5
AD
330
17
100
AcDbEntity
  8
0
100
AcDbVertex
100
AcDb2dVertex
 10
459.4428278921308
 20
235.99413580941072
 30
0.0
 70
0
  0
VERTEX
  5
AE
330
17
100
AcDbEntity
  8
0
100
AcDbVertex
100
AcDb2dVertex
 10
424.64336692744223
 20
312.20100930970295
 30
0.0
 70
0
  0
VERTEX
  5
AF
330
17
100
AcDbEntity
  8
0
100
AcDbVertex
100
AcDb2dVertex
 10
489.88341248233496
 20
352.94442000607285
 30
0.0
 70
0
  0
VERTEX
  5
B0
330
17
100
AcDbEntity
  8
0
100
AcDbVertex
100
AcDb2dVertex
 10
558.0087155929136
 20
353.5
 30
0.0
 70
0
  0
VERTEX
  5
B1
330
17
100
AcDbEntity
  8
0
100
AcDbVertex
100
AcDb2dVertex
 10
605.129005049519
 20
312.4320970030667
 30
0.0
 70
0
  0
VERTEX
  5
B2
330
17
100
AcDbEntity
  8
0
100
AcDbVertex
100
AcDb2dVertex
 10
658.6388767915844
 20
280.6531811764731
 30
0.0
 70
0
  0
VERTEX
  5
B3
330
17
100
AcDbEntity
  8
0
100
AcDbVertex
100
AcDb2dVertex
 10
664.58
 20
213.88523061532715
 30
0.0
 70
0
  0
VERTEX
  5
B4
330
17
100
AcDbEntity
  8
0
100
AcDbVertex
100
AcDb2dVertex
 10
607.0134181326985
 20
184.2579871944152
 30
0.0
 70
0
  0
VERTEX
  5
B5
330
17
100
AcDbEntity
  8
0
100
AcDbVertex
100
AcDb2dVertex
 10
582.3873251343598
 20
85.65712109921671
 30
0.0
 70
0
  0
SEQEND
  5
A9
330
17
100
AcDbEntity
  8
0
  0
POLYLINE
  5
B6
330
17
100
AcDbEntity
  8
0
100
AcDb2dPolyline
 66
1
 10
0.0
 20
0.0
 30
0.0
 70
0
  0
VERTEX
  5
B8
330
17
100
AcDbEntity
  8
0
100
AcDbVertex
100
AcDb2dVertex
 10
648.3585107093966
 20
740.3004751917833
 30
0.0
 70
0
  0
VERTEX
  5
B9
330
17
100
AcDbEntity
  8
0
100
AcDbVertex
100
AcDb2dVertex
 10
738.877378363512
 20
831.0193252861865
 30
0.0
 70
0
  0
VERTEX
  5
BA
330
17
100
AcDbEntity
  8
0
100
AcDbVertex
100
AcDb2dVertex
 10
711.2443649213145
 20
701.2321720665873
 30
0.0
 70
0
  0
VERTEX
  5
BB
330
17
100
AcDbEntity
  8
0
100
AcDbVertex
100
AcDb2dVertex
 10
764.9717363836158
 20
666.6242785146894
 30
0.0
 70
0
  0
VERTEX
  5
BC
330
17
100
AcDbEntity
  8
0
100
AcDbVertex
100
AcDb2dVertex
 10
728.6542342640018
 20
623.2014479038714
 30
0.0
 70
0
  0
VERTEX
  5
BD
330
17
100
AcDbEntity
  8
0
100
AcDbVertex
100
AcDb2dVertex
 10
730.6764477610805
 20
537.32
 30
0.0
 70
0
  0
VERTEX
  5
BE
330
17
100
AcDbEntity
  8
0
100
AcDbVertex
100
AcDb2dVertex
 10
654.4556228041765
 20
604.6067181813111
 30
0.0
 70
0
  0
VERTEX
  5
BF
330
17
100
AcDbEntity
  8
0
100
AcDbVertex
100
AcDb2dVertex
 10
623.867933126279
 20
610.0705112177021
 30
0.0
 70
0
  0
VERTEX
  5
C0
330
17
100
AcDbEntity
  8
0
100
AcDbVertex
100
AcDb2dVertex
 10
593.6296875407046
 20
628.8675998060185
 30
0.0
 70
0
  0
VERTEX
  5
C1
330
17
100
AcDbEntity
  8
0
100
AcDbVertex
100
AcDb2dVertex
 10
601.0945032264575
 20
662.3853910385592
 30
0.0
 70
0
  0
VERTEX
  5
C2
330
17
100
AcDbEntity
  8
0
100
AcDbVertex
100
AcDb2dVertex
 10
565.6
 20
707.9788542888366
 30
0.0
 70
0
  0
VERTEX
  5
C3
330
17
100
AcDbEntity
  8
0
100
AcDbVertex
100
AcDb2dVertex
 10
619.511760938884
 20
712.6266149829846
 30
0.0
 70
0
  0
VERTEX
  5
C4
330
17
100
AcDbEntity
  8
0
100
AcDbVertex
100
AcDb2dVertex
 10
648.3585107093966
 20
740.3004751917833
 30
0.0
 70
0
  0
SEQEND
  5
B7
330
17
100
AcDbEntity
  8
0
  0
POLYLINE
  5
C5
330
17
100
AcDbEntity
  8
0
100
AcDb2dPolyline
 66
1
 10
0.0
 20
0.0
 30
0.0
 70
0
  0
VERTEX
  5
C7
330
17
100
AcDbEntity
  8
0
100
AcDbVertex
100
AcDb2dVertex
 10
829.3594686047512
 20
442.22270817946924
 30
0.0
 70
0
  0
VERTEX
  5
C8
330
17
100
AcDbEntity
  8
0
100
AcDbVertex
100
AcDb2dVertex
 10
840.5170854516717
 20
385.94792988262867
 30
0.0
 70
0
  0
VERTEX
  5
C9
330
17
100
AcDbEntity
  8
0
100
AcDbVertex
100
AcDb2dVertex
 10
840.2970459357678
 20
344.1769001945192
 30
0.0
 70
0
  0
VERTEX
  5
CA
330
17
100
AcDbEntity
  8
0
100
AcDbVertex
100
AcDb2dVertex
 10
831.3207407881273
 20
309.2090993195895
 30
0.0
 70
0
  0
VERTEX
  5
CB
330
17
100
AcDbEntity
  8
0
100
AcDbVertex
100
AcDb2dVertex
 10
816.3590171229673
 20
274.67935943378063
 30
0.0
 70
0
  0
VERTEX
  5
CC
330
17
100
AcDbEntity
  8
0
100
AcDbVertex
100
AcDb2dVertex
 10
783.9726134891487
 20
248.69002308279488
 30
0.0
 70
0
  0
VERTEX
  5
CD
330
17
100
AcDbEntity
  8
0
100
AcDbVertex
100
AcDb2dVertex
 10
746.2793928073263
 20
278.402285465924
 30
0.0
 70
0
  0
VERTEX
  5
CE
330
17
100
AcDbEntity
  8
0
100
AcDbVertex
100
AcDb2dVertex
 10
678.7356408249718
 20
226.24
 30
0.0
 70
0
  0
VERTEX
  5
CF
330
17
100
AcDbEntity
  8
0
100
AcDbVertex
100
AcDb2dVertex
 10
702.3821415263704
 20
308.9077847628138
 30
0.0
 70
0
  0
VERTEX
  5
D0
330
17
100
AcDbEntity
  8
0
100
AcDbVertex
100
AcDb2dVertex
 10
608.02
 20
329.38628106942633
 30
0.0
 70
0
  0
VERTEX
  5
D1
330
17
100
AcDbEntity
  8
0
100
AcDbVertex
100
AcDb2dVertex
 10
609.3144356548441
 20
397.6405536974008
 30
0.0
 70
0
  0
VERTEX
  5
D2
330
17
100
AcDbEntity
  8
0
100
AcDbVertex
100
AcDb2dVertex
 10
634.352216823409
 20
475.00483271679656
 30
0.0
 70
0
  0
VERTEX
  5
D3
330
17
100
AcDbEntity
  8
0
100
AcDbVertex
100
AcDb2dVertex
 10
725.637161274456
 20
450.12654276396694
 30
0.0
 70
0
  0
VERTEX
  5
D4
330
17
100
AcDbEntity
  8
0
100
AcDbVertex
100
AcDb2dVertex
 10
770.1238134731251
 20
419.6932070159273
 30
0.0
 70
0
  0
VERTEX
  5
D5
330
17
100
AcDbEntity
  8
0
100
AcDbVertex
100
AcDb2dVertex
 10
829.3594686047512
 20
442.22270817946924
 30
0.0
 70
0
  0
SEQEND
  5
C6
330
17
100
AcDbEntity
  8
0
  0
POLYLINE
  5
D6
330
17
100
AcDbEntity
  8
0
100
AcDb2dPolyline
 66
1
 10
0.0
 20
0.0
 30
0.0
 70
0
  0
VERTEX
  5
D8
330
17
100
AcDbEntity
  8
0
100
AcDbVertex
100
AcDb2dVertex
 10
643.8777016704258
 20
0.0
 30
0.0
 70
0
  0
VERTEX
  5
D9
330
17
100
AcDbEntity
  8
0
100
AcDbVertex
100
AcDb2dVertex
 10
602.4504387596527
 20
116.70613649866881
 30
0.0
 70
0
  0
VERTEX
  5
DA
330
17
100
AcDbEntity
  8
0
100
AcDbVertex
100
AcDb2dVertex
 10
698.3463226656385
 20
171.270053529335
 30
0.0
 70
0
  0
VERTEX
  5
DB
330
17
100
AcDbEntity
  8
0
100
AcDbVertex
100
AcDb2dVertex
 10
766.0400869235032
 20
232.23291215102728
 30
0.0
 70
0
  0
VERTEX
  5
DC
330
17
100
AcDbEntity
  8
0
100
AcDbVertex
100
AcDb2dVertex
 10
802.5566128102962
 20
145.69753448385427
 30
0.0
 70
0
  0
VERTEX
  5
DD
330
17
100
AcDbEntity
  8
0
100
AcDbVertex
100
AcDb2dVertex
 10
848.4
 20
67.31547504976294
 30
0.0
 70
0
  0
VERTEX
  5
DE
330
17
100
AcDbEntity
  8
0
100
AcDbVertex
100
AcDb2dVertex
 10
748.7140394933224
 20
76.50958262471174
 30
0.0
 70
0
  0
VERTEX
  5
DF
330
17
100
AcDbEntity
  8
0
100
AcDbVertex
100
AcDb2dVertex
 10
643.8777016704258
 20
0.0
 30
0.0
 70
0
  0
SEQEND
  5
D7
330
17
100
AcDbEntity
  8
0
  0
POLYLINE
  5
E0
330
17
100
AcDbEntity
  8
0
100
AcDb2dPolyline
 66
1
 10
0.0
 20
0.0
 30
0.0
 70
0
  0
VERTEX
  5
E2
330
17
100
AcDbEntity
  8
0
100
AcDbVertex
100
AcDb2dVertex
 10
877.8840744788038
 20
963.971378986698
 30
0.0
 70
0
  0
VERTEX
  5
E3
330
17
100
AcDbEntity
  8
0
100
AcDbVertex
100
AcDb2dVertex
 10
921.1551961428277
 20
938.4538603625687
 30
0.0
 70
0
  0
VERTEX
  5
E4
330
17
100
AcDbEntity
  8
0
100
AcDbVertex
100
AcDb2dVertex
 10
941.3550467305313
 20
886.4941249155388
 30
0.0
 70
0
  0
VERTEX
  5
E5
330
17
100
AcDbEntity
  8
0
100
AcDbVertex
100
AcDb2dVertex
 10
947.38
 20
818.174616307394
 30
0.0
 70
0
  0
VERTEX
  5
E6
330
17
100
AcDbEntity
  8
0
100
AcDbVertex
100
AcDb2dVertex
 10
868.9653617980669
 20
816.7543067150934
 30
0.0
 70
0
  0
VERTEX
  5
E7
330
17
100
AcDbEntity
  8
0
100
AcDbVertex
100
AcDb2dVertex
 10
839.1390362460722
 20
749.4200000000001
 30
0.0
 70
0
  0
VERTEX
  5
E8
330
17
100
AcDbEntity
  8
0
100
AcDbVertex
100
AcDb2dVertex
 10
788.1531237216743
 20
806.1577387808871
 30
0.0
 70
0
  0
VERTEX
  5
E9
330
17
100
AcDbEntity
  8
0
100
AcDbVertex
100
AcDb2dVertex
 10
761.3420349625735
 20
834.3983283352042
 30
0.0
 70
0
  0
VERTEX
  5
EA
330
17
100
AcDbEntity
  8
0
100
AcDbVertex
100
AcDb2dVertex
 10
728.873526302493
 20
857.3282814177705
 30
0.0
 70
0
  0
VERTEX
  5
EB
330
17
100
AcDbEntity
  8
0
100
AcDbVertex
100
AcDb2dVertex
 10
702.3286567255333
 20
900.4499326200471
 30
0.0
 70
0
  0
VERTEX
  5
EC
330
17
100
AcDbEntity
  8
0
100
AcDbVertex
100
AcDb2dVertex
 10
759.0498342662706
 20
925.2123059932057
 30
0.0
 70
0
  0
VERTEX
  5
ED
330
17
100
AcDbEntity
  8
0
100
AcDbVertex
100
AcDb2dVertex
 10
772.2331516676804
 20
956.7323974644119
 30
0.0
 70
0
  0
VERTEX
  5
EE
330
17
100
AcDbEntity
  8
0
100
AcDbVertex
100
AcDb2dVertex
 10
802.5481986018137
 20
975.9623827401064
 30
0.0
 70
0
  0
VERTEX
  5
EF
330
17
100
AcDbEntity
  8
0
100
AcDbVertex
100
AcDb2dVertex
 10
842.0332017174801
 20
989.4076150939384
 30
0.0
 70
0
  0
VERTEX
  5
F0
330
17
100
AcDbEntity
  8
0
100
AcDbVertex
100
AcDb2dVertex
 10
877.8840744788038
 20
963.971378986698
 30
0.0
 70
0
  0
SEQEND
  5
E1
330
17
100
AcDbEntity
  8
0
  0
POLYLINE
  5
F1
330
17
100
AcDbEntity
  8
0
100
AcDb2dPolyline
 66
1
 10
0.0
 20
0.0
 30
0.0
 70
0
  0
VERTEX
  5
F3
330
17
100
AcDbEntity
  8
0
100
AcDbVertex
100
AcDb2dVertex
 10
921.4354768101941
 20
553.3565400570468
 30
0.0
 70
0
  0
VERTEX
  5
F4
330
17
100
AcDbEntity
  8
0
100
AcDbVertex
100
AcDb2dVertex
 10
947.38
 20
486.06989961879503
 30
0.0
 70
0
  0
VERTEX
  5
F5
330
17
100
AcDbEntity
  8
0
100
AcDbVertex
100
AcDb2dVertex
 10
869.6409596333115
 20
513.9129332786963
 30
0.0
 70
0
  0
VERTEX
  5
F6
330
17
100
AcDbEntity
  8
0
100
AcDbVertex
100
AcDb2dVertex
 10
837.2119036389495
 20
465.72124200337896
 30
0.0
 70
0
  0
VERTEX
  5
F7
330
17
100
AcDbEntity
  8
0
100
AcDbVertex
100
AcDb2dVertex
 10
770.5812418883929
 20
453.903306882732
 30
0.0
 70
0
  0
VERTEX
  5
F8
330
17
100
AcDbEntity
  8
0
100
AcDbVertex
100
AcDb2dVertex
 10
721.7610807773459
 20
498.8271484190118
 30
0.0
 70
0
  0
VERTEX
  5
F9
330
17
100
AcDbEntity
  8
0
100
AcDbVertex
100
AcDb2dVertex
 10
770.8053892377784
 20
568.426241144273
 30
0.0
 70
0
  0
VERTEX
  5
FA
330
17
100
AcDbEntity
  8
0
100
AcDbVertex
100
AcDb2dVertex
 10
748.2655666849772
 20
618.4028392072602
 30
0.0
 70
0
  0
VERTEX
  5
FB
330
17
100
AcDbEntity
  8
0
100
AcDbVertex
100
AcDb2dVertex
 10
811.081210345638
 20
620.2236689794447
 30
0.0
 70
0
  0
VERTEX
  5
FC
330
17
100
AcDbEntity
  8
0
100
AcDbVertex
100
AcDb2dVertex
 10
827.9143547764759
 20
721.1400000000001
 30
0.0
 70
0
  0
VERTEX
  5
FD
330
17
100
AcDbEntity
  8
0
100
AcDbVertex
100
AcDb2dVertex
 10
890.8830479079614
 20
691.2922136613499
 30
0.0
 70
0
  0
VERTEX
  5
FE
330
17
100
AcDbEntity
  8
0
100
AcDbVertex
100
AcDb2dVertex
 10
897.5847735640319
 20
615.9258941832745
 30
0.0
 70
0
  0
VERTEX
  5
FF
330
17
100
AcDbEntity
  8
0
100
AcDbVertex
100
AcDb2dVertex
 10
934.9692068979322
 20
592.9489126089098
 30
0.0
 70
0
  0
VERTEX
  5
100
330
17
100
AcDbEntity
  8
0
100
AcDbVertex
100
AcDb2dVertex
 10
921.4354768101941
 20
553.3565400570468
 30
0.0
 70
0
  0
SEQEND
  5
F2
330
17
100
AcDbEntity
  8
0
  0
POLYLINE
  5
101
330
17
100
AcDbEntity
  8
0
100
AcDb2dPolyline
 66
1
 10
0.0
 20
0.0
 30
0.0
 70
0
  0
VERTEX
  5
103
330
17
100
AcDbEntity
  8
0
100
AcDbVertex
100
AcDb2dVertex
 10
942.8984661621339
 20
95.78375552029459
 30
0.0
 70
0
  0
VERTEX
  5
104
330
17
100
AcDbEntity
  8
0
100
AcDbVertex
100
AcDb2dVertex
 10
879.077768372744
 20
143.2141479720617
 30
0.0
 70
0
  0
VERTEX
  5
105
330
17
100
AcDbEntity
  8
0
100
AcDbVertex
100
AcDb2dVertex
 10
824.6070679392882
 20
138.54424307781022
 30
0.0
 70
0
  0
VERTEX
  5
106
330
17
100
AcDbEntity
  8
0
100
AcDbVertex
100
AcDb2dVertex
 10
810.0208760405211
 20
187.49133627132707
 30
0.0
 70
0
  0
VERTEX
  5
107
330
17
100
AcDbEntity
  8
0
100
AcDbVertex
100
AcDb2dVertex
 10
805.98
 20
238.05019884027752
 30
0.0
 70
0
  0
VERTEX
  5
108
330
17
100
AcDbEntity
  8
0
100
AcDbVertex
100
AcDb2dVertex
 10
870.5680029831361
 20
232.84749524986827
 30
0.0
 70
0
  0
VERTEX
  5
109
330
17
100
AcDbEntity
  8
0
100
AcDbVertex
100
AcDb2dVertex
 10
903.1136425093973
 20
316.9181393260942
 30
0.0
 70
0
  0
VERTEX
  5
10A
330
17
100
AcDbEntity
  8
0
100
AcDbVertex
100
AcDb2dVertex
 10
1007.2552677396811
 20
325.22
 30
0.0
 70
0
  0
VERTEX
  5
10B
330
17
100
AcDbEntity
  8
0
100
AcDbVertex
100
AcDb2dVertex
 10
1003.9632107902759
 20
220.8863288094394
 30
0.0
 70
0
  0
VERTEX
  5
10C
330
17
100
AcDbEntity
  8
0
100
AcDbVertex
100
AcDb2dVertex
 10
1039.6682521421444
 20
128.13266813258488
 30
0.0
 70
0
  0
VERTEX
  5
10D
330
17
100
AcDbEntity
  8
0
100
AcDbVertex
100
AcDb2dVertex
 10
942.8984661621339
 20
95.78375552029459
 30
0.0
 70
0
  0
SEQEND
  5
102
330
17
100
AcDbEntity
  8
0
  0
POLYLINE
  5
10E
330
17
100
AcDbEntity
  8
0
100
AcDb2dPolyline
 66
1
 10
0.0
 20
0.0
 30
0.0
 70
0
  0
VERTEX
  5
110
330
17
100
AcDbEntity
  8
0
100
AcDbVertex
100
AcDb2dVertex
 10
1131.2
 20
579.74
 30
0.0
 70
0
  0
VERTEX
  5
111
330
17
100
AcDbEntity
  8
0
100
AcDbVertex
100
AcDb2dVertex
 10
932.0447183950566
 20
622.4464413767643
 30
0.0
 70
0
  0
VERTEX
  5
112
330
17
100
AcDbEntity
  8
0
100
AcDbVertex
100
AcDb2dVertex
 10
893.1095627069465
 20
785.648722477797
 30
0.0
 70
0
  0
VERTEX
  5
113
330
17
100
AcDbEntity
  8
0
100
AcDbVertex
100
AcDb2dVertex
 10
1097.6709090860013
 20
813.9604083699845
 30
0.0
 70
0
  0
VERTEX
  5
114
330
17
100
AcDbEntity
  8
0
100
AcDbVertex
100
AcDb2dVertex
 10
1131.2
 20
579.74
 30
0.0
 70
0
  0
SEQEND
  5
10F
330
17
100
AcDbEntity
  8
0
  0
POLYLINE
  5
115
330
17
100
AcDbEntity
  8
0
100
AcDb2dPolyline
 66
1
 10
0.0
 20
0.0
 30
0.0
 70
0
  0
VERTEX
  5
117
330
17
100
AcDbEntity
  8
0
100
AcDbVertex
100
AcDb2dVertex
 10
941.9283649423895
 20
363.65641592855
 30
0.0
 70
0
  0
VERTEX
  5
118
330
17
100
AcDbEntity
  8
0
100
AcDbVertex
100
AcDb2dVertex
 10
952.9889918136637
 20
449.0400934147942
 30
0.0
 70
0
  0
VERTEX
  5
119
330
17
100
AcDbEntity
  8
0
100
AcDbVertex
100
AcDb2dVertex
 10
961.865023411303
 20
548.5376603144248
 30
0.0
 70
0
  0
VERTEX
  5
11A
330
17
100
AcDbEntity
  8
0
100
AcDbVertex
100
AcDb2dVertex
 10
1056.8276863061892
 20
565.6
 30
0.0
 70
0
  0
VERTEX
  5
11B
330
17
100
AcDbEntity
  8
0
100
AcDbVertex
100
AcDb2dVertex
 10
1115.3139341432309
 20
501.7358608336257
 30
0.0
 70
0
  0
VERTEX
  5
11C
330
17
100
AcDbEntity
  8
0
100
AcDbVertex
100
AcDb2dVertex
 10
1129.1234820697446
 20
441.07679771445225
 30
0.0
 70
0
  0
VERTEX
  5
11D
330
17
100
AcDbEntity
  8
0
100
AcDbVertex
100
AcDb2dVertex
 10
1159.48
 20
367.791802877965
 30
0.0
 70
0
  0
VERTEX
  5
11E
330
17
100
AcDbEntity
  8
0
100
AcDbVertex
100
AcDb2dVertex
 10
1099.0705283875027
 20
311.2415548373907
 30
0.0
 70
0
  0
VERTEX
  5
11F
330
17
100
AcDbEntity
  8
0
100
AcDbVertex
100
AcDb2dVertex
 10
1021.3997401265628
 20
326.062718701427
 30
0.0
 70
0
  0
VERTEX
  5
120
330
17
100
AcDbEntity
  8
0
100
AcDbVertex
100
AcDb2dVertex
 10
941.9283649423895
 20
363.65641592855
 30
0.0
 70
0
  0
SEQEND
  5
116
330
17
100
AcDbEntity
  8
0
  0
POLYLINE
  5
121
330
17
100
AcDbEntity
  8
0
100
AcDb2dPolyline
 66
1
 10
0.0
 20
0.0
 30
0.0
 70
0
  0
VERTEX
  5
123
330
17
100
AcDbEntity
  8
0
100
AcDbVertex
100
AcDb2dVertex
 10
1012.9643515444554
 20
4.003138170086459
 30
0.0
 70
0
  0
VERTEX
  5
124
330
17
100
AcDbEntity
  8
0
100
AcDbVertex
100
AcDb2dVertex
 10
1054.2174213939882
 20
112.14730522391852
 30
0.0
 70
0
  0
VERTEX
  5
125
330
17
100
AcDbEntity
  8
0
100
AcDbVertex
100
AcDb2dVertex
 10
1062.0270945099314
 20
163.84813312342752
 30
0.0
 70
0
  0
VERTEX
  5
126
330
17
100
AcDbEntity
  8
0
100
AcDbVertex
100
AcDb2dVertex
 10
1068.7280340365724
 20
268.66
 30
0.0
 70
0
  0
VERTEX
  5
127
330
17
100
AcDbEntity
  8
0
100
AcDbVertex
100
AcDb2dVertex
 10
1156.5480714045802
 20
223.08083107550937
 30
0.0
 70
0
  0
VERTEX
  5
128
330
17
100
AcDbEntity
  8
0
100
AcDbVertex
100
AcDb2dVertex
 10
1166.2410661112203
 20
146.77463831844892
 30
0.0
 70
0
  0
VERTEX
  5
129
330
17
100
AcDbEntity
  8
0
100
AcDbVertex
100
AcDb2dVertex
 10
1212.442586555598
 20
127.69709388020678
 30
0.0
 70
0
  0
VERTEX
  5
12A
330
17
100
AcDbEntity
  8
0
100
AcDbVertex
100
AcDb2dVertex
 10
1216.04
 20
73.4691727915665
 30
0.0
 70
0
  0
VERTEX
  5
12B
330
17
100
AcDbEntity
  8
0
100
AcDbVertex
100
AcDb2dVertex
 10
1169.3686864672165
 20
46.740513470899884
 30
0.0
 70
0
  0
VERTEX
  5
12C
330
17
100
AcDbEntity
  8
0
100
AcDbVertex
100
AcDb2dVertex
 10
1125.6042145174513
 20
64.21934972287255
 30
0.0
 70
0
  0
VERTEX
  5
12D
330
17
100
AcDbEntity
  8
0
100
AcDbVertex
100
AcDb2dVertex
 10
1012.9643515444554
 20
4.003138170086459
 30
0.0
 70
0
  0
SEQEND
  5
122
330
17
100
AcDbEntity
  8
0
  0
POLYLINE
  5
12E
330
17
100
AcDbEntity
  8
0
100
AcDb2dPolyline
 66
1
 10
0.0
 20
0.0
 30
0.0
 70
0
  0
VERTEX
  5
130
330
17
100
AcDbEntity
  8
0
100
AcDbVertex
100
AcDb2dVertex
 10
1139.113219630375
 20
820.5043575035907
 30
0.0
 70
0
  0
VERTEX
  5
131
330
17
100
AcDbEntity
  8
0
100
AcDbVertex
100
AcDb2dVertex
 10
1148.138304509936
 20
904.96
 30
0.0
 70
0
  0
VERTEX
  5
132
330
17
100
AcDbEntity
  8
0
100
AcDbVertex
100
AcDb2dVertex
 10
1226.3252235948728
 20
870.5282537821565
 30
0.0
 70
0
  0
VERTEX
  5
133
330
17
100
AcDbEntity
  8
0
100
AcDbVertex
100
AcDb2dVertex
 10
1329.1599999999999
 20
888.2184866543437
 30
0.0
 70
0
  0
VERTEX
  5
134
330
17
100
AcDbEntity
  8
0
100
AcDbVertex
100
AcDb2dVertex
 10
1320.0045089024325
 20
787.3901476088415
 30
0.0
 70
0
  0
VERTEX
  5
135
330
17
100
AcDbEntity
  8
0
100
AcDbVertex
100
AcDb2dVertex
 10
1313.8780988208414
 20
690.5697038365946
 30
0.0
 70
0
  0
VERTEX
  5
136
330
17
100
AcDbEntity
  8
0
100
AcDbVertex
100
AcDb2dVertex
 10
1223.5376187381505
 20
642.8379177049173
 30
0.0
 70
0
  0
VERTEX
  5
137
330
17
100
AcDbEntity
  8
0
100
AcDbVertex
100
AcDb2dVertex
 10
1129.575191821861
 20
679.5420753621422
 30
0.0
 70
0
  0
VERTEX
  5
138
330
17
100
AcDbEntity
  8
0
100
AcDbVertex
100
AcDb2dVertex
 10
1122.0845636273348
 20
767.1572366160818
 30
0.0
 70
0
  0
VERTEX
  5
139
330
17
100
AcDbEntity
  8
0
100
AcDbVertex
100
AcDb2dVertex
 10
1139.113219630375
 20
820.5043575035907
 30
0.0
 70
0
  0
SEQEND
  5
12F
330
17
100
AcDbEntity
  8
0
  0
POLYLINE
  5
13A
330
17
100
AcDbEntity
  8
0
100
AcDb2dPolyline
 66
1
 10
0.0
 20
0.0
 30
0.0
 70
0
  0
VERTEX
  5
13C
330
17
100
AcDbEntity
  8
0
100
AcDbVertex
100
AcDb2dVertex
 10
1223.8501757675647
 20
410.06
 30
0.0
 70
0
  0
VERTEX
  5
13D
330
17
100
AcDbEntity
  8
0
100
AcDbVertex
100
AcDb2dVertex
 10
1328.119890039662
 20
317.42539242962886
 30
0.0
 70
0
  0
VERTEX
  5
13E
330
17
100
AcDbEntity
  8
0
100
AcDbVertex
100
AcDb2dVertex
 10
1256.674004061335
 20
190.92176299275437
 30
0.0
 70
0
  0
VERTEX
  5
13F
330
17
100
AcDbEntity
  8
0
100
AcDbVertex
100
AcDb2dVertex
 10
1088.78
 20
283.5227422368737
 30
0.0
 70
0
  0
VERTEX
  5
140
330
17
100
AcDbEntity
  8
0
100
AcDbVertex
100
AcDb2dVertex
 10
1223.8501757675647
 20
410.06
 30
0.0
 70
0
  0
SEQEND
  5
13B
330
17
100
AcDbEntity
  8
0
  0
POLYLINE
  5
141
330
17
100
AcDbEntity
  8
0
100
AcDb2dPolyline
 66
1
 10
0.0
 20
0.0
 30
0.0
 70
0
  0
VERTEX
  5
143
330
17
100
AcDbEntity
  8
0
100
AcDbVertex
100
AcDb2dVertex
 10
1338.0175216915923
 20
490.2200980014072
 30
0.0
 70
0
  0
VERTEX
  5
144
330
17
100
AcDbEntity
  8
0
100
AcDbVertex
100
AcDb2dVertex
 10
1306.5950127198173
 20
477.35332480805164
 30
0.0
 70
0
  0
VERTEX
  5
145
330
17
100
AcDbEntity
  8
0
100
AcDbVertex
100
AcDb2dVertex
 10
1296.5707593421232
 20
395.92
 30
0.0
 70
0
  0
VERTEX
  5
146
330
17
100
AcDbEntity
  8
0
100
AcDbVertex
100
AcDb2dVertex
 10
1242.3194097269911
 20
421.2510465306308
 30
0.0
 70
0
  0
VERTEX
  5
147
330
17
100
AcDbEntity
  8
0
100
AcDbVertex
100
AcDb2dVertex
 10
1206.1088833552672
 20
446.6106031064668
 30
0.0
 70
0
  0
VERTEX
  5
148
330
17
100
AcDbEntity
  8
0
100
AcDbVertex
100
AcDb2dVertex
 10
1131.2
 20
444.1326358099094
 30
0.0
 70
0
  0
VERTEX
  5
149
330
17
100
AcDbEntity
  8
0
100
AcDbVertex
100
AcDb2dVertex
 10
1156.7686036143623
 20
510.6006930525625
 30
0.0
 70
0
  0
VERTEX
  5
14A
330
17
100
AcDbEntity
  8
0
100
AcDbVertex
100
AcDb2dVertex
 10
1163.6649482690182
 20
552.6823186634285
 30
0.0
 70
0
  0
VERTEX
  5
14B
330
17
100
AcDbEntity
  8
0
100
AcDbVertex
100
AcDb2dVertex
 10
1218.1973407226794
 20
563.707388741464
 30
0.0
 70
0
  0
VERTEX
  5
14C
330
17
100
AcDbEntity
  8
0
100
AcDbVertex
100
AcDb2dVertex
 10
1202.9735924876086
 20
615.071230043741
 30
0.0
 70
0
  0
VERTEX
  5
14D
330
17
100
AcDbEntity
  8
0
100
AcDbVertex
100
AcDb2dVertex
 10
1241.9144585742463
 20
614.1875936836884
 30
0.0
 70
0
  0
VERTEX
  5
14E
330
17
100
AcDbEntity
  8
0
100
AcDbVertex
100
AcDb2dVertex
 10
1272.661893088611
 20
618.1015880491882
 30
0.0
 70
0
  0
VERTEX
  5
14F
330
17
100
AcDbEntity
  8
0
100
AcDbVertex
100
AcDb2dVertex
 10
1301.0859582214314
 20
605.3543694714706
 30
0.0
 70
0
  0
VERTEX
  5
150
330
17
100
AcDbEntity
  8
0
100
AcDbVertex
100
AcDb2dVertex
 10
1315.1303757806204
 20
577.7822881583543
 30
0.0
 70
0
  0
VERTEX
  5
151
330
17
100
AcDbEntity
  8
0
100
AcDbVertex
100
AcDb2dVertex
 10
1351.9234401107074
 20
559.5022268787411
 30
0.0
 70
0
  0
VERTEX
  5
152
330
17
100
AcDbEntity
  8
0
100
AcDbVertex
100
AcDb2dVertex
 10
1317.226055311689
 20
529.3146160156064
 30
0.0
 70
0
  0
VERTEX
  5
153
330
17
100
AcDbEntity
  8
0
100
AcDbVertex
100
AcDb2dVertex
 10
1338.0175216915923
 20
490.2200980014072
 30
0.0
 70
0
  0
SEQEND
  5
142
330
17
100
AcDbEntity
  8
0
  0
POLYLINE
  5
154
330
17
100
AcDbEntity
  8
0
100
AcDb2dPolyline
 66
1
 10
0.0
 20
0.0
 30
0.0
 70
0
  0
VERTEX
  5
156
330
17
100
AcDbEntity
  8
0
100
AcDbVertex
100
AcDb2dVertex
 10
1273.958775677157
 20
166.48622701830368
 30
0.0
 70
0
  0
VERTEX
  5
157
330
17
100
AcDbEntity
  8
0
100
AcDbVertex
100
AcDb2dVertex
 10
1286.6816299637735
 20
200.57120518852932
 30
0.0
 70
0
  0
VERTEX
  5
158
330
17
100
AcDbEntity
  8
0
100
AcDbVertex
100
AcDb2dVertex
 10
1326.4880175695644
 20
183.7824528082928
 30
0.0
 70
0
  0
VERTEX
  5
159
330
17
100
AcDbEntity
  8
0
100
AcDbVertex
100
AcDb2dVertex
 10
1356.0378415385305
 20
201.4168608263893
 30
0.0
 70
0
  0
VERTEX
  5
15A
330
17
100
AcDbEntity
  8
0
100
AcDbVertex
100
AcDb2dVertex
 10
1392.240068498256
 20
198.99405772072245
 30
0.0
 70
0
  0
VERTEX
  5
15B
330
17
100
AcDbEntity
  8
0
100
AcDbVertex
100
AcDb2dVertex
 10
1421.0910902932255
 20
174.2553637882796
 30
0.0
 70
0
  0
VERTEX
  5
15C
330
17
100
AcDbEntity
  8
0
100
AcDbVertex
100
AcDb2dVertex
 10
1430.0053859662
 20
138.33365082685253
 30
0.0
 70
0
  0
VERTEX
  5
15D
330
17
100
AcDbEntity
  8
0
100
AcDbVertex
100
AcDb2dVertex
 10
1442.2800000000002
 20
99.74828272579126
 30
0.0
 70
0
  0
VERTEX
  5
15E
330
17
100
AcDbEntity
  8
0
100
AcDbVertex
100
AcDb2dVertex
 10
1422.1366481550294
 20
62.91702416395752
 30
0.0
 70
0
  0
VERTEX
  5
15F
330
17
100
AcDbEntity
  8
0
100
AcDbVertex
100
AcDb2dVertex
 10
1389.712797673384
 20
40.82739032776014
 30
0.0
 70
0
  0
VERTEX
  5
160
330
17
100
AcDbEntity
  8
0
100
AcDbVertex
100
AcDb2dVertex
 10
1348.7515992718158
 20
47.295471422865745
 30
0.0
 70
0
  0
VERTEX
  5
161
330
17
100
AcDbEntity
  8
0
100
AcDbVertex
100
AcDb2dVertex
 10
1306.5835030373034
 20
0.0
 30
0.0
 70
0
  0
VERTEX
  5
162
330
17
100
AcDbEntity
  8
0
100
AcDbVertex
100
AcDb2dVertex
 10
1264.6466160300417
 20
23.39348402052201
 30
0.0
 70
0
  0
VERTEX
  5
163
330
17
100
AcDbEntity
  8
0
100
AcDbVertex
100
AcDb2dVertex
 10
1239.3648806333802
 20
62.17563133278074
 30
0.0
 70
0
  0
VERTEX
  5
164
330
17
100
AcDbEntity
  8
0
100
AcDbVertex
100
AcDb2dVertex
 10
1255.3417000474415
 20
107.73658693018368
 30
0.0
 70
0
  0
VERTEX
  5
165
330
17
100
AcDbEntity
  8
0
100
AcDbVertex
100
AcDb2dVertex
 10
1209.0009531525436
 20
149.60365301146084
 30
0.0
 70
0
  0
VERTEX
  5
166
330
17
100
AcDbEntity
  8
0
100
AcDbVertex
100
AcDb2dVertex
 10
1273.958775677157
 20
166.48622701830368
 30
0.0
 70
0
  0
SEQEND
  5
155
330
17
100
AcDbEntity
  8
0
  0
POLYLINE
  5
167
330
17
100
AcDbEntity
  8
0
100
AcDb2dPolyline
 66
1
 10
0.0
 20
0.0
 30
0.0
 70
0
  0
VERTEX
  5
169
330
17
100
AcDbEntity
  8
0
100
AcDbVertex
100
AcDb2dVertex
 10
1483.82743219856
 20
502.479134904171
 30
0.0
 70
0
  0
VERTEX
  5
16A
330
17
100
AcDbEntity
  8
0
100
AcDbVertex
100
AcDb2dVertex
 10
1512.98
 20
415.9596206395116
 30
0.0
 70
0
  0
VERTEX
  5
16B
330
17
100
AcDbEntity
  8
0
100
AcDbVertex
100
AcDb2dVertex
 10
1459.8966524688808
 20
359.6222838294771
 30
0.0
 70
0
  0
VERTEX
  5
16C
330
17
100
AcDbEntity
  8
0
100
AcDbVertex
100
AcDb2dVertex
 10
1436.974409883343
 20
272.6758875757111
 30
0.0
 70
0
  0
VERTEX
  5
16D
330
17
100
AcDbEntity
  8
0
100
AcDbVertex
100
AcDb2dVertex
 10
1344.6954851655837
 20
278.4482783409791
 30
0.0
 70
0
  0
VERTEX
  5
16E
330
17
100
AcDbEntity
  8
0
100
AcDbVertex
100
AcDb2dVertex
 10
1326.2348159461374
 20
363.44748375035385
 30
0.0
 70
0
  0
VERTEX
  5
16F
330
17
100
AcDbEntity
  8
0
100
AcDbVertex
100
AcDb2dVertex
 10
1301.620368052244
 20
415.4632022477587
 30
0.0
 70
0
  0
VERTEX
  5
170
330
17
100
AcDbEntity
  8
0
100
AcDbVertex
100
AcDb2dVertex
 10
1360.3488248110962
 20
439.89356080736235
 30
0.0
 70
0
  0
VERTEX
  5
171
330
17
100
AcDbEntity
  8
0
100
AcDbVertex
100
AcDb2dVertex
 10
1398.0426439861012
 20
509.04
 30
0.0
 70
0
  0
VERTEX
  5
172
330
17
100
AcDbEntity
  8
0
100
AcDbVertex
100
AcDb2dVertex
 10
1483.82743219856
 20
502.479134904171
 30
0.0
 70
0
  0
SEQEND
  5
168
330
17
100
AcDbEntity
  8
0
  0
POLYLINE
  5
173
330
17
100
AcDbEntity
  8
0
100
AcDb2dPolyline
 66
1
 10
0.0
 20
0.0
 30
0.0
 70
0
  0
VERTEX
  5
175
330
17
100
AcDbEntity
  8
0
100
AcDbVertex
100
AcDb2dVertex
 10
1427.4607575656128
 20
670.9701790939648
 30
0.0
 70
0
  0
VERTEX
  5
176
330
17
100
AcDbEntity
  8
0
100
AcDbVertex
100
AcDb2dVertex
 10
1469.5476052627425
 20
673.465085186675
 30
0.0
 70
0
  0
VERTEX
  5
177
330
17
100
AcDbEntity
  8
0
100
AcDbVertex
100
AcDb2dVertex
 10
1498.8400000000001
 20
644.109791359007
 30
0.0
 70
0
  0
VERTEX
  5
178
330
17
100
AcDbEntity
  8
0
100
AcDbVertex
100
AcDb2dVertex
 10
1453.2477937035828
 20
622.104218641513
 30
0.0
 70
0
  0
VERTEX
  5
179
330
17
100
AcDbEntity
  8
0
100
AcDbVertex
100
AcDb2dVertex
 10
1449.8102591987533
 20
588.6847736202776
 30
0.0
 70
0
  0
VERTEX
  5
17A
330
17
100
AcDbEntity
  8
0
100
AcDbVertex
100
AcDb2dVertex
 10
1431.7162807684902
 20
545.6297200664918
 30
0.0
 70
0
  0
VERTEX
  5
17B
330
17
100
AcDbEntity
  8
0
100
AcDbVertex
100
AcDb2dVertex
 10
1388.22491759204
 20
530.9224484406352
 30
0.0
 70
0
  0
VERTEX
  5
17C
330
17
100
AcDbEntity
  8
0
100
AcDbVertex
100
AcDb2dVertex
 10
1365.4168944438795
 20
586.2799759233662
 30
0.0
 70
0
  0
VERTEX
  5
17D
330
17
100
AcDbEntity
  8
0
100
AcDbVertex
100
AcDb2dVertex
 10
1356.8834654873217
 20
614.648224513739
 30
0.0
 70
0
  0
VERTEX
  5
17E
330
17
100
AcDbEntity
  8
0
100
AcDbVertex
100
AcDb2dVertex
 10
1293.2695583867767
 20
626.8394629767027
 30
0.0
 70
0
  0
VERTEX
  5
17F
330
17
100
AcDbEntity
  8
0
100
AcDbVertex
100
AcDb2dVertex
 10
1355.7801344882666
 20
657.9667273535144
 30
0.0
 70
0
  0
VERTEX
  5
180
330
17
100
AcDbEntity
  8
0
100
AcDbVertex
100
AcDb2dVertex
 10
1338.0993164244278
 20
698.8812317904745
 30
0.0
 70
0
  0
VERTEX
  5
181
330
17
100
AcDbEntity
  8
0
100
AcDbVertex
100
AcDb2dVertex
 10
1341.2924663671406
 20
763.5600000000001
 30
0.0
 70
0
  0
VERTEX
  5
182
330
17
100
AcDbEntity
  8
0
100
AcDbVertex
100
AcDb2dVertex
 10
1400.5691692579312
 20
690.6305382068248
 30
0.0
 70
0
  0
VERTEX
  5
183
330
17
100
AcDbEntity
  8
0
100
AcDbVertex
100
AcDb2dVertex
 10
1433.87299984917
 20
730.8243330195637
 30
0.0
 70
0
  0
VERTEX
  5
184
330
17
100
AcDbEntity
  8
0
100
AcDbVertex
100
AcDb2dVertex
 10
1427.4607575656128
 20
670.9701790939648
 30
0.0
 70
0
  0
SEQEND
  5
174
330
17
100
AcDbEntity
  8
0
  0
POLYLINE
  5
185
330
17
100
AcDbEntity
  8
0
100
AcDb2dPolyline
 66
1
 10
0.0
 20
0.0
 30
0.0
 70
0
  0
VERTEX
  5
187
330
17
100
AcDbEntity
  8
0
100
AcDbVertex
100
AcDb2dVertex
 10
1404.023664903781
 20
920.0596684591669
 30
0.0
 70
0
  0
VERTEX
  5
188
330
17
100
AcDbEntity
  8
0
100
AcDbVertex
100
AcDb2dVertex
 10
1441.6614075318637
 20
972.2286827393157
 30
0.0
 70
0
  0
VERTEX
  5
189
330
17
100
AcDbEntity
  8
0
100
AcDbVertex
100
AcDb2dVertex
 10
1462.9568769319344
 20
895.6997410040613
 30
0.0
 70
0
  0
VERTEX
  5
18A
330
17
100
AcDbEntity
  8
0
100
AcDbVertex
100
AcDb2dVertex
 10
1534.96349955298
 20
896.6634655484374
 30
0.0
 70
0
  0
VERTEX
  5
18B
330
17
100
AcDbEntity
  8
0
100
AcDbVertex
100
AcDb2dVertex
 10
1499.2021650528136
 20
847.9741697099726
 30
0.0
 70
0
  0
VERTEX
  5
18C
330
17
100
AcDbEntity
  8
0
100
AcDbVertex
100
AcDb2dVertex
 10
1458.9320226321827
 20
843.3680194645374
 30
0.0
 70
0
  0
VERTEX
  5
18D
330
17
100
AcDbEntity
  8
0
100
AcDbVertex
100
AcDb2dVertex
 10
1444.0640301551439
 20
735.28
 30
0.0
 70
0
  0
VERTEX
  5
18E
330
17
100
AcDbEntity
  8
0
100
AcDbVertex
100
AcDb2dVertex
 10
1404.796786487519
 20
814.0306745342104
 30
0.0
 70
0
  0
VERTEX
  5
18F
330
17
100
AcDbEntity
  8
0
100
AcDbVertex
100
AcDb2dVertex
 10
1359.6668526439632
 20
839.0097550605606
 30
0.0
 70
0
  0
VERTEX
  5
190
330
17
100
AcDbEntity
  8
0
100
AcDbVertex
100
AcDb2dVertex
 10
1329.16
 20
903.1986392422587
 30
0.0
 70
0
  0
VERTEX
  5
191
330
17
100
AcDbEntity
  8
0
100
AcDbVertex
100
AcDb2dVertex
 10
1404.023664903781
 20
920.0596684591669
 30
0.0
 70
0
  0
SEQEND
  5
186
330
17
100
AcDbEntity
  8
0
  0
POLYLINE
  5
192
330
17
100
AcDbEntity
  8
0
100
AcDb2dPolyline
 66
1
 10
0.0
 20
0.0
 30
0.0
 70
0
  0
VERTEX
  5
194
330
17
100
AcDbEntity
  8
0
100
AcDbVertex
100
AcDb2dVertex
 10
1559.0576222941895
 20
127.87391844743148
 30
0.0
 70
0
  0
VERTEX
  5
195
330
17
100
AcDbEntity
  8
0
100
AcDbVertex
100
AcDb2dVertex
 10
1617.3132067557078
 20
109.55278018325987
 30
0.0
 70
0
  0
VERTEX
  5
196
330
17
100
AcDbEntity
  8
0
100
AcDbVertex
100
AcDb2dVertex
 10
1605.1377459742328
 20
75.9931294030431
 30
0.0
 70
0
  0
VERTEX
  5
197
330
17
100
AcDbEntity
  8
0
100
AcDbVertex
100
AcDb2dVertex
 10
1588.939742386727
 20
33.467919579223974
 30
0.0
 70
0
  0
VERTEX
  5
198
330
17
100
AcDbEntity
  8
0
100
AcDbVertex
100
AcDb2dVertex
 10
1543.1874164758724
 20
67.21079029529201
 30
0.0
 70
0
  0
VERTEX
  5
199
330
17
100
AcDbEntity
  8
0
100
AcDbVertex
100
AcDb2dVertex
 10
1485.2863203720528
 20
0.0
 30
0.0
 70
0
  0
VERTEX
  5
19A
330
17
100
AcDbEntity
  8
0
100
AcDbVertex
100
AcDb2dVertex
 10
1447.8806225820044
 20
45.88076193988692
 30
0.0
 70
0
  0
VERTEX
  5
19B
330
17
100
AcDbEntity
  8
0
100
AcDbVertex
100
AcDb2dVertex
 10
1499.0976104046447
 20
113.23767648171744
 30
0.0
 70
0
  0
VERTEX
  5
19C
330
17
100
AcDbEntity
  8
0
100
AcDbVertex
100
AcDb2dVertex
 10
1442.28
 20
147.41789793326572
 30
0.0
 70
0
  0
VERTEX
  5
19D
330
17
100
AcDbEntity
  8
0
100
AcDbVertex
100
AcDb2dVertex
 10
1456.687287461772
 20
190.55110892746913
 30
0.0
 70
0
  0
VERTEX
  5
19E
330
17
100
AcDbEntity
  8
0
100
AcDbVertex
100
AcDb2dVertex
 10
1505.6183198362578
 20
194.84796311526554
 30
0.0
 70
0
  0
VERTEX
  5
19F
330
17
100
AcDbEntity
  8
0
100
AcDbVertex
100
AcDb2dVertex
 10
1536.7106211023308
 20
255.0178355300035
 30
0.0
 70
0
  0
VERTEX
  5
1A0
330
17
100
AcDbEntity
  8
0
100
AcDbVertex
100
AcDb2dVertex
 10
1557.8064603888301
 20
159.03385253230158
 30
0.0
 70
0
  0
VERTEX
  5
1A1
330
17
100
AcDbEntity
  8
0
100
AcDbVertex
100
AcDb2dVertex
 10
1623.326411330886
 20
194.23082340514048
 30
0.0
 70
0
  0
VERTEX
  5
1A2
330
17
100
AcDbEntity
  8
0
100
AcDbVertex
100
AcDb2dVertex
 10
1559.0576222941895
 20
127.87391844743148
 30
0.0
 70
0
  0
SEQEND
  5
193
330
17
100
AcDbEntity
  8
0
  0
POLYLINE
  5
1A3
330
17
100
AcDbEntity
  8
0
100
AcDb2dPolyline
 66
1
 10
0.0
 20
0.0
 30
0.0
 70
0
  0
VERTEX
  5
1A5
330
17
100
AcDbEntity
  8
0
100
AcDbVertex
100
AcDb2dVertex
 10
1647.3287665525975
 20
715.471812559269
 30
0.0
 70
0
  0
VERTEX
  5
1A6
330
17
100
AcDbEntity
  8
0
100
AcDbVertex
100
AcDb2dVertex
 10
1507.0038508833263
 20
636.3000000000001
 30
0.0
 70
0
  0
VERTEX
  5
1A7
330
17
100
AcDbEntity
  8
0
100
AcDbVertex
100
AcDb2dVertex
 10
1470.56
 20
804.3536113859429
 30
0.0
 70
0
  0
VERTEX
  5
1A8
330
17
100
AcDbEntity
  8
0
100
AcDbVertex
100
AcDb2dVertex
 10
1645.3829284101462
 20
890.997889985779
 30
0.0
 70
0
  0
VERTEX
  5
1A9
330
17
100
AcDbEntity
  8
0
100
AcDbVertex
100
AcDb2dVertex
 10
1647.3287665525975
 20
715.471812559269
 30
0.0
 70
0
  0
SEQEND
  5
1A4
330
17
100
AcDbEntity
  8
0
  0
POLYLINE
  5
1AA
330
17
100
AcDbEntity
  8
0
100
AcDb2dPolyline
 66
1
 10
0.0
 20
0.0
 30
0.0
 70
0
  0
VERTEX
  5
1AC
330
17
100
AcDbEntity
  8
0
100
AcDbVertex
100
AcDb2dVertex
 10
1476.3912308457232
 20
522.7255757165484
 30
0.0
 70
0
  0
VERTEX
  5
1AD
330
17
100
AcDbEntity
  8
0
100
AcDbVertex
100
AcDb2dVertex
 10
1524.1388145829776
 20
553.5527274825018
 30
0.0
 70
0
  0
VERTEX
  5
1AE
330
17
100
AcDbEntity
  8
0
100
AcDbVertex
100
AcDb2dVertex
 10
1552.6041941435124
 20
562.2739506565858
 30
0.0
 70
0
  0
VERTEX
  5
1AF
330
17
100
AcDbEntity
  8
0
100
AcDbVertex
100
AcDb2dVertex
 10
1579.8697951159331
 20
622.1600000000001
 30
0.0
 70
0
  0
VERTEX
  5
1B0
330
17
100
AcDbEntity
  8
0
100
AcDbVertex
100
AcDb2dVertex
 10
1640.24
 20
617.5918352560128
 30
0.0
 70
0
  0
VERTEX
  5
1B1
330
17
100
AcDbEntity
  8
0
100
AcDbVertex
100
AcDb2dVertex
 10
1628.787672062974
 20
548.7750710970298
 30
0.0
 70
0
  0
VERTEX
  5
1B2
330
17
100
AcDbEntity
  8
0
100
AcDbVertex
100
AcDb2dVertex
 10
1600.89441026026
 20
518.8197199443803
 30
0.0
 70
0
  0
VERTEX
  5
1B3
330
17
100
AcDbEntity
  8
0
100
AcDbVertex
100
AcDb2dVertex
 10
1618.0620544863777
 20
477.32444042207044
 30
0.0
 70
0
  0
VERTEX
  5
1B4
330
17
100
AcDbEntity
  8
0
100
AcDbVertex
100
AcDb2dVertex
 10
1594.857466586041
 20
398.75774315212857
 30
0.0
 70
0
  0
VERTEX
  5
1B5
330
17
100
AcDbEntity
  8
0
100
AcDbVertex
100
AcDb2dVertex
 10
1499.02471074198
 20
345.3564742538513
 30
0.0
 70
0
  0
VERTEX
  5
1B6
330
17
100
AcDbEntity
  8
0
100
AcDbVertex
100
AcDb2dVertex
 10
1543.6534925479928
 20
506.7566622728594
 30
0.0
 70
0
  0
VERTEX
  5
1B7
330
17
100
AcDbEntity
  8
0
100
AcDbVertex
100
AcDb2dVertex
 10
1476.3912308457232
 20
522.7255757165484
 30
0.0
 70
0
  0
SEQEND
  5
1AB
330
17
100
AcDbEntity
  8
0
  0
POLYLINE
  5
1B8
330
17
100
AcDbEntity
  8
0
100
AcDb2dPolyline
 66
1
 10
0.0
 20
0.0
 30
0.0
 70
0
  0
VERTEX
  5
1BA
330
17
100
AcDbEntity
  8
0
100
AcDbVertex
100
AcDb2dVertex
 10
1631.7923389107314
 20
251.429245579774
 30
0.0
 70
0
  0
VERTEX
  5
1BB
330
17
100
AcDbEntity
  8
0
100
AcDbVertex
100
AcDb2dVertex
 10
1527.1200000000001
 20
273.4804544007649
 30
0.0
 70
0
  0
VERTEX
  5
1BC
330
17
100
AcDbEntity
  8
0
100
AcDbVertex
100
AcDb2dVertex
 10
1609.4394273247044
 20
352.36065420188163
 30
0.0
 70
0
  0
VERTEX
  5
1BD
330
17
100
AcDbEntity
  8
0
100
AcDbVertex
100
AcDb2dVertex
 10
1635.3514028053694
 20
427.8283270288316
 30
0.0
 70
0
  0
VERTEX
  5
1BE
330
17
100
AcDbEntity
  8
0
100
AcDbVertex
100
AcDb2dVertex
 10
1714.89495736163
 20
413.3329812748898
 30
0.0
 70
0
  0
VERTEX
  5
1BF
330
17
100
AcDbEntity
  8
0
100
AcDbVertex
100
AcDb2dVertex
 10
1725.8787885232518
 20
339.0780063744941
 30
0.0
 70
0
  0
VERTEX
  5
1C0
330
17
100
AcDbEntity
  8
0
100
AcDbVertex
100
AcDb2dVertex
 10
1708.1864285090116
 20
300.0972362103281
 30
0.0
 70
0
  0
VERTEX
  5
1C1
330
17
100
AcDbEntity
  8
0
100
AcDbVertex
100
AcDb2dVertex
 10
1701.2544953191236
 20
212.10000000000002
 30
0.0
 70
0
  0
VERTEX
  5
1C2
330
17
100
AcDbEntity
  8
0
100
AcDbVertex
100
AcDb2dVertex
 10
1631.7923389107314
 20
251.429245579774
 30
0.0
 70
0
  0
SEQEND
  5
1B9
330
17
100
AcDbEntity
  8
0
  0
POLYLINE
  5
1C3
330
17
100
AcDbEntity
  8
0
100
AcDb2dPolyline
 66
1
 10
0.0
 20
0.0
 30
0.0
 70
0
  0
VERTEX
  5
1C5
330
17
100
AcDbEntity
  8
0
100
AcDbVertex
100
AcDb2dVertex
 10
1656.305367977715
 20
740.2223947399063
 30
0.0
 70
0
  0
VERTEX
  5
1C6
330
17
100
AcDbEntity
  8
0
100
AcDbVertex
100
AcDb2dVertex
 10
1700.343402314029
 20
741.2352879144465
 30
0.0
 70
0
  0
VERTEX
  5
1C7
330
17
100
AcDbEntity
  8
0
100
AcDbVertex
100
AcDb2dVertex
 10
1743.4348924814194
 20
776.0209270890246
 30
0.0
 70
0
  0
VERTEX
  5
1C8
330
17
100
AcDbEntity
  8
0
100
AcDbVertex
100
AcDb2dVertex
 10
1773.9199369425955
 20
732.2369433350159
 30
0.0
 70
0
  0
VERTEX
  5
1C9
330
17
100
AcDbEntity
  8
0
100
AcDbVertex
100
AcDb2dVertex
 10
1817.3245635700355
 20
715.5923463829579
 30
0.0
 70
0
  0
VERTEX
  5
1CA
330
17
100
AcDbEntity
  8
0
100
AcDbVertex
100
AcDb2dVertex
 10
1793.5497451846293
 20
665.982825043053
 30
0.0
 70
0
  0
VERTEX
  5
1CB
330
17
100
AcDbEntity
  8
0
100
AcDbVertex
100
AcDb2dVertex
 10
1755.649923292908
 20
643.1192147671053
 30
0.0
 70
0
  0
VERTEX
  5
1CC
330
17
100
AcDbEntity
  8
0
100
AcDbVertex
100
AcDb2dVertex
 10
1794.0749787258037
 20
603.8163586280714
 30
0.0
 70
0
  0
VERTEX
  5
1CD
330
17
100
AcDbEntity
  8
0
100
AcDbVertex
100
AcDb2dVertex
 10
1770.17014487364
 20
580.4846984268303
 30
0.0
 70
0
  0
VERTEX
  5
1CE
330
17
100
AcDbEntity
  8
0
100
AcDbVertex
100
AcDb2dVertex
 10
1743.6152292536267
 20
551.46
 30
0.0
 70
0
  0
VERTEX
  5
1CF
330
17
100
AcDbEntity
  8
0
100
AcDbVertex
100
AcDb2dVertex
 10
1716.293540406484
 20
615.3755945434912
 30
0.0
 70
0
  0
VERTEX
  5
1D0
330
17
100
AcDbEntity
  8
0
100
AcDbVertex
100
AcDb2dVertex
 10
1659.4469042666963
 20
553.6557179767693
 30
0.0
 70
0
  0
VERTEX
  5
1D1
330
17
100
AcDbEntity
  8
0
100
AcDbVertex
100
AcDb2dVertex
 10
1685.0297225188076
 20
623.5224192911822
 30
0.0
 70
0
  0
VERTEX
  5
1D2
330
17
100
AcDbEntity
  8
0
100
AcDbVertex
100
AcDb2dVertex
 10
1616.4945154230656
 20
628.6853401452104
 30
0.0
 70
0
  0
VERTEX
  5
1D3
330
17
100
AcDbEntity
  8
0
100
AcDbVertex
100
AcDb2dVertex
 10
1611.96
 20
668.9429409134407
 30
0.0
 70
0
  0
VERTEX
  5
1D4
330
17
100
AcDbEntity
  8
0
100
AcDbVertex
100
AcDb2dVertex
 10
1665.994161708261
 20
685.1034788625568
 30
0.0
 70
0
  0
VERTEX
  5
1D5
330
17
100
AcDbEntity
  8
0
100
AcDbVertex
100
AcDb2dVertex
 10
1656.305367977715
 20
740.2223947399063
 30
0.0
 70
0
  0
SEQEND
  5
1C4
330
17
100
AcDbEntity
  8
0
  0
POLYLINE
  5
1D6
330
17
100
AcDbEntity
  8
0
100
AcDb2dPolyline
 66
1
 10
0.0
 20
0.0
 30
0.0
 70
0
  0
VERTEX
  5
1D8
330
17
100
AcDbEntity
  8
0
100
AcDbVertex
100
AcDb2dVertex
 10
1791.2516570466719
 20
93.70432475343452
 30
0.0
 70
0
  0
VERTEX
  5
1D9
330
17
100
AcDbEntity
  8
0
100
AcDbVertex
100
AcDb2dVertex
 10
1792.2018427367386
 20
75.78074285526955
 30
0.0
 70
0
  0
VERTEX
  5
1DA
330
17
100
AcDbEntity
  8
0
100
AcDbVertex
100
AcDb2dVertex
 10
1824.7177236233254
 20
10.605439559627058
 30
0.0
 70
0
  0
VERTEX
  5
1DB
330
17
100
AcDbEntity
  8
0
100
AcDbVertex
100
AcDb2dVertex
 10
1764.869978712561
 20
54.995794024063116
 30
0.0
 70
0
  0
VERTEX
  5
1DC
330
17
100
AcDbEntity
  8
0
100
AcDbVertex
100
AcDb2dVertex
 10
1743.9014147573264
 20
0.0
 30
0.0
 70
0
  0
VERTEX
  5
1DD
330
17
100
AcDbEntity
  8
0
100
AcDbVertex
100
AcDb2dVertex
 10
1710.870679289922
 20
17.200023010905966
 30
0.0
 70
0
  0
VERTEX
  5
1DE
330
17
100
AcDbEntity
  8
0
100
AcDbVertex
100
AcDb2dVertex
 10
1663.9844909920175
 20
20.07871210814409
 30
0.0
 70
0
  0
VERTEX
  5
1DF
330
17
100
AcDbEntity
  8
0
100
AcDbVertex
100
AcDb2dVertex
 10
1626.1000000000001
 20
52.80326761311531
 30
0.0
 70
0
  0
VERTEX
  5
1E0
330
17
100
AcDbEntity
  8
0
100
AcDbVertex
100
AcDb2dVertex
 10
1637.4485440319795
 20
103.89457572933671
 30
0.0
 70
0
  0
VERTEX
  5
1E1
330
17
100
AcDbEntity
  8
0
100
AcDbVertex
100
AcDb2dVertex
 10
1673.7254802686805
 20
133.87578251245924
 30
0.0
 70
0
  0
VERTEX
  5
1E2
330
17
100
AcDbEntity
  8
0
100
AcDbVertex
100
AcDb2dVertex
 10
1710.6093152214892
 20
143.33197344861958
 30
0.0
 70
0
  0
VERTEX
  5
1E3
330
17
100
AcDbEntity
  8
0
100
AcDbVertex
100
AcDb2dVertex
 10
1719.6713525461726
 20
198.37985164631232
 30
0.0
 70
0
  0
VERTEX
  5
1E4
330
17
100
AcDbEntity
  8
0
100
AcDbVertex
100
AcDb2dVertex
 10
1757.603578289923
 20
178.0055189460828
 30
0.0
 70
0
  0
VERTEX
  5
1E5
330
17
100
AcDbEntity
  8
0
100
AcDbVertex
100
AcDb2dVertex
 10
1814.4171394868658
 20
224.42816374196696
 30
0.0
 70
0
  0
VERTEX
  5
1E6
330
17
100
AcDbEntity
  8
0
100
AcDbVertex
100
AcDb2dVertex
 10
1826.6321867634335
 20
161.2704122214296
 30
0.0
 70
0
  0
VERTEX
  5
1E7
330
17
100
AcDbEntity
  8
0
100
AcDbVertex
100
AcDb2dVertex
 10
1824.431343052319
 20
119.69027826451534
 30
0.0
 70
0
  0
VERTEX
  5
1E8
330
17
100
AcDbEntity
  8
0
100
AcDbVertex
100
AcDb2dVertex
 10
1791.2516570466719
 20
93.70432475343452
 30
0.0
 70
0
  0
SEQEND
  5
1D7
330
17
100
AcDbEntity
  8
0
  0
POLYLINE
  5
1E9
330
17
100
AcDbEntity
  8
0
100
AcDb2dPolyline
 66
1
 10
0.0
 20
0.0
 30
0.0
 70
0
  0
VERTEX
  5
1EB
330
17
100
AcDbEntity
  8
0
100
AcDbVertex
100
AcDb2dVertex
 10
1797.0843862964211
 20
818.8968655033844
 30
0.0
 70
0
  0
VERTEX
  5
1EC
330
17
100
AcDbEntity
  8
0
100
AcDbVertex
100
AcDb2dVertex
 10
1759.2859699627816
 20
807.5848200910042
 30
0.0
 70
0
  0
VERTEX
  5
1ED
330
17
100
AcDbEntity
  8
0
100
AcDbVertex
100
AcDb2dVertex
 10
1662.438809987835
 20
749.8522185891206
 30
0.0
 70
0
  0
VERTEX
  5
1EE
330
17
100
AcDbEntity
  8
0
100
AcDbVertex
100
AcDb2dVertex
 10
1724.5855489279154
 20
868.9481549573485
 30
0.0
 70
0
  0
VERTEX
  5
1EF
330
17
100
AcDbEntity
  8
0
100
AcDbVertex
100
AcDb2dVertex
 10
1639.7337477643894
 20
917.0336209099322
 30
0.0
 70
0
  0
VERTEX
  5
1F0
330
17
100
AcDbEntity
  8
0
100
AcDbVertex
100
AcDb2dVertex
 10
1691.8466982576772
 20
963.2274504524851
 30
0.0
 70
0
  0
VERTEX
  5
1F1
330
17
100
AcDbEntity
  8
0
100
AcDbVertex
100
AcDb2dVertex
 10
1748.4298771953195
 20
975.6600000000001
 30
0.0
 70
0
  0
VERTEX
  5
1F2
330
17
100
AcDbEntity
  8
0
100
AcDbVertex
100
AcDb2dVertex
 10
1796.497815964488
 20
957.9606197339842
 30
0.0
 70
0
  0
VERTEX
  5
1F3
330
17
100
AcDbEntity
  8
0
100
AcDbVertex
100
AcDb2dVertex
 10
1803.8269093576394
 20
907.7014259335585
 30
0.0
 70
0
  0
VERTEX
  5
1F4
330
17
100
AcDbEntity
  8
0
100
AcDbVertex
100
AcDb2dVertex
 10
1827.17626693174
 20
883.8942800569503
 30
0.0
 70
0
  0
VERTEX
  5
1F5
330
17
100
AcDbEntity
  8
0
100
AcDbVertex
100
AcDb2dVertex
 10
1838.2000000000003
 20
837.6746254599841
 30
0.0
 70
0
  0
VERTEX
  5
1F6
330
17
100
AcDbEntity
  8
0
100
AcDbVertex
100
AcDb2dVertex
 10
1797.0843862964211
 20
818.8968655033844
 30
0.0
 70
0
  0
SEQEND
  5
1EA
330
17
100
AcDbEntity
  8
0
  0
POLYLINE
  5
1F7
330
17
100
AcDbEntity
  8
0
100
AcDb2dPolyline
 66
1
 10
0.0
 20
0.0
 30
0.0
 70
0
  0
VERTEX
  5
1F9
330
17
100
AcDbEntity
  8
0
100
AcDbVertex
100
AcDb2dVertex
 10
1732.0048929999457
 20
422.9792779484664
 30
0.0
 70
0
  0
VERTEX
  5
1FA
330
17
100
AcDbEntity
  8
0
100
AcDbVertex
100
AcDb2dVertex
 10
1710.94
 20
500.0435133038493
 30
0.0
 70
0
  0
VERTEX
  5
1FB
330
17
100
AcDbEntity
  8
0
100
AcDbVertex
100
AcDb2dVertex
 10
1786.643052395051
 20
509.1400355161442
 30
0.0
 70
0
  0
VERTEX
  5
1FC
330
17
100
AcDbEntity
  8
0
100
AcDbVertex
100
AcDb2dVertex
 10
1822.814620733849
 20
487.3564754812546
 30
0.0
 70
0
  0
VERTEX
  5
1FD
330
17
100
AcDbEntity
  8
0
100
AcDbVertex
100
AcDb2dVertex
 10
1841.6417921083548
 20
457.5758860037699
 30
0.0
 70
0
  0
VERTEX
  5
1FE
330
17
100
AcDbEntity
  8
0
100
AcDbVertex
100
AcDb2dVertex
 10
1873.2433122926209
 20
362.21632422276355
 30
0.0
 70
0
  0
VERTEX
  5
1FF
330
17
100
AcDbEntity
  8
0
100
AcDbVertex
100
AcDb2dVertex
 10
1752.801308402658
 20
240.38
 30
0.0
 70
0
  0
VERTEX
  5
200
330
17
100
AcDbEntity
  8
0
100
AcDbVertex
100
AcDb2dVertex
 10
1732.0048929999457
 20
422.9792779484664
 30
0.0
 70
0
  0
SEQEND
  5
1F8
330
17
100
AcDbEntity
  8
0
  0
POLYLINE
  5
201
330
17
100
AcDbEntity
  8
0
100
AcDb2dPolyline
 66
1
 10
0.0
 20
0.0
 30
0.0
 70
0
  0
VERTEX
  5
203
330
17
100
AcDbEntity
  8
0
100
AcDbVertex
100
AcDb2dVertex
 10
1953.5804180117257
 20
727.8756164282922
 30
0.0
 70
0
  0
VERTEX
  5
204
330
17
100
AcDbEntity
  8
0
100
AcDbVertex
100
AcDb2dVertex
 10
1979.6
 20
632.3438003044241
 30
0.0
 70
0
  0
VERTEX
  5
205
330
17
100
AcDbEntity
  8
0
100
AcDbVertex
100
AcDb2dVertex
 10
1874.9941540159946
 20
610.172164076241
 30
0.0
 70
0
  0
VERTEX
  5
206
330
17
100
AcDbEntity
  8
0
100
AcDbVertex
100
AcDb2dVertex
 10
1854.7195889617637
 20
684.3910062563425
 30
0.0
 70
0
  0
VERTEX
  5
207
330
17
100
AcDbEntity
  8
0
100
AcDbVertex
100
AcDb2dVertex
 10
1777.546168561313
 20
777.1160644169773
 30
0.0
 70
0
  0
VERTEX
  5
208
330
17
100
AcDbEntity
  8
0
100
AcDbVertex
100
AcDb2dVertex
 10
1895.1795967445626
 20
834.26
 30
0.0
 70
0
  0
VERTEX
  5
209
330
17
100
AcDbEntity
  8
0
100
AcDbVertex
100
AcDb2dVertex
 10
1953.5804180117257
 20
727.8756164282922
 30
0.0
 70
0
  0
SEQEND
  5
202
330
17
100
AcDbEntity
  8
0
  0
POLYLINE
  5
20A
330
17
100
AcDbEntity
  8
0
100
AcDb2dPolyline
 66
1
 10
0.0
 20
0.0
 30
0.0
 70
0
  0
VERTEX
  5
20C
330
17
100
AcDbEntity
  8
0
100
AcDbVertex
100
AcDb2dVertex
 10
1023.4188566351265
 20
825.3684128428445
 30
0.0
 70
0
  0
VERTEX
  5
20D
330
17
100
AcDbEntity
  8
0
100
AcDbVertex
100
AcDb2dVertex
 10
933.24
 20
950.4252895779142
 30
0.0
 70
0
  0
VERTEX
  5
20E
330
17
100
AcDbEntity
  8
0
100
AcDbVertex
100
AcDb2dVertex
 10
1065.3253166935635
 20
975.6448468532087
 30
0.0
 70
0
  0
VERTEX
  5
20F
330
17
100
AcDbEntity
  8
0
100
AcDbVertex
100
AcDb2dVertex
 10
1193.2635454731849
 20
989.8
 30
0.0
 70
0
  0
VERTEX
  5
210
330
17
100
AcDbEntity
  8
0
100
AcDbVertex
100
AcDb2dVertex
 10
1102.001580743333
 20
898.5220898838523
 30
0.0
 70
0
  0
VERTEX
  5
211
330
17
100
AcDbEntity
  8
0
100
AcDbVertex
100
AcDb2dVertex
 10
1023.4188566351265
 20
825.3684128428445
 30
0.0
 70
0
  0
SEQEND
  5
20B
330
17
100
AcDbEntity
  8
0
  0
POLYLINE
  5
212
330
17
100
AcDbEntity
  8
0
100
AcDb2dPolyline
 66
1
 10
0.0
 20
0.0
 30
0.0
 70
0
  0
VERTEX
  5
214
330
17
100
AcDbEntity
  8
0
100
AcDbVertex
100
AcDb2dVertex
 10
1979.6000000000001
 20
230.340391933428
 30
0.0
 70
0
  0
VERTEX
  5
215
330
17
100
AcDbEntity
  8
0
100
AcDbVertex
100
AcDb2dVertex
 10
1962.9429184124556
 20
161.58361134236412
 30
0.0
 70
0
  0
VERTEX
  5
216
330
17
100
AcDbEntity
  8
0
100
AcDbVertex
100
AcDb2dVertex
 10
1935.009865766609
 20
131.76838749504543
 30
0.0
 70
0
  0
VERTEX
  5
217
330
17
100
AcDbEntity
  8
0
100
AcDbVertex
100
AcDb2dVertex
 10
1817.6272851917654
 20
56.2368230940679
 30
0.0
 70
0
  0
VERTEX
  5
218
330
17
100
AcDbEntity
  8
0
100
AcDbVertex
100
AcDb2dVertex
 10
1873.873774300838
 20
184.966605133016
 30
0.0
 70
0
  0
VERTEX
  5
219
330
17
100
AcDbEntity
  8
0
100
AcDbVertex
100
AcDb2dVertex
 10
1885.7466560849198
 20
311.08000000000004
 30
0.0
 70
0
  0
VERTEX
  5
21A
330
17
100
AcDbEntity
  8
0
100
AcDbVertex
100
AcDb2dVertex
 10
1979.6000000000001
 20
230.340391933428
 30
0.0
 70
0
  0
SEQEND
  5
213
330
17
100
AcDbEntity
  8
0
  0
POLYLINE
  5
21B
330
17
100
AcDbEntity
  8
0
100
AcDb2dPolyline
 66
1
 10
0.0
 20
0.0
 30
0.0
 70
0
  0
VERTEX
  5
21D
330
17
100
AcDbEntity
  8
0
100
AcDbVertex
100
AcDb2dVertex
 10
1818.5712831550022
 20
570.2676905343161
 30
0.0
 70
0
  0
VERTEX
  5
21E
330
17
100
AcDbEntity
  8
0
100
AcDbVertex
100
AcDb2dVertex
 10
1847.8731107818255
 20
608.02
 30
0.0
 70
0
  0
VERTEX
  5
21F
330
17
100
AcDbEntity
  8
0
100
AcDbVertex
100
AcDb2dVertex
 10
1898.110151462465
 20
599.2786455037667
 30
0.0
 70
0
  0
VERTEX
  5
220
330
17
100
AcDbEntity
  8
0
100
AcDbVertex
100
AcDb2dVertex
 10
1927.159286357319
 20
607.9099682772651
 30
0.0
 70
0
  0
VERTEX
  5
221
330
17
100
AcDbEntity
  8
0
100
AcDbVertex
100
AcDb2dVertex
 10
1958.9580968134262
 20
601.58133532357
 30
0.0
 70
0
  0
VERTEX
  5
222
330
17
100
AcDbEntity
  8
0
100
AcDbVertex
100
AcDb2dVertex
 10
1993.74
 20
582.240391741014
 30
0.0
 70
0
  0
VERTEX
  5
223
330
17
100
AcDbEntity
  8
0
100
AcDbVertex
100
AcDb2dVertex
 10
1981.0553942708382
 20
543.0867427388789
 30
0.0
 70
0
  0
VERTEX
  5
224
330
17
100
AcDbEntity
  8
0
100
AcDbVertex
100
AcDb2dVertex
 10
1943.2462905764003
 20
530.1610157631277
 30
0.0
 70
0
  0
VERTEX
  5
225
330
17
100
AcDbEntity
  8
0
100
AcDbVertex
100
AcDb2dVertex
 10
1981.7507757303135
 20
448.4397783519269
 30
0.0
 70
0
  0
VERTEX
  5
226
330
17
100
AcDbEntity
  8
0
100
AcDbVertex
100
AcDb2dVertex
 10
1934.5845979008034
 20
394.018309591723
 30
0.0
 70
0
  0
VERTEX
  5
227
330
17
100
AcDbEntity
  8
0
100
AcDbVertex
100
AcDb2dVertex
 10
1893.819034502917
 20
481.6474118855118
 30
0.0
 70
0
  0
VERTEX
  5
228
330
17
100
AcDbEntity
  8
0
100
AcDbVertex
100
AcDb2dVertex
 10
1841.964953433182
 20
480.0863140216859
 30
0.0
 70
0
  0
VERTEX
  5
229
330
17
100
AcDbEntity
  8
0
100
AcDbVertex
100
AcDb2dVertex
 10
1838.8612035210538
 20
525.8421979927414
 30
0.0
 70
0
  0
VERTEX
  5
22A
330
17
100
AcDbEntity
  8
0
100
AcDbVertex
100
AcDb2dVertex
 10
1818.5712831550022
 20
570.2676905343161
 30
0.0
 70
0
  0
SEQEND
  5
21C
330
17
100
AcDbEntity
  8
0
  0
POLYLINE
  5
22B
330
17
100
AcDbEntity
  8
0
100
AcDb2dPolyline
 66
1
 10
0.0
 20
0.0
 30
0.0
 70
0
  0
VERTEX
  5
22D
330
17
100
AcDbEntity
  8
0
100
AcDbVertex
100
AcDb2dVertex
 10
1824.0600000000002
 20
900.5624169690581
 30
0.0
 70
0
  0
VERTEX
  5
22E
330
17
100
AcDbEntity
  8
0
100
AcDbVertex
100
AcDb2dVertex
 10
1886.5583534276834
 20
933.1968890370551
 30
0.0
 70
0
  0
VERTEX
  5
22F
330
17
100
AcDbEntity
  8
0
100
AcDbVertex
100
AcDb2dVertex
 10
1861.8624108979589
 20
988.1788298380953
 30
0.0
 70
0
  0
VERTEX
  5
230
330
17
100
AcDbEntity
  8
0
100
AcDbVertex
100
AcDb2dVertex
 10
1909.677473262517
 20
955.8088120538018
 30
0.0
 70
0
  0
VERTEX
  5
231
330
17
100
AcDbEntity
  8
0
100
AcDbVertex
100
AcDb2dVertex
 10
1936.4238356059893
 20
970.0881851194117
 30
0.0
 70
0
  0
VERTEX
  5
232
330
17
100
AcDbEntity
  8
0
100
AcDbVertex
100
AcDb2dVertex
 10
1974.2773294238682
 20
959.3284094971151
 30
0.0
 70
0
  0
VERTEX
  5
233
330
17
100
AcDbEntity
  8
0
100
AcDbVertex
100
AcDb2dVertex
 10
1982.1107888132913
 20
919.7576013738468
 30
0.0
 70
0
  0
VERTEX
  5
234
330
17
100
AcDbEntity
  8
0
100
AcDbVertex
100
AcDb2dVertex
 10
1963.3169723759943
 20
888.9569882672942
 30
0.0
 70
0
  0
VERTEX
  5
235
330
17
100
AcDbEntity
  8
0
100
AcDbVertex
100
AcDb2dVertex
 10
1957.051656500364
 20
820.12
 30
0.0
 70
0
  0
VERTEX
  5
236
330
17
100
AcDbEntity
  8
0
100
AcDbVertex
100
AcDb2dVertex
 10
1900.8706436882114
 20
846.2683572573515
 30
0.0
 70
0
  0
VERTEX
  5
237
330
17
100
AcDbEntity
  8
0
100
AcDbVertex
100
AcDb2dVertex
 10
1882.2267551357454
 20
888.7239185425598
 30
0.0
 70
0
  0
VERTEX
  5
238
330
17
100
AcDbEntity
  8
0
100
AcDbVertex
100
AcDb2dVertex
 10
1824.0600000000002
 20
900.5624169690581
 30
0.0
 70
0
  0
SEQEND
  5
22C
330
17
100
AcDbEntity
  8
0
  0
POLYLINE
  5
239
330
17
100
AcDbEntity
  8
0
100
AcDb2dPolyline
 66
1
 10
0.0
 20
0.0
 30
0.0
 70
0
  0
VERTEX
  5
23B
330
17
100
AcDbEntity
  8
0
100
AcDbVertex
100
AcDb2dVertex
 10
153.44262530871794
 20
898.1599871921286
 30
0.0
 70
0
  0
VERTEX
  5
23C
330
17
100
AcDbEntity
  8
0
100
AcDbVertex
100
AcDb2dVertex
 10
124.98362798260221
 20
863.4542715560615
 30
0.0
 70
0
  0
VERTEX
  5
23D
330
17
100
AcDbEntity
  8
0
100
AcDbVertex
100
AcDb2dVertex
 10
86.10724548004812
 20
904.0039881358714
 30
0.0
 70
0
  0
VERTEX
  5
23E
330
17
100
AcDbEntity
  8
0
100
AcDbVertex
100
AcDb2dVertex
 10
44.039757514536205
 20
859.8403849823542
 30
0.0
 70
0
  0
VERTEX
  5
23F
330
17
100
AcDbEntity
  8
0
100
AcDbVertex
100
AcDb2dVertex
 10
0.0
 20
896.8466645548503
 30
0.0
 70
0
  0
VERTEX
  5
240
330
17
100
AcDbEntity
  8
0
100
AcDbVertex
100
AcDb2dVertex
 10
23.060152812531783
 20
947.6168515442226
 30
0.0
 70
0
  0
VERTEX
  5
241
330
17
100
AcDbEntity
  8
0
100
AcDbVertex
100
AcDb2dVertex
 10
58.923736767820145
 20
989.8000000000001
 30
0.0
 70
0
  0
VERTEX
  5
242
330
17
100
AcDbEntity
  8
0
100
AcDbVertex
100
AcDb2dVertex
 10
106.20211490525458
 20
962.9284552379701
 30
0.0
 70
0
  0
VERTEX
  5
243
330
17
100
AcDbEntity
  8
0
100
AcDbVertex
100
AcDb2dVertex
 10
163.44715727690433
 20
954.5069540431284
 30
0.0
 70
0
  0
VERTEX
  5
244
330
17
100
AcDbEntity
  8
0
100
AcDbVertex
100
AcDb2dVertex
 10
153.44262530871794
 20
898.1599871921286
 30
0.0
 70
0
  0
SEQEND
  5
23A
330
17
100
AcDbEntity
  8
0
  0
POLYLINE
  5
245
330
17
100
AcDbEntity
  8
0
100
AcDb2dPolyline
 66
1
 10
0.0
 20
0.0
 30
0.0
 70
0
  0
VERTEX
  5
247
330
17
100
AcDbEntity
  8
0
100
AcDbVertex
100
AcDb2dVertex
 10
635.6118619748843
 20
961.6805292564802
 30
0.0
 70
0
  0
VERTEX
  5
248
330
17
100
AcDbEntity
  8
0
100
AcDbVertex
100
AcDb2dVertex
 10
661.1290988180773
 20
956.0874732857312
 30
0.0
 70
0
  0
VERTEX
  5
249
330
17
100
AcDbEntity
  8
0
100
AcDbVertex
100
AcDb2dVertex
 10
696.9469676588865
 20
978.7086105744572
 30
0.0
 70
0
  0
VERTEX
  5
24A
330
17
100
AcDbEntity
  8
0
100
AcDbVertex
100
AcDb2dVertex
 10
749.4200000000001
 20
957.9294183998356
 30
0.0
 70
0
  0
VERTEX
  5
24B
330
17
100
AcDbEntity
  8
0
100
AcDbVertex
100
AcDb2dVertex
 10
687.3922088897441
 20
920.2921034349165
 30
0.0
 70
0
  0
VERTEX
  5
24C
330
17
100
AcDbEntity
  8
0
100
AcDbVertex
100
AcDb2dVertex
 10
678.843086199465
 20
905.5222921765653
 30
0.0
 70
0
  0
VERTEX
  5
24D
330
17
100
AcDbEntity
  8
0
100
AcDbVertex
100
AcDb2dVertex
 10
663.7370917149054
 20
862.5400000000001
 30
0.0
 70
0
  0
VERTEX
  5
24E
330
17
100
AcDbEntity
  8
0
100
AcDbVertex
100
AcDb2dVertex
 10
646.7597766791566
 20
906.4172755598871
 30
0.0
 70
0
  0
VERTEX
  5
24F
330
17
100
AcDbEntity
  8
0
100
AcDbVertex
100
AcDb2dVertex
 10
647.0494292160622
 20
923.6438642514245
 30
0.0
 70
0
  0
VERTEX
  5
250
330
17
100
AcDbEntity
  8
0
100
AcDbVertex
100
AcDb2dVertex
 10
606.3317606585326
 20
944.5017634632297
 30
0.0
 70
0
  0
VERTEX
  5
251
330
17
100
AcDbEntity
  8
0
100
AcDbVertex
100
AcDb2dVertex
 10
635.6118619748843
 20
961.6805292564802
 30
0.0
 70
0
  0
SEQEND
  5
246
330
17
100
AcDbEntity
  8
0
  0
POLYLINE
  5
252
330
17
100
AcDbEntity
  8
0
100
AcDb2dPolyline
 66
1
 10
0.0
 20
0.0
 30
0.0
 70
0
  0
VERTEX
  5
254
330
17
100
AcDbEntity
  8
0
100
AcDbVertex
100
AcDb2dVertex
 10
984.7927248185174
 20
92.35450314272961
 30
0.0
 70
0
  0
VERTEX
  5
255
330
17
100
AcDbEntity
  8
0
100
AcDbVertex
100
AcDb2dVertex
 10
1014.8111719907381
 20
41.515539086816574
 30
0.0
 70
0
  0
VERTEX
  5
256
330
17
100
AcDbEntity
  8
0
100
AcDbVertex
100
AcDb2dVertex
 10
977.9188338209055
 20
0.7080105384482351
 30
0.0
 70
0
  0
VERTEX
  5
257
330
17
100
AcDbEntity
  8
0
100
AcDbVertex
100
AcDb2dVertex
 10
923.1828591422552
 20
13.588620914119048
 30
0.0
 70
0
  0
VERTEX
  5
258
330
17
100
AcDbEntity
  8
0
100
AcDbVertex
100
AcDb2dVertex
 10
905.2759481625703
 20
19.669115546739818
 30
0.0
 70
0
  0
VERTEX
  5
259
330
17
100
AcDbEntity
  8
0
100
AcDbVertex
100
AcDb2dVertex
 10
873.8747910539042
 20
5.5580608643386995
 30
0.0
 70
0
  0
VERTEX
  5
25A
330
17
100
AcDbEntity
  8
0
100
AcDbVertex
100
AcDb2dVertex
 10
848.4000000000001
 20
28.192407115683707
 30
0.0
 70
0
  0
VERTEX
  5
25B
330
17
100
AcDbEntity
  8
0
100
AcDbVertex
100
AcDb2dVertex
 10
881.618375981513
 20
55.32884897115076
 30
0.0
 70
0
  0
VERTEX
  5
25C
330
17
100
AcDbEntity
  8
0
100
AcDbVertex
100
AcDb2dVertex
 10
888.7257063452809
 20
72.79852917079619
 30
0.0
 70
0
  0
VERTEX
  5
25D
330
17
100
AcDbEntity
  8
0
100
AcDbVertex
100
AcDb2dVertex
 10
904.2872794780718
 20
113.12
 30
0.0
 70
0
  0
VERTEX
  5
25E
330
17
100
AcDbEntity
  8
0
100
AcDbVertex
100
AcDb2dVertex
 10
920.1417610462212
 20
65.89400417974291
 30
0.0
 70
0
  0
VERTEX
  5
25F
330
17
100
AcDbEntity
  8
0
100
AcDbVertex
100
AcDb2dVertex
 10
984.7927248185174
 20
92.35450314272961
 30
0.0
 70
0
  0
SEQEND
  5
253
330
17
100
AcDbEntity
  8
0
  0
POLYLINE
  5
260
330
17
100
AcDbEntity
  8
0
100
AcDb2dPolyline
 66
1
 10
0.0
 20
0.0
 30
0.0
 70
0
  0
VERTEX
  5
262
330
17
100
AcDbEntity
  8
0
100
AcDbVertex
100
AcDb2dVertex
 10
1503.7233115378974
 20
926.5889509599405
 30
0.0
 70
0
  0
VERTEX
  5
263
330
17
100
AcDbEntity
  8
0
100
AcDbVertex
100
AcDb2dVertex
 10
1484.7
 20
959.9252974770523
 30
0.0
 70
0
  0
VERTEX
  5
264
330
17
100
AcDbEntity
  8
0
100
AcDbVertex
100
AcDb2dVertex
 10
1510.7271452949003
 20
989.8000000000001
 30
0.0
 70
0
  0
VERTEX
  5
265
330
17
100
AcDbEntity
  8
0
100
AcDbVertex
100
AcDb2dVertex
 10
1543.9693447255213
 20
958.9770070769148
 30
0.0
 70
0
  0
VERTEX
  5
266
330
17
100
AcDbEntity
  8
0
100
AcDbVertex
100
AcDb2dVertex
 10
1572.0603403483103
 20
987.2804284246017
 30
0.0
 70
0
  0
VERTEX
  5
267
330
17
100
AcDbEntity
  8
0
100
AcDbVertex
100
AcDb2dVertex
 10
1606.0672284545287
 20
965.4187411973511
 30
0.0
 70
0
  0
VERTEX
  5
268
330
17
100
AcDbEntity
  8
0
100
AcDbVertex
100
AcDb2dVertex
 10
1581.44822829573
 20
933.0812720835729
 30
0.0
 70
0
  0
VERTEX
  5
269
330
17
100
AcDbEntity
  8
0
100
AcDbVertex
100
AcDb2dVertex
 10
1576.9838674352468
 20
869.0323222852378
 30
0.0
 70
0
  0
VERTEX
  5
26A
330
17
100
AcDbEntity
  8
0
100
AcDbVertex
100
AcDb2dVertex
 10
1533.0971862675474
 20
918.3835638015316
 30
0.0
 70
0
  0
VERTEX
  5
26B
330
17
100
AcDbEntity
  8
0
100
AcDbVertex
100
AcDb2dVertex
 10
1503.7233115378974
 20
926.5889509599405
 30
0.0
 70
0
  0
SEQEND
  5
261
330
17
100
AcDbEntity
  8
0
  0
POLYLINE
  5
26C
330
17
100
AcDbEntity
  8
0
100
AcDb2dPolyline
 66
1
 10
0.0
 20
0.0
 30
0.0
 70
0
  0
VERTEX
  5
26E
330
17
100
AcDbEntity
  8
0
100
AcDbVertex
100
AcDb2dVertex
 10
1970.2784719376054
 20
19.53953151835445
 30
0.0
 70
0
  0
VERTEX
  5
26F
330
17
100
AcDbEntity
  8
0
100
AcDbVertex
100
AcDb2dVertex
 10
1913.6435323559976
 20
0.0
 30
0.0
 70
0
  0
VERTEX
  5
270
330
17
100
AcDbEntity
  8
0
100
AcDbVertex
100
AcDb2dVertex
 10
1866.48
 20
62.95108535426685
 30
0.0
 70
0
  0
VERTEX
  5
271
330
17
100
AcDbEntity
  8
0
100
AcDbVertex
100
AcDb2dVertex
 10
1966.4869840054216
 20
132.98335314179832
 30
0.0
 70
0
  0
VERTEX
  5
272
330
17
100
AcDbEntity
  8
0
100
AcDbVertex
100
AcDb2dVertex
 10
1970.2784719376054
 20
19.53953151835445
 30
0.0
 70
0
  0
SEQEND
  5
26D
330
17
100
AcDbEntity
  8
0
  0
POLYLINE
  5
273
330
17
100
AcDbEntity
  8
0
100
AcDb2dPolyline
 66
1
 10
0.0
 20
0.0
 30
0.0
 70
0
  0
VERTEX
  5
275
330
17
100
AcDbEntity
  8
0
100
AcDbVertex
100
AcDb2dVertex
 10
1311.0078361619783
 20
919.4594765973117
 30
0.0
 70
0
  0
VERTEX
  5
276
330
17
100
AcDbEntity
  8
0
100
AcDbVertex
100
AcDb2dVertex
 10
1216.04
 20
884.2005986428591
 30
0.0
 70
0
  0
VERTEX
  5
277
330
17
100
AcDbEntity
  8
0
100
AcDbVertex
100
AcDb2dVertex
 10
1258.2746913644773
 20
981.0876931985906
 30
0.0
 70
0
  0
VERTEX
  5
278
330
17
100
AcDbEntity
  8
0
100
AcDbVertex
100
AcDb2dVertex
 10
1346.0869075304358
 20
989.8000000000001
 30
0.0
 70
0
  0
VERTEX
  5
279
330
17
100
AcDbEntity
  8
0
100
AcDbVertex
100
AcDb2dVertex
 10
1311.0078361619783
 20
919.4594765973117
 30
0.0
 70
0
  0
SEQEND
  5
274
330
17
100
AcDbEntity
  8
0
  0
POLYLINE
  5
27A
330
17
100
AcDbEntity
  8
0
100
AcDb2dPolyline
 66
1
 10
0.0
 20
0.0
 30
0.0
 70
0
  0
VERTEX
  5
27C
330
17
100
AcDbEntity
  8
0
100
AcDbVertex
100
AcDb2dVertex
 10
1918.945664355419
 20
327.4229652283187
 30
0.0
 70
0
  0
VERTEX
  5
27D
330
17
100
AcDbEntity
  8
0
100
AcDbVertex
100
AcDb2dVertex
 10
1924.5221299383334
 20
345.2202379951807
 30
0.0
 70
0
  0
VERTEX
  5
27E
330
17
100
AcDbEntity
  8
0
100
AcDbVertex
100
AcDb2dVertex
 10
1885.802219735104
 20
384.64531519797686
 30
0.0
 70
0
  0
VERTEX
  5
27F
330
17
100
AcDbEntity
  8
0
100
AcDbVertex
100
AcDb2dVertex
 10
1941.6153990675784
 20
356.6873749037215
 30
0.0
 70
0
  0
VERTEX
  5
280
330
17
100
AcDbEntity
  8
0
100
AcDbVertex
100
AcDb2dVertex
 10
1953.6659876519032
 20
395.92
 30
0.0
 70
0
  0
VERTEX
  5
281
330
17
100
AcDbEntity
  8
0
100
AcDbVertex
100
AcDb2dVertex
 10
1954.484100432872
 20
354.57396082967864
 30
0.0
 70
0
  0
VERTEX
  5
282
330
17
100
AcDbEntity
  8
0
100
AcDbVertex
100
AcDb2dVertex
 10
1988.9824010596333
 20
357.59587834209844
 30
0.0
 70
0
  0
VERTEX
  5
283
330
17
100
AcDbEntity
  8
0
100
AcDbVertex
100
AcDb2dVertex
 10
1977.0594989469196
 20
336.0330787086609
 30
0.0
 70
0
  0
VERTEX
  5
284
330
17
100
AcDbEntity
  8
0
100
AcDbVertex
100
AcDb2dVertex
 10
1993.7400000000002
 20
287.8762463038347
 30
0.0
 70
0
  0
VERTEX
  5
285
330
17
100
AcDbEntity
  8
0
100
AcDbVertex
100
AcDb2dVertex
 10
1954.2399920727703
 20
281.8125244121032
 30
0.0
 70
0
  0
VERTEX
  5
286
330
17
100
AcDbEntity
  8
0
100
AcDbVertex
100
AcDb2dVertex
 10
1925.5586981152844
 20
297.8414185510159
 30
0.0
 70
0
  0
VERTEX
  5
287
330
17
100
AcDbEntity
  8
0
100
AcDbVertex
100
AcDb2dVertex
 10
1918.945664355419
 20
327.4229652283187
 30
0.0
 70
0
  0
SEQEND
  5
27B
330
17
100
AcDbEntity
  8
0
  0
POLYLINE
  5
288
330
17
100
AcDbEntity
  8
0
100
AcDb2dPolyline
 66
1
 10
0.0
 20
0.0
 30
0.0
 70
0
  0
VERTEX
  5
28A
330
17
100
AcDbEntity
  8
0
100
AcDbVertex
100
AcDb2dVertex
 10
884.4395019084784
 20
444.3107475483704
 30
0.0
 70
0
  0
VERTEX
  5
28B
330
17
100
AcDbEntity
  8
0
100
AcDbVertex
100
AcDb2dVertex
 10
898.0730012592074
 20
456.90919616665167
 30
0.0
 70
0
  0
VERTEX
  5
28C
330
17
100
AcDbEntity
  8
0
100
AcDbVertex
100
AcDb2dVertex
 10
935.9672930125097
 20
469.70709469006187
 30
0.0
 70
0
  0
VERTEX
  5
28D
330
17
100
AcDbEntity
  8
0
100
AcDbVertex
100
AcDb2dVertex
 10
937.872192596155
 20
431.1492684743346
 30
0.0
 70
0
  0
VERTEX
  5
28E
330
17
100
AcDbEntity
  8
0
100
AcDbVertex
100
AcDb2dVertex
 10
928.9489884786905
 20
406.47891203632076
 30
0.0
 70
0
  0
VERTEX
  5
28F
330
17
100
AcDbEntity
  8
0
100
AcDbVertex
100
AcDb2dVertex
 10
917.7178784733934
 20
358.843477051655
 30
0.0
 70
0
  0
VERTEX
  5
290
330
17
100
AcDbEntity
  8
0
100
AcDbVertex
100
AcDb2dVertex
 10
866.2288497685201
 20
353.5
 30
0.0
 70
0
  0
VERTEX
  5
291
330
17
100
AcDbEntity
  8
0
100
AcDbVertex
100
AcDb2dVertex
 10
848.4000000000001
 20
400.9350764919663
 30
0.0
 70
0
  0
VERTEX
  5
292
330
17
100
AcDbEntity
  8
0
100
AcDbVertex
100
AcDb2dVertex
 10
869.363884123069
 20
433.5771501994528
 30
0.0
 70
0
  0
VERTEX
  5
293
330
17
100
AcDbEntity
  8
0
100
AcDbVertex
100
AcDb2dVertex
 10
884.4395019084784
 20
444.3107475483704
 30
0.0
 70
0
  0
SEQEND
  5
289
330
17
100
AcDbEntity
  8
0
  0
POLYLINE
  5
294
330
17
100
AcDbEntity
  8
0
100
AcDb2dPolyline
 66
1
 10
0.0
 20
0.0
 30
0.0
 70
0
  0
VERTEX
  5
296
330
17
100
AcDbEntity
  8
0
100
AcDbVertex
100
AcDb2dVertex
 10
185.93805652179844
 20
513.3729396219635
 30
0.0
 70
0
  0
VERTEX
  5
297
330
17
100
AcDbEntity
  8
0
100
AcDbVertex
100
AcDb2dVertex
 10
181.8233609545498
 20
534.0438846326621
 30
0.0
 70
0
  0
VERTEX
  5
298
330
17
100
AcDbEntity
  8
0
100
AcDbVertex
100
AcDb2dVertex
 10
169.68
 20
549.3292926496467
 30
0.0
 70
0
  0
VERTEX
  5
299
330
17
100
AcDbEntity
  8
0
100
AcDbVertex
100
AcDb2dVertex
 10
173.51649976812558
 20
571.7295088793705
 30
0.0
 70
0
  0
VERTEX
  5
29A
330
17
100
AcDbEntity
  8
0
100
AcDbVertex
100
AcDb2dVertex
 10
193.823395052734
 20
593.800443242044
 30
0.0
 70
0
  0
VERTEX
  5
29B
330
17
100
AcDbEntity
  8
0
100
AcDbVertex
100
AcDb2dVertex
 10
221.95736372138532
 20
585.6402249032169
 30
0.0
 70
0
  0
VERTEX
  5
29C
330
17
100
AcDbEntity
  8
0
100
AcDbVertex
100
AcDb2dVertex
 10
234.39680924718755
 20
562.1596102124413
 30
0.0
 70
0
  0
VERTEX
  5
29D
330
17
100
AcDbEntity
  8
0
100
AcDbVertex
100
AcDb2dVertex
 10
252.8587330944377
 20
538.2408794763084
 30
0.0
 70
0
  0
VERTEX
  5
29E
330
17
100
AcDbEntity
  8
0
100
AcDbVertex
100
AcDb2dVertex
 10
237.4266690465641
 20
509.04
 30
0.0
 70
0
  0
VERTEX
  5
29F
330
17
100
AcDbEntity
  8
0
100
AcDbVertex
100
AcDb2dVertex
 10
204.9468354726613
 20
522.9732896814038
 30
0.0
 70
0
  0
VERTEX
  5
2A0
330
17
100
AcDbEntity
  8
0
100
AcDbVertex
100
AcDb2dVertex
 10
185.93805652179844
 20
513.3729396219635
 30
0.0
 70
0
  0
SEQEND
  5
295
330
17
100
AcDbEntity
  8
0
  0
POLYLINE
  5
2A1
330
17
100
AcDbEntity
  8
0
100
AcDb2dPolyline
 66
1
 10
0.0
 20
0.0
 30
0.0
 70
0
  0
VERTEX
  5
2A3
330
17
100
AcDbEntity
  8
0
100
AcDbVertex
100
AcDb2dVertex
 10
0.0
 20
381.78000000000003
 30
0.0
 70
0
  0
VERTEX
  5
2A4
330
17
100
AcDbEntity
  8
0
100
AcDbVertex
100
AcDb2dVertex
 10
15.433375014214953
 20
442.54438321954575
 30
0.0
 70
0
  0
VERTEX
  5
2A5
330
17
100
AcDbEntity
  8
0
100
AcDbVertex
100
AcDb2dVertex
 10
12.472349199659497
 20
467.1924887991913
 30
0.0
 70
0
  0
VERTEX
  5
2A6
330
17
100
AcDbEntity
  8
0
100
AcDbVertex
100
AcDb2dVertex
 10
34.48115576070014
 20
477.40642157396286
 30
0.0
 70
0
  0
VERTEX
  5
2A7
330
17
100
AcDbEntity
  8
0
100
AcDbVertex
100
AcDb2dVertex
 10
56.88628709379949
 20
472.91027831487594
 30
0.0
 70
0
  0
VERTEX
  5
2A8
330
17
100
AcDbEntity
  8
0
100
AcDbVertex
100
AcDb2dVertex
 10
70.08550153492749
 20
454.7343245593677
 30
0.0
 70
0
  0
VERTEX
  5
2A9
330
17
100
AcDbEntity
  8
0
100
AcDbVertex
100
AcDb2dVertex
 10
63.48379616975637
 20
435.04660496452664
 30
0.0
 70
0
  0
VERTEX
  5
2AA
330
17
100
AcDbEntity
  8
0
100
AcDbVertex
100
AcDb2dVertex
 10
56.429225875775636
 20
384.89290383871526
 30
0.0
 70
0
  0
VERTEX
  5
2AB
330
17
100
AcDbEntity
  8
0
100
AcDbVertex
100
AcDb2dVertex
 10
0.0
 20
381.78000000000003
 30
0.0
 70
0
  0
SEQEND
  5
2A2
330
17
100
AcDbEntity
  8
0
  0
POLYLINE
  5
2AC
330
17
100
AcDbEntity
  8
0
100
AcDb2dPolyline
 66
1
 10
0.0
 20
0.0
 30
0.0
 70
0
  0
VERTEX
  5
2AE
330
17
100
AcDbEntity
  8
0
100
AcDbVertex
100
AcDb2dVertex
 10
275.2328235063601
 20
57.39212812670924
 30
0.0
 70
0
  0
VERTEX
  5
2AF
330
17
100
AcDbEntity
  8
0
100
AcDbVertex
100
AcDb2dVertex
 10
282.8
 20
41.25649683233645
 30
0.0
 70
0
  0
VERTEX
  5
2B0
330
17
100
AcDbEntity
  8
0
100
AcDbVertex
100
AcDb2dVertex
 10
263.10543137762454
 20
42.151688921601774
 30
0.0
 70
0
  0
VERTEX
  5
2B1
330
17
100
AcDbEntity
  8
0
100
AcDbVertex
100
AcDb2dVertex
 10
254.0916870989107
 20
1.3739725643490885
 30
0.0
 70
0
  0
VERTEX
  5
2B2
330
17
100
AcDbEntity
  8
0
100
AcDbVertex
100
AcDb2dVertex
 10
243.33249996859058
 20
37.33822823054605
 30
0.0
 70
0
  0
VERTEX
  5
2B3
330
17
100
AcDbEntity
  8
0
100
AcDbVertex
100
AcDb2dVertex
 10
225.90323293122287
 20
42.341320800924024
 30
0.0
 70
0
  0
VERTEX
  5
2B4
330
17
100
AcDbEntity
  8
0
100
AcDbVertex
100
AcDb2dVertex
 10
238.64400706734804
 20
58.03730037987823
 30
0.0
 70
0
  0
VERTEX
  5
2B5
330
17
100
AcDbEntity
  8
0
100
AcDbVertex
100
AcDb2dVertex
 10
237.65649028611796
 20
71.17688628863162
 30
0.0
 70
0
  0
VERTEX
  5
2B6
330
17
100
AcDbEntity
  8
0
100
AcDbVertex
100
AcDb2dVertex
 10
242.7589947613357
 20
98.98
 30
0.0
 70
0
  0
VERTEX
  5
2B7
330
17
100
AcDbEntity
  8
0
100
AcDbVertex
100
AcDb2dVertex
 10
262.5234130744141
 20
77.8385456672887
 30
0.0
 70
0
  0
VERTEX
  5
2B8
330
17
100
AcDbEntity
  8
0
100
AcDbVertex
100
AcDb2dVertex
 10
282.7623886041213
 20
77.24201600477926
 30
0.0
 70
0
  0
VERTEX
  5
2B9
330
17
100
AcDbEntity
  8
0
100
AcDbVertex
100
AcDb2dVertex
 10
275.2328235063601
 20
57.39212812670924
 30
0.0
 70
0
  0
SEQEND
  5
2AD
330
17
100
AcDbEntity
  8
0
  0
POLYLINE
  5
2BA
330
17
100
AcDbEntity
  8
0
100
AcDb2dPolyline
 66
1
 10
0.0
 20
0.0
 30
0.0
 70
0
  0
VERTEX
  5
2BC
330
17
100
AcDbEntity
  8
0
100
AcDbVertex
100
AcDb2dVertex
 10
4.248737904218288
 20
530.410746599887
 30
0.0
 70
0
  0
VERTEX
  5
2BD
330
17
100
AcDbEntity
  8
0
100
AcDbVertex
100
AcDb2dVertex
 10
0.0
 20
545.7430083273812
 30
0.0
 70
0
  0
VERTEX
  5
2BE
330
17
100
AcDbEntity
  8
0
100
AcDbVertex
100
AcDb2dVertex
 10
13.857807691988327
 20
548.0173453965562
 30
0.0
 70
0
  0
VERTEX
  5
2BF
330
17
100
AcDbEntity
  8
0
100
AcDbVertex
100
AcDb2dVertex
 10
25.40144700484511
 20
548.3007148010277
 30
0.0
 70
0
  0
VERTEX
  5
2C0
330
17
100
AcDbEntity
  8
0
100
AcDbVertex
100
AcDb2dVertex
 10
40.30239565660169
 20
551.46
 30
0.0
 70
0
  0
VERTEX
  5
2C1
330
17
100
AcDbEntity
  8
0
100
AcDbVertex
100
AcDb2dVertex
 10
33.22892111882955
 20
530.3797840685963
 30
0.0
 70
0
  0
VERTEX
  5
2C2
330
17
100
AcDbEntity
  8
0
100
AcDbVertex
100
AcDb2dVertex
 10
78.44262365032195
 20
530.041436333127
 30
0.0
 70
0
  0
VERTEX
  5
2C3
330
17
100
AcDbEntity
  8
0
100
AcDbVertex
100
AcDb2dVertex
 10
74.88521888487118
 20
506.62836752157443
 30
0.0
 70
0
  0
VERTEX
  5
2C4
330
17
100
AcDbEntity
  8
0
100
AcDbVertex
100
AcDb2dVertex
 10
55.695043422529196
 20
493.26497144350185
 30
0.0
 70
0
  0
VERTEX
  5
2C5
330
17
100
AcDbEntity
  8
0
100
AcDbVertex
100
AcDb2dVertex
 10
34.1763022837319
 20
495.8357012361755
 30
0.0
 70
0
  0
VERTEX
  5
2C6
330
17
100
AcDbEntity
  8
0
100
AcDbVertex
100
AcDb2dVertex
 10
21.03061649105598
 20
502.7650456802836
 30
0.0
 70
0
  0
VERTEX
  5
2C7
330
17
100
AcDbEntity
  8
0
100
AcDbVertex
100
AcDb2dVertex
 10
2.7581022745823844
 20
490.5175221959849
 30
0.0
 70
0
  0
VERTEX
  5
2C8
330
17
100
AcDbEntity
  8
0
100
AcDbVertex
100
AcDb2dVertex
 10
9.54379763517413
 20
515.6630213273761
 30
0.0
 70
0
  0
VERTEX
  5
2C9
330
17
100
AcDbEntity
  8
0
100
AcDbVertex
100
AcDb2dVertex
 10
0.4991108354067393
 20
521.1359565927329
 30
0.0
 70
0
  0
VERTEX
  5
2CA
330
17
100
AcDbEntity
  8
0
100
AcDbVertex
100
AcDb2dVertex
 10
4.248737904218288
 20
530.410746599887
 30
0.0
 70
0
  0
SEQEND
  5
2BB
330
17
100
AcDbEntity
  8
0
  0
POLYLINE
  5
2CB
330
17
100
AcDbEntity
  8
0
100
AcDb2dPolyline
 66
1
 10
0.0
 20
0.0
 30
0.0
 70
0
  0
VERTEX
  5
2CD
330
17
100
AcDbEntity
  8
0
100
AcDbVertex
100
AcDb2dVertex
 10
277.78265966337733
 20
919.1
 30
0.0
 70
0
  0
VERTEX
  5
2CE
330
17
100
AcDbEntity
  8
0
100
AcDbVertex
100
AcDb2dVertex
 10
254.59295596255507
 20
955.506665102529
 30
0.0
 70
0
  0
VERTEX
  5
2CF
330
17
100
AcDbEntity
  8
0
100
AcDbVertex
100
AcDb2dVertex
 10
284.87640119545165
 20
986.8455445338955
 30
0.0
 70
0
  0
VERTEX
  5
2D0
330
17
100
AcDbEntity
  8
0
100
AcDbVertex
100
AcDb2dVertex
 10
339.36
 20
985.3354216343174
 30
0.0
 70
0
  0
VERTEX
  5
2D1
330
17
100
AcDbEntity
  8
0
100
AcDbVertex
100
AcDb2dVertex
 10
322.4260265065449
 20
927.9315115361613
 30
0.0
 70
0
  0
VERTEX
  5
2D2
330
17
100
AcDbEntity
  8
0
100
AcDbVertex
100
AcDb2dVertex
 10
277.78265966337733
 20
919.1
 30
0.0
 70
0
  0
SEQEND
  5
2CC
330
17
100
AcDbEntity
  8
0
  0
POLYLINE
  5
2D3
330
17
100
AcDbEntity
  8
0
100
AcDb2dPolyline
 66
1
 10
0.0
 20
0.0
 30
0.0
 70
0
  0
VERTEX
  5
2D5
330
17
100
AcDbEntity
  8
0
100
AcDbVertex
100
AcDb2dVertex
 10
313.65826967287046
 20
227.34057570926495
 30
0.0
 70
0
  0
VERTEX
  5
2D6
330
17
100
AcDbEntity
  8
0
100
AcDbVertex
100
AcDb2dVertex
 10
325.22
 20
210.42325648684414
 30
0.0
 70
0
  0
VERTEX
  5
2D7
330
17
100
AcDbEntity
  8
0
100
AcDbVertex
100
AcDb2dVertex
 10
320.63961892957167
 20
190.20949843045614
 30
0.0
 70
0
  0
VERTEX
  5
2D8
330
17
100
AcDbEntity
  8
0
100
AcDbVertex
100
AcDb2dVertex
 10
297.5077803829247
 20
189.56104831665172
 30
0.0
 70
0
  0
VERTEX
  5
2D9
330
17
100
AcDbEntity
  8
0
100
AcDbVertex
100
AcDb2dVertex
 10
285.86455965663043
 20
171.6296425015683
 30
0.0
 70
0
  0
VERTEX
  5
2DA
330
17
100
AcDbEntity
  8
0
100
AcDbVertex
100
AcDb2dVertex
 10
261.0908954818234
 20
169.68
 30
0.0
 70
0
  0
VERTEX
  5
2DB
330
17
100
AcDbEntity
  8
0
100
AcDbVertex
100
AcDb2dVertex
 10
262.6457989857691
 20
197.3849287502042
 30
0.0
 70
0
  0
VERTEX
  5
2DC
330
17
100
AcDbEntity
  8
0
100
AcDbVertex
100
AcDb2dVertex
 10
274.08528901059054
 20
209.3236486133631
 30
0.0
 70
0
  0
VERTEX
  5
2DD
330
17
100
AcDbEntity
  8
0
100
AcDbVertex
100
AcDb2dVertex
 10
252.14215694757138
 20
238.14272373146537
 30
0.0
 70
0
  0
VERTEX
  5
2DE
330
17
100
AcDbEntity
  8
0
100
AcDbVertex
100
AcDb2dVertex
 10
278.8613675007557
 20
236.19985498246152
 30
0.0
 70
0
  0
VERTEX
  5
2DF
330
17
100
AcDbEntity
  8
0
100
AcDbVertex
100
AcDb2dVertex
 10
294.9314127881307
 20
230.43528111418067
 30
0.0
 70
0
  0
VERTEX
  5
2E0
330
17
100
AcDbEntity
  8
0
100
AcDbVertex
100
AcDb2dVertex
 10
313.65826967287046
 20
227.34057570926495
 30
0.0
 70
0
  0
SEQEND
  5
2D4
330
17
100
AcDbEntity
  8
0
  0
POLYLINE
  5
2E1
330
17
100
AcDbEntity
  8
0
100
AcDb2dPolyline
 66
1
 10
0.0
 20
0.0
 30
0.0
 70
0
  0
VERTEX
  5
2E3
330
17
100
AcDbEntity
  8
0
100
AcDbVertex
100
AcDb2dVertex
 10
28.801250879930336
 20
248.73697964600166
 30
0.0
 70
0
  0
VERTEX
  5
2E4
330
17
100
AcDbEntity
  8
0
100
AcDbVertex
100
AcDb2dVertex
 10
11.065305826635722
 20
250.5299902599803
 30
0.0
 70
0
  0
VERTEX
  5
2E5
330
17
100
AcDbEntity
  8
0
100
AcDbVertex
100
AcDb2dVertex
 10
2.6852799471677002
 20
264.788817797447
 30
0.0
 70
0
  0
VERTEX
  5
2E6
330
17
100
AcDbEntity
  8
0
100
AcDbVertex
100
AcDb2dVertex
 10
0.0
 20
279.4835993369153
 30
0.0
 70
0
  0
VERTEX
  5
2E7
330
17
100
AcDbEntity
  8
0
100
AcDbVertex
100
AcDb2dVertex
 10
1.233120679722532
 20
296.94
 30
0.0
 70
0
  0
VERTEX
  5
2E8
330
17
100
AcDbEntity
  8
0
100
AcDbVertex
100
AcDb2dVertex
 10
18.908338165868614
 20
296.92275641315126
 30
0.0
 70
0
  0
VERTEX
  5
2E9
330
17
100
AcDbEntity
  8
0
100
AcDbVertex
100
AcDb2dVertex
 10
31.438919660362842
 20
296.29996327521525
 30
0.0
 70
0
  0
VERTEX
  5
2EA
330
17
100
AcDbEntity
  8
0
100
AcDbVertex
100
AcDb2dVertex
 10
58.555614831940346
 20
296.8426561928815
 30
0.0
 70
0
  0
VERTEX
  5
2EB
330
17
100
AcDbEntity
  8
0
100
AcDbVertex
100
AcDb2dVertex
 10
60.392526120652974
 20
272.89035042595367
 30
0.0
 70
0
  0
VERTEX
  5
2EC
330
17
100
AcDbEntity
  8
0
100
AcDbVertex
100
AcDb2dVertex
 10
49.15575436961768
 20
252.8257995982771
 30
0.0
 70
0
  0
VERTEX
  5
2ED
330
17
100
AcDbEntity
  8
0
100
AcDbVertex
100
AcDb2dVertex
 10
28.801250879930336
 20
248.73697964600166
 30
0.0
 70
0
  0
SEQEND
  5
2E2
330
17
100
AcDbEntity
  8
0
  0
POLYLINE
  5
2EE
330
17
100
AcDbEntity
  8
0
100
AcDb2dPolyline
 66
1
 10
0.0
 20
0.0
 30
0.0
 70
0
  0
VERTEX
  5
2F0
330
17
100
AcDbEntity
  8
0
100
AcDbVertex
100
AcDb2dVertex
 10
0.0
 20
0.0
 30
0.0
 70
0
  0
VERTEX
  5
2F1
330
17
100
AcDbEntity
  8
0
100
AcDbVertex
100
AcDb2dVertex
 10
0.0
 20
1000.0
 30
0.0
 70
0
  0
VERTEX
  5
2F2
330
17
100
AcDbEntity
  8
0
100
AcDbVertex
100
AcDb2dVertex
 10
2000.0
 20
1000.0
 30
0.0
 70
0
  0
VERTEX
  5
2F3
330
17
100
AcDbEntity
  8
0
100
AcDbVertex
100
AcDb2dVertex
 10
2000.0
 20
0.0
 30
0.0
 70
0
  0
VERTEX
  5
2F4
330
17
100
AcDbEntity
  8
0
100
AcDbVertex
100
AcDb2dVertex
 10
0.0
 20
0.0
 30
0.0
 70
0
  0
SEQEND
  5
2EF
330
17
100
AcDbEntity
  8
0
  0
ENDSEC
  0
SECTION
  2
OBJECTS
  0
DICTIONARY
  5
A
330
0
100
AcDbDictionary
281
1
  3
ACAD_COLOR
350
B
  3
ACAD_GROUP
350
C
  3
ACAD_LAYOUT
350
D
  3
ACAD_MATERIAL
350
E
  3
ACAD_MLEADERSTYLE
350
F
  3
ACAD_MLINESTYLE
350
10
  3
ACAD_PLOTSETTINGS
350
11
  3
ACAD_PLOTSTYLENAME
350
12
  3
ACAD_SCALELIST
350
14
  3
ACAD_TABLESTYLE
350
15
  3
ACAD_VISUALSTYLE
350
16
  3
EZDXF_META
350
2D
  0
DICTIONARY
  5
B
330
A
100
AcDbDictionary
281
1
  0
DICTIONARY
  5
C
330
A
100
AcDbDictionary
281
1
  0
DICTIONARY
  5
D
330
A
100
AcDbDictionary
281
1
  3
Model
350
1A
  3
Layout1
350
1E
  0
DICTIONARY
  5
E
330
A
100
AcDbDictionary
281
1
  3
ByBlock
350
1F
  3
ByLayer
350
20
  3
Global
350
21
  0
DICTIONARY
  5
F
330
A
100
AcDbDictionary
281
1
  3
Standard
350
2C
  0
DICTIONARY
  5
10
330
A
100
AcDbDictionary
281
1
  3
Standard
350
22
  0
DICTIONARY
  5
11
330
A
100
AcDbDictionary
281
1
  0
ACDBDICTIONARYWDFLT
  5
12
330
A
100
AcDbDictionary
281
1
  3
Normal
350
13
100
AcDbDictionaryWithDefault
340
13
  0
ACDBPLACEHOLDER
  5
13
330
12
  0
DICTIONARY
  5
14
330
A
100
AcDbDictionary
281
1
  0
DICTIONARY
  5
15
330
A
100
AcDbDictionary
281
1
  0
DICTIONARY
  5
16
330
A
100
AcDbDictionary
281
1
  0
LAYOUT
  5
1A
330
D
100
AcDbPlotSettings
  1

  2
Adobe PDF
  4
A3
  6

 40
7.5
 41
20.0
 42
7.5
 43
20.0
 44
420.0
 45
297.0
 46
0.0
 47
0.0
 48
0.0
 49
0.0
140
0.0
141
0.0
142
1.0
143
1.0
 70
1024
 72
1
 73
1
 74
5
  7

 75
16
 76
0
 77
2
 78
300
147
1.0
148
0.0
149
0.0
100
AcDbLayout
  1
Model
 70
1
 71
0
 10
0.0
 20
0.0
 11
420.0
 21
297.0
 12
0.0
 22
0.0
 32
0.0
 14
1e+20
 24
1e+20
 34
1e+20
 15
-1e+20
 25
-1e+20
 35
-1e+20
146
0.0
 13
0.0
 23
0.0
 33
0.0
 16
1.0
 26
0.0
 36
0.0
 17
0.0
 27
1.0
 37
0.0
 76
1
330
17
  0
LAYOUT
  5
1E
330
D
100
AcDbPlotSettings
  1

  2
Adobe PDF
  4
A3
  6

 40
7.5
 41
20.0
 42
7.5
 43
20.0
 44
420.0
 45
297.0
 46
0.0
 47
0.0
 48
0.0
 49
0.0
140
0.0
141
0.0
142
1.0
143
1.0
 70
0
 72
1
 73
1
 74
5
  7

 75
16
 76
0
 77
2
 78
300
147
1.0
148
0.0
149
0.0
100
AcDbLayout
  1
Layout1
 70
1
 71
1
 10
0.0
 20
0.0
 11
420.0
 21
297.0
 12
0.0
 22
0.0
 32
0.0
 14
1e+20
 24
1e+20
 34
1e+20
 15
-1e+20
 25
-1e+20
 35
-1e+20
146
0.0
 13
0.0
 23
0.0
 33
0.0
 16
1.0
 26
0.0
 36
0.0
 17
0.0
 27
1.0
 37
0.0
 76
1
330
1B
  0
MATERIAL
  5
1F
102
{ACAD_REACTORS
330
E
102
}
330
E
100
AcDbMaterial
  1
ByBlock
  2

 70
0
 40
1.0
 71
1
 41
1.0
 91
-1023410177
 42
1.0
 72
1
  3

 73
1
 74
1
 75
1
 44
0.5
 73
0
 45
1.0
 46
1.0
 77
1
  4

 78
1
 79
1
170
1
 48
1.0
171
1
  6

172
1
173
1
174
1
140
1.0
141
1.0
175
1
  7

176
1
177
1
178
1
143
1.0
179
1
  8

270
1
271
1
272
1
145
1.0
146
1.0
273
1
  9

274
1
275
1
276
1
 42
1.0
 72
1
  3

 73
1
 74
1
 75
1
 94
63
  0
MATERIAL
  5
20
102
{ACAD_REACTORS
330
E
102
}
330
E
100
AcDbMaterial
  1
ByLayer
  2

 70
0
 40
1.0
 71
1
 41
1.0
 91
-1023410177
 42
1.0
 72
1
  3

 73
1
 74
1
 75
1
 44
0.5
 73
0
 45
1.0
 46
1.0
 77
1
  4

 78
1
 79
1
170
1
 48
1.0
171
1
  6

172
1
173
1
174
1
140
1.0
141
1.0
175
1
  7

176
1
177
1
178
1
143
1.0
179
1
  8

270
1
271
1
272
1
145
1.0
146
1.0
273
1
  9

274
1
275
1
276
1
 42
1.0
 72
1
  3

 73
1
 74
1
 75
1
 94
63
  0
MATERIAL
  5
21
102
{ACAD_REACTORS
330
E
102
}
330
E
100
AcDbMaterial
  1
Global
  2

 70
0
 40
1.0
 71
1
 41
1.0
 91
-1023410177
 42
1.0
 72
1
  3

 73
1
 74
1
 75
1
 44
0.5
 73
0
 45
1.0
 46
1.0
 77
1
  4

 78
1
 79
1
170
1
 48
1.0
171
1
  6

172
1
173
1
174
1
140
1.0
141
1.0
175
1
  7

176
1
177
1
178
1
143
1.0
179
1
  8

270
1
271
1
272
1
145
1.0
146
1.0
273
1
  9

274
1
275
1
276
1
 42
1.0
 72
1
  3

 73
1
 74
1
 75
1
 94
63
  0
MLINESTYLE
  5
22
102
{ACAD_REACTORS
330
10
102
}
330
10
100
AcDbMlineStyle
  2
Standard
 70
0
  3

 62
256
 51
90.0
 52
90.0
 71
2
 49
0.5
 62
256
  6
BYLAYER
 49
-0.5
 62
256
  6
BYLAYER
  0
MLEADERSTYLE
  5
2C
102
{ACAD_REACTORS
330
F
102
}
330
F
100
AcDbMLeaderStyle
179
2
170
2
171
1
172
0
 90
2
 40
0.0
 41
0.0
173
1
 91
-1056964608
 92
-2
290
1
 42
2.0
291
1
 43
8.0
  3
Standard
 44
4.0
300

342
29
174
1
175
1
176
0
178
1
 93
-1056964608
 45
4.0
292
0
297
0
 46
4.0
 94
-1056964608
 47
1.0
 49
1.0
140
1.0
294
1
141
0.0
177
0
142
1.0
295
0
296
0
143
3.75
271
0
272
9
273
9
  0
DICTIONARY
  5
2D
330
A
100
AcDbDictionary
280
1
281
1
  3
CREATED_BY_EZDXF
350
2E
  3
WRITTEN_BY_EZDXF
350
2F7
  0
DICTIONARYVAR
  5
2E
330
2D
100
DictionaryVariables
280
0
  1
0.18.1 @ 2022-09-26T19:06:36.188361+00:00
  0
DICTIONARYVAR
  5
2F7
330
2D
100
DictionaryVariables
280
0
  1
0.18.1 @ 2022-09-26T19:06:36.219617+00:00
  0
ENDSEC
  0
EOF
