<svg x="-0.5" y="-0.5" width="100" height="210" viewBox="-10.5 -10.5 110 220" fill="none" xmlns="http://www.w3.org/2000/svg"> 
<path style="stroke:#000000; stroke-width:0.72; fill:none"  d="M-0.5 210.5 L99.5 210.5 L99.5 0.5 L-0.5 0.5Z"/>
<path style="stroke:#000000; stroke-width:0.72; fill:none"  d="M39.9766 209.5 L36.0315 193.945 L10.2015 188.909 L0.778676 209.5Z"/>
<path style="stroke:#000000; stroke-width:0.72; fill:none"  d="M59.6933 207.358 L64.8645 186 L39.4225 186 L39.5787 202.609 L51.3918 209.305Z"/>
<path style="stroke:#000000; stroke-width:0.72; fill:none"  d="M69.0889 186.408 L64.5236 193.981 L66.054 203.137 L74.7127 209.5 L80.535 209.5 L88.5605 204.026 L87.8991 188.573Z"/>
<path style="stroke:#000000; stroke-width:0.72; fill:none"  d="M13.1744 170 L14.4167 188.088 L36.4037 188.434 L37.9561 170Z"/>
<path style="stroke:#000000; stroke-width:0.72; fill:none"  d="M98 168.361 L78.5566 172.352 L76.4487 181.875 L98 191.722Z"/>
<path style="stroke:#000000; stroke-width:0.72; fill:none"  d="M73.5 165.911 L51.7577 171.296 L53.3889 182.919 L73.5 185.434Z"/>
<path style="stroke:#000000; stroke-width:0.72; fill:none"  d="M52.4709 167.636 L52.9262 162.73 L48.6302 157.196 L39.1056 158.678 L36.5588 165.241 L40.9575 172 L48.7438 172Z"/>
<path style="stroke:#000000; stroke-width:0.72; fill:none"  d="M3.53644 156 L0.86017 158.454 L2.44033 169.443 L11.5289 170.059 L15.4695 163.921 L14.4961 159.141 L11.3026 156Z"/>
<path style="stroke:#000000; stroke-width:0.72; fill:none"  d="M89.4265 159.361 L87.1705 156 L76.0113 156 L73.7923 159.449 L74.8125 166.586 L77.8058 169.282 L84.541 169.671Z"/>
<path style="stroke:#000000; stroke-width:0.72; fill:none"  d="M31.6629 162.9 L28.6962 155.747 L18.5147 155.863 L16.5421 165.561 L19.8291 169 L27.6898 169Z"/>
<path style="stroke:#000000; stroke-width:0.72; fill:none"  d="M59.531 167.446 L68 165.449 L68 154.005 L58.1171 152.611 L54.0505 161.392Z"/>
<path style="stroke:#000000; stroke-width:0.72; fill:none"  d="M35.1882 158.48 L42.259 155.306 L43.4678 149.062 L40.1517 144.5 L31.9958 144.5 L28.6649 149.54 L28.9999 153.614Z"/>
<path style="stroke:#000000; stroke-width:0.72; fill:none"  d="M86.8332 154.079 L90.4487 156 L94.252 156 L98.1731 153.641 L97.5469 143.14 L87.2666 142.659 L84.5457 148.583Z"/>
<path style="stroke:#000000; stroke-width:0.72; fill:none"  d="M6.59406 154.192 L14.2981 155.185 L17.4847 152.842 L16.8693 142.5 L5.81722 142.5 L3.64717 148.838Z"/>
<path style="stroke:#000000; stroke-width:0.72; fill:none"  d="M45 144.013 L45 154.142 L52.0275 156.951 L58.9285 148.193 L54.7116 142.055Z"/>
<path style="stroke:#000000; stroke-width:0.72; fill:none"  d="M72.6015 155.715 L82.4882 151.356 L82.2582 144.941 L79.6929 142 L71.1594 142 L68.7611 152.498Z"/>
<path style="stroke:#000000; stroke-width:0.72; fill:none"  d="M0.5 178.961 L0.5 187.291 L4.7515 189.982 L12.4075 185.807 L11.1858 178.607 L2.64505 177.036Z"/>
<path style="stroke:#000000; stroke-width:0.72; fill:none"  d="M50.5692 175.705 L39.7573 175.429 L38.5661 185 L51.462 185Z"/>
<path style="stroke:#000000; stroke-width:0.72; fill:none"  d="M28.4761 137.5 L17.1073 137.5 L19.8269 149.255 L27.996 147.787Z"/>
<path style="stroke:#000000; stroke-width:0.72; fill:none"  d="M64.9725 146.119 L69.4885 141.894 L69.1806 136 L56.7303 136 L57.6199 144.001Z"/>
<path style="stroke:#000000; stroke-width:0.72; fill:none"  d="M49.1085 134 L33.9687 134 L34.2412 139.678 L42.7625 144.385Z"/>
<path style="stroke:#000000; stroke-width:0.72; fill:none"  d="M77.9481 139.855 L84.0819 142.115 L86.9707 140.134 L86.144 132.5 L79.0618 132.5 L77.0455 136.367Z"/>
<path style="stroke:#000000; stroke-width:0.72; fill:none"  d="M90.1824 203.888 L91.6038 205 L96.2408 205 L98.2405 203.168 L98.3064 197.829 L93.7579 195.34 L89.5315 197.894Z"/>
<path style="stroke:#000000; stroke-width:0.72; fill:none"  d="M0.570336 138.162 L2.19194 141.5 L8.81353 141.5 L10.4381 136.899 L7.12575 133.037 L3.65938 133.196Z"/>
<path style="stroke:#000000; stroke-width:0.72; fill:none"  d="M88 140.947 L96.4054 141.597 L96.328 134.785 L92.8292 133.06 L88 135.561Z"/>
<path style="stroke:#000000; stroke-width:0.72; fill:none"  d="M96.5 159.787 L92.555 158.461 L88.577 165.246 L90.4453 167.482 L96.5 167.011Z"/>
<path style="stroke:#000000; stroke-width:0.72; fill:none"  d="M24.3252 129.596 L22.9662 134.225 L31.5 137.289 L31.5 129.158Z"/>
<path style="stroke:#000000; stroke-width:0.72; fill:none"  d="M19.3471 129.5 L10.4433 129.5 L11.492 135.53 L17.5513 136.149Z"/>
<path style="stroke:#000000; stroke-width:0.72; fill:none"  d="M72.4693 137.193 L75.8709 134.907 L76.4388 130 L66.049 130Z"/>
<path style="stroke:#000000; stroke-width:0.72; fill:none"  d="M57.8708 133.918 L57.989 128.5 L50.3728 128.5 L49.5944 131.741 L52.9016 135.605Z"/>
</svg>